<?xml version="1.0" encoding="UTF-8" standalone="no"?>
<!-- Created with Inkscape (http://www.inkscape.org/) -->

<svg
   width="49.999985mm"
   height="19.080675mm"
   viewBox="0 0 49.999984 19.080675"
   version="1.1"
   id="svg1"
   xml:space="preserve"
   inkscape:version="1.4.2 (ebf0e940d0, 2025-05-08)"
   sodipodi:docname="bad-doge.svg"
   xmlns:inkscape="http://www.inkscape.org/namespaces/inkscape"
   xmlns:sodipodi="http://sodipodi.sourceforge.net/DTD/sodipodi-0.dtd"
   xmlns="http://www.w3.org/2000/svg"
   xmlns:svg="http://www.w3.org/2000/svg"><sodipodi:namedview
     id="namedview1"
     pagecolor="#ffffff"
     bordercolor="#000000"
     borderopacity="0.25"
     inkscape:showpageshadow="2"
     inkscape:pageopacity="0.0"
     inkscape:pagecheckerboard="0"
     inkscape:deskcolor="#d1d1d1"
     inkscape:document-units="mm"
     showgrid="false"
     inkscape:zoom="1.5073232"
     inkscape:cx="118.09013"
     inkscape:cy="-114.10957"
     inkscape:window-width="1896"
     inkscape:window-height="1032"
     inkscape:window-x="0"
     inkscape:window-y="0"
     inkscape:window-maximized="1"
     inkscape:current-layer="layer1" /><defs
     id="defs1" /><g
     inkscape:label="engrave"
     inkscape:groupmode="layer"
     id="layer1"
     transform="translate(-73.785513,-136.58813)"><path
       style="font-size:8.49463px;font-family:'URW Bookman';-inkscape-font-specification:'URW Bookman, Normal';text-align:center;letter-spacing:0px;word-spacing:0px;text-anchor:middle;stroke:#000000;stroke-width:0.11;stroke-linejoin:round"
       d="m 81.178145,134.55779 v 0.26334 l 0.212366,0.0255 c 0.441721,0.051 0.543656,0.22086 0.552151,0.93441 v 3.33839 c -0.0085,0.71355 -0.11043,0.88344 -0.552151,0.93441 l -0.212366,0.0255 v 0.26334 h 3.10054 c 0.942904,0 1.529034,-0.13592 1.96226,-0.45022 0.390753,-0.28032 0.637097,-0.76452 0.637097,-1.2572 0,-0.4757 -0.23785,-0.90893 -0.645592,-1.16377 -0.254839,-0.1614 -0.450215,-0.23785 -0.908925,-0.34828 0.433226,-0.10193 0.611613,-0.18688 0.823979,-0.35677 0.263333,-0.19538 0.407742,-0.50119 0.407742,-0.83248 0,-0.42473 -0.23785,-0.83247 -0.620108,-1.05333 -0.390753,-0.22936 -0.900431,-0.3228 -1.766883,-0.3228 z m 1.61398,2.44646 v -1.39312 c 0,-0.61162 0.169893,-0.72205 1.146775,-0.72205 0.645592,0 1.02785,0.0765 1.333657,0.28033 0.263333,0.16989 0.416237,0.4672 0.416237,0.79849 0,0.73903 -0.552151,1.03635 -1.911292,1.03635 z m 0,0.36527 h 1.002366 c 0.798496,0 1.248711,0.0425 1.486561,0.1444 0.407742,0.17839 0.637097,0.56065 0.637097,1.07882 0,0.43323 -0.178387,0.82398 -0.475699,1.04484 -0.314302,0.24635 -0.80699,0.35678 -1.546023,0.35678 -0.535162,0 -0.883442,-0.0934 -1.002366,-0.27183 -0.07645,-0.11043 -0.101936,-0.27183 -0.101936,-0.68807 z m 7.713122,-2.81173 h -0.790001 l -1.461076,3.74613 c -0.56914,1.45259 -0.705054,1.64796 -1.274194,1.75839 l -0.09344,0.017 v 0.26334 h 2.27656 v -0.26334 c -0.305806,-0.0425 -0.450215,-0.0764 -0.543656,-0.13591 -0.127419,-0.0849 -0.212366,-0.23785 -0.212366,-0.39075 0,-0.12742 0.05946,-0.35678 0.161398,-0.62861 l 0.271828,-0.73054 h 2.191615 l 0.424731,1.09581 c 0.05946,0.15291 0.09344,0.29731 0.09344,0.36527 0,0.23785 -0.169892,0.35678 -0.603118,0.41624 l -0.06796,0.008 v 0.26334 h 2.386991 v -0.26334 c -0.552151,-0.0849 -0.654087,-0.17838 -0.959894,-0.96839 z m -1.537528,3.27044 0.942904,-2.54839 0.968388,2.54839 z m 4.272801,2.51441 h 2.590863 c 1.316667,0 2.021721,-0.18689 2.616346,-0.70506 0.56914,-0.49269 0.91742,-1.30817 0.91742,-2.14064 0,-0.80699 -0.331291,-1.64796 -0.849463,-2.14065 -0.58613,-0.55215 -1.401614,-0.7985 -2.684303,-0.7985 H 93.24052 v 0.26334 l 0.212366,0.0255 c 0.441721,0.051 0.543656,0.22086 0.552151,0.93441 v 3.33839 c -0.0085,0.71355 -0.11043,0.88344 -0.552151,0.93441 l -0.212366,0.0255 z m 1.61398,-4.65506 c 0,-0.3228 0.02548,-0.48419 0.101936,-0.56914 0.101935,-0.12742 0.475699,-0.21237 0.908925,-0.21237 0.925915,0 1.61398,0.30581 2.030217,0.90043 0.305806,0.42474 0.467204,1.00237 0.467204,1.63097 0,0.68807 -0.195376,1.32516 -0.543656,1.75839 -0.407742,0.51817 -1.095807,0.7985 -1.953765,0.7985 -0.424731,0 -0.773011,-0.0765 -0.891936,-0.18689 -0.09344,-0.0849 -0.118925,-0.22086 -0.118925,-0.56064 z m 7.9,4.65506 h 2.59086 c 1.31667,0 2.02172,-0.18689 2.61634,-0.70506 0.56914,-0.49269 0.91742,-1.30817 0.91742,-2.14064 0,-0.80699 -0.33129,-1.64796 -0.84946,-2.14065 -0.58613,-0.55215 -1.40161,-0.7985 -2.6843,-0.7985 h -2.59086 v 0.26334 l 0.21236,0.0255 c 0.44172,0.051 0.54366,0.22086 0.55215,0.93441 v 3.33839 c -0.008,0.71355 -0.11043,0.88344 -0.55215,0.93441 l -0.21236,0.0255 z m 1.61398,-4.65506 c 0,-0.3228 0.0255,-0.48419 0.10193,-0.56914 0.10194,-0.12742 0.4757,-0.21237 0.90893,-0.21237 0.92591,0 1.61398,0.30581 2.03021,0.90043 0.30581,0.42474 0.46721,1.00237 0.46721,1.63097 0,0.68807 -0.19538,1.32516 -0.54366,1.75839 -0.40774,0.51817 -1.09581,0.7985 -1.95376,0.7985 -0.42473,0 -0.77301,-0.0765 -0.89194,-0.18689 -0.0934,-0.0849 -0.11892,-0.22086 -0.11892,-0.56064 z m 8.35021,-1.24022 c -1.70742,0 -3.05807,1.31667 -3.05807,2.98162 0,1.71591 1.30818,3.02409 3.02409,3.02409 0.93441,0 1.85183,-0.42474 2.41248,-1.1128 0.41623,-0.50968 0.6286,-1.14678 0.6286,-1.86882 0,-1.74989 -1.2657,-3.02409 -3.0071,-3.02409 z m -0.017,0.40775 c 1.24022,0 2.02172,1.02785 2.02172,2.66731 0,1.53753 -0.79849,2.5229 -2.03021,2.5229 -1.24022,0 -2.03022,-1.01086 -2.03022,-2.60785 0,-1.56301 0.80699,-2.58236 2.03871,-2.58236 z m 8.69,-0.29732 h -0.26333 l -0.16989,0.40775 c -0.50119,-0.33979 -1.07033,-0.51818 -1.65646,-0.51818 -0.76451,0 -1.53752,0.33979 -2.07269,0.90893 -0.50118,0.55215 -0.77301,1.2657 -0.77301,2.07269 0,1.7329 1.25721,3.02409 2.93065,3.02409 0.73903,0 1.28269,-0.19538 1.92828,-0.69656 l 0.27183,0.58613 h 0.39925 v -1.52904 c 0.008,-0.72204 0.10193,-0.87494 0.55215,-0.93441 l 0.1529,-0.0255 v -0.26333 h -2.31903 v 0.25483 c 0.6286,0.0849 0.83247,0.28033 0.83247,0.80699 0,0.31431 -0.0934,0.58613 -0.27183,0.81549 -0.28881,0.33978 -0.86645,0.57763 -1.42709,0.57763 -1.22323,0 -2.04721,-1.02785 -2.04721,-2.55688 0,-1.5885 0.75602,-2.63333 1.8943,-2.63333 0.45871,0 0.90043,0.17838 1.34215,0.54365 0.28033,0.23785 0.50119,0.49269 0.89194,1.05334 l 0.3228,-0.0934 z m 6.60032,0 h -4.85043 v 0.26334 l 0.21236,0.0255 c 0.44173,0.051 0.54366,0.22086 0.55216,0.93441 v 3.33839 c -0.008,0.71355 -0.11043,0.88344 -0.55216,0.93441 l -0.21236,0.0255 v 0.26334 h 4.95237 l 0.77301,-1.80936 -0.26333,-0.11892 c -0.92592,1.18924 -1.62248,1.56301 -2.88818,1.56301 -0.42473,0 -0.71355,-0.0764 -0.84946,-0.23785 -0.0764,-0.10194 -0.11043,-0.23785 -0.11043,-0.50968 v -1.79237 h 0.6286 c 0.65409,-0.008 0.96839,0.3228 1.04484,1.09581 h 0.28882 v -2.53989 h -0.28882 c -0.0934,0.84946 -0.30581,1.07881 -1.02785,1.07881 h -0.64559 v -1.44408 c 0,-0.54366 0.22086,-0.70506 0.96839,-0.70506 1.15527,0 1.80086,0.3143 2.58236,1.2742 l 0.27183,-0.11043 z"
       id="text6"
       inkscape:label="bad-doge"
       transform="scale(0.94061219,1.0631374)"
       aria-label="BAD DOGE" /></g><g
     inkscape:groupmode="layer"
     id="layer5"
     inkscape:label="cut"><path
       id="rect1"
       style="opacity:1;fill:none;stroke:#000000;stroke-width:0.11;stroke-linejoin:round"
       d="m 79.416272,136.6438 c -1.367098,-0.0248 -2.808734,0.63725 -3.900758,1.79128 -1.93994,2.05017 -2.237591,5.03235 -0.664812,6.66077 0.460392,0.47678 1.051635,0.80092 1.723051,0.94463 -0.671417,0.14371 -1.262659,0.46785 -1.723051,0.94463 -1.572504,1.62842 -1.274867,4.61027 0.664812,6.66035 1.939903,2.05025 5.384655,2.80603 6.360191,0.76356 1.398325,-2.92766 1.397871,-2.52557 4.216169,-3.78017 h 25.013056 c 4.00558,2.36303 2.66018,1.85614 4.59058,3.84094 1.57268,1.62854 4.42028,1.28668 6.36019,-0.76355 1.93967,-2.05009 2.23731,-5.03194 0.66481,-6.66036 -0.26323,-0.27262 -0.57023,-0.49633 -0.91221,-0.66475 0.24945,-0.14876 0.47688,-0.32905 0.67847,-0.53784 1.57262,-1.62857 1.27479,-4.61071 -0.66523,-6.66077 -1.93992,-2.04989 -3.57192,-3.09355 -6.35978,-0.76315 -1.82039,1.52169 -4.07578,3.50319 -4.07578,3.50319 H 86.622475 c -3.061655,-0.6307 -2.639645,-1.68905 -4.141944,-3.38661 v -4.1e-4 c -0.159171,-0.32249 -0.362423,-0.6127 -0.604826,-0.86361 -0.626833,-0.6492 -1.491346,-1.01059 -2.459433,-1.02813 z"
       sodipodi:nodetypes="scccccsccccscccscccccs"
       transform="translate(-73.785513,-136.58813)"
       inkscape:label="bone" /></g></svg>
