<?xml version="1.0" encoding="UTF-8" standalone="no"?>
<!-- Created with Inkscape (http://www.inkscape.org/) -->

<svg
   width="50.5mm"
   height="50.5mm"
   viewBox="0 0 50.5 50.5"
   version="1.1"
   id="svg1"
   xml:space="preserve"
   inkscape:version="1.4.2 (ebf0e940d0, 2025-05-08)"
   sodipodi:docname="cleanup.svg"
   xmlns:inkscape="http://www.inkscape.org/namespaces/inkscape"
   xmlns:sodipodi="http://sodipodi.sourceforge.net/DTD/sodipodi-0.dtd"
   xmlns="http://www.w3.org/2000/svg"
   xmlns:svg="http://www.w3.org/2000/svg"><sodipodi:namedview
     id="namedview1"
     pagecolor="#ffffff"
     bordercolor="#000000"
     borderopacity="0.25"
     inkscape:showpageshadow="2"
     inkscape:pageopacity="0.0"
     inkscape:pagecheckerboard="0"
     inkscape:deskcolor="#d1d1d1"
     inkscape:document-units="mm"
     inkscape:zoom="4.4324258"
     inkscape:cx="95.320264"
     inkscape:cy="95.433069"
     inkscape:window-width="1896"
     inkscape:window-height="1032"
     inkscape:window-x="0"
     inkscape:window-y="0"
     inkscape:window-maximized="1"
     inkscape:current-layer="layer1" /><defs
     id="defs1" /><g
     inkscape:label="Layer 1"
     inkscape:groupmode="layer"
     id="layer1"
     transform="translate(-79.750001,-123.25)"><g
       id="g6"
       transform="matrix(0.86158787,0,0,0.90047021,-17.563295,31.492346)"
       style="stroke-width:1.13531"><path
         style="fill:#000000;stroke-width:1.13531"
         d="m 160.93209,154.5037 -0.73624,-0.38781 c -1.69099,-0.89072 -6.13373,-2.01671 -6.66097,-4.65261 -0.14916,-0.74572 -0.671,-1.7554 -0.67675,-1.99488 -0.0424,-1.76487 -0.0162,0.30541 0.12574,0.67869 0.34823,0.91589 0.26096,1.18632 -0.076,0.51194 -1.57458,-3.15134 -0.8848,-1.92226 -0.36048,-1.19063 -0.0722,-1.12339 -0.10077,-1.20097 -0.31655,-0.86118 -0.1485,0.23384 -0.52987,-0.007 -1.31428,-0.83006 -0.60779,-0.63773 -1.40483,-1.23474 -1.7712,-1.32669 m -2.7057,-0.45376 c 2.95937,1.00374 -0.87064,0.42169 -0.87064,-0.54928 0,-0.77061 0.96616,-2.48277 1.74809,-3.09784 0.95896,-0.75431 2.19569,-0.70126 3.44051,0.14757 0.83026,0.56616 1.29607,0.6914 2.41073,0.64817 1.62714,-0.0631 2.30664,0.24187 2.84094,1.27508 0.21536,0.41647 0.74717,0.88118 1.1818,1.0327 0.86625,0.30197 2.02746,1.94785 2.92618,4.14752 l 0.54051,1.32291 2.28645,-0.0698 c 2.56722,-0.0784 2.9264,0.0951 3.81961,1.84522 0.76378,1.49649 0.6603,2.73623 -0.30932,3.70585 -0.79339,0.79339 -0.85135,0.80723 -2.77215,0.66196 -2.32681,0.43209 -1.4245,-0.8663 -2.08153,-0.0855 m 3.81193,-1.16297 c 0.30179,-0.19503 0.20671,-0.24995 -0.39687,-0.22922 -0.43657,0.015 -1.15094,0.11814 -1.5875,0.22922 -0.72389,0.1842 -0.68897,0.20438 0.39687,0.22923 0.65485,0.015 1.36922,-0.0882 1.5875,-0.22923 z m 0.17645,-1.47488 c 0.0879,-0.2291 0.005,-0.88668 -0.18495,-1.4613 -0.37528,-1.13709 -1.17465,-1.55775 -2.02285,-1.06448 -0.45218,0.26295 -0.44824,0.28091 0.0632,0.28845 0.92682,0.0137 1.77891,1.02024 1.604,1.89479 -0.16008,0.8004 0.2622,1.06798 0.54057,0.34254 z m -2.5577,-0.10582 c 0,-0.14178 -0.35222,-0.43993 -0.78271,-0.66255 -0.45954,-0.23764 -1.22993,-1.14169 -1.86586,-2.1896 -2.4927,-4.10757 -2.78498,-4.55392 -2.98498,-4.55835 -0.23357,-0.005 0.74252,1.76168 2.17722,3.94104 0.51854,0.78767 1.0954,1.70474 1.28192,2.03793 0.59111,1.0559 2.17441,2.09828 2.17441,1.43153 z m -4.54416,-1.99115 c -0.59855,-0.80037 -1.13739,-1.45521 -1.19743,-1.45521 -0.1952,0 0.80591,1.55919 1.4406,2.24367 1.01869,1.09861 0.91385,0.75868 -0.24317,-0.78846 z m 1.15118,-0.49093 c -0.28731,-0.31207 -1.09254,-1.51231 -1.78942,-2.66719 -0.69688,-1.15488 -1.30915,-1.97346 -1.36062,-1.81907 -0.1253,0.3759 3.17575,5.31584 3.45407,5.16892 0.12008,-0.0634 -0.0167,-0.37059 -0.30403,-0.68266 z m 2.59923,0.2572 c 0,-0.0558 -0.23829,-0.16374 -0.52953,-0.2399 -0.29124,-0.0762 -0.46281,-0.0305 -0.38126,0.10143 0.14241,0.23043 0.91079,0.34725 0.91079,0.13847 z m -6.61458,-1.71825 c 0,-0.1277 -0.16923,-0.37263 -0.37606,-0.54429 -0.30857,-0.25609 -0.35052,-0.21442 -0.23372,0.23219 0.13906,0.5318 0.60978,0.77272 0.60978,0.3121 z m 1.21486,-0.51469 c -0.21242,-0.41078 -0.58518,-0.912 -0.82836,-1.11382 -0.24318,-0.20182 -0.89261,-1.02658 -1.44318,-1.83281 -1.19125,-1.7444 -2.01479,-2.53031 -2.91207,-2.77901 -0.4742,-0.13144 -0.31767,0.0644 0.5529,0.69163 1.21225,0.87345 3.13338,3.21618 4.01324,4.89399 0.25581,0.48779 0.58629,0.8869 0.7344,0.8869 0.15506,0 0.10546,-0.31684 -0.11693,-0.74688 z m -2.53778,-1.63437 c -0.15576,-0.29104 -0.34273,-0.52917 -0.41549,-0.52917 -0.0728,0 -0.005,0.23813 0.15091,0.52917 0.15576,0.29104 0.34273,0.52916 0.41549,0.52916 0.0728,0 0.005,-0.23812 -0.15091,-0.52916 z m 1.09187,-1.78594 c -0.27852,-0.5457 -0.77602,-1.23031 -1.10556,-1.52135 -0.6497,-0.5738 -0.55072,-0.35958 0.64416,1.39408 0.94348,1.38467 1.12931,1.43594 0.4614,0.12727 z m -7.86688,-1.4346 c -0.0789,-0.12768 0.009,-0.19944 0.19488,-0.15946 0.1861,0.04 0.34561,-0.0464 0.35445,-0.19188 0.0408,-0.67119 0.48889,-0.9184 1.51728,-0.83705 l 1.08323,0.0857 -0.59798,-0.48421 c -0.32888,-0.26631 -0.82832,-0.48421 -1.10985,-0.48421 -0.66458,0 -1.81075,1.15103 -1.81075,1.81842 0,0.28575 1.54343,1.86351 -0.15389,1.00421 -0.42474,-0.21504 -0.12774,0.45264 0.25611,-0.0173 0.2255,-0.2761 0.34543,-0.60647 0.26652,-0.73416 z m 1.71889,0.37627 c 0.75617,-0.43354 0.88438,-0.43546 2.01321,-0.0301 0.99567,0.35751 1.15009,0.36599 0.88676,0.0487 -0.54939,-0.66197 -1.77908,-1.16155 -2.44668,-0.99399 -0.67581,0.16962 -2.04316,1.43844 -1.55015,1.43844 0.1591,0 0.65268,-0.20836 1.09686,-0.46302 z"
         id="path2"
         sodipodi:nodetypes="cssssscsscssssssscsssscssssssssssssssscssssssssssssssssssssscsssssscscscsssssssscssscsssssssssss" /><path
         id="rect2"
         style="fill:none;stroke:#000000;stroke-width:0.58373;stroke-linejoin:round"
         transform="matrix(1,0,0.32508532,0.94568469,0,0)"
         d="m 96.876747,111.03065 h 0.688525 v 40.77191 h -0.688525 z" /><path
         style="font-size:22.6667px;font-family:Sans;-inkscape-font-specification:'Sans, Normal';text-align:center;letter-spacing:0px;word-spacing:0px;text-anchor:middle;fill:#1a1a1a;stroke:#000000;stroke-width:0.567656;stroke-linejoin:round"
         d="m 207.73589,95.537017 h -2.35733 v 3.672006 h -1.92667 v -3.672006 h -7.75201 v -1.700002 l 7.61601,-10.902683 h 2.06267 v 10.812016 h 2.35733 z m -4.284,-6.890677 q 0,-1.178668 0.0453,-1.994669 0.0453,-0.838668 0.068,-1.58667 h -0.0907 q -0.18133,0.430668 -0.45333,0.929335 -0.272,0.498668 -0.52133,0.838668 l -4.85068,6.913344 h 5.80268 z m 7.82002,10.562683 6.64134,-14.370689 h -8.72668 v -1.813336 h 10.85735 v 1.541336 l -6.57334,14.642689 z"
         id="text2"
         transform="scale(0.75242465,1.3290367)"
         aria-label="47" /><path
         style="font-size:8.83872px;font-family:Sans;-inkscape-font-specification:'Sans, Normal';text-align:center;letter-spacing:0px;word-spacing:0px;text-anchor:middle;fill:#1a1a1a;stroke:#000000;stroke-width:0.567658;stroke-linejoin:round"
         d="m 148.2146,-85.194696 q -1.01646,0 -1.59981,0.680582 -0.58336,0.680581 -0.58336,1.86497 0,1.17555 0.53917,1.86497 0.548,0.680581 1.63516,0.680581 0.41542,0 0.78664,-0.07071 0.37123,-0.07071 0.72478,-0.176775 v 0.68942 q -0.35355,0.132581 -0.73361,0.194452 -0.37123,0.06187 -0.89271,0.06187 -0.96343,0 -1.60865,-0.397742 -0.64523,-0.397743 -0.97226,-1.131356 -0.3182,-0.733614 -0.3182,-1.723551 0,-0.954582 0.34471,-1.679357 0.35355,-0.733614 1.03414,-1.140195 0.68058,-0.41542 1.65284,-0.41542 0.99877,0 1.74122,0.371227 l -0.31819,0.671742 q -0.29168,-0.13258 -0.65407,-0.238645 -0.35354,-0.106065 -0.7778,-0.106065 z m 3.55316,5.700975 h -0.7778 v -6.717427 h 0.7778 z m 3.3322,-4.825941 q 0.60987,0 1.04296,0.265161 0.44194,0.265162 0.67175,0.751292 0.23864,0.47729 0.23864,1.122517 v 0.468452 h -3.24381 q 0.0177,0.804324 0.40658,1.228582 0.39775,0.41542 1.10484,0.41542 0.45078,0 0.79549,-0.07955 0.35355,-0.08839 0.72477,-0.247484 v 0.680581 q -0.36238,0.159097 -0.71593,0.229807 -0.35355,0.07955 -0.83968,0.07955 -0.67174,0 -1.19323,-0.274 -0.51264,-0.274 -0.80432,-0.813162 -0.28284,-0.548001 -0.28284,-1.334647 0,-0.777808 0.25632,-1.334647 0.26516,-0.556839 0.73362,-0.857356 0.47729,-0.300516 1.10484,-0.300516 z m -0.009,0.636388 q -0.55684,0 -0.88388,0.362387 -0.31819,0.353549 -0.38006,0.989937 h 2.41297 q -0.009,-0.601033 -0.28284,-0.972259 -0.274,-0.380065 -0.86619,-0.380065 z m 4.95851,-0.62755 q 0.8662,0 1.28162,0.380065 0.41542,0.380065 0.41542,1.210905 v 3.226133 h -0.56568 l -0.15026,-0.671743 h -0.0354 q -0.30935,0.388904 -0.65406,0.574517 -0.33587,0.185613 -0.93691,0.185613 -0.64522,0 -1.06948,-0.335871 -0.42426,-0.34471 -0.42426,-1.069485 0,-0.707098 0.55684,-1.087163 0.55684,-0.388904 1.71471,-0.424259 l 0.80433,-0.02652 v -0.282839 q 0,-0.592194 -0.25633,-0.822001 -0.25632,-0.229806 -0.72477,-0.229806 -0.37123,0 -0.7071,0.114903 -0.33587,0.106065 -0.62755,0.247484 l -0.23864,-0.583355 q 0.30935,-0.167936 0.73361,-0.282839 0.42426,-0.123743 0.88387,-0.123743 z m 0.22981,2.527874 q -0.88387,0.03535 -1.22858,0.282839 -0.33588,0.247485 -0.33588,0.698259 0,0.397743 0.23865,0.583356 0.24748,0.185613 0.62755,0.185613 0.60103,0 0.99877,-0.327033 0.39775,-0.335871 0.39775,-1.025291 v -0.424259 z m 5.21485,-2.536712 q 0.84852,0 1.28161,0.41542 0.4331,0.406581 0.4331,1.325808 v 3.084713 h -0.76897 v -3.031681 q 0,-1.140195 -1.06064,-1.140195 -0.78665,0 -1.08717,0.441936 -0.30051,0.441936 -0.30051,1.272776 v 2.457164 h -0.77781 v -4.737554 h 0.62755 l 0.1149,0.645226 h 0.0442 q 0.2298,-0.371226 0.63638,-0.548 0.40659,-0.185613 0.85736,-0.185613 z m 9.43976,0.08839 v 4.737554 h -0.63639 l -0.1149,-0.627549 h -0.0354 q -0.22981,0.371226 -0.63639,0.548001 -0.40658,0.167935 -0.86619,0.167935 -0.85736,0 -1.29046,-0.406581 -0.43309,-0.41542 -0.43309,-1.316969 v -3.102391 h 0.78664 v 3.049358 q 0,1.131357 1.05181,1.131357 0.78665,0 1.08716,-0.441936 0.30936,-0.441936 0.30936,-1.272776 v -2.466003 z m 3.75645,-0.08839 q 0.87504,0 1.40536,0.609871 0.53916,0.609872 0.53916,1.838454 0,1.210905 -0.53916,1.838454 -0.53032,0.627549 -1.4142,0.627549 -0.548,0 -0.91038,-0.20329 -0.35355,-0.21213 -0.55684,-0.48613 h -0.053 q 0.0177,0.150258 0.0354,0.380065 0.0177,0.229807 0.0177,0.397742 v 1.944519 h -0.77781 v -6.858847 h 0.63639 l 0.10606,0.645226 h 0.0354 q 0.21213,-0.309355 0.55684,-0.521484 0.34471,-0.212129 0.91922,-0.212129 z m -0.14142,0.654065 q -0.72477,0 -1.02529,0.406581 -0.29168,0.406581 -0.30935,1.237421 v 0.150258 q 0,0.875034 0.28284,1.352324 0.29167,0.468453 1.06948,0.468453 0.4331,0 0.7071,-0.238646 0.28284,-0.238645 0.41542,-0.645226 0.14142,-0.41542 0.14142,-0.945743 0,-0.813163 -0.3182,-1.299292 -0.30935,-0.48613 -0.96342,-0.48613 z m 9.74027,1.79426 q 0,1.17555 -0.60103,1.820777 -0.5922,0.645226 -1.60865,0.645226 -0.62755,0 -1.12252,-0.282839 -0.48613,-0.291678 -0.76896,-0.839678 -0.28284,-0.55684 -0.28284,-1.343486 0,-1.17555 0.59219,-1.811937 0.5922,-0.636388 1.60865,-0.636388 0.64522,0 1.13135,0.291677 0.49497,0.28284 0.76897,0.83084 0.28284,0.539162 0.28284,1.325808 z m -3.57968,0 q 0,0.839679 0.32703,1.334647 0.33587,0.48613 1.06065,0.48613 0.71594,0 1.05181,-0.48613 0.33587,-0.494968 0.33587,-1.334647 0,-0.839678 -0.33587,-1.316969 -0.33587,-0.477291 -1.06065,-0.477291 -0.72477,0 -1.05181,0.477291 -0.32703,0.477291 -0.32703,1.316969 z m 7.08865,-2.448325 q 0.84852,0 1.28162,0.41542 0.43309,0.406581 0.43309,1.325808 v 3.084713 h -0.76897 v -3.031681 q 0,-1.140195 -1.06064,-1.140195 -0.78665,0 -1.08716,0.441936 -0.30052,0.441936 -0.30052,1.272776 v 2.457164 h -0.77781 v -4.737554 h 0.62755 l 0.1149,0.645226 h 0.0442 q 0.2298,-0.371226 0.63639,-0.548 0.40658,-0.185613 0.85735,-0.185613 z"
         id="text3"
         inkscape:transform-center-x="-7.3009302"
         inkscape:transform-center-y="-13.091471"
         transform="matrix(0.34083101,0.92742883,-0.95684481,0.33035298,0,0)"
         aria-label="Clean up on" /><path
         style="font-size:12.3759px;font-family:Sans;-inkscape-font-specification:'Sans, Normal';text-align:center;letter-spacing:0px;word-spacing:0px;text-anchor:middle;fill:#1a1a1a;stroke:#000000;stroke-width:0.567659;stroke-linejoin:round"
         d="m 165.6678,-55.555271 q 1.21202,0.04444 1.7738,0.597564 0.56177,0.55312 0.51914,1.715674 l -0.16552,4.51417 -0.79153,-0.02902 -0.17578,-0.947647 -0.0495,-0.0018 q -0.45282,0.528302 -0.94468,0.770335 -0.47949,0.242486 -1.32049,0.211648 -0.90283,-0.0331 -1.47924,-0.524842 -0.57596,-0.504103 -0.53878,-1.518246 0.0363,-0.989407 0.83494,-1.492643 0.79911,-0.515603 2.42108,-0.505665 l 1.12681,0.0042 0.0145,-0.395763 q 0.0304,-0.828629 -0.31649,-1.163338 -0.34687,-0.334708 -1.00235,-0.358744 -0.51944,-0.01905 -0.9953,0.124499 -0.47541,0.131178 -0.8908,0.314094 l -0.30399,-0.828505 q 0.44148,-0.219112 1.04102,-0.358123 0.59999,-0.151378 1.24311,-0.127796 z m 0.19185,3.548921 q -1.23857,0.0041 -1.7336,0.332727 -0.48267,0.329059 -0.5058,0.959806 -0.0204,0.556542 0.304,0.828506 0.33676,0.272417 0.86857,0.291917 0.841,0.03084 1.41432,-0.406355 0.57377,-0.449561 0.60915,-1.414233 l 0.0218,-0.593644 z m 6.8714,-1.8473 q 0.23898,0.06448 0.37307,0.280119 0.14926,0.206916 0.0558,0.553425 -0.0903,0.33456 -0.32659,0.450257 -0.22436,0.118921 -0.46333,0.05444 -0.26287,-0.07093 -0.39696,-0.286567 -0.1341,-0.21564 -0.0438,-0.550201 0.0935,-0.346509 0.31464,-0.453481 0.22436,-0.118921 0.48723,-0.04799 z m -0.13423,2.540298 -1.72805,6.404446 -1.05148,-0.283711 1.72806,-6.404445 z m 6.90307,1.179332 q 0,0.96532 -0.7178,1.460356 -0.71781,0.495036 -1.93065,0.495036 -0.69305,0 -1.20046,-0.111383 -0.49503,-0.111383 -0.87869,-0.309397 v -0.990072 q 0.39603,0.198014 0.95295,0.371277 0.56929,0.160886 1.15096,0.160886 0.82918,0 1.20046,-0.259893 0.37128,-0.27227 0.37128,-0.717803 0,-0.247518 -0.13614,-0.445532 -0.13613,-0.198014 -0.49504,-0.396029 -0.34652,-0.198014 -1.00244,-0.445532 -0.64355,-0.247518 -1.10146,-0.495036 -0.45791,-0.247518 -0.70542,-0.594044 -0.24752,-0.346525 -0.24752,-0.891064 0,-0.841562 0.68067,-1.29947 0.69305,-0.457908 1.80688,-0.457908 0.60642,0 1.12621,0.123759 0.53216,0.111383 0.99007,0.321773 l -0.37127,0.866313 q -0.42079,-0.173262 -0.87869,-0.297021 -0.45791,-0.123759 -0.94057,-0.123759 -0.6683,0 -1.0272,0.222766 -0.34653,0.21039 -0.34653,0.581667 0,0.27227 0.16089,0.470284 0.16089,0.185639 0.53216,0.371277 0.38366,0.173263 1.01483,0.420781 0.63117,0.235142 1.0767,0.48266 0.44553,0.247518 0.68068,0.606419 0.23514,0.346525 0.23514,0.878689 z m 2.61807,1.25227 -1.04845,0.294705 -2.54518,-9.054775 1.04844,-0.294705 z m 3.10382,-6.903663 q 0.82208,-0.231076 1.50634,-0.03775 0.69618,0.189979 1.19014,0.758187 0.50252,0.552945 0.747,1.42268 l 0.17749,0.631451 -4.3725,1.229055 q 0.32858,1.077492 1.01355,1.50202 0.69354,0.409265 1.64667,0.141351 0.60762,-0.170795 1.04214,-0.408631 0.44307,-0.253099 0.88319,-0.608209 l 0.25787,0.917392 q -0.4282,0.351761 -0.87798,0.581032 -0.44643,0.241184 -1.10171,0.425375 -0.90547,0.254518 -1.71223,0.08277 -0.79484,-0.175102 -1.39229,-0.791352 -0.58889,-0.631513 -0.88694,-1.691875 -0.29471,-1.048448 -0.16018,-1.89616 0.14645,-0.851061 0.66403,-1.433636 0.52951,-0.585924 1.37541,-0.823697 z m 0.22921,0.86117 q -0.75059,0.210982 -1.05411,0.823373 -0.29495,0.597129 -0.13723,1.478392 l 3.25257,-0.914256 q -0.23964,-0.806816 -0.74964,-1.203394 -0.51334,-0.408493 -1.31159,-0.184115 z"
         id="text4"
         inkscape:transform-center-x="40.890045"
         inkscape:transform-center-y="-14.408286"
         transform="matrix(0.47652267,0.92118577,-0.82229974,0.50891425,0,0)"
         aria-label="aisle" /></g><path
       id="rect6"
       style="fill:none;stroke:#000000;stroke-width:0.499999;stroke-linejoin:round"
       d="m 80,123.5 h 50 v 50 H 80 Z" /></g></svg>
