<?xml version="1.0" encoding="UTF-8" standalone="no"?>
<!-- Created with Inkscape (http://www.inkscape.org/) -->

<svg
   width="50.5mm"
   height="50.5mm"
   viewBox="0 0 50.5 50.5"
   version="1.1"
   id="svg1"
   xml:space="preserve"
   inkscape:version="1.4.2 (ebf0e940d0, 2025-05-08)"
   sodipodi:docname="cleanup.svg"
   xmlns:inkscape="http://www.inkscape.org/namespaces/inkscape"
   xmlns:sodipodi="http://sodipodi.sourceforge.net/DTD/sodipodi-0.dtd"
   xmlns="http://www.w3.org/2000/svg"
   xmlns:svg="http://www.w3.org/2000/svg"><sodipodi:namedview
     id="namedview1"
     pagecolor="#ffffff"
     bordercolor="#000000"
     borderopacity="0.25"
     inkscape:showpageshadow="2"
     inkscape:pageopacity="0.0"
     inkscape:pagecheckerboard="0"
     inkscape:deskcolor="#d1d1d1"
     inkscape:document-units="mm"
     inkscape:zoom="2.2162129"
     inkscape:cx="142.81119"
     inkscape:cy="136.2685"
     inkscape:window-width="1896"
     inkscape:window-height="1032"
     inkscape:window-x="0"
     inkscape:window-y="0"
     inkscape:window-maximized="1"
     inkscape:current-layer="layer6"
     showgrid="false" /><defs
     id="defs1" /><g
     inkscape:label="engrave"
     inkscape:groupmode="layer"
     id="layer1"
     transform="translate(-79.750001,-123.25)"><path
       style="display:inline;stroke-width:0.567656;font-size:22.6667px;font-family:Sans;-inkscape-font-specification:'Sans, Normal';text-align:center;letter-spacing:0px;word-spacing:0px;text-anchor:middle;fill:#1a1a1a;stroke:#000000;stroke-linejoin:round"
       d="m 207.73589,95.537017 h -2.35733 v 3.672006 h -1.92667 v -3.672006 h -7.75201 v -1.700002 l 7.61601,-10.902683 h 2.06267 v 10.812016 h 2.35733 z m -4.284,-6.890677 q 0,-1.178668 0.0453,-1.994669 0.0453,-0.838668 0.068,-1.58667 h -0.0907 q -0.18133,0.430668 -0.45333,0.929335 -0.272,0.498668 -0.52133,0.838668 l -4.85068,6.913344 h 5.80268 z m 7.82002,10.562683 6.64134,-14.370689 h -8.72668 v -1.813336 h 10.85735 v 1.541336 l -6.57334,14.642689 z"
       id="text2"
       transform="matrix(0.64827994,0,0,1.196758,-17.563294,31.492347)"
       aria-label="47" /><path
       style="display:inline;stroke-width:0.567658;font-size:8.83872px;font-family:Sans;-inkscape-font-specification:'Sans, Normal';text-align:center;letter-spacing:0px;word-spacing:0px;text-anchor:middle;fill:#1a1a1a;stroke:#000000;stroke-linejoin:round"
       d="m 148.2146,-85.194696 q -1.01646,0 -1.59981,0.680582 -0.58336,0.680581 -0.58336,1.86497 0,1.17555 0.53917,1.86497 0.548,0.680581 1.63516,0.680581 0.41542,0 0.78664,-0.07071 0.37123,-0.07071 0.72478,-0.176775 v 0.68942 q -0.35355,0.132581 -0.73361,0.194452 -0.37123,0.06187 -0.89271,0.06187 -0.96343,0 -1.60865,-0.397742 -0.64523,-0.397743 -0.97226,-1.131356 -0.3182,-0.733614 -0.3182,-1.723551 0,-0.954582 0.34471,-1.679357 0.35355,-0.733614 1.03414,-1.140195 0.68058,-0.41542 1.65284,-0.41542 0.99877,0 1.74122,0.371227 l -0.31819,0.671742 q -0.29168,-0.13258 -0.65407,-0.238645 -0.35354,-0.106065 -0.7778,-0.106065 z m 3.55316,5.700975 h -0.7778 v -6.717427 h 0.7778 z m 3.3322,-4.825941 q 0.60987,0 1.04296,0.265161 0.44194,0.265162 0.67175,0.751292 0.23864,0.47729 0.23864,1.122517 v 0.468452 h -3.24381 q 0.0177,0.804324 0.40658,1.228582 0.39775,0.41542 1.10484,0.41542 0.45078,0 0.79549,-0.07955 0.35355,-0.08839 0.72477,-0.247484 v 0.680581 q -0.36238,0.159097 -0.71593,0.229807 -0.35355,0.07955 -0.83968,0.07955 -0.67174,0 -1.19323,-0.274 -0.51264,-0.274 -0.80432,-0.813162 -0.28284,-0.548001 -0.28284,-1.334647 0,-0.777808 0.25632,-1.334647 0.26516,-0.556839 0.73362,-0.857356 0.47729,-0.300516 1.10484,-0.300516 z m -0.009,0.636388 q -0.55684,0 -0.88388,0.362387 -0.31819,0.353549 -0.38006,0.989937 h 2.41297 q -0.009,-0.601033 -0.28284,-0.972259 -0.274,-0.380065 -0.86619,-0.380065 z m 4.95851,-0.62755 q 0.8662,0 1.28162,0.380065 0.41542,0.380065 0.41542,1.210905 v 3.226133 h -0.56568 l -0.15026,-0.671743 h -0.0354 q -0.30935,0.388904 -0.65406,0.574517 -0.33587,0.185613 -0.93691,0.185613 -0.64522,0 -1.06948,-0.335871 -0.42426,-0.34471 -0.42426,-1.069485 0,-0.707098 0.55684,-1.087163 0.55684,-0.388904 1.71471,-0.424259 l 0.80433,-0.02652 v -0.282839 q 0,-0.592194 -0.25633,-0.822001 -0.25632,-0.229806 -0.72477,-0.229806 -0.37123,0 -0.7071,0.114903 -0.33587,0.106065 -0.62755,0.247484 l -0.23864,-0.583355 q 0.30935,-0.167936 0.73361,-0.282839 0.42426,-0.123743 0.88387,-0.123743 z m 0.22981,2.527874 q -0.88387,0.03535 -1.22858,0.282839 -0.33588,0.247485 -0.33588,0.698259 0,0.397743 0.23865,0.583356 0.24748,0.185613 0.62755,0.185613 0.60103,0 0.99877,-0.327033 0.39775,-0.335871 0.39775,-1.025291 v -0.424259 z m 5.21485,-2.536712 q 0.84852,0 1.28161,0.41542 0.4331,0.406581 0.4331,1.325808 v 3.084713 h -0.76897 v -3.031681 q 0,-1.140195 -1.06064,-1.140195 -0.78665,0 -1.08717,0.441936 -0.30051,0.441936 -0.30051,1.272776 v 2.457164 h -0.77781 v -4.737554 h 0.62755 l 0.1149,0.645226 h 0.0442 q 0.2298,-0.371226 0.63638,-0.548 0.40659,-0.185613 0.85736,-0.185613 z m 9.43976,0.08839 v 4.737554 h -0.63639 l -0.1149,-0.627549 h -0.0354 q -0.22981,0.371226 -0.63639,0.548001 -0.40658,0.167935 -0.86619,0.167935 -0.85736,0 -1.29046,-0.406581 -0.43309,-0.41542 -0.43309,-1.316969 v -3.102391 h 0.78664 v 3.049358 q 0,1.131357 1.05181,1.131357 0.78665,0 1.08716,-0.441936 0.30936,-0.441936 0.30936,-1.272776 v -2.466003 z m 3.75645,-0.08839 q 0.87504,0 1.40536,0.609871 0.53916,0.609872 0.53916,1.838454 0,1.210905 -0.53916,1.838454 -0.53032,0.627549 -1.4142,0.627549 -0.548,0 -0.91038,-0.20329 -0.35355,-0.21213 -0.55684,-0.48613 h -0.053 q 0.0177,0.150258 0.0354,0.380065 0.0177,0.229807 0.0177,0.397742 v 1.944519 h -0.77781 v -6.858847 h 0.63639 l 0.10606,0.645226 h 0.0354 q 0.21213,-0.309355 0.55684,-0.521484 0.34471,-0.212129 0.91922,-0.212129 z m -0.14142,0.654065 q -0.72477,0 -1.02529,0.406581 -0.29168,0.406581 -0.30935,1.237421 v 0.150258 q 0,0.875034 0.28284,1.352324 0.29167,0.468453 1.06948,0.468453 0.4331,0 0.7071,-0.238646 0.28284,-0.238645 0.41542,-0.645226 0.14142,-0.41542 0.14142,-0.945743 0,-0.813163 -0.3182,-1.299292 -0.30935,-0.48613 -0.96342,-0.48613 z m 9.74027,1.79426 q 0,1.17555 -0.60103,1.820777 -0.5922,0.645226 -1.60865,0.645226 -0.62755,0 -1.12252,-0.282839 -0.48613,-0.291678 -0.76896,-0.839678 -0.28284,-0.55684 -0.28284,-1.343486 0,-1.17555 0.59219,-1.811937 0.5922,-0.636388 1.60865,-0.636388 0.64522,0 1.13135,0.291677 0.49497,0.28284 0.76897,0.83084 0.28284,0.539162 0.28284,1.325808 z m -3.57968,0 q 0,0.839679 0.32703,1.334647 0.33587,0.48613 1.06065,0.48613 0.71594,0 1.05181,-0.48613 0.33587,-0.494968 0.33587,-1.334647 0,-0.839678 -0.33587,-1.316969 -0.33587,-0.477291 -1.06065,-0.477291 -0.72477,0 -1.05181,0.477291 -0.32703,0.477291 -0.32703,1.316969 z m 7.08865,-2.448325 q 0.84852,0 1.28162,0.41542 0.43309,0.406581 0.43309,1.325808 v 3.084713 h -0.76897 v -3.031681 q 0,-1.140195 -1.06064,-1.140195 -0.78665,0 -1.08716,0.441936 -0.30052,0.441936 -0.30052,1.272776 v 2.457164 h -0.77781 v -4.737554 h 0.62755 l 0.1149,0.645226 h 0.0442 q 0.2298,-0.371226 0.63639,-0.548 0.40658,-0.185613 0.85735,-0.185613 z"
       id="text3"
       inkscape:transform-center-x="-7.3009302"
       inkscape:transform-center-y="-13.091471"
       transform="matrix(0.29365586,0.83512202,-0.82440587,0.29747303,-17.563294,31.492347)"
       aria-label="Clean up on" /><path
       style="display:inline;stroke-width:0.567659;font-size:12.3759px;font-family:Sans;-inkscape-font-specification:'Sans, Normal';text-align:center;letter-spacing:0px;word-spacing:0px;text-anchor:middle;fill:#1a1a1a;stroke:#000000;stroke-linejoin:round"
       d="m 165.6678,-55.555271 q 1.21202,0.04444 1.7738,0.597564 0.56177,0.55312 0.51914,1.715674 l -0.16552,4.51417 -0.79153,-0.02902 -0.17578,-0.947647 -0.0495,-0.0018 q -0.45282,0.528302 -0.94468,0.770335 -0.47949,0.242486 -1.32049,0.211648 -0.90283,-0.0331 -1.47924,-0.524842 -0.57596,-0.504103 -0.53878,-1.518246 0.0363,-0.989407 0.83494,-1.492643 0.79911,-0.515603 2.42108,-0.505665 l 1.12681,0.0042 0.0145,-0.395763 q 0.0304,-0.828629 -0.31649,-1.163338 -0.34687,-0.334708 -1.00235,-0.358744 -0.51944,-0.01905 -0.9953,0.124499 -0.47541,0.131178 -0.8908,0.314094 l -0.30399,-0.828505 q 0.44148,-0.219112 1.04102,-0.358123 0.59999,-0.151378 1.24311,-0.127796 z m 0.19185,3.548921 q -1.23857,0.0041 -1.7336,0.332727 -0.48267,0.329059 -0.5058,0.959806 -0.0204,0.556542 0.304,0.828506 0.33676,0.272417 0.86857,0.291917 0.841,0.03084 1.41432,-0.406355 0.57377,-0.449561 0.60915,-1.414233 l 0.0218,-0.593644 z m 6.8714,-1.8473 q 0.23898,0.06448 0.37307,0.280119 0.14926,0.206916 0.0558,0.553425 -0.0903,0.33456 -0.32659,0.450257 -0.22436,0.118921 -0.46333,0.05444 -0.26287,-0.07093 -0.39696,-0.286567 -0.1341,-0.21564 -0.0438,-0.550201 0.0935,-0.346509 0.31464,-0.453481 0.22436,-0.118921 0.48723,-0.04799 z m -0.13423,2.540298 -1.72805,6.404446 -1.05148,-0.283711 1.72806,-6.404445 z m 6.90307,1.179332 q 0,0.96532 -0.7178,1.460356 -0.71781,0.495036 -1.93065,0.495036 -0.69305,0 -1.20046,-0.111383 -0.49503,-0.111383 -0.87869,-0.309397 v -0.990072 q 0.39603,0.198014 0.95295,0.371277 0.56929,0.160886 1.15096,0.160886 0.82918,0 1.20046,-0.259893 0.37128,-0.27227 0.37128,-0.717803 0,-0.247518 -0.13614,-0.445532 -0.13613,-0.198014 -0.49504,-0.396029 -0.34652,-0.198014 -1.00244,-0.445532 -0.64355,-0.247518 -1.10146,-0.495036 -0.45791,-0.247518 -0.70542,-0.594044 -0.24752,-0.346525 -0.24752,-0.891064 0,-0.841562 0.68067,-1.29947 0.69305,-0.457908 1.80688,-0.457908 0.60642,0 1.12621,0.123759 0.53216,0.111383 0.99007,0.321773 l -0.37127,0.866313 q -0.42079,-0.173262 -0.87869,-0.297021 -0.45791,-0.123759 -0.94057,-0.123759 -0.6683,0 -1.0272,0.222766 -0.34653,0.21039 -0.34653,0.581667 0,0.27227 0.16089,0.470284 0.16089,0.185639 0.53216,0.371277 0.38366,0.173263 1.01483,0.420781 0.63117,0.235142 1.0767,0.48266 0.44553,0.247518 0.68068,0.606419 0.23514,0.346525 0.23514,0.878689 z m 2.61807,1.25227 -1.04845,0.294705 -2.54518,-9.054775 1.04844,-0.294705 z m 3.10382,-6.903663 q 0.82208,-0.231076 1.50634,-0.03775 0.69618,0.189979 1.19014,0.758187 0.50252,0.552945 0.747,1.42268 l 0.17749,0.631451 -4.3725,1.229055 q 0.32858,1.077492 1.01355,1.50202 0.69354,0.409265 1.64667,0.141351 0.60762,-0.170795 1.04214,-0.408631 0.44307,-0.253099 0.88319,-0.608209 l 0.25787,0.917392 q -0.4282,0.351761 -0.87798,0.581032 -0.44643,0.241184 -1.10171,0.425375 -0.90547,0.254518 -1.71223,0.08277 -0.79484,-0.175102 -1.39229,-0.791352 -0.58889,-0.631513 -0.88694,-1.691875 -0.29471,-1.048448 -0.16018,-1.89616 0.14645,-0.851061 0.66403,-1.433636 0.52951,-0.585924 1.37541,-0.823697 z m 0.22921,0.86117 q -0.75059,0.210982 -1.05411,0.823373 -0.29495,0.597129 -0.13723,1.478392 l 3.25257,-0.914256 q -0.23964,-0.806816 -0.74964,-1.203394 -0.51334,-0.408493 -1.31159,-0.184115 z"
       id="text4"
       inkscape:transform-center-x="40.890045"
       inkscape:transform-center-y="-14.408286"
       transform="matrix(0.41056616,0.82950034,-0.70848347,0.45826212,-17.563294,31.492347)"
       aria-label="aisle" /></g><g
     inkscape:groupmode="layer"
     id="layer6"
     inkscape:label="engrave-light"
     transform="translate(-79.750002,-123.25)"
     style="display:inline"><path
       style="fill:#000000;stroke-width:0.113531;stroke-dasharray:none"
       d="m 162.61111,153.51752 -0.8971,-0.47255 c -2.06049,-1.08534 -7.474,-2.45737 -8.11644,-5.66923 -0.18175,-0.90866 -0.81762,-2.13897 -0.82463,-2.43078 -0.0516,-2.1505 -0.0197,0.37215 0.15322,0.82699 0.42432,1.11602 -0.93249,-0.34683 -1.14787,-1.23403 -0.62951,-2.59313 1.24317,-2.82358 -0.78022,-3.4308 -1.04874,-0.31474 -2.30273,0.27252 -2.74916,0.16048 m -3.29691,-0.55291 c 3.60601,1.22306 -1.06088,0.51383 -1.06088,-0.6693 0,-0.93899 1.17727,-3.02527 2.13006,-3.77474 1.1685,-0.91913 2.67546,-0.85449 4.19228,0.17981 1.01168,0.68987 1.57927,0.84248 2.93749,0.78981 1.98268,-0.0769 2.81065,0.29471 3.4617,1.55369 0.26242,0.50747 0.91043,1.07372 1.44004,1.25835 1.05553,0.36795 2.47047,2.37347 3.56556,5.05378 l 0.65862,1.61197 2.78605,-0.085 c 3.12818,-0.0955 3.56584,0.11589 4.65422,2.24842 0.93067,1.82348 0.80457,3.33411 -0.37691,4.51559 -0.96675,0.96676 -1.03737,0.98362 -3.37788,0.80661 -2.83523,0.5265 -1.73577,-1.0556 -2.53636,-0.10418 m 4.64486,-1.41709 c 0.36773,-0.23765 0.13277,0.10552 -0.48359,-0.2793 -0.82548,-0.51531 -3.66253,-1.31945 -3.41174,0.23891 0.13891,0.86314 0.63785,0.28943 1.96096,0.31971 0.79793,0.0182 1.6684,-0.10747 1.93437,-0.27932 z m 0.21501,-1.79715 c -0.3108,0 0.75448,-1.08042 0.52302,-1.7806 -0.45728,-1.38556 -1.43132,-1.89813 -2.46486,-1.29707 -0.55098,0.3204 -0.84166,0.5846 -0.21846,0.5938 1.12933,0.0167 2.16761,1.24317 1.95448,2.30881 -0.19506,0.97529 1.9383,0.17506 0.95416,0.17506 z m -3.11657,-0.12894 c 0,-0.17276 -0.42919,-0.53606 -0.95374,-0.80732 -0.55996,-0.28957 -1.49868,-1.39116 -2.27356,-2.66804 -4.33967,-8.29825 -3.48807,-5.78805 -3.63722,-5.55438 -0.14838,0.23246 0.90476,2.14662 2.65295,4.80218 0.63185,0.95978 1.33475,2.07724 1.56203,2.48323 0.72027,1.28663 2.64954,2.55677 2.64954,1.74433 z m -5.53709,-2.42623 c -0.72934,-0.97525 -1.39345,-1.8041 -1.45908,-1.77318 -0.43798,0.20639 1.98936,6.63237 4.66789,5.56107 1.72565,-0.6902 -1.79898,-1.90269 -3.20881,-3.78789 z m 1.40271,-0.5982 c -0.35008,-0.38026 -1.33126,-1.84276 -2.18041,-3.24999 -0.84916,-1.40722 -1.64294,-2.41349 -1.65793,-2.21655 -0.15267,2.00703 3.86967,6.95863 4.20881,6.29836 0.0737,-0.1435 -0.0203,-0.45156 -0.37047,-0.83182 z m 3.16719,0.3134 c -0.064,-0.0298 -0.037,-0.48224 -0.39198,-0.57504 -0.35487,-0.0928 -0.86116,0.27953 -0.71782,0.40631 4.6374,4.10232 3.74282,1.39164 1.1098,0.16873 z m -6.16044,1.21809 c 0.0387,-0.15117 -2.10568,-3.76584 -2.3577,-3.97501 -0.376,-0.31205 -0.16127,-0.26545 -0.2848,0.28293 -1.13781,5.05146 2.26063,5.18715 2.6425,3.69208 z m -0.41916,-3.93895 c -0.25883,-0.50053 -0.71304,-1.11127 -1.00936,-1.35719 -0.29632,-0.24592 -1.08765,-1.25089 -1.75853,-2.23328 -1.45154,-2.12557 -2.45503,-3.0832 -3.54837,-3.38625 -0.57782,-0.16016 0.121,-0.31249 0.67372,0.84275 0.47246,0.98741 2.05429,3.78393 4.89015,5.96336 0.54187,0.41644 0.7144,1.0807 0.89488,1.0807 0.18894,0 0.12849,-0.38608 -0.14249,-0.91009 z m -3.17672,-1.14334 c -0.18979,-0.35463 -1.34624,-2.2603 -1.43489,-2.2603 -0.21133,-0.10662 -1.06444,0.76299 -0.0694,2.01798 0.38209,0.48191 1.3281,1.27665 1.68817,0.88711 0.0887,0 0.006,-0.29016 -0.18388,-0.64479 z m 2.13245,-2.49928 c 0.6403,-1.32444 -2.2776,-4.39912 -2.78229,-3.22696 -0.41038,0.95312 0.0465,0.40999 1.5025,2.54684 1.14963,1.68723 0.50111,2.29074 1.27979,0.68012 z m -10.30342,-2.27311 c -0.0961,-0.15558 0.011,-0.24302 0.23747,-0.1943 0.22675,0.0488 0.33217,-0.0841 0.43189,-0.23381 0.33359,-0.50097 0.98376,-0.68591 1.84882,-1.01995 l 1.31992,0.10443 -0.72864,-0.59002 c -0.40075,-0.3245 -1.00932,-0.59001 -1.35236,-0.59001 -0.8098,0 -2.20641,1.40254 -2.20641,2.21576 0,0.34819 1.88068,2.2707 -0.18751,1.22363 -0.51756,-0.26202 -0.15566,0.55155 0.31206,-0.0211 0.27478,-0.33644 0.42091,-0.73899 0.32476,-0.89458 z m 2.09448,0.45849 c 0,-0.12885 1.40905,-0.29278 2.45311,-0.0367 1.25526,0.3079 1.40139,0.44596 1.08052,0.0593 -0.66943,-0.80661 -2.16782,-1.41535 -2.9813,-1.21118 -0.82347,0.20668 -2.4896,1.75275 -1.88886,1.75275 0.19387,0 0.79529,-0.25389 1.33653,-0.56419 z"
       id="path2"
       sodipodi:nodetypes="csssssscssssssscsssscssssssssssssssscssssssssssssssssssssscsssssscscscsssssssscssscsssssssssss"
       transform="matrix(0.86158787,0,0,0.90047022,-17.563294,31.492347)" /><path
       id="rect2"
       style="display:inline;stroke-width:0.567656;fill:none;stroke:#000000;stroke-linejoin:round"
       d="m 132.97039,105.0007 h 0.63012 l 12.13001,35.37399 h -0.63012 z"
       transform="matrix(0.86158787,0,0,0.90047022,-17.563293,31.492347)" /></g><g
     inkscape:groupmode="layer"
     id="layer10"
     inkscape:label="cut"
     style="display:inline"><path
       id="rect6"
       style="fill:none;stroke:#000000;stroke-width:0.499999;stroke-linejoin:round"
       d="m 80,123.5 h 50 v 50 H 80 Z"
       transform="translate(-79.750002,-123.25)" /></g></svg>
