<?xml version="1.0" encoding="UTF-8" standalone="no"?>
<!-- Created with Inkscape (http://www.inkscape.org/) -->

<svg
   width="50mm"
   height="50mm"
   viewBox="0 0 50 50"
   version="1.1"
   id="svg1"
   inkscape:version="1.4.2 (ebf0e940d0, 2025-05-08)"
   sodipodi:docname="iii.svg"
   xmlns:inkscape="http://www.inkscape.org/namespaces/inkscape"
   xmlns:sodipodi="http://sodipodi.sourceforge.net/DTD/sodipodi-0.dtd"
   xmlns="http://www.w3.org/2000/svg"
   xmlns:svg="http://www.w3.org/2000/svg">
  <sodipodi:namedview
     id="namedview1"
     pagecolor="#ffffff"
     bordercolor="#000000"
     borderopacity="0.25"
     inkscape:showpageshadow="2"
     inkscape:pageopacity="0.0"
     inkscape:pagecheckerboard="0"
     inkscape:deskcolor="#d1d1d1"
     inkscape:document-units="mm"
     showgrid="false"
     inkscape:zoom="2.2383749"
     inkscape:cx="94.488192"
     inkscape:cy="71.033676"
     inkscape:window-width="1896"
     inkscape:window-height="1032"
     inkscape:window-x="0"
     inkscape:window-y="0"
     inkscape:window-maximized="1"
     inkscape:current-layer="layer1" />
  <defs
     id="defs1" />
  <g
     inkscape:label="engrave"
     inkscape:groupmode="layer"
     id="layer1"
     transform="translate(-40.979549,-81.538036)"
     style="display:inline">
    <g
       id="g4"
       transform="matrix(0.5907639,0,0,0.88030725,19.776861,12.75183)"
       style="stroke-width:1.38668">
      <path
         d="m 41.034541,90.905538 1.016,0.1524 c 2.6924,0.3556 3.2512,1.27 3.302,5.588 v 19.964402 c -0.0508,4.318 -0.6096,5.2324 -3.302,5.588 l -1.016,0.1524 v 1.5748 h 13.716 v -1.5748 l -1.016,-0.1524 c -2.6924,-0.3556 -3.2512,-1.27 -3.302,-5.588 V 96.645938 c 0.0508,-4.318 0.6096,-5.2324 3.302,-5.588 l 1.016,-0.1524 v -1.5748 h -13.716 z"
         id="text1"
         style="font-size:50.8px;font-family:'URW Bookman';-inkscape-font-specification:'URW Bookman, Normal';text-align:center;letter-spacing:0px;word-spacing:0px;text-anchor:middle;display:inline;stroke:#000000;stroke-width:0.152535;stroke-linejoin:round"
         aria-label="I" />
      <g
         id="text2"
         style="font-size:14.6413px;font-family:'URW Bookman';-inkscape-font-specification:'URW Bookman, Normal';letter-spacing:0px;word-spacing:0px;display:inline;stroke:#000000;stroke-width:0.152535;stroke-linejoin:round"
         transform="scale(0.91742211,1.0900108)"
         aria-label="mpeach&#10;ndict&#10;mprision">
        <path
           d="m 69.955208,83.759511 c 0.893119,-0.746707 1.478771,-1.01025 2.152271,-1.01025 0.761348,0 1.156663,0.541728 1.156663,1.595902 v 3.191803 c 0,0.805272 -0.263543,1.156663 -0.907761,1.215228 l -0.263543,0.02928 v 0.439239 h 3.836021 v -0.439239 l -0.366033,-0.02928 c -0.644217,-0.05857 -0.907761,-0.409956 -0.907761,-1.215228 v -3.587119 c 0,-1.229869 -0.717423,-1.961934 -1.947292,-1.961934 -0.980968,0 -1.727674,0.322109 -2.781847,1.215228 -0.395316,-0.878478 -0.951685,-1.215228 -2.005859,-1.215228 -1.039532,0 -1.727673,0.292826 -2.664716,1.112739 v -0.980967 h -0.497804 c -0.849196,0.161054 -1.303076,0.219619 -2.166913,0.292826 v 0.439239 l 0.307467,0.02928 c 0.775989,0.08785 0.966326,0.322108 0.966326,1.215227 v 3.440706 c 0,0.805272 -0.263543,1.156663 -0.90776,1.215228 l -0.366033,0.02928 v 0.439239 h 3.836021 v -0.439239 l -0.263544,-0.02928 c -0.644217,-0.05857 -0.90776,-0.409956 -0.90776,-1.215228 v -3.777455 c 0.849195,-0.732065 1.420206,-1.01025 2.108347,-1.01025 0.834554,0 1.200587,0.483163 1.200587,1.551978 v 3.235727 c 0,0.805272 -0.263544,1.156663 -0.907761,1.215228 l -0.307467,0.02928 v 0.439239 h 3.821379 v -0.439239 l -0.307467,-0.02928 c -0.644217,-0.05857 -0.907761,-0.409956 -0.907761,-1.215228 z m 8.755503,-1.639826 h -0.497804 c -0.849196,0.161054 -1.303076,0.219619 -2.166913,0.292826 v 0.439239 l 0.307467,0.02928 c 0.775989,0.08785 0.966326,0.322108 0.966326,1.215227 v 6.778922 c 0,0.805272 -0.278184,1.156663 -0.90776,1.215228 l -0.366033,0.02928 v 0.439239 h 3.93851 v -0.439239 l -0.366033,-0.02928 c -0.629576,-0.05857 -0.90776,-0.409956 -0.90776,-1.215228 v -2.269401 c 0.688141,0.527087 1.376282,0.746706 2.313325,0.746706 1.859445,0 3.26501,-1.595901 3.26501,-3.71889 0,-0.907761 -0.307467,-1.859445 -0.805271,-2.518304 -0.527087,-0.702782 -1.434848,-1.12738 -2.386532,-1.12738 -0.966326,0 -1.727674,0.351391 -2.386532,1.098098 z m 0,1.698391 c 0.614934,-0.834554 1.185945,-1.171304 1.932651,-1.171304 1.303076,0 2.152272,1.24451 2.152272,3.162521 0,1.669108 -0.89312,2.884336 -2.13763,2.884336 -0.732065,0 -1.390924,-0.263544 -1.947293,-0.805272 z m 12.825792,3.469988 c -0.541728,0.966326 -1.200586,1.405565 -2.122988,1.405565 -1.039533,0 -1.786239,-0.512446 -2.181554,-1.508054 -0.21962,-0.512446 -0.292826,-1.156663 -0.292826,-2.196195 h 5.080531 c -0.01464,-0.849196 -0.204978,-1.376282 -0.688141,-1.932652 -0.585652,-0.688141 -1.478771,-1.068815 -2.503662,-1.068815 -2.005859,0 -3.455347,1.508054 -3.455347,3.616401 0,0.980967 0.366032,1.961935 0.966326,2.635434 0.658858,0.746707 1.551977,1.112739 2.650075,1.112739 1.347,0 2.284043,-0.556369 3.030749,-1.830162 z m -4.553444,-2.884336 c 0.102489,-0.614935 0.190337,-0.878478 0.424597,-1.185946 0.307468,-0.424597 0.761348,-0.644217 1.347,-0.644217 1.068815,0 1.742315,0.702783 1.742315,1.830163 z m 10.922407,0.658858 c -0.11713,0.01464 -0.351391,0.04392 -0.702782,0.07321 -0.922402,0.102489 -1.244511,0.146413 -1.771598,0.292826 -1.625184,0.409956 -2.459738,1.12738 -2.459738,2.108347 0,1.054174 0.951684,1.815521 2.25476,1.815521 0.995609,0 1.698391,-0.292826 2.679358,-1.12738 0.278185,0.79063 0.775989,1.12738 1.639826,1.12738 0.629578,0 1.098098,-0.175695 1.508058,-0.57101 l -0.27819,-0.380674 c -0.2489,0.219619 -0.40996,0.292826 -0.65886,0.292826 -0.307465,0 -0.571008,-0.146413 -0.688139,-0.409957 C 99.325672,88.078697 99.29639,87.88836 99.29639,87.258784 v -3.103955 c 0,-0.878478 -0.234261,-1.332359 -0.834555,-1.669109 -0.541728,-0.307467 -1.288434,-0.497804 -1.976575,-0.497804 -1.698391,0 -3.191804,0.878478 -3.191804,1.859445 0,0.351392 0.322109,0.644218 0.702783,0.644218 0.409956,0 0.746706,-0.33675 0.746706,-0.746707 l -0.01464,-0.409956 c 0,-0.424598 0.658858,-0.761348 1.478771,-0.761348 1.039533,0 1.698391,0.497804 1.698391,1.317717 z m 0,2.503663 c -0.834554,0.775989 -1.434847,1.083456 -2.181554,1.083456 -0.688141,0 -1.259152,-0.55637 -1.259152,-1.244511 0,-0.995608 1.22987,-1.639825 3.440706,-1.830162 z m 9.912164,-0.190337 c -0.81992,1.039532 -1.42021,1.390923 -2.31333,1.390923 -1.5227,0 -2.5183,-1.200586 -2.5183,-3.030749 0,-0.819913 0.14641,-1.537336 0.42459,-2.108347 0.33675,-0.702783 0.90776,-1.054174 1.71304,-1.054174 0.76134,0 1.44948,0.453881 1.44948,0.966326 l -0.0146,0.512446 c 0,0.424597 0.30747,0.746706 0.74671,0.746706 0.4246,0 0.74671,-0.33675 0.74671,-0.79063 0,-0.497805 -0.30747,-0.995609 -0.83456,-1.390924 -0.58565,-0.424598 -1.27379,-0.629576 -2.15227,-0.629576 -1.06881,0 -1.91801,0.322109 -2.53294,0.951685 -0.65886,0.688141 -1.03954,1.683749 -1.03954,2.737923 0,2.196195 1.44949,3.674966 3.60176,3.674966 1.40557,0 2.38654,-0.527087 3.14788,-1.713032 z m 3.45535,-8.653009 h -0.58566 c -0.7467,0.292826 -1.09809,0.380674 -2.07906,0.497804 v 0.453881 l 0.32211,0.02928 c 0.80527,0.102489 0.96632,0.380674 0.95168,1.639826 v 6.19327 c 0,0.805272 -0.26354,1.156663 -0.90776,1.215228 l -0.36603,0.02928 v 0.439239 h 3.93851 v -0.439239 l -0.36603,-0.02928 c -0.64422,-0.05857 -0.90776,-0.409956 -0.90776,-1.215228 V 83.89128 c 0.86383,-0.805271 1.68375,-1.200586 2.53294,-1.200586 0.83456,0 1.25915,0.497804 1.25915,1.478771 v 3.367499 c 0,0.805272 -0.26354,1.156663 -0.90776,1.215228 l -0.36603,0.02928 v 0.439239 h 3.93851 v -0.439239 l -0.36603,-0.02928 c -0.64422,-0.05857 -0.90776,-0.409956 -0.90776,-1.215228 v -3.455347 c 0,-0.90776 -0.16106,-1.332358 -0.65886,-1.669108 -0.40996,-0.278185 -0.96633,-0.424598 -1.63983,-0.424598 -1.02489,0 -1.93265,0.380674 -2.88433,1.215228 z"
           id="path5" />
        <path
           d="m 65.343199,96.36131 h -0.497805 c -0.90776,0.175696 -1.390923,0.234261 -2.210836,0.292826 v 0.439239 l 0.351391,0.02928 c 0.775989,0.08785 0.966326,0.322108 0.966326,1.215228 v 3.440707 c 0,0.80527 -0.263543,1.15666 -0.907761,1.21523 l -0.366032,0.0293 v 0.43924 h 3.93851 v -0.43924 l -0.366033,-0.0293 c -0.644217,-0.0586 -0.90776,-0.40996 -0.90776,-1.21523 v -3.616403 c 0.90776,-0.819913 1.771597,-1.229869 2.59151,-1.229869 0.805271,0 1.24451,0.512445 1.24451,1.46413 v 3.382142 c 0,0.80527 -0.278184,1.15666 -0.90776,1.21523 l -0.366033,0.0293 v 0.43924 h 3.93851 v -0.43924 l -0.366033,-0.0293 c -0.644217,-0.0586 -0.90776,-0.40996 -0.90776,-1.21523 v -3.616403 c 0,-1.215228 -0.819913,-1.932651 -2.210837,-1.932651 -1.12738,0 -1.976575,0.366032 -3.016107,1.288434 z m 12.855059,0.644217 c -0.790631,-0.541728 -1.537337,-0.775988 -2.430456,-0.775988 -1.830163,0 -3.221086,1.595901 -3.221086,3.704248 0,0.922403 0.307467,1.888733 0.805271,2.547583 0.512446,0.68814 1.405565,1.11274 2.313326,1.11274 0.468521,0 0.995608,-0.11713 1.46413,-0.32211 0.424597,-0.19033 0.644217,-0.33675 1.068815,-0.79063 v 0.98097 h 2.459738 v -0.43924 l -0.175695,-0.0293 c -0.644218,-0.10249 -0.878478,-0.4246 -0.89312,-1.21523 v -8.814061 h -0.585652 c -0.732065,0.292826 -1.068815,0.366032 -2.064423,0.497804 v 0.45388 l 0.307467,0.02928 c 0.805272,0.102489 0.966326,0.380674 0.951685,1.639825 z m 0,4.729143 c -0.658859,0.80527 -1.288435,1.15666 -2.093706,1.15666 -0.761348,0 -1.361641,-0.38067 -1.669108,-1.06881 -0.248903,-0.54173 -0.395316,-1.22987 -0.395316,-1.918015 0,-0.658859 0.131772,-1.347 0.380674,-1.874087 0.33675,-0.746706 0.951685,-1.142021 1.786239,-1.142021 0.702782,0 1.185945,0.21962 1.991217,0.878478 z m 5.841892,-5.37336 h -0.497804 c -0.89312,0.161055 -1.376283,0.234261 -2.152271,0.292826 v 0.439239 l 0.292826,0.02928 c 0.775988,0.08785 0.966325,0.322108 0.966325,1.215228 v 3.440707 c 0,0.80527 -0.263543,1.15666 -0.90776,1.21523 l -0.366033,0.0293 v 0.43924 h 3.923869 v -0.43924 l -0.351391,-0.0293 c -0.644218,-0.0586 -0.907761,-0.40996 -0.907761,-1.21523 z m -0.6735,-2.474379 c -0.497804,0 -0.893119,0.395315 -0.893119,0.878478 0,0.497804 0.395315,0.893119 0.893119,0.893119 0.483163,0 0.878478,-0.395315 0.878478,-0.893119 0,-0.483163 -0.395315,-0.878478 -0.878478,-0.878478 z m 8.975105,7.730609 c -0.819913,1.03953 -1.420206,1.39092 -2.313326,1.39092 -1.522695,0 -2.518303,-1.20059 -2.518303,-3.030749 0,-0.819912 0.146413,-1.537336 0.424598,-2.108347 0.336749,-0.702782 0.90776,-1.054173 1.713032,-1.054173 0.761347,0 1.449488,0.45388 1.449488,0.966325 l -0.01464,0.512446 c 0,0.424598 0.307467,0.746706 0.746706,0.746706 0.424598,0 0.746707,-0.33675 0.746707,-0.79063 0,-0.497804 -0.307468,-0.995608 -0.834554,-1.390924 -0.585652,-0.424597 -1.273794,-0.629575 -2.152272,-0.629575 -1.068814,0 -1.91801,0.322108 -2.532944,0.951684 -0.658859,0.688141 -1.039533,1.68375 -1.039533,2.737923 0,2.196194 1.449489,3.674964 3.60176,3.674964 1.405565,0 2.386532,-0.52708 3.14788,-1.71303 z m 5.505133,-5.25623 h -2.093706 v -2.664716 h -0.556369 c 0.01464,1.80088 -0.629576,2.606151 -2.064424,2.664716 v 0.483163 h 1.22987 v 4.904837 c 0,0.71742 0.204978,1.1713 0.673499,1.46413 0.380674,0.2489 0.89312,0.38067 1.420207,0.38067 0.863836,0 1.537336,-0.33675 2.064423,-1.02489 l -0.395315,-0.32211 c -0.497804,0.57101 -0.834554,0.76135 -1.273793,0.76135 -0.746707,0 -1.098098,-0.60029 -1.098098,-1.93265 v -4.231337 h 2.093706 z"
           id="path6" />
        <path
           d="m 69.955208,108.27276 c 0.893119,-0.7467 1.478771,-1.01025 2.152271,-1.01025 0.761348,0 1.156663,0.54173 1.156663,1.5959 v 3.19181 c 0,0.80527 -0.263543,1.15666 -0.907761,1.21522 l -0.263543,0.0293 v 0.43924 h 3.836021 v -0.43924 l -0.366033,-0.0293 c -0.644217,-0.0586 -0.907761,-0.40995 -0.907761,-1.21522 v -3.58712 c 0,-1.22987 -0.717423,-1.96194 -1.947292,-1.96194 -0.980968,0 -1.727674,0.32211 -2.781847,1.21523 -0.395316,-0.87848 -0.951685,-1.21523 -2.005859,-1.21523 -1.039532,0 -1.727673,0.29283 -2.664716,1.11274 v -0.98096 h -0.497804 c -0.849196,0.16105 -1.303076,0.21962 -2.166913,0.29282 v 0.43924 l 0.307467,0.0293 c 0.775989,0.0879 0.966326,0.32211 0.966326,1.21523 v 3.44071 c 0,0.80527 -0.263543,1.15666 -0.90776,1.21522 l -0.366033,0.0293 v 0.43924 h 3.836021 v -0.43924 l -0.263544,-0.0293 c -0.644217,-0.0586 -0.90776,-0.40995 -0.90776,-1.21522 v -3.77746 c 0.849195,-0.73206 1.420206,-1.01025 2.108347,-1.01025 0.834554,0 1.200587,0.48316 1.200587,1.55198 v 3.23573 c 0,0.80527 -0.263544,1.15666 -0.907761,1.21522 l -0.307467,0.0293 v 0.43924 h 3.821379 v -0.43924 l -0.307467,-0.0293 c -0.644217,-0.0586 -0.907761,-0.40995 -0.907761,-1.21522 z m 8.755503,-1.63982 h -0.497804 c -0.849196,0.16105 -1.303076,0.21962 -2.166913,0.29282 v 0.43924 l 0.307467,0.0293 c 0.775989,0.0879 0.966326,0.32211 0.966326,1.21523 v 6.77892 c 0,0.80527 -0.278184,1.15667 -0.90776,1.21523 l -0.366033,0.0293 v 0.43924 h 3.93851 v -0.43924 l -0.366033,-0.0293 c -0.629576,-0.0586 -0.90776,-0.40996 -0.90776,-1.21523 v -2.2694 c 0.688141,0.52709 1.376282,0.74671 2.313325,0.74671 1.859445,0 3.26501,-1.5959 3.26501,-3.71889 0,-0.90776 -0.307467,-1.85945 -0.805271,-2.51831 -0.527087,-0.70278 -1.434848,-1.12738 -2.386532,-1.12738 -0.966326,0 -1.727674,0.3514 -2.386532,1.0981 z m 0,1.69839 c 0.614934,-0.83456 1.185945,-1.17131 1.932651,-1.17131 1.303076,0 2.152272,1.24451 2.152272,3.16252 0,1.66911 -0.89312,2.88434 -2.13763,2.88434 -0.732065,0 -1.390924,-0.26354 -1.947293,-0.80527 z m 9.121543,-1.69839 H 87.33445 c -0.907761,0.17569 -1.390924,0.23426 -2.210836,0.29282 v 0.43924 l 0.351391,0.0293 c 0.775989,0.0879 0.966326,0.32211 0.966326,1.21523 v 3.44071 c 0,0.80527 -0.263544,1.15666 -0.907761,1.21522 l -0.366032,0.0293 v 0.43924 h 3.938509 v -0.43924 l -0.366032,-0.0293 c -0.644217,-0.0586 -0.907761,-0.40995 -0.907761,-1.21522 v -3.58712 c 0.527087,-0.58565 0.922402,-0.81991 1.347,-0.81991 0.248902,0 0.351391,0.0439 0.614934,0.23426 0.263544,0.17569 0.483163,0.2489 0.761348,0.2489 0.468522,0 0.819913,-0.33675 0.819913,-0.80527 0,-0.48317 -0.439239,-0.81992 -1.068815,-0.81992 -0.33675,0 -0.688141,0.0732 -1.039532,0.23426 -0.351392,0.14642 -0.424598,0.20498 -1.12738,0.80528 -0.04392,0.0293 -0.161055,0.14641 -0.307468,0.26354 z m 6.793576,0 h -0.497804 c -0.89312,0.16105 -1.376283,0.23426 -2.152271,0.29282 v 0.43924 l 0.292826,0.0293 c 0.775988,0.0879 0.966325,0.32211 0.966325,1.21523 v 3.44071 c 0,0.80527 -0.263543,1.15666 -0.90776,1.21522 l -0.366033,0.0293 v 0.43924 h 3.923869 v -0.43924 l -0.351391,-0.0293 c -0.644218,-0.0586 -0.907761,-0.40995 -0.907761,-1.21522 z m -0.6735,-2.47438 c -0.497804,0 -0.893119,0.39531 -0.893119,0.87847 0,0.49781 0.395315,0.89312 0.893119,0.89312 0.483163,0 0.878478,-0.39531 0.878478,-0.89312 0,-0.48316 -0.395315,-0.87847 -0.878478,-0.87847 z m 8.24304,2.53294 h -0.40996 l -0.14641,0.52709 c -0.62958,-0.49781 -1.25915,-0.71743 -2.093705,-0.71743 -1.508054,0 -2.679358,0.93705 -2.679358,2.13763 0,0.92241 0.629576,1.46413 2.181553,1.85945 l 1.87409,0.46852 c 0.73206,0.19034 1.06881,0.4978 1.06881,0.96633 0,0.77599 -0.80527,1.347 -1.88873,1.347 -0.907757,0 -1.800876,-0.39532 -2.342604,-1.05418 -0.263543,-0.30746 -0.409956,-0.60029 -0.614935,-1.15666 h -0.497804 l 0.497804,2.60615 h 0.483163 l 0.161055,-0.61493 c 0.79063,0.60029 1.390923,0.80527 2.357251,0.80527 1.75695,0 3.04539,-1.01025 3.04539,-2.37189 0,-0.99561 -0.58565,-1.58126 -1.85945,-1.88873 l -2.035138,-0.4978 c -0.366032,-0.0879 -0.527086,-0.14642 -0.688141,-0.21962 -0.278184,-0.14642 -0.45388,-0.40996 -0.45388,-0.70279 0,-0.62957 0.614935,-1.09809 1.478771,-1.09809 1.112738,0 2.079068,0.70278 2.562228,1.85944 h 0.46852 z m 4.43632,-0.0586 h -0.4978 c -0.89312,0.16105 -1.37629,0.23426 -2.15227,0.29282 v 0.43924 l 0.29282,0.0293 c 0.77599,0.0879 0.96633,0.32211 0.96633,1.21523 v 3.44071 c 0,0.80527 -0.26355,1.15666 -0.90776,1.21522 l -0.36604,0.0293 v 0.43924 h 3.92387 v -0.43924 l -0.35139,-0.0293 c -0.64422,-0.0586 -0.90776,-0.40995 -0.90776,-1.21522 z m -0.6735,-2.47438 c -0.4978,0 -0.89312,0.39531 -0.89312,0.87847 0,0.49781 0.39532,0.89312 0.89312,0.89312 0.48316,0 0.87848,-0.39531 0.87848,-0.89312 0,-0.48316 -0.39532,-0.87847 -0.87848,-0.87847 z m 6.19326,2.3426 c -1.02489,0 -1.93265,0.33675 -2.5183,0.95169 -0.61494,0.64422 -1.02489,1.72767 -1.02489,2.75256 0,2.21084 1.4202,3.66033 3.60176,3.66033 2.12298,0 3.55783,-1.46413 3.55783,-3.63104 0,-0.95169 -0.33675,-1.91801 -0.87848,-2.59151 -0.61493,-0.73207 -1.5959,-1.14203 -2.73792,-1.14203 z m 0.0146,0.58566 c 1.31772,0 2.10835,1.20058 2.10835,3.22108 0,1.85945 -0.76135,2.97219 -2.04978,2.97219 -1.36164,0 -2.12299,-1.12738 -2.12299,-3.10396 0,-1.87409 0.80527,-3.08931 2.06442,-3.08931 z m 7.10102,-0.45388 h -0.4978 c -0.90776,0.17569 -1.39092,0.23426 -2.21084,0.29282 v 0.43924 l 0.3514,0.0293 c 0.77598,0.0879 0.96632,0.32211 0.96632,1.21523 v 3.44071 c 0,0.80527 -0.26354,1.15666 -0.90776,1.21522 l -0.36603,0.0293 v 0.43924 h 3.93851 v -0.43924 l -0.36603,-0.0293 c -0.64422,-0.0586 -0.90777,-0.40995 -0.90777,-1.21522 v -3.6164 c 0.90777,-0.81992 1.7716,-1.22987 2.59151,-1.22987 0.80528,0 1.24452,0.51244 1.24452,1.46413 v 3.38214 c 0,0.80527 -0.27819,1.15666 -0.90777,1.21522 l -0.36603,0.0293 v 0.43924 h 3.93851 v -0.43924 l -0.36603,-0.0293 c -0.64422,-0.0586 -0.90776,-0.40995 -0.90776,-1.21522 v -3.6164 c 0,-1.21523 -0.81991,-1.93266 -2.21084,-1.93266 -1.12738,0 -1.97657,0.36604 -3.01611,1.28844 z"
           id="path7" />
      </g>
    </g>
  </g>
  <g
     inkscape:groupmode="layer"
     id="layer9"
     inkscape:label="cut">
    <rect
       style="display:inline;opacity:0.4;fill:none;stroke:#000000;stroke-width:0.1;stroke-linejoin:round;stroke-dasharray:none"
       id="rect1"
       width="49.900002"
       height="49.900002"
       x="41.029549"
       y="81.588036"
       ry="15.543736"
       transform="translate(-40.979548,-81.538035)" />
  </g>
</svg>
