<?xml version="1.0" encoding="UTF-8" standalone="no"?>
<!-- Created with Inkscape (http://www.inkscape.org/) -->

<svg
   width="49.883789mm"
   height="50.296951mm"
   viewBox="0 0 49.883789 50.296952"
   version="1.1"
   id="svg1"
   inkscape:version="1.4.2 (ebf0e940d0, 2025-05-08)"
   sodipodi:docname="maia.svg"
   xmlns:inkscape="http://www.inkscape.org/namespaces/inkscape"
   xmlns:sodipodi="http://sodipodi.sourceforge.net/DTD/sodipodi-0.dtd"
   xmlns="http://www.w3.org/2000/svg"
   xmlns:svg="http://www.w3.org/2000/svg">
  <sodipodi:namedview
     id="namedview1"
     pagecolor="#ffffff"
     bordercolor="#000000"
     borderopacity="0.25"
     inkscape:showpageshadow="2"
     inkscape:pageopacity="0.0"
     inkscape:pagecheckerboard="0"
     inkscape:deskcolor="#d1d1d1"
     inkscape:document-units="mm"
     inkscape:zoom="4.2816568"
     inkscape:cx="53.834301"
     inkscape:cy="113.50746"
     inkscape:window-width="1896"
     inkscape:window-height="1032"
     inkscape:window-x="0"
     inkscape:window-y="0"
     inkscape:window-maximized="1"
     inkscape:current-layer="layer1" />
  <defs
     id="defs1" />
  <g
     inkscape:label="engrave"
     inkscape:groupmode="layer"
     id="layer1"
     transform="translate(-29.222145,-121.85261)">
    <path
       d="m 53.036948,127.26513 c -0.29368,-0.01 -0.89963,0.10878 -2.22993,0.39613 -0.80755,0.17444 -2.02988,0.37973 -2.71629,0.45624 -1.54354,0.17205 -2.96084,0.46426 -5.79965,1.19546 -2.644742,0.68121 -3.63201,1.02236 -4.852727,1.67651 -2.696189,1.44483 -3.181821,2.83438 -3.45616,9.89094 -0.07992,2.05562 -0.1807,4.13465 -0.223968,4.62002 -0.04327,0.48538 -0.01709,1.17021 0.05821,1.52177 0.09201,0.42952 0.08727,0.65322 -0.01462,0.68204 -0.209248,0.0592 -0.524436,2.00157 -0.454818,2.8031 0.03139,0.36133 0.14996,0.80983 0.263543,0.99667 0.183881,0.30247 0.161542,0.53765 -0.204182,2.14613 -0.225904,0.99354 -0.747358,2.98679 -1.158839,4.4295 -0.859299,3.01283 -0.965248,4.15085 -0.451951,4.85556 0.360701,0.49521 0.927273,0.82555 1.612511,0.94044 0.742332,0.12447 0.88096,0.12673 0.88096,0.0149 0,-0.055 0.227155,-0.10525 0.504716,-0.11193 0.277562,-0.007 0.655682,-0.10176 0.840239,-0.21144 0.184556,-0.10969 0.417997,-0.19953 0.518768,-0.19953 0.100769,0 0.544261,-0.14016 0.98563,-0.31146 0.441369,-0.1713 0.893113,-0.31145 1.003984,-0.31145 0.110872,0 0.329895,-0.085 0.48665,-0.18883 0.269523,-0.17853 0.261116,-0.18508 -0.155429,-0.12166 -0.203927,0.0311 -0.307506,0.0453 -0.31975,0.037 l -2.86e-4,-2.4e-4 -2.87e-4,-2.4e-4 h -2.88e-4 v -2.5e-4 l -2.86e-4,-2.4e-4 v -2.4e-4 -2.5e-4 c -7e-6,-9e-5 -4e-6,-4.6e-4 0,-6.3e-4 v -2.4e-4 -2.4e-4 c 0.0044,-0.0115 0.08316,-0.0423 0.229704,-0.0966 0.196858,-0.0729 0.42112,-0.083 0.513893,-0.0231 0.09525,0.0614 0.319261,0.0367 0.531672,-0.0586 0.221169,-0.0993 0.279528,-0.16904 0.146826,-0.17544 -0.148309,-0.007 -0.124332,-0.0455 0.07341,-0.11753 0.405114,-0.14773 0.822919,-0.14148 0.44048,0.007 -0.263552,0.10201 -0.256027,0.11043 0.07341,0.0817 0.210972,-0.0184 0.349852,-0.10097 0.326633,-0.19417 -0.02813,-0.11297 0.0554,-0.13635 0.275301,-0.0771 0.2318,0.0624 0.28565,0.0436 0.20217,-0.071 -0.0857,-0.11772 -0.009,-0.13531 0.312007,-0.0718 0.27008,0.0535 0.35328,0.0433 0.22798,-0.0277 -0.27288,-0.1546 0.429347,-0.29906 0.968414,-0.19928 0.323,0.0598 0.35972,0.0462 0.18353,-0.0677 -0.17397,-0.11233 -0.12259,-0.1259 0.24462,-0.0647 0.3543,0.059 0.4993,0.0256 0.6091,-0.14088 0.10794,-0.16366 0.33161,-0.21851 0.89272,-0.21851 0.47617,0 0.68229,-0.0403 0.5658,-0.11071 -0.11127,-0.0672 0.0762,-0.0815 0.47747,-0.0365 0.49852,0.0559 0.60665,0.0405 0.44048,-0.0623 -0.16718,-0.10345 -0.063,-0.12084 0.43274,-0.0725 0.46684,0.0455 0.59245,0.0277 0.44048,-0.0628 -0.15498,-0.0922 -0.0831,-0.10772 0.26469,-0.0569 0.29677,0.0433 0.47718,0.0183 0.47718,-0.0662 0,-0.0923 0.26431,-0.10778 0.82418,-0.0484 0.50771,0.0538 0.79075,0.042 0.73786,-0.0307 -0.18611,-0.25551 4.36627,-0.38064 6.89511,-0.18955 0.9386,0.0709 1.0759,0.10574 0.71951,0.18201 -0.0739,0.0158 -0.11142,0.0281 -0.1147,0.0367 -4e-5,1.2e-4 2e-5,4.7e-4 0,6.3e-4 -10e-6,1.2e-4 -10e-6,4.7e-4 0,6.3e-4 v 2.4e-4 c 3e-5,1.1e-4 -5e-5,4.8e-4 0,6.3e-4 l 2.8e-4,2.5e-4 c 0.0127,0.0188 0.22564,0.0164 0.60537,-0.01 1.16314,-0.081 2.73165,0.0638 2.29876,0.21218 -0.17986,0.0616 -0.0376,0.0748 0.36706,0.0338 0.50764,-0.0514 0.6097,-0.0348 0.44048,0.0723 -0.17014,0.1076 -0.0867,0.12378 0.367071,0.0711 0.43171,-0.0502 0.50951,-0.0372 0.29365,0.0489 -0.27508,0.10977 -0.27044,0.11898 0.0734,0.14478 0.2019,0.0152 0.56529,0.0168 0.80755,0.004 0.34374,-0.0186 0.39211,0.004 0.22024,0.1056 -0.16312,0.0959 -0.087,0.11071 0.29365,0.0569 0.32666,-0.0462 0.44564,-0.0313 0.32664,0.0406 -0.24774,0.14981 0.72338,0.41033 1.16458,0.31243 0.19399,-0.043 0.28116,-0.0214 0.22482,0.056 -0.0561,0.0769 0.0637,0.10841 0.30742,0.0803 0.34394,-0.0397 0.35845,-0.0297 0.10552,0.0715 -0.16152,0.0647 -0.22758,0.12224 -0.14682,0.12798 0.0808,0.006 0.31201,0.0425 0.51389,0.0818 0.30143,0.0586 0.32769,0.0451 0.14683,-0.0757 -0.18762,-0.12535 -0.18037,-0.13608 0.0488,-0.073 0.14793,0.0407 0.34614,0.075 0.44048,0.0759 0.11718,0.001 0.11177,0.034 -0.0172,0.10341 -0.1274,0.0686 0.009,0.15194 0.41897,0.25623 0.3343,0.085 0.7165,0.18246 0.84941,0.21655 0.0394,0.0101 0.0624,0.012 0.0697,0.007 0.0151,-0.0124 -0.0547,-0.0632 -0.195,-0.13626 -0.196,-0.10203 -0.29632,-0.16101 -0.27931,-0.17544 0.0275,-0.0194 0.29539,0.0519 0.86662,0.21948 0.44415,0.13031 0.70843,0.24522 0.5873,0.25525 -0.25973,0.0215 0.70569,0.35404 1.02778,0.35404 0.12114,0 -0.011,-0.0804 -0.29364,-0.1786 -0.22973,-0.0798 -0.34424,-0.1223 -0.3513,-0.1365 l -2.8e-4,-2.5e-4 c -3e-5,-1e-4 2e-5,-4.7e-4 0,-6.3e-4 v -2.5e-4 -2.4e-4 -2.4e-4 -2.5e-4 -2.4e-4 l 2.8e-4,-2.5e-4 2.8e-4,-2.4e-4 v -2.4e-4 c 0.0105,-0.008 0.0984,0.004 0.2581,0.0304 1.26193,0.20818 1.2914,0.2169 1.09575,0.32581 -0.11914,0.0663 0.0625,0.0846 0.46543,0.0467 0.29871,-0.0281 0.44411,-0.0348 0.45253,-0.0178 4e-5,1.1e-4 2.5e-4,4.7e-4 2.9e-4,6.3e-4 v 2.5e-4 c 0,1.2e-4 0,4.7e-4 0,6.3e-4 -0.001,0.0118 -0.0557,0.0332 -0.15917,0.0642 -0.34258,0.10283 -0.34558,0.11106 -0.047,0.12263 0.17592,0.007 0.41581,0.0939 0.5331,0.19345 0.11729,0.0995 0.25249,0.1476 0.30054,0.10682 0.0481,-0.0408 0.17154,-0.0189 0.27444,0.0489 0.31692,0.20878 1.79138,0.19482 2.40543,-0.0229 1.64769,-0.58415 2.27757,-2.06771 1.82587,-4.30053 -0.0762,-0.37686 -0.37448,-1.86252 -0.66273,-3.30145 -0.28825,-1.43892 -0.66098,-3.14882 -0.82819,-3.79977 -0.1672,-0.65095 -0.30098,-1.2396 -0.29709,-1.30812 0.004,-0.0685 0.0736,-0.56659 0.15514,-1.10689 0.14803,-0.98104 -0.0318,-2.05969 -0.45683,-2.74081 -0.10375,-0.16624 -0.0942,-0.26195 0.0327,-0.32849 0.11254,-0.059 0.13147,-0.15719 0.0505,-0.26377 -0.0709,-0.0933 -0.13407,-1.93556 -0.14023,-4.09395 -0.0185,-6.46217 -0.65423,-9.19546 -2.53132,-10.88079 -1.0154,-0.91165 -3.92836,-1.97723 -6.49823,-2.37681 -0.68036,-0.10578 -1.99696,-0.3332 -2.92563,-0.50538 -2.038231,-0.3779 -6.439531,-0.93778 -7.371441,-0.93778 -0.4825,0 -0.69809,-0.0565 -0.76309,-0.20025 -0.0403,-0.0892 -0.10426,-0.14118 -0.28046,-0.14697 z m -0.17235,0.39321 c 0.14153,0.006 0.1952,0.0483 0.24232,0.11972 0.10464,0.15865 0.3488,0.20804 1.02864,0.20804 1.09307,0 4.43161,0.40617 6.802491,0.82755 0.96906,0.17224 2.2905,0.3972 2.93653,0.50004 3.02953,0.48226 5.85588,1.53245 6.89397,2.56149 1.70404,1.68919 2.19813,4.08539 2.21616,10.74939 0.0117,4.32157 0.0242,4.51221 0.34011,5.23247 0.27911,0.63636 0.31283,0.88642 0.22798,1.68187 -0.0548,0.5139 -0.16156,0.96826 -0.23745,1.00956 -0.0385,0.021 0.0182,0.21913 -0.0416,0.21242 l -3.09289,-0.34721 -4.61475,-0.0583 -5.372541,-0.17535 -5.78601,-2e-4 -5.85459,0.0586 -4.75264,0.23384 -4.821469,0.46743 -4.833232,0.9295 c 0.0071,-0.2113 -0.03045,-0.31768 -0.103525,-0.41341 -0.456805,-0.59841 -0.35887,-3.04684 0.132201,-3.30436 0.124605,-0.0653 0.130475,-0.37632 0.02237,-1.18816 -0.106152,-0.79718 -0.09537,-1.51083 0.039,-2.59458 0.101949,-0.82225 0.190258,-2.42002 0.196152,-3.55061 0.01963,-3.76557 0.421814,-6.55674 1.11439,-7.73215 0.706386,-1.19885 2.784062,-2.38196 5.349992,-3.04668 0.444147,-0.11506 1.303081,-0.34175 1.908741,-0.50369 2.07614,-0.55509 3.30519,-0.80751 4.81402,-0.98912 0.83081,-0.1 2.37487,-0.36062 3.43092,-0.57911 1.09932,-0.22744 1.57883,-0.3189 1.81469,-0.30903 z m 20.411001,23.1125 c 0.0129,0.13244 0.0546,0.31376 0.12475,0.52535 0.12262,0.36982 0.3281,1.17686 0.45682,1.79354 0.12872,0.61669 0.33087,1.56975 0.44909,2.11791 1.09308,5.06857 1.1671,6.17161 0.46686,6.95059 -0.84992,0.9455 -1.77798,1.25042 -3.30131,1.08475 l -0.8431,-0.0917 0.73414,-0.0277 c 0.72785,-0.0276 0.72346,-0.0297 -0.5139,-0.24698 -1.57258,-0.27613 -3.06431,-0.62945 -5.57941,-1.32199 -3.39272,-0.93419 -5.222151,-1.27877 -7.961041,-1.49937 -4.84936,-0.39058 -10.16919,-0.0841 -14.28319,0.82317 -2.618898,0.57753 -5.960574,1.52706 -7.414728,2.10671 -0.557932,0.22242 -0.592194,0.25451 -0.22024,0.20708 0.242264,-0.0309 0.566947,-0.0975 0.721516,-0.14819 0.181818,-0.0596 0.24751,-0.046 0.185826,0.0387 -0.05243,0.072 -0.278007,0.16665 -0.501274,0.21048 v 2.5e-4 c -1.041401,0.20439 -2.461872,0.20295 -2.89495,-0.003 -1.370578,-0.65153 -1.38347,-1.19698 -0.131915,-5.52885 0.366242,-1.26762 0.847515,-3.14571 1.069655,-4.17351 0.196054,-0.90711 0.282174,-1.36968 0.296808,-1.66411 10.757182,-1.58641 24.557242,-1.57499 39.139593,-1.15265 z m -6.10592,11.7254 c -0.0855,0 -0.1147,0.056 -0.0648,0.12459 0.0499,0.0685 0.1198,0.12458 0.15543,0.12458 0.0356,0 0.0648,-0.056 0.0648,-0.12458 1e-5,-0.0685 -0.0699,-0.12459 -0.15543,-0.12459 z m -30.022295,0.26328 c 0.07486,0 0.06566,0.0369 -0.06854,0.11047 -0.121132,0.0664 -0.319348,0.11764 -0.44048,0.11388 -0.14522,-0.004 -0.120213,-0.0433 0.07341,-0.11388 0.201818,-0.0736 0.360743,-0.11047 0.435604,-0.11047 z"
       style="display:inline;fill:#1a1a1a;stroke-width:1"
       id="path1"
       sodipodi:nodetypes="csssssssssssssssssssssssccccccssccsssscsssssssssssssssssssscsssssccccssssscccssscsssssscssscscssssccscccccccccssssscssssssssssssssssssssccssssssscsscccccccccsssssssssssscsssscccsssssssscccsscccssssssscss"
       inkscape:label="hat" />
    <path
       id="rect2"
       style="display:inline;opacity:0.4;fill:none;stroke:#000000;stroke-width:0.1;stroke-linejoin:round;stroke-dasharray:none"
       d="m 29.272145,128.91383 c 20.300811,-11.26871 36.196705,-7.21488 49.783789,0 v 43.14478 c -6.945705,0.76087 -21.317408,-9.51808 -49.783789,0 z"
       sodipodi:nodetypes="ccccc"
       inkscape:label="chevron" />
    <g
       inkscape:groupmode="layer"
       id="layer6"
       inkscape:label="irate"
       transform="translate(31.485416,127.26455)"
       style="display:inline">
      <path
         d="m 52.857398,144.75479 c -0.0993,0.0822 -0.10006,-0.0575 -0.003,-0.43622 0.0979,-0.37985 0.0538,-0.82607 -0.0477,-0.90972 -0.24637,-0.20399 -0.52154,0.21733 -0.62871,0.63451 -0.12301,0.47889 -0.45219,0.80873 -0.8075,0.80873 -0.22979,0 -0.26309,-0.0968 -0.25434,-0.74132 0.007,-0.524 0.0462,-0.67178 0.13319,-0.5041 0.0677,0.13047 0.12764,0.35732 0.13318,0.5041 0.007,0.17977 0.0984,0.26687 0.28092,0.26687 0.34195,0 0.41529,-0.27583 0.38837,-1.46086 -0.0104,-0.45417 -9.8e-4,-0.79014 0.0213,-0.8085 l 2.8e-4,-2.4e-4 2.7e-4,-2.3e-4 h 2.8e-4 c 1e-4,-3e-5 7.5e-4,-2.1e-4 8.8e-4,-2.3e-4 h 2.8e-4 2.8e-4 2.8e-4 2.8e-4 l 2.8e-4,2.3e-4 h 2.8e-4 c 0.002,9e-4 0.004,0.004 0.005,0.008 0.028,0.0696 0.16548,0.12649 0.30526,0.12649 0.20502,0 0.27125,-0.13686 0.34332,-0.70774 0.15082,-1.19472 0.0341,-1.26052 -1.88025,-1.06101 -1.46141,0.1523 -1.76778,0.33204 -1.18551,0.69569 0.31668,0.19777 0.32081,0.23261 0.23223,1.96982 -0.0496,0.97266 -0.2128,1.78393 -0.21516,1.87184 -0.008,0.27645 0.0461,0.16653 0.58282,0.60605 1.13266,-0.0382 2.22048,-0.0879 2.41747,-0.11073 m -0.28531,-4.84005 -0.01,0.40263 c -0.009,0.37062 -0.0217,0.38188 -0.16172,0.14178 -0.19705,-0.3377 -0.92821,-0.48061 -1.22048,-0.23862 -0.12641,0.10466 -0.24548,0.49779 -0.29016,0.95863 -0.0637,0.65774 -0.0378,0.79353 0.16396,0.85762 0.13938,0.0443 0.35715,-0.0121 0.52071,-0.1346 0.27511,-0.20614 0.2812,-0.20003 0.2812,0.28217 0,0.49094 -9.8e-4,0.49193 -0.28316,0.2583 -0.50086,-0.4147 -0.69374,-0.19836 -0.74483,0.83584 -0.0332,0.67113 0.005,0.95478 0.13263,0.99522 0.0985,0.0311 0.17907,0.11156 0.17907,0.17885 0,0.0673 -0.24175,0.12136 -0.53722,0.12046 -0.32825,-9e-4 -0.46639,-0.039 -0.35506,-0.0975 0.13481,-0.0708 0.18555,-0.61586 0.19474,-2.09562 0.0111,-1.79596 -0.0139,-2.01592 -0.24538,-2.15609 -0.23907,-0.14474 -0.23249,-0.15617 0.0918,-0.15707 0.19234,-4.5e-4 0.7849,-0.0348 1.31674,-0.0765 z m -0.93341,0.49211 c 0.10026,-0.006 0.21762,0.0519 0.34583,0.17977 0.1282,0.1279 0.1049,0.17626 -0.10716,0.22217 -0.16841,0.0365 -0.32666,0.23287 -0.41802,0.51869 l -0.14689,0.45985 -0.0148,-0.49437 c -0.0166,-0.55431 0.12051,-0.87363 0.34107,-0.88611 z m 0.88812,3.54261 c 0.0556,-9e-4 0.0441,0.0854 -0.0229,0.26038 -0.0519,0.13539 -0.21651,0.24626 -0.36597,0.24626 -0.25364,0 -0.25075,-0.0182 0.0454,-0.2729 0.17976,-0.15463 0.29132,-0.2328 0.34359,-0.23374 z"
         style="fill:#1a1a1a;stroke:none;stroke-width:0.999998"
         id="path1-5"
         sodipodi:nodetypes="cccsscscssscccccccccccsssscccccccscscssscscscsccccssccccccsscc"
         transform="translate(-31.485417,-127.26455)" />
      <path
         d="m 47.578008,140.37343 c -1.98774,0.1106 -2.02815,0.13512 -1.92945,1.17256 0.0695,0.72993 0.11412,0.82949 0.36653,0.81861 0.20804,-0.009 0.31009,-0.12831 0.36971,-0.43265 0.13775,-0.7031 0.38977,-0.79444 0.43241,-0.15673 0.14403,2.15279 0.10058,3.28372 -0.13211,3.44854 -0.49539,0.35086 -0.78618,-0.22049 -1.83036,-3.59485 -0.31179,-1.00761 -0.38896,-1.13847 -0.64621,-1.09444 -0.22624,0.0387 -0.35711,0.26395 -0.57929,0.99771 -0.3245,1.07174 -0.68346,2.4781 -0.81532,3.19376 -0.24502,0.58955 -0.989068,1.65144 0.46671,1.32094 0.55295,-0.12554 0.78637,-0.37114 0.39121,-0.59335 -0.18324,-0.10303 -0.23377,-0.23923 -0.17539,-0.47321 0.0641,-0.25699 0.17221,-0.33232 0.49628,-0.34629 0.55059,-0.0237 0.72502,0.3592 0.33005,0.72472 -0.51088,0.47278 -0.22748,0.64255 0.98557,0.59027 0.92857,-0.04 1.08539,-0.0782 1.09193,-0.26528 0.004,-0.10083 0.006,-0.15276 0.0166,-0.15634 l 2.8e-4,-2.6e-4 2.9e-4,-1e-5 2.8e-4,-2e-5 2.9e-4,-1e-5 2.9e-4,-1e-5 2.8e-4,-10e-6 c 0.0111,0.003 0.0307,0.0539 0.0661,0.15302 0.0618,0.17385 0.24069,0.20785 0.93624,0.17788 1.04642,-0.0451 1.63335,-0.23722 1.50438,-0.49251 -0.0507,-0.10028 -0.21943,-0.21084 -0.37513,-0.24565 -0.263,-0.0588 -0.28926,-0.20482 -0.36928,-2.06158 -0.0738,-1.71335 -0.0554,-1.97866 0.12879,-1.86044 0.11819,0.0758 0.26839,0.35688 0.33375,0.62446 0.0876,0.35885 0.18906,0.48333 0.38672,0.47482 0.22736,-0.01 0.27007,-0.13608 0.28186,-0.83268 0.0201,-1.18771 0.0186,-1.18845 -1.73507,-1.09086 z m -3.35657,0.45372 0.13412,0.61455 c 0.0736,0.33799 0.26578,0.94555 0.42703,1.35011 0.16124,0.40455 0.42391,1.12272 0.58371,1.59592 0.15981,0.47321 0.36193,0.92744 0.44909,1.00941 0.12226,0.11497 0.0235,0.15486 -0.43251,0.17451 -0.51749,0.0223 -0.58297,-0.006 -0.52551,-0.22529 0.0361,-0.1379 0.0123,-0.45062 -0.0529,-0.695 -0.11842,-0.44383 -0.11914,-0.44425 -0.81025,-0.37182 l -0.69208,0.0724 0.0501,-0.37625 c 0.0288,-0.21685 0.0838,-0.29846 0.13005,-0.19265 0.17637,0.40375 1.08315,0.49861 1.05531,0.11039 -0.0401,-0.55919 -0.43422,-1.46551 -0.61172,-1.40645 -0.19787,0.0658 -0.181,-0.0724 0.13798,-1.13432 z m 2.33615,-0.0473 c 0.0994,-4.8e-4 0.0428,0.0588 -0.13982,0.24544 -0.32587,0.33302 -0.55094,0.36254 -0.49749,0.0653 0.022,-0.12281 0.19977,-0.24616 0.40243,-0.2794 0.11249,-0.0185 0.18971,-0.0311 0.23488,-0.0313 z m 2.08761,-0.0872 c 0.2635,-0.0114 0.31914,0.0589 0.33479,0.42202 0.0103,0.2396 -0.0143,0.43706 -0.0546,0.4388 -0.0404,0.002 -0.0774,-0.0905 -0.0823,-0.20493 -0.005,-0.11441 -0.12252,-0.30575 -0.26144,-0.42519 -0.23728,-0.204 -0.23342,-0.2179 0.0635,-0.2307 z m -1.15589,0.0737 c 0.0174,-2.7e-4 0.0356,-1.3e-4 0.0554,4.2e-4 0.30311,0.008 0.31759,0.0521 0.26932,0.82791 -0.0681,1.09549 0.16327,3.51432 0.35412,3.70109 0.11784,0.11533 -0.01,0.15578 -0.5621,0.17816 -0.50756,0.0205 -0.65257,-0.008 -0.49994,-0.0983 0.17506,-0.1037 0.20591,-0.54406 0.16671,-2.37232 -0.0446,-2.0791 -0.0443,-2.23301 0.21646,-2.23709 z m -1.51037,0.84616 c 0.0101,-9e-4 0.022,0.0101 0.0351,0.035 0.0443,0.0838 0.0504,0.22385 0.0134,0.31117 -0.037,0.0873 -0.0733,0.0188 -0.0806,-0.1524 -0.005,-0.12034 0.008,-0.19135 0.0322,-0.19379 z m -1.99259,1.81788 c 6.1e-4,0.0141 0.0318,0.0164 0.0527,0.0559 0.0462,0.088 0.0455,0.19554 -0.002,0.23899 -0.047,0.0434 -0.0848,-0.0286 -0.0841,-0.16005 2.9e-4,-0.0863 0.032,-0.15535 0.0329,-0.13488 z m -0.94303,1.78886 c 0.0279,-0.004 0.0476,0.0464 0.0743,0.14561 0.0355,0.1316 0.13137,0.27152 0.21317,0.31084 0.0818,0.0394 -0.0181,0.0787 -0.22213,0.0875 -0.34493,0.0149 -0.35988,-0.007 -0.21317,-0.31084 0.0742,-0.15362 0.11622,-0.22844 0.14783,-0.23312 z"
         style="fill:#1a1a1a;stroke:none;stroke-width:1"
         id="path1-6"
         transform="translate(-31.485417,-127.26455)" />
      <path
         d="m 42.040712,144.13559 c -0.28607,-0.61602 -0.295473,-0.70454 -0.09738,-0.89823 0.12849,-0.12561 0.249696,-0.5849 0.291676,-1.10543 0.0674,-0.83597 0.0479,-0.91312 -0.318254,-1.25842 -0.385191,-0.36328 -0.588963,-0.33295 -1.776863,-0.26075 -0.787819,0.2494 -0.44615,1.85478 0.06644,5.50273 0.06347,0.4517 1.8493,-0.27985 1.900216,-0.44441 m -0.971251,-4.89016 c 0.06033,-0.002 0.243464,0.11333 0.407109,0.25711 0.405202,0.35601 0.419579,1.32292 0.02931,1.97927 -0.264384,0.44471 -0.271773,0.52967 -0.07777,0.89815 0.212617,0.82929 0.342143,1.569 -0.128223,1.78894 -0.101341,0.0474 -0.346191,-0.0929 -0.370419,-0.8815 -0.02582,-0.84074 0.171354,-0.8757 -0.301177,-1.10346 -0.217854,-0.10501 -0.239781,-0.0151 -0.203238,0.83437 0.02256,0.52372 0.09841,0.94378 0.168563,0.93339 0.07022,-0.0104 0.159255,0.0539 0.197839,0.14293 0.04817,0.11118 -0.10116,0.15952 -0.47686,0.15448 -0.519185,-0.007 -0.743732,0.74595 -0.182573,0.11299 0.168645,-0.19022 0.155564,-0.78077 0.0364,-1.41058 -0.122619,-0.64802 -0.116471,-1.45546 -0.111967,-2.08446 0.0079,-1.10143 -0.836063,-2.28645 -0.394386,-1.27305 0,0 1.105343,-0.33697 1.407323,-0.3485 z m -0.289928,0.2359 c -0.181674,9.8e-4 -0.328939,0.13002 -0.332918,0.36103 -0.0031,0.19463 -0.02681,0.64318 -0.05215,0.99679 -0.02534,0.3536 -0.01455,0.71574 0.02349,0.80474 0.132652,0.30723 0.650994,0.17985 0.877553,-0.2157 0.240787,-0.42038 0.164753,-1.44976 -0.130021,-1.75991 -0.121636,-0.12798 -0.262033,-0.1875 -0.386344,-0.18695 z m -1.197098,0.38165 h 3.3e-5 z m 1.299539,0.20425 c 0.0073,2.8e-4 0.01342,0.002 0.02078,0.006 0.08138,0.0448 0.146771,0.26628 0.145121,0.49226 -0.0016,0.22587 -0.05667,0.52583 -0.123076,0.66651 -0.0867,0.18363 -0.127723,0.0448 -0.145121,-0.49225 -0.01426,-0.43138 0.02386,-0.67727 0.10238,-0.67307 z"
         style="fill:#1a1a1a;stroke:none;stroke-width:0.999998"
         id="path1-62"
         sodipodi:nodetypes="cscscsccsccssscsssssscccccscssccccccccsccc"
         inkscape:transform-center-x="0.6143617"
         inkscape:transform-center-y="0.26329787"
         transform="translate(-31.485417,-127.26455)" />
      <path
         d="m 38.065231,146.66511 c 1.18035,-0.63573 1.776102,-0.27608 1.487722,-0.96456 -0.342387,-0.81741 -0.407469,-3.24817 -0.295673,-4.49665 0.02816,-0.31391 -0.605925,-0.11683 -1.322533,0.0534 -0.397478,0.0944 -0.624552,-0.0705 -0.684476,0.10517 -0.04588,0.13443 0.149498,0.33325 0.312904,0.4269 0.211681,0.12139 0.143446,0.29307 0.181237,1.53737 0.192277,1.34107 0.646122,2.99924 0.113054,2.50122 m 0.287421,-4.3078 c 0.07578,-0.002 0.541307,-0.002 0.668659,0.0147 0.334732,0.0431 0.07012,-0.27615 -0.03842,-0.11157 -0.195767,0.29682 -0.06538,3.69449 0.1818,3.74981 0.10782,0.0241 0.150812,0.34935 -0.05908,0.36076 l -0.403795,0.47191 -0.284811,-2.43101 c -0.112959,-1.14268 0.05447,-1.60379 -0.09408,-1.75533 -0.197435,-0.20239 -0.197433,-0.29383 0.02983,-0.29931 z"
         style="fill:#1a1a1a;stroke:none;stroke-width:1"
         id="path1-2"
         sodipodi:nodetypes="csssscccccsscccccc"
         transform="translate(-31.485417,-127.26455)" />
    </g>
    <path
       d="m 54.037008,132.09175 c -0.0902,-4.7e-4 -0.18872,0.003 -0.29652,0.009 -0.47333,0.0292 -0.62964,0.0943 -0.67104,0.27909 -0.0297,0.13251 0.0519,0.30661 0.18124,0.38689 0.19658,0.12196 0.2378,0.455 0.25007,2.02568 0.008,1.03387 -0.0284,1.93897 -0.0812,2.01133 -0.25858,0.35502 -0.52884,0.0784 -0.88153,-0.90273 -0.20448,-0.56884 -0.37166,-1.14798 -0.37166,-1.2872 0,-0.13921 -0.0447,-0.29106 -0.0995,-0.33749 -0.0547,-0.0464 -0.23818,-0.54649 -0.4075,-1.11102 -0.24397,-0.81342 -0.3631,-1.02635 -0.57468,-1.02635 -0.28815,0 -0.5849,0.57823 -0.76224,1.48526 -0.0989,0.5056 -0.50004,1.86927 -0.78662,2.67414 -0.0827,0.23214 -0.25705,0.52231 -0.38771,0.64482 -0.54222,0.50837 -0.0107,0.85221 1.05532,0.68253 0.54586,-0.0869 0.68828,-0.46161 0.25379,-0.66793 -0.17355,-0.0824 -0.21407,-0.20609 -0.14425,-0.44213 0.0776,-0.2623 0.18461,-0.32776 0.53483,-0.32776 0.37516,0 0.43761,0.0468 0.43761,0.32874 0,0.18088 -0.10979,0.39703 -0.24404,0.48032 -0.41857,0.2597 -0.13017,0.52016 0.67678,0.61099 0.41329,0.0465 0.82421,0.0464 0.91309,-2.4e-4 0.0889,-0.0466 0.58357,-0.0748 1.09917,-0.0628 1.07415,0.025 1.35112,-0.18905 0.80411,-0.62146 -0.23486,-0.18566 -0.31257,-0.39545 -0.31257,-0.84433 0,-0.97022 0.19133,-0.85158 0.51618,0.31997 0.26074,0.94036 0.35028,1.10268 0.62803,1.13682 0.23965,0.0294 0.32405,-0.0237 0.32405,-0.20391 0,-0.13398 0.0988,-0.40427 0.21938,-0.60053 0.12063,-0.19627 0.22477,-0.46884 0.23143,-0.60588 0.007,-0.13704 0.10543,-0.44539 0.21966,-0.68521 0.20419,-0.42867 0.20705,-0.42076 0.16776,0.46476 -0.0307,0.69171 -0.10035,0.93809 -0.30025,1.06211 -0.15269,0.0947 -0.22329,0.24348 -0.17062,0.35988 0.0756,0.16711 0.52313,0.21269 2.83444,0.2881 3.712861,0.12113 4.466671,0.16093 4.738591,0.25062 0.12766,0.0421 0.65625,0.12336 1.17462,0.18031 1.49689,0.16444 1.75016,0.1567 1.75016,-0.053 0,-0.10345 -0.13215,-0.28415 -0.29366,-0.40149 -0.26752,-0.19437 -0.29365,-0.36738 -0.29365,-1.94709 0,-1.47275 0.0367,-1.75689 0.24404,-1.88553 0.13423,-0.0833 0.20558,-0.23704 0.1583,-0.34163 -0.0962,-0.21283 -1.45981,-0.53356 -1.79891,-0.42314 -0.28397,0.0925 -0.28049,0.44904 0.006,0.62681 0.18687,0.11603 0.21766,0.44075 0.18354,1.94489 l -0.041,1.80548 -0.41869,-0.88522 c -0.39993,-0.84564 -0.40811,-0.90215 -0.18353,-1.27065 0.2737,-0.4491 0.30821,-1.37145 0.0679,-1.81885 -0.20886,-0.38897 -0.94263,-0.69199 -1.85167,-0.76453 -0.38353,-0.0306 -1.809341,-0.1452 -3.168241,-0.25452 -1.3589,-0.10934 -2.50378,-0.17059 -2.54423,-0.13626 -0.0405,0.0343 -0.23784,0.58602 -0.43847,1.22587 -0.20063,0.63985 -0.41382,1.20577 -0.47403,1.25775 -0.0602,0.052 -0.19257,-0.20029 -0.29394,-0.56062 -0.10138,-0.36033 -0.26002,-0.92558 -0.35244,-1.25629 -0.17091,-0.6115 -0.39468,-0.81177 -1.02578,-0.8166 z m -2.96722,0.34527 0.63118,2.09357 c 0.34714,1.15149 0.72103,2.24775 0.83079,2.43618 l 0.19959,0.3426 h -0.67882 c -0.52799,0 -0.63974,-0.0334 -0.50271,-0.14964 0.21936,-0.18615 0.22456,-0.56717 0.0149,-1.07745 -0.0996,-0.24234 -0.22579,-0.35928 -0.33036,-0.3061 -0.0412,0.021 -0.0653,0.0273 -0.0726,0.0202 -0.01,-0.0118 0.0197,-0.0561 0.0895,-0.12921 0.10233,-0.10724 0.15507,-0.27211 0.11728,-0.36645 -0.0378,-0.0943 -0.13989,-0.40756 -0.22683,-0.6959 -0.11762,-0.39007 -0.21526,-0.50557 -0.38169,-0.45137 -0.23763,0.0774 -0.24396,0.12859 0.14883,-1.18013 z m 2.91875,0.0136 c 0.44773,0 0.53517,0.0485 0.618,0.34261 0.17138,0.6086 0.62684,2.07616 0.76367,2.4605 0.0732,0.20557 0.21386,0.35803 0.31258,0.33896 0.12885,-0.0249 0.15042,0.0805 0.0763,0.37374 -0.0568,0.22465 -0.18609,0.57674 -0.28706,0.7823 l -0.18354,0.37375 -0.10582,-0.49834 c -0.0582,-0.27408 -0.24241,-0.91879 -0.40921,-1.4327 -0.26415,-0.8138 -0.33527,-1.09055 -0.39231,-1.52614 -0.007,-0.0514 -0.11144,-0.0934 -0.23256,-0.0934 -0.14565,0 -0.22025,-0.12348 -0.22025,-0.36474 0,-0.20066 -0.10395,-0.45295 -0.23085,-0.56062 -0.20974,-0.17797 -0.18309,-0.19588 0.29107,-0.19588 z m -5.77355,0.12483 -0.70402,4.7e-4 c -0.38712,3.8e-4 -0.93499,0.0544 -1.21763,0.1202 -0.44251,0.10296 -0.99456,0.17829 -3.08336,0.42047 -0.20188,0.0234 -0.53224,0.0522 -0.73413,0.064 -0.632497,0.0369 -0.822524,0.20501 -0.610817,0.54067 0.13911,0.22056 0.1528,0.70078 0.0571,1.99916 -0.11355,1.53997 -0.20748,1.98327 -0.387137,1.82762 -0.0962,-0.0834 -0.514097,-2.25501 -0.619997,-3.22188 -0.10078,-0.92008 -0.17608,-1.05163 -0.533967,-0.9351 -0.248183,0.0808 -0.369547,0.39361 -1.056463,2.72063 -0.280897,0.95157 -0.55273,1.76449 -0.603938,1.80645 -0.05121,0.042 -0.04584,-0.70848 0.01204,-1.66776 0.07708,-1.2777 0.164549,-1.80123 0.326919,-1.95755 0.269814,-0.25975 0.145332,-0.60098 -0.213071,-0.58399 -0.830993,0.0395 -0.970629,0.1582 -1.235695,1.05044 -0.141868,0.47755 -0.27074,1.00835 -0.286484,1.17965 -0.0027,0.0288 -0.0074,0.0441 -0.01376,0.047 -1.5e-4,5e-5 -6.88e-4,2e-4 -8.95e-4,2.4e-4 -3.06e-4,5e-5 -0.0011,2.4e-4 -0.0014,2.4e-4 -3.17e-4,-2e-5 -0.0011,-1.6e-4 -0.0014,-2.4e-4 -0.03346,-0.0109 -0.103943,-0.29559 -0.176364,-0.73241 l -0.165303,-0.99667 -0.558628,0.0148 c -0.777929,0.0209 -0.957932,0.20596 -0.64208,0.65965 0.33982,0.48811 0.366545,3.19699 0.03527,3.56862 -0.118564,0.13301 -0.217688,0.3477 -0.22024,0.47716 v 2.4e-4 c -0.0041,0.21019 0.07556,0.22739 0.74503,0.16011 0.412324,-0.0414 0.825272,-0.12347 0.917666,-0.18225 0.09239,-0.0588 0.630551,-0.18004 1.195833,-0.26961 0.565283,-0.0896 1.093858,-0.20461 1.174613,-0.25549 0.08075,-0.0509 0.642367,-0.12777 1.248027,-0.17081 1.330081,-0.0945 6.755881,-0.44097 7.004081,-0.44723 0.22591,-0.006 0.4821,-0.78434 0.48321,-1.46823 5.5e-4,-0.43899 -0.0471,-0.52948 -0.28046,-0.52948 -0.17231,0 -0.34034,0.13283 -0.43331,0.3426 -0.12246,0.27627 -0.1482,0.13609 -0.13278,-0.72389 0.0178,-0.9929 0.0401,-1.06592 0.32319,-1.05895 0.27653,0.007 0.30776,-0.0742 0.34699,-0.89569 z m 9.20907,0.0141 c 0.29808,0.008 0.42637,0.0402 0.28504,0.0715 -0.23225,0.0515 -0.25694,0.26478 -0.25694,2.22181 0,1.93035 0.0279,2.17865 0.25694,2.29188 0.20781,0.10271 0.15163,0.12737 -0.29365,0.13067 -0.53301,0.004 -0.61915,-0.0439 -0.55519,-0.30757 0.0167,-0.0685 0.0663,-0.89544 0.11012,-1.83759 0.0715,-1.53607 0.0546,-1.71302 -0.16259,-1.71302 -0.18978,0 -0.22129,-0.0742 -0.14568,-0.3426 0.14369,-0.51008 0.17415,-0.5308 0.76195,-0.51512 z m 1.95634,0.11022 c 0.55036,0 0.59297,0.0191 0.36105,0.16303 -0.35346,0.2193 -0.52882,1.79872 -0.21823,1.96558 0.12718,0.0684 0.13978,0.11053 0.0333,0.11194 -0.11707,10e-4 -0.17483,0.35517 -0.18181,1.11467 -0.01,1.05635 0.006,1.11544 0.31831,1.1665 0.18072,0.0296 -0.0309,0.0615 -0.47031,0.0708 -0.7085,0.0151 -0.76782,-0.002 -0.52478,-0.15305 0.25091,-0.15569 0.27097,-0.34173 0.23745,-2.20696 -0.0202,-1.12035 -0.0686,-2.08094 -0.10784,-2.1347 -0.0392,-0.0538 0.20967,-0.0978 0.55289,-0.0978 z m 1.123,0.1331 c 0.184231,-0.005 0.374001,0.078 0.421831,0.18371 0.048,0.10574 0.0457,0.22714 -0.004,0.26985 -0.0504,0.0427 -0.0915,0.0208 -0.0915,-0.0487 0,-0.0695 -0.14866,-0.18698 -0.330361,-0.26133 l -0.33037,-0.13529 z m -13.01451,0.0528 c 0.22581,-0.006 0.27689,0.0607 0.34011,0.27447 0.12245,0.41397 0.0472,0.46059 -0.25724,0.1589 -0.13621,-0.135 -0.42451,-0.24552 -0.64064,-0.24552 -0.52048,0 -0.39946,-0.0725 0.26669,-0.15962 0.12099,-0.0158 0.21581,-0.0261 0.29108,-0.0282 z m 10.69741,0.0633 c 0.1615,0 0.29695,0.0701 0.30139,0.15573 0.0195,0.3932 0.027,2.70877 0.0106,3.23915 -0.0153,0.49206 -0.0651,0.59176 -0.29624,0.59176 -0.32261,0 -0.41421,-0.16505 -0.37997,-0.6852 0.0136,-0.20556 0.035,-1.03248 0.0476,-1.83759 0.0216,-1.3743 0.0409,-1.46385 0.3166,-1.46385 z m 3.866811,0 0.45252,0.002 c 0.31015,10e-4 0.38968,0.0355 0.25293,0.10901 -0.2437,0.13101 -0.38604,1.08308 -0.25236,1.68771 0.0806,0.36444 0.16203,0.44383 0.45568,0.44383 0.43271,0 0.56241,-0.33002 0.48809,-1.24365 -0.0391,-0.48091 -0.013,-0.58566 0.11012,-0.4426 0.0887,0.10306 0.19525,0.15843 0.23687,0.12312 0.0416,-0.0353 0.11404,0.17581 0.16088,0.46913 0.0639,0.40023 0.0138,0.63613 -0.20046,0.94532 -0.39128,0.56484 -0.36349,0.78403 0.22455,1.77823 0.28041,0.47409 0.49516,0.85439 0.47718,0.84507 -0.018,-0.009 -0.17168,-0.0402 -0.34154,-0.0686 -0.23158,-0.0387 -0.41569,-0.29154 -0.73557,-1.01078 -0.49717,-1.11788 -0.8377,-1.2739 -0.91021,-0.41706 -0.0253,0.29817 0.0208,0.70462 0.10238,0.90323 0.14457,0.35193 0.13598,0.36109 -0.34642,0.36109 h -0.49525 l 0.22512,-0.38275 c 0.18174,-0.30916 0.21263,-0.73947 0.1603,-2.24225 z m -15.975991,0.12458 c 0.16838,0 0.19012,0.18583 0.11642,0.99667 -0.0864,0.95056 -0.0763,0.99665 0.21451,0.99665 0.1677,0 0.39547,-0.0769 0.50615,-0.17081 0.17044,-0.1446 0.20228,-0.0445 0.20905,0.65406 0.003,0.30125 -0.006,0.47691 -0.0224,0.48835 h -2.9e-4 l -2.9e-4,2.5e-4 h -2.8e-4 l -2.9e-4,2.4e-4 h -2.9e-4 -2.8e-4 -2.9e-4 -2.9e-4 l -2.8e-4,-2.4e-4 h -2.9e-4 c -0.007,-0.004 -0.0168,-0.0413 -0.0264,-0.11388 -0.0427,-0.32296 -0.15701,-0.48788 -0.40435,-0.58349 -0.18962,-0.0733 -0.3843,-0.0998 -0.43274,-0.0586 -0.0484,0.0411 -0.088,0.54196 -0.088,1.11297 v 1.03827 h 0.53825 c 0.2961,0 0.51082,0.0201 0.47719,0.0448 -0.0336,0.0247 -0.52359,0.0739 -1.08887,0.10926 -0.46813,0.0293 -0.7907,0.0374 -0.81185,0.0226 h -2.9e-4 l -2.8e-4,-2.5e-4 -2.9e-4,-2.4e-4 v -2.4e-4 l -2.9e-4,-2.5e-4 v -2.4e-4 -2.4e-4 -2.5e-4 -2.4e-4 l 2.9e-4,-2.4e-4 v -2.5e-4 l 2.9e-4,-2.4e-4 v -2.4e-4 c 0.003,-0.002 0.0122,-0.006 0.0278,-0.009 0.34749,-0.0768 0.39733,-0.37488 0.41151,-2.45467 0.007,-1.01974 0.0482,-1.90272 0.0915,-1.96218 0.0433,-0.0595 0.17179,-0.10804 0.28563,-0.10804 z m 14.03083,0.1589 c 0.0527,0.002 0.11312,0.0146 0.18266,0.0372 0.319991,0.10418 0.418571,0.39895 0.12705,0.38007 -0.15216,-0.01 -0.30796,0.14584 -0.4207,0.42047 l -0.17894,0.43604 -0.008,-0.58447 c -0.007,-0.49719 0.0701,-0.69678 0.29825,-0.68934 z m -15.67374,0.0131 c 0.0397,9.4e-4 0.0439,0.0497 0.006,0.13285 -0.0976,0.21583 -0.20275,0.25536 -0.20275,0.0762 0,-0.0645 0.0653,-0.15134 0.14511,-0.1932 0.0208,-0.0109 0.0381,-0.0161 0.0513,-0.0158 z m 17.089801,0.0526 c 0.0919,-0.003 0.18612,0.46746 0.18612,1.19935 0,1.11055 -0.0175,1.17706 -0.31889,1.21468 -0.2043,0.0255 -0.36949,0.17418 -0.45969,0.41365 -0.0774,0.20557 -0.24137,0.47186 -0.36449,0.59177 -0.123111,0.11992 -0.345681,0.21802 -0.494681,0.21802 -0.23607,0 -0.26894,-0.10013 -0.25551,-0.77864 l 0.0152,-0.77864 0.17894,0.49103 c 0.19003,0.52134 0.48002,0.70617 0.679081,0.43288 0.0663,-0.091 0.10095,-0.70068 0.0771,-1.3546 -0.0197,-0.54153 -0.0167,-0.91283 0.005,-0.93461 l 2.9e-4,-2.5e-4 2.9e-4,-2.4e-4 c 9e-5,-6e-5 5.6e-4,-2e-4 0.001,-2.4e-4 h 2.9e-4 l 2.9e-4,-2.5e-4 h 2.9e-4 2.8e-4 l 2.9e-4,2.5e-4 h 2.9e-4 c 0.004,0.002 0.008,0.0137 0.0126,0.034 0.10636,0.47875 0.5473,0.28984 0.60079,-0.25744 0.0331,-0.33777 0.0838,-0.48895 0.13536,-0.49079 z m 3.53503,0.036 c 0.0432,-0.002 0.11131,0.0117 0.20848,0.0338 0.18345,0.0417 0.43262,0.0777 0.55376,0.0796 0.19176,0.003 0.19257,0.0185 0.006,0.11874 -0.16761,0.0899 -0.22112,0.46942 -0.24404,1.73296 -0.0162,0.88981 0.0238,1.81825 0.0889,2.06316 0.10348,0.38932 0.0835,0.44529 -0.15974,0.44529 -0.34004,0 -0.31434,0.17689 -0.29164,-2.01036 0.0105,-1.0046 -0.0498,-1.97632 -0.13393,-2.16414 -0.0979,-0.21849 -0.12263,-0.29538 -0.0275,-0.29905 z m 2.21674,0.0691 c -0.33573,0.002 -0.41949,0.0949 -0.70403,0.58179 -0.47514,0.81312 -0.57428,2.0455 -0.24261,3.01358 0.43581,1.27202 1.55589,1.9148 2.33231,1.33854 0.16159,-0.11991 0.2436,-0.1456 0.18239,-0.0569 -0.18629,0.26981 0.20813,0.52412 0.81299,0.52412 0.31313,0 0.56924,0.048 0.56924,0.10658 0,0.0586 0.21473,0.16554 0.47719,0.23773 0.69388,0.19084 0.92123,0.13429 0.89587,-0.22313 -0.012,-0.16942 -0.28003,-1.34515 -0.59562,-2.61259 -0.72683,-2.91898 -0.89387,-3.03127 -1.35327,-0.90979 -0.42415,1.95866 -0.42345,1.95686 -0.70202,1.7607 -0.1891,-0.13316 -0.27905,-0.10133 -0.56063,0.19831 -0.45296,0.48201 -0.73003,0.35606 -0.95323,-0.43336 -0.24724,-0.87446 -0.0314,-2.85859 0.31086,-2.85859 0.16011,0 0.57211,0.8211 0.57211,1.14022 0,0.29714 0.42533,0.45101 0.59992,0.21705 0.14625,-0.19599 0.17427,-1.15592 0.0456,-1.56288 -0.0881,-0.27856 -0.54313,-0.41493 -1.52647,-0.45745 -0.0596,-0.002 -0.11263,-0.004 -0.16059,-0.004 z m -24.544131,0.044 c 0.13251,0 0.18304,0.0727 0.13077,0.18833 -0.0469,0.10364 -0.129,0.55214 -0.18268,0.99666 -0.0833,0.69011 -0.0635,0.80833 0.13565,0.80833 0.12827,0 0.29722,-0.0974 0.37567,-0.21632 0.12272,-0.18607 0.15741,-0.16433 0.24691,0.15573 0.0572,0.2046 0.33309,0.78204 0.6134,1.2833 0.27592,0.49343 0.48015,0.9145 0.4594,0.94654 -8e-5,1.1e-4 -4.7e-4,4.7e-4 -5.5e-4,9.4e-4 l -2.9e-4,2.4e-4 -2.8e-4,2.5e-4 c -0.0284,0.0199 -0.28288,0.0686 -0.56552,0.10803 -0.20977,0.0293 -0.34586,0.0386 -0.36075,0.027 -1.3e-4,-1.3e-4 -4.7e-4,-4.7e-4 -5.6e-4,-9.4e-4 -8e-5,-1.3e-4 -5.2e-4,-4.7e-4 -5.5e-4,-9.5e-4 v -2.4e-4 c -5e-5,-2.9e-4 -7e-5,-9.4e-4 0,-10e-4 0.002,-0.004 0.0118,-0.01 0.0315,-0.0165 0.26293,-0.092 0.22752,-0.43797 -0.12188,-1.1901 -0.52952,-1.13988 -0.85836,-1.06821 -0.97961,0.21339 -0.06,0.634 -0.0298,0.8602 0.1259,0.94387 0.14917,0.0802 0.10087,0.11051 -0.17723,0.11192 -0.374267,0.002 -0.379607,-0.0101 -0.26956,-0.60077 0.0618,-0.33146 0.15997,-1.31254 0.21823,-2.18019 0.0849,-1.26495 0.14879,-1.57748 0.32204,-1.57748 z m 2.42034,0 c 0.27747,0 0.29401,0.0519 0.20877,0.65405 -0.0509,0.35974 -0.0933,1.2287 -0.0941,1.93103 -10e-4,1.02237 -0.0428,1.27698 -0.21049,1.27698 -0.37225,0 -1.34845,-2.04806 -1.20558,-2.52937 0.14131,-0.47607 0.97781,-1.33269 1.30136,-1.33269 z m 1.7863,0 c 0.19324,0 0.38813,0.0813 0.43302,0.18054 0.0526,0.11616 0.0112,0.15755 -0.11614,0.11607 -0.10885,-0.0355 -0.24828,0.005 -0.30971,0.0888 -0.0614,0.0843 -0.16036,0.32646 -0.21996,0.538 -0.0373,0.1324 -0.0627,0.20521 -0.0803,0.20853 -5.1e-4,5e-5 -0.002,3e-4 -0.002,2.4e-4 -0.0243,-0.005 -0.0339,-0.15461 -0.0413,-0.47814 -0.014,-0.61036 0.008,-0.65405 0.33638,-0.65405 z m 16.028761,0.11168 c 0.0177,-9.4e-4 0.0391,0.0249 0.0645,0.0752 0.0694,0.13705 0.13084,0.42811 0.1365,0.64676 0.006,0.21865 -0.0558,0.43215 -0.1365,0.47448 -0.0918,0.0482 -0.14294,-0.194 -0.1365,-0.64675 0.005,-0.37343 0.0267,-0.54766 0.072,-0.54968 z m -19.384841,0.0129 c 0.27783,0 0.27326,0.0266 -0.0932,0.55357 -0.35544,0.51115 -0.42585,0.54177 -0.42585,0.18565 0,-0.36239 0.26462,-0.73922 0.51905,-0.73922 z m 23.751501,0.0377 c 0.0692,-0.001 0.0288,0.21365 -0.12304,0.64189 -0.3088,0.87068 -0.28462,2.75151 0.0425,3.30704 0.28212,0.4792 0.76917,0.62514 1.18235,0.35428 0.077,-0.0505 0.12102,-0.075 0.13105,-0.0718 h 2.9e-4 v 2.5e-4 h 2.9e-4 l 2.9e-4,2.4e-4 h 2.8e-4 v 2.4e-4 l 2.9e-4,2.5e-4 v 2.4e-4 l 2.9e-4,2.4e-4 c 0.005,0.0113 -0.0491,0.0717 -0.16347,0.18542 -0.31196,0.31026 -0.32852,0.31306 -0.76567,0.13335 -1.07669,-0.44264 -1.4664,-3.0374 -0.63118,-4.20273 0.16642,-0.2322 0.27527,-0.34804 0.32577,-0.34893 z m 1.04957,0.37764 c 0.0929,0 0.18332,0.15868 0.20074,0.35282 0.0174,0.19415 0.0119,0.35307 -0.0121,0.35307 -0.0239,0 -0.11409,-0.15892 -0.20045,-0.35307 -0.11574,-0.26022 -0.11275,-0.35282 0.0118,-0.35282 z m -29.9793,0.22751 c 0.06484,-10e-4 0.10754,0.067 0.10754,0.21875 0,0.14275 -0.04956,0.25954 -0.110121,0.25939 -0.06059,-1.5e-4 -0.08926,0.55291 -0.06395,1.22903 0.02532,0.67612 -0.02089,1.41904 -0.102664,1.65097 -0.112955,0.32036 -0.133445,0.0625 -0.08517,-1.07331 0.03499,-0.82331 0.01,-1.38677 -0.05563,-1.2541 -0.214819,0.43449 -0.305392,0.004 -0.103811,-0.49395 0.136081,-0.33587 0.30574,-0.53408 0.413811,-0.53678 z m 2.003094,0.006 c 0.01182,-9.4e-4 0.02182,0.005 0.02954,0.017 0.04937,0.0792 0.169144,0.67664 0.266124,1.32759 0.26213,1.75942 0.31999,1.98841 0.553177,2.18627 0.18616,0.15797 0.16688,0.1808 -0.152557,0.1808 -0.20105,0 -0.45338,0.0188 -0.560925,0.0419 -0.06554,0.014 -0.105541,0.0179 -0.112989,0.0122 l -2.86e-4,-2.5e-4 v -2.4e-4 l -2.87e-4,-2.4e-4 -2.87e-4,-2.5e-4 c -4.1e-5,-8e-5 -2.55e-4,-4.7e-4 -2.86e-4,-9.4e-4 v -2.4e-4 -2.5e-4 -2.4e-4 c 5.01e-4,-0.004 0.0097,-0.0112 0.02868,-0.0202 0.06057,-0.0287 0.110119,-0.33113 0.110119,-0.67207 0,-0.42152 -0.05206,-0.59255 -0.162598,-0.53458 -0.110465,0.0579 -0.129217,-0.004 -0.05879,-0.19199 0.151466,-0.40493 -0.05295,-1.40659 -0.272432,-1.33512 -0.129952,0.0423 -0.117137,-0.10466 0.04732,-0.53897 0.104937,-0.27713 0.222641,-0.46577 0.286484,-0.47035 z m 19.939155,0.25962 c 0.0416,2.2e-4 0.0425,0.11385 0.0425,0.37205 0,0.51498 -0.0311,0.54539 -0.28849,0.28226 -0.14066,-0.14381 -0.12894,-0.24018 0.0556,-0.46378 0.10096,-0.12222 0.15799,-0.19069 0.19042,-0.19053 z m -23.829773,0.0258 c 0.05322,3.3e-4 0.08632,0.01 0.08632,0.0283 0,0.40633 0.506356,2.60652 0.61283,2.66296 0.08918,0.0473 0.09061,0.23069 0.004,0.49833 -0.132977,0.41097 -0.139784,0.41417 -0.234005,0.11193 -0.0534,-0.1713 -0.149773,-0.56374 -0.21393,-0.87208 -0.06756,-0.32469 -0.189444,-0.54751 -0.289639,-0.52948 -0.117486,0.0211 -0.172923,-0.20616 -0.172923,-0.70881 0,-0.40708 -0.06607,-0.775 -0.146827,-0.81733 -0.235294,-0.12339 -0.170321,-0.27709 0.146827,-0.34746 0.08075,-0.0179 0.154111,-0.0266 0.207335,-0.0263 z m 33.607214,0.0625 c 5.6e-4,-7e-5 10e-4,0 0.002,0 0.0718,0 0.22539,0.58212 0.45223,1.71302 0.0456,0.22707 0.0184,0.40489 -0.062,0.40489 -0.0787,0 -0.1431,-0.13629 -0.1431,-0.3027 0,-0.1664 -0.0991,-0.38654 -0.22024,-0.48932 -0.2354,-0.19974 -0.3002,-0.57839 -0.0989,-0.57839 0.0668,0 0.0924,-0.16819 0.0568,-0.37375 -0.035,-0.20235 -0.0288,-0.3686 0.0132,-0.37375 z m -19.335791,0.54603 c 0.0175,-4.7e-4 0.0369,0.004 0.0571,0.0146 0.0807,0.0423 0.14682,0.12969 0.14682,0.19417 0,0.0645 -0.0661,0.11729 -0.14682,0.11729 -0.0808,0 -0.14683,-0.0874 -0.14683,-0.19417 0,-0.0801 0.0371,-0.12991 0.0898,-0.13189 z m -0.40865,0.37934 c 0.012,6e-5 0.0193,0.01 0.0201,0.0314 0.003,0.0809 0.15382,0.17152 0.33552,0.20123 0.13067,0.0213 0.20033,0.0348 0.20533,0.0445 l 2.8e-4,2.4e-4 v 2.4e-4 2.5e-4 2.4e-4 2.4e-4 2.5e-4 2.4e-4 2.4e-4 l -2.8e-4,2.5e-4 c -0.007,0.0103 -0.0958,0.0166 -0.27158,0.0241 -0.21806,0.009 -0.4637,0.11513 -0.54601,0.23505 -0.0823,0.11989 -0.14924,0.16196 -0.14883,0.0934 0.001,-0.16029 0.3213,-0.63234 0.40549,-0.63192 z m -3.73261,0.46256 c 1.4e-4,-4e-5 4.3e-4,3e-5 5.5e-4,0 1.5e-4,-10e-6 5.6e-4,0 10e-4,0 1.4e-4,2e-5 5.5e-4,-3e-5 0.001,0 3e-4,9e-5 10e-4,3.5e-4 0.002,4.7e-4 0.0154,0.009 0.0365,0.0887 0.0662,0.23116 0.0732,0.35049 0.15595,0.43402 0.42127,0.42607 0.40025,-0.012 0.41772,0.0911 0.0617,0.3645 -0.48041,0.3689 -0.61397,0.25412 -0.59333,-0.51026 0.009,-0.33702 0.019,-0.49893 0.0393,-0.51123 1.4e-4,-7e-5 5.5e-4,-4.2e-4 0.001,-4.7e-4 z m 14.986641,0.2117 c 0.009,-0.002 0.02,0.0146 0.0312,0.0511 0.0369,0.11991 0.0369,0.31613 0,0.43604 -0.0369,0.11991 -0.0671,0.0218 -0.0671,-0.21802 0,-0.16675 0.0145,-0.26505 0.0359,-0.26912 z m -7.778941,0.02 h 2.8e-4 2.9e-4 2.8e-4 c 0.0235,0.003 0.0678,0.22639 0.0984,0.49833 0.0333,0.29594 -0.007,0.49833 -0.0986,0.49833 -0.0918,0 -0.13189,-0.20239 -0.0987,-0.49833 0.0306,-0.27194 0.0745,-0.49487 0.0981,-0.49833 z m -10.92654,0.0623 0.2145,0.41925 c 0.11797,0.23056 0.21451,0.49686 0.21451,0.59177 0,0.0949 -0.0991,0.17252 -0.22024,0.17252 -0.16567,0 -0.21884,-0.14664 -0.21451,-0.59177 z m -3.323663,0.1241 c 0.01687,-9.5e-4 0.03232,0.0278 0.04703,0.0861 0.02917,0.11569 0.164468,0.23072 0.300823,0.25549 0.169285,0.0307 0.128036,0.0659 -0.130481,0.11096 -0.34235,0.0596 -0.371328,0.035 -0.301109,-0.2555 0.03148,-0.13024 0.05909,-0.19559 0.08374,-0.19709 z m 21.569444,0.0747 c 0.007,-4.5e-4 0.0155,0.003 0.0238,0.01 0.0409,0.0348 0.0327,0.24021 -0.0184,0.45672 -0.0746,0.31633 -0.16528,0.3937 -0.46142,0.3937 h -0.368501 l 0.386861,-0.25817 c 0.21278,-0.14201 0.38685,-0.34774 0.38685,-0.45697 0,-0.087 0.0214,-0.14328 0.0508,-0.14502 z m -11.284711,0.0951 c 0.0294,-0.003 0.0613,0.0984 0.0918,0.29783 0.0656,0.42942 0.0421,0.46718 -0.28906,0.46718 -0.33209,0 -0.34246,-0.0171 -0.13249,-0.21802 0.12531,-0.11991 0.25515,-0.33015 0.28878,-0.46719 0.0128,-0.052 0.0267,-0.0784 0.041,-0.0798 z m 19.768531,0.0798 0.13278,0.28031 c 0.15848,0.33456 0.51175,0.36545 0.71234,0.0623 0.17814,-0.26925 0.2109,-0.20028 0.50327,1.05895 0.11535,0.49678 0.2018,0.89552 0.19215,0.88619 -0.01,-0.009 -0.17687,-0.0423 -0.37166,-0.0735 -0.25567,-0.0409 -0.30001,-0.0851 -0.15974,-0.15865 0.32755,-0.17176 0.007,-1.14178 -0.44047,-1.33342 -0.31406,-0.13447 -0.39646,-0.12603 -0.57039,0.0586 -0.0985,0.10453 -0.14777,0.15494 -0.16059,0.14989 l -2.9e-4,-2.5e-4 c -0.0108,-0.006 0.009,-0.0599 0.0508,-0.16205 0.0513,-0.12551 0.0974,-0.34976 0.10237,-0.49833 z m -21.788261,0.0757 c 0.0155,-0.002 0.0228,0.0415 0.0278,0.13212 0.006,0.11431 -0.0287,0.29651 -0.0777,0.4049 -0.049,0.10838 -0.19159,0.19709 -0.3166,0.19709 -0.20373,0 -0.2039,-0.0225 -0.003,-0.21802 0.12311,-0.11991 0.26027,-0.30211 0.30483,-0.40489 0.0311,-0.0719 0.0512,-0.10936 0.0648,-0.1112 z m 15.227811,0.27544 c 0.0395,3.1e-4 0.0933,0.0559 0.1322,0.14186 0.0993,0.21952 0.0146,0.25813 -0.13019,0.0594 -0.0532,-0.0731 -0.0655,-0.15955 -0.027,-0.19223 0.007,-0.006 0.0158,-0.009 0.025,-0.009 z m -23.02882,0.0898 c 0.114749,0.004 0.205323,0.0943 0.205329,0.27666 -1.2e-5,0.29497 -0.514289,0.66692 -0.654985,0.47376 -0.0447,-0.0614 -0.01625,-0.25631 0.06309,-0.43336 0.09551,-0.21315 0.256518,-0.32109 0.386566,-0.31706 z m -2.385644,0.0379 c 0.01369,2.7e-4 0.03015,0.0196 0.04846,0.0584 0.04241,0.0899 0.03703,0.19732 -0.01176,0.23871 -0.04879,0.0414 -0.08352,-0.0322 -0.07714,-0.16352 0.0043,-0.0884 0.01908,-0.13402 0.04043,-0.13358 z m 32.391024,0.52461 c 0.0255,-0.002 0.0523,0.002 0.0806,0.011 0.12031,0.0392 0.21763,0.19138 0.21652,0.33822 -0.003,0.4212 -0.18379,0.58189 -0.41524,0.37034 -0.23707,-0.21667 -0.12844,-0.70317 0.11815,-0.71951 z m -31.7911,0.43263 c 0.06219,0.002 0.08691,0.0469 0.05019,0.1404 -0.03108,0.0791 -0.214115,0.19327 -0.406928,0.25379 -0.344814,0.10824 -0.346044,0.10589 -0.07972,-0.14381 0.174979,-0.16405 0.345568,-0.25318 0.436465,-0.25038 z m 31.01738,0.24771 c 0.0962,-9.5e-4 0.21567,0.0541 0.26556,0.12263 0.11266,0.15467 0.0618,0.15467 -0.22024,0 -0.13236,-0.0726 -0.15038,-0.12169 -0.0453,-0.12263 z m -13.183981,1.88821 c -0.32866,0.016 -0.51565,0.51811 -1.17204,2.96857 -0.24777,0.92502 -0.54456,1.77029 -0.65957,1.87847 -0.21371,0.20101 -0.27517,0.51548 -0.12561,0.64238 0.0459,0.0389 0.35973,0.0535 0.69743,0.0323 0.33769,-0.0211 0.69657,-0.0435 0.79751,-0.0499 0.26413,-0.0167 0.2264,-0.47736 -0.0499,-0.60856 -0.38917,-0.1848 -0.20577,-0.70412 0.26498,-0.75017 0.32512,-0.0318 0.4164,0.0211 0.49496,0.28664 0.0707,0.23898 0.0233,0.37171 -0.17837,0.49881 -0.21886,0.13799 -0.24159,0.21908 -0.11212,0.39857 0.13137,0.18214 0.35579,0.22532 1.17174,0.22532 0.88086,0 1.01639,-0.0306 1.06479,-0.24089 0.0304,-0.13251 -0.0505,-0.30673 -0.1801,-0.38713 -0.12959,-0.0804 -0.36274,-0.48331 -0.51791,-0.89544 -0.31201,-0.82872 -0.9938,-3.15881 -1.06707,-3.64672 -0.0311,-0.20719 -0.15178,-0.32413 -0.36076,-0.34941 -0.0233,-0.003 -0.0461,-0.004 -0.0679,-0.003 z m 3.67582,0.10316 c -0.95295,0 -1.89899,1.36769 -1.89899,2.74544 0,0.983 0.66504,2.31367 1.30079,2.60237 0.58842,0.26722 1.396861,0.28095 1.958071,0.0333 0.45507,-0.20079 0.55545,-0.21042 0.62344,-0.0601 0.058,0.12818 0.28228,0.16995 0.78689,0.14721 0.3881,-0.0175 0.77252,0.003 0.85429,0.0462 0.0818,0.0429 0.9196,0.13378 1.53394,0.20488 0.61434,0.0711 1.73053,0.16487 2.15279,0.21096 0.64073,0.07 0.78332,0.0492 0.86203,-0.12482 0.052,-0.11514 -0.005,-0.30413 -0.12761,-0.42193 -0.17434,-0.1675 -0.2008,-0.38752 -0.12245,-1.02318 l 0.0998,-0.80979 0.2512,0.7475 c 0.13815,0.41112 0.35491,1.04525 0.48178,1.4091 0.13614,0.39045 0.30151,0.64146 0.40377,0.61269 0.25706,-0.0724 0.37041,-0.93911 0.38256,-2.92502 0.007,-1.17169 0.0644,-1.7753 0.16804,-1.7753 0.0864,0 0.13593,-0.12429 0.11012,-0.27618 -0.0593,-0.3488 -0.95243,-0.6153 -1.15052,-0.34333 -0.069,0.0946 -0.0634,0.26617 0.0126,0.38664 0.0751,0.1191 0.13412,0.37426 0.13134,0.5672 l -0.005,0.35087 -0.20991,-0.31145 c -0.11541,-0.1713 -0.2123,-0.40202 -0.21508,-0.51269 -0.0118,-0.45558 -0.55778,-0.81947 -1.35729,-0.90444 -0.42726,-0.0454 -0.98494,-0.11497 -1.23941,-0.15476 -0.38198,-0.0597 -0.47978,-0.0267 -0.56065,0.18955 -0.0619,0.16541 -0.0133,0.33381 0.13221,0.45721 0.18848,0.15995 0.22131,0.53143 0.23027,2.04783 0.01,1.67732 0.0907,2.52092 -0.35875,1.87872 -0.10679,-0.15259 -0.77618,-2.53805 -1.04413,-3.74016 -0.37175,-1.66784 -0.79394,-1.48191 -1.26839,0.55843 -0.34097,1.46636 -0.37441,1.55134 -0.53024,1.34803 -0.15001,-0.19574 -1.746751,-0.32438 -2.090261,-0.16838 -0.37299,0.16937 -0.36954,0.50089 0.006,0.58422 0.24311,0.0539 0.29366,0.16991 0.29366,0.67353 0,0.70573 -0.25247,0.80792 -0.6676,0.27033 -0.1887,-0.24435 -0.27832,-0.66705 -0.32377,-1.52614 -0.0996,-1.88177 0.43899,-2.78873 1.09546,-1.84465 0.158591,0.22807 0.333421,0.56719 0.388581,0.75358 0.1099,0.37154 0.45186,0.45339 0.59275,0.14186 0.049,-0.10839 0.0892,-0.58666 0.0892,-1.06285 0,-0.67893 -0.0508,-0.88238 -0.23514,-0.9424 -0.12929,-0.0421 -0.2861,-0.007 -0.34843,0.0791 -0.0854,0.1173 -0.18769,0.12185 -0.41582,0.0183 -0.166461,-0.0756 -0.514041,-0.13748 -0.772271,-0.13748 z m 0.10037,0.25695 c 0.25437,0.007 0.25264,0.0161 -0.0224,0.11071 -0.44077,0.15159 -0.59661,0.36781 -0.80267,1.11322 -0.24405,0.88287 -0.0893,2.52805 0.2971,3.15982 0.14858,0.24291 0.25766,0.44271 0.25322,0.46183 v 2.5e-4 2.4e-4 l -2.9e-4,2.4e-4 v 2.5e-4 l -2.8e-4,2.4e-4 h -2.9e-4 l -2.9e-4,2.4e-4 h -2.9e-4 -2.8e-4 c -0.12611,-0.0145 -0.53588,-0.3681 -0.80812,-0.69736 -0.42466,-0.51359 -0.59233,-1.92252 -0.3252,-2.73206 0.21404,-0.64865 0.99062,-1.42958 1.40976,-1.41762 z m 0.987071,0.30382 c 0.2753,0 0.31917,0.0558 0.26956,0.3426 -0.0655,0.37904 -0.31946,0.47302 -0.31946,0.11826 0,-0.12334 -0.0627,-0.2775 -0.13937,-0.3426 -0.0881,-0.0747 -0.0185,-0.11826 0.18927,-0.11826 z m -4.803991,0.0995 c 0.0761,-0.003 0.28826,0.52053 0.47633,1.17794 0.48529,1.69642 1.01003,3.04817 1.2291,3.16616 0.10974,0.0591 -0.0726,0.10077 -0.44707,0.10171 -0.35607,9.4e-4 -0.59552,-0.049 -0.54774,-0.11461 0.12354,-0.16961 -0.16249,-1.14965 -0.36678,-1.25678 -0.0956,-0.0502 -0.29881,-0.0635 -0.45137,-0.0297 -0.1543,0.0342 -0.27731,-0.002 -0.27731,-0.083 0,-0.0795 0.0826,-0.13545 0.18353,-0.12434 0.62074,0.0684 0.61695,0.083 0.30914,-1.15774 -0.0922,-0.37162 -0.49267,-0.74994 -0.49267,-0.46548 0,0.0883 -0.0273,0.13706 -0.0605,0.10852 -0.10037,-0.0862 0.29941,-1.28215 0.44192,-1.32199 10e-4,-3.2e-4 0.002,-4.7e-4 0.003,-9.4e-4 z m 9.672201,0.0971 c 0.0734,9.5e-4 0.1697,0.0147 0.29051,0.0404 0.31754,0.0676 0.35347,0.11796 0.22712,0.31827 -0.22789,0.36129 -0.19778,4.20382 0.0336,4.28302 0.10094,0.0346 0.0162,0.0673 -0.18812,0.0727 l -0.37166,0.01 0.0582,-2.03737 c 0.0406,-1.42707 0.006,-2.12064 -0.11758,-2.31548 -0.16412,-0.26019 -0.15214,-0.374 0.068,-0.37132 z m -2.4298,0.26418 c 0.10541,9.4e-4 0.24281,0.46719 0.49984,1.53221 0.0165,0.0685 0.0771,0.18869 0.13478,0.26693 0.0577,0.0782 0.12864,0.36405 0.15744,0.63532 0.0288,0.27128 0.0978,0.55584 0.15342,0.63217 0.0555,0.0763 0.18825,0.38453 0.2948,0.68496 l 0.19357,0.54626 -0.38284,-0.0124 c -0.36005,-0.0116 -0.38005,-0.0457 -0.34126,-0.57303 0.0495,-0.67301 -0.0951,-0.89011 -0.60938,-0.91539 -0.48288,-0.0237 -0.48341,-0.0562 -0.003,-0.21121 0.30482,-0.0983 0.36465,-0.18071 0.29165,-0.40173 -0.0505,-0.15295 -0.13297,-0.51638 -0.18324,-0.8076 -0.0505,-0.29267 -0.17184,-0.52948 -0.27129,-0.52948 -0.11441,0 -0.15594,-0.12525 -0.11471,-0.3426 0.0618,-0.32616 0.11471,-0.50487 0.18009,-0.50441 z m 3.98869,0.0574 c 0.0256,-4.7e-4 0.058,0.0104 0.0981,0.0294 0.24968,0.11857 0.64036,0.92306 0.67161,1.38307 0.0116,0.1713 0.0971,0.36752 0.18984,0.43604 0.24825,0.18332 0.42639,0.74244 0.19845,0.62291 -0.13025,-0.0683 -0.14973,-0.0138 -0.0726,0.20245 0.13537,0.37914 0.37686,0.60623 0.26756,0.2516 -0.0545,-0.17685 -0.0147,-0.26713 0.11815,-0.26718 0.15227,-4e-5 0.19406,0.19834 0.17264,0.82318 -0.0156,0.45287 -0.0573,0.84816 -0.0926,0.87816 -0.1145,0.0972 -0.26401,-0.82893 -0.15744,-0.97525 0.0569,-0.0781 0.0388,-0.10786 -0.0408,-0.0662 -0.0814,0.0427 -0.32873,-0.43705 -0.56809,-1.10202 -0.23314,-0.64766 -0.46973,-1.17745 -0.52565,-1.17745 -0.056,0 -0.0702,0.12613 -0.0319,0.28031 0.0528,0.21236 0.0362,0.23501 -0.0688,0.0934 -0.0762,-0.10279 -0.16985,-0.47918 -0.20819,-0.83656 -0.0459,-0.42803 -0.0419,-0.57413 0.0496,-0.57595 z m -0.62115,0.16669 c 0.2198,0 0.27901,0.42373 0.30226,2.16366 0.0202,1.51671 -0.0673,1.96635 -0.3381,1.73661 -0.14546,-0.12341 -0.11073,-3.90027 0.0359,-3.90027 z m 2.37504,0 c 0.0855,0 0.1147,0.0561 0.0648,0.12459 -0.0499,0.0685 -0.1198,0.12458 -0.15543,0.12458 -0.0356,0 -0.0648,-0.0561 -0.0648,-0.12458 0,-0.0685 0.0699,-0.12459 0.15544,-0.12459 z m -0.0814,0.6507 c 0.009,-0.002 0.0189,0.0187 0.0295,0.0657 0.035,0.15417 0.035,0.40645 0,0.56062 -0.035,0.15417 -0.0637,0.028 -0.0637,-0.28031 0,-0.21439 0.0139,-0.34077 0.0342,-0.34601 z m -13.141561,0.96897 c 0.0808,0 0.14683,0.0841 0.14683,0.18687 0,0.10279 -0.0661,0.18688 -0.14683,0.18688 -0.0807,0 -0.14682,-0.0841 -0.14682,-0.18688 0,-0.10278 0.0661,-0.18687 0.14682,-0.18687 z m -0.53711,0.16767 c 0.014,-0.001 0.0311,0.0178 0.0502,0.0582 0.0424,0.0899 0.037,0.19731 -0.0118,0.2387 -0.0488,0.0414 -0.0835,-0.0322 -0.0771,-0.16351 0.004,-0.0862 0.0183,-0.13147 0.0388,-0.13335 z m 7.928631,0 c 0.014,-0.001 0.0311,0.0178 0.0502,0.0582 0.0424,0.0899 0.037,0.19731 -0.0118,0.2387 -0.0488,0.0414 -0.0835,-0.0322 -0.0771,-0.16351 0.004,-0.0862 0.0182,-0.13147 0.0388,-0.13335 z m -2.17917,0.23286 c 0.36907,0.003 0.6008,0.0197 0.60996,0.0406 v 2.5e-4 c 2e-5,1.1e-4 2.7e-4,4.7e-4 2.9e-4,9.4e-4 v 2.5e-4 c -2e-5,1e-4 2e-5,4.7e-4 0,9.4e-4 l -2.9e-4,2.4e-4 c -0.003,0.006 -0.0217,0.0121 -0.0593,0.0183 -0.30073,0.0491 -0.33036,0.12409 -0.33036,0.8351 0,0.71615 -0.0311,0.7933 -0.37395,0.92585 -0.20569,0.0795 -0.552571,0.13606 -0.770841,0.1258 -0.17815,-0.008 -0.27407,-0.0133 -0.28361,-0.0214 v -2.5e-4 h -2.9e-4 l -2.9e-4,-2.4e-4 v -2.4e-4 -2.5e-4 -2.4e-4 -2.4e-4 -2.5e-4 -2.4e-4 l 2.9e-4,-2.4e-4 c 0.009,-0.009 0.11602,-0.0236 0.32691,-0.0499 0.555611,-0.0693 0.656711,-0.2085 0.656711,-0.90444 0,-0.60422 -0.0916,-0.79469 -0.435891,-0.90591 -0.12113,-0.0391 0.176191,-0.0678 0.660721,-0.064 z m -5.726241,0.22241 c 0.12113,0 0.22024,0.05 0.22024,0.11119 0,0.0612 -0.0991,0.14352 -0.22024,0.18298 -0.13415,0.0437 -0.22024,2.5e-4 -0.22024,-0.1112 0,-0.10063 0.0991,-0.18297 0.22024,-0.18297 z m 7.414741,0 c 0.0808,0 0.14683,0.0841 0.14683,0.18687 0,0.10278 -0.0661,0.18687 -0.14683,0.18687 -0.0807,0 -0.14682,-0.0841 -0.14682,-0.18687 0,-0.10278 0.0661,-0.18687 0.14682,-0.18687 z m -0.50041,0.0526 c 0.0656,-2e-4 0.0456,0.0967 -0.0169,0.34406 -0.0575,0.2273 -0.19034,0.58135 -0.29537,0.78691 -0.19076,0.37333 -0.19105,0.37301 -0.20304,-0.25038 -0.01,-0.50509 0.0465,-0.65505 0.29538,-0.78692 0.1104,-0.0585 0.18058,-0.0936 0.21995,-0.0937 z m 5.10222,0.36428 c 0.014,-0.001 0.0311,0.0178 0.0502,0.0582 0.0424,0.0899 0.037,0.19731 -0.0118,0.2387 -0.0487,0.0414 -0.0835,-0.0322 -0.0772,-0.16352 0.004,-0.0862 0.0182,-0.13147 0.0388,-0.13334 z m -4.18914,0.22458 c 0.0256,3e-4 0.0531,0.002 0.0832,0.006 0.23826,0.0289 0.31172,0.12542 0.31172,0.40976 0,0.23312 -0.0822,0.38416 -0.22024,0.40465 -0.37887,0.0563 -0.56421,-0.13729 -0.48178,-0.5032 0.053,-0.23525 0.12823,-0.31945 0.30714,-0.3173 z m -8.287961,0.56305 c 0.0301,-0.003 0.0499,0.0284 0.0657,0.0917 0.0251,0.10088 0.15731,0.20844 0.29366,0.23895 0.13636,0.0306 0.0328,0.0621 -0.23028,0.0701 -0.4451,0.0134 -0.46555,-0.003 -0.29365,-0.23895 0.077,-0.10555 0.12822,-0.15847 0.16461,-0.16181 z m 7.548951,0.0501 c 0.0233,-0.002 0.0295,0.0435 0.0304,0.13773 10e-4,0.11488 0.11792,0.2346 0.25924,0.26596 0.18203,0.0403 0.19276,0.0607 0.0367,0.0696 -0.37143,0.0211 -0.58664,-0.15719 -0.43503,-0.36061 0.0545,-0.0731 0.0882,-0.1112 0.10868,-0.11266 z m 4.83266,0.74069 c 0.0962,-9.5e-4 0.21566,0.0541 0.26554,0.12263 0.11266,0.15468 0.0618,0.15468 -0.22024,0 -0.13235,-0.0726 -0.15037,-0.12169 -0.0453,-0.12263 z"
       style="display:inline;fill:#1a1a1a;stroke:none;stroke-width:1"
       id="path1-9"
       sodipodi:nodetypes="ccscccsscssccssssssssscsssssccsssssssssssssccccscsscsssscccsscsscsccsssscccsssccsscsssccccsssscssssssscscsscccccsssssssssscssssccscsscccsssscscccccccccccccsccccssssccsccsccssccssssssscscsscsscccccssscccccccccccccscscsssccccccccccccccccscccsccccccscsssscssssscccsccccscccccccccccscccsscccccsssssssssssssssssccccccsssssccccscscccssssccccsccssssscscscccsssccscsssssscccscccccccccccssccssssssssssssccssccsssssccccsccccsscsscccsscccssssssssccsssscsssscssccssscccsccccccccccccsccccsscccsccsccscssssccccssccccsssscssccssscccsccsccccssccccssscsssccccccccssccccscccssssssssscsssscccsccssssssccscccsssscssscsscsssscccsssssczscsscssscsscsccccssscssssssssscscsssssccssssccccccccccssssscscscssccscscssccccccssccccccscsscccssscssscssscccscssccscsscssssccsccssssssscssssssssccscccccsccccccsccccssscccccccccccsssccssssssssssccscsccscccssccscsccccccsccscccsssccsc"
       inkscape:label="maa" />
  </g>
  <g
     inkscape:groupmode="layer"
     id="layer7"
     inkscape:label="cut"
     transform="translate(2.263271,5.4119403)"
     style="display:none" />
</svg>
