<?xml version="1.0" encoding="UTF-8" standalone="no"?>
<!-- Created with Inkscape (http://www.inkscape.org/) -->

<svg
   width="50.200001mm"
   height="50.200001mm"
   viewBox="0 0 50.200001 50.200001"
   version="1.1"
   id="svg1"
   xml:space="preserve"
   inkscape:version="1.4.2 (ebf0e940d0, 2025-05-08)"
   sodipodi:docname="no-king.svg"
   xmlns:inkscape="http://www.inkscape.org/namespaces/inkscape"
   xmlns:sodipodi="http://sodipodi.sourceforge.net/DTD/sodipodi-0.dtd"
   xmlns="http://www.w3.org/2000/svg"
   xmlns:svg="http://www.w3.org/2000/svg"><sodipodi:namedview
     id="namedview1"
     pagecolor="#ffffff"
     bordercolor="#000000"
     borderopacity="0.25"
     inkscape:showpageshadow="2"
     inkscape:pageopacity="0.0"
     inkscape:pagecheckerboard="0"
     inkscape:deskcolor="#d1d1d1"
     inkscape:document-units="mm"
     inkscape:zoom="1.2027702"
     inkscape:cx="77.737213"
     inkscape:cy="74.827264"
     inkscape:window-width="1896"
     inkscape:window-height="1032"
     inkscape:window-x="0"
     inkscape:window-y="0"
     inkscape:window-maximized="1"
     inkscape:current-layer="layer1" /><defs
     id="defs1"><rect
       x="177.09119"
       y="332.56561"
       width="437.32379"
       height="462.2662"
       id="rect8" /></defs><g
     inkscape:label="Layer 1"
     inkscape:groupmode="layer"
     id="layer1"
     transform="translate(-84.55918,-128.66483)"><text
       xml:space="preserve"
       style="font-style:normal;font-variant:normal;font-weight:300;font-stretch:normal;font-size:4.23333px;font-family:'URW Bookman';-inkscape-font-specification:'URW Bookman, Light';font-variant-ligatures:normal;font-variant-caps:normal;font-variant-numeric:normal;font-variant-east-asian:normal;text-align:start;writing-mode:lr-tb;direction:ltr;text-anchor:start;display:inline;fill:#1a1a1a;stroke:#000000;stroke-width:0.2;stroke-linejoin:round"
       id="text1" /><path
       id="path2"
       style="opacity:0.2;fill:#ff0000;stroke-width:1"
       d="m 110.02707,133.5271 c -11.04569,0 -19.999998,8.9543 -20.000012,19.99999 -6e-6,11.0457 8.954307,20.00001 20.000012,20.00001 11.04569,-1e-5 20,-8.95432 19.99999,-20.00001 -2e-5,-6.03608 -2.67397,-11.44761 -6.90196,-15.11466 -1.12428,-0.97513 -2.35843,-1.82689 -3.68142,-2.53425 -2.80621,-1.5004 -6.01207,-2.35108 -9.41661,-2.35108 z m 1.29477,3.31362 c 0.009,1e-4 0.0162,0.003 0.0211,0.008 0.0319,0.0321 -0.0625,0.13063 -0.20991,0.21917 -0.25616,0.15384 -0.25875,0.15123 -0.0581,-0.0582 0.0974,-0.10165 0.19853,-0.1692 0.24697,-0.16859 z m -6.72195,0.18543 c 0.0956,0.003 0.12356,0.0728 0.12356,0.24734 0,0.16095 -0.0605,0.29265 -0.13462,0.29265 -0.074,0 -0.10418,-0.0793 -0.0669,-0.17624 0.0451,-0.11782 0.009,-0.1538 -0.10859,-0.1086 -0.097,0.0373 -0.17623,0.0135 -0.17623,-0.0528 0,-0.0662 0.1094,-0.14906 0.24321,-0.18404 0.0484,-0.012 0.0878,-0.0192 0.11955,-0.0183 z m 6.81232,0.0536 c 0.0669,0 0.12543,0.0958 0.1301,0.21284 0.007,0.18198 0.0237,0.17759 0.11301,-0.0305 0.10352,-0.24079 0.10459,-0.24075 0.11314,0.007 0.005,0.13713 -0.0416,0.30133 -0.10259,0.36488 -0.0673,0.07 -0.041,0.51686 0.0668,1.13366 0.0979,0.55998 0.15851,1.10724 0.13464,1.21613 -0.0239,0.10886 -0.1391,-0.31012 -0.25613,-0.93114 -0.11701,-0.62101 -0.18007,-1.23208 -0.14013,-1.35792 0.0399,-0.12583 0.0156,-0.26398 -0.054,-0.30701 -0.16131,-0.0996 -0.16465,-0.3071 -0.005,-0.3071 z m -0.23415,0.48651 c 0.0692,0.37598 0.0498,0.58366 -0.0486,0.52282 -0.0658,-0.0407 -0.0816,-0.012 -0.035,0.063 0.0466,0.0753 -0.11675,0.52615 -0.36299,1.00188 -0.32729,0.63242 -0.47788,0.82134 -0.56026,0.70272 -0.0775,-0.11153 -0.0892,-0.0785 -0.0374,0.10593 0.0457,0.16288 -0.009,0.40148 -0.14195,0.60804 -0.1983,0.31048 -0.19898,0.32562 -0.008,0.1743 0.27565,-0.21826 0.69732,-0.89966 1.01831,-1.64554 0.28337,-0.65848 0.27953,-0.66238 0.52719,0.53429 0.26934,1.30142 0.40235,1.70259 0.56448,1.70259 0.12543,0 0.1359,-0.0729 0.045,-0.31195 -0.17185,-0.45202 -0.13683,-0.53005 0.0683,-0.15222 0.13551,0.24959 0.26472,0.32382 0.54965,0.31573 0.20489,-0.005 0.30913,-0.0498 0.23164,-0.0976 -0.2277,-0.14072 -0.0776,-0.54096 0.21874,-0.58324 0.31503,-0.0449 0.31942,-0.0247 0.13144,0.60279 -0.10566,0.35274 -0.10632,0.54653 -0.003,0.7742 0.28466,0.62475 0.58622,0.34561 1.95209,-1.80688 0.41825,-0.65914 0.72913,-1.22977 0.69084,-1.26806 -0.0383,-0.0383 -0.15413,0.0358 -0.25747,0.16475 -0.18072,0.22544 -0.18301,0.22424 -0.0596,-0.0312 0.0705,-0.14611 0.13184,-0.39235 0.13603,-0.54724 l 0.008,-0.28165 0.10993,0.27364 c 0.14267,0.35494 0.40667,0.36569 0.29441,0.012 -0.066,-0.20802 -0.0427,-0.24617 0.11341,-0.18623 0.30236,0.11607 0.23273,-0.031 -0.0772,-0.16291 -0.27014,-0.11501 -0.26978,-0.11608 0.0291,-0.0874 0.41795,0.0403 0.44875,0.38229 0.0745,0.82704 -0.29874,0.35503 -0.4173,0.67447 -0.66293,1.78642 -0.0918,0.41544 -0.081,0.51685 0.0553,0.51685 0.19465,0 0.22141,0.33955 0.0478,0.60806 -0.0998,0.15442 -0.11822,0.14843 -0.11982,-0.0391 -0.001,-0.19689 -0.022,-0.20126 -0.18427,-0.0391 -0.25812,0.25813 -0.22987,0.4745 0.0504,0.38555 0.22193,-0.0704 0.22503,-0.0481 0.0666,0.47826 -0.0914,0.30367 -0.13949,0.55213 -0.10686,0.55213 0.0326,0 0.001,0.1074 -0.0685,0.23868 -0.085,0.15874 -0.19844,0.21225 -0.33873,0.15967 -0.17169,-0.0644 -0.18448,-0.0463 -0.0688,0.0964 0.16952,0.20911 0.15323,1.47348 -0.0206,1.6012 -0.0755,0.0554 -0.0645,0.09 0.0291,0.0912 0.0828,0.001 0.14534,0.12502 0.13886,0.27548 -0.0259,0.60103 0.24727,1.42552 0.85294,2.57407 l 0.63594,1.20591 -0.0283,1.32259 c -0.0242,1.1274 -0.0556,1.3121 -0.21349,1.25151 -0.16283,-0.0625 -0.16236,-0.0447 0.004,0.14698 0.51884,0.59796 0.95918,3.10885 0.68582,3.91063 -0.19801,0.58073 -0.19738,0.5802 -0.37784,0.33339 -0.13711,-0.18751 -0.18146,-0.12609 -0.37464,0.51874 -0.17131,0.57191 -0.27635,0.73958 -0.48167,0.76884 -0.19766,0.0282 -0.25276,0.10753 -0.22287,0.32093 0.0219,0.15594 -0.0247,0.66538 -0.10338,1.13209 -0.1466,0.86917 -0.0757,1.74844 0.13063,1.62089 0.0635,-0.0393 0.11554,-0.007 0.11554,0.0723 0,0.10766 0.0416,0.10913 0.16628,0.005 0.12636,-0.10499 0.20262,-0.0942 0.31781,0.0446 0.0833,0.10045 0.18701,0.16063 0.23035,0.13385 0.0433,-0.0268 0.68018,0.021 1.41517,0.10606 1.19204,0.13808 2.88527,0.63592 3.09974,0.91138 0.0334,0.043 0.32065,0.23996 0.63825,0.43773 l 0.57744,0.35959 2e-4,2.52345 c 2e-4,2.06896 -0.0302,2.52346 -0.16823,2.52346 -0.0927,0 -0.2619,-0.14267 -0.37615,-0.31704 -0.25077,-0.38271 -0.5332,-0.22781 -0.31796,0.1744 0.0731,0.13655 0.13291,0.27923 0.13291,0.31707 l -4e-5,2e-5 c 0,0.0378 -1.13642,0.0688 -2.5254,0.0688 h -2.52543 l -0.37344,-0.57768 c -0.7743,-1.19773 -1.42537,-2.62437 -1.41203,-3.09406 0.0183,-0.6453 -0.28311,-0.51479 -0.68938,0.29842 -0.10819,0.21659 -0.36092,0.47795 -0.56157,0.58081 -0.20067,0.10286 -0.59632,0.33541 -0.87926,0.51683 -0.28294,0.18141 -0.57026,0.32984 -0.63847,0.32984 -0.0683,0 -0.12396,0.0483 -0.12396,0.10739 0,0.059 -0.0958,0.13877 -0.21284,0.17706 -0.11701,0.0383 -0.51381,0.1852 -0.88169,0.32648 -0.81633,0.3135 -1.87419,0.60517 -2.19495,0.60517 -0.13051,0 -0.23733,0.0779 -0.23733,0.173 0,0.17947 -0.60923,0.41866 -1.03369,0.40584 -0.27972,-0.008 -0.81883,-0.38836 -0.70815,-0.49903 0.0407,-0.0407 -0.0295,-0.11233 -0.15612,-0.15911 -0.2874,-0.10606 -0.77678,-0.61375 -0.7796,-0.80868 -0.003,-0.21519 -0.51934,-0.6666 -0.86015,-0.75214 -0.29317,-0.0736 -0.84033,-0.73282 -0.84033,-1.01247 0,-0.0795 -0.0991,-0.14448 -0.22035,-0.14448 -0.26382,0 -0.81582,-0.68834 -0.60764,-0.75774 0.0782,-0.026 -0.0124,-0.18638 -0.20767,-0.36743 -0.19051,-0.17665 -0.39113,-0.29353 -0.44584,-0.25972 -0.0547,0.0338 -0.0995,-0.0271 -0.0995,-0.13527 0,-0.1082 0.0547,-0.16296 0.12161,-0.12155 0.0669,0.0413 0.1216,0.0155 0.1216,-0.0574 0,-0.0729 -0.0818,-0.16399 -0.18172,-0.20234 -0.0999,-0.0383 -0.15253,-0.11688 -0.11687,-0.17462 0.0357,-0.0577 -0.044,-0.17284 -0.17693,-0.25588 -0.19473,-0.12155 -0.21341,-0.18608 -0.096,-0.33136 0.0977,-0.12088 0.10026,-0.15303 0.008,-0.0975 -0.076,0.0455 -0.1893,0.015 -0.25172,-0.0679 -0.14783,-0.19629 -0.4285,-1.09084 -0.391,-1.24624 0.016,-0.0663 -0.003,-0.20265 -0.0412,-0.30298 -0.14883,-0.38648 -0.17038,-0.84494 -0.0419,-0.89144 0.22535,-0.0816 0.54733,0.14938 0.7472,0.53589 0.2049,0.39625 0.44655,0.71941 0.8769,1.17282 0.1505,0.15856 0.27361,0.33204 0.27361,0.38548 0,0.0534 0.13677,0.25616 0.30389,0.45051 0.16715,0.19434 0.30398,0.31479 0.30403,0.26767 7e-5,-0.0471 0.13743,0.0516 0.30521,0.21937 0.16777,0.16777 0.35196,0.27607 0.40927,0.24065 0.11274,-0.0697 1.12814,0.87721 2.23038,2.07978 0.6392,0.69739 0.71349,0.74347 1.03071,0.63959 0.67731,-0.22182 0.80537,-0.27633 1.29956,-0.55316 0.2759,-0.15455 0.76159,-0.39935 1.0793,-0.54404 0.31772,-0.14469 0.57767,-0.31106 0.57767,-0.36971 0,-0.0586 0.0723,-0.10659 0.16046,-0.10659 0.0883,0 0.45762,-0.21623 0.82086,-0.48051 0.36323,-0.26428 0.79039,-0.57294 0.94921,-0.68596 0.25355,-0.18041 0.26466,-0.21894 0.0912,-0.31601 -0.10873,-0.0608 -0.19754,-0.21406 -0.19754,-0.34056 0,-0.1265 -0.0545,-0.26373 -0.12116,-0.30493 -0.13954,-0.0863 0.15175,-0.72266 0.4009,-0.87591 0.213,-0.13104 0.64134,-0.76274 0.74623,-1.10055 0.0752,-0.24208 0.0426,-0.27365 -0.28205,-0.27365 -0.20184,0 -0.41075,0.0741 -0.46423,0.16469 -0.0534,0.0906 -0.2122,0.2249 -0.35267,0.29854 -0.21628,0.1134 -0.29538,0.0841 -0.51682,-0.19104 -0.14381,-0.17872 -0.26185,-0.38148 -0.26241,-0.45058 -10e-4,-0.14912 -0.56681,-0.42965 -0.86641,-0.42965 -0.22428,0 -0.41539,0.40187 -0.28864,0.60698 0.17414,0.28176 -0.0912,0.36033 -0.4219,0.12489 -0.18956,-0.13499 -0.46008,-0.24545 -0.60116,-0.24545 -0.27636,0 -0.71932,-0.21563 -0.91967,-0.44771 -0.0682,-0.0791 -0.28821,-0.17202 -0.48888,-0.20664 -0.20066,-0.0346 -0.48797,-0.0995 -0.63846,-0.1441 -0.19598,-0.0581 -0.27361,-0.0307 -0.27361,0.0966 0,0.35035 -0.43338,0.59775 -0.9556,0.54552 -0.27201,-0.0272 -0.56506,-0.10339 -0.65119,-0.16918 -0.27659,-0.21143 -0.93496,-0.0846 -1.26283,0.24328 -0.23782,0.23781 -0.37289,0.28789 -0.57519,0.21322 -0.14541,-0.0537 -0.28366,-0.19546 -0.30723,-0.31504 -0.0235,-0.11955 -0.18888,-0.34028 -0.36737,-0.49047 -0.17849,-0.15019 -0.45627,-0.53684 -0.61728,-0.85923 -0.17794,-0.35629 -0.31432,-0.51624 -0.34777,-0.40787 -0.10782,0.34933 -0.43097,0.60393 -0.76658,0.60393 -0.32528,0 -0.35764,-0.0546 -0.71168,-1.20196 -0.204,-0.66108 -0.44289,-1.26168 -0.53088,-1.33471 -0.12572,-0.10432 -0.132052,-0.25374 -0.0296,-0.69765 l 0.13042,-0.56489 0.13093,0.46482 0.13097,0.4648 0.17236,-0.38941 c 0.0948,-0.21418 0.24109,-0.38941 0.32509,-0.38941 0.084,0 0.15273,-0.13577 0.15273,-0.30172 0,-0.21745 -0.0819,-0.32225 -0.29324,-0.37529 l -0.29328,-0.0736 0.29328,-0.43214 c 0.16129,-0.23767 0.29745,-0.49289 0.30259,-0.56716 0.0704,-1.01525 0.0411,-1.07883 -0.32829,-0.7127 -0.20448,0.20268 -0.21085,0.20268 -0.1341,0 0.054,-0.14266 0.0217,-0.21283 -0.098,-0.21283 -0.23304,0 -0.2308,-0.23083 0.003,-0.32059 0.0999,-0.0383 0.14346,-0.13171 0.0967,-0.20728 -0.11473,-0.18563 -0.0417,-0.95685 0.10778,-1.13849 0.0662,-0.0804 0.088,-0.24801 0.0485,-0.37247 -0.0743,-0.23401 0.61785,-1.34673 0.83012,-1.33457 0.1538,0.009 0.70303,-0.53671 0.62197,-0.61778 -0.0367,-0.0366 -0.13144,-0.001 -0.21058,0.0773 -0.16488,0.16489 -0.70334,0.19585 -0.70334,0.0405 0,-0.22248 0.29015,-0.93505 0.41517,-1.01962 0.24133,-0.16323 0.43614,-0.0962 0.43614,0.15016 0,0.29013 0.0467,0.29794 0.3995,0.0667 0.2659,-0.17428 0.26924,-0.16884 0.25921,0.42563 -0.006,0.3312 0.005,0.60219 0.0228,0.60219 0.0181,0 0.17977,-0.26972 0.35918,-0.59937 0.19714,-0.36221 0.45275,-0.64745 0.64606,-0.72094 0.73726,-0.28029 5.81727,-0.37367 8.19897,-0.15069 0.94957,0.0888 1.12404,0.14445 1.56401,0.49802 0.45009,0.36171 0.48724,0.37293 0.40793,0.12303 -0.0565,-0.17787 -0.0305,-0.31006 0.0736,-0.37439 0.2729,-0.16865 -0.40819,-0.34646 -1.87632,-0.48987 -1.71229,-0.16723 -9.19216,-0.26879 -9.37303,-0.1273 -0.0741,0.058 -0.40832,0.13645 -0.74276,0.17433 -0.33443,0.0379 -0.71753,0.10459 -0.85131,0.14826 -0.23116,0.0755 -0.23234,0.0704 -0.0239,-0.10072 0.14876,-0.12222 0.17191,-0.19583 0.072,-0.22913 -0.0955,-0.0318 -0.11833,-0.16435 -0.0649,-0.37715 0.0941,-0.37471 0.32093,-0.44367 0.32093,-0.0975 0,0.18054 0.1067,0.24064 0.49276,0.27745 0.27102,0.0258 0.51886,0.0208 0.55077,-0.0107 0.0956,-0.0956 0.40933,-0.12943 1.8736,-0.20172 1.40954,-0.0696 1.97458,-0.17354 0.94386,-0.17354 -0.78597,0 -0.95581,-0.0862 -0.86704,-0.43988 0.0405,-0.1611 0.0107,-0.36945 -0.0676,-0.46297 -0.18895,-0.22766 -0.019,-0.32501 0.90444,-0.51803 0.70255,-0.14685 0.67009,-0.15107 -0.87294,-0.11327 -0.88143,0.0215 -1.66845,-10e-4 -1.74892,-0.0512 -0.22537,-0.13929 0.51386,-0.22013 2.64736,-0.2895 0.34846,-0.0107 0.67226,-0.0593 0.71954,-0.10659 0.0848,-0.0848 -0.30002,-0.13451 -0.71465,-0.0923 -0.12115,0.012 -0.21281,-0.0602 -0.21281,-0.16842 0,-0.23047 0.55829,-0.26319 0.64913,-0.0381 0.0366,0.0908 0.0652,0.0662 0.0709,-0.0608 0.012,-0.25876 0.25284,-0.28775 0.25284,-0.0305 0,0.12743 0.12837,0.18242 0.42564,0.18242 0.2341,0 0.42566,-0.0516 0.42566,-0.11448 0,-0.17263 -0.21622,-0.27086 -0.29951,-0.13607 -0.0967,0.1565 -0.43018,0.0234 -0.43018,-0.17176 0,-0.10713 -0.16443,-0.13932 -0.54724,-0.1074 -0.45803,0.0382 -0.54757,0.0107 -0.54913,-0.16838 -0.001,-0.17948 -0.0202,-0.18512 -0.11527,-0.0347 -0.0723,0.11421 -0.0675,0.20754 0.0134,0.25733 0.0844,0.0521 0.0725,0.16438 -0.0357,0.33765 -0.14128,0.22622 -0.28317,0.26146 -1.10573,0.27471 -1.6875,0.0273 -1.79414,0.0191 -1.57637,-0.11901 0.12602,-0.0799 0.11989,-0.13144 -0.0304,-0.25622 -0.22493,-0.18668 -0.25212,-0.53297 -0.0362,-0.4605 0.0836,0.028 0.15246,0.14613 0.15295,0.2624 5e-4,0.11621 0.0927,0.26276 0.20478,0.3255 0.18103,0.10138 0.19115,0.0697 0.0903,-0.28189 -0.0625,-0.21778 -0.11359,-0.41002 -0.11359,-0.42718 0,-0.0172 -0.0853,-0.0313 -0.18959,-0.0313 -0.10428,0 -0.15963,-0.0485 -0.12297,-0.10779 0.0367,-0.0593 -0.0218,-0.18122 -0.12986,-0.27092 -0.10807,-0.0896 -0.60329,-0.75141 -1.10046,-1.47046 -1.09552,-1.58444 -1.193271,-1.66499 -1.150538,-0.94788 0.0074,0.12235 -0.01135,0.13237 -0.05656,0.0303 -0.03707,-0.0836 -0.158608,-0.14767 -0.270087,-0.14239 -0.126402,0.005 -0.145454,0.0327 -0.05065,0.0709 0.210574,0.0849 0.190753,0.24376 -0.03041,0.24376 -0.100328,0 -0.182416,-0.10032 -0.182416,-0.22295 0,-0.14189 0.08844,-0.22297 0.243221,-0.22297 0.275522,0 0.291835,-0.0468 0.124879,-0.35877 -0.09386,-0.17539 -0.075,-0.2178 0.09119,-0.20483 0.150196,0.012 0.201031,-0.0632 0.179371,-0.26435 -0.01743,-0.16193 0.0211,-0.24893 0.0912,-0.20564 0.0668,0.0413 0.12145,0.18931 0.12145,0.32896 0,0.13966 0.18225,0.47848 0.40501,0.75292 0.22277,0.27443 0.71496,0.94347 1.09377,1.48675 0.80295,1.15159 0.95123,1.29428 1.23295,1.18618 0.163,-0.0625 0.19948,-0.19621 0.16655,-0.61019 -0.024,-0.30126 0.0107,-0.53167 0.0803,-0.53376 0.0674,-0.003 0.0267,-0.0594 -0.0903,-0.1277 -0.26395,-0.15373 -0.27968,-0.47673 -0.0232,-0.47673 0.10428,0 0.15575,0.0548 0.1144,0.12155 -0.0413,0.0669 -0.0255,0.12156 0.0352,0.12156 0.0607,0 0.11334,0.30121 0.11702,0.66934 0.005,0.54674 -0.0419,0.70821 -0.25867,0.88169 -0.14594,0.11674 -0.2461,0.30814 -0.22254,0.42519 0.044,0.21871 0.26821,0.30222 0.26821,0.0999 0,-0.0621 0.0958,-0.20871 0.21284,-0.32576 0.11701,-0.11702 0.21727,-0.24411 0.22273,-0.28233 0.0238,-0.16713 0.21124,-0.80821 0.26294,-0.89952 0.0313,-0.0552 0.18793,0.0228 0.34815,0.17332 l 0.2913,0.27366 -0.0445,-0.38246 c -0.0508,-0.43619 0.20289,-0.87536 0.50724,-0.87811 0.17234,-0.001 0.17715,-0.02 0.0294,-0.11354 -0.0971,-0.0614 -0.22028,-0.0848 -0.27365,-0.0518 -0.0534,0.033 -0.097,-0.27161 -0.097,-0.6769 0,-0.80131 0.11688,-0.9236 0.3847,-0.4024 0.38905,0.75722 1.23026,1.97049 1.47943,2.13376 0.16082,0.10539 -0.13366,-0.43466 -0.74131,-1.35951 -0.55446,-0.84388 -1.0613,-1.55258 -1.12628,-1.57487 -0.0649,-0.0223 -0.12529,0.19659 -0.13414,0.48644 l -0.016,0.527 -0.0821,-0.42566 c -0.0452,-0.2341 -0.0379,-0.47762 0.016,-0.54117 0.054,-0.0636 0.0982,-0.21404 0.0982,-0.33444 0,-0.40792 0.2521,-0.2216 0.70454,0.52074 1.68587,2.76602 2.26633,3.46194 2.6334,3.1573 0.0962,-0.0798 0.19162,-0.31883 0.2122,-0.53123 0.0415,-0.42858 0.4023,-0.55677 0.4023,-0.14295 0,0.13377 -0.0684,0.22952 -0.15203,0.2128 -0.23612,-0.0472 -0.18102,0.0442 0.16212,0.26907 0.2972,0.19474 0.32341,0.19387 0.48602,-0.0164 0.51384,-0.6644 1.09588,-1.61894 1.63353,-2.67886 0.33251,-0.65549 0.60958,-1.16441 0.61573,-1.13096 z m 5.25478,1.74225 c 0.0894,0.003 0.186,0.0418 0.26641,0.12223 0.10205,0.10205 0.18552,0.22111 0.18552,0.26462 0,0.0435 -0.24626,0.32536 -0.54724,0.62636 -0.52266,0.52266 -0.74549,0.50033 -0.36915,-0.037 0.0979,-0.13987 0.13903,-0.29564 0.0912,-0.34619 -0.0478,-0.0505 0.0362,-0.0541 0.1867,-0.008 0.20831,0.064 0.27364,0.0355 0.27364,-0.11955 0,-0.13103 -0.065,-0.17864 -0.18241,-0.13359 -0.1122,0.043 -0.18242,-3e-4 -0.18242,-0.11247 0,-0.16714 0.12877,-0.26164 0.27773,-0.25667 z m -1.33124,0.49308 c 0.0329,8e-4 0.0365,0.0486 0.005,0.1297 -0.0808,0.21069 -0.16802,0.24925 -0.16802,0.0743 0,-0.0629 0.0541,-0.14789 0.12022,-0.18875 0.0172,-0.0107 0.0315,-0.0156 0.0425,-0.0154 z m -15.354201,0.0799 c 0.01966,4e-4 0.09409,0.0468 0.233197,0.1343 0.167214,0.10525 0.369504,0.32 0.449484,0.47718 0.08,0.15718 0.26041,0.32832 0.40093,0.38031 0.14053,0.052 0.31303,0.2595 0.38333,0.46116 0.0703,0.20165 0.17717,0.36665 0.23751,0.36665 0.0604,0 0.10972,0.082 0.10972,0.18241 0,0.10031 -0.0722,0.18241 -0.16034,0.18241 -0.0882,0 -0.24092,0.17009 -0.33936,0.37796 l -0.17899,0.37794 -0.14709,-0.32287 c -0.16126,-0.35393 -0.2016,-0.89285 -0.0559,-0.74718 0.0502,0.0502 0.0981,0.19611 0.10642,0.3243 0.0331,0.50818 0.0651,0.52146 0.2685,0.11153 0.15895,-0.32032 0.1799,-0.48584 0.0847,-0.66889 -0.27583,-0.53044 -0.31974,-0.56696 -0.50085,-0.41666 -0.13971,0.11595 -0.20771,0.0549 -0.36613,-0.32854 -0.10699,-0.25901 -0.284854,-0.5785 -0.395247,-0.71 -0.104082,-0.12396 -0.152167,-0.18244 -0.129888,-0.18197 z m 5.156641,0.73258 c -0.094,-0.001 -0.18024,0.0596 -0.22834,0.18485 -0.12316,0.32089 -0.0859,0.41901 0.19983,0.52645 0.34308,0.12903 0.52237,-0.12436 0.3353,-0.47395 -0.0832,-0.15555 -0.20014,-0.23611 -0.30679,-0.23735 z m 6.46037,0.23573 c -0.28903,0 -0.50202,0.28552 -0.37105,0.49742 0.1118,0.18089 0.50864,0.12569 0.58825,-0.0817 0.12716,-0.33125 0.0829,-0.41568 -0.2172,-0.41568 z m 3.0657,0.0234 c 0.012,0 0.018,0.012 0.0179,0.0375 -5e-4,0.0669 -0.11274,0.25843 -0.24953,0.42565 -0.16518,0.20194 -0.20647,0.22235 -0.12303,0.0608 0.16497,-0.31921 0.30624,-0.52395 0.35465,-0.52394 z m -4.76889,0.25047 c -0.019,2e-4 -0.061,0.0305 -0.13117,0.0887 -0.10192,0.0846 -0.18522,0.17438 -0.18522,0.19964 0,0.13625 0.2284,0.0167 0.29382,-0.15372 0.035,-0.0912 0.0455,-0.13488 0.0226,-0.13464 z m -4.01844,0.0911 c -0.0295,0 -0.0875,0.0548 -0.12877,0.12156 -0.0414,0.0669 -0.0172,0.12155 0.0536,0.12155 0.0708,0 0.12876,-0.0548 0.12876,-0.12155 0,-0.0669 -0.0242,-0.12156 -0.0536,-0.12156 z m 9.62655,0.1293 c -0.0417,-8e-4 -0.12623,0.0787 -0.28109,0.25281 -0.23085,0.25952 -0.2307,0.25985 0.0419,0.0923 0.1505,-0.0924 0.27361,-0.20965 0.27361,-0.26045 0,-0.055 -0.009,-0.0843 -0.0345,-0.0847 z m -9.3317,0.32499 c -0.0903,-0.004 -0.11273,0.0763 0.0107,0.22546 0.0783,0.0944 0.22737,0.17157 0.33121,0.17157 0.15453,0 0.14632,-0.0413 -0.0453,-0.22764 -0.11541,-0.11221 -0.22665,-0.1663 -0.2969,-0.16939 z m 0.64946,0.0669 c -0.0158,0.001 -0.0263,0.0406 -0.0298,0.11728 -0.007,0.14924 0.0825,0.2128 0.2987,0.2128 0.26647,0 0.29134,0.0318 0.18321,0.23381 -0.0984,0.18397 -0.067,0.29929 0.14775,0.5414 0.15006,0.1692 0.29109,0.25555 0.31338,0.19187 0.058,-0.16563 0.3851,-0.14346 0.3851,0.026 0,0.25618 0.15341,-0.005 0.188,-0.32033 0.0339,-0.30858 -0.10779,-0.41465 -0.24881,-0.18637 -0.10766,0.17411 -0.54461,0.15043 -0.56129,-0.0305 -0.008,-0.0836 -0.0214,-0.23409 -0.0305,-0.33442 -0.009,-0.10031 0.0657,-0.22406 0.16605,-0.27494 0.10031,-0.0509 -0.0178,-0.063 -0.26238,-0.027 -0.29893,0.0441 -0.46526,0.0146 -0.50725,-0.0899 -0.0164,-0.0409 -0.0307,-0.0606 -0.0422,-0.06 z m -1.92141,0.005 c -0.0379,-0.001 -0.0638,0.0251 -0.0638,0.0737 0,0.0708 0.0548,0.12876 0.12155,0.12876 0.0669,0 0.12156,-0.024 0.12156,-0.0536 0,-0.0295 -0.0548,-0.0875 -0.12156,-0.12877 -0.0208,-0.0134 -0.0406,-0.0194 -0.0578,-0.0202 z m 4.65114,0.0301 c -0.027,0.001 -0.0606,0.007 -0.10138,0.0178 -0.12796,0.0335 -0.20279,0.1094 -0.16615,0.16865 0.099,0.16008 0.26071,0.13064 0.33419,-0.0609 0.0339,-0.0886 0.0142,-0.1289 -0.0667,-0.12556 z m -5.13083,0.12703 c -0.0391,0.001 -0.0804,0.007 -0.12169,0.014 -0.23237,0.0445 -0.30857,0.14375 -0.33733,0.43972 -0.0306,0.31553 -0.0956,0.38909 -0.37159,0.42085 -0.18394,0.0211 -0.33444,0.086 -0.33444,0.14397 0,0.13861 0.6569,0.0195 0.70936,-0.12863 0.0223,-0.0629 0.15759,-0.0323 0.3007,0.068 0.32058,0.22454 0.5257,0.23224 0.60608,0.0227 0.044,-0.11434 -0.0343,-0.14546 -0.27662,-0.10993 -0.1858,0.0272 -0.3752,-0.0107 -0.42088,-0.0848 -0.14096,-0.22806 0.0566,-0.61868 0.31287,-0.61868 0.13318,0 0.21292,-0.0474 0.17712,-0.10526 -0.0268,-0.0434 -0.12596,-0.0665 -0.24357,-0.062 z m 4.08991,0.0541 c -0.54516,-0.007 -0.61937,0.0174 -0.48648,0.16168 0.10886,0.11808 0.20293,0.13251 0.3074,0.0471 0.18847,-0.15409 0.33185,0.16045 0.23753,0.52112 -0.0513,0.19632 -0.031,0.2202 0.0971,0.11394 0.19652,-0.16308 0.36745,0.041 0.22831,0.2726 -0.0728,0.12129 -0.0536,0.12142 0.0952,10e-4 0.10258,-0.0831 0.22122,-0.11621 0.26362,-0.0739 0.0423,0.0423 0.1694,8e-4 0.28223,-0.0923 0.15932,-0.13157 0.21655,-0.1354 0.25629,-0.0174 0.0679,0.20151 0.6429,0.18739 0.91985,-0.0226 0.28186,-0.2137 0.0572,-0.37113 -0.27558,-0.19307 -0.25005,0.13383 -0.73499,-0.0529 -0.73499,-0.28309 0,-0.0582 -0.10419,0.0228 -0.23161,0.1802 -0.22678,0.28006 -0.23688,0.2813 -0.48166,0.0598 -0.28117,-0.25446 -0.28695,-0.46138 -0.0164,-0.58397 0.10032,-0.0454 -0.10699,-0.0866 -0.46084,-0.0912 z m 6.09553,0.16697 c -0.0222,-0.001 -0.0544,0.005 -0.095,0.0214 -0.10379,0.0398 -0.18873,0.0939 -0.18873,0.12022 0,0.0985 0.23175,0.0431 0.30318,-0.0724 0.0266,-0.0431 0.0175,-0.0672 -0.0195,-0.0691 z m -3.98996,0.10833 c -0.0379,-10e-4 -0.0638,0.0251 -0.0638,0.0737 0,0.0708 0.0548,0.12877 0.12169,0.12877 0.0669,0 0.12168,-0.0242 0.12168,-0.0537 0,-0.0295 -0.0548,-0.0875 -0.12168,-0.12876 -0.0208,-0.0134 -0.0406,-0.0195 -0.0578,-0.0202 z m -8.8528,0.081 c 0.13046,0 0.1492,0.0443 0.0641,0.15199 -0.0661,0.0836 -0.14488,0.23142 -0.17506,0.32845 -0.037,0.11915 -0.082,0.13251 -0.13832,0.0414 -0.12117,-0.19605 0.0344,-0.52184 0.24925,-0.52184 z m 9.61532,0.44263 c -0.28044,0.008 -0.42362,0.19237 -0.12262,0.30213 0.11461,0.0418 0.31782,0.0186 0.45159,-0.0516 0.22745,-0.11928 0.21987,-0.13374 -0.11674,-0.22422 -0.0756,-0.0203 -0.14758,-0.0281 -0.21229,-0.0263 z m -9.26479,0.0904 c 0.0145,-5e-4 0.0305,0.004 0.0472,0.0142 0.0669,0.0413 0.12161,0.12663 0.12161,0.1896 0,0.0629 -0.0547,0.11447 -0.12161,0.11447 -0.0669,0 -0.12165,-0.0854 -0.12165,-0.18958 0,-0.0781 0.0308,-0.12676 0.0744,-0.12863 z m 13.13359,0.0751 c -0.0263,0 -0.0792,0.082 -0.11781,0.18241 -0.0385,0.10032 -0.017,0.18243 0.0478,0.18243 0.0648,0 0.11781,-0.082 0.11781,-0.18243 0,-0.10031 -0.0215,-0.18241 -0.0478,-0.18241 z m -14.0242,0.0675 c 0.0727,5e-5 0.14958,0.0179 0.20291,0.0509 0.10527,0.065 0.11889,0.16064 0.0424,0.29737 -0.10313,0.1843 -0.1307,0.18166 -0.32341,-0.0313 -0.17095,-0.1889 -0.17894,-0.24499 -0.0424,-0.29741 0.0347,-0.0134 0.0769,-0.0196 0.1205,-0.0196 z m 13.4103,0.0541 c -0.0295,0 -0.0875,0.0548 -0.12876,0.12155 -0.0413,0.0669 -0.0172,0.12155 0.0537,0.12155 0.0708,0 0.12877,-0.0548 0.12877,-0.12155 0,-0.0669 -0.0242,-0.12155 -0.0537,-0.12155 z m -2.27113,0.1914 c -0.0648,0.003 -0.10753,0.0252 -0.10753,0.0632 0,0.0606 0.10953,0.1102 0.24325,0.1102 0.13378,0 0.24323,-0.021 0.24323,-0.0466 0,-0.0256 -0.1094,-0.0752 -0.24323,-0.1102 -0.0502,-0.0134 -0.097,-0.0183 -0.13575,-0.0166 z m -10.34718,0.33739 c 0.0617,2e-4 0.10523,0.0395 0.10518,0.10446 -6e-5,0.0864 -0.15511,0.16873 -0.34456,0.18277 -0.18945,0.014 -0.34447,-0.027 -0.34447,-0.0912 0,-0.0641 0.0776,-0.11675 0.17249,-0.11675 0.0949,0 0.24991,-0.0297 0.34456,-0.066 0.0237,-0.009 0.0462,-0.0134 0.0668,-0.0134 z m -0.1821,0.37701 c 0.0394,-2e-5 0.0528,0.0203 0.0295,0.0581 -0.0373,0.0604 9e-4,0.13757 0.0849,0.17143 0.1214,0.0489 0.12157,0.0636 8e-4,0.0712 -0.0836,0.005 -0.15203,0.12222 -0.15203,0.26 0,0.13771 0.0547,0.21658 0.12161,0.17525 0.0669,-0.0413 0.1216,-0.0172 0.1216,0.0537 h 4e-5 c 0,0.0708 -0.13302,0.12876 -0.29556,0.12876 -0.26887,0 -0.28635,-0.0321 -0.19355,-0.35569 0.0561,-0.19562 0.0773,-0.38039 0.0471,-0.4106 -0.0302,-0.0302 0.0323,-0.0884 0.13902,-0.12943 0.04,-0.0154 0.073,-0.0227 0.0966,-0.0227 z m 11.29903,0.14905 c -0.0425,10e-4 -0.0891,0.005 -0.13794,0.012 -0.44283,0.065 -0.71352,0.59397 -0.50415,0.9852 0.11915,0.22259 0.09,0.26293 -0.26343,0.36492 -0.37751,0.109 -0.36546,0.11528 0.24111,0.1257 0.67165,0.012 0.83318,-0.0107 0.80173,-0.11074 -0.0107,-0.0334 -0.0379,-0.17025 -0.0608,-0.30402 -0.023,-0.13378 -0.0928,-0.28008 -0.15546,-0.32515 -0.16011,-0.11528 0.15561,-0.46532 0.41971,-0.46532 0.40666,0 0.57927,0.75659 0.24817,1.08771 -0.23238,0.23237 -0.23199,0.23568 0.0311,0.2868 0.88264,0.17153 1.73232,-0.005 1.05662,-0.21921 -0.15542,-0.0493 -0.24321,-0.18399 -0.24321,-0.37302 0,-0.21475 0.0666,-0.29583 0.24321,-0.29583 0.13377,0 0.24323,-0.0735 0.24323,-0.16318 0,-0.18815 -0.76257,-0.44488 -1.32145,-0.44488 -0.20963,0 -0.38114,-0.0453 -0.38114,-0.10058 0,-0.0414 -0.0899,-0.0641 -0.21727,-0.0608 z m -9.52184,0.17629 c 0.0422,0.001 0.0785,0.0134 0.0987,0.0331 0.0403,0.0403 -0.0314,0.0692 -0.15962,0.0639 -0.14167,-0.005 -0.1705,-0.0346 -0.0735,-0.0735 0.0439,-0.0175 0.0921,-0.0252 0.13433,-0.0235 z m 4.87174,0.1066 c -0.23647,0 -0.3608,0.2098 -0.27024,0.45605 0.0695,0.18885 0.30174,0.19634 0.4825,0.0156 0.18595,-0.18595 0.0574,-0.47164 -0.21226,-0.47164 z m 0.003,0.12155 c 0.0669,0 0.12155,0.0548 0.12155,0.12155 0,0.0669 -0.0548,0.12156 -0.12155,0.12156 -0.0669,0 -0.12155,-0.0548 -0.12155,-0.12156 0,-0.0669 0.0548,-0.12155 0.12155,-0.12155 z m -1.26355,0.0473 c -0.0382,6e-5 -0.09,0.0629 -0.12717,0.16035 -0.066,0.17333 -0.0521,0.18727 0.0681,0.0681 0.0831,-0.0825 0.12048,-0.18063 0.0831,-0.21807 -0.007,-0.007 -0.0151,-0.0107 -0.0239,-0.0107 z m 6.25348,0.0744 c -0.15706,0 -0.2198,0.0628 -0.18241,0.18241 l 0.11394,0.36483 c 0.0314,0.10031 0.1134,0.18241 0.18242,0.18241 0.18082,0 0.15506,-0.36296 -0.0266,-0.37444 -0.12155,-0.008 -0.12155,-0.0219 0,-0.0709 0.23675,-0.0955 0.1787,-0.28428 -0.0874,-0.28428 z m -8.00443,0.0819 c -0.0451,3e-4 -0.0254,0.076 0.0934,0.21914 0.0846,0.10192 0.20184,0.18538 0.26054,0.18538 0.0586,0 0.0107,-0.10032 -0.10606,-0.22295 -0.11754,-0.12316 -0.20797,-0.18179 -0.24782,-0.18157 z m 8.77323,0.20326 c 0.0107,2e-4 0.025,0.019 0.0402,0.0569 0.0351,0.0878 0.0309,0.1927 -0.009,0.2331 -0.0403,0.0405 -0.0692,-0.0314 -0.0639,-0.15961 0.004,-0.0863 0.0156,-0.13077 0.0334,-0.13037 z m -10.43588,0.007 c 0.015,2e-4 0.0271,0.004 0.0354,0.012 0.0445,0.0445 -0.0252,0.15851 -0.15498,0.25338 -0.35396,0.25881 -0.46765,0.20752 -0.17925,-0.081 0.11322,-0.11327 0.23375,-0.18569 0.29883,-0.18503 z m -1.8359,0.11234 c 0.0327,3e-4 0.0774,0.0546 0.10956,0.13842 0.0822,0.21429 0.0122,0.25197 -0.10778,0.058 -0.0441,-0.0713 -0.0541,-0.15577 -0.0222,-0.18766 0.006,-0.005 0.0128,-0.009 0.0204,-0.009 z m -0.53332,2.87995 c 0.0708,0 0.095,0.0548 0.0536,0.12155 -0.0413,0.0669 -0.0993,0.12156 -0.12878,0.12156 -0.0295,0 -0.0536,-0.0548 -0.0536,-0.12156 0,-0.0669 0.058,-0.12155 0.12878,-0.12155 z m 8.30422,0.53073 c -0.20532,0.003 -0.37957,0.0134 -0.48933,0.0326 -0.47319,0.084 -0.57008,0.29606 -0.33834,0.74032 0.097,0.18601 0.17672,0.42948 0.17714,0.54107 5e-4,0.11153 0.0338,0.28903 0.0743,0.39435 0.0906,0.23597 0.56729,0.15226 1.04653,-0.18377 0.18124,-0.12703 0.42748,-0.23752 0.54725,-0.24544 0.11981,-0.008 0.0566,-0.0489 -0.1402,-0.0912 -0.68405,-0.14681 -0.37254,-0.40099 0.69237,-0.56491 0.49533,-0.0763 0.61937,-0.35579 0.21483,-0.48418 -0.27292,-0.0867 -1.16853,-0.14694 -1.78448,-0.13877 z m -3.76314,0.0787 c -0.53096,-0.009 -0.91487,0.0752 -1.99097,0.43786 -0.33982,0.11447 0.13933,0.28663 0.8035,0.2886 0.6394,0.001 1.68624,0.3339 1.19972,0.38047 -0.13378,0.0134 -0.29795,0.0359 -0.36483,0.0516 -0.0669,0.0155 -0.20373,0.0424 -0.30406,0.0596 -0.10032,0.0172 0.0322,0.0645 0.29453,0.10525 0.26233,0.0407 0.50204,0.15009 0.53272,0.24316 0.0416,0.12583 -0.0287,0.15311 -0.27385,0.1062 -0.30961,-0.0592 -0.69048,-0.005 -1.40469,0.19985 l -0.30401,0.0872 0.30401,-0.26215 c 0.22203,-0.19145 0.24395,-0.24273 0.0812,-0.19006 -0.12249,0.0397 -0.26122,0.0721 -0.30821,0.0721 -0.047,0 -0.17936,0.15898 -0.29414,0.35329 l -0.20867,0.35325 0.45608,-0.0466 c 0.25085,-0.0256 0.88022,-0.0799 1.39858,-0.12048 0.67305,-0.0528 0.94251,-0.12075 0.94251,-0.2378 0,-0.0902 0.14905,-0.18131 0.33124,-0.20246 0.27046,-0.0314 0.36635,-0.13887 0.52273,-0.58573 0.28184,-0.80539 0.1969,-1.06726 -0.34885,-1.0756 -0.24438,-0.004 -0.72346,-0.012 -1.06461,-0.0175 z m 5.41388,1.22977 c -0.0422,-0.001 -0.0904,0.005 -0.13429,0.0235 -0.097,0.0389 -0.0683,0.0676 0.0735,0.0735 0.12823,0.005 0.20006,-0.0235 0.15964,-0.0638 -0.0202,-0.0202 -0.0565,-0.0314 -0.0988,-0.0331 z m -0.50372,0.49203 c -0.10045,8e-4 -0.2064,0.007 -0.31897,0.0188 -0.68327,0.0705 -0.81269,0.12275 -0.711,0.28696 0.0338,0.0546 0.67499,0.11808 1.42484,0.14092 1.01247,0.031 1.34091,0.005 1.27612,-0.0995 -0.048,-0.0776 -0.16244,-0.11234 -0.25436,-0.0771 -0.0919,0.0353 -0.37332,-0.022 -0.62531,-0.12729 -0.23724,-0.0991 -0.48987,-0.14555 -0.79132,-0.14293 z m 5.44212,0.993 c -0.0379,-0.001 -0.0637,0.0251 -0.0637,0.0737 0,0.0708 0.0548,0.12877 0.12156,0.12877 0.0669,0 0.12168,-0.0242 0.12168,-0.0537 0,-0.0295 -0.0548,-0.0875 -0.12168,-0.12876 -0.0208,-0.0134 -0.0406,-0.0194 -0.0578,-0.0202 z m -8.3407,1.17547 c -0.88818,0 -0.92615,0.0235 -1.17169,0.72414 -0.10365,0.29597 -0.1094,0.46575 -0.0191,0.57446 0.10259,0.12369 0.20207,0.11608 0.50084,-0.0385 0.36709,-0.18983 0.44757,-0.18846 1.82096,0.0311 0.35095,0.0561 0.47191,0.0282 0.52961,-0.12222 0.0411,-0.10713 0.12382,-0.16462 0.18365,-0.12757 0.16223,0.10032 0.12436,-0.0903 -0.0863,-0.4335 -0.10258,-0.16722 -0.15774,-0.21003 -0.12262,-0.0951 0.11995,0.39204 -0.15221,0.34379 -0.47927,-0.0849 -0.31713,-0.41577 -0.34994,-0.42791 -1.15606,-0.42791 z m -6.36323,2.31063 c -0.0256,0 -0.0728,0.13681 -0.10474,0.30402 -0.032,0.16722 -0.0109,0.30403 0.0466,0.30403 0.0576,0 0.10474,-0.13681 0.10474,-0.30403 0,-0.16721 -0.021,-0.30402 -0.0466,-0.30402 z m 13.88863,0.17923 c -0.0492,0.003 -0.065,0.11621 -0.0998,0.38422 -0.0427,0.33042 -0.007,0.51282 0.12155,0.61339 0.15117,0.11861 0.19925,0.0799 0.28055,-0.22604 0.0752,-0.28284 0.0468,-0.42626 -0.12169,-0.61337 -0.0914,-0.10152 -0.1449,-0.15972 -0.18077,-0.1582 z m -7.7893,0.0578 c -0.32918,0.0134 -0.63713,0.0795 -0.89318,0.20094 -0.46207,0.21927 -1.51114,1.1043 -1.51114,1.27485 0,0.20386 0.19412,0.11501 0.54189,-0.24798 0.53387,-0.55725 1.02848,-0.73528 2.04262,-0.73528 0.94813,0 1.52654,0.13891 2.03678,0.48911 0.16722,0.11474 0.44083,0.24593 0.60806,0.29146 0.29488,0.0803 0.29305,0.0733 -0.0608,-0.2298 -0.20066,-0.17192 -0.68823,-0.47565 -1.08352,-0.67491 -0.52447,-0.26439 -1.13206,-0.39027 -1.68069,-0.36839 z m 0.22366,0.97901 c -0.81147,0 -1.18751,0.0505 -1.35822,0.18242 -0.23333,0.1803 -0.23323,0.18458 0.007,0.37025 0.1808,0.13962 0.36811,0.16444 0.72969,0.0967 0.60029,-0.11247 0.94692,-0.10927 1.61136,0.0148 0.49691,0.0928 0.51687,0.0847 0.51687,-0.21 0,-0.40248 -0.17166,-0.4542 -1.50688,-0.4542 z m -1.45207,0.77699 c -0.0327,0 -0.0831,0.0252 -0.1422,0.0743 -0.10032,0.0832 -0.18241,0.17032 -0.18241,0.19349 0,0.0231 0.082,0.0107 0.18241,-0.0279 0.10031,-0.0385 0.18242,-0.12556 0.18242,-0.19353 0,-0.0311 -0.0148,-0.0463 -0.0402,-0.0463 z m 8.44901,0.884 c -0.10953,-0.007 -0.16474,0.0618 -0.24524,0.23859 -0.0755,0.16548 -0.13709,0.35301 -0.13709,0.41676 0,0.0637 0.0548,0.11594 0.12155,0.11594 0.0669,0 0.12156,-0.0576 0.12156,-0.12783 0,-0.0703 0.19153,-0.20787 0.42563,-0.30569 0.23411,-0.0978 0.42564,-0.20771 0.42564,-0.2442 0,-0.0365 -0.0501,-0.0354 -0.1114,0.003 -0.0613,0.0378 -0.24583,0.0178 -0.41016,-0.0447 -0.0797,-0.0303 -0.14079,-0.0485 -0.1906,-0.0513 z m -10.59353,0.52804 c -0.0645,0 -0.17591,0.10939 -0.2475,0.24322 -0.1407,0.26289 -0.12115,0.28209 0.17245,0.1694 0.20757,-0.0796 0.26814,-0.41262 0.0751,-0.41262 z m 9.82242,0.51064 c -0.0212,5e-4 -0.0572,0.0347 -0.0977,0.0974 -0.0648,0.10031 -0.11794,0.23714 -0.11794,0.30403 0,0.0669 0.053,0.0395 0.11794,-0.0608 0.0648,-0.10031 0.11782,-0.23715 0.11782,-0.30403 0,-0.0251 -0.008,-0.0369 -0.0202,-0.0366 z m 0.79509,1.10883 c -0.0286,0.001 -0.0387,0.0763 -0.0397,0.23509 -0.001,0.18395 0.0529,0.33446 0.11981,0.33446 0.15376,0 0.15376,-0.2485 0,-0.48645 -0.0359,-0.0556 -0.0618,-0.0843 -0.0801,-0.0831 z m 1.18216,1.65088 c -0.0383,0 -0.0661,0.009 -0.0797,0.0315 -0.0699,0.11301 0.26524,0.57399 0.67181,0.92417 0.33335,0.28712 0.62911,0.16579 0.52901,-0.21699 -0.0647,-0.24732 -0.85258,-0.73747 -1.12114,-0.7387 z m 4.87062,1.59416 c -0.18358,0 -0.16856,0.0417 0.2296,0.63695 0.34567,0.51678 0.43277,0.55434 0.51922,0.22381 0.0653,-0.24956 -0.46647,-0.86076 -0.74882,-0.86076 z m -22.164522,0.25489 c 0.04448,-5e-4 0.09161,0.0333 0.137407,0.10739 0.05462,0.0884 0.196149,0.11742 0.343833,0.0705 0.181406,-0.0576 0.288597,-0.009 0.386591,0.17369 0.111509,0.20835 0.208721,0.23963 0.547341,0.1761 0.39908,-0.0748 0.41035,-0.0662 0.36632,0.2817 -0.025,0.19741 -0.15757,0.55857 -0.29463,0.80261 -0.13707,0.24403 -0.195415,0.44372 -0.129678,0.44372 0.06575,0 0.119518,0.1094 0.119518,0.24322 0,0.13377 0.0526,0.24322 0.11695,0.24322 0.0643,0 0.17774,0.22586 0.25207,0.50192 0.0743,0.27606 0.0901,0.54026 0.0351,0.58709 -0.16508,0.14046 -0.509427,0.005 -0.583885,-0.22949 -0.0383,-0.12062 -0.177702,-0.31715 -0.309767,-0.43667 -0.132066,-0.11955 -0.240113,-0.33652 -0.240113,-0.48222 0,-0.1457 -0.03789,-0.30283 -0.08422,-0.34914 -0.04631,-0.0463 -0.102118,-0.20162 -0.124024,-0.34513 -0.05447,-0.35695 -0.26304,-0.58407 -0.536337,-0.58407 -0.189093,0 -0.228343,-0.0928 -0.228343,-0.54011 0,-0.39909 0.102906,-0.66288 0.22587,-0.66436 z m 16.507532,1.44768 c -0.14975,0 -0.0648,0.41501 0.1289,0.6289 0.24173,0.26712 0.33236,0.27617 0.51854,0.0518 0.11287,-0.13602 0.0691,-0.22218 -0.2167,-0.42564 -0.19703,-0.14031 -0.39084,-0.25509 -0.43068,-0.25509 z m 3.15715,1.37699 c -0.0208,0 -0.0393,0.004 -0.0548,0.0136 -0.18372,0.11354 -0.17107,0.18977 0.10739,0.64644 0.25866,0.42422 0.57093,0.51546 0.69122,0.20195 0.0835,-0.21739 -0.49775,-0.85874 -0.74383,-0.86196 z"
       sodipodi:nodetypes="cssssscscssssssssssssssssssssssssssssssssssssssssssssssccsssssssssssssssssssscsssssssssssssssssccsssccscssssssssssssssssssssssssssssssssssssssssssssssssssssssssscsssssssssssssssssssscccsssscscssssssssssssssssssssssssssssssssssssssssssssssssssssssssssssssssssssssssssssssssssssssssssssscsscsssssssssscsssssssssssssssssssssssssssssscssssssssccssssssscsssssssssscssscssscsssssssssssssssssssssssssssssssssssssssssscssssssssssssssssssssssssssssssssssssssssssssssssssssssssssssscsssscssssssssssscssssscssssssccssssssssssssssssssssssssssssssssssssssssssssccssssssssscsssccssscssssssssssccssssssssccssssssssscsssscsssssscccsscssssssssssssssssssssssssssssssssssssssssssssssssssssssssssscssssssssccsssscssssccsssccssscsssscsssssssssssssssssscsssssccssc" /><text
       xml:space="preserve"
       style="font-weight:300;font-size:14.1111px;font-family:Sans;-inkscape-font-specification:'Sans, Light';text-align:center;letter-spacing:-0.867833px;word-spacing:1.35996px;writing-mode:lr-tb;direction:ltr;text-anchor:middle;opacity:0.1;fill:#000000;stroke:#000000;stroke-width:0.2;stroke-linejoin:round"
       x="98.829834"
       y="118.19649"
       id="text2"><tspan
         sodipodi:role="line"
         id="tspan1"
         style="font-style:normal;font-variant:normal;font-weight:normal;font-stretch:normal;font-size:6.35px;font-family:Sans;-inkscape-font-specification:'Sans, Normal';font-variant-ligatures:normal;font-variant-caps:normal;font-variant-numeric:normal;font-variant-east-asian:normal;fill:#000000;stroke:#000000;stroke-width:0.2"
         x="98.829834"
         y="118.19649" /></text><text
       xml:space="preserve"
       style="font-style:normal;font-variant:normal;font-weight:normal;font-stretch:normal;font-size:6.35px;font-family:Sans;-inkscape-font-specification:'Sans, Normal';font-variant-ligatures:normal;font-variant-caps:normal;font-variant-numeric:normal;font-variant-east-asian:normal;text-align:center;letter-spacing:-0.867833px;word-spacing:1.35996px;writing-mode:lr-tb;direction:ltr;text-anchor:middle;opacity:0.1;fill:#1a1a1a;stroke:#000000;stroke-width:0.2;stroke-linejoin:round"
       x="70.478653"
       y="116.39958"
       id="text3"><tspan
         sodipodi:role="line"
         id="tspan2"
         style="opacity:1;fill:#000000;stroke-width:0.2"
         x="70.478653"
         y="116.39958" /></text><path
       id="path7"
       style="opacity:1;fill:none;stroke:#000000;stroke-width:0.2;stroke-linejoin:round"
       d="m 134.65918,153.76483 a 25,25 0 0 1 -25,25 25,25 0 0 1 -25,-25 25,25 0 0 1 25,-25 25,25 0 0 1 25,25 z" /><path
       d="m -79.709357,4.1199999 h -0.444499 l -1.617132,-2.5103646 h -0.01693 q 0.0085,0.1481666 0.02117,0.3682997 0.0127,0.2201332 0.0127,0.4529663 v 1.6890986 h -0.351366 V 1.0974024 h 0.440266 l 1.612899,2.5018979 h 0.01693 q -0.0042,-0.067733 -0.0127,-0.2031998 -0.0042,-0.1354666 -0.0127,-0.2963331 -0.0042,-0.1608665 -0.0042,-0.2963331 V 1.0974024 h 0.355599 z m 2.743199,-1.1387657 q 0,0.5630328 -0.287866,0.8720659 -0.283633,0.3090331 -0.770466,0.3090331 -0.300567,0 -0.537633,-0.1354666 -0.232833,-0.1396999 -0.3683,-0.4021663 -0.135466,-0.2666998 -0.135466,-0.6434661 0,-0.5630329 0.283633,-0.8678326 0.283633,-0.3047998 0.770466,-0.3047998 0.309033,0 0.541866,0.1396999 0.237066,0.1354666 0.3683,0.397933 0.135466,0.2582331 0.135466,0.6349995 z m -1.714498,0 q 0,0.4021663 0.156633,0.6392328 0.160866,0.2328331 0.507999,0.2328331 0.3429,0 0.503767,-0.2328331 0.160866,-0.2370665 0.160866,-0.6392328 0,-0.4021664 -0.160866,-0.6307662 -0.160867,-0.2285998 -0.508,-0.2285998 -0.347133,0 -0.503766,0.2285998 -0.156633,0.2285998 -0.156633,0.6307662 z M 131.9156,156.4707 q -0.0671,-0.009 -0.17491,-0.033 -0.10842,-0.0194 -0.1875,-0.0348 l -0.002,0.0168 q 0.03,0.0298 0.0859,0.0889 0.0558,0.0591 0.1117,0.11821 0.0595,0.0639 0.0961,0.10747 l 0.65861,0.82303 -0.0604,0.43184 -0.83288,-1.04403 -1.42312,0.79271 0.0621,-0.44441 1.15717,-0.63327 -0.18644,-0.28681 -0.82593,-0.11548 0.051,-0.36475 3.18633,0.44552 -0.051,0.36475 z m 1.23532,2.20706 q -0.0173,0.0829 -0.0883,0.13292 -0.0677,0.055 -0.1879,0.0299 -0.11602,-0.0242 -0.16018,-0.10266 -0.045,-0.0743 -0.0277,-0.15716 0.019,-0.0912 0.09,-0.1412 0.071,-0.05 0.18703,-0.0258 0.12017,0.0251 0.16105,0.0985 0.045,0.0743 0.026,0.16544 z m -0.87015,0.004 -2.22109,-0.4641 0.0762,-0.36465 2.2211,0.4641 z m -0.37422,1.63397 q -0.11238,0.39055 -0.36095,0.53488 -0.24449,0.1455 -0.6676,0.0238 l -1.41982,-0.40853 0.10184,-0.35394 1.39541,0.40151 q 0.52481,0.151 0.66528,-0.33719 0.10418,-0.36208 -0.0594,-0.55893 -0.16362,-0.19685 -0.54603,-0.30688 l -1.13098,-0.32542 0.10301,-0.35801 2.18059,0.62743 -0.0831,0.28884 -0.3122,-0.0326 -0.006,0.0203 q 0.14043,0.15494 0.16795,0.36549 0.0316,0.21172 -0.0281,0.41921 z m -0.69827,2.02196 q -0.0842,0.20798 -0.22936,0.34103 -0.14678,0.13697 -0.35531,0.18958 l -0.008,0.0196 0.25955,0.15985 -0.11117,0.27469 -2.13865,-0.86556 q -0.45127,-0.18264 -0.58517,-0.50628 -0.13549,-0.31972 0.0599,-0.80238 0.18741,-0.46305 0.43994,-0.70336 l 0.31786,0.12864 q -0.29028,0.2433 -0.47928,0.71028 -0.10958,0.27076 -0.0106,0.48892 0.0934,0.22049 0.36812,0.33166 l 0.0824,0.0333 q 0.0471,0.0191 0.13183,0.0579 0.0887,0.0404 0.1224,0.0587 l 0.006,-0.0157 q -0.23209,-0.34055 -0.0542,-0.78005 0.16518,-0.40811 0.54534,-0.52369 0.37858,-0.11166 0.89264,0.0964 0.50228,0.20329 0.70448,0.55 0.20453,0.35222 0.041,0.75641 z m -0.30945,-0.0704 q 0.10641,-0.26291 -0.0467,-0.49387 -0.14922,-0.22936 -0.5377,-0.38659 -0.38849,-0.15724 -0.65364,-0.10014 -0.26282,0.0626 -0.374,0.3373 -0.12864,0.31785 -0.0187,0.53133 0.1139,0.21508 0.49454,0.36913 l 0.0824,0.0333 q 0.43166,0.1747 0.67644,0.10023 0.24871,-0.0729 0.37735,-0.39074 z m -2.79655,3.57157 q -0.48525,-0.28556 -0.60558,-0.69039 -0.12249,-0.40118 0.12443,-0.82075 0.15244,-0.25904 0.38942,-0.39465 0.23849,-0.12981 0.5334,-0.11344 0.29856,0.0185 0.62327,0.2096 0.48525,0.28556 0.60408,0.68459 0.11884,0.39904 -0.12808,0.81861 -0.15673,0.26634 -0.39522,0.39615 -0.23699,0.13561 -0.52975,0.11559 -0.29126,-0.0142 -0.61597,-0.20531 z m 0.86956,-1.47762 q -0.3466,-0.20397 -0.63036,-0.18922 -0.28225,0.0206 -0.45831,0.31973 -0.17391,0.29552 -0.0548,0.55225 0.12273,0.25888 0.46933,0.46285 0.3466,0.20397 0.62521,0.18127 0.2786,-0.0227 0.45466,-0.32187 0.17606,-0.29917 0.0585,-0.55011 -0.11758,-0.25093 -0.46418,-0.4549 z m -0.99358,3.0967 0.32846,-0.46768 -1.62131,-1.13865 0.21411,-0.30486 1.6213,1.13865 0.22871,-0.32565 0.14203,0.0998 -0.12477,0.39863 0.1074,0.0754 q 0.36029,0.25303 0.40426,0.52187 0.0474,0.27128 -0.15206,0.55535 -0.0779,0.11086 -0.1619,0.18634 -0.083,0.0814 -0.15349,0.13016 l -0.18308,-0.24756 q 0.0563,-0.0433 0.12466,-0.10385 0.0684,-0.0606 0.12194,-0.1368 0.10705,-0.15243 0.0567,-0.30163 -0.0494,-0.14331 -0.26763,-0.29659 l -0.12125,-0.0852 -0.32845,0.46769 z m -3.53676,1.08408 0.93654,0.36156 0.80741,-0.88508 -0.44867,-0.89636 0.25963,-0.2846 1.44641,2.9182 -0.23109,0.25333 -3.03556,-1.17619 z m 2.16755,0.87142 q 0.0336,0.0134 0.11923,0.0515 0.0857,0.038 0.17443,0.0789 0.0891,0.0468 0.13799,0.0686 -0.077,-0.11034 -0.14513,-0.22408 -0.065,-0.11088 -0.10107,-0.17815 l -0.44444,-0.86958 -0.64479,0.70681 z m -2.71205,2.67838 q -0.29515,0.24757 -0.56897,0.21756 -0.2711,-0.0268 -0.55404,-0.36407 l -0.9495,-1.13193 0.28217,-0.23669 0.93862,1.11895 q 0.34551,0.41191 0.69904,0.11536 0.25298,-0.21221 0.24083,-0.45066 -0.0154,-0.23573 -0.24937,-0.51466 l -0.80531,-0.96003 0.28218,-0.2367 0.93861,1.11896 q 0.34552,0.41191 0.70229,0.11264 0.26271,-0.22037 0.22722,-0.46688 -0.0355,-0.24651 -0.29123,-0.55138 l -0.75633,-0.90165 0.28542,-0.23942 1.45825,1.73844 -0.23028,0.19316 -0.24077,-0.20139 -0.0162,0.0136 q 0.0332,0.20424 -0.0486,0.38337 -0.0823,0.1851 -0.23801,0.31569 -0.40866,0.34279 -0.77677,0.15428 l -0.0162,0.0136 q 0.0376,0.22265 -0.0518,0.41915 -0.0926,0.19922 -0.26123,0.3407 z m -1.73829,1.2076 q -0.24576,0.15788 -0.48892,0.16315 -0.24673,0.008 -0.46518,-0.12884 -0.21973,-0.13055 -0.38676,-0.39055 l -0.12127,-0.18877 1.30713,-0.83975 q -0.21535,-0.31954 -0.48189,-0.38982 -0.26782,-0.0644 -0.55275,0.11862 -0.18165,0.1167 -0.29996,0.23799 -0.11958,0.12715 -0.22799,0.28736 l -0.17619,-0.27425 q 0.10485,-0.15792 0.22901,-0.27794 0.12187,-0.12359 0.31776,-0.24943 0.27069,-0.1739 0.55176,-0.19849 0.27751,-0.0223 0.53462,0.11945 0.25584,0.1476 0.45948,0.46459 0.20136,0.31343 0.24223,0.60417 0.0373,0.29303 -0.0737,0.53539 -0.11453,0.24466 -0.36741,0.40712 z m -0.16119,-0.25873 q 0.22439,-0.14415 0.26236,-0.37484 0.0367,-0.22484 -0.10313,-0.4973 l -0.97233,0.62467 q 0.15916,0.2399 0.36567,0.31856 0.2088,0.0822 0.44743,-0.0711 z m -1.93884,1.46017 q -0.0561,0.0298 -0.1236,0.0561 -0.0693,0.032 -0.12384,0.0466 l -0.11974,-0.32467 q 0.0545,-0.0146 0.11834,-0.0389 0.0601,-0.0223 0.11239,-0.0501 0.15329,-0.0814 0.2422,-0.23891 0.0909,-0.15374 0.0917,-0.35072 -9.3e-4,-0.19125 -0.10817,-0.39313 l -0.568,-1.06923 0.329,-0.17477 1.06449,2.00387 -0.26917,0.143 -0.23202,-0.34652 -0.0149,0.008 q -0.01,0.21613 -0.0995,0.41719 -0.0897,0.20106 -0.29909,0.31228 z m -0.36592,1.06581 q -0.0769,0.0354 -0.15937,0.008 -0.0845,-0.0217 -0.13589,-0.13318 -0.0496,-0.10767 -0.0128,-0.18983 0.0329,-0.0804 0.1098,-0.1158 0.0846,-0.0389 0.16706,-0.0117 0.0825,0.0273 0.13204,0.13494 0.0513,0.11152 0.0167,0.18806 -0.0329,0.0804 -0.11749,0.11934 z m -0.52121,-0.69677 -0.94899,-2.06109 0.33839,-0.1558 0.94898,2.06108 z m -2.23347,-1.57852 q 0.28033,-0.10841 0.54572,-0.0794 0.26144,0.0305 0.48093,0.22252 0.21554,0.19351 0.3606,0.56861 0.15116,0.39089 0.11553,0.68607 -0.0356,0.29519 -0.21246,0.4952 -0.18078,0.20154 -0.46506,0.31147 -0.16188,0.0626 -0.32566,0.0851 -0.16226,0.0264 -0.27534,0.0157 l -0.005,-0.32946 q 0.10851,-0.001 0.24707,-0.0184 0.13856,-0.0173 0.24912,-0.06 0.62384,-0.24125 0.31388,-1.04277 -0.14811,-0.38299 -0.37754,-0.53028 -0.23186,-0.14182 -0.53194,-0.0258 -0.17373,0.0672 -0.29028,0.15311 -0.1205,0.0874 -0.21121,0.18153 l -0.1191,-0.30797 q 0.0852,-0.0965 0.20484,-0.17453 0.11413,-0.0805 0.29576,-0.15069 z m -0.88253,2.76083 q -0.39862,0.11499 -0.64024,-0.005 -0.24163,-0.11976 -0.35192,-0.5021 l -0.42828,-1.48462 0.26032,-0.0751 0.15832,0.28918 0.0163,-0.005 q 0.0907,-0.22004 0.22472,-0.35122 0.12992,-0.13 0.40651,-0.20979 0.29693,-0.0857 0.53675,0.0126 0.241,0.1023 0.33722,0.43584 0.0939,0.32539 -0.11193,0.57422 -0.20462,0.25289 -0.73276,0.42287 l -0.36662,0.11898 0.0375,0.13016 q 0.0786,0.27252 0.22707,0.34424 0.14847,0.0717 0.36404,0.01 0.17084,-0.0493 0.31015,-0.14674 0.14048,-0.0934 0.25593,-0.1972 l 0.18727,0.23677 q -0.12007,0.11835 -0.30005,0.22755 -0.17882,0.11326 -0.39032,0.17428 z m -0.44134,-1.13279 q 0.40205,-0.13361 0.52783,-0.29326 0.12171,-0.15847 0.0619,-0.36591 -0.0528,-0.18304 -0.18727,-0.23678 -0.13853,-0.0526 -0.31343,-0.002 -0.27659,0.0798 -0.41621,0.28308 -0.13844,0.20737 -0.0469,0.52463 l 0.0563,0.19524 z m -1.92433,0.32584 0.0533,0.32588 -1.01105,0.16528 -0.0533,-0.32587 z m -4.67727,-0.57619 0.44434,-0.0117 1.68282,2.46681 0.0169,-4.5e-4 q -0.0124,-0.14789 -0.0309,-0.36761 -0.0185,-0.21972 -0.0247,-0.45247 l -0.0446,-1.68851 0.35125,-0.009 0.0798,3.02154 -0.44012,0.0116 -1.67836,-2.45846 -0.0169,4.5e-4 q 0.006,0.0676 0.0181,0.20279 0.008,0.13531 0.0205,0.29589 0.008,0.1607 0.012,0.29612 l 0.045,1.70544 -0.35547,0.009 z m -2.36249,0.9332 q 0.0502,-0.5608 0.3644,-0.84296 0.31003,-0.28254 0.79493,-0.23918 0.29937,0.0268 0.52343,0.18282 0.21946,0.15988 0.33101,0.43337 0.11117,0.2777 0.0776,0.65297 -0.0502,0.5608 -0.3598,0.83912 -0.30966,0.27833 -0.79456,0.23496 -0.3078,-0.0275 -0.52727,-0.18741 -0.22405,-0.15604 -0.33139,-0.42915 -0.11192,-0.26928 -0.0784,-0.64454 z m 1.70768,0.15271 q 0.0358,-0.40057 -0.0991,-0.65064 -0.13949,-0.24624 -0.48524,-0.27716 -0.34154,-0.0305 -0.52251,0.18704 -0.18134,0.22179 -0.21716,0.62236 -0.0358,0.40057 0.10404,0.64259 0.13987,0.24202 0.48562,0.27294 0.34575,0.0309 0.52213,-0.18282 0.17637,-0.21374 0.21219,-0.61431 z m -3.41034,-0.0706 q 0.0154,-0.066 0.0487,-0.1712 0.0292,-0.10622 0.0516,-0.18357 l -0.0165,-0.004 q -0.0325,0.0272 -0.0964,0.0775 -0.0639,0.0503 -0.12784,0.10054 -0.069,0.0534 -0.11575,0.086 l -0.87933,0.58131 -0.42458,-0.0993 1.11521,-0.73485 -0.66047,-1.48909 0.43695,0.10216 0.52578,1.2098 0.30253,-0.15969 0.18986,-0.81207 0.35863,0.0839 -0.73245,3.13285 -0.35863,-0.0838 z m -2.30993,1.03021 q -0.081,-0.0248 -0.12436,-0.1 -0.0487,-0.0724 -0.0128,-0.18984 0.0347,-0.11335 0.11676,-0.15022 0.0781,-0.0381 0.15902,-0.0134 0.0891,0.0272 0.13246,0.10247 0.0434,0.0753 0.009,0.1886 -0.0359,0.1174 -0.11272,0.15146 -0.078,0.0381 -0.16712,0.0109 z m 0.0747,-0.86694 0.66347,-2.1699 0.35626,0.10893 -0.66348,2.1699 z m -1.59334,-0.52075 q -0.37877,-0.14731 -0.49997,-0.40793 -0.12275,-0.25668 0.0368,-0.66701 l 0.53552,-1.37696 0.34326,0.1335 -0.52631,1.35329 q -0.19795,0.50896 0.27551,0.69309 0.35114,0.13657 0.56201,-0.009 0.21087,-0.14511 0.3551,-0.51598 l 0.42658,-1.09683 0.3472,0.13503 -0.82246,2.11476 -0.28013,-0.10895 0.0607,-0.30796 -0.0197,-0.008 q -0.16703,0.12581 -0.37921,0.13413 -0.21372,0.0123 -0.41493,-0.066 z m -1.950342,-0.87865 q -0.199494,-0.10267 -0.318839,-0.25932 -0.123109,-0.15858 -0.156602,-0.37103 l -0.01882,-0.01 -0.182715,0.244 -0.263483,-0.13561 1.055813,-2.05141 q 0.222787,-0.43286 0.557227,-0.53688 0.330681,-0.10595 0.793651,0.13233 0.44416,0.2286 0.6606,0.50187 l -0.15692,0.30489 q -0.216,-0.31113 -0.66392,-0.54167 -0.25972,-0.13367 -0.485943,-0.0549 -0.228053,0.0731 -0.363662,0.33656 l -0.04068,0.079 q -0.02325,0.0452 -0.06963,0.12604 -0.04832,0.0846 -0.06952,0.11658 l 0.01506,0.008 q 0.360177,-0.20028 0.781753,0.0167 0.39146,0.20147 0.47212,0.59055 0.0769,0.38713 -0.17689,0.88022 -0.24797,0.4818 -0.611584,0.65174 -0.369311,0.17177 -0.757008,-0.0278 z m 0.09819,-0.30178 q 0.252191,0.12979 0.496073,-0.002 0.241949,-0.12781 0.433739,-0.50045 0.19179,-0.37264 0.15896,-0.64188 -0.0385,-0.26741 -0.30202,-0.40302 -0.304887,-0.15692 -0.527459,-0.0667 -0.22451,0.0939 -0.412425,0.45905 l -0.04068,0.079 q -0.2131,0.41405 -0.161118,0.66458 0.05004,0.25429 0.354933,0.41121 z m -3.303446,-3.10872 q 0.32836,-0.45737 0.74243,-0.54052 0.410631,-0.0856 0.8061,0.1983 0.244159,0.17529 0.357732,0.42359 0.107664,0.24927 0.06464,0.54148 -0.0455,0.29565 -0.265225,0.60171 -0.328359,0.45737 -0.736522,0.53955 -0.408162,0.0822 -0.803631,-0.20173 -0.251037,-0.18023 -0.358701,-0.4295 -0.113573,-0.2483 -0.06711,-0.53805 0.04056,-0.28877 0.260287,-0.59483 z m 1.392739,0.99989 q 0.234543,-0.32669 0.245561,-0.61061 0.0051,-0.28296 -0.276875,-0.48541 -0.278548,-0.19997 -0.545012,-0.10465 -0.268934,0.0988 -0.503476,0.42545 -0.234543,0.32669 -0.237185,0.6062 -0.0026,0.27952 0.279344,0.48197 0.281987,0.20244 0.542543,0.10809 0.260557,-0.0944 0.4951,-0.42104 z m -2.99392,-1.27012 0.435993,0.36948 1.280892,-1.51144 0.284203,0.24085 -1.280892,1.51145 0.303581,0.25727 -0.112215,0.13241 -0.385689,-0.16038 -0.08485,0.10011 q -0.284642,0.33588 -0.556366,0.35531 -0.27446,0.0227 -0.539286,-0.20177 -0.103346,-0.0876 -0.170894,-0.17812 -0.07351,-0.09 -0.115717,-0.16465 l 0.26313,-0.15989 q 0.03799,0.0599 0.09213,0.13356 0.05414,0.0736 0.125187,0.13384 0.142101,0.12042 0.295261,0.0838 0.147192,-0.0362 0.31962,-0.23965 l 0.09579,-0.11303 -0.435993,-0.36949 z m -0.759092,-3.62044 -0.444945,0.89992 0.808267,0.8843 0.933332,-0.36559 0.259902,0.28435 -3.037277,1.176 -0.231342,-0.25311 1.446449,-2.91647 z m -1.064267,2.07966 q -0.01643,0.0322 -0.06206,0.11407 -0.04563,0.0819 -0.09438,0.16656 -0.05473,0.0844 -0.0808,0.13121 0.11686,-0.0667 0.236306,-0.12423 0.116322,-0.0547 0.186579,-0.0845 l 0.906284,-0.36381 -0.645471,-0.70619 z m -2.421576,-2.94364 q -0.21981,-0.31637 -0.165109,-0.58634 0.05122,-0.26756 0.412787,-0.51877 l 1.213319,-0.84301 0.210148,0.30246 -1.199413,0.83335 q -0.441523,0.30676 -0.178234,0.68571 0.188408,0.27117 0.42698,0.28068 0.236157,0.006 0.535141,-0.20171 l 1.029061,-0.71498 0.210148,0.30246 -1.199413,0.83334 q -0.441523,0.30677 -0.175818,0.68919 0.195655,0.2816 0.444363,0.2686 0.248708,-0.013 0.575505,-0.24006 l 0.966483,-0.6715 0.212564,0.30593 -1.863436,1.29471 -0.1715,-0.24684 0.222387,-0.22152 -0.01208,-0.0174 q -0.206403,0.0145 -0.377385,-0.0832 -0.176874,-0.0988 -0.292818,-0.26564 -0.304352,-0.43804 -0.08325,-0.78755 l -0.01208,-0.0174 q -0.22514,0.0173 -0.412737,-0.0895 -0.190013,-0.11025 -0.315618,-0.29103 z m -1.045104,-1.84058 q -0.134962,-0.25905 -0.118173,-0.50169 0.01483,-0.2464 0.170469,-0.45159 0.149925,-0.20699 0.423994,-0.34977 l 0.198982,-0.10367 0.717837,1.37785 q 0.337736,-0.1855 0.431884,-0.44457 0.08844,-0.26088 -0.06804,-0.56123 -0.09975,-0.19147 -0.209826,-0.32029 -0.115782,-0.13062 -0.265511,-0.25309 l 0.289087,-0.15061 q 0.147773,0.11872 0.256046,0.25325 0.112028,0.13257 0.219606,0.33906 0.148653,0.28533 0.147669,0.56747 -0.0029,0.27839 -0.16741,0.5216 -0.17018,0.24141 -0.504319,0.41549 -0.330385,0.17212 -0.623633,0.18647 -0.295204,0.0106 -0.526519,-0.12188 -0.23327,-0.13624 -0.372143,-0.4028 z m 0.27227,-0.13707 q 0.123226,0.23653 0.349525,0.29524 0.22059,0.0569 0.504596,-0.0576 l -0.533977,-1.02494 q -0.253341,0.13676 -0.35039,0.3353 -0.100803,0.20049 0.03025,0.45203 z m -1.27845,-2.06319 q -0.02459,-0.0585 -0.04464,-0.12818 -0.0256,-0.0719 -0.0352,-0.12755 l 0.334186,-0.0898 q 0.0096,0.0557 0.02802,0.12139 0.01678,0.0618 0.03972,0.11647 0.0672,0.16003 0.215978,0.26285 0.144874,0.10445 0.340963,0.12312 0.190546,0.0164 0.401316,-0.0721 l 1.116305,-0.46876 0.144234,0.34347 -2.092095,0.87852 -0.11801,-0.28103 0.36612,-0.19965 -0.0066,-0.0156 q -0.214354,-0.0294 -0.406455,-0.13695 -0.192102,-0.10758 -0.283887,-0.32616 z m -1.028285,-0.461 q -0.02829,-0.0798 0.0063,-0.15945 0.02923,-0.0822 0.144942,-0.12326 0.111718,-0.0396 0.190213,0.004 0.07708,0.04 0.105374,0.11984 0.03112,0.0878 -0.0035,0.16744 -0.03464,0.0796 -0.146357,0.11926 -0.115708,0.041 -0.188798,-4.3e-4 -0.07708,-0.04 -0.108204,-0.12782 z m 0.741145,-0.45593 2.138608,-0.75829 0.124496,0.35112 -2.138608,0.75829 z m 1.774443,-2.08122 q 0.08256,0.28901 0.02963,0.55067 -0.05409,0.2576 -0.265183,0.45879 -0.212254,0.19712 -0.598952,0.30758 -0.40298,0.11512 -0.693724,0.0529 -0.290743,-0.0622 -0.473904,-0.25646 -0.184323,-0.1983 -0.268044,-0.49137 -0.04767,-0.16689 -0.05523,-0.33204 -0.01162,-0.16398 0.0093,-0.27562 l 0.328542,0.025 q -0.0087,0.10815 -0.0041,0.24771 0.0046,0.13956 0.0372,0.25353 0.18372,0.64314 1.010032,0.4071 0.394839,-0.11279 0.56232,-0.32794 0.162247,-0.21805 0.07388,-0.52741 -0.05116,-0.1791 -0.126169,-0.30296 -0.07617,-0.12793 -0.161644,-0.22679 l 0.317499,-0.0907 q 0.08838,0.0936 0.155248,0.21981 0.06977,0.12096 0.123261,0.3082 z m -2.669492,-1.1291 q -0.07839,-0.40739 0.06276,-0.63717 0.141157,-0.22978 0.531921,-0.30497 l 1.517329,-0.29197 0.0512,0.26605 -0.302339,0.13146 0.0032,0.0166 q 0.210908,0.1103 0.329404,0.25563 0.117696,0.14117 0.17209,0.42385 0.0584,0.30347 -0.06118,0.5334 -0.123729,0.23074 -0.464609,0.29633 -0.332565,0.064 -0.561714,-0.1635 -0.233306,-0.2267 -0.354725,-0.76808 l -0.08526,-0.37589 -0.133026,0.0256 q -0.278524,0.0536 -0.36341,0.19495 -0.08489,0.14135 -0.04249,0.36167 0.0336,0.1746 0.118036,0.32217 0.08028,0.14837 0.173193,0.27275 l -0.252768,0.16504 q -0.106982,-0.1303 -0.19942,-0.31944 -0.0966,-0.18834 -0.138192,-0.40451 z m 1.168123,-0.33686 q 0.09662,0.41251 0.244216,0.55223 0.146795,0.13558 0.358805,0.0948 0.187068,-0.036 0.252769,-0.16504 0.0649,-0.13319 0.0305,-0.31195 -0.05439,-0.28268 -0.244203,-0.44015 -0.193965,-0.15667 -0.518216,-0.0943 l -0.199539,0.0384 z m -0.150107,-1.94593 -0.329361,0.0235 -0.07298,-1.02186 0.329361,-0.0235 z m 0.997698,-4.60582 -0.02859,0.44358 -2.609167,1.45234 -0.0011,0.0169 q 0.148404,0.001 0.368899,0.003 0.220494,0.001 0.452845,0.0165 l 1.685602,0.10863 -0.0226,0.35064 -3.01634,-0.19439 0.02831,-0.43935 2.600445,-1.44867 0.0011,-0.0169 q -0.06786,-1.3e-4 -0.203596,-4e-4 -0.135458,-0.004 -0.296536,-0.006 -0.160806,-0.006 -0.295992,-0.0148 l -1.7025,-0.10972 0.02287,-0.35486 z m -0.715253,-2.43735 q 0.553943,0.10076 0.806467,0.43929 0.253281,0.33436 0.166152,0.81333 -0.05379,0.29572 -0.229499,0.50471 -0.179115,0.20407 -0.461588,0.29038 -0.286639,0.0856 -0.657322,0.0181 -0.553942,-0.10077 -0.803059,-0.43437 -0.249116,-0.33361 -0.161988,-0.81258 0.05531,-0.30404 0.234423,-0.50812 0.175707,-0.20899 0.457423,-0.29113 0.278308,-0.0871 0.648991,-0.0196 z m -0.306845,1.68681 q 0.395674,0.072 0.656945,-0.0397 0.257864,-0.1166 0.319991,-0.45812 0.06137,-0.33737 -0.138914,-0.53731 -0.204449,-0.20069 -0.600122,-0.27267 -0.395673,-0.072 -0.649373,0.0454 -0.253699,0.11736 -0.315825,0.45889 -0.06213,0.34152 0.134749,0.53654 0.196876,0.19502 0.592549,0.26699 z m 0.379401,-3.38989 q 0.06429,0.0213 0.166084,0.064 0.103131,0.0387 0.178137,0.068 l 0.0053,-0.0161 q -0.02414,-0.0348 -0.06841,-0.10299 -0.04427,-0.0682 -0.08854,-0.13643 -0.04695,-0.0736 -0.07513,-0.12306 l -0.499231,-0.9284 0.137335,-0.41384 0.630754,1.17722 1.542823,-0.52281 -0.141335,0.4259 -1.252471,0.41398 0.131613,0.31576 0.79152,0.26267 -0.116002,0.34956 -3.053579,-1.01335 0.116002,-0.34956 z m -0.816625,-2.39378 q 0.03199,-0.0784 0.110859,-0.11479 0.07655,-0.0419 0.190212,0.004 0.109745,0.0448 0.139024,0.12989 0.03088,0.0812 -0.0011,0.15958 -0.03519,0.0862 -0.114058,0.12262 -0.07887,0.0364 -0.188612,-0.008 -0.113665,-0.0464 -0.140624,-0.12597 -0.03088,-0.0812 0.0043,-0.16742 z m 0.856598,0.15299 2.100842,0.85739 -0.140766,0.34491 -2.100841,-0.85739 z m 0.663009,-1.5396 q 0.181026,-0.36386 0.451562,-0.46095 0.266745,-0.099 0.660922,0.0971 l 1.322764,0.6581 -0.164055,0.32974 -1.300023,-0.64679 q -0.48893,-0.24325 -0.715212,0.21157 -0.167826,0.33732 -0.04243,0.56047 0.125394,0.22315 0.481669,0.40041 l 1.053663,0.52422 -0.16594,0.33353 -2.031523,-1.01073 0.133883,-0.2691 0.301195,0.0884 0.0094,-0.0189 q -0.110159,-0.17775 -0.09922,-0.38981 0.0071,-0.21394 0.103318,-0.40724 z m 1.051773,-1.86269 q 0.120332,-0.18937 0.28715,-0.29403 0.169088,-0.10823 0.383693,-0.12233 l 0.01135,-0.0179 -0.226438,-0.20407 0.15893,-0.25011 1.947281,1.23737 q 0.410895,0.2611 0.484174,0.60359 0.07555,0.33892 -0.203712,0.7784 -0.267909,0.42161 -0.559672,0.61239 l -0.289413,-0.1839 q 0.329429,-0.18691 0.599608,-0.6121 0.156659,-0.24653 0.09871,-0.47897 -0.0521,-0.23373 -0.302213,-0.39266 l -0.07503,-0.0477 q -0.04288,-0.0272 -0.119211,-0.0808 -0.07991,-0.0558 -0.109795,-0.0798 l -0.0091,0.0143 q 0.16681,0.37685 -0.08748,0.77702 -0.236123,0.3716 -0.630906,0.41666 -0.392513,0.0415 -0.860575,-0.25593 -0.457343,-0.29061 -0.593634,-0.66813 -0.137593,-0.38336 0.09626,-0.75137 z m 0.291647,0.12513 q -0.152118,0.23939 -0.04318,0.49419 0.105363,0.25254 0.45909,0.47731 0.353726,0.22477 0.62483,0.21647 0.269801,-0.0141 0.42873,-0.26424 0.183904,-0.28942 0.114271,-0.51925 -0.07321,-0.2321 -0.419787,-0.45233 l -0.07503,-0.0477 q -0.393029,-0.24975 -0.647236,-0.22069 -0.257779,0.0268 -0.441683,0.31621 z m 3.395302,-3.00813 q 0.425729,0.36846 0.471016,0.78836 0.04806,0.4167 -0.270534,0.78482 -0.196696,0.22726 -0.454267,0.31787 -0.258001,0.0846 -0.545113,0.0153 -0.290312,-0.0721 -0.575199,-0.31867 -0.425729,-0.36845 -0.470584,-0.78238 -0.04486,-0.41393 0.273735,-0.78205 0.202236,-0.23367 0.460237,-0.3183 0.257571,-0.0906 0.541912,-0.0181 0.283911,0.0666 0.568797,0.31312 z m -1.121994,1.2964 q 0.304092,0.26318 0.585849,0.29988 0.281327,0.0307 0.508497,-0.23174 0.224398,-0.25928 0.153619,-0.53329 -0.07398,-0.27677 -0.378073,-0.53996 -0.304092,-0.26318 -0.582218,-0.29114 -0.278126,-0.028 -0.505295,0.23451 -0.22717,0.26248 -0.15682,0.53052 0.07035,0.26803 0.374441,0.53122 z m 1.536218,-2.86651 -0.40748,0.40072 1.389144,1.41259 -0.265617,0.26121 -1.389143,-1.4126 -0.283727,0.27902 -0.121698,-0.12375 0.194679,-0.36957 -0.09202,-0.0936 q -0.308699,-0.31391 -0.303426,-0.58628 0.0023,-0.27538 0.249812,-0.51878 0.09659,-0.095 0.192874,-0.15405 0.09634,-0.065 0.174464,-0.10032 l 0.135388,0.27654 q -0.06314,0.0324 -0.141363,0.0796 -0.07823,0.0472 -0.144631,0.11255 -0.132808,0.1306 -0.110164,0.28645 0.02269,0.14987 0.209694,0.34002 l 0.103889,0.10565 0.407479,-0.40072 z m 3.674337,-0.42786 -0.855892,-0.52467 -0.95391,0.7248 0.279501,0.96263 -0.306734,0.23306 -0.895907,-3.13135 0.273027,-0.20746 2.773391,1.70481 z m -1.974653,-1.24836 q -0.0306,-0.0193 -0.10798,-0.0721 -0.07738,-0.0529 -0.157319,-0.10909 -0.07913,-0.0622 -0.123347,-0.0924 0.0558,0.12242 0.102298,0.24659 0.04394,0.1208 0.06725,0.19347 l 0.280178,0.93552 0.761779,-0.57881 z m 3.15098,-2.14483 q 0.334985,-0.19023 0.598891,-0.11129 0.261814,0.0753 0.479227,0.4581 l 0.72958,1.28473 -0.32026,0.18187 -0.72122,-1.27 q -0.265493,-0.46751 -0.666739,-0.23964 -0.28713,0.16305 -0.318217,0.39978 -0.02741,0.23464 0.152376,0.55122 l 0.618786,1.08962 -0.32026,0.18188 -0.721221,-1.27 q -0.265492,-0.46751 -0.67042,-0.23756 -0.298173,0.16933 -0.307765,0.4182 -0.0096,0.24886 0.186916,0.59489 l 0.581157,1.02336 -0.323942,0.18397 -1.120505,-1.97311 0.261363,-0.14842 0.200461,0.24155 0.01841,-0.0104 q 0.0042,-0.20688 0.117027,-0.3683 0.11439,-0.16719 0.291085,-0.26754 0.463826,-0.2634 0.791855,-0.0115 l 0.01841,-0.0104 q 0.0032,-0.22577 0.126571,-0.40292 0.127024,-0.17924 0.318444,-0.28795 z m 1.927708,-0.87401 q 0.27022,-0.11093 0.51034,-0.0722 0.24404,0.0371 0.43428,0.21069 0.19256,0.16807 0.30992,0.45395 l 0.0852,0.20756 -1.43724,0.59001 q 0.15414,0.35316 0.40362,0.4704 0.25178,0.11172 0.56508,-0.0169 0.19972,-0.082 0.33799,-0.17993 0.14057,-0.10347 0.27611,-0.24149 l 0.12379,0.30155 q -0.13163,0.1364 -0.27541,0.23204 -0.14218,0.0995 -0.35757,0.18798 -0.29763,0.12218 -0.57852,0.0956 -0.27698,-0.0282 -0.50428,-0.21399 -0.22499,-0.19136 -0.36808,-0.5399 -0.14147,-0.34462 -0.12919,-0.63796 0.0162,-0.29495 0.1691,-0.51331 0.15681,-0.21996 0.43486,-0.33411 z m 0.11184,0.28357 q -0.24672,0.10129 -0.3257,0.32133 -0.0767,0.21453 0.0117,0.50775 l 1.06912,-0.4389 q -0.11324,-0.26469 -0.30216,-0.37933 -0.19054,-0.11856 -0.45292,-0.0109 z m 2.17056,-1.0862 q 0.0605,-0.0192 0.1317,-0.0329 0.0739,-0.019 0.13022,-0.0235 l 0.0592,0.34095 q -0.0563,0.005 -0.12343,0.0169 -0.0631,0.0111 -0.11959,0.029 -0.16546,0.0524 -0.28134,0.19127 -0.11715,0.13481 -0.15351,0.3284 -0.0336,0.18827 0.0354,0.4062 l 0.36567,1.15419 -0.35514,0.11251 -0.6853,-2.1631 0.29056,-0.0921 0.16566,0.3827 0.0161,-0.005 q 0.0487,-0.21081 0.17322,-0.39237 0.12455,-0.18156 0.35054,-0.25316 z m 0.55229,-0.98228 q 0.082,-0.0209 0.15822,0.0208 0.0792,0.0366 0.10961,0.15551 0.0293,0.11485 -0.0216,0.18903 -0.0469,0.0731 -0.12889,0.0941 -0.0902,0.023 -0.16643,-0.0187 -0.0762,-0.0417 -0.10551,-0.15656 -0.0304,-0.11895 0.0175,-0.18799 0.0469,-0.0731 0.13711,-0.0962 z m 0.38688,0.77941 0.56136,2.19853 -0.36095,0.0922 -0.56136,-2.19852 z m 1.91185,1.95575 q -0.2953,0.056 -0.55109,-0.0204 -0.25164,-0.0772 -0.43287,-0.30567 -0.17706,-0.22925 -0.25203,-0.62437 -0.0781,-0.41175 0.0102,-0.69566 0.0883,-0.2839 0.29836,-0.44871 0.21418,-0.16559 0.51364,-0.22241 0.17052,-0.0324 0.33567,-0.0249 0.16436,0.003 0.27365,0.0343 l -0.0547,0.32492 q -0.10692,-0.0185 -0.24633,-0.0265 -0.1394,-0.008 -0.25586,0.0141 -0.65714,0.12468 -0.49695,0.96899 0.0766,0.40343 0.27563,0.58972 0.20245,0.18134 0.51854,0.12137 0.183,-0.0347 0.31315,-0.0982 0.13431,-0.0643 0.24051,-0.14042 l 0.0616,0.32441 q -0.10125,0.0795 -0.23298,0.13469 -0.12678,0.0585 -0.3181,0.0948 z m 1.36638,-2.55618 q 0.41282,-0.0412 0.62886,0.12025 0.21604,0.1614 0.25551,0.55737 l 0.15327,1.53754 -0.2696,0.0269 -0.10353,-0.31301 -0.0168,0.002 q -0.12896,0.20004 -0.28442,0.30488 -0.15126,0.10442 -0.43771,0.13297 -0.30751,0.0306 -0.52566,-0.10926 -0.21857,-0.14413 -0.253,-0.48956 -0.0336,-0.33699 0.21373,-0.54458 0.24691,-0.2118 0.79706,-0.28366 l 0.38208,-0.0508 -0.0134,-0.1348 q -0.0281,-0.28223 -0.16121,-0.37958 -0.13308,-0.0973 -0.35634,-0.0751 -0.17692,0.0176 -0.33154,0.0884 -0.15503,0.0665 -0.28733,0.14777 l -0.14145,-0.26669 q 0.13946,-0.0947 0.3362,-0.16965 0.19632,-0.0791 0.41537,-0.10096 z m 0.22961,1.19384 q -0.41956,0.0588 -0.57209,0.19317 -0.14832,0.1339 -0.1269,0.34874 0.0189,0.18956 0.14145,0.26668 0.12676,0.0767 0.3079,0.0587 0.28645,-0.0285 0.46047,-0.20331 0.17361,-0.17897 0.14085,-0.50754 l -0.0202,-0.2022 z m 1.95154,0.0269 0.006,-0.33013 1.02427,0.0199 -0.006,0.33014 z m 4.49643,1.41101 -0.43917,-0.0687 -1.20991,-2.73005 -0.0167,-0.003 q -0.0145,0.1477 -0.036,0.36715 -0.0215,0.21945 -0.0574,0.44949 l -0.26093,1.66882 -0.34715,-0.0543 0.46694,-2.98631 0.43498,0.068 1.20703,2.72102 0.0167,0.003 q 0.006,-0.0676 0.0189,-0.20272 0.0167,-0.1345 0.0332,-0.29474 0.0207,-0.15959 0.0416,-0.29343 l 0.26356,-1.68555 0.35133,0.0549 z m 2.49215,-0.49143 q -0.15055,0.54253 -0.51057,0.76333 -0.35594,0.22194 -0.82504,0.0918 -0.28963,-0.0804 -0.48184,-0.27429 -0.187,-0.19687 -0.24735,-0.486 -0.0592,-0.29321 0.0415,-0.65626 0.15055,-0.54253 0.50536,-0.76039 0.3548,-0.21786 0.82391,-0.0877 0.29778,0.0826 0.48478,0.2795 0.19221,0.19393 0.24848,0.48193 0.0615,0.28505 -0.0393,0.6481 z m -1.65207,-0.45845 q -0.10753,0.38752 -0.02,0.65784 0.0928,0.26737 0.42725,0.36019 0.33041,0.0917 0.54768,-0.0897 0.2184,-0.18542 0.32594,-0.57294 0.10753,-0.38752 0.0136,-0.65082 -0.0939,-0.26329 -0.42837,-0.35611 -0.3345,-0.0928 -0.54655,0.0856 -0.21206,0.1784 -0.3196,0.56592 z m 3.34157,0.68505 q -0.0271,0.0621 -0.0788,0.1596 -0.0479,0.0992 -0.0839,0.17124 l 0.0155,0.007 q 0.0368,-0.0209 0.10876,-0.0588 0.072,-0.0379 0.14389,-0.0758 0.0775,-0.0401 0.12937,-0.0637 l 0.96981,-0.41304 0.39969,0.17428 -1.22953,0.52147 0.38083,1.58385 -0.41133,-0.17935 -0.29877,-1.28483 -0.32639,0.10245 -0.33332,0.76446 -0.3376,-0.1472 1.2859,-2.94918 0.33761,0.1472 z m 2.45794,-0.59634 q 0.0752,0.039 0.10427,0.1208 0.0348,0.08 -0.0217,0.18903 -0.0546,0.10523 -0.14196,0.12668 -0.0837,0.0234 -0.15882,-0.0156 -0.0827,-0.0429 -0.11179,-0.12471 -0.0291,-0.0818 0.0255,-0.18707 0.0565,-0.10899 0.1382,-0.12863 0.0837,-0.0234 0.16634,0.0195 z m -0.22999,0.83921 -1.04425,2.01449 -0.33073,-0.17144 1.04425,-2.0145 z m 1.47317,0.79981 q 0.34596,0.21325 0.41813,0.49147 0.0744,0.27462 -0.15663,0.6494 l -0.77527,1.25768 -0.31352,-0.19326 0.76194,-1.23606 q 0.28656,-0.46487 -0.14588,-0.73144 -0.32073,-0.19771 -0.55432,-0.0931 -0.2336,0.10466 -0.44241,0.4434 l -0.61755,1.00182 -0.31712,-0.19548 1.19067,-1.93157 0.25586,0.15772 -0.11531,0.29195 0.018,0.0111 q 0.18699,-0.0936 0.39719,-0.0635 0.21242,0.0265 0.3962,0.1398 z m 1.75973,1.21625 q 0.17768,0.137 0.26679,0.31261 0.0925,0.1782 0.0871,0.3932 l 0.0168,0.0129 0.22376,-0.20701 0.23468,0.18094 -1.40876,1.82713 q -0.29726,0.38554 -0.64499,0.42748 -0.34437,0.0445 -0.75673,-0.27342 -0.3956,-0.30501 -0.55915,-0.61286 l 0.20937,-0.27156 q 0.15629,0.34501 0.55524,0.65261 0.23133,0.17836 0.46806,0.14172 0.23749,-0.0307 0.41843,-0.26539 l 0.0543,-0.0704 q 0.031,-0.0402 0.0912,-0.1114 0.0628,-0.0745 0.0894,-0.10211 l -0.0134,-0.0103 q -0.39041,0.13197 -0.76589,-0.15754 -0.34866,-0.26882 -0.35777,-0.66607 -0.006,-0.39466 0.33287,-0.83384 0.33086,-0.42912 0.71918,-0.53064 0.39425,-0.10228 0.73956,0.16396 z m -0.15105,0.2791 q -0.22462,-0.17318 -0.48825,-0.0878 -0.26104,0.0821 -0.51694,0.41395 -0.25591,0.3319 -0.27221,0.60264 -0.0104,0.26997 0.2243,0.45091 0.27156,0.20938 0.50675,0.16086 0.23778,-0.0519 0.48851,-0.37707 l 0.0543,-0.0704 q 0.28433,-0.36878 0.27842,-0.62457 -0.003,-0.25915 -0.27487,-0.46853 z m 2.68804,3.65395 q -0.40553,0.39059 -0.8278,0.39764 -0.41935,0.0101 -0.75707,-0.34055 -0.20851,-0.21648 -0.2754,-0.4812 -0.0609,-0.26461 0.0342,-0.54426 0.0981,-0.28258 0.36948,-0.54395 0.40552,-0.39059 0.82181,-0.39775 0.41629,-0.007 0.75402,0.34348 0.21438,0.22258 0.27528,0.48719 0.0669,0.26473 -0.0311,0.54132 -0.092,0.27671 -0.36338,0.53808 z m -1.18938,-1.23486 q -0.28966,0.27899 -0.35175,0.55626 -0.0561,0.27739 0.18471,0.52741 0.23788,0.24697 0.51717,0.20131 0.28235,-0.0486 0.572,-0.32758 0.28966,-0.27899 0.34272,-0.55344 0.053,-0.27444 -0.18776,-0.52447 -0.24082,-0.25002 -0.51412,-0.20425 -0.27331,0.0458 -0.56297,0.32476 z m 2.71548,1.78967 -0.36214,-0.44212 -1.53268,1.25541 -0.23606,-0.28819 1.53268,-1.25542 -0.25216,-0.30784 0.13428,-0.10998 0.3504,0.22737 0.10152,-0.0832 q 0.3406,-0.27898 0.61136,-0.24905 0.27405,0.0273 0.49401,0.2958 0.0858,0.1048 0.13594,0.20604 0.056,0.10184 0.0841,0.18284 l -0.28767,0.10977 q -0.0265,-0.0658 -0.0665,-0.148 -0.04,-0.0822 -0.099,-0.15423 -0.11803,-0.1441 -0.27529,-0.13567 -0.15131,0.009 -0.35763,0.17801 l -0.11463,0.0939 0.36214,0.44212 z m 0.0931,3.698 0.60008,-0.80482 -0.63537,-1.01567 -0.984,0.19111 -0.2043,-0.32659 3.19966,-0.60845 0.18185,0.29071 -1.94912,2.60748 z m 1.42217,-1.8534 q 0.022,-0.0287 0.0816,-0.101 0.0597,-0.0723 0.12289,-0.14678 0.0691,-0.0732 0.10317,-0.11447 -0.12698,0.0445 -0.25485,0.0795 -0.12429,0.0328 -0.19877,0.0494 l -0.95707,0.19424 0.5074,0.8111 z m 1.85047,3.33239 q 0.15909,0.35084 0.0566,0.60651 -0.0987,0.25392 -0.49965,0.43574 l -1.34555,0.61015 -0.1521,-0.33543 1.33013,-0.60315 q 0.48964,-0.22204 0.29908,-0.64228 -0.13637,-0.30073 -0.3693,-0.35314 -0.23119,-0.0486 -0.56276,0.10179 l -1.14122,0.5175 -0.1521,-0.33543 1.33013,-0.60316 q 0.48965,-0.22203 0.29734,-0.64613 -0.14161,-0.31229 -0.38858,-0.3444 -0.24697,-0.0321 -0.60939,0.13224 l -1.07182,0.48602 -0.15384,-0.33928 2.06652,-0.93708 0.12413,0.27374 -0.25872,0.17774 0.009,0.0193 q 0.20564,0.023 0.35618,0.14992 0.15614,0.12907 0.24005,0.31413 0.22029,0.48579 -0.0603,0.78965 l 0.009,0.0193 q 0.22456,0.0237 0.3898,0.16257 0.16699,0.14274 0.2579,0.34323 z m 0.69571,1.99898 q 0.086,0.27916 0.0257,0.51479 -0.0591,0.23967 -0.24918,0.4134 -0.18482,0.17652 -0.48017,0.26749 l -0.21442,0.066 -0.45734,-1.48479 q -0.36567,0.12149 -0.50504,0.35932 -0.13407,0.24062 -0.0344,0.56429 0.0636,0.20633 0.14857,0.3529 0.0903,0.14937 0.21546,0.29686 l -0.31152,0.0959 q -0.12392,-0.14344 -0.20613,-0.2953 -0.0863,-0.15062 -0.15479,-0.37314 -0.0947,-0.30747 -0.0428,-0.5848 0.0531,-0.27329 0.25881,-0.48282 0.21096,-0.20672 0.57104,-0.31763 0.35602,-0.10966 0.64704,-0.0708 0.29227,0.0429 0.49587,0.21492 0.20485,0.1761 0.29333,0.46335 z m -0.29254,0.0857 q -0.0785,-0.25488 -0.29049,-0.35348 -0.2067,-0.0958 -0.50671,-0.0344 l 0.3402,1.10449 q 0.27386,-0.0888 0.40515,-0.26654 0.13534,-0.17901 0.0518,-0.45007 z m 0.88504,2.26007 q 0.0136,0.062 0.0208,0.13413 0.0122,0.0753 0.0116,0.13181 l -0.34491,0.028 q 6.1e-4,-0.0565 -0.006,-0.12445 -0.005,-0.0638 -0.0181,-0.12173 -0.0372,-0.16953 -0.16499,-0.29751 -0.12364,-0.12889 -0.31313,-0.18265 -0.18446,-0.0505 -0.40774,-0.002 l -1.18259,0.25956 -0.0799,-0.36387 2.21631,-0.48645 0.0653,0.29771 -0.39614,0.13029 0.004,0.0165 q 0.20553,0.0676 0.37506,0.20806 0.16952,0.14049 0.22035,0.37205 z m 0.92817,0.63902 q 0.0134,0.0836 -0.035,0.15569 -0.0436,0.0756 -0.16481,0.0951 -0.11703,0.0188 -0.18629,-0.0387 -0.0686,-0.0533 -0.082,-0.13689 -0.0148,-0.092 0.0337,-0.16405 0.0485,-0.0721 0.16548,-0.0909 0.12121,-0.0195 0.18562,0.0345 0.0686,0.0533 0.0834,0.14525 z m -0.81126,0.31466 -2.24036,0.35981 -0.0591,-0.36782 2.24035,-0.35981 z m -2.12096,1.72676 q -0.029,-0.29916 0.0703,-0.54698 0.0997,-0.2436 0.34364,-0.40338 0.24434,-0.15557 0.64463,-0.19442 0.41714,-0.0405 0.69187,0.0732 0.27474,0.11369 0.41983,0.33779 0.1455,0.22831 0.17495,0.53169 0.0168,0.17275 -0.006,0.33655 -0.0182,0.16338 -0.0589,0.26941 l -0.31863,-0.0839 q 0.0281,-0.1048 0.0487,-0.24291 0.0206,-0.1381 0.009,-0.25608 -0.0646,-0.66574 -0.91996,-0.58272 -0.40872,0.0397 -0.61228,0.22104 -0.19894,0.18519 -0.16786,0.50542 0.018,0.18539 0.0694,0.32076 0.0518,0.13958 0.11805,0.25224 l -0.32865,0.0319 q -0.07,-0.10804 -0.11302,-0.24423 -0.0468,-0.13156 -0.0656,-0.32538 z m 2.42183,1.59241 q 0.004,0.41485 -0.17674,0.61538 -0.18032,0.20052 -0.57823,0.20395 l -1.54511,0.0133 -0.002,-0.27092 0.3211,-0.0747 -1.5e-4,-0.0169 q -0.18753,-0.14656 -0.27785,-0.31089 -0.0903,-0.16009 -0.0928,-0.44795 -0.003,-0.30902 0.15646,-0.51359 0.16334,-0.20462 0.51046,-0.2076 0.33866,-0.003 0.52298,0.26221 0.18855,0.26508 0.21026,0.81948 l 0.016,0.38511 0.13546,-0.001 q 0.28362,-0.002 0.39263,-0.12615 0.10901,-0.12371 0.10708,-0.34807 -0.002,-0.17779 -0.058,-0.33818 -0.0522,-0.16042 -0.12111,-0.29953 l 0.2784,-0.1167 q 0.0817,0.14747 0.13849,0.35018 0.061,0.20269 0.0629,0.42281 z m -1.20974,0.12048 q -0.0206,-0.42317 -0.14052,-0.58725 -0.11991,-0.15984 -0.3358,-0.15798 -0.1905,0.002 -0.27841,0.1167 -0.0879,0.11929 -0.0863,0.30132 0.002,0.28786 0.16074,0.477 0.1625,0.18911 0.49269,0.18627 l 0.20319,-0.002 z M 81.322255,3.1505674 V 2.8203676 h 1.024466 v 0.3301998 z"
       id="text7"
       style="font-size:4.23333px;font-family:Sans;-inkscape-font-specification:'Sans, Normal';text-align:center;letter-spacing:0px;word-spacing:0px;text-anchor:middle;stroke:#000000;stroke-width:0.2;stroke-linejoin:round"
       aria-label="No king of America - No king of America - No king of America - No king of America - " /><text
       xml:space="preserve"
       transform="scale(0.26458333)"
       id="text8"
       style="font-style:normal;font-variant:normal;font-weight:normal;font-stretch:normal;font-size:16px;font-family:Sans;-inkscape-font-specification:'Sans, Normal';font-variant-ligatures:normal;font-variant-caps:normal;font-variant-numeric:normal;font-variant-east-asian:normal;text-align:center;letter-spacing:0px;word-spacing:0px;writing-mode:lr-tb;direction:ltr;white-space:pre;shape-inside:url(#rect8);display:inline;opacity:1;fill:#000000;stroke:#000000;stroke-width:0.755906;stroke-linejoin:round" /></g></svg>
