<?xml version="1.0" encoding="UTF-8" standalone="no"?>
<!-- Created with Inkscape (http://www.inkscape.org/) -->

<svg
   width="50.200001mm"
   height="50.200001mm"
   viewBox="0 0 50.200001 50.200001"
   version="1.1"
   id="svg1"
   xml:space="preserve"
   inkscape:version="1.4.2 (ebf0e940d0, 2025-05-08)"
   sodipodi:docname="no-king.svg"
   xmlns:inkscape="http://www.inkscape.org/namespaces/inkscape"
   xmlns:sodipodi="http://sodipodi.sourceforge.net/DTD/sodipodi-0.dtd"
   xmlns="http://www.w3.org/2000/svg"
   xmlns:svg="http://www.w3.org/2000/svg"><sodipodi:namedview
     id="namedview1"
     pagecolor="#ffffff"
     bordercolor="#000000"
     borderopacity="0.25"
     inkscape:showpageshadow="2"
     inkscape:pageopacity="0.0"
     inkscape:pagecheckerboard="0"
     inkscape:deskcolor="#d1d1d1"
     inkscape:document-units="mm"
     inkscape:zoom="4.4589143"
     inkscape:cx="94.754007"
     inkscape:cy="94.866142"
     inkscape:window-width="1896"
     inkscape:window-height="1032"
     inkscape:window-x="0"
     inkscape:window-y="0"
     inkscape:window-maximized="1"
     inkscape:current-layer="layer1"
     showgrid="false" /><defs
     id="defs1"><rect
       x="177.09119"
       y="332.56561"
       width="437.32379"
       height="462.2662"
       id="rect8" /></defs><g
     inkscape:groupmode="layer"
     id="layer3"
     inkscape:label="engrave-light"
     style="display:inline"><path
       id="path2"
       style="opacity:0.2;fill:#ff0000;stroke-width:1"
       d="m 109.47712,134.62699 c -10.377488,0 -18.790114,8.41262 -18.790127,18.79011 -6e-6,10.3775 8.412625,18.79013 18.790127,18.79013 10.37749,-1e-5 18.79012,-8.41264 18.79011,-18.79013 -2e-5,-5.67093 -2.51221,-10.7551 -6.48443,-14.20031 -1.05627,-0.91614 -2.21576,-1.71638 -3.45872,-2.38094 -2.63645,-1.40964 -5.64838,-2.20886 -8.84696,-2.20886 z m 1.21644,3.11317 c 0.008,9e-5 0.0152,0.003 0.0198,0.008 0.03,0.0302 -0.0587,0.12273 -0.19722,0.20591 -0.24066,0.14454 -0.24309,0.14209 -0.0546,-0.0547 0.0915,-0.0955 0.18652,-0.15897 0.23203,-0.1584 z m -6.31531,0.17421 c 0.0898,0.003 0.11609,0.0684 0.11609,0.23238 0,0.15121 -0.0568,0.27494 -0.12648,0.27494 -0.0695,0 -0.0979,-0.0745 -0.0629,-0.16557 0.0424,-0.1107 0.008,-0.1445 -0.10202,-0.10204 -0.0911,0.035 -0.16557,0.0127 -0.16557,-0.0496 0,-0.0622 0.10278,-0.14004 0.22849,-0.17291 0.0455,-0.0113 0.0825,-0.018 0.11232,-0.0172 z m 6.40022,0.0504 c 0.0628,0 0.11784,0.09 0.12223,0.19996 0.007,0.17097 0.0223,0.16685 0.10617,-0.0286 0.0973,-0.22623 0.0983,-0.22619 0.1063,0.007 0.005,0.12884 -0.0391,0.2831 -0.0964,0.34281 -0.0632,0.0658 -0.0385,0.48559 0.0628,1.06508 0.092,0.52611 0.14892,1.04026 0.1265,1.14256 -0.0225,0.10228 -0.13069,-0.29136 -0.24064,-0.87481 -0.10993,-0.58344 -0.16918,-1.15755 -0.13165,-1.27577 0.0375,-0.11822 0.0146,-0.24801 -0.0507,-0.28844 -0.15155,-0.0936 -0.15469,-0.28852 -0.005,-0.28852 z m -0.21999,0.45708 c 0.065,0.35323 0.0468,0.54835 -0.0457,0.49119 -0.0618,-0.0382 -0.0767,-0.0113 -0.0329,0.0592 0.0438,0.0707 -0.10969,0.49432 -0.34103,0.94127 -0.30749,0.59416 -0.44897,0.77165 -0.52637,0.66021 -0.0728,-0.10478 -0.0838,-0.0737 -0.0351,0.0995 0.0429,0.15303 -0.008,0.37719 -0.13336,0.57126 -0.18631,0.2917 -0.18694,0.30592 -0.008,0.16375 0.25898,-0.20505 0.65514,-0.84523 0.95671,-1.54599 0.26623,-0.61865 0.26262,-0.62231 0.4953,0.50197 0.25305,1.22269 0.37801,1.59959 0.53033,1.59959 0.11784,0 0.12768,-0.0685 0.0423,-0.29308 -0.16145,-0.42467 -0.12855,-0.49798 0.0642,-0.14301 0.12731,0.23449 0.2487,0.30423 0.5164,0.29663 0.19249,-0.005 0.29043,-0.0468 0.21762,-0.0917 -0.21392,-0.13221 -0.0729,-0.50824 0.20551,-0.54796 0.29597,-0.0422 0.3001,-0.0232 0.12349,0.56632 -0.0993,0.3314 -0.0999,0.51347 -0.003,0.72737 0.26744,0.58696 0.55076,0.3247 1.834,-1.69758 0.39295,-0.61926 0.68502,-1.15537 0.64905,-1.19135 -0.036,-0.036 -0.14481,0.0336 -0.24189,0.15479 -0.16979,0.2118 -0.17194,0.21067 -0.056,-0.0293 0.0662,-0.13728 0.12387,-0.36862 0.1278,-0.51414 l 0.008,-0.26461 0.10328,0.25708 c 0.13404,0.33347 0.38207,0.34357 0.2766,0.0113 -0.062,-0.19544 -0.0401,-0.23128 0.10655,-0.17497 0.28407,0.10905 0.21865,-0.0291 -0.0725,-0.15305 -0.2538,-0.10805 -0.25346,-0.10906 0.0273,-0.0821 0.39266,0.0379 0.4216,0.35916 0.07,0.77701 -0.28067,0.33355 -0.39206,0.63366 -0.62283,1.67835 -0.0862,0.39031 -0.0761,0.48558 0.052,0.48558 0.18287,0 0.20801,0.31901 0.0449,0.57128 -0.0938,0.14508 -0.11107,0.13945 -0.11257,-0.0367 -9.4e-4,-0.18498 -0.0207,-0.18908 -0.17313,-0.0367 -0.2425,0.24251 -0.21596,0.44579 0.0474,0.36223 0.20851,-0.0662 0.21142,-0.0452 0.0626,0.44932 -0.0859,0.2853 -0.13105,0.51873 -0.10039,0.51873 0.0306,0 9.4e-4,0.10091 -0.0644,0.22424 -0.0799,0.14914 -0.18643,0.19941 -0.31824,0.15001 -0.1613,-0.0605 -0.17332,-0.0435 -0.0646,0.0906 0.15926,0.19646 0.14396,1.38435 -0.0194,1.50434 -0.0709,0.0521 -0.0606,0.0846 0.0273,0.0857 0.0778,9.4e-4 0.13655,0.11746 0.13046,0.25882 -0.0243,0.56467 0.23231,1.33928 0.80134,2.41835 l 0.59747,1.13296 -0.0266,1.24258 c -0.0227,1.0592 -0.0522,1.23273 -0.20058,1.1758 -0.15298,-0.0587 -0.15254,-0.042 0.004,0.13809 0.48745,0.56179 0.90115,2.92079 0.64433,3.67406 -0.18603,0.5456 -0.18544,0.5451 -0.35498,0.31323 -0.12882,-0.17617 -0.17049,-0.11847 -0.35198,0.48735 -0.16095,0.53732 -0.25963,0.69484 -0.45253,0.72233 -0.1857,0.0265 -0.23747,0.10103 -0.20939,0.30152 0.0206,0.14651 -0.0232,0.62513 -0.0971,1.06361 -0.13773,0.81659 -0.0711,1.64266 0.12273,1.52283 0.0597,-0.0369 0.10855,-0.007 0.10855,0.0679 0,0.10114 0.0391,0.10253 0.15622,0.005 0.11872,-0.0986 0.19037,-0.0885 0.29859,0.0419 0.0783,0.0944 0.1757,0.15091 0.21641,0.12575 0.0407,-0.0252 0.63904,0.0197 1.32956,0.0996 1.11993,0.12973 2.71073,0.59745 2.91223,0.85625 0.0314,0.0404 0.30125,0.22544 0.59964,0.41125 l 0.54251,0.33784 1.8e-4,2.37079 c 1.9e-4,1.9438 -0.0284,2.37081 -0.15805,2.37081 -0.0871,0 -0.24606,-0.13404 -0.35339,-0.29786 -0.2356,-0.35956 -0.50095,-0.21403 -0.29873,0.16385 0.0687,0.12829 0.12487,0.26234 0.12487,0.29789 l -4e-5,2e-5 c 0,0.0355 -1.06767,0.0646 -2.37263,0.0646 h -2.37265 l -0.35085,-0.54273 c -0.72746,-1.12527 -1.33914,-2.46561 -1.32661,-2.90689 0.0172,-0.60626 -0.26599,-0.48365 -0.64768,0.28037 -0.10164,0.20349 -0.33908,0.44904 -0.5276,0.54567 -0.18853,0.0966 -0.56024,0.31512 -0.82607,0.48557 -0.26582,0.17044 -0.53576,0.30989 -0.59984,0.30989 -0.0642,0 -0.11646,0.0454 -0.11646,0.10089 0,0.0554 -0.09,0.13037 -0.19997,0.16635 -0.10993,0.036 -0.48273,0.174 -0.82835,0.30673 -0.76695,0.29453 -1.76081,0.56856 -2.06217,0.56856 -0.12262,0 -0.22297,0.0732 -0.22297,0.16253 0,0.16862 -0.57238,0.39334 -0.97116,0.38129 -0.2628,-0.008 -0.7693,-0.36486 -0.66531,-0.46884 0.0382,-0.0382 -0.0277,-0.10553 -0.14668,-0.14948 -0.27001,-0.0996 -0.72979,-0.57663 -0.73244,-0.75976 -0.003,-0.20218 -0.48792,-0.62628 -0.80811,-0.70664 -0.27544,-0.0692 -0.7895,-0.68849 -0.7895,-0.95122 0,-0.0747 -0.0931,-0.13574 -0.20702,-0.13574 -0.24786,0 -0.76647,-0.6467 -0.57088,-0.71191 0.0735,-0.0244 -0.0116,-0.1751 -0.19511,-0.3452 -0.17898,-0.16596 -0.36747,-0.27577 -0.41887,-0.24401 -0.0514,0.0318 -0.0935,-0.0255 -0.0935,-0.12708 0,-0.10166 0.0514,-0.15311 0.11426,-0.1142 0.0628,0.0388 0.11424,0.0146 0.11424,-0.0539 0,-0.0685 -0.0768,-0.15407 -0.17073,-0.1901 -0.0939,-0.036 -0.1433,-0.10981 -0.1098,-0.16405 0.0335,-0.0542 -0.0413,-0.16239 -0.16622,-0.24041 -0.18295,-0.11419 -0.2005,-0.17482 -0.0902,-0.31131 0.0918,-0.11357 0.0942,-0.14377 0.008,-0.0916 -0.0714,0.0428 -0.17785,0.0141 -0.23649,-0.0638 -0.13889,-0.18442 -0.40258,-1.02486 -0.36735,-1.17085 0.015,-0.0623 -0.003,-0.1904 -0.0387,-0.28466 -0.13982,-0.3631 -0.16007,-0.79382 -0.0394,-0.83751 0.21172,-0.0767 0.51422,0.14034 0.702,0.50347 0.1925,0.37228 0.41953,0.67589 0.82385,1.10187 0.1414,0.14897 0.25706,0.31196 0.25706,0.36216 0,0.0502 0.12849,0.24067 0.2855,0.42326 0.15704,0.18259 0.2856,0.29575 0.28564,0.25148 7e-5,-0.0443 0.12912,0.0485 0.28675,0.2061 0.15762,0.15762 0.33067,0.25937 0.38451,0.22609 0.10592,-0.0655 1.05989,0.82414 2.09546,1.95397 0.60053,0.6552 0.67032,0.69849 0.96835,0.6009 0.63634,-0.20841 0.75665,-0.25962 1.22095,-0.5197 0.25921,-0.1452 0.71552,-0.37519 1.01401,-0.51113 0.2985,-0.13594 0.54272,-0.29224 0.54272,-0.34735 0,-0.055 0.0679,-0.10014 0.15075,-0.10014 0.083,0 0.42994,-0.20315 0.77121,-0.45144 0.34125,-0.24829 0.74257,-0.53828 0.89179,-0.64446 0.23821,-0.1695 0.24865,-0.2057 0.0857,-0.2969 -0.10215,-0.0571 -0.18559,-0.20111 -0.18559,-0.31995 0,-0.11885 -0.0512,-0.24778 -0.11383,-0.28649 -0.1311,-0.0811 0.14257,-0.67894 0.37665,-0.82292 0.20011,-0.12311 0.60254,-0.7166 0.70108,-1.03397 0.0707,-0.22744 0.04,-0.2571 -0.26498,-0.2571 -0.18963,0 -0.38591,0.0696 -0.43615,0.15473 -0.0502,0.0851 -0.19936,0.21129 -0.33134,0.28048 -0.20319,0.10654 -0.27751,0.079 -0.48555,-0.17949 -0.13511,-0.1679 -0.24601,-0.3584 -0.24654,-0.42332 -9.4e-4,-0.1401 -0.53252,-0.40366 -0.81399,-0.40366 -0.21072,0 -0.39027,0.37756 -0.27118,0.57026 0.1636,0.26472 -0.0857,0.33854 -0.39638,0.11734 -0.17809,-0.12682 -0.43225,-0.2306 -0.56479,-0.2306 -0.25965,0 -0.67581,-0.20259 -0.86404,-0.42063 -0.0641,-0.0743 -0.27078,-0.16161 -0.45931,-0.19414 -0.18852,-0.0325 -0.45845,-0.0935 -0.59983,-0.13538 -0.18413,-0.0546 -0.25706,-0.0288 -0.25706,0.0908 0,0.32915 -0.40716,0.56158 -0.89779,0.51251 -0.25556,-0.0256 -0.53088,-0.0971 -0.6118,-0.15894 -0.25986,-0.19864 -0.8784,-0.0795 -1.18644,0.22856 -0.22343,0.22343 -0.35033,0.27048 -0.54039,0.20032 -0.13661,-0.0504 -0.2665,-0.18363 -0.28865,-0.29598 -0.0221,-0.11232 -0.17745,-0.31969 -0.34514,-0.4608 -0.16769,-0.1411 -0.42867,-0.50436 -0.57994,-0.80725 -0.16718,-0.33474 -0.29531,-0.48501 -0.32673,-0.3832 -0.1013,0.3282 -0.4049,0.5674 -0.72021,0.5674 -0.3056,0 -0.336,-0.0513 -0.66862,-1.12925 -0.19166,-0.62109 -0.4161,-1.18535 -0.49877,-1.25397 -0.11811,-0.098 -0.124059,-0.23839 -0.0278,-0.65544 l 0.12253,-0.53072 0.12301,0.4367 0.12305,0.43668 0.16193,-0.36585 c 0.0891,-0.20122 0.22651,-0.36585 0.30542,-0.36585 0.0789,0 0.14349,-0.12756 0.14349,-0.28347 0,-0.2043 -0.0769,-0.30276 -0.2755,-0.35259 l -0.27553,-0.0691 0.27553,-0.40599 c 0.15154,-0.2233 0.27946,-0.46308 0.28429,-0.53285 0.0661,-0.95384 0.0386,-1.01357 -0.30843,-0.66959 -0.19211,0.19042 -0.19809,0.19042 -0.12599,0 0.0507,-0.13403 0.0204,-0.19996 -0.0921,-0.19996 -0.21894,0 -0.21683,-0.21686 0.003,-0.30119 0.0939,-0.036 0.13478,-0.12374 0.0909,-0.19474 -0.10778,-0.1744 -0.0392,-0.89897 0.10126,-1.06962 0.0622,-0.0755 0.0827,-0.23301 0.0456,-0.34994 -0.0698,-0.21985 0.58048,-1.26526 0.77991,-1.25383 0.14449,0.008 0.6605,-0.50425 0.58434,-0.58041 -0.0345,-0.0344 -0.12349,-9.4e-4 -0.19784,0.0726 -0.15491,0.15492 -0.66079,0.184 -0.66079,0.038 0,-0.20902 0.2726,-0.87848 0.39005,-0.95794 0.22673,-0.15335 0.40976,-0.0904 0.40976,0.14108 0,0.27258 0.0439,0.27991 0.37533,0.0627 0.24982,-0.16373 0.25295,-0.15862 0.24353,0.39989 -0.006,0.31116 0.005,0.56576 0.0214,0.56576 0.017,0 0.1689,-0.25341 0.33745,-0.56312 0.18522,-0.34029 0.42536,-0.60828 0.60698,-0.67732 0.69266,-0.26334 5.46536,-0.35107 7.70298,-0.14158 0.89213,0.0834 1.05604,0.13571 1.4694,0.4679 0.42286,0.33982 0.45776,0.35037 0.38325,0.11558 -0.0531,-0.16711 -0.0286,-0.2913 0.0691,-0.35174 0.25639,-0.15845 -0.3835,-0.3255 -1.76281,-0.46023 -1.60871,-0.15712 -8.63609,-0.25253 -8.80602,-0.1196 -0.0696,0.0545 -0.38362,0.12819 -0.69783,0.16378 -0.3142,0.0356 -0.67412,0.0983 -0.79981,0.13929 -0.21718,0.0709 -0.21829,0.0661 -0.0225,-0.0946 0.13976,-0.11482 0.16151,-0.18398 0.0676,-0.21526 -0.0897,-0.0299 -0.11117,-0.15441 -0.061,-0.35434 0.0884,-0.35204 0.30151,-0.41683 0.30151,-0.0916 0,0.16962 0.10025,0.22608 0.46295,0.26067 0.25463,0.0242 0.48747,0.0195 0.51745,-0.0101 0.0898,-0.0898 0.38457,-0.1216 1.76026,-0.18951 1.32427,-0.0654 1.85513,-0.16305 0.88676,-0.16305 -0.73842,0 -0.89798,-0.081 -0.81458,-0.41327 0.038,-0.15135 0.0101,-0.3471 -0.0635,-0.43496 -0.17752,-0.21389 -0.0178,-0.30535 0.84973,-0.48669 0.66005,-0.13797 0.62955,-0.14193 -0.82013,-0.10642 -0.82811,0.0202 -1.56752,-9.4e-4 -1.64312,-0.0481 -0.21174,-0.13087 0.48277,-0.20682 2.48721,-0.27199 0.32738,-0.0101 0.63159,-0.0557 0.67601,-0.10014 0.0797,-0.0797 -0.28187,-0.12637 -0.67142,-0.0867 -0.11382,0.0113 -0.19993,-0.0566 -0.19993,-0.15823 0,-0.21653 0.52451,-0.24727 0.60986,-0.0358 0.0344,0.0853 0.0613,0.0622 0.0666,-0.0571 0.0113,-0.2431 0.23754,-0.27034 0.23754,-0.0286 0,0.11972 0.12061,0.17138 0.3999,0.17138 0.21993,0 0.39991,-0.0485 0.39991,-0.10755 0,-0.16219 -0.20314,-0.25448 -0.2814,-0.12784 -0.0909,0.14703 -0.40415,0.022 -0.40415,-0.16137 0,-0.10065 -0.15449,-0.13089 -0.51414,-0.1009 -0.43032,0.0359 -0.51444,0.0101 -0.51591,-0.1582 -9.4e-4,-0.16862 -0.019,-0.17392 -0.1083,-0.0326 -0.0679,0.1073 -0.0634,0.19499 0.0126,0.24177 0.0793,0.0489 0.0681,0.15443 -0.0335,0.31722 -0.13273,0.21254 -0.26604,0.24564 -1.03884,0.25809 -1.58541,0.0257 -1.6856,0.018 -1.48101,-0.11181 0.1184,-0.0751 0.11264,-0.12349 -0.0286,-0.24072 -0.21132,-0.17539 -0.23687,-0.50073 -0.034,-0.43264 0.0785,0.0263 0.14324,0.13729 0.1437,0.24652 4.7e-4,0.10918 0.0871,0.24687 0.19239,0.30581 0.17008,0.0952 0.17959,0.0655 0.0848,-0.26483 -0.0587,-0.20461 -0.10672,-0.38522 -0.10672,-0.40134 0,-0.0162 -0.0801,-0.0294 -0.17812,-0.0294 -0.098,0 -0.14997,-0.0456 -0.11553,-0.10127 0.0345,-0.0557 -0.0205,-0.17025 -0.122,-0.25453 -0.10154,-0.0842 -0.5668,-0.70595 -1.03389,-1.3815 -1.02924,-1.48859 -1.121082,-1.56427 -1.08093,-0.89054 0.007,0.11495 -0.0107,0.12436 -0.05314,0.0285 -0.03483,-0.0785 -0.149013,-0.13873 -0.253749,-0.13377 -0.118755,0.005 -0.136655,0.0307 -0.04759,0.0666 0.197836,0.0798 0.179214,0.22901 -0.02857,0.22901 -0.09426,0 -0.171381,-0.0942 -0.171381,-0.20946 0,-0.13331 0.08309,-0.20948 0.228508,-0.20948 0.258854,0 0.27418,-0.044 0.117324,-0.33707 -0.08818,-0.16478 -0.07046,-0.20462 0.08567,-0.19244 0.141108,0.0113 0.188868,-0.0594 0.168518,-0.24836 -0.0164,-0.15213 0.0198,-0.23387 0.0857,-0.1932 0.0628,0.0388 0.1141,0.17786 0.1141,0.30906 0,0.13122 0.17123,0.44954 0.38051,0.70738 0.20929,0.25783 0.67171,0.88639 1.0276,1.39681 0.75438,1.08192 0.89369,1.21598 1.15836,1.11442 0.15314,-0.0587 0.18742,-0.18434 0.15648,-0.57328 -0.0226,-0.28303 0.01,-0.4995 0.0754,-0.50147 0.0633,-0.003 0.0251,-0.0558 -0.0848,-0.11997 -0.24798,-0.14443 -0.26276,-0.44789 -0.0218,-0.44789 0.098,0 0.14632,0.0515 0.10748,0.11419 -0.0388,0.0629 -0.024,0.11421 0.0331,0.11421 0.057,0 0.10648,0.28299 0.10994,0.62885 0.005,0.51366 -0.0394,0.66537 -0.24302,0.82835 -0.13712,0.10968 -0.23122,0.2895 -0.20908,0.39947 0.0413,0.20548 0.25198,0.28394 0.25198,0.0939 0,-0.0583 0.09,-0.19609 0.19997,-0.30606 0.10993,-0.10994 0.20412,-0.22934 0.20925,-0.26525 0.0224,-0.15702 0.19846,-0.75931 0.24704,-0.8451 0.0294,-0.0519 0.17656,0.0214 0.32709,0.16283 l 0.27367,0.25711 -0.0418,-0.35932 c -0.0477,-0.40981 0.19061,-0.82241 0.47655,-0.82499 0.16192,-9.4e-4 0.16643,-0.0188 0.0276,-0.10668 -0.0912,-0.0577 -0.20695,-0.0797 -0.25709,-0.0487 -0.0502,0.031 -0.0911,-0.25518 -0.0911,-0.63595 0,-0.75284 0.10981,-0.86773 0.36143,-0.37806 0.36552,0.71141 1.15584,1.85129 1.38994,2.00468 0.15109,0.099 -0.12558,-0.40837 -0.69647,-1.27727 -0.52092,-0.79283 -0.9971,-1.45866 -1.05815,-1.4796 -0.061,-0.0209 -0.11771,0.1847 -0.12602,0.45702 l -0.015,0.49512 -0.0771,-0.39991 c -0.0425,-0.21994 -0.0356,-0.44873 0.015,-0.50844 0.0507,-0.0598 0.0923,-0.20109 0.0923,-0.31421 0,-0.38324 0.23685,-0.20819 0.66192,0.48924 1.58389,2.59869 2.12924,3.25252 2.4741,2.9663 0.0904,-0.075 0.18003,-0.29954 0.19936,-0.49909 0.039,-0.40265 0.37797,-0.52309 0.37797,-0.1343 0,0.12568 -0.0643,0.21563 -0.14284,0.19993 -0.22183,-0.0443 -0.17007,0.0415 0.15232,0.25279 0.27922,0.18296 0.30384,0.18214 0.45661,-0.0154 0.48276,-0.62421 1.02959,-1.521 1.53472,-2.5168 0.31239,-0.61584 0.5727,-1.09397 0.57848,-1.06255 z m 4.9369,1.63685 c 0.084,0.003 0.17475,0.0393 0.25029,0.11484 0.0959,0.0959 0.1743,0.20773 0.1743,0.24861 0,0.0409 -0.23136,0.30568 -0.51414,0.58847 -0.49104,0.49104 -0.70039,0.47006 -0.34682,-0.0348 0.092,-0.13141 0.13062,-0.27776 0.0857,-0.32525 -0.0449,-0.0474 0.034,-0.0508 0.1754,-0.008 0.19571,0.0601 0.25709,0.0334 0.25709,-0.11232 0,-0.1231 -0.0611,-0.16783 -0.17138,-0.1255 -0.10541,0.0404 -0.17138,-2.9e-4 -0.17138,-0.10567 0,-0.15703 0.12098,-0.24581 0.26093,-0.24114 z m -1.25071,0.46325 c 0.0309,7.5e-4 0.0343,0.0457 0.005,0.12186 -0.0759,0.19794 -0.15786,0.23417 -0.15786,0.0698 0,-0.0591 0.0508,-0.13894 0.11295,-0.17733 0.0162,-0.0101 0.0296,-0.0147 0.0399,-0.0145 z m -14.425359,0.0751 c 0.01847,3.7e-4 0.0884,0.044 0.219089,0.12617 0.1571,0.0989 0.34715,0.30065 0.42229,0.44832 0.0752,0.14767 0.24466,0.30846 0.37668,0.3573 0.13202,0.0489 0.29409,0.2438 0.36014,0.43326 0.066,0.18946 0.16645,0.34447 0.22314,0.34447 0.0567,0 0.10308,0.077 0.10308,0.17138 0,0.0942 -0.0678,0.17137 -0.15064,0.17137 -0.0829,0 -0.22635,0.15981 -0.31883,0.3551 l -0.16816,0.35508 -0.13819,-0.30334 c -0.1515,-0.33252 -0.1894,-0.83884 -0.0525,-0.70198 0.0472,0.0472 0.0922,0.18425 0.1,0.30468 0.0311,0.47744 0.0612,0.48992 0.25226,0.10478 0.14933,-0.30094 0.16901,-0.45645 0.0796,-0.62842 -0.25914,-0.49835 -0.30039,-0.53266 -0.47054,-0.39146 -0.13126,0.10894 -0.19515,0.0516 -0.34399,-0.30866 -0.10051,-0.24334 -0.26762,-0.54351 -0.371332,-0.66705 -0.09779,-0.11646 -0.142962,-0.17141 -0.12203,-0.17096 z m 4.844689,0.68826 c -0.0883,-9.4e-4 -0.16934,0.056 -0.21453,0.17367 -0.1157,0.30148 -0.0807,0.39366 0.18775,0.4946 0.32232,0.12123 0.49077,-0.11683 0.31501,-0.44528 -0.0782,-0.14614 -0.18803,-0.22182 -0.28823,-0.22299 z m 6.06956,0.22147 c -0.27155,0 -0.47165,0.26825 -0.34861,0.46733 0.10504,0.16995 0.47787,0.11809 0.55267,-0.0768 0.11947,-0.31121 0.0779,-0.39053 -0.20406,-0.39053 z m 2.88024,0.022 c 0.0113,0 0.0169,0.0113 0.0168,0.0352 -4.7e-4,0.0628 -0.10592,0.24279 -0.23444,0.3999 -0.15518,0.18972 -0.19398,0.2089 -0.11558,0.0571 0.15499,-0.2999 0.28771,-0.49225 0.33319,-0.49224 z m -4.4804,0.23531 c -0.0179,1.9e-4 -0.0573,0.0287 -0.12323,0.0833 -0.0958,0.0795 -0.17402,0.16383 -0.17402,0.18756 0,0.12801 0.21458,0.0157 0.27605,-0.14442 0.0329,-0.0857 0.0427,-0.12672 0.0212,-0.12649 z m -3.77535,0.0856 c -0.0277,0 -0.0822,0.0515 -0.12098,0.11421 -0.0389,0.0628 -0.0162,0.1142 0.0504,0.1142 0.0665,0 0.12097,-0.0515 0.12097,-0.1142 0,-0.0628 -0.0227,-0.11421 -0.0504,-0.11421 z m 9.0442,0.12148 c -0.0392,-7.5e-4 -0.11859,0.0739 -0.26408,0.23752 -0.21689,0.24382 -0.21675,0.24413 0.0394,0.0867 0.1414,-0.0868 0.25706,-0.19696 0.25706,-0.24469 0,-0.0517 -0.008,-0.0792 -0.0324,-0.0796 z m -8.76718,0.30533 c -0.0848,-0.004 -0.10592,0.0717 0.0101,0.21182 0.0736,0.0887 0.21361,0.16119 0.31117,0.16119 0.14518,0 0.13747,-0.0388 -0.0426,-0.21387 -0.10843,-0.10542 -0.21294,-0.15624 -0.27894,-0.15914 z m 0.61017,0.0628 c -0.0149,9.4e-4 -0.0247,0.0382 -0.028,0.11019 -0.007,0.14021 0.0775,0.19993 0.28063,0.19993 0.25035,0 0.27372,0.0299 0.17213,0.21966 -0.0924,0.17284 -0.063,0.28119 0.13881,0.50865 0.14098,0.15897 0.27348,0.24009 0.29442,0.18026 0.0545,-0.15561 0.36181,-0.13478 0.36181,0.0244 0,0.24068 0.14412,-0.005 0.17662,-0.30095 0.0319,-0.28991 -0.10127,-0.38957 -0.23376,-0.1751 -0.10114,0.16358 -0.51166,0.14133 -0.52733,-0.0286 -0.008,-0.0785 -0.0201,-0.21993 -0.0287,-0.31419 -0.008,-0.0942 0.0617,-0.21051 0.15601,-0.25831 0.0942,-0.0478 -0.0167,-0.0592 -0.24651,-0.0254 -0.28085,0.0414 -0.43711,0.0137 -0.47656,-0.0845 -0.0154,-0.0384 -0.0289,-0.0569 -0.0397,-0.0564 z m -1.80518,0.005 c -0.0356,-9.4e-4 -0.0599,0.0236 -0.0599,0.0692 0,0.0665 0.0515,0.12097 0.1142,0.12097 0.0628,0 0.1142,-0.0225 0.1142,-0.0504 0,-0.0277 -0.0515,-0.0822 -0.1142,-0.12098 -0.0195,-0.0126 -0.0382,-0.0182 -0.0543,-0.019 z m 4.36977,0.0283 c -0.0254,9.4e-4 -0.0569,0.007 -0.0952,0.0167 -0.12022,0.0315 -0.19052,0.10279 -0.1561,0.15845 0.093,0.1504 0.24494,0.12274 0.31397,-0.0572 0.0319,-0.0832 0.0133,-0.12111 -0.0627,-0.11797 z m -4.82044,0.11935 c -0.0367,9.4e-4 -0.0755,0.007 -0.11433,0.0131 -0.21831,0.0418 -0.2899,0.13505 -0.31692,0.41312 -0.0288,0.29644 -0.0898,0.36555 -0.34911,0.39539 -0.17282,0.0198 -0.31421,0.0808 -0.31421,0.13526 0,0.13023 0.61716,0.0183 0.66645,-0.12085 0.0209,-0.0591 0.14805,-0.0303 0.28251,0.0639 0.30118,0.21096 0.49389,0.21819 0.56941,0.0213 0.0413,-0.10743 -0.0322,-0.13666 -0.25989,-0.10328 -0.17456,0.0256 -0.3525,-0.0101 -0.39541,-0.0797 -0.13244,-0.21427 0.0532,-0.58126 0.29394,-0.58126 0.12512,0 0.20004,-0.0445 0.1664,-0.0989 -0.0252,-0.0408 -0.11834,-0.0625 -0.22883,-0.0583 z m 3.84249,0.0508 c -0.51218,-0.007 -0.5819,0.0163 -0.45705,0.1519 0.10228,0.11094 0.19066,0.1245 0.28881,0.0442 0.17707,-0.14476 0.31177,0.15075 0.22316,0.4896 -0.0482,0.18444 -0.0291,0.20688 0.0912,0.10705 0.18464,-0.15322 0.34523,0.0385 0.2145,0.25611 -0.0684,0.11395 -0.0503,0.11407 0.0894,9.4e-4 0.0964,-0.0781 0.20784,-0.10918 0.24768,-0.0694 0.0397,0.0397 0.15915,7.5e-4 0.26515,-0.0867 0.14969,-0.12361 0.20345,-0.12721 0.24079,-0.0163 0.0638,0.18932 0.60401,0.17606 0.8642,-0.0212 0.26481,-0.20077 0.0537,-0.34868 -0.25891,-0.18139 -0.23492,0.12573 -0.69052,-0.0497 -0.69052,-0.26597 0,-0.0547 -0.0979,0.0214 -0.2176,0.1693 -0.21306,0.26312 -0.22255,0.26429 -0.45252,0.0562 -0.26417,-0.23907 -0.2696,-0.43347 -0.0154,-0.54865 0.0943,-0.0427 -0.10052,-0.0814 -0.43296,-0.0857 z m 5.72679,0.15687 c -0.0209,-9.4e-4 -0.0511,0.005 -0.0893,0.0201 -0.0975,0.0374 -0.17732,0.0882 -0.17732,0.11295 0,0.0925 0.21774,0.0405 0.28484,-0.068 0.025,-0.0405 0.0164,-0.0631 -0.0183,-0.0649 z m -3.74859,0.10178 c -0.0356,-9.4e-4 -0.0599,0.0236 -0.0599,0.0692 0,0.0665 0.0515,0.12098 0.11433,0.12098 0.0629,0 0.11432,-0.0227 0.11432,-0.0504 0,-0.0277 -0.0515,-0.0822 -0.11432,-0.12097 -0.0195,-0.0126 -0.0381,-0.0183 -0.0543,-0.019 z m -8.31726,0.0761 c 0.12257,0 0.14018,0.0416 0.0602,0.1428 -0.0621,0.0785 -0.13611,0.21742 -0.16447,0.30858 -0.0348,0.11194 -0.077,0.12449 -0.12995,0.0389 -0.11384,-0.18419 0.0323,-0.49027 0.23417,-0.49027 z m 9.03365,0.41585 c -0.26347,0.008 -0.39799,0.18074 -0.1152,0.28386 0.10768,0.0393 0.29859,0.0175 0.42427,-0.0485 0.21369,-0.11207 0.20657,-0.12565 -0.10968,-0.21066 -0.071,-0.0191 -0.13865,-0.0264 -0.19944,-0.0247 z m -8.70432,0.0849 c 0.0136,-4.6e-4 0.0286,0.004 0.0443,0.0134 0.0628,0.0388 0.11425,0.11897 0.11425,0.17813 0,0.0591 -0.0514,0.10754 -0.11425,0.10754 -0.0628,0 -0.11429,-0.0802 -0.11429,-0.17811 0,-0.0734 0.0289,-0.11909 0.0699,-0.12085 z m 12.33908,0.0706 c -0.0247,0 -0.0744,0.077 -0.11068,0.17138 -0.0362,0.0942 -0.016,0.17139 0.0449,0.17139 0.0609,0 0.11068,-0.077 0.11068,-0.17139 0,-0.0942 -0.0202,-0.17138 -0.0449,-0.17138 z m -13.17582,0.0634 c 0.0683,5e-5 0.14053,0.0168 0.19064,0.0478 0.0989,0.0611 0.1117,0.15092 0.0398,0.27938 -0.0969,0.17315 -0.12279,0.17067 -0.30384,-0.0294 -0.16061,-0.17747 -0.16812,-0.23017 -0.0398,-0.27941 0.0326,-0.0126 0.0722,-0.0184 0.11321,-0.0184 z m 12.59906,0.0508 c -0.0277,0 -0.0822,0.0515 -0.12097,0.11419 -0.0388,0.0629 -0.0162,0.1142 0.0505,0.1142 0.0665,0 0.12098,-0.0515 0.12098,-0.1142 0,-0.0628 -0.0227,-0.11419 -0.0504,-0.11419 z m -2.13374,0.17982 c -0.0609,0.003 -0.10103,0.0237 -0.10103,0.0594 0,0.0569 0.10291,0.10354 0.22854,0.10354 0.12569,0 0.22852,-0.0197 0.22852,-0.0438 0,-0.024 -0.10279,-0.0707 -0.22852,-0.10354 -0.0472,-0.0126 -0.0911,-0.0172 -0.12754,-0.0156 z m -9.72124,0.31698 c 0.058,1.8e-4 0.0989,0.0371 0.0988,0.0981 -6e-5,0.0812 -0.14573,0.15852 -0.32372,0.17171 -0.17799,0.0131 -0.32363,-0.0254 -0.32363,-0.0857 0,-0.0602 0.0729,-0.10969 0.16206,-0.10969 0.0892,0 0.23479,-0.0279 0.32371,-0.062 0.0223,-0.008 0.0434,-0.0126 0.0628,-0.0126 z m -0.17108,0.3542 c 0.037,-2e-5 0.0496,0.0191 0.0277,0.0546 -0.035,0.0567 8.5e-4,0.12924 0.0798,0.16105 0.11405,0.0459 0.11421,0.0598 7.5e-4,0.0669 -0.0785,0.005 -0.14283,0.11482 -0.14283,0.24427 0,0.12938 0.0514,0.20348 0.11425,0.16465 0.0629,-0.0388 0.11424,-0.0162 0.11424,0.0504 h 4e-5 c 0,0.0665 -0.12497,0.12097 -0.27768,0.12097 -0.2526,0 -0.26903,-0.0302 -0.18184,-0.33417 0.0527,-0.18379 0.0726,-0.35738 0.0442,-0.38576 -0.0284,-0.0284 0.0304,-0.0831 0.13061,-0.1216 0.0376,-0.0145 0.0686,-0.0213 0.0908,-0.0213 z m 10.6155,0.14003 c -0.0399,9.4e-4 -0.0837,0.005 -0.12959,0.0113 -0.41604,0.0611 -0.67036,0.55804 -0.47365,0.9256 0.11194,0.20912 0.0845,0.24702 -0.2475,0.34284 -0.35467,0.10241 -0.34335,0.10831 0.22653,0.1181 0.63102,0.0113 0.78277,-0.0101 0.75323,-0.10404 -0.0101,-0.0314 -0.0356,-0.15995 -0.0571,-0.28563 -0.0216,-0.12569 -0.0872,-0.26314 -0.14606,-0.30548 -0.15042,-0.10831 0.1462,-0.43717 0.39432,-0.43717 0.38206,0 0.54423,0.71082 0.23316,1.02191 -0.21833,0.21831 -0.21796,0.22142 0.0292,0.26945 0.82924,0.16115 1.62752,-0.005 0.9927,-0.20595 -0.14602,-0.0463 -0.2285,-0.17286 -0.2285,-0.35045 0,-0.20176 0.0626,-0.27794 0.2285,-0.27794 0.12567,0 0.22851,-0.0691 0.22851,-0.15331 0,-0.17677 -0.71644,-0.41796 -1.24151,-0.41796 -0.19695,0 -0.35808,-0.0426 -0.35808,-0.0945 0,-0.0389 -0.0845,-0.0602 -0.20413,-0.0571 z m -8.94582,0.16563 c 0.0396,9.4e-4 0.0737,0.0126 0.0927,0.0311 0.0379,0.0379 -0.0295,0.065 -0.14997,0.06 -0.1331,-0.005 -0.16018,-0.0325 -0.0691,-0.0691 0.0412,-0.0164 0.0865,-0.0237 0.1262,-0.0221 z m 4.57703,0.10015 c -0.22217,0 -0.33898,0.19711 -0.25389,0.42846 0.0653,0.17743 0.28348,0.18446 0.45331,0.0147 0.1747,-0.1747 0.0539,-0.44311 -0.19942,-0.44311 z m 0.003,0.1142 c 0.0628,0 0.11419,0.0515 0.11419,0.11419 0,0.0629 -0.0515,0.11421 -0.11419,0.11421 -0.0629,0 -0.1142,-0.0515 -0.1142,-0.11421 0,-0.0628 0.0515,-0.11419 0.1142,-0.11419 z m -1.18712,0.0444 c -0.0359,5e-5 -0.0846,0.0591 -0.11947,0.15065 -0.062,0.16284 -0.049,0.17594 0.064,0.064 0.0781,-0.0775 0.11319,-0.16971 0.0781,-0.20488 -0.007,-0.007 -0.0142,-0.01 -0.0224,-0.01 z m 5.87519,0.0699 c -0.14756,0 -0.20651,0.059 -0.17138,0.17137 l 0.10705,0.34276 c 0.0295,0.0942 0.10654,0.17138 0.17138,0.17138 0.16988,0 0.14568,-0.34101 -0.025,-0.35179 -0.1142,-0.008 -0.1142,-0.0206 0,-0.0666 0.22243,-0.0897 0.16789,-0.26709 -0.0821,-0.26709 z m -7.52021,0.0769 c -0.0424,2.8e-4 -0.0239,0.0714 0.0877,0.20588 0.0795,0.0958 0.18963,0.17417 0.24477,0.17417 0.0551,0 0.0101,-0.0943 -0.0996,-0.20946 -0.11043,-0.11571 -0.19539,-0.1708 -0.23283,-0.17059 z m 8.2425,0.19096 c 0.0101,1.9e-4 0.0235,0.0179 0.0378,0.0535 0.033,0.0825 0.029,0.18105 -0.008,0.219 -0.0379,0.038 -0.065,-0.0295 -0.06,-0.14995 0.004,-0.0811 0.0147,-0.12286 0.0314,-0.12249 z m -9.80457,0.007 c 0.0141,1.9e-4 0.0255,0.004 0.0332,0.0113 0.0418,0.0418 -0.0237,0.14892 -0.1456,0.23805 -0.33255,0.24315 -0.43936,0.19496 -0.16841,-0.0761 0.10637,-0.10642 0.21961,-0.17446 0.28076,-0.17384 z m -1.72484,0.10555 c 0.0307,2.8e-4 0.0727,0.0513 0.10293,0.13004 0.0772,0.20133 0.0115,0.23673 -0.10126,0.0545 -0.0414,-0.067 -0.0508,-0.14634 -0.0209,-0.1763 0.006,-0.005 0.012,-0.008 0.0192,-0.008 z m -0.50106,2.70573 c 0.0665,0 0.0892,0.0515 0.0504,0.11419 -0.0388,0.0629 -0.0933,0.11421 -0.12099,0.11421 -0.0277,0 -0.0504,-0.0515 -0.0504,-0.11421 0,-0.0628 0.0545,-0.11419 0.12099,-0.11419 z m 7.80186,0.49862 c -0.1929,0.003 -0.3566,0.0126 -0.45972,0.0306 -0.44457,0.0789 -0.5356,0.27815 -0.31788,0.69553 0.0911,0.17476 0.16603,0.4035 0.16643,0.50834 4.7e-4,0.10478 0.0317,0.27155 0.0698,0.3705 0.0851,0.22169 0.53297,0.14304 0.98322,-0.17266 0.17028,-0.11934 0.40162,-0.22315 0.51415,-0.23059 0.11256,-0.008 0.0532,-0.0459 -0.13172,-0.0857 -0.64267,-0.13793 -0.35,-0.37674 0.65048,-0.53074 0.46537,-0.0717 0.58191,-0.33427 0.20184,-0.45489 -0.25641,-0.0814 -1.09784,-0.13805 -1.67653,-0.13037 z m -3.53549,0.0739 c -0.49884,-0.008 -0.85952,0.0707 -1.87053,0.41137 -0.31926,0.10755 0.1309,0.26929 0.7549,0.27114 0.60072,9.4e-4 1.58423,0.3137 1.12714,0.35746 -0.12569,0.0126 -0.27993,0.0337 -0.34276,0.0485 -0.0628,0.0146 -0.19141,0.0398 -0.28567,0.056 -0.0943,0.0162 0.0303,0.0606 0.27672,0.0989 0.24646,0.0382 0.47167,0.14101 0.50049,0.22845 0.0391,0.11822 -0.027,0.14385 -0.25728,0.0998 -0.29088,-0.0556 -0.64871,-0.005 -1.31972,0.18776 l -0.28562,0.0819 0.28562,-0.24629 c 0.2086,-0.17987 0.22919,-0.22804 0.0763,-0.17856 -0.11508,0.0373 -0.24542,0.0677 -0.28957,0.0677 -0.0442,0 -0.16851,0.14936 -0.27634,0.33192 l -0.19605,0.33188 0.42849,-0.0438 c 0.23568,-0.0241 0.82697,-0.0751 1.31398,-0.1132 0.63233,-0.0496 0.88549,-0.11344 0.88549,-0.22341 0,-0.0847 0.14003,-0.17034 0.3112,-0.19021 0.2541,-0.0295 0.34419,-0.13047 0.49111,-0.5503 0.26479,-0.75667 0.18499,-1.0027 -0.32775,-1.01053 -0.22959,-0.004 -0.67969,-0.0113 -1.0002,-0.0164 z m 5.08637,1.15537 c -0.0396,-9.3e-4 -0.0849,0.005 -0.12616,0.0221 -0.0911,0.0365 -0.0642,0.0635 0.0691,0.0691 0.12047,0.005 0.18796,-0.0221 0.14998,-0.0599 -0.019,-0.019 -0.0531,-0.0295 -0.0928,-0.0311 z m -0.47324,0.46227 c -0.0944,7.5e-4 -0.19392,0.007 -0.29968,0.0177 -0.64193,0.0662 -0.76353,0.11533 -0.66799,0.2696 0.0318,0.0513 0.63416,0.11094 1.33865,0.1324 0.95122,0.0291 1.25979,0.005 1.19892,-0.0935 -0.0451,-0.0729 -0.15261,-0.10555 -0.23897,-0.0724 -0.0863,0.0332 -0.35074,-0.0207 -0.58748,-0.11959 -0.22289,-0.0931 -0.46024,-0.13674 -0.74345,-0.13428 z m 5.1129,0.93293 c -0.0356,-9.4e-4 -0.0599,0.0236 -0.0599,0.0692 0,0.0665 0.0515,0.12098 0.11421,0.12098 0.0629,0 0.11432,-0.0227 0.11432,-0.0504 0,-0.0277 -0.0515,-0.0822 -0.11432,-0.12097 -0.0195,-0.0126 -0.0381,-0.0182 -0.0543,-0.019 z m -7.83614,1.10436 c -0.83445,0 -0.87012,0.0221 -1.10081,0.68033 -0.0974,0.27807 -0.10278,0.43758 -0.0179,0.53971 0.0964,0.11621 0.18984,0.10906 0.47054,-0.0362 0.34488,-0.17834 0.4205,-0.17706 1.7108,0.0292 0.32972,0.0527 0.44337,0.0265 0.49757,-0.11483 0.0386,-0.10065 0.11633,-0.15466 0.17255,-0.11985 0.15241,0.0943 0.11683,-0.0848 -0.0811,-0.40727 -0.0964,-0.15711 -0.1482,-0.19733 -0.11521,-0.0893 0.1127,0.36832 -0.143,0.32299 -0.45027,-0.0798 -0.29795,-0.39061 -0.32877,-0.40202 -1.08613,-0.40202 z m -5.97829,2.17085 c -0.0241,0 -0.0684,0.12854 -0.0984,0.28563 -0.0301,0.1571 -0.0102,0.28564 0.0438,0.28564 0.0541,0 0.0984,-0.12854 0.0984,-0.28564 0,-0.15709 -0.0197,-0.28563 -0.0438,-0.28563 z m 13.04845,0.16839 c -0.0462,0.003 -0.0611,0.10918 -0.0938,0.36098 -0.0401,0.31043 -0.007,0.48179 0.1142,0.57628 0.14202,0.11143 0.18719,0.0751 0.26357,-0.21237 0.0707,-0.26573 0.044,-0.40047 -0.11433,-0.57626 -0.0859,-0.0954 -0.13613,-0.15006 -0.16983,-0.14863 z m -7.31809,0.0543 c -0.30927,0.0126 -0.59859,0.0747 -0.83915,0.18879 -0.43412,0.206 -1.41973,1.03749 -1.41973,1.19773 0,0.19152 0.18238,0.10805 0.50911,-0.23298 0.50158,-0.52354 0.96627,-0.6908 1.91906,-0.6908 0.89077,0 1.43419,0.1305 1.91356,0.45952 0.15711,0.1078 0.41417,0.23105 0.57128,0.27383 0.27704,0.0754 0.27532,0.0689 -0.0571,-0.2159 -0.18852,-0.16152 -0.6466,-0.44688 -1.01798,-0.63408 -0.49274,-0.2484 -1.06357,-0.36666 -1.57901,-0.34611 z m 0.21013,0.91979 c -0.76238,0 -1.11568,0.0474 -1.27606,0.17138 -0.21921,0.1694 -0.21912,0.17342 0.007,0.34785 0.16986,0.13118 0.34584,0.1545 0.68555,0.0909 0.56397,-0.10567 0.88963,-0.10266 1.51388,0.0139 0.46685,0.0872 0.4856,0.0796 0.4856,-0.1973 0,-0.37813 -0.16128,-0.42672 -1.41572,-0.42672 z m -1.36423,0.72998 c -0.0307,0 -0.0781,0.0237 -0.1336,0.0698 -0.0942,0.0782 -0.17137,0.16002 -0.17137,0.18179 0,0.0217 0.077,0.01 0.17137,-0.0262 0.0942,-0.0362 0.17139,-0.11796 0.17139,-0.18182 0,-0.0292 -0.0139,-0.0435 -0.0378,-0.0435 z m 7.93789,0.83053 c -0.1029,-0.007 -0.15477,0.0581 -0.2304,0.22415 -0.0709,0.15547 -0.1288,0.33166 -0.1288,0.39155 0,0.0599 0.0515,0.10893 0.1142,0.10893 0.0628,0 0.11421,-0.0541 0.11421,-0.1201 0,-0.066 0.17994,-0.19529 0.39988,-0.28719 0.21995,-0.0919 0.39989,-0.19515 0.39989,-0.22943 0,-0.0343 -0.0471,-0.0333 -0.10466,0.003 -0.0576,0.0355 -0.23096,0.0167 -0.38535,-0.042 -0.0749,-0.0285 -0.13227,-0.0456 -0.17907,-0.0482 z m -9.95268,0.49609 c -0.0606,0 -0.16527,0.10278 -0.23253,0.22851 -0.13219,0.24699 -0.11382,0.26503 0.16202,0.15915 0.19501,-0.0748 0.25192,-0.38766 0.0706,-0.38766 z m 9.22822,0.47975 c -0.0199,4.7e-4 -0.0537,0.0326 -0.0918,0.0915 -0.0609,0.0942 -0.1108,0.2228 -0.1108,0.28564 0,0.0628 0.0498,0.0371 0.1108,-0.0571 0.0609,-0.0942 0.11069,-0.22281 0.11069,-0.28564 0,-0.0236 -0.008,-0.0347 -0.019,-0.0344 z m 0.74699,1.04176 c -0.0269,9.4e-4 -0.0364,0.0717 -0.0373,0.22087 -9.3e-4,0.17282 0.0497,0.31422 0.11257,0.31422 0.14446,0 0.14446,-0.23347 0,-0.45702 -0.0337,-0.0522 -0.0581,-0.0792 -0.0753,-0.0781 z m 1.11065,1.55101 c -0.036,0 -0.0621,0.008 -0.0749,0.0296 -0.0657,0.10618 0.2492,0.53927 0.63117,0.86827 0.31318,0.26975 0.59105,0.15576 0.49701,-0.20387 -0.0608,-0.23236 -0.80101,-0.69286 -1.05332,-0.69401 z m 4.57598,1.49772 c -0.17248,0 -0.15837,0.0392 0.21571,0.59842 0.32476,0.48552 0.40659,0.52081 0.48781,0.21027 0.0614,-0.23446 -0.43825,-0.80869 -0.70352,-0.80869 z m -20.8237,0.23947 c 0.04179,-4.7e-4 0.08607,0.0313 0.129095,0.1009 0.05132,0.0831 0.184283,0.11031 0.323033,0.0662 0.170432,-0.0541 0.271139,-0.008 0.363205,0.16318 0.104763,0.19575 0.196094,0.22514 0.514227,0.16545 0.37494,-0.0703 0.38553,-0.0622 0.34416,0.26466 -0.0235,0.18547 -0.14804,0.52478 -0.2768,0.75406 -0.12878,0.22926 -0.183598,0.41687 -0.12184,0.41687 0.0618,0 0.11229,0.10279 0.11229,0.22851 0,0.12568 0.0494,0.22851 0.10988,0.22851 0.0604,0 0.16698,0.21219 0.23682,0.47155 0.0698,0.25936 0.0846,0.50758 0.033,0.55158 -0.1551,0.13196 -0.47861,0.005 -0.548567,-0.21561 -0.03598,-0.11332 -0.166952,-0.29796 -0.291028,-0.41025 -0.124076,-0.11232 -0.225587,-0.31617 -0.225587,-0.45305 0,-0.13689 -0.0356,-0.28451 -0.07912,-0.32802 -0.04351,-0.0435 -0.09594,-0.18942 -0.116522,-0.32425 -0.05118,-0.33536 -0.247127,-0.54874 -0.503891,-0.54874 -0.177654,0 -0.21453,-0.0872 -0.21453,-0.50744 0,-0.37494 0.09668,-0.62278 0.212206,-0.62417 z m 15.50892,1.36011 c -0.14069,0 -0.0609,0.3899 0.1211,0.59085 0.22711,0.25096 0.31226,0.25946 0.48717,0.0487 0.10605,-0.12779 0.0649,-0.20874 -0.20359,-0.39989 -0.18511,-0.13183 -0.36719,-0.23966 -0.40462,-0.23966 z m 2.96616,1.29369 c -0.0195,0 -0.0369,0.004 -0.0515,0.0128 -0.17261,0.10667 -0.16072,0.17829 0.10089,0.60734 0.24301,0.39855 0.53639,0.48428 0.64941,0.18973 0.0784,-0.20424 -0.46764,-0.80679 -0.69884,-0.80982 z"
       sodipodi:nodetypes="cssssscscssssssssssssssssssssssssssssssssssssssssssssssccsssssssssssssssssssscsssssssssssssssssccsssccscssssssssssssssssssssssssssssssssssssssssssssssssssssssssscsssssssssssssssssssscccsssscscssssssssssssssssssssssssssssssssssssssssssssssssssssssssssssssssssssssssssssssssssssssssssssscsscsssssssssscsssssssssssssssssssssssssssssscssssssssccssssssscsssssssssscssscssscsssssssssssssssssssssssssssssssssssssssssscssssssssssssssssssssssssssssssssssssssssssssssssssssssssssssscsssscssssssssssscssssscssssssccssssssssssssssssssssssssssssssssssssssssssssccssssssssscsssccssscssssssssssccssssssssccssssssssscsssscsssssscccsscssssssssssssssssssssssssssssssssssssssssssssssssssssssssssscssssssssccsssscssssccsssccssscsssscsssssssssssssssssscsssssccssc"
       transform="translate(-84.55918,-128.66483)" /></g><g
     inkscape:label="engrave"
     inkscape:groupmode="layer"
     id="layer1"
     transform="translate(-84.55918,-128.66483)"
     style="display:inline"><path
       style="font-size:3.88056px;font-family:'URW Bookman';-inkscape-font-specification:'URW Bookman, Normal';text-align:center;letter-spacing:0px;word-spacing:-0.177271px;text-anchor:middle;display:inline;stroke:#000000;stroke-width:0.11;stroke-linejoin:round"
       d="m 132.74126,154.49136 -2.43832,1.2874 -0.0217,0.3408 2.07965,0.13237 c 0.32506,0.0246 0.39956,0.076 0.40998,0.27884 l 0.005,0.0976 0.12006,0.008 0.0609,-0.95656 -0.12005,-0.008 -0.0203,0.13481 c -0.036,0.1999 -0.12034,0.24119 -0.44202,0.22461 l -1.52972,-0.0974 2.16775,-1.12964 0.055,-0.86362 -0.12006,-0.008 -0.0178,0.0961 c -0.036,0.1999 -0.11647,0.24144 -0.44202,0.22461 l -1.52198,-0.0969 c -0.32506,-0.0246 -0.39956,-0.076 -0.40998,-0.27884 l -0.005,-0.0976 -0.12006,-0.008 -0.0609,0.95656 0.12006,0.008 0.0202,-0.1348 c 0.0361,-0.19991 0.12034,-0.2412 0.44203,-0.22461 z m -0.73665,2.9569 c 0.0442,-0.26801 -0.005,-0.51993 -0.14019,-0.69962 -0.14193,-0.1886 -0.40757,-0.34256 -0.67559,-0.38679 -0.57814,-0.0954 -1.01848,0.21344 -1.11262,0.78393 -0.0916,0.55517 0.22935,0.99357 0.79601,1.08708 0.24887,0.0411 0.5161,-0.005 0.7156,-0.1179 0.21798,-0.12922 0.36751,-0.36805 0.41679,-0.6667 z m -0.15378,-0.0214 c -0.0569,0.34459 -0.40494,0.49953 -0.93331,0.41234 -0.48626,-0.0802 -0.74439,-0.32735 -0.68879,-0.66428 0.0588,-0.35608 0.38643,-0.50653 0.90331,-0.42123 0.49009,0.0809 0.77313,0.34389 0.71879,0.67317 z m -1.20984,2.96413 0.0967,0.21269 c 0.1277,0.2832 0.15424,0.48637 0.10243,0.81155 l 0.11122,0.0344 0.30494,-0.98616 -0.10751,-0.0332 c -0.0558,0.14114 -0.1124,0.19271 -0.18654,0.16978 -0.0445,-0.0138 -0.0647,-0.0403 -0.10993,-0.14366 l -0.32536,-0.73426 1.73504,0.53651 0.0459,-0.14829 c -0.0157,-0.21201 -0.0104,-0.30786 0.0367,-0.56543 l -0.11493,-0.0355 -0.0326,0.0793 c -0.089,0.19588 -0.17205,0.21488 -0.48974,0.11259 l -1.56821,-0.48493 c -0.20391,-0.0631 -0.27225,-0.1573 -0.23664,-0.32501 l 0.0212,-0.095 -0.11122,-0.0344 -0.30838,0.99728 0.11122,0.0344 0.0372,-0.0941 c 0.0593,-0.15227 0.17259,-0.19034 0.37764,-0.131 l 0.30771,0.0951 0.16295,0.3794 -0.68389,0.21502 c -0.10361,0.0329 -0.20034,0.0437 -0.25595,0.0265 -0.0482,-0.0149 -0.0627,-0.06 -0.0483,-0.13273 l 0.0235,-0.10239 -0.11122,-0.0344 -0.30953,1.00099 0.11864,0.0367 c 0.0824,-0.16137 0.22234,-0.27245 0.44642,-0.35344 z m -0.002,1.81195 0.0481,-0.12284 c 0.0466,-0.23597 0.0753,-0.36228 0.13587,-0.55944 l -0.10839,-0.0425 -0.0355,0.0694 c -0.0967,0.18299 -0.17294,0.20731 -0.39333,0.12094 l -0.84907,-0.33272 c -0.19871,-0.0779 -0.25994,-0.17689 -0.2121,-0.34153 l 0.0282,-0.0932 -0.10839,-0.0425 -0.37945,0.96829 0.10839,0.0425 0.0412,-0.0839 c 0.0768,-0.15331 0.18895,-0.18437 0.38767,-0.10649 z m 0.67574,0.0731 c 0.0481,-0.12284 -0.0112,-0.25862 -0.13042,-0.30535 -0.12284,-0.0481 -0.25862,0.0112 -0.30676,0.13403 -0.0467,0.11923 0.0126,0.25501 0.13544,0.30315 0.11923,0.0467 0.25501,-0.0126 0.30174,-0.13183 z m -1.06508,0.84692 0.0571,-0.11894 c 0.0622,-0.23704 0.10361,-0.3592 0.18369,-0.56182 l -0.10494,-0.0504 -0.0473,0.0806 c -0.11002,0.17533 -0.18783,0.19393 -0.40122,0.0915 l -0.82206,-0.39476 c -0.1924,-0.0924 -0.24612,-0.19567 -0.1862,-0.35631 l 0.035,-0.0908 -0.10494,-0.0504 -0.45187,0.941 0.10494,0.0504 0.049,-0.0841 c 0.0879,-0.1472 0.2021,-0.16985 0.3945,-0.0775 l 0.86404,0.41492 c 0.0917,0.31095 0.0906,0.56438 -0.003,0.76027 -0.0924,0.1924 -0.26522,0.23855 -0.4926,0.12936 l -0.80807,-0.38804 c -0.19239,-0.0924 -0.24443,-0.19917 -0.18619,-0.35631 l 0.035,-0.0908 -0.10495,-0.0504 -0.45187,0.94099 0.10495,0.0504 0.049,-0.0841 c 0.0879,-0.14719 0.20209,-0.16984 0.39449,-0.0774 l 0.86404,0.41491 c 0.29035,0.13943 0.55582,0.0258 0.71541,-0.30648 0.12934,-0.26936 0.13932,-0.51424 0.0382,-0.86844 z m -2.43487,1.20279 c 0.10982,-0.13775 0.18969,-0.18033 0.26622,-0.1344 0.0632,0.0379 0.0925,0.13244 0.0845,0.25889 -0.12513,0.11046 -0.17305,0.16769 -0.24094,0.28082 -0.14378,0.23957 -0.19039,0.46051 -0.14249,0.65219 0.0386,0.1544 0.15237,0.30415 0.28214,0.38203 0.183,0.10983 0.41793,0.11052 0.63822,0.007 0.0612,0.13178 0.0712,0.20565 0.0372,0.26222 -0.014,0.0233 -0.0253,0.0346 -0.0759,0.0586 -0.0453,0.0226 -0.0732,0.0466 -0.0932,0.0798 -0.0459,0.0765 -0.026,0.15639 0.0506,0.20232 0.0832,0.0499 0.18701,0.0127 0.25091,-0.0938 0.0619,-0.10315 0.0845,-0.23891 0.0546,-0.34739 -0.016,-0.0639 -0.0353,-0.10715 -0.10712,-0.23627 0.12979,-0.10314 0.19035,-0.16636 0.25425,-0.27283 0.22765,-0.37932 0.1485,-0.84319 -0.18091,-1.04088 -0.19299,-0.11582 -0.40129,-0.12316 -0.63423,-0.014 0.0606,-0.26687 0.0193,-0.43192 -0.13704,-0.52577 -0.1331,-0.0799 -0.26021,-0.0566 -0.42527,0.0752 0.0546,-0.30214 0.01,-0.46918 -0.15301,-0.56703 -0.23957,-0.14378 -0.61361,0.10243 -0.91314,0.60153 -0.32549,0.54236 -0.32354,1.0142 0.006,1.21189 0.0932,0.0559 0.19233,0.0792 0.2855,0.0673 0.13377,-0.0193 0.25224,-0.11112 0.4253,-0.32406 z m 1.14257,1.05229 c -0.13778,0.22959 -0.35674,0.24754 -0.67283,0.0578 -0.3161,-0.1897 -0.40127,-0.39469 -0.25949,-0.63093 0.14378,-0.23957 0.36473,-0.26084 0.68415,-0.0691 0.29281,0.17572 0.38596,0.41266 0.24817,0.64224 z m -1.85936,-0.71761 c -0.17771,0.22825 -0.29884,0.28681 -0.42861,0.20893 -0.18966,-0.11382 -0.15568,-0.44192 0.0839,-0.8412 0.22964,-0.38264 0.51716,-0.56763 0.70349,-0.4558 0.12644,0.0759 0.17501,0.23627 0.13372,0.45589 z m 0.33617,3.13808 c 0.16837,-0.21317 0.24744,-0.4573 0.21575,-0.68013 -0.033,-0.23373 -0.19098,-0.49698 -0.40415,-0.66534 -0.45984,-0.36319 -0.99463,-0.30591 -1.353,0.14784 -0.34875,0.44157 -0.27993,0.98053 0.17077,1.3365 0.19795,0.15633 0.45426,0.24503 0.68333,0.243 0.25328,-0.008 0.4997,-0.14434 0.6873,-0.38187 z m -0.12421,-0.0932 c -0.21647,0.27407 -0.59606,0.24129 -1.01632,-0.0906 -0.38675,-0.30546 -0.49312,-0.64661 -0.28147,-0.91459 0.22369,-0.28322 0.58324,-0.25637 0.99436,0.0683 0.3898,0.30786 0.51027,0.67498 0.30343,0.93688 z m -0.86021,1.01467 -0.96855,-0.8787 c -0.15807,-0.14341 -0.18011,-0.25772 -0.0769,-0.3946 l 0.0594,-0.0771 -0.0862,-0.0782 -0.70139,0.77311 0.0862,0.0782 0.0709,-0.0666 c 0.12622,-0.11603 0.24213,-0.10518 0.40021,0.0382 l 0.96855,0.8787 -0.25814,0.28453 0.0948,0.086 0.25813,-0.28453 0.30465,0.27639 c 0.10921,0.0991 0.15419,0.17656 0.16133,0.26687 0.006,0.0739 -0.0199,0.15482 -0.0643,0.20368 -0.0443,0.0489 -0.11479,0.0688 -0.2059,0.0595 -0.0911,-0.009 -0.15348,0.007 -0.20041,0.0592 -0.0626,0.069 -0.0625,0.18435 0.004,0.24432 0.0948,0.0861 0.25769,0.0452 0.38806,-0.0985 0.15384,-0.16957 0.25461,-0.41348 0.26614,-0.62832 0.009,-0.20649 -0.0606,-0.3432 -0.27045,-0.53354 l -0.13508,-0.12255 0.21902,-0.24142 -0.0948,-0.086 z m -1.63193,2.8364 0.27279,-0.23628 -0.61589,-1.73055 c -0.23792,-0.67181 -0.24942,-0.77992 -0.0859,-0.98828 l 0.0272,-0.0338 -0.0788,-0.0909 -0.78611,0.68088 0.0788,0.0909 c 0.1183,-0.0768 0.17833,-0.10825 0.22838,-0.11566 0.0694,-0.009 0.14447,0.0186 0.1902,0.0714 0.0381,0.044 0.0862,0.14098 0.13227,0.26533 l 0.12463,0.33356 -0.75678,0.65548 -0.4744,-0.25136 c -0.0663,-0.035 -0.12119,-0.0747 -0.14151,-0.0982 -0.0711,-0.0821 -0.048,-0.17401 0.0838,-0.32411 l 0.0209,-0.0233 -0.0788,-0.0909 -0.82424,0.71391 0.0788,0.0909 c 0.21606,-0.1358 0.27921,-0.13403 0.62109,0.0473 z m -0.44722,-1.58916 0.43659,1.16199 -1.09657,-0.59035 z m -2.57007,2.3575 c -0.0872,0.29598 -0.17756,0.44021 -0.32608,0.53923 -0.1679,0.11194 -0.33472,0.0506 -0.48972,-0.18187 l -0.46928,-0.70386 c -0.1184,-0.17758 -0.11195,-0.29382 0.0215,-0.40145 l 0.0538,-0.0452 -0.0646,-0.0969 -0.84593,0.564 0.0646,0.0969 0.085,-0.0474 c 0.15067,-0.0818 0.26045,-0.0431 0.37885,0.13452 l 0.52741,0.79104 c 0.18082,0.27121 0.44666,0.32717 0.71788,0.14634 0.21632,-0.14423 0.33363,-0.32504 0.43478,-0.67699 0.21634,0.1356 0.38854,0.12806 0.62101,-0.0269 0.22924,-0.15284 0.33794,-0.31859 0.42403,-0.63717 l 0.14423,0.21632 0.10977,-0.0732 c 0.16359,-0.16037 0.25507,-0.24002 0.4348,-0.38317 l -0.0646,-0.0969 -0.0721,0.0387 c -0.18404,0.0947 -0.26045,0.0711 -0.39177,-0.1259 l -0.50588,-0.75876 c -0.11839,-0.17758 -0.11194,-0.29381 0.0215,-0.40145 l 0.0764,-0.0603 -0.0646,-0.0969 -0.84593,0.564 0.0646,0.0969 0.0624,-0.0323 c 0.15068,-0.0818 0.26046,-0.0431 0.37886,0.13452 l 0.55539,0.83301 c -0.0796,0.28629 -0.16465,0.43159 -0.3164,0.53277 -0.18404,0.1227 -0.3358,0.07 -0.49295,-0.16572 l -0.47574,-0.71355 c -0.1184,-0.17758 -0.11194,-0.29382 0.0215,-0.40145 l 0.0635,-0.0517 -0.0646,-0.0969 -0.8427,0.56185 0.0646,0.0969 0.0721,-0.0387 c 0.15067,-0.0818 0.26045,-0.0431 0.37885,0.13452 z m -3.115,0.68465 c 0.0106,-0.29342 0.11274,-0.47679 0.33018,-0.58853 0.24505,-0.12594 0.48316,-0.0956 0.69696,0.0912 0.11386,0.0942 0.20916,0.23719 0.3351,0.48224 l -1.19766,0.61549 c 0.10633,0.19841 0.21505,0.29961 0.39635,0.37223 0.22143,0.0913 0.47809,0.0728 0.71969,-0.0514 0.47285,-0.243 0.63184,-0.7741 0.37642,-1.27111 -0.11884,-0.23125 -0.32397,-0.41815 -0.54707,-0.5042 -0.24577,-0.0962 -0.50066,-0.0743 -0.75952,0.0587 -0.31753,0.16319 -0.47102,0.40786 -0.49273,0.7986 z m 1.42283,0.1283 c 0.0503,0.15738 0.0616,0.23015 0.0436,0.33101 -0.021,0.13734 -0.10143,0.2441 -0.23949,0.31505 -0.25195,0.12948 -0.49586,0.0454 -0.63244,-0.22036 z m -1.58097,1.42805 0.12162,-0.0511 c 0.20372,-0.13619 0.31575,-0.20015 0.51005,-0.2987 l -0.0451,-0.10731 -0.0889,0.029 c -0.19861,0.0583 -0.26919,0.0206 -0.36095,-0.19761 l -0.35353,-0.84062 c -0.0827,-0.19674 -0.0545,-0.30967 0.0969,-0.39017 l 0.0864,-0.0448 -0.0451,-0.10731 -0.96224,0.40468 0.0451,0.10731 0.0924,-0.0305 c 0.16341,-0.0519 0.2639,0.007 0.34664,0.20363 l 0.36858,0.87639 c -0.0686,0.19724 -0.14111,0.29509 -0.24485,0.33872 -0.0608,0.0256 -0.0904,0.0254 -0.17431,0.006 -0.0824,-0.0159 -0.14362,-0.0112 -0.21158,0.0174 -0.11447,0.0481 -0.16572,0.16652 -0.11758,0.28099 0.0496,0.11804 0.19156,0.15519 0.34538,0.0905 0.0823,-0.0346 0.1606,-0.0886 0.2299,-0.16405 0.0708,-0.0719 0.0827,-0.0937 0.19269,-0.31257 0.008,-0.0117 0.0243,-0.0523 0.048,-0.096 z m -1.54803,0.59456 0.12445,-0.0438 c 0.20909,-0.11889 0.32344,-0.17972 0.51228,-0.26267 l -0.0387,-0.10981 -0.0758,0.0185 c -0.20173,0.0464 -0.26994,0.005 -0.34856,-0.21874 l -0.30288,-0.86016 c -0.0709,-0.20131 -0.0359,-0.31236 0.11996,-0.38371 l 0.0889,-0.0395 -0.0387,-0.10981 -0.98095,0.34542 0.0387,0.10981 0.0904,-0.0236 c 0.1662,-0.0421 0.26302,0.0226 0.33391,0.22389 z m 0.38619,0.5593 c 0.12445,-0.0438 0.18848,-0.17745 0.14594,-0.29824 -0.0438,-0.12445 -0.17745,-0.18848 -0.30189,-0.14465 -0.12079,0.0425 -0.18482,0.17616 -0.141,0.3006 0.0425,0.12079 0.17616,0.18482 0.29695,0.14229 z m -2.72514,-1.31315 c 0.13448,-0.32411 0.26238,-0.45689 0.49023,-0.52106 0.38846,-0.10941 0.72872,0.12534 0.86022,0.59225 0.0589,0.20917 0.0731,0.40272 0.0432,0.56838 -0.0354,0.20349 -0.15584,0.33416 -0.36128,0.39202 -0.19423,0.0547 -0.4024,-0.0116 -0.43922,-0.14237 l -0.0331,-0.13179 c -0.0305,-0.10832 -0.13209,-0.1684 -0.24414,-0.13684 -0.10833,0.0305 -0.16631,0.13956 -0.13369,0.25535 0.0358,0.127 0.14997,0.23191 0.31285,0.29489 0.17991,0.0662 0.3702,0.0691 0.59431,0.006 0.27267,-0.0768 0.46617,-0.21999 0.57782,-0.42479 0.11864,-0.2229 0.14422,-0.50425 0.0685,-0.77318 -0.15781,-0.56029 -0.63385,-0.8334 -1.18293,-0.67876 -0.35858,0.101 -0.57097,0.30595 -0.67999,0.66321 z m -1.19701,0.86242 c 0.0298,-0.01 0.0893,-0.0289 0.17932,-0.054 0.23504,-0.0726 0.31671,-0.10001 0.44665,-0.16434 0.4027,-0.18755 0.58428,-0.41583 0.5355,-0.67121 -0.0524,-0.27443 -0.33805,-0.42531 -0.67729,-0.3605 -0.25919,0.0495 -0.42758,0.1607 -0.64146,0.42674 -0.11174,-0.19199 -0.25808,-0.2549 -0.48297,-0.21194 -0.1639,0.0313 -0.27713,0.10035 -0.3642,0.22366 l 0.0914,0.0853 c 0.0539,-0.0695 0.0922,-0.0966 0.15696,-0.109 0.08,-0.0153 0.15593,0.01 0.19953,0.0725 0.0369,0.0483 0.054,0.0964 0.0853,0.26026 l 0.15436,0.80806 c 0.0437,0.2287 0.12725,0.33521 0.30028,0.39302 0.15632,0.0531 0.36018,0.0655 0.53932,0.0313 0.44215,-0.0845 0.78725,-0.38744 0.73847,-0.64282 -0.0175,-0.0915 -0.1159,-0.15169 -0.215,-0.13276 -0.10673,0.0204 -0.17765,0.12481 -0.15726,0.23153 l 0.0242,0.106 c 0.0211,0.11054 -0.13366,0.23097 -0.34711,0.27175 -0.27063,0.0517 -0.46691,-0.0451 -0.50768,-0.25858 z m -0.12451,-0.65179 c 0.17867,-0.24352 0.31966,-0.35342 0.51405,-0.39056 0.17915,-0.0342 0.35547,0.0822 0.38969,0.26137 0.0495,0.25919 -0.23862,0.48807 -0.80471,0.64757 z m -2.70953,0.98637 1.04905,-0.0737 0.0968,-0.22853 -1.05292,0.0739 z m -1.59508,1.24593 -1.29599,-2.43377 -0.34087,-0.0205 -0.12504,2.08011 c -0.0234,0.32514 -0.0746,0.39982 -0.27739,0.41096 l -0.0975,0.006 -0.007,0.12008 0.95677,0.0575 0.007,-0.12008 -0.13488,-0.0198 c -0.20002,-0.0353 -0.24162,-0.11949 -0.22617,-0.44123 l 0.092,-1.53006 1.13728,2.16376 0.8638,0.0519 0.007,-0.12008 -0.0961,-0.0174 c -0.20003,-0.0354 -0.24185,-0.11561 -0.22617,-0.44123 l 0.0915,-1.52231 c 0.0234,-0.32515 0.0746,-0.39982 0.27739,-0.41096 l 0.0975,-0.006 0.007,-0.12008 -0.95677,-0.0575 -0.007,0.12008 0.13487,0.0198 c 0.20003,0.0354 0.24163,0.11949 0.22617,0.44123 z m -2.95948,-0.72622 c 0.26817,0.0433 0.51991,-0.006 0.69912,-0.14266 0.18811,-0.1426 0.34113,-0.40878 0.38441,-0.67695 0.0934,-0.57848 -0.21703,-1.01772 -0.78785,-1.10984 -0.55549,-0.0897 -0.99276,0.23285 -1.08426,0.79983 -0.0402,0.24902 0.007,0.51608 0.12042,0.71519 0.12998,0.21751 0.36935,0.36621 0.66816,0.41443 z m 0.0209,-0.15385 c -0.34478,-0.0556 -0.50096,-0.40318 -0.41563,-0.93186 0.0785,-0.48653 0.32472,-0.74553 0.66185,-0.69112 0.35628,0.0575 0.50788,0.38464 0.42441,0.90182 -0.0791,0.49036 -0.34116,0.77433 -0.67063,0.72116 z m -2.96838,-1.19938 -0.21234,0.0975 c -0.28275,0.1287 -0.48583,0.15596 -0.81119,0.10529 l -0.034,0.11135 0.98723,0.30146 0.0329,-0.10763 c -0.14135,-0.0553 -0.19311,-0.11172 -0.17044,-0.18595 0.0136,-0.0445 0.0401,-0.0648 0.14327,-0.11043 l 0.73311,-0.32795 -0.53039,1.73693 0.14845,0.0453 c 0.21195,-0.0164 0.30782,-0.0115 0.56555,0.0347 l 0.0351,-0.11505 -0.0794,-0.0324 c -0.19619,-0.0883 -0.21548,-0.17129 -0.11431,-0.48934 l 0.47939,-1.56991 c 0.0623,-0.20413 0.15634,-0.2728 0.32417,-0.23778 l 0.0951,0.0209 0.034,-0.11134 -0.99836,-0.30486 -0.034,0.11134 0.0942,0.0369 c 0.15248,0.0587 0.19095,0.17191 0.13233,0.37717 l -0.0941,0.30805 -0.37882,0.16429 -0.21744,-0.68313 c -0.0333,-0.1035 -0.0444,-0.20019 -0.0274,-0.25586 0.0147,-0.0483 0.0598,-0.0629 0.13256,-0.0488 l 0.10247,0.0232 0.034,-0.11134 -1.00207,-0.30599 -0.0363,0.11876 c 0.16166,0.0818 0.27323,0.22139 0.35502,0.44518 z m -1.81194,0.004 0.12301,0.0477 c 0.23614,0.0458 0.36255,0.074 0.55991,0.1339 l 0.0421,-0.10855 -0.0696,-0.0353 c -0.18333,-0.0961 -0.20792,-0.1722 -0.12233,-0.3929 l 0.32973,-0.85024 c 0.0772,-0.19899 0.17597,-0.26057 0.34077,-0.2133 l 0.0933,0.0278 0.0421,-0.10854 -0.96963,-0.37603 -0.0421,0.10854 0.084,0.0409 c 0.15359,0.0762 0.18504,0.1883 0.10787,0.38729 z m -0.0707,0.67598 c 0.12301,0.0477 0.25858,-0.0121 0.30488,-0.13149 0.0477,-0.12301 -0.0121,-0.25858 -0.13511,-0.30629 -0.11939,-0.0463 -0.25496,0.0135 -0.30267,0.13652 -0.0463,0.11939 0.0135,0.25496 0.1329,0.30126 z m -0.85068,-1.06208 0.11914,0.0567 c 0.23726,0.0613 0.35956,0.10234 0.56245,0.18171 l 0.05,-0.10513 -0.0808,-0.047 c -0.17571,-0.1094 -0.19459,-0.18714 -0.0929,-0.40089 l 0.39185,-0.82345 c 0.0917,-0.19272 0.19481,-0.24681 0.35565,-0.18745 l 0.0909,0.0347 0.05,-0.10513 -0.94258,-0.44854 -0.05,0.10512 0.0843,0.0487 c 0.14751,0.0874 0.17056,0.2015 0.0789,0.39422 l -0.41186,0.8655 c -0.31063,0.0928 -0.56406,0.0926 -0.760286,-8e-4 -0.192723,-0.0917 -0.239482,-0.26438 -0.131097,-0.49214 l 0.385183,-0.80944 c 0.0917,-0.19272 0.19831,-0.24513 0.35565,-0.18745 l 0.0909,0.0347 0.05,-0.10512 -0.942586,-0.44855 -0.05002,0.10512 0.08427,0.0487 c 0.147508,0.0874 0.170562,0.20149 0.07885,0.39421 l -0.411864,0.8655 c -0.138399,0.29084 -0.02388,0.55591 0.309005,0.71432 0.269811,0.1284 0.514735,0.13751 0.868575,0.0351 z m -1.211387,-2.43062 c 0.138136,0.10933 0.181002,0.18905 0.135345,0.26574 -0.03772,0.0633 -0.132119,0.093 -0.258593,0.0854 -0.110902,-0.12473 -0.1683,-0.17245 -0.281669,-0.23995 -0.240075,-0.14292 -0.461183,-0.18875 -0.652685,-0.14018 -0.154265,0.0391 -0.303614,0.15344 -0.381033,0.28348 -0.109182,0.1834 -0.109042,0.41832 -0.0051,0.63825 -0.13156,0.0617 -0.205397,0.0719 -0.262082,0.0382 -0.02334,-0.0139 -0.03469,-0.0252 -0.05882,-0.0757 -0.02278,-0.0452 -0.04684,-0.073 -0.08018,-0.0929 -0.07669,-0.0456 -0.156483,-0.0254 -0.202141,0.0513 -0.04963,0.0833 -0.012,0.18705 0.0947,0.25057 0.103366,0.0615 0.239207,0.0837 0.347582,0.0534 0.06383,-0.0162 0.107025,-0.0356 0.235887,-0.10796 0.103599,0.12942 0.167029,0.18977 0.273729,0.25329 0.380119,0.22631 0.843706,0.14552 1.040232,-0.18458 0.115137,-0.1934 0.121744,-0.40172 0.0118,-0.63428 0.267076,0.0596 0.43198,0.0178 0.525281,-0.13889 0.07941,-0.13338 0.05568,-0.26041 -0.07666,-0.42501 0.302327,0.0535 0.469214,0.008 0.566484,-0.155 0.14293,-0.24008 -0.10459,-0.61325 -0.604744,-0.91102 -0.543503,-0.32357 -1.01534,-0.31996 -1.211867,0.0101 -0.05558,0.0934 -0.07854,0.19261 -0.06624,0.28574 0.01976,0.1337 0.112004,0.25184 0.32556,0.42415 z m -1.04825,1.14628 c -0.230072,-0.13698 -0.248791,-0.35587 -0.0602,-0.67263 0.188586,-0.31677 0.39327,-0.40265 0.630011,-0.26171 0.240075,0.14293 0.262129,0.3638 0.07156,0.6839 -0.17469,0.29343 -0.411291,0.38741 -0.641363,0.25044 z m 0.711044,-1.86189 c -0.228878,-0.17691 -0.287857,-0.29783 -0.210438,-0.42787 0.113152,-0.19006 0.441363,-0.15724 0.841488,0.081 0.383453,0.22829 0.569453,0.51516 0.458283,0.70188 -0.07543,0.12671 -0.235655,0.17584 -0.455414,0.13533 z m -3.136862,0.34725 c 0.213763,0.16761 0.458169,0.24583 0.680885,0.21335 0.233613,-0.0338 0.496305,-0.19274 0.663915,-0.4065 0.361557,-0.46112 0.302389,-0.9957 -0.152623,-1.35247 -0.442796,-0.34719 -0.981508,-0.27647 -1.335882,0.17549 -0.155637,0.1985 -0.243432,0.45512 -0.240586,0.68418 0.0085,0.25326 0.146097,0.49919 0.384291,0.68595 z m 0.09272,-0.12454 c -0.27484,-0.2155 -0.243401,-0.59521 0.08703,-1.01663 0.304091,-0.38783 0.644863,-0.4954 0.913595,-0.28469 0.284,0.22268 0.258426,0.58233 -0.06482,0.99459 -0.306485,0.39088 -0.673179,0.51265 -0.935803,0.30673 z m -1.017704,-0.85662 0.875279,-0.97165 c 0.14285,-0.15857 0.257082,-0.18102 0.394333,-0.0783 l 0.07728,0.0592 0.07792,-0.0865 -0.775586,-0.69867 -0.07792,0.0865 0.06689,0.0707 c 0.116472,0.12581 0.106036,0.24176 -0.03681,0.40033 l -0.875279,0.97165 -0.285438,-0.25713 -0.08571,0.0951 0.285439,0.25713 -0.275311,0.30563 c -0.0987,0.10956 -0.176018,0.15481 -0.266303,0.16227 -0.07384,0.007 -0.154884,-0.0194 -0.203898,-0.0636 -0.04901,-0.0442 -0.06917,-0.11455 -0.06019,-0.20569 0.009,-0.0911 -0.008,-0.15345 -0.05991,-0.2002 -0.0692,-0.0623 -0.184573,-0.0618 -0.24431,0.005 -0.08571,0.0951 -0.04425,0.25785 0.09991,0.38771 0.17011,0.15324 0.414373,0.25315 0.629255,0.26392 0.206519,0.008 0.342983,-0.0619 0.532584,-0.27233 l 0.122071,-0.13552 0.242191,0.21817 0.08571,-0.0951 z m -2.842149,-1.62191 0.237239,0.27196 1.728369,-0.622 c 0.670965,-0.24029 0.779038,-0.25217 0.987968,-0.0894 l 0.03391,0.0271 0.09065,-0.0791 -0.683656,-0.78371 -0.09065,0.0791 c 0.07721,0.11803 0.108882,0.17795 0.116473,0.22797 0.009,0.0694 -0.01811,0.14454 -0.07074,0.19045 -0.04386,0.0383 -0.140676,0.0867 -0.264865,0.13321 l -0.333118,0.12581 -0.658146,-0.75446 0.249684,-0.47529 c 0.03478,-0.0664 0.07429,-0.12145 0.09768,-0.14186 0.08188,-0.0714 0.173838,-0.0487 0.324407,0.0826 l 0.02333,0.0208 0.09065,-0.0791 -0.716818,-0.82172 -0.09065,0.0791 c 0.136569,0.21559 0.135013,0.27874 -0.04511,0.62125 z m 1.587568,-0.45282 -1.160438,0.44069 0.586474,-1.09866 z m -2.366533,-2.56173 c -0.296285,-0.0861 -0.440827,-0.17601 -0.540374,-0.32418 -0.112532,-0.1675 -0.05178,-0.33454 0.18014,-0.49035 l 0.702203,-0.47177 c 0.177161,-0.11902 0.293421,-0.11298 0.401524,0.0201 l 0.0454,0.0537 0.09663,-0.0649 -0.566985,-0.84394 -0.09663,0.0649 0.04766,0.0848 c 0.08234,0.15039 0.04398,0.26031 -0.13318,0.37933 l -0.789173,0.53019 c -0.270574,0.18179 -0.32559,0.44782 -0.143809,0.7184 0.144992,0.21581 0.326224,0.33248 0.678525,0.43239 -0.134837,0.21682 -0.126689,0.38899 0.02912,0.62091 0.153649,0.2287 0.319782,0.33681 0.638664,0.42178 l -0.215814,0.14499 0.07358,0.10952 c 0.160948,0.16302 0.240918,0.25421 0.384704,0.43344 l 0.09663,-0.0649 -0.039,-0.072 c -0.09537,-0.18371 -0.07196,-0.26021 0.124524,-0.39222 l 0.756962,-0.50855 c 0.177161,-0.11902 0.293421,-0.11298 0.401524,0.0201 l 0.06054,0.0762 0.09663,-0.0649 -0.566984,-0.84393 -0.09663,0.0649 0.03251,0.0623 c 0.08234,0.15038 0.04398,0.2603 -0.13318,0.37932 l -0.831048,0.55833 c -0.286571,-0.0786 -0.432171,-0.16313 -0.533882,-0.31452 -0.123351,-0.1836 -0.07116,-0.33554 0.163985,-0.49352 l 0.711866,-0.47826 c 0.177162,-0.11902 0.293421,-0.11298 0.401525,0.0201 l 0.05189,0.0633 0.09663,-0.0649 -0.564821,-0.84071 -0.09663,0.0649 0.039,0.072 c 0.08233,0.15039 0.04398,0.2603 -0.133181,0.37933 z M 90.4468,162.85864 c 0.29346,0.01 0.477182,0.11105 0.589695,0.3281 0.126801,0.24461 0.0973,0.48282 -0.08875,0.69728 -0.09379,0.11418 -0.23645,0.20999 -0.481058,0.33679 l -0.619715,-1.19547 c -0.198034,0.10702 -0.298843,0.2161 -0.370825,0.39766 -0.09049,0.22175 -0.07112,0.47834 0.05389,0.7195 0.244672,0.47199 0.776331,0.62911 1.272436,0.37194 0.230827,-0.11966 0.417006,-0.32545 0.502261,-0.54885 0.09534,-0.24612 0.07252,-0.50092 -0.06142,-0.75931 -0.164305,-0.31695 -0.409521,-0.46958 -0.800333,-0.48991 z m -0.123278,1.42327 c -0.157198,0.0509 -0.229927,0.0624 -0.33085,0.0447 -0.137415,-0.0206 -0.244456,-0.10057 -0.315893,-0.23837 -0.130372,-0.2515 -0.04716,-0.4957 0.218122,-0.63322 z m -1.433625,-1.57593 0.05158,0.12144 c 0.136915,0.20325 0.201263,0.31505 0.300502,0.509 l 0.107152,-0.0455 -0.02926,-0.0888 c -0.05897,-0.1984 -0.02154,-0.26911 0.196334,-0.36165 l 0.839363,-0.35649 c 0.196447,-0.0834 0.309475,-0.0555 0.39051,0.0955 l 0.04507,0.0863 0.107152,-0.0455 -0.408073,-0.96081 -0.107152,0.0455 0.03078,0.0923 c 0.05246,0.16323 -0.006,0.26393 -0.202402,0.34736 l -0.875081,0.37167 c -0.197482,-0.0679 -0.295589,-0.14007 -0.339582,-0.24365 -0.02579,-0.0607 -0.02569,-0.0903 -0.0066,-0.17429 0.01556,-0.0825 0.01066,-0.14366 -0.01816,-0.21152 -0.04854,-0.1143 -0.167103,-0.16513 -0.281399,-0.11658 -0.117868,0.0501 -0.154508,0.1921 -0.08928,0.34569 0.03489,0.0821 0.08916,0.16029 0.164855,0.22932 0.07212,0.0705 0.094,0.0823 0.313256,0.19159 0.01169,0.008 0.0524,0.0241 0.09615,0.0477 z m -0.600016,-1.54592 0.04426,0.1243 c 0.119622,0.20867 0.18086,0.3228 0.264477,0.51135 l 0.109671,-0.0391 -0.01872,-0.0757 c -0.04706,-0.20157 -0.0055,-0.26992 0.217504,-0.34933 l 0.859088,-0.30592 c 0.201063,-0.0716 0.312232,-0.037 0.384133,0.11861 l 0.03986,0.0888 0.109671,-0.0391 -0.34888,-0.97972 -0.109671,0.0391 0.02393,0.0903 c 0.04266,0.16606 -0.02165,0.2631 -0.222711,0.3347 z m -0.557929,0.38817 c 0.04426,0.12429 0.178113,0.18785 0.298751,0.14489 0.124293,-0.0443 0.187849,-0.17812 0.143588,-0.30241 -0.04296,-0.12064 -0.176812,-0.18419 -0.301105,-0.13993 -0.120638,0.043 -0.184193,0.17681 -0.141234,0.29745 z m 1.303499,-2.72976 c 0.324587,0.13334 0.457816,0.26077 0.522792,0.48839 0.110779,0.38807 -0.122773,0.72916 -0.589211,0.86231 -0.208964,0.0597 -0.40246,0.0745 -0.568227,0.0452 -0.203611,-0.0347 -0.33471,-0.15466 -0.393295,-0.35989 -0.05539,-0.19404 0.01022,-0.40244 0.140827,-0.43972 l 0.131668,-0.0335 c 0.108214,-0.0309 0.167938,-0.13269 0.135982,-0.24463 -0.03089,-0.10822 -0.140148,-0.16581 -0.255825,-0.13279 -0.126871,0.0362 -0.231374,0.15079 -0.293778,0.31389 -0.06561,0.18015 -0.06778,0.37044 -0.0039,0.59433 0.07776,0.2724 0.221632,0.46539 0.426824,0.57631 0.223314,0.11786 0.504751,0.14245 0.773419,0.0658 0.559726,-0.15977 0.831156,-0.63678 0.674574,-1.18531 -0.102257,-0.35822 -0.307959,-0.56989 -0.6656,-0.67765 z m -0.866632,-1.19395 c 0.0097,0.0297 0.02923,0.0892 0.05464,0.17912 0.07338,0.23478 0.101127,0.31636 0.165915,0.44606 0.18897,0.40204 0.417884,0.58282 0.67309,0.53313 0.274251,-0.0534 0.424117,-0.33954 0.358114,-0.67855 -0.05043,-0.25901 -0.162206,-0.42701 -0.429008,-0.63995 0.191597,-0.11242 0.253991,-0.25898 0.210236,-0.48371 -0.03189,-0.16379 -0.101328,-0.27678 -0.224937,-0.36341 l -0.08495,0.0916 c 0.06974,0.0536 0.09695,0.0918 0.109553,0.15658 0.01557,0.08 -0.0092,0.15596 -0.0718,0.19979 -0.04814,0.037 -0.09617,0.0543 -0.259958,0.0862 l -0.807516,0.15722 c -0.228542,0.0445 -0.334757,0.12843 -0.391959,0.30166 -0.05255,0.1565 -0.06425,0.36041 -0.02939,0.53943 0.08603,0.44185 0.390211,0.78587 0.645417,0.73619 0.09142,-0.0178 0.151282,-0.11643 0.132001,-0.21547 -0.02077,-0.10665 -0.12543,-0.1772 -0.232083,-0.15644 l -0.105911,0.0246 c -0.110462,0.0215 -0.231442,-0.13285 -0.272972,-0.34615 -0.05265,-0.27044 0.04348,-0.46707 0.256788,-0.50859 z m 0.651346,-0.12682 c 0.24415,0.17781 0.354545,0.31841 0.392367,0.51267 0.03486,0.17903 -0.08097,0.35576 -0.259991,0.39062 -0.259014,0.0504 -0.488906,-0.2369 -0.650405,-0.80243 z m -0.995922,-2.70603 0.07737,1.04879 0.228872,0.096 -0.07765,-1.05265 z m -1.251546,-1.59067 2.429177,-1.30457 0.01929,-0.34095 -2.080534,-0.11769 c -0.325228,-0.0223 -0.400085,-0.0732 -0.411935,-0.27594 l -0.0061,-0.0975 -0.120105,-0.007 -0.05413,0.95697 0.120105,0.007 0.01929,-0.13494 c 0.03464,-0.20016 0.118634,-0.24205 0.440426,-0.22773 l 1.530375,0.0866 -2.159732,1.14491 -0.04887,0.86399 0.120106,0.007 0.0171,-0.0962 c 0.03464,-0.20015 0.11476,-0.24226 0.440426,-0.22773 l 1.522626,0.0861 c 0.325227,0.0223 0.400085,0.0732 0.411934,0.27594 l 0.0061,0.0975 0.120106,0.007 0.05413,-0.95697 -0.120105,-0.007 -0.01929,0.13494 c -0.03464,0.20015 -0.118635,0.24204 -0.440427,0.22773 z m 0.715754,-2.96202 c -0.04233,0.26832 0.0083,0.51989 0.145134,0.69861 0.143258,0.1876 0.409977,0.33969 0.678297,0.38202 0.578805,0.0913 1.016949,-0.22062 1.10706,-0.79176 0.08769,-0.55581 -0.236354,-0.99193 -0.80366,-1.08144 -0.249154,-0.0393 -0.516051,0.009 -0.714753,0.12295 -0.217057,0.13075 -0.364905,0.37064 -0.412078,0.66962 z m 0.153931,0.0204 c 0.05443,-0.34498 0.401405,-0.50238 0.930379,-0.41892 0.486809,0.0768 0.74668,0.32209 0.69346,0.65941 -0.05624,0.35648 -0.382844,0.50923 -0.900319,0.42759 -0.490642,-0.0774 -0.775531,-0.33843 -0.72352,-0.66808 z m 1.188913,-2.9726 -0.09821,-0.212 c -0.129702,-0.28229 -0.15767,-0.48528 -0.108157,-0.81081 l -0.111461,-0.0336 -0.297974,0.98828 0.107746,0.0325 c 0.05483,-0.14154 0.111031,-0.1935 0.185338,-0.1711 0.04458,0.0135 0.06499,0.0399 0.110938,0.14289 l 0.330538,0.73194 -1.738788,-0.52425 -0.04481,0.14861 c 0.01718,0.21189 0.01258,0.30778 -0.03275,0.56567 l 0.115176,0.0347 0.03208,-0.0795 c 0.08762,-0.19651 0.170532,-0.21609 0.488933,-0.11604 l 1.571597,0.47385 c 0.204345,0.0616 0.27335,0.15537 0.238922,0.32332 l -0.02057,0.0951 0.111461,0.0336 0.301334,-0.99943 -0.111461,-0.0336 -0.03656,0.0944 c -0.05819,0.15268 -0.171242,0.19155 -0.376707,0.13366 l -0.308375,-0.093 -0.165623,-0.37824 0.682355,-0.21984 c 0.103377,-0.0337 0.200032,-0.0451 0.255762,-0.0283 0.0483,0.0146 0.06311,0.0596 0.04925,0.13239 l -0.02281,0.10256 0.111461,0.0336 0.302454,-1.00314 -0.118892,-0.0359 c -0.08125,0.16194 -0.220419,0.274 -0.443919,0.35658 z m -0.01064,-1.81192 -0.04727,0.12318 c -0.04496,0.23629 -0.07272,0.3628 -0.131917,0.56038 l 0.108688,0.0417 0.03505,-0.0697 c 0.09543,-0.18367 0.171466,-0.20853 0.392466,-0.12372 l 0.851393,0.32673 c 0.199263,0.0765 0.261188,0.17505 0.214505,0.34002 l -0.02751,0.0933 0.108689,0.0417 0.372605,-0.97095 -0.108689,-0.0417 -0.04061,0.0842 c -0.07567,0.15385 -0.187642,0.18569 -0.386905,0.10923 z m -0.676233,-0.0683 c -0.04727,0.12318 0.01301,0.25854 0.132568,0.30442 0.12318,0.0473 0.258538,-0.013 0.305809,-0.13619 0.04588,-0.11956 -0.0144,-0.25491 -0.137581,-0.30219 -0.119557,-0.0459 -0.254916,0.0144 -0.300796,0.13396 z m 1.059087,-0.85441 -0.05627,0.11934 c -0.0605,0.23747 -0.101075,0.35992 -0.179721,0.5631 l 0.105297,0.0497 0.04674,-0.0809 c 0.108779,-0.17609 0.186454,-0.19524 0.400558,-0.0943 l 0.824828,0.38895 c 0.193044,0.091 0.24749,0.19393 0.188706,0.35498 l -0.03436,0.0911 0.105297,0.0497 0.445219,-0.94416 -0.105297,-0.0496 -0.0484,0.0844 c -0.08686,0.14782 -0.200893,0.17127 -0.393938,0.0802 l -0.866946,-0.4088 c -0.09394,-0.3103 -0.09457,-0.56373 -0.0019,-0.76028 0.09103,-0.19305 0.263529,-0.24042 0.491673,-0.13284 l 0.810787,0.38233 c 0.193045,0.091 0.245836,0.19744 0.188707,0.35499 l -0.03436,0.091 0.105297,0.0497 0.445219,-0.94417 -0.105297,-0.0496 -0.0484,0.0844 c -0.08686,0.14781 -0.200893,0.17127 -0.393938,0.0802 l -0.866946,-0.40881 c -0.291322,-0.13737 -0.555993,-0.0219 -0.713226,0.31153 -0.127442,0.27026 -0.13569,0.51521 -0.03208,0.86868 z m 2.426319,-1.21995 c -0.108848,0.13852 -0.188411,0.18167 -0.265262,0.13628 -0.06349,-0.0375 -0.09343,-0.13179 -0.08632,-0.25829 0.124345,-0.11134 0.171862,-0.1689 0.238956,-0.28251 0.14208,-0.24058 0.187128,-0.46185 0.137879,-0.65318 -0.03967,-0.15412 -0.154514,-0.30307 -0.284827,-0.38003 -0.183775,-0.10853 -0.418699,-0.10756 -0.63826,-0.003 -0.06214,-0.13134 -0.07264,-0.20514 -0.03909,-0.26194 0.01381,-0.0234 0.02505,-0.0348 0.07546,-0.0591 0.0451,-0.023 0.07288,-0.0471 0.09261,-0.0805 0.04539,-0.0769 0.02487,-0.15657 -0.05199,-0.20196 -0.08353,-0.0493 -0.187092,-0.0113 -0.250238,0.0956 -0.06117,0.10358 -0.08286,0.2395 -0.05215,0.34777 0.01642,0.0638 0.03602,0.1069 0.108788,0.2355 -0.129053,0.10406 -0.189174,0.1677 -0.252321,0.27462 -0.22496,0.38092 -0.14254,0.84422 0.188255,1.03958 0.193799,0.11445 0.40215,0.12032 0.634313,0.01 -0.0587,0.26729 -0.01629,0.43204 0.140749,0.52479 0.133655,0.0789 0.260602,0.0548 0.424728,-0.0782 -0.05247,0.30251 -0.0067,0.46924 0.157008,0.56594 0.240578,0.14208 0.612873,-0.10676 0.908874,-0.60796 0.321654,-0.54464 0.316375,-1.01647 -0.01442,-1.21183 -0.09356,-0.0553 -0.192878,-0.0779 -0.285964,-0.0652 -0.13363,0.0202 -0.25145,0.11289 -0.422997,0.32705 z m -1.149972,-1.0442 c 0.13616,-0.23055 0.354983,-0.25004 0.672412,-0.0626 0.317429,0.18746 0.404038,0.39184 0.263931,0.62908 -0.14208,0.24058 -0.362876,0.26341 -0.683647,0.074 -0.294039,-0.17365 -0.388857,-0.40992 -0.252696,-0.64048 z m 1.864381,0.70447 c 0.1761,-0.2295 0.296812,-0.2889 0.427125,-0.21194 0.190458,0.11248 0.1588,0.4408 -0.078,0.84176 -0.226933,0.38426 -0.51314,0.57127 -0.700256,0.46076 -0.126972,-0.075 -0.176669,-0.23503 -0.136936,-0.45493 z m -0.358323,-3.13562 c -0.166854,0.21435 -0.244209,0.45903 -0.210941,0.68163 0.03462,0.2335 0.194485,0.49563 0.408839,0.66248 0.462393,0.35993 0.996762,0.29887 1.351923,-0.15739 0.345626,-0.44402 0.273001,-0.98248 -0.180205,-1.33526 -0.199043,-0.15493 -0.455971,-0.24182 -0.685027,-0.23817 -0.253222,0.009 -0.498666,0.14786 -0.684589,0.38671 z m 0.124871,0.0923 c 0.214527,-0.2756 0.594343,-0.2455 1.016926,0.0834 0.3889,0.30272 0.497678,0.64311 0.287919,0.91259 -0.221677,0.28478 -0.581415,0.26048 -0.994812,-0.0613 -0.391962,-0.30511 -0.515025,-0.67137 -0.310033,-0.93472 z m 0.853026,-1.02072 0.974728,0.87185 c 0.15908,0.14229 0.18193,0.25644 0.07967,0.39405 l -0.05889,0.0775 0.08677,0.0776 0.695923,-0.77805 -0.08677,-0.0776 -0.07046,0.0671 c -0.1254,0.11692 -0.241384,0.10689 -0.400465,-0.0354 l -0.974728,-0.87184 0.256121,-0.28635 -0.09545,-0.0854 -0.256121,0.28635 -0.306591,-0.27423 c -0.10991,-0.0983 -0.155432,-0.17548 -0.163209,-0.26573 -0.0069,-0.0738 0.01885,-0.15495 0.06283,-0.20412 0.04398,-0.0492 0.114297,-0.0696 0.205471,-0.0609 0.09117,0.009 0.153425,-0.009 0.199992,-0.0606 0.06209,-0.0694 0.06116,-0.18479 -0.0054,-0.24429 -0.09545,-0.0854 -0.258,-0.0433 -0.387354,0.10128 -0.152637,0.17065 -0.251686,0.41526 -0.261697,0.63018 -0.0077,0.20655 0.06307,0.34276 0.274212,0.53162 l 0.135941,0.12159 -0.217314,0.24296 0.09545,0.0854 z m 1.611878,-2.84785 -0.271118,0.2382 0.628091,1.72616 c 0.242653,0.67011 0.254918,0.77814 0.09289,0.98765 l -0.02695,0.034 0.0794,0.0904 0.781287,-0.68641 -0.0794,-0.0904 c -0.117755,0.0776 -0.177559,0.10951 -0.227556,0.11728 -0.06934,0.009 -0.144597,-0.0176 -0.190699,-0.0701 -0.03842,-0.0437 -0.08717,-0.14037 -0.134144,-0.26439 l -0.12698,-0.33267 0.752136,-0.66081 0.476165,0.24801 c 0.06651,0.0345 0.121711,0.0739 0.142201,0.0972 0.07172,0.0816 0.04927,0.17366 -0.08148,0.32469 l -0.02076,0.0234 0.0794,0.0904 0.819187,-0.71971 -0.0794,-0.0904 c -0.215105,0.13733 -0.278261,0.13599 -0.621408,-0.0429 z m 0.458424,1.58596 -0.444784,-1.15887 1.100716,0.58259 z m 2.553349,-2.37557 c 0.08508,-0.29659 0.174455,-0.44145 0.322274,-0.54152 0.1671,-0.11312 0.334354,-0.053 0.490984,0.17841 l 0.474241,0.70054 c 0.119648,0.17674 0.114016,0.29302 -0.01867,0.40159 l -0.05349,0.0456 0.06526,0.0964 0.841925,-0.56996 -0.06526,-0.0964 -0.08469,0.048 c -0.150093,0.0829 -0.260146,0.0449 -0.379794,-0.13184 l -0.532977,-0.78729 c -0.182735,-0.26993 -0.448965,-0.32401 -0.718896,-0.14128 -0.215301,0.14576 -0.331328,0.3274 -0.429997,0.68005 -0.217288,-0.13407 -0.389434,-0.12532 -0.620803,0.0313 -0.228155,0.15446 -0.335679,0.32097 -0.419517,0.64015 l -0.145753,-0.2153 -0.109258,0.074 c -0.162451,0.16152 -0.253366,0.24181 -0.432083,0.38623 l 0.06526,0.0964 0.07183,-0.0393 c 0.183366,-0.096 0.259947,-0.0729 0.392648,0.12314 l 0.511223,0.75517 c 0.119648,0.17674 0.114016,0.29302 -0.01868,0.40159 l -0.07599,0.0608 0.06526,0.0964 0.841926,-0.56996 -0.06526,-0.0964 -0.06219,0.0327 c -0.150093,0.0829 -0.260146,0.0449 -0.379794,-0.13184 l -0.561257,-0.82907 c 0.07761,-0.28685 0.161601,-0.43275 0.312633,-0.53499 0.183167,-0.124 0.335293,-0.0723 0.494098,0.16224 l 0.480767,0.71018 c 0.119648,0.17674 0.114016,0.29302 -0.01867,0.40159 l -0.06313,0.0521 0.06526,0.0964 0.838712,-0.56778 -0.06526,-0.0964 -0.07183,0.0392 c -0.150094,0.0829 -0.260146,0.0449 -0.379794,-0.13184 z m 3.110108,-0.70661 c -0.009,0.29349 -0.10938,0.47757 -0.32602,0.59085 -0.244164,0.12766 -0.482478,0.099 -0.697596,-0.0863 -0.114515,-0.0934 -0.210824,-0.23571 -0.338487,-0.47987 l 1.193283,-0.62393 c -0.10773,-0.19765 -0.21716,-0.29808 -0.398974,-0.36942 -0.222063,-0.0897 -0.478582,-0.0694 -0.719302,0.0564 -0.471122,0.24633 -0.626367,0.77854 -0.367445,1.27374 0.12047,0.2304 0.326912,0.41585 0.550616,0.50032 0.24645,0.0945 0.501172,0.0708 0.759085,-0.0641 0.31638,-0.16542 0.46814,-0.41117 0.48709,-0.80206 z m -1.42371,-0.11825 c -0.05145,-0.15702 -0.06318,-0.22971 -0.04592,-0.3307 0.02007,-0.13748 0.09971,-0.2448 0.23726,-0.31673 0.251036,-0.13126 0.49553,-0.0489 0.633981,0.21589 z m 1.57087,-1.43919 -0.12125,0.052 c -0.20277,0.13763 -0.31434,0.20238 -0.50794,0.3023 l 0.0459,0.10699 0.0887,-0.0296 c 0.1982,-0.0597 0.26904,-0.0225 0.36234,0.19506 l 0.35946,0.8381 c 0.0841,0.19615 0.0566,0.30928 -0.0942,0.39084 l -0.0861,0.0454 0.0459,0.10699 0.95936,-0.41146 -0.0459,-0.107 -0.0922,0.0311 c -0.16303,0.053 -0.26394,-0.005 -0.34807,-0.20117 l -0.37475,-0.87377 c 0.0672,-0.19772 0.13903,-0.29608 0.24245,-0.34044 0.0606,-0.026 0.0902,-0.026 0.17426,-0.007 0.0825,0.0153 0.1437,0.0102 0.21146,-0.0189 0.11412,-0.049 0.16453,-0.16768 0.11559,-0.28181 -0.0505,-0.11769 -0.19265,-0.15383 -0.34601,-0.0881 -0.082,0.0352 -0.15997,0.0897 -0.22874,0.16566 -0.0703,0.0724 -0.082,0.0943 -0.19048,0.31393 -0.008,0.0117 -0.0239,0.0525 -0.0474,0.0963 z m 1.54379,-0.60546 -0.12413,0.0447 c -0.20826,0.12036 -0.32217,0.182 -0.51042,0.26628 l 0.0394,0.10953 0.0756,-0.019 c 0.2014,-0.0478 0.2699,-0.006 0.35009,0.21627 l 0.30895,0.858 c 0.0723,0.20081 0.0382,0.3121 -0.11724,0.38455 l -0.0887,0.0402 0.0394,0.10953 0.97849,-0.35233 -0.0394,-0.10953 -0.0903,0.0243 c -0.1659,0.0432 -0.26318,-0.0207 -0.33548,-0.22153 z m -0.39013,-0.55656 c -0.12413,0.0447 -0.18722,0.17878 -0.14383,0.29926 0.0447,0.12414 0.17877,0.18722 0.30291,0.14252 0.12049,-0.0434 0.18357,-0.17746 0.13887,-0.30159 -0.0434,-0.12049 -0.17746,-0.18357 -0.29795,-0.14019 z m 2.73433,1.29387 c -0.13219,0.32505 -0.25914,0.45873 -0.48653,0.52451 -0.38769,0.11215 -0.7296,-0.1202 -0.86439,-0.58616 -0.0604,-0.20876 -0.076,-0.4022 -0.0472,-0.56807 0.034,-0.20373 0.15348,-0.33525 0.35851,-0.39456 0.19384,-0.0561 0.40247,0.009 0.44021,0.13927 l 0.034,0.13155 c 0.0313,0.10811 0.13327,0.16747 0.24511,0.13512 0.1081,-0.0313 0.16531,-0.14073 0.13188,-0.25629 -0.0367,-0.12674 -0.15161,-0.23084 -0.31492,-0.29267 -0.18038,-0.065 -0.37068,-0.0665 -0.59435,-0.002 -0.27212,0.0787 -0.46461,0.22328 -0.5748,0.42886 -0.11707,0.22373 -0.14066,0.50525 -0.063,0.77365 0.16175,0.55915 0.63971,0.8289 1.18768,0.67038 0.35787,-0.10352 0.5688,-0.30997 0.6753,-0.66799 z m 1.1909,-0.87085 c -0.0297,0.01 -0.0891,0.0295 -0.17893,0.0553 -0.23452,0.0742 -0.316,0.10224 -0.44548,0.16748 -0.40137,0.19039 -0.58133,0.41994 -0.53075,0.67497 0.0544,0.27406 0.34104,0.42292 0.67981,0.35572 0.25884,-0.0513 0.42645,-0.16371 0.63844,-0.43127 0.11309,0.1912 0.25987,0.25308 0.48445,0.20853 0.16368,-0.0325 0.27642,-0.1023 0.36261,-0.22622 l -0.0919,-0.0846 c -0.0534,0.0699 -0.0915,0.0973 -0.15619,0.11011 -0.0799,0.0159 -0.156,-0.009 -0.20004,-0.0711 -0.0372,-0.048 -0.0546,-0.096 -0.0871,-0.25966 l -0.16007,-0.80695 c -0.0453,-0.22839 -0.12961,-0.3343 -0.30303,-0.39089 -0.1567,-0.052 -0.36064,-0.063 -0.53954,-0.0275 -0.44154,0.0876 -0.78449,0.39298 -0.7339,0.64801 0.0181,0.0914 0.11696,0.15087 0.21592,0.13124 0.10658,-0.0211 0.17676,-0.12606 0.15562,-0.23264 l -0.0249,-0.10582 c -0.0219,-0.11038 0.13202,-0.23191 0.34518,-0.27419 0.27025,-0.0536 0.46721,0.0418 0.5095,0.25499 z m 0.12911,0.6509 c -0.17695,0.24477 -0.31715,0.35566 -0.51128,0.39417 -0.1789,0.0355 -0.35604,-0.0797 -0.39153,-0.25861 -0.0513,-0.25884 0.23517,-0.48974 0.80013,-0.65323 z m 2.7025,-1.00547 -1.0485,0.0811 -0.0951,0.22921 1.05237,-0.0814 z m 1.58624,-1.25715 1.31314,2.42456 0.34101,0.0181 0.11035,-2.08093 c 0.0211,-0.32531 0.0717,-0.40035 0.27449,-0.41291 l 0.0975,-0.006 0.006,-0.12013 -0.95715,-0.0507 -0.006,0.12012 0.13501,0.0188 c 0.20027,0.0339 0.24246,0.11778 0.22928,0.43962 l -0.0812,1.53067 -1.15253,-2.15568 -0.86415,-0.0458 -0.006,0.12013 0.0963,0.0168 c 0.20028,0.0339 0.24267,0.11391 0.22928,0.43962 l -0.0808,1.52292 c -0.0211,0.32531 -0.0718,0.40034 -0.27448,0.41291 l -0.0975,0.006 -0.006,0.12013 0.95715,0.0508 0.006,-0.12013 -0.13501,-0.0188 c -0.20027,-0.0339 -0.24246,-0.11778 -0.22928,-0.43962 z m 2.96453,0.70529 c -0.26847,-0.0414 -0.51986,0.0102 -0.6981,0.1476 -0.18709,0.14392 -0.33823,0.41117 -0.37962,0.67964 -0.0893,0.57912 0.22421,1.01616 0.79566,1.10426 0.55611,0.0857 0.99109,-0.23986 1.0786,-0.80747 0.0384,-0.2493 -0.0108,-0.51602 -0.12547,-0.71432 -0.13152,-0.21659 -0.37192,-0.36359 -0.67107,-0.40971 z m -0.0198,0.154 c 0.34517,0.0532 0.5038,0.39963 0.42221,0.92889 -0.0751,0.48708 -0.31946,0.74782 -0.65696,0.69579 -0.35668,-0.055 -0.51059,-0.38105 -0.43077,-0.89881 0.0757,-0.49091 0.33569,-0.77672 0.66552,-0.72587 z m 2.97679,1.17841 0.21165,-0.0989 c 0.28183,-0.1307 0.48471,-0.15938 0.81042,-0.11102 l 0.0332,-0.11158 -0.98933,-0.29448 -0.0321,0.10786 c 0.14173,0.0543 0.19389,0.11034 0.17175,0.18473 -0.0133,0.0446 -0.0396,0.0651 -0.14249,0.11144 l -0.73077,0.33312 0.51811,-1.74063 -0.14877,-0.0443 c -0.21183,0.0179 -0.30773,0.0137 -0.56578,-0.0308 l -0.0343,0.1153 0.0796,0.0318 c 0.19681,0.0869 0.21669,0.16977 0.11776,0.48852 l -0.46829,1.57326 c -0.0609,0.20456 -0.15441,0.2739 -0.32249,0.24006 l -0.0952,-0.0202 -0.0332,0.11158 1.00049,0.2978 0.0332,-0.11158 -0.0945,-0.0362 c -0.15289,-0.0577 -0.19216,-0.17057 -0.13499,-0.37623 l 0.0919,-0.30871 0.37765,-0.16695 0.22225,0.68157 c 0.034,0.10326 0.0458,0.19987 0.0292,0.25566 -0.0144,0.0483 -0.0593,0.0633 -0.13222,0.0497 l -0.10263,-0.0225 -0.0332,0.11158 1.00421,0.29891 0.0354,-0.11902 c -0.16223,-0.0807 -0.27478,-0.21945 -0.35815,-0.44265 z m 1.81186,-0.017 -0.12334,-0.0468 c -0.23645,-0.0441 -0.36306,-0.0714 -0.56084,-0.12994 l -0.0413,0.10884 0.0698,0.0348 c 0.18401,0.0948 0.20913,0.17073 0.1251,0.39203 l -0.32371,0.85254 c -0.0758,0.19953 -0.17413,0.26181 -0.33926,0.21571 l -0.0935,-0.0272 -0.0413,0.10884 0.97226,0.36918 0.0413,-0.10884 -0.0843,-0.0403 c -0.15411,-0.0751 -0.18635,-0.18698 -0.11059,-0.38651 z m 0.0659,-0.67647 c -0.12334,-0.0468 -0.25849,0.0139 -0.30394,0.13364 -0.0468,0.12335 0.0139,0.25849 0.13726,0.30533 0.11972,0.0454 0.25487,-0.0153 0.3017,-0.13865 0.0455,-0.11972 -0.0153,-0.25486 -0.13502,-0.30032 z m 0.85815,1.05606 -0.11954,-0.0558 c -0.23768,-0.0597 -0.36027,-0.0998 -0.56372,-0.17774 l -0.0493,0.10548 0.0811,0.0464 c 0.17647,0.10816 0.1959,0.18577 0.0957,0.40023 l -0.38603,0.82619 c -0.0904,0.19336 -0.19306,0.24817 -0.35432,0.18996 l -0.0912,-0.034 -0.0493,0.10547 0.94573,0.44189 0.0493,-0.10547 -0.0846,-0.0481 c -0.14812,-0.0863 -0.17198,-0.20029 -0.0816,-0.39365 l 0.40575,-0.86839 c 0.30996,-0.095 0.56339,-0.0966 0.76027,-0.005 0.19336,0.0904 0.24134,0.26268 0.13456,0.4912 l -0.37946,0.81213 c -0.0904,0.19337 -0.19657,0.24653 -0.35432,0.18996 l -0.0912,-0.034 -0.0493,0.10548 0.94573,0.44188 0.0493,-0.10547 -0.0846,-0.0481 c -0.14812,-0.0863 -0.17198,-0.20029 -0.0816,-0.39365 L 119.852,134.095 c 0.13634,-0.2918 0.02,-0.55606 -0.31404,-0.71212 -0.27071,-0.12649 -0.51569,-0.13387 -0.86879,-0.029 z m 1.22851,2.422 c -0.13891,-0.10836 -0.18234,-0.18777 -0.13722,-0.26478 0.0373,-0.0636 0.13146,-0.0939 0.25798,-0.0872 0.11178,0.12395 0.16952,0.17127 0.28336,0.23796 0.24108,0.14123 0.4625,0.18549 0.65366,0.13557 0.15398,-0.0402 0.30252,-0.15558 0.37902,-0.28617 0.10788,-0.18415 0.10609,-0.41907 6.3e-4,-0.63826 0.13112,-0.0626 0.20488,-0.0734 0.2618,-0.04 0.0234,0.0137 0.0349,0.0249 0.0594,0.0753 0.0231,0.045 0.0474,0.0727 0.0808,0.0923 0.077,0.0451 0.15666,0.0243 0.20178,-0.0527 0.049,-0.0837 0.0107,-0.18713 -0.0965,-0.2499 -0.1038,-0.0608 -0.2398,-0.082 -0.34795,-0.0509 -0.0637,0.0166 -0.10678,0.0364 -0.23512,0.10962 -0.10451,-0.12869 -0.16837,-0.18859 -0.27551,-0.25135 -0.38171,-0.22362 -0.84471,-0.13956 -1.03891,0.19192 -0.11377,0.1942 -0.1189,0.40257 -0.007,0.63434 -0.26749,-0.0578 -0.4321,-0.0148 -0.52429,0.1426 -0.0785,0.13393 -0.0538,0.2608 0.0797,0.42445 -0.3027,-0.0514 -0.46926,-0.005 -0.56538,0.15901 -0.14123,0.24107 0.10892,0.61249 0.61116,0.90672 0.54578,0.31973 1.01758,0.31278 1.21177,-0.0187 0.0549,-0.0937 0.0772,-0.19315 0.0642,-0.28619 -0.0207,-0.13356 -0.11378,-0.25105 -0.32855,-0.42184 z m 1.04013,-1.15365 c 0.23103,0.13535 0.2513,0.3541 0.0649,0.67219 -0.18635,0.31809 -0.39042,0.40542 -0.62815,0.26615 -0.24108,-0.14123 -0.26469,-0.36195 -0.0764,-0.68339 0.17261,-0.29465 0.40855,-0.3903 0.63958,-0.25495 z m -0.69789,1.86686 c 0.23013,0.17528 0.28996,0.29579 0.21346,0.42637 -0.11181,0.19085 -0.44024,0.16035 -0.84204,-0.075 -0.38506,-0.22558 -0.57307,-0.51112 -0.46323,-0.69863 0.0745,-0.12723 0.23441,-0.17749 0.45445,-0.13854 z m 3.13434,-0.36939 c -0.21494,-0.1661 -0.45989,-0.24259 -0.68237,-0.20854 -0.23337,0.0354 -0.49493,0.19624 -0.66103,0.41118 -0.35829,0.46366 -0.29535,0.99781 0.16217,1.35136 0.44523,0.34405 0.98343,0.26953 1.33461,-0.18492 0.15423,-0.19959 0.24021,-0.45682 0.23575,-0.68586 -0.0103,-0.25319 -0.14962,-0.49815 -0.38913,-0.68322 z m -0.0918,0.12519 c 0.27636,0.21356 0.2476,0.59348 -0.0799,1.01722 -0.30134,0.38996 -0.64135,0.49994 -0.91156,0.29113 -0.28557,-0.22067 -0.26253,-0.58049 0.0578,-0.99502 0.30372,-0.39303 0.66954,-0.51739 0.93361,-0.31333 z m 1.02371,0.84942 -0.8684,0.9778 c -0.14172,0.15958 -0.25579,0.18283 -0.39377,0.0811 l -0.0777,-0.0586 -0.0773,0.087 0.7805,0.69317 0.0773,-0.0871 -0.0674,-0.0702 c -0.11736,-0.12499 -0.10774,-0.24101 0.034,-0.40059 l 0.86839,-0.9778 0.28725,0.25511 0.085,-0.0957 -0.28725,-0.25511 0.27315,-0.30755 c 0.0979,-0.11026 0.17492,-0.15605 0.26515,-0.16415 0.0738,-0.007 0.15501,0.0183 0.20434,0.0621 0.0493,0.0438 0.07,0.11405 0.0616,0.20525 -0.008,0.0912 0.009,0.1534 0.0613,0.19978 0.0696,0.0618 0.185,0.0605 0.24427,-0.006 0.085,-0.0958 0.0424,-0.25815 -0.10265,-0.38699 -0.17118,-0.15203 -0.41615,-0.25022 -0.6311,-0.25947 -0.20657,-0.007 -0.34254,0.0643 -0.53065,0.27608 l -0.12111,0.13637 -0.24372,-0.21645 -0.085,0.0957 z m 2.85354,1.60181 -0.23915,-0.27027 -1.72394,0.63418 c -0.66925,0.24501 -0.77723,0.25766 -0.98731,0.0964 l -0.0341,-0.0268 -0.0901,0.0797 0.68917,0.77886 0.0901,-0.0797 c -0.078,-0.11748 -0.11013,-0.17717 -0.11808,-0.22714 -0.01,-0.0693 0.0171,-0.14466 0.0694,-0.19095 0.0436,-0.0386 0.14006,-0.0877 0.26392,-0.13507 l 0.33222,-0.12816 0.66346,0.7498 -0.24633,0.47704 c -0.0343,0.0666 -0.0734,0.12197 -0.0967,0.14254 -0.0814,0.072 -0.17349,0.0499 -0.32498,-0.0803 l -0.0235,-0.0207 -0.0901,0.0797 0.7226,0.81664 0.0901,-0.0797 c -0.13809,-0.21462 -0.13698,-0.27778 0.0407,-0.62155 z m -1.58433,0.46402 1.1573,-0.44887 -0.57871,1.10277 z m 2.38457,2.54497 c 0.29688,0.084 0.44205,0.17289 0.54264,0.32036 0.11372,0.1667 0.0541,0.33416 -0.17667,0.49161 l -0.69886,0.47671 c -0.17631,0.12027 -0.29261,0.11505 -0.40165,-0.0173 l -0.0458,-0.0533 -0.0962,0.0656 0.57293,0.83991 0.0962,-0.0656 -0.0483,-0.0845 c -0.0834,-0.1498 -0.0458,-0.25998 0.1305,-0.38025 l 0.78541,-0.53576 c 0.26928,-0.18368 0.32242,-0.4501 0.13873,-0.71939 -0.14651,-0.21478 -0.32856,-0.33017 -0.68156,-0.42759 0.1333,-0.21776 0.12394,-0.38988 -0.0335,-0.62069 -0.15526,-0.22761 -0.32216,-0.33454 -0.64163,-0.41726 l 0.21479,-0.14651 -0.0743,-0.10899 c -0.1621,-0.16188 -0.24271,-0.25251 -0.38776,-0.43072 l -0.0962,0.0656 0.0395,0.0717 c 0.0967,0.18302 0.0738,0.25968 -0.12175,0.39308 l -0.75336,0.51388 c -0.17631,0.12027 -0.29261,0.11505 -0.40165,-0.0173 l -0.0611,-0.0758 -0.0962,0.0656 0.57292,0.8399 0.0962,-0.0656 -0.0329,-0.0621 c -0.0834,-0.1498 -0.0458,-0.25998 0.13049,-0.38025 l 0.82709,-0.56418 c 0.28712,0.0766 0.43331,0.16007 0.53609,0.31074 0.12464,0.18273 0.0735,0.33504 -0.1605,0.49467 l -0.70847,0.48327 c -0.17632,0.12027 -0.29262,0.11505 -0.40166,-0.0173 l -0.0523,-0.063 -0.0962,0.0656 0.57074,0.8367 0.0962,-0.0656 -0.0395,-0.0717 c -0.0834,-0.1498 -0.0458,-0.25998 0.1305,-0.38025 z m 0.71758,3.10758 c -0.29352,-0.008 -0.47796,-0.10768 -0.592,-0.32393 -0.12852,-0.24371 -0.10071,-0.48212 0.0838,-0.69789 0.093,-0.11484 0.23496,-0.21165 0.47867,-0.34018 l 0.62813,1.19107 c 0.19728,-0.10842 0.29731,-0.21821 0.36801,-0.40027 0.0889,-0.22238 0.0677,-0.47882 -0.059,-0.7191 -0.248,-0.47025 -0.78075,-0.62361 -1.27503,-0.36295 -0.22998,0.12129 -0.4147,0.32838 -0.49837,0.55238 -0.0936,0.24679 -0.069,0.50142 0.0668,0.75886 0.16654,0.31579 0.41283,0.46668 0.80377,0.48425 z m 0.11323,-1.42411 c 0.15683,-0.052 0.22948,-0.064 0.33052,-0.0471 0.13756,0.0196 0.24516,0.0988 0.31757,0.23614 0.13214,0.25057 0.0507,0.49535 -0.21365,0.63474 z m 1.44471,1.56576 -0.0524,-0.12107 c -0.13835,-0.20227 -0.20348,-0.31362 -0.30409,-0.50686 l -0.10683,0.0463 0.0299,0.0886 c 0.0604,0.19798 0.0234,0.26895 -0.19377,0.36302 l -0.83683,0.36241 c -0.19585,0.0848 -0.30907,0.0577 -0.39117,-0.0928 l -0.0457,-0.0859 -0.10683,0.0463 0.41484,0.9579 0.10683,-0.0463 -0.0314,-0.0921 c -0.0536,-0.16286 0.004,-0.26397 0.19995,-0.34878 l 0.87243,-0.37784 c 0.19796,0.0665 0.29657,0.13798 0.3413,0.24125 0.0262,0.0605 0.0263,0.0901 0.008,0.17424 -0.015,0.0826 -0.01,0.14372 0.0197,0.21138 0.0493,0.11395 0.16826,0.16395 0.28221,0.1146 0.11751,-0.0509 0.15315,-0.19319 0.0868,-0.34632 -0.0355,-0.0819 -0.0903,-0.15965 -0.16647,-0.22815 -0.0726,-0.07 -0.0946,-0.0817 -0.3146,-0.18937 -0.0118,-0.008 -0.0526,-0.0237 -0.0965,-0.047 z m 0.61092,1.54165 -0.0451,-0.12398 c -0.12109,-0.20783 -0.18314,-0.32152 -0.26808,-0.50947 l -0.10939,0.0398 0.0192,0.0756 c 0.0485,0.20123 0.007,0.26987 -0.21503,0.35085 l -0.85691,0.31198 c -0.20055,0.073 -0.31196,0.0392 -0.38496,-0.11589 l -0.0405,-0.0885 -0.10939,0.0398 0.35579,0.97724 0.10939,-0.0398 -0.0246,-0.0902 c -0.0438,-0.16575 0.0198,-0.26325 0.22034,-0.33626 z m 0.55517,-0.39209 c -0.0451,-0.12398 -0.17943,-0.18659 -0.29976,-0.14278 -0.12398,0.0451 -0.18659,0.17943 -0.14145,0.30341 0.0438,0.12033 0.1781,0.18294 0.30208,0.13781 0.12033,-0.0438 0.18294,-0.17811 0.13913,-0.29844 z m -1.28421,2.73888 c -0.32552,-0.13104 -0.45964,-0.25752 -0.52623,-0.48468 -0.11351,-0.38729 0.11763,-0.73001 0.58311,-0.86645 0.20854,-0.0611 0.40193,-0.0774 0.5679,-0.0492 0.20385,0.0333 0.33579,0.15229 0.39582,0.35711 0.0568,0.19364 -0.007,0.4025 -0.13772,0.4407 l -0.13142,0.0345 c -0.108,0.0316 -0.167,0.13387 -0.13426,0.24558 0.0317,0.108 0.14132,0.16482 0.25676,0.13098 0.12661,-0.0371 0.2303,-0.15242 0.29156,-0.31595 0.0643,-0.18061 0.0652,-0.37092 -3.3e-4,-0.59435 -0.0797,-0.27184 -0.22491,-0.46382 -0.43088,-0.57329 -0.22414,-0.11627 -0.50574,-0.13887 -0.77386,-0.0603 -0.55859,0.16372 -0.82664,0.64263 -0.66619,1.19004 0.10478,0.35749 0.31197,0.5677 0.67036,0.67293 z m 0.87504,1.18781 c -0.01,-0.0297 -0.0299,-0.089 -0.0559,-0.17874 -0.075,-0.23425 -0.10335,-0.31563 -0.16905,-0.44487 -0.19181,-0.4007 -0.42199,-0.57986 -0.67684,-0.52837 -0.27387,0.0553 -0.42171,0.34253 -0.35332,0.68106 0.0523,0.25865 0.16522,0.42586 0.43352,0.63691 -0.1908,0.11377 -0.25216,0.26077 -0.20682,0.48519 0.033,0.16356 0.10328,0.27605 0.2275,0.36181 l 0.0843,-0.0923 c -0.0701,-0.0531 -0.0976,-0.0911 -0.11065,-0.1558 -0.0161,-0.0799 0.008,-0.15603 0.0704,-0.20029 0.0479,-0.0374 0.0958,-0.055 0.25935,-0.088 l 0.80638,-0.16291 c 0.22823,-0.0461 0.33385,-0.13079 0.38982,-0.30442 0.0514,-0.15687 0.0617,-0.36085 0.0256,-0.53963 -0.0891,-0.44123 -0.39575,-0.7831 -0.6506,-0.73161 -0.0913,0.0184 -0.15046,0.11749 -0.13048,0.21639 0.0215,0.1065 0.12668,0.17631 0.23318,0.1548 l 0.10574,-0.0253 c 0.11031,-0.0223 0.23237,0.1312 0.27541,0.34421 0.0546,0.27006 -0.0402,0.46736 -0.25319,0.51039 z m -0.65044,0.13141 c -0.24539,-0.17608 -0.35678,-0.3159 -0.39597,-0.50989 -0.0361,-0.17877 0.0785,-0.35632 0.25723,-0.39244 0.25865,-0.0522 0.49056,0.23345 0.65605,0.79782 z m 1.015,2.69894 -0.0848,-1.04821 -0.22954,-0.0943 0.0851,1.05207 z"
       id="text4"
       aria-label="No king of America - No king of America - No king of America - No king of America - " /></g><g
     inkscape:groupmode="layer"
     id="layer2"
     inkscape:label="cut"
     style="display:inline"><path
       id="path7"
       style="opacity:1;fill:none;stroke:#000000;stroke-width:0.2;stroke-linejoin:round"
       d="m 134.65918,153.76483 a 25,25 0 0 1 -25,25 25,25 0 0 1 -25,-25 25,25 0 0 1 25,-25 25,25 0 0 1 25,25 z"
       transform="translate(-84.55918,-128.66483)" /></g></svg>
