<?xml version="1.0" encoding="UTF-8" standalone="no"?>
<!-- Created with Inkscape (http://www.inkscape.org/) -->

<svg
   width="50.200001mm"
   height="50.200001mm"
   viewBox="0 0 50.200001 50.200001"
   version="1.1"
   id="svg1"
   xml:space="preserve"
   inkscape:version="1.4.2 (ebf0e940d0, 2025-05-08)"
   sodipodi:docname="no-king.svg"
   xmlns:inkscape="http://www.inkscape.org/namespaces/inkscape"
   xmlns:sodipodi="http://sodipodi.sourceforge.net/DTD/sodipodi-0.dtd"
   xmlns:xlink="http://www.w3.org/1999/xlink"
   xmlns="http://www.w3.org/2000/svg"
   xmlns:svg="http://www.w3.org/2000/svg"><sodipodi:namedview
     id="namedview1"
     pagecolor="#ffffff"
     bordercolor="#000000"
     borderopacity="0.25"
     inkscape:showpageshadow="2"
     inkscape:pageopacity="0.0"
     inkscape:pagecheckerboard="0"
     inkscape:deskcolor="#d1d1d1"
     inkscape:document-units="mm"
     inkscape:zoom="1.2027702"
     inkscape:cx="77.73721"
     inkscape:cy="74.827261"
     inkscape:window-width="1896"
     inkscape:window-height="1032"
     inkscape:window-x="0"
     inkscape:window-y="0"
     inkscape:window-maximized="1"
     inkscape:current-layer="layer1"
     showgrid="false" /><defs
     id="defs1"><rect
       x="177.09119"
       y="332.56561"
       width="437.32379"
       height="462.2662"
       id="rect8" /></defs><g
     inkscape:label="Layer 1"
     inkscape:groupmode="layer"
     id="layer1"
     transform="translate(-84.55918,-128.66483)"><text
       xml:space="preserve"
       style="font-style:normal;font-variant:normal;font-weight:300;font-stretch:normal;font-size:4.23333px;font-family:'URW Bookman';-inkscape-font-specification:'URW Bookman, Light';font-variant-ligatures:normal;font-variant-caps:normal;font-variant-numeric:normal;font-variant-east-asian:normal;text-align:start;writing-mode:lr-tb;direction:ltr;text-anchor:start;display:inline;fill:#1a1a1a;stroke:#000000;stroke-width:0.2;stroke-linejoin:round"
       id="text1" /><path
       id="path2"
       style="opacity:0.2;fill:#ff0000;stroke-width:1"
       d="m 109.47712,134.62699 c -10.377488,0 -18.790114,8.41262 -18.790127,18.79011 -6e-6,10.3775 8.412625,18.79013 18.790127,18.79013 10.37749,-1e-5 18.79012,-8.41264 18.79011,-18.79013 -2e-5,-5.67093 -2.51221,-10.7551 -6.48443,-14.20031 -1.05627,-0.91614 -2.21576,-1.71638 -3.45872,-2.38094 -2.63645,-1.40964 -5.64838,-2.20886 -8.84696,-2.20886 z m 1.21644,3.11317 c 0.008,9e-5 0.0152,0.003 0.0198,0.008 0.03,0.0302 -0.0587,0.12273 -0.19722,0.20591 -0.24066,0.14454 -0.24309,0.14209 -0.0546,-0.0547 0.0915,-0.0955 0.18652,-0.15897 0.23203,-0.1584 z m -6.31531,0.17421 c 0.0898,0.003 0.11609,0.0684 0.11609,0.23238 0,0.15121 -0.0568,0.27494 -0.12648,0.27494 -0.0695,0 -0.0979,-0.0745 -0.0629,-0.16557 0.0424,-0.1107 0.008,-0.1445 -0.10202,-0.10204 -0.0911,0.035 -0.16557,0.0127 -0.16557,-0.0496 0,-0.0622 0.10278,-0.14004 0.22849,-0.17291 0.0455,-0.0113 0.0825,-0.018 0.11232,-0.0172 z m 6.40022,0.0504 c 0.0628,0 0.11784,0.09 0.12223,0.19996 0.007,0.17097 0.0223,0.16685 0.10617,-0.0286 0.0973,-0.22623 0.0983,-0.22619 0.1063,0.007 0.005,0.12884 -0.0391,0.2831 -0.0964,0.34281 -0.0632,0.0658 -0.0385,0.48559 0.0628,1.06508 0.092,0.52611 0.14892,1.04026 0.1265,1.14256 -0.0225,0.10228 -0.13069,-0.29136 -0.24064,-0.87481 -0.10993,-0.58344 -0.16918,-1.15755 -0.13165,-1.27577 0.0375,-0.11822 0.0146,-0.24801 -0.0507,-0.28844 -0.15155,-0.0936 -0.15469,-0.28852 -0.005,-0.28852 z m -0.21999,0.45708 c 0.065,0.35323 0.0468,0.54835 -0.0457,0.49119 -0.0618,-0.0382 -0.0767,-0.0113 -0.0329,0.0592 0.0438,0.0707 -0.10969,0.49432 -0.34103,0.94127 -0.30749,0.59416 -0.44897,0.77165 -0.52637,0.66021 -0.0728,-0.10478 -0.0838,-0.0737 -0.0351,0.0995 0.0429,0.15303 -0.008,0.37719 -0.13336,0.57126 -0.18631,0.2917 -0.18694,0.30592 -0.008,0.16375 0.25898,-0.20505 0.65514,-0.84523 0.95671,-1.54599 0.26623,-0.61865 0.26262,-0.62231 0.4953,0.50197 0.25305,1.22269 0.37801,1.59959 0.53033,1.59959 0.11784,0 0.12768,-0.0685 0.0423,-0.29308 -0.16145,-0.42467 -0.12855,-0.49798 0.0642,-0.14301 0.12731,0.23449 0.2487,0.30423 0.5164,0.29663 0.19249,-0.005 0.29043,-0.0468 0.21762,-0.0917 -0.21392,-0.13221 -0.0729,-0.50824 0.20551,-0.54796 0.29597,-0.0422 0.3001,-0.0232 0.12349,0.56632 -0.0993,0.3314 -0.0999,0.51347 -0.003,0.72737 0.26744,0.58696 0.55076,0.3247 1.834,-1.69758 0.39295,-0.61926 0.68502,-1.15537 0.64905,-1.19135 -0.036,-0.036 -0.14481,0.0336 -0.24189,0.15479 -0.16979,0.2118 -0.17194,0.21067 -0.056,-0.0293 0.0662,-0.13728 0.12387,-0.36862 0.1278,-0.51414 l 0.008,-0.26461 0.10328,0.25708 c 0.13404,0.33347 0.38207,0.34357 0.2766,0.0113 -0.062,-0.19544 -0.0401,-0.23128 0.10655,-0.17497 0.28407,0.10905 0.21865,-0.0291 -0.0725,-0.15305 -0.2538,-0.10805 -0.25346,-0.10906 0.0273,-0.0821 0.39266,0.0379 0.4216,0.35916 0.07,0.77701 -0.28067,0.33355 -0.39206,0.63366 -0.62283,1.67835 -0.0862,0.39031 -0.0761,0.48558 0.052,0.48558 0.18287,0 0.20801,0.31901 0.0449,0.57128 -0.0938,0.14508 -0.11107,0.13945 -0.11257,-0.0367 -9.4e-4,-0.18498 -0.0207,-0.18908 -0.17313,-0.0367 -0.2425,0.24251 -0.21596,0.44579 0.0474,0.36223 0.20851,-0.0662 0.21142,-0.0452 0.0626,0.44932 -0.0859,0.2853 -0.13105,0.51873 -0.10039,0.51873 0.0306,0 9.4e-4,0.10091 -0.0644,0.22424 -0.0799,0.14914 -0.18643,0.19941 -0.31824,0.15001 -0.1613,-0.0605 -0.17332,-0.0435 -0.0646,0.0906 0.15926,0.19646 0.14396,1.38435 -0.0194,1.50434 -0.0709,0.0521 -0.0606,0.0846 0.0273,0.0857 0.0778,9.4e-4 0.13655,0.11746 0.13046,0.25882 -0.0243,0.56467 0.23231,1.33928 0.80134,2.41835 l 0.59747,1.13296 -0.0266,1.24258 c -0.0227,1.0592 -0.0522,1.23273 -0.20058,1.1758 -0.15298,-0.0587 -0.15254,-0.042 0.004,0.13809 0.48745,0.56179 0.90115,2.92079 0.64433,3.67406 -0.18603,0.5456 -0.18544,0.5451 -0.35498,0.31323 -0.12882,-0.17617 -0.17049,-0.11847 -0.35198,0.48735 -0.16095,0.53732 -0.25963,0.69484 -0.45253,0.72233 -0.1857,0.0265 -0.23747,0.10103 -0.20939,0.30152 0.0206,0.14651 -0.0232,0.62513 -0.0971,1.06361 -0.13773,0.81659 -0.0711,1.64266 0.12273,1.52283 0.0597,-0.0369 0.10855,-0.007 0.10855,0.0679 0,0.10114 0.0391,0.10253 0.15622,0.005 0.11872,-0.0986 0.19037,-0.0885 0.29859,0.0419 0.0783,0.0944 0.1757,0.15091 0.21641,0.12575 0.0407,-0.0252 0.63904,0.0197 1.32956,0.0996 1.11993,0.12973 2.71073,0.59745 2.91223,0.85625 0.0314,0.0404 0.30125,0.22544 0.59964,0.41125 l 0.54251,0.33784 1.8e-4,2.37079 c 1.9e-4,1.9438 -0.0284,2.37081 -0.15805,2.37081 -0.0871,0 -0.24606,-0.13404 -0.35339,-0.29786 -0.2356,-0.35956 -0.50095,-0.21403 -0.29873,0.16385 0.0687,0.12829 0.12487,0.26234 0.12487,0.29789 l -4e-5,2e-5 c 0,0.0355 -1.06767,0.0646 -2.37263,0.0646 h -2.37265 l -0.35085,-0.54273 c -0.72746,-1.12527 -1.33914,-2.46561 -1.32661,-2.90689 0.0172,-0.60626 -0.26599,-0.48365 -0.64768,0.28037 -0.10164,0.20349 -0.33908,0.44904 -0.5276,0.54567 -0.18853,0.0966 -0.56024,0.31512 -0.82607,0.48557 -0.26582,0.17044 -0.53576,0.30989 -0.59984,0.30989 -0.0642,0 -0.11646,0.0454 -0.11646,0.10089 0,0.0554 -0.09,0.13037 -0.19997,0.16635 -0.10993,0.036 -0.48273,0.174 -0.82835,0.30673 -0.76695,0.29453 -1.76081,0.56856 -2.06217,0.56856 -0.12262,0 -0.22297,0.0732 -0.22297,0.16253 0,0.16862 -0.57238,0.39334 -0.97116,0.38129 -0.2628,-0.008 -0.7693,-0.36486 -0.66531,-0.46884 0.0382,-0.0382 -0.0277,-0.10553 -0.14668,-0.14948 -0.27001,-0.0996 -0.72979,-0.57663 -0.73244,-0.75976 -0.003,-0.20218 -0.48792,-0.62628 -0.80811,-0.70664 -0.27544,-0.0692 -0.7895,-0.68849 -0.7895,-0.95122 0,-0.0747 -0.0931,-0.13574 -0.20702,-0.13574 -0.24786,0 -0.76647,-0.6467 -0.57088,-0.71191 0.0735,-0.0244 -0.0116,-0.1751 -0.19511,-0.3452 -0.17898,-0.16596 -0.36747,-0.27577 -0.41887,-0.24401 -0.0514,0.0318 -0.0935,-0.0255 -0.0935,-0.12708 0,-0.10166 0.0514,-0.15311 0.11426,-0.1142 0.0628,0.0388 0.11424,0.0146 0.11424,-0.0539 0,-0.0685 -0.0768,-0.15407 -0.17073,-0.1901 -0.0939,-0.036 -0.1433,-0.10981 -0.1098,-0.16405 0.0335,-0.0542 -0.0413,-0.16239 -0.16622,-0.24041 -0.18295,-0.11419 -0.2005,-0.17482 -0.0902,-0.31131 0.0918,-0.11357 0.0942,-0.14377 0.008,-0.0916 -0.0714,0.0428 -0.17785,0.0141 -0.23649,-0.0638 -0.13889,-0.18442 -0.40258,-1.02486 -0.36735,-1.17085 0.015,-0.0623 -0.003,-0.1904 -0.0387,-0.28466 -0.13982,-0.3631 -0.16007,-0.79382 -0.0394,-0.83751 0.21172,-0.0767 0.51422,0.14034 0.702,0.50347 0.1925,0.37228 0.41953,0.67589 0.82385,1.10187 0.1414,0.14897 0.25706,0.31196 0.25706,0.36216 0,0.0502 0.12849,0.24067 0.2855,0.42326 0.15704,0.18259 0.2856,0.29575 0.28564,0.25148 7e-5,-0.0443 0.12912,0.0485 0.28675,0.2061 0.15762,0.15762 0.33067,0.25937 0.38451,0.22609 0.10592,-0.0655 1.05989,0.82414 2.09546,1.95397 0.60053,0.6552 0.67032,0.69849 0.96835,0.6009 0.63634,-0.20841 0.75665,-0.25962 1.22095,-0.5197 0.25921,-0.1452 0.71552,-0.37519 1.01401,-0.51113 0.2985,-0.13594 0.54272,-0.29224 0.54272,-0.34735 0,-0.055 0.0679,-0.10014 0.15075,-0.10014 0.083,0 0.42994,-0.20315 0.77121,-0.45144 0.34125,-0.24829 0.74257,-0.53828 0.89179,-0.64446 0.23821,-0.1695 0.24865,-0.2057 0.0857,-0.2969 -0.10215,-0.0571 -0.18559,-0.20111 -0.18559,-0.31995 0,-0.11885 -0.0512,-0.24778 -0.11383,-0.28649 -0.1311,-0.0811 0.14257,-0.67894 0.37665,-0.82292 0.20011,-0.12311 0.60254,-0.7166 0.70108,-1.03397 0.0707,-0.22744 0.04,-0.2571 -0.26498,-0.2571 -0.18963,0 -0.38591,0.0696 -0.43615,0.15473 -0.0502,0.0851 -0.19936,0.21129 -0.33134,0.28048 -0.20319,0.10654 -0.27751,0.079 -0.48555,-0.17949 -0.13511,-0.1679 -0.24601,-0.3584 -0.24654,-0.42332 -9.4e-4,-0.1401 -0.53252,-0.40366 -0.81399,-0.40366 -0.21072,0 -0.39027,0.37756 -0.27118,0.57026 0.1636,0.26472 -0.0857,0.33854 -0.39638,0.11734 -0.17809,-0.12682 -0.43225,-0.2306 -0.56479,-0.2306 -0.25965,0 -0.67581,-0.20259 -0.86404,-0.42063 -0.0641,-0.0743 -0.27078,-0.16161 -0.45931,-0.19414 -0.18852,-0.0325 -0.45845,-0.0935 -0.59983,-0.13538 -0.18413,-0.0546 -0.25706,-0.0288 -0.25706,0.0908 0,0.32915 -0.40716,0.56158 -0.89779,0.51251 -0.25556,-0.0256 -0.53088,-0.0971 -0.6118,-0.15894 -0.25986,-0.19864 -0.8784,-0.0795 -1.18644,0.22856 -0.22343,0.22343 -0.35033,0.27048 -0.54039,0.20032 -0.13661,-0.0504 -0.2665,-0.18363 -0.28865,-0.29598 -0.0221,-0.11232 -0.17745,-0.31969 -0.34514,-0.4608 -0.16769,-0.1411 -0.42867,-0.50436 -0.57994,-0.80725 -0.16718,-0.33474 -0.29531,-0.48501 -0.32673,-0.3832 -0.1013,0.3282 -0.4049,0.5674 -0.72021,0.5674 -0.3056,0 -0.336,-0.0513 -0.66862,-1.12925 -0.19166,-0.62109 -0.4161,-1.18535 -0.49877,-1.25397 -0.11811,-0.098 -0.124059,-0.23839 -0.0278,-0.65544 l 0.12253,-0.53072 0.12301,0.4367 0.12305,0.43668 0.16193,-0.36585 c 0.0891,-0.20122 0.22651,-0.36585 0.30542,-0.36585 0.0789,0 0.14349,-0.12756 0.14349,-0.28347 0,-0.2043 -0.0769,-0.30276 -0.2755,-0.35259 l -0.27553,-0.0691 0.27553,-0.40599 c 0.15154,-0.2233 0.27946,-0.46308 0.28429,-0.53285 0.0661,-0.95384 0.0386,-1.01357 -0.30843,-0.66959 -0.19211,0.19042 -0.19809,0.19042 -0.12599,0 0.0507,-0.13403 0.0204,-0.19996 -0.0921,-0.19996 -0.21894,0 -0.21683,-0.21686 0.003,-0.30119 0.0939,-0.036 0.13478,-0.12374 0.0909,-0.19474 -0.10778,-0.1744 -0.0392,-0.89897 0.10126,-1.06962 0.0622,-0.0755 0.0827,-0.23301 0.0456,-0.34994 -0.0698,-0.21985 0.58048,-1.26526 0.77991,-1.25383 0.14449,0.008 0.6605,-0.50425 0.58434,-0.58041 -0.0345,-0.0344 -0.12349,-9.4e-4 -0.19784,0.0726 -0.15491,0.15492 -0.66079,0.184 -0.66079,0.038 0,-0.20902 0.2726,-0.87848 0.39005,-0.95794 0.22673,-0.15335 0.40976,-0.0904 0.40976,0.14108 0,0.27258 0.0439,0.27991 0.37533,0.0627 0.24982,-0.16373 0.25295,-0.15862 0.24353,0.39989 -0.006,0.31116 0.005,0.56576 0.0214,0.56576 0.017,0 0.1689,-0.25341 0.33745,-0.56312 0.18522,-0.34029 0.42536,-0.60828 0.60698,-0.67732 0.69266,-0.26334 5.46536,-0.35107 7.70298,-0.14158 0.89213,0.0834 1.05604,0.13571 1.4694,0.4679 0.42286,0.33982 0.45776,0.35037 0.38325,0.11558 -0.0531,-0.16711 -0.0286,-0.2913 0.0691,-0.35174 0.25639,-0.15845 -0.3835,-0.3255 -1.76281,-0.46023 -1.60871,-0.15712 -8.63609,-0.25253 -8.80602,-0.1196 -0.0696,0.0545 -0.38362,0.12819 -0.69783,0.16378 -0.3142,0.0356 -0.67412,0.0983 -0.79981,0.13929 -0.21718,0.0709 -0.21829,0.0661 -0.0225,-0.0946 0.13976,-0.11482 0.16151,-0.18398 0.0676,-0.21526 -0.0897,-0.0299 -0.11117,-0.15441 -0.061,-0.35434 0.0884,-0.35204 0.30151,-0.41683 0.30151,-0.0916 0,0.16962 0.10025,0.22608 0.46295,0.26067 0.25463,0.0242 0.48747,0.0195 0.51745,-0.0101 0.0898,-0.0898 0.38457,-0.1216 1.76026,-0.18951 1.32427,-0.0654 1.85513,-0.16305 0.88676,-0.16305 -0.73842,0 -0.89798,-0.081 -0.81458,-0.41327 0.038,-0.15135 0.0101,-0.3471 -0.0635,-0.43496 -0.17752,-0.21389 -0.0178,-0.30535 0.84973,-0.48669 0.66005,-0.13797 0.62955,-0.14193 -0.82013,-0.10642 -0.82811,0.0202 -1.56752,-9.4e-4 -1.64312,-0.0481 -0.21174,-0.13087 0.48277,-0.20682 2.48721,-0.27199 0.32738,-0.0101 0.63159,-0.0557 0.67601,-0.10014 0.0797,-0.0797 -0.28187,-0.12637 -0.67142,-0.0867 -0.11382,0.0113 -0.19993,-0.0566 -0.19993,-0.15823 0,-0.21653 0.52451,-0.24727 0.60986,-0.0358 0.0344,0.0853 0.0613,0.0622 0.0666,-0.0571 0.0113,-0.2431 0.23754,-0.27034 0.23754,-0.0286 0,0.11972 0.12061,0.17138 0.3999,0.17138 0.21993,0 0.39991,-0.0485 0.39991,-0.10755 0,-0.16219 -0.20314,-0.25448 -0.2814,-0.12784 -0.0909,0.14703 -0.40415,0.022 -0.40415,-0.16137 0,-0.10065 -0.15449,-0.13089 -0.51414,-0.1009 -0.43032,0.0359 -0.51444,0.0101 -0.51591,-0.1582 -9.4e-4,-0.16862 -0.019,-0.17392 -0.1083,-0.0326 -0.0679,0.1073 -0.0634,0.19499 0.0126,0.24177 0.0793,0.0489 0.0681,0.15443 -0.0335,0.31722 -0.13273,0.21254 -0.26604,0.24564 -1.03884,0.25809 -1.58541,0.0257 -1.6856,0.018 -1.48101,-0.11181 0.1184,-0.0751 0.11264,-0.12349 -0.0286,-0.24072 -0.21132,-0.17539 -0.23687,-0.50073 -0.034,-0.43264 0.0785,0.0263 0.14324,0.13729 0.1437,0.24652 4.7e-4,0.10918 0.0871,0.24687 0.19239,0.30581 0.17008,0.0952 0.17959,0.0655 0.0848,-0.26483 -0.0587,-0.20461 -0.10672,-0.38522 -0.10672,-0.40134 0,-0.0162 -0.0801,-0.0294 -0.17812,-0.0294 -0.098,0 -0.14997,-0.0456 -0.11553,-0.10127 0.0345,-0.0557 -0.0205,-0.17025 -0.122,-0.25453 -0.10154,-0.0842 -0.5668,-0.70595 -1.03389,-1.3815 -1.02924,-1.48859 -1.121082,-1.56427 -1.08093,-0.89054 0.007,0.11495 -0.0107,0.12436 -0.05314,0.0285 -0.03483,-0.0785 -0.149013,-0.13873 -0.253749,-0.13377 -0.118755,0.005 -0.136655,0.0307 -0.04759,0.0666 0.197836,0.0798 0.179214,0.22901 -0.02857,0.22901 -0.09426,0 -0.171381,-0.0942 -0.171381,-0.20946 0,-0.13331 0.08309,-0.20948 0.228508,-0.20948 0.258854,0 0.27418,-0.044 0.117324,-0.33707 -0.08818,-0.16478 -0.07046,-0.20462 0.08567,-0.19244 0.141112,0.0113 0.188872,-0.0594 0.168522,-0.24836 -0.0164,-0.15213 0.0198,-0.23387 0.0857,-0.1932 0.0628,0.0388 0.1141,0.17786 0.1141,0.30906 0,0.13122 0.17123,0.44954 0.38051,0.70738 0.20929,0.25783 0.67171,0.88639 1.0276,1.39681 0.75438,1.08192 0.89369,1.21598 1.15836,1.11442 0.15314,-0.0587 0.18742,-0.18434 0.15648,-0.57328 -0.0226,-0.28303 0.01,-0.4995 0.0754,-0.50147 0.0633,-0.003 0.0251,-0.0558 -0.0848,-0.11997 -0.24798,-0.14443 -0.26276,-0.44789 -0.0218,-0.44789 0.098,0 0.14632,0.0515 0.10748,0.11419 -0.0388,0.0629 -0.024,0.11421 0.0331,0.11421 0.057,0 0.10648,0.28299 0.10994,0.62885 0.005,0.51366 -0.0394,0.66537 -0.24302,0.82835 -0.13712,0.10968 -0.23122,0.2895 -0.20908,0.39947 0.0413,0.20548 0.25198,0.28394 0.25198,0.0939 0,-0.0583 0.09,-0.19609 0.19997,-0.30606 0.10993,-0.10994 0.20412,-0.22934 0.20925,-0.26525 0.0224,-0.15702 0.19846,-0.75931 0.24704,-0.8451 0.0294,-0.0519 0.17656,0.0214 0.32709,0.16283 l 0.27367,0.25711 -0.0418,-0.35932 c -0.0477,-0.40981 0.19061,-0.82241 0.47655,-0.82499 0.16192,-9.4e-4 0.16643,-0.0188 0.0276,-0.10668 -0.0912,-0.0577 -0.20695,-0.0797 -0.25709,-0.0487 -0.0502,0.031 -0.0911,-0.25518 -0.0911,-0.63595 0,-0.75284 0.10981,-0.86773 0.36143,-0.37806 0.36552,0.71141 1.15584,1.85129 1.38994,2.00468 0.15109,0.099 -0.12558,-0.40837 -0.69647,-1.27727 -0.52092,-0.79283 -0.9971,-1.45866 -1.05815,-1.4796 -0.061,-0.0209 -0.11771,0.1847 -0.12602,0.45702 l -0.015,0.49512 -0.0771,-0.39991 c -0.0425,-0.21994 -0.0356,-0.44873 0.015,-0.50844 0.0507,-0.0598 0.0923,-0.20109 0.0923,-0.31421 0,-0.38324 0.23685,-0.20819 0.66192,0.48924 1.58389,2.59869 2.12924,3.25252 2.4741,2.9663 0.0904,-0.075 0.18003,-0.29954 0.19936,-0.49909 0.039,-0.40265 0.37797,-0.52309 0.37797,-0.1343 0,0.12568 -0.0643,0.21563 -0.14284,0.19993 -0.22183,-0.0443 -0.17007,0.0415 0.15232,0.25279 0.27922,0.18296 0.30384,0.18214 0.45661,-0.0154 0.48276,-0.62421 1.02959,-1.521 1.53472,-2.5168 0.31239,-0.61584 0.5727,-1.09397 0.57848,-1.06255 z m 4.9369,1.63685 c 0.084,0.003 0.17475,0.0393 0.25029,0.11484 0.0959,0.0959 0.1743,0.20773 0.1743,0.24861 0,0.0409 -0.23136,0.30568 -0.51414,0.58847 -0.49104,0.49104 -0.70039,0.47006 -0.34682,-0.0348 0.092,-0.13141 0.13062,-0.27776 0.0857,-0.32525 -0.0449,-0.0474 0.034,-0.0508 0.1754,-0.008 0.19571,0.0601 0.25709,0.0334 0.25709,-0.11232 0,-0.1231 -0.0611,-0.16783 -0.17138,-0.1255 -0.10541,0.0404 -0.17138,-2.9e-4 -0.17138,-0.10567 0,-0.15703 0.12098,-0.24581 0.26093,-0.24114 z m -1.25071,0.46325 c 0.0309,7.5e-4 0.0343,0.0457 0.005,0.12186 -0.0759,0.19794 -0.15786,0.23417 -0.15786,0.0698 0,-0.0591 0.0508,-0.13894 0.11295,-0.17733 0.0162,-0.0101 0.0296,-0.0147 0.0399,-0.0145 z m -14.425359,0.0751 c 0.01847,3.7e-4 0.0884,0.044 0.219089,0.12617 0.1571,0.0989 0.34715,0.30065 0.42229,0.44832 0.0752,0.14767 0.24466,0.30846 0.37668,0.3573 0.13202,0.0489 0.29409,0.2438 0.36014,0.43326 0.066,0.18946 0.16645,0.34447 0.22314,0.34447 0.0567,0 0.10308,0.077 0.10308,0.17138 0,0.0942 -0.0678,0.17137 -0.15064,0.17137 -0.0829,0 -0.22635,0.15981 -0.31883,0.3551 l -0.16816,0.35508 -0.13819,-0.30334 c -0.1515,-0.33252 -0.1894,-0.83884 -0.0525,-0.70198 0.0472,0.0472 0.0922,0.18425 0.1,0.30468 0.0311,0.47744 0.0612,0.48992 0.25226,0.10478 0.14933,-0.30094 0.16901,-0.45645 0.0796,-0.62842 -0.25914,-0.49835 -0.30039,-0.53266 -0.47054,-0.39146 -0.13126,0.10894 -0.19515,0.0516 -0.34399,-0.30866 -0.10051,-0.24334 -0.26762,-0.54351 -0.371332,-0.66705 -0.09779,-0.11646 -0.142962,-0.17141 -0.12203,-0.17096 z m 4.844689,0.68826 c -0.0883,-9.4e-4 -0.16934,0.056 -0.21453,0.17367 -0.1157,0.30148 -0.0807,0.39366 0.18775,0.4946 0.32232,0.12123 0.49077,-0.11683 0.31501,-0.44528 -0.0782,-0.14614 -0.18803,-0.22182 -0.28823,-0.22299 z m 6.06956,0.22147 c -0.27155,0 -0.47165,0.26825 -0.34861,0.46733 0.10504,0.16995 0.47787,0.11809 0.55267,-0.0768 0.11947,-0.31121 0.0779,-0.39053 -0.20406,-0.39053 z m 2.88024,0.022 c 0.0113,0 0.0169,0.0113 0.0168,0.0352 -4.7e-4,0.0628 -0.10592,0.24279 -0.23444,0.3999 -0.15518,0.18972 -0.19398,0.2089 -0.11558,0.0571 0.15499,-0.2999 0.28771,-0.49225 0.33319,-0.49224 z m -4.4804,0.23531 c -0.0179,1.9e-4 -0.0573,0.0287 -0.12323,0.0833 -0.0958,0.0795 -0.17402,0.16383 -0.17402,0.18756 0,0.12801 0.21458,0.0157 0.27605,-0.14442 0.0329,-0.0857 0.0427,-0.12672 0.0212,-0.12649 z m -3.77535,0.0856 c -0.0277,0 -0.0822,0.0515 -0.12098,0.11421 -0.0389,0.0628 -0.0162,0.1142 0.0504,0.1142 0.0665,0 0.12097,-0.0515 0.12097,-0.1142 0,-0.0628 -0.0227,-0.11421 -0.0504,-0.11421 z m 9.0442,0.12148 c -0.0392,-7.5e-4 -0.11859,0.0739 -0.26408,0.23752 -0.21689,0.24382 -0.21675,0.24413 0.0394,0.0867 0.1414,-0.0868 0.25706,-0.19696 0.25706,-0.24469 0,-0.0517 -0.008,-0.0792 -0.0324,-0.0796 z m -8.76718,0.30533 c -0.0848,-0.004 -0.10592,0.0717 0.0101,0.21182 0.0736,0.0887 0.21361,0.16119 0.31117,0.16119 0.14518,0 0.13747,-0.0388 -0.0426,-0.21387 -0.10843,-0.10542 -0.21294,-0.15624 -0.27894,-0.15914 z m 0.61017,0.0628 c -0.0149,9.4e-4 -0.0247,0.0382 -0.028,0.11019 -0.007,0.14021 0.0775,0.19993 0.28063,0.19993 0.25035,0 0.27372,0.0299 0.17213,0.21966 -0.0924,0.17284 -0.063,0.28119 0.13881,0.50865 0.14098,0.15897 0.27348,0.24009 0.29442,0.18026 0.0545,-0.15561 0.36181,-0.13478 0.36181,0.0244 0,0.24068 0.14412,-0.005 0.17662,-0.30095 0.0319,-0.28991 -0.10127,-0.38957 -0.23376,-0.1751 -0.10114,0.16358 -0.51166,0.14133 -0.52733,-0.0286 -0.008,-0.0785 -0.0201,-0.21993 -0.0287,-0.31419 -0.008,-0.0942 0.0617,-0.21051 0.15601,-0.25831 0.0942,-0.0478 -0.0167,-0.0592 -0.24651,-0.0254 -0.28085,0.0414 -0.43711,0.0137 -0.47656,-0.0845 -0.0154,-0.0384 -0.0289,-0.0569 -0.0397,-0.0564 z m -1.80518,0.005 c -0.0356,-9.4e-4 -0.0599,0.0236 -0.0599,0.0692 0,0.0665 0.0515,0.12097 0.1142,0.12097 0.0628,0 0.1142,-0.0225 0.1142,-0.0504 0,-0.0277 -0.0515,-0.0822 -0.1142,-0.12098 -0.0195,-0.0126 -0.0382,-0.0182 -0.0543,-0.019 z m 4.36977,0.0283 c -0.0254,9.4e-4 -0.0569,0.007 -0.0952,0.0167 -0.12022,0.0315 -0.19052,0.10279 -0.1561,0.15845 0.093,0.1504 0.24494,0.12274 0.31397,-0.0572 0.0319,-0.0832 0.0133,-0.12111 -0.0627,-0.11797 z m -4.82044,0.11935 c -0.0367,9.4e-4 -0.0755,0.007 -0.11433,0.0131 -0.21831,0.0418 -0.2899,0.13505 -0.31692,0.41312 -0.0288,0.29644 -0.0898,0.36555 -0.34911,0.39539 -0.17282,0.0198 -0.31421,0.0808 -0.31421,0.13526 0,0.13023 0.61716,0.0183 0.66645,-0.12085 0.0209,-0.0591 0.14805,-0.0303 0.28251,0.0639 0.30118,0.21096 0.49389,0.21819 0.56941,0.0213 0.0413,-0.10743 -0.0322,-0.13666 -0.25989,-0.10328 -0.17456,0.0256 -0.3525,-0.0101 -0.39541,-0.0797 -0.13244,-0.21427 0.0532,-0.58126 0.29394,-0.58126 0.12512,0 0.20004,-0.0445 0.1664,-0.0989 -0.0252,-0.0408 -0.11834,-0.0625 -0.22883,-0.0583 z m 3.84249,0.0508 c -0.51218,-0.007 -0.5819,0.0163 -0.45705,0.1519 0.10228,0.11094 0.19066,0.1245 0.28881,0.0442 0.17707,-0.14476 0.31177,0.15075 0.22316,0.4896 -0.0482,0.18444 -0.0291,0.20688 0.0912,0.10705 0.18464,-0.15322 0.34523,0.0385 0.2145,0.25611 -0.0684,0.11395 -0.0503,0.11407 0.0894,9.4e-4 0.0964,-0.0781 0.20784,-0.10918 0.24768,-0.0694 0.0397,0.0397 0.15915,7.5e-4 0.26515,-0.0867 0.14969,-0.12361 0.20345,-0.12721 0.24079,-0.0163 0.0638,0.18932 0.60401,0.17606 0.8642,-0.0212 0.26481,-0.20077 0.0537,-0.34868 -0.25891,-0.18139 -0.23492,0.12573 -0.69052,-0.0497 -0.69052,-0.26597 0,-0.0547 -0.0979,0.0214 -0.2176,0.1693 -0.21306,0.26312 -0.22255,0.26429 -0.45252,0.0562 -0.26417,-0.23907 -0.2696,-0.43347 -0.0154,-0.54865 0.0943,-0.0427 -0.10052,-0.0814 -0.43296,-0.0857 z m 5.72679,0.15687 c -0.0209,-9.4e-4 -0.0511,0.005 -0.0893,0.0201 -0.0975,0.0374 -0.17732,0.0882 -0.17732,0.11295 0,0.0925 0.21774,0.0405 0.28484,-0.068 0.025,-0.0405 0.0164,-0.0631 -0.0183,-0.0649 z m -3.74859,0.10178 c -0.0356,-9.4e-4 -0.0599,0.0236 -0.0599,0.0692 0,0.0665 0.0515,0.12098 0.11433,0.12098 0.0629,0 0.11432,-0.0227 0.11432,-0.0504 0,-0.0277 -0.0515,-0.0822 -0.11432,-0.12097 -0.0195,-0.0126 -0.0381,-0.0183 -0.0543,-0.019 z m -8.31726,0.0761 c 0.12257,0 0.14018,0.0416 0.0602,0.1428 -0.0621,0.0785 -0.13611,0.21742 -0.16447,0.30858 -0.0348,0.11194 -0.077,0.12449 -0.12995,0.0389 -0.11384,-0.18419 0.0323,-0.49027 0.23417,-0.49027 z m 9.03365,0.41585 c -0.26347,0.008 -0.39799,0.18074 -0.1152,0.28386 0.10768,0.0393 0.29859,0.0175 0.42427,-0.0485 0.21369,-0.11207 0.20657,-0.12565 -0.10968,-0.21066 -0.071,-0.0191 -0.13865,-0.0264 -0.19944,-0.0247 z m -8.70432,0.0849 c 0.0136,-4.6e-4 0.0286,0.004 0.0443,0.0134 0.0628,0.0388 0.11425,0.11897 0.11425,0.17813 0,0.0591 -0.0514,0.10754 -0.11425,0.10754 -0.0628,0 -0.11429,-0.0802 -0.11429,-0.17811 0,-0.0734 0.0289,-0.11909 0.0699,-0.12085 z m 12.33908,0.0706 c -0.0247,0 -0.0744,0.077 -0.11068,0.17138 -0.0362,0.0942 -0.016,0.17139 0.0449,0.17139 0.0609,0 0.11068,-0.077 0.11068,-0.17139 0,-0.0942 -0.0202,-0.17138 -0.0449,-0.17138 z m -13.17582,0.0634 c 0.0683,5e-5 0.14053,0.0168 0.19064,0.0478 0.0989,0.0611 0.1117,0.15092 0.0398,0.27938 -0.0969,0.17315 -0.12279,0.17067 -0.30384,-0.0294 -0.16061,-0.17747 -0.16812,-0.23017 -0.0398,-0.27941 0.0326,-0.0126 0.0722,-0.0184 0.11321,-0.0184 z m 12.59906,0.0508 c -0.0277,0 -0.0822,0.0515 -0.12097,0.11419 -0.0388,0.0629 -0.0162,0.1142 0.0505,0.1142 0.0665,0 0.12098,-0.0515 0.12098,-0.1142 0,-0.0628 -0.0227,-0.11419 -0.0504,-0.11419 z m -2.13374,0.17982 c -0.0609,0.003 -0.10103,0.0237 -0.10103,0.0594 0,0.0569 0.10291,0.10354 0.22854,0.10354 0.12569,0 0.22852,-0.0197 0.22852,-0.0438 0,-0.024 -0.10279,-0.0707 -0.22852,-0.10354 -0.0472,-0.0126 -0.0911,-0.0172 -0.12754,-0.0156 z m -9.72124,0.31698 c 0.058,1.8e-4 0.0989,0.0371 0.0988,0.0981 -6e-5,0.0812 -0.14573,0.15852 -0.32372,0.17171 -0.17799,0.0131 -0.32363,-0.0254 -0.32363,-0.0857 0,-0.0602 0.0729,-0.10969 0.16206,-0.10969 0.0892,0 0.23479,-0.0279 0.32371,-0.062 0.0223,-0.008 0.0434,-0.0126 0.0628,-0.0126 z m -0.17108,0.3542 c 0.037,-2e-5 0.0496,0.0191 0.0277,0.0546 -0.035,0.0567 8.5e-4,0.12924 0.0798,0.16105 0.11405,0.0459 0.11421,0.0598 7.5e-4,0.0669 -0.0785,0.005 -0.14283,0.11482 -0.14283,0.24427 0,0.12938 0.0514,0.20348 0.11425,0.16465 0.0629,-0.0388 0.11424,-0.0162 0.11424,0.0504 h 4e-5 c 0,0.0665 -0.12497,0.12097 -0.27768,0.12097 -0.2526,0 -0.26903,-0.0302 -0.18184,-0.33417 0.0527,-0.18379 0.0726,-0.35738 0.0442,-0.38576 -0.0284,-0.0284 0.0304,-0.0831 0.13061,-0.1216 0.0376,-0.0145 0.0686,-0.0213 0.0908,-0.0213 z m 10.6155,0.14003 c -0.0399,9.4e-4 -0.0837,0.005 -0.12959,0.0113 -0.41604,0.0611 -0.67036,0.55804 -0.47365,0.9256 0.11194,0.20912 0.0845,0.24702 -0.2475,0.34284 -0.35467,0.10241 -0.34335,0.10831 0.22653,0.1181 0.63102,0.0113 0.78277,-0.0101 0.75323,-0.10404 -0.0101,-0.0314 -0.0356,-0.15995 -0.0571,-0.28563 -0.0216,-0.12569 -0.0872,-0.26314 -0.14606,-0.30548 -0.15042,-0.10831 0.1462,-0.43717 0.39432,-0.43717 0.38206,0 0.54423,0.71082 0.23316,1.02191 -0.21833,0.21831 -0.21796,0.22142 0.0292,0.26945 0.82924,0.16115 1.62752,-0.005 0.9927,-0.20595 -0.14602,-0.0463 -0.2285,-0.17286 -0.2285,-0.35045 0,-0.20176 0.0626,-0.27794 0.2285,-0.27794 0.12567,0 0.22851,-0.0691 0.22851,-0.15331 0,-0.17677 -0.71644,-0.41796 -1.24151,-0.41796 -0.19695,0 -0.35808,-0.0426 -0.35808,-0.0945 0,-0.0389 -0.0845,-0.0602 -0.20413,-0.0571 z m -8.94582,0.16563 c 0.0396,9.4e-4 0.0737,0.0126 0.0927,0.0311 0.0379,0.0379 -0.0295,0.065 -0.14997,0.06 -0.1331,-0.005 -0.16018,-0.0325 -0.0691,-0.0691 0.0412,-0.0164 0.0865,-0.0237 0.1262,-0.0221 z m 4.57703,0.10015 c -0.22217,0 -0.33898,0.19711 -0.25389,0.42846 0.0653,0.17743 0.28348,0.18446 0.45331,0.0147 0.1747,-0.1747 0.0539,-0.44311 -0.19942,-0.44311 z m 0.003,0.1142 c 0.0628,0 0.11419,0.0515 0.11419,0.11419 0,0.0629 -0.0515,0.11421 -0.11419,0.11421 -0.0629,0 -0.1142,-0.0515 -0.1142,-0.11421 0,-0.0628 0.0515,-0.11419 0.1142,-0.11419 z m -1.18712,0.0444 c -0.0359,5e-5 -0.0846,0.0591 -0.11947,0.15065 -0.062,0.16284 -0.049,0.17594 0.064,0.064 0.0781,-0.0775 0.11319,-0.16971 0.0781,-0.20488 -0.007,-0.007 -0.0142,-0.01 -0.0224,-0.01 z m 5.87519,0.0699 c -0.14756,0 -0.20651,0.059 -0.17138,0.17137 l 0.10705,0.34276 c 0.0295,0.0942 0.10654,0.17138 0.17138,0.17138 0.16988,0 0.14568,-0.34101 -0.025,-0.35179 -0.1142,-0.008 -0.1142,-0.0206 0,-0.0666 0.22243,-0.0897 0.16789,-0.26709 -0.0821,-0.26709 z m -7.52021,0.0769 c -0.0424,2.8e-4 -0.0239,0.0714 0.0877,0.20588 0.0795,0.0958 0.18963,0.17417 0.24477,0.17417 0.0551,0 0.0101,-0.0943 -0.0996,-0.20946 -0.11043,-0.11571 -0.19539,-0.1708 -0.23283,-0.17059 z m 8.2425,0.19096 c 0.0101,1.9e-4 0.0235,0.0179 0.0378,0.0535 0.033,0.0825 0.029,0.18105 -0.008,0.219 -0.0379,0.038 -0.065,-0.0295 -0.06,-0.14995 0.004,-0.0811 0.0147,-0.12286 0.0314,-0.12249 z m -9.80457,0.007 c 0.0141,1.9e-4 0.0255,0.004 0.0332,0.0113 0.0418,0.0418 -0.0237,0.14892 -0.1456,0.23805 -0.33255,0.24315 -0.43936,0.19496 -0.16841,-0.0761 0.10637,-0.10642 0.21961,-0.17446 0.28076,-0.17384 z m -1.72484,0.10555 c 0.0307,2.8e-4 0.0727,0.0513 0.10293,0.13004 0.0772,0.20133 0.0115,0.23673 -0.10126,0.0545 -0.0414,-0.067 -0.0508,-0.14634 -0.0209,-0.1763 0.006,-0.005 0.012,-0.008 0.0192,-0.008 z m -0.50106,2.70573 c 0.0665,0 0.0892,0.0515 0.0504,0.11419 -0.0388,0.0629 -0.0933,0.11421 -0.12099,0.11421 -0.0277,0 -0.0504,-0.0515 -0.0504,-0.11421 0,-0.0628 0.0545,-0.11419 0.12099,-0.11419 z m 7.80186,0.49862 c -0.1929,0.003 -0.3566,0.0126 -0.45972,0.0306 -0.44457,0.0789 -0.5356,0.27815 -0.31788,0.69553 0.0911,0.17476 0.16603,0.4035 0.16643,0.50834 4.7e-4,0.10478 0.0317,0.27155 0.0698,0.3705 0.0851,0.22169 0.53297,0.14304 0.98322,-0.17266 0.17028,-0.11934 0.40162,-0.22315 0.51415,-0.23059 0.11256,-0.008 0.0532,-0.0459 -0.13172,-0.0857 -0.64267,-0.13793 -0.35,-0.37674 0.65048,-0.53074 0.46537,-0.0717 0.58191,-0.33427 0.20184,-0.45489 -0.25641,-0.0814 -1.09784,-0.13805 -1.67653,-0.13037 z m -3.53549,0.0739 c -0.49884,-0.008 -0.85952,0.0707 -1.87053,0.41137 -0.31926,0.10755 0.1309,0.26929 0.7549,0.27114 0.60072,9.4e-4 1.58423,0.3137 1.12714,0.35746 -0.12569,0.0126 -0.27993,0.0337 -0.34276,0.0485 -0.0628,0.0146 -0.19141,0.0398 -0.28567,0.056 -0.0943,0.0162 0.0303,0.0606 0.27672,0.0989 0.24646,0.0382 0.47167,0.14101 0.50049,0.22845 0.0391,0.11822 -0.027,0.14385 -0.25728,0.0998 -0.29088,-0.0556 -0.64871,-0.005 -1.31972,0.18776 l -0.28562,0.0819 0.28562,-0.24629 c 0.2086,-0.17987 0.22919,-0.22804 0.0763,-0.17856 -0.11508,0.0373 -0.24542,0.0677 -0.28957,0.0677 -0.0442,0 -0.16851,0.14936 -0.27634,0.33192 l -0.19605,0.33188 0.42849,-0.0438 c 0.23568,-0.0241 0.82697,-0.0751 1.31398,-0.1132 0.63233,-0.0496 0.88549,-0.11344 0.88549,-0.22341 0,-0.0847 0.14003,-0.17034 0.3112,-0.19021 0.2541,-0.0295 0.34419,-0.13047 0.49111,-0.5503 0.26479,-0.75667 0.18499,-1.0027 -0.32775,-1.01053 -0.22959,-0.004 -0.67969,-0.0113 -1.0002,-0.0164 z m 5.08637,1.15537 c -0.0396,-9.3e-4 -0.0849,0.005 -0.12616,0.0221 -0.0911,0.0365 -0.0642,0.0635 0.0691,0.0691 0.12047,0.005 0.18796,-0.0221 0.14998,-0.0599 -0.019,-0.019 -0.0531,-0.0295 -0.0928,-0.0311 z m -0.47324,0.46227 c -0.0944,7.5e-4 -0.19392,0.007 -0.29968,0.0177 -0.64193,0.0662 -0.76353,0.11533 -0.66799,0.2696 0.0318,0.0513 0.63416,0.11094 1.33865,0.1324 0.95122,0.0291 1.25979,0.005 1.19892,-0.0935 -0.0451,-0.0729 -0.15261,-0.10555 -0.23897,-0.0724 -0.0863,0.0332 -0.35074,-0.0207 -0.58748,-0.11959 -0.22289,-0.0931 -0.46024,-0.13674 -0.74345,-0.13428 z m 5.1129,0.93293 c -0.0356,-9.4e-4 -0.0599,0.0236 -0.0599,0.0692 0,0.0665 0.0515,0.12098 0.11421,0.12098 0.0629,0 0.11432,-0.0227 0.11432,-0.0504 0,-0.0277 -0.0515,-0.0822 -0.11432,-0.12097 -0.0195,-0.0126 -0.0381,-0.0182 -0.0543,-0.019 z m -7.83614,1.10436 c -0.83445,0 -0.87012,0.0221 -1.10081,0.68033 -0.0974,0.27807 -0.10278,0.43758 -0.0179,0.53971 0.0964,0.11621 0.18984,0.10906 0.47054,-0.0362 0.34488,-0.17834 0.4205,-0.17706 1.7108,0.0292 0.32972,0.0527 0.44337,0.0265 0.49757,-0.11483 0.0386,-0.10065 0.11633,-0.15466 0.17255,-0.11985 0.15241,0.0943 0.11683,-0.0848 -0.0811,-0.40727 -0.0964,-0.15711 -0.1482,-0.19733 -0.11521,-0.0893 0.1127,0.36832 -0.143,0.32299 -0.45027,-0.0798 -0.29795,-0.39061 -0.32877,-0.40202 -1.08613,-0.40202 z m -5.97829,2.17085 c -0.0241,0 -0.0684,0.12854 -0.0984,0.28563 -0.0301,0.1571 -0.0102,0.28564 0.0438,0.28564 0.0541,0 0.0984,-0.12854 0.0984,-0.28564 0,-0.15709 -0.0197,-0.28563 -0.0438,-0.28563 z m 13.04845,0.16839 c -0.0462,0.003 -0.0611,0.10918 -0.0938,0.36098 -0.0401,0.31043 -0.007,0.48179 0.1142,0.57628 0.14202,0.11143 0.18719,0.0751 0.26357,-0.21237 0.0707,-0.26573 0.044,-0.40047 -0.11433,-0.57626 -0.0859,-0.0954 -0.13613,-0.15006 -0.16983,-0.14863 z m -7.31809,0.0543 c -0.30927,0.0126 -0.59859,0.0747 -0.83915,0.18879 -0.43412,0.206 -1.41973,1.03749 -1.41973,1.19773 0,0.19152 0.18238,0.10805 0.50911,-0.23298 0.50158,-0.52354 0.96627,-0.6908 1.91906,-0.6908 0.89077,0 1.43419,0.1305 1.91356,0.45952 0.15711,0.1078 0.41417,0.23105 0.57128,0.27383 0.27704,0.0754 0.27532,0.0689 -0.0571,-0.2159 -0.18852,-0.16152 -0.6466,-0.44688 -1.01798,-0.63408 -0.49274,-0.2484 -1.06357,-0.36666 -1.57901,-0.34611 z m 0.21013,0.91979 c -0.76238,0 -1.11568,0.0474 -1.27606,0.17138 -0.21921,0.1694 -0.21912,0.17342 0.007,0.34785 0.16986,0.13118 0.34584,0.1545 0.68555,0.0909 0.56397,-0.10567 0.88963,-0.10266 1.51388,0.0139 0.46685,0.0872 0.4856,0.0796 0.4856,-0.1973 0,-0.37813 -0.16128,-0.42672 -1.41572,-0.42672 z m -1.36423,0.72998 c -0.0307,0 -0.0781,0.0237 -0.1336,0.0698 -0.0942,0.0782 -0.17137,0.16002 -0.17137,0.18179 0,0.0217 0.077,0.01 0.17137,-0.0262 0.0942,-0.0362 0.17139,-0.11796 0.17139,-0.18182 0,-0.0292 -0.0139,-0.0435 -0.0378,-0.0435 z m 7.93789,0.83053 c -0.1029,-0.007 -0.15477,0.0581 -0.2304,0.22415 -0.0709,0.15547 -0.1288,0.33166 -0.1288,0.39155 0,0.0599 0.0515,0.10893 0.1142,0.10893 0.0628,0 0.11421,-0.0541 0.11421,-0.1201 0,-0.066 0.17994,-0.19529 0.39988,-0.28719 0.21995,-0.0919 0.39989,-0.19515 0.39989,-0.22943 0,-0.0343 -0.0471,-0.0333 -0.10466,0.003 -0.0576,0.0355 -0.23096,0.0167 -0.38535,-0.042 -0.0749,-0.0285 -0.13227,-0.0456 -0.17907,-0.0482 z m -9.95268,0.49609 c -0.0606,0 -0.16527,0.10278 -0.23253,0.22851 -0.13219,0.24699 -0.11382,0.26503 0.16202,0.15915 0.19501,-0.0748 0.25192,-0.38766 0.0706,-0.38766 z m 9.22822,0.47975 c -0.0199,4.7e-4 -0.0537,0.0326 -0.0918,0.0915 -0.0609,0.0942 -0.1108,0.2228 -0.1108,0.28564 0,0.0628 0.0498,0.0371 0.1108,-0.0571 0.0609,-0.0942 0.11069,-0.22281 0.11069,-0.28564 0,-0.0236 -0.008,-0.0347 -0.019,-0.0344 z m 0.74699,1.04176 c -0.0269,9.4e-4 -0.0364,0.0717 -0.0373,0.22087 -9.3e-4,0.17282 0.0497,0.31422 0.11257,0.31422 0.14446,0 0.14446,-0.23347 0,-0.45702 -0.0337,-0.0522 -0.0581,-0.0792 -0.0753,-0.0781 z m 1.11065,1.55101 c -0.036,0 -0.0621,0.008 -0.0749,0.0296 -0.0657,0.10618 0.2492,0.53927 0.63117,0.86827 0.31318,0.26975 0.59105,0.15576 0.49701,-0.20387 -0.0608,-0.23236 -0.80101,-0.69286 -1.05332,-0.69401 z m 4.57598,1.49772 c -0.17248,0 -0.15837,0.0392 0.21571,0.59842 0.32476,0.48552 0.40659,0.52081 0.48781,0.21027 0.0614,-0.23446 -0.43825,-0.80869 -0.70352,-0.80869 z m -20.8237,0.23947 c 0.04179,-4.7e-4 0.08607,0.0313 0.129095,0.1009 0.05132,0.0831 0.184283,0.11031 0.323033,0.0662 0.170432,-0.0541 0.271139,-0.008 0.363205,0.16318 0.104763,0.19575 0.196094,0.22514 0.514227,0.16545 0.37494,-0.0703 0.38553,-0.0622 0.34416,0.26466 -0.0235,0.18547 -0.14804,0.52478 -0.2768,0.75406 -0.12878,0.22926 -0.183598,0.41687 -0.12184,0.41687 0.0618,0 0.11229,0.10279 0.11229,0.22851 0,0.12568 0.0494,0.22851 0.10988,0.22851 0.0604,0 0.16698,0.21219 0.23682,0.47155 0.0698,0.25936 0.0846,0.50758 0.033,0.55158 -0.1551,0.13196 -0.47861,0.005 -0.548567,-0.21561 -0.03598,-0.11332 -0.166952,-0.29796 -0.291028,-0.41025 -0.124076,-0.11232 -0.225587,-0.31617 -0.225587,-0.45305 0,-0.13689 -0.0356,-0.28451 -0.07912,-0.32802 -0.04351,-0.0435 -0.09594,-0.18942 -0.116522,-0.32425 -0.05118,-0.33536 -0.247127,-0.54874 -0.503891,-0.54874 -0.177654,0 -0.21453,-0.0872 -0.21453,-0.50744 0,-0.37494 0.09668,-0.62278 0.212206,-0.62417 z m 15.50892,1.36011 c -0.14069,0 -0.0609,0.3899 0.1211,0.59085 0.22711,0.25096 0.31226,0.25946 0.48717,0.0487 0.10605,-0.12779 0.0649,-0.20874 -0.20359,-0.39989 -0.18511,-0.13183 -0.36719,-0.23966 -0.40462,-0.23966 z m 2.96616,1.29369 c -0.0195,0 -0.0369,0.004 -0.0515,0.0128 -0.17261,0.10667 -0.16072,0.17829 0.10089,0.60734 0.24301,0.39855 0.53639,0.48428 0.64941,0.18973 0.0784,-0.20424 -0.46764,-0.80679 -0.69884,-0.80982 z"
       sodipodi:nodetypes="cssssscscssssssssssssssssssssssssssssssssssssssssssssssccsssssssssssssssssssscsssssssssssssssssccsssccscssssssssssssssssssssssssssssssssssssssssssssssssssssssssscsssssssssssssssssssscccsssscscssssssssssssssssssssssssssssssssssssssssssssssssssssssssssssssssssssssssssssssssssssssssssssscsscsssssssssscsssssssssssssssssssssssssssssscssssssssccssssssscsssssssssscssscssscsssssssssssssssssssssssssssssssssssssssssscssssssssssssssssssssssssssssssssssssssssssssssssssssssssssssscsssscssssssssssscssssscssssssccssssssssssssssssssssssssssssssssssssssssssssccssssssssscsssccssscssssssssssccssssssssccssssssssscsssscsssssscccsscssssssssssssssssssssssssssssssssssssssssssssssssssssssssssscssssssssccsssscssssccsssccssscsssscsssssssssssssssssscsssssccssc" /><text
       xml:space="preserve"
       style="font-weight:300;font-size:14.1111px;font-family:Sans;-inkscape-font-specification:'Sans, Light';text-align:center;letter-spacing:-0.867833px;word-spacing:1.35996px;writing-mode:lr-tb;direction:ltr;text-anchor:middle;opacity:0.1;fill:#000000;stroke:#000000;stroke-width:0.2;stroke-linejoin:round"
       x="98.829834"
       y="118.19649"
       id="text2"><tspan
         sodipodi:role="line"
         id="tspan1"
         style="font-style:normal;font-variant:normal;font-weight:normal;font-stretch:normal;font-size:6.35px;font-family:Sans;-inkscape-font-specification:'Sans, Normal';font-variant-ligatures:normal;font-variant-caps:normal;font-variant-numeric:normal;font-variant-east-asian:normal;fill:#000000;stroke:#000000;stroke-width:0.2"
         x="98.829834"
         y="118.19649" /></text><text
       xml:space="preserve"
       style="font-style:normal;font-variant:normal;font-weight:normal;font-stretch:normal;font-size:6.35px;font-family:Sans;-inkscape-font-specification:'Sans, Normal';font-variant-ligatures:normal;font-variant-caps:normal;font-variant-numeric:normal;font-variant-east-asian:normal;text-align:center;letter-spacing:-0.867833px;word-spacing:1.35996px;writing-mode:lr-tb;direction:ltr;text-anchor:middle;opacity:0.1;fill:#1a1a1a;stroke:#000000;stroke-width:0.2;stroke-linejoin:round"
       x="70.478653"
       y="116.39958"
       id="text3"><tspan
         sodipodi:role="line"
         id="tspan2"
         style="opacity:1;fill:#000000;stroke-width:0.2"
         x="70.478653"
         y="116.39958" /></text><path
       id="path7"
       style="opacity:1;fill:none;stroke:#000000;stroke-width:0.2;stroke-linejoin:round"
       d="m 134.65918,153.76483 a 25,25 0 0 1 -25,25 25,25 0 0 1 -25,-25 25,25 0 0 1 25,-25 25,25 0 0 1 25,25 z" /><text
       xml:space="preserve"
       transform="scale(0.26458333)"
       id="text8"
       style="font-style:normal;font-variant:normal;font-weight:normal;font-stretch:normal;font-size:16px;font-family:Sans;-inkscape-font-specification:'Sans, Normal';font-variant-ligatures:normal;font-variant-caps:normal;font-variant-numeric:normal;font-variant-east-asian:normal;text-align:center;letter-spacing:0px;word-spacing:0px;writing-mode:lr-tb;direction:ltr;white-space:pre;shape-inside:url(#rect8);display:inline;opacity:1;fill:#000000;stroke:#000000;stroke-width:0.755906;stroke-linejoin:round" /><text
       xml:space="preserve"
       style="font-size:3.88056px;font-family:'URW Bookman';-inkscape-font-specification:'URW Bookman';text-align:center;letter-spacing:0px;word-spacing:0px;writing-mode:lr-tb;direction:ltr;text-anchor:middle;fill:#000000;stroke:#cccccc;stroke-width:0.11;stroke-linejoin:round"
       id="text4"><textPath
         xlink:href="#path7"
         startOffset="50%"
         id="textPath4"
         style="font-size:3.79236px"><tspan
           id="tspan3"
           style="font-size:3.79236px;fill:#000000;stroke:#000000;stroke-width:0.11"
           dy="3.73">No king oi America - No king oi America - No king oi America - No king oi America - </tspan></textPath></text></g></svg>
