<?xml version="1.0" encoding="UTF-8" standalone="no"?>
<!-- Created with Inkscape (http://www.inkscape.org/) -->

<svg
   width="50mm"
   height="50mm"
   viewBox="0 0 50 50"
   version="1.1"
   id="svg1"
   inkscape:version="1.4.2 (ebf0e940d0, 2025-05-08)"
   sodipodi:docname="not-for-measles.svg"
   xmlns:inkscape="http://www.inkscape.org/namespaces/inkscape"
   xmlns:sodipodi="http://sodipodi.sourceforge.net/DTD/sodipodi-0.dtd"
   xmlns="http://www.w3.org/2000/svg"
   xmlns:svg="http://www.w3.org/2000/svg">
  <sodipodi:namedview
     id="namedview1"
     pagecolor="#ffffff"
     bordercolor="#000000"
     borderopacity="0.25"
     inkscape:showpageshadow="2"
     inkscape:pageopacity="0.0"
     inkscape:pagecheckerboard="0"
     inkscape:deskcolor="#d1d1d1"
     inkscape:document-units="mm"
     inkscape:zoom="4.4767501"
     inkscape:cx="94.376499"
     inkscape:cy="94.488187"
     inkscape:window-width="1896"
     inkscape:window-height="1032"
     inkscape:window-x="0"
     inkscape:window-y="0"
     inkscape:window-maximized="1"
     inkscape:current-layer="layer1" />
  <defs
     id="defs1" />
  <g
     inkscape:label="engrave"
     inkscape:groupmode="layer"
     id="layer1"
     transform="translate(-57.848358,13.758193)"
     style="display:inline">
    <g
       id="text1"
       style="font-size:21.1079px;font-family:Sans;-inkscape-font-specification:'Sans, Normal';text-align:center;letter-spacing:0px;word-spacing:0px;text-anchor:middle;stroke:#000000;stroke-width:1.0101;stroke-linejoin:round"
       transform="matrix(0.36611407,0,0,0.66925861,29.339671,-6.821638)"
       aria-label="Measles&#10;is BAD">
      <path
         style="stroke-width:1.0101"
         d="m 115.496,26.074327 -4.96035,-13.213546 h -0.0844 q 0.0633,0.654345 0.10554,1.773064 0.0422,1.097611 0.0422,2.300761 v 9.139721 h -1.75196 V 11.003286 h 2.80735 l 4.64374,12.348122 h 0.0844 l 4.72817,-12.348122 h 2.78625 v 15.071041 h -1.87861 v -9.266368 q 0,-1.097611 0.0422,-2.174114 0.0633,-1.076503 0.10554,-1.751956 h -0.0844 l -5.02368,13.192438 z m 16.61191,-11.524914 q 1.45645,0 2.49073,0.633237 1.0554,0.633237 1.6042,1.794172 0.56992,1.139826 0.56992,2.680703 v 1.118719 h -7.7466 q 0.0422,1.920819 0.97096,2.933998 0.94986,0.992071 2.63849,0.992071 1.0765,0 1.89971,-0.189971 0.84432,-0.211079 1.73085,-0.591021 v 1.625308 q -0.86543,0.379943 -1.70974,0.548806 -0.84432,0.189971 -2.00525,0.189971 -1.6042,0 -2.84957,-0.654345 -1.22426,-0.654345 -1.92082,-1.941927 -0.67545,-1.30869 -0.67545,-3.187293 0,-1.857495 0.61213,-3.187293 0.63324,-1.329798 1.75195,-2.047466 1.13983,-0.717669 2.63849,-0.717669 z m -0.0211,1.519769 q -1.32979,0 -2.11079,0.865424 -0.75988,0.844316 -0.90764,2.364085 h 5.76246 q -0.0211,-1.435337 -0.67545,-2.321869 -0.65435,-0.90764 -2.06858,-0.90764 z m 11.84152,-1.498661 q 2.06857,0 3.06064,0.90764 0.99208,0.90764 0.99208,2.891782 v 7.704384 h -1.35091 l -0.35883,-1.6042 h -0.0844 q -0.73877,0.928747 -1.56198,1.372013 -0.8021,0.443266 -2.23744,0.443266 -1.54087,0 -2.55405,-0.8021 -1.01318,-0.823208 -1.01318,-2.554056 0,-1.688632 1.32979,-2.596272 1.3298,-0.928748 4.09494,-1.013179 l 1.92082,-0.06332 v -0.675453 q 0,-1.414229 -0.61213,-1.963034 -0.61213,-0.548806 -1.73085,-0.548806 -0.88653,0 -1.68863,0.274403 -0.8021,0.253295 -1.49866,0.591021 l -0.56992,-1.393121 q 0.73878,-0.401051 1.75196,-0.675453 1.01318,-0.295511 2.11079,-0.295511 z m 0.5488,6.03686 q -2.11079,0.08443 -2.93399,0.675453 -0.8021,0.591021 -0.8021,1.667524 0,0.949855 0.56991,1.393121 0.59102,0.443266 1.49866,0.443266 1.43534,0 2.38519,-0.780992 0.94986,-0.8021 0.94986,-2.448517 v -1.013179 z m 14.3745,2.342977 q 0,1.646416 -1.22425,2.490732 -1.22426,0.844316 -3.29284,0.844316 -1.18204,0 -2.04746,-0.189971 -0.84432,-0.189971 -1.49866,-0.527698 v -1.688632 q 0.67545,0.337727 1.6253,0.633237 0.97097,0.274403 1.96304,0.274403 1.41423,0 2.04746,-0.443266 0.63324,-0.464374 0.63324,-1.224258 0,-0.422158 -0.23219,-0.759885 -0.23218,-0.337726 -0.84431,-0.675452 -0.59102,-0.337727 -1.70974,-0.759885 -1.09761,-0.422158 -1.8786,-0.844316 -0.781,-0.422158 -1.20315,-1.013179 -0.42216,-0.591021 -0.42216,-1.519769 0,-1.435337 1.16093,-2.216329 1.18204,-0.780993 3.08176,-0.780993 1.03428,0 1.92081,0.211079 0.90764,0.189971 1.68864,0.548806 l -0.63324,1.477553 q -0.71767,-0.295511 -1.49866,-0.50659 -0.78099,-0.211079 -1.6042,-0.211079 -1.13983,0 -1.75196,0.379942 -0.59102,0.358835 -0.59102,0.992072 0,0.464373 0.2744,0.8021 0.27441,0.316618 0.90764,0.633237 0.65435,0.29551 1.73085,0.717669 1.0765,0.40105 1.83639,0.823208 0.75988,0.422158 1.16093,1.034287 0.40105,0.591021 0.40105,1.498661 z m 4.60152,3.123969 h -1.85749 V 10.032323 h 1.85749 z m 7.95767,-11.524914 q 1.45645,0 2.49073,0.633237 1.0554,0.633237 1.60421,1.794172 0.56991,1.139826 0.56991,2.680703 v 1.118719 h -7.7466 q 0.0422,1.920819 0.97096,2.933998 0.94986,0.992071 2.63849,0.992071 1.0765,0 1.89971,-0.189971 0.84432,-0.211079 1.73085,-0.591021 v 1.625308 q -0.86543,0.379943 -1.70974,0.548806 -0.84432,0.189971 -2.00525,0.189971 -1.6042,0 -2.84957,-0.654345 -1.22426,-0.654345 -1.92082,-1.941927 -0.67545,-1.30869 -0.67545,-3.187293 0,-1.857495 0.61213,-3.187293 0.63324,-1.329798 1.75195,-2.047466 1.13983,-0.717669 2.63849,-0.717669 z m -0.0211,1.519769 q -1.32979,0 -2.11079,0.865424 -0.75988,0.844316 -0.90764,2.364085 h 5.76246 q -0.0211,-1.435337 -0.67545,-2.321869 -0.65435,-0.90764 -2.06858,-0.90764 z m 14.92328,6.881176 q 0,1.646416 -1.22426,2.490732 -1.22426,0.844316 -3.29283,0.844316 -1.18205,0 -2.04747,-0.189971 -0.84432,-0.189971 -1.49866,-0.527698 v -1.688632 q 0.67545,0.337727 1.62531,0.633237 0.97096,0.274403 1.96303,0.274403 1.41423,0 2.04747,-0.443266 0.63324,-0.464374 0.63324,-1.224258 0,-0.422158 -0.23219,-0.759885 -0.23219,-0.337726 -0.84432,-0.675452 -0.59102,-0.337727 -1.70974,-0.759885 -1.09761,-0.422158 -1.8786,-0.844316 -0.78099,-0.422158 -1.20315,-1.013179 -0.42216,-0.591021 -0.42216,-1.519769 0,-1.435337 1.16094,-2.216329 1.18204,-0.780993 3.08175,-0.780993 1.03429,0 1.92082,0.211079 0.90764,0.189971 1.68863,0.548806 l -0.63324,1.477553 q -0.71767,-0.295511 -1.49866,-0.50659 -0.78099,-0.211079 -1.6042,-0.211079 -1.13983,0 -1.75195,0.379942 -0.59103,0.358835 -0.59103,0.992072 0,0.464373 0.27441,0.8021 0.2744,0.316618 0.90764,0.633237 0.65434,0.29551 1.73084,0.717669 1.07651,0.40105 1.83639,0.823208 0.75989,0.422158 1.16094,1.034287 0.40105,0.591021 0.40105,1.498661 z"
         id="path4" />
      <path
         style="stroke-width:1.0101"
         d="m 117.94451,29.974795 q 0.42216,0 0.73878,0.295511 0.33773,0.274403 0.33773,0.886532 0,0.591021 -0.33773,0.886532 -0.31662,0.29551 -0.73878,0.29551 -0.46437,0 -0.78099,-0.29551 -0.31662,-0.295511 -0.31662,-0.886532 0,-0.612129 0.31662,-0.886532 0.31662,-0.295511 0.78099,-0.295511 z m 0.90764,4.242688 v 11.313835 h -1.85749 V 34.217483 Z m 10.95499,8.189866 q 0,1.646416 -1.22426,2.490732 -1.22425,0.844316 -3.29283,0.844316 -1.18204,0 -2.04747,-0.189971 -0.84431,-0.189971 -1.49866,-0.527697 v -1.688632 q 0.67546,0.337726 1.62531,0.633237 0.97097,0.274402 1.96304,0.274402 1.41423,0 2.04746,-0.443266 0.63324,-0.464373 0.63324,-1.224258 0,-0.422158 -0.23219,-0.759884 -0.23218,-0.337727 -0.84431,-0.675453 -0.59102,-0.337727 -1.70974,-0.759885 -1.09761,-0.422158 -1.87861,-0.844316 -0.78099,-0.422158 -1.20315,-1.013179 -0.42215,-0.591021 -0.42215,-1.519769 0,-1.435337 1.16093,-2.216329 1.18204,-0.780993 3.08175,-0.780993 1.03429,0 1.92082,0.211079 0.90764,0.189972 1.68864,0.548806 l -0.63324,1.477553 q -0.71767,-0.295511 -1.49866,-0.50659 -0.781,-0.211079 -1.6042,-0.211079 -1.13983,0 -1.75196,0.379943 -0.59102,0.358834 -0.59102,0.992071 0,0.464374 0.2744,0.8021 0.27441,0.316619 0.90764,0.633237 0.65435,0.295511 1.73085,0.717669 1.0765,0.40105 1.83639,0.823208 0.75988,0.422158 1.16093,1.034287 0.40105,0.591021 0.40105,1.498661 z m 12.7914,-11.947072 q 2.82845,0 4.26379,0.844316 1.45645,0.823208 1.45645,2.891783 0,1.329797 -0.73878,2.216329 -0.73878,0.865424 -2.1319,1.118719 v 0.105539 q 0.94986,0.147756 1.70974,0.548806 0.78099,0.40105 1.22426,1.139826 0.44327,0.738777 0.44327,1.920819 0,2.047467 -1.41423,3.166185 -1.39312,1.118719 -3.82053,1.118719 h -5.29809 V 30.460277 Z m 0.37994,6.416802 q 1.94193,0 2.65959,-0.612129 0.71767,-0.633237 0.71767,-1.857495 0,-1.245367 -0.88653,-1.773064 -0.86542,-0.548806 -2.78624,-0.548806 h -2.49073 v 4.791494 z m -2.78624,1.583092 v 5.466947 h 3.03953 q 2.00525,0 2.78625,-0.780993 0.78099,-0.780992 0.78099,-2.047466 0,-1.182042 -0.82321,-1.899711 -0.8021,-0.738777 -2.89178,-0.738777 z m 21.27675,7.071147 -1.81528,-4.664846 h -5.97353 l -1.79418,4.664846 h -1.92081 l 5.8891,-15.134365 h 1.70974 l 5.868,15.134365 z m -4.07382,-10.912784 q -0.0633,-0.168864 -0.21108,-0.61213 -0.14776,-0.443265 -0.29551,-0.907639 -0.12665,-0.485482 -0.21108,-0.738777 -0.14776,0.654345 -0.33773,1.287582 -0.18997,0.612129 -0.31662,0.970964 l -1.70974,4.559306 h 4.77039 z m 20.17915,3.229508 q 0,3.82053 -2.08968,5.762457 -2.06858,1.920819 -5.78357,1.920819 H 165.5006 V 30.460277 h 4.64374 q 2.27965,0 3.94718,0.844316 1.66752,0.844316 2.57516,2.490732 0.90764,1.625309 0.90764,4.052717 z m -2.00525,0.06332 q 0,-3.01843 -1.49866,-4.411551 -1.47755,-1.41423 -4.20047,-1.41423 h -2.46963 V 43.90601 h 2.04747 q 6.12129,0 6.12129,-5.994644 z"
         id="path5" />
    </g>
    <path
       style="font-size:9.525px;font-family:Sans;-inkscape-font-specification:'Sans, Normal';text-align:center;letter-spacing:0px;word-spacing:0px;text-anchor:middle;stroke:#000000;stroke-width:0.499999;stroke-linejoin:round"
       d="m 102.15516,11.459977 0.0123,-0.42416 3.36501,0.09763 -0.0546,1.880443 -0.37232,-0.0108 0.0423,-1.456283 -1.19236,-0.0346 -0.0396,1.366739 -0.37232,-0.0108 0.0396,-1.366739 z m 1.2049,4.513298 q -0.51725,-0.07968 -0.87675,-0.316331 -0.35556,-0.231277 -0.51751,-0.60447 -0.16196,-0.373193 -0.0844,-0.876463 0.0797,-0.517251 0.34715,-0.829066 0.26675,-0.307154 0.67937,-0.415333 0.41261,-0.108179 0.92986,-0.0285 0.51259,0.07896 0.86886,0.305576 0.35628,0.226617 0.51823,0.59981 0.16124,0.377853 0.0808,0.899763 -0.0768,0.498611 -0.34356,0.805766 -0.26209,0.307872 -0.67542,0.420711 -0.40939,0.118217 -0.92664,0.03854 z m 0.40484,-2.628191 q -0.62909,-0.0969 -1.03348,0.112722 -0.39973,0.210344 -0.48658,0.774193 -0.0876,0.56851 0.23104,0.884736 0.32328,0.316944 0.95237,0.413848 0.62909,0.0969 1.02344,-0.109497 0.39901,-0.205684 0.48586,-0.769534 0.0869,-0.563849 -0.23032,-0.889396 -0.31324,-0.320168 -0.94233,-0.417072 z m 0.85352,4.226304 q -0.1772,0.601522 -0.49179,0.818504 -0.3114,0.222838 -0.77272,0.08694 -0.25779,-0.07594 -0.40168,-0.221547 -0.14388,-0.145605 -0.20394,-0.325499 -0.0569,-0.174038 -0.0677,-0.354176 l -1.7084,0.460109 0.13989,-0.474886 1.5647,-0.389393 0.18919,-0.642226 -1.3342,-0.393036 0.11991,-0.407044 3.22921,0.95128 z m -0.3461,-0.126535 0.13589,-0.461316 -1.19852,-0.353066 -0.14256,0.48393 q -0.11591,0.393476 -0.0154,0.619684 0.105,0.22754 0.40802,0.316806 0.3166,0.09326 0.50371,-0.05805 0.19164,-0.149984 0.30889,-0.547984 z m -3.88468,1.866306 2.69335,0.220311 -0.19023,0.400292 -1.57638,-0.154069 q -0.10988,-0.01046 -0.24307,-0.02678 -0.1332,-0.01631 -0.25382,-0.03711 -0.11637,-0.01876 -0.19483,-0.04039 l -0.008,0.01703 q 0.0643,0.05144 0.15659,0.131843 0.0903,0.08466 0.18703,0.177633 0.0947,0.09723 0.17,0.169537 l 1.11495,1.124989 -0.19025,0.400292 -1.86965,-1.95349 z m 1.14247,3.310101 q -0.23973,0.395003 -0.52802,0.479255 -0.28829,0.08425 -0.66717,-0.145692 l -1.471182,-0.892872 0.156558,-0.257961 0.347916,0.117392 0.0098,-0.01612 q -0.09173,-0.248706 -0.08097,-0.457271 0.0083,-0.204535 0.174656,-0.478619 0.178576,-0.294236 0.449158,-0.39475 0.274614,-0.09807 0.605124,0.102523 0.32245,0.195697 0.34166,0.554815 0.0232,0.361564 -0.2811,0.899362 l -0.21051,0.374127 0.12897,0.07828 q 0.27006,0.163897 0.4458,0.11061 0.17573,-0.05329 0.30538,-0.26691 0.10274,-0.169287 0.1433,-0.354252 0.0446,-0.182519 0.0608,-0.354669 l 0.33208,0.05262 q -0.009,0.187551 -0.0741,0.412822 -0.061,0.227718 -0.1882,0.437311 z m -1.21636,-0.594823 q 0.2285,-0.412849 0.21104,-0.638538 -0.0199,-0.221658 -0.22546,-0.346416 -0.18138,-0.11008 -0.332069,-0.05262 -0.153138,0.06149 -0.258326,0.234805 -0.166344,0.274083 -0.127294,0.545972 0.04306,0.274335 0.357474,0.46514 l 0.193475,0.117419 z m -2.242334,1.013811 q 0.201158,-0.267574 0.469111,-0.396456 0.265117,-0.125112 0.58567,-0.07288 0.31772,0.056 0.675744,0.325156 0.373099,0.28049 0.513259,0.580517 0.14016,0.300027 0.0908,0.593236 -0.0522,0.296977 -0.2562,0.568321 -0.11616,0.154515 -0.257744,0.272225 -0.137808,0.120543 -0.25103,0.176992 l -0.198618,-0.30858 q 0.101915,-0.06495 0.22273,-0.16288 0.120814,-0.09793 0.200143,-0.203454 0.447649,-0.595448 -0.317389,-1.170595 -0.365557,-0.274824 -0.66919,-0.278943 -0.302698,0.0025 -0.518028,0.288901 -0.124661,0.165821 -0.184239,0.315686 -0.06241,0.153634 -0.09275,0.295988 L 97.789729,23.64249 q 0.02376,-0.141419 0.09085,-0.285618 0.06051,-0.143263 0.190842,-0.316622 z m -1.141015,1.340848 q 0.224755,-0.248087 0.503356,-0.351961 0.275438,-0.10038 0.589882,-0.0191 0.311275,0.08478 0.643222,0.385505 0.345926,0.313389 0.458103,0.624962 0.112177,0.311572 0.03623,0.599047 -0.07911,0.29097 -0.307024,0.542551 -0.129789,0.143262 -0.281526,0.247551 -0.148248,0.107455 -0.266147,0.15333 l -0.169606,-0.325429 q 0.10742,-0.05537 0.236669,-0.14186 0.129249,-0.08649 0.217889,-0.184327 0.500153,-0.552082 -0.209167,-1.194688 -0.338937,-0.307058 -0.640926,-0.338887 -0.301658,-0.02517 -0.542238,0.240389 -0.139288,0.153744 -0.212301,0.297543 -0.07618,0.147292 -0.119394,0.286281 l -0.272543,-0.24691 q 0.03653,-0.13866 0.116558,-0.276127 0.07334,-0.137139 0.218958,-0.297872 z m 1.680704,3.30632 q -0.06806,0.06526 -0.164796,0.06657 -0.09687,0.008 -0.191505,-0.09072 -0.09137,-0.09529 -0.0826,-0.195145 0.0053,-0.09659 0.07342,-0.161856 0.07487,-0.07179 0.171602,-0.07309 0.09673,-0.0013 0.188105,0.09398 0.09463,0.09869 0.08601,0.191882 -0.0053,0.09659 -0.08023,0.168382 z m -0.802242,-0.543718 -1.749078,-1.824095 0.29948,-0.287163 1.749078,1.824096 z m -1.311126,1.198541 q -0.351678,0.284948 -0.670686,0.258215 -0.316037,-0.02307 -0.624729,-0.404053 l -1.035907,-1.278493 0.318706,-0.258234 1.018096,1.256513 q 0.382898,0.472566 0.822497,0.116381 0.326032,-0.264171 0.302173,-0.548255 -0.02386,-0.284084 -0.302866,-0.628434 l -0.825165,-1.018399 0.322374,-0.261202 1.59096,1.96353 -0.260098,0.210743 -0.2643,-0.228835 -0.01832,0.01484 q 0.0294,0.231032 -0.07973,0.440835 -0.106182,0.213467 -0.29301,0.364846 z m -1.912373,1.364388 q -0.274176,0.175109 -0.54502,0.180255 -0.274814,0.0077 -0.517706,-0.144882 -0.244332,-0.146052 -0.429591,-0.436125 l -0.134506,-0.210601 1.45831,-0.931382 q -0.238887,-0.356521 -0.535541,-0.43559 -0.298089,-0.07256 -0.615978,0.130469 -0.202653,0.129429 -0.334783,0.264166 -0.133566,0.141249 -0.254777,0.319363 l -0.195411,-0.305967 q 0.117236,-0.175576 0.255876,-0.308878 0.136105,-0.137275 0.354652,-0.276855 0.301995,-0.192875 0.615107,-0.219425 0.309142,-0.02401 0.595079,0.134629 0.284501,0.165153 0.510365,0.518803 0.223329,0.349677 0.267978,0.673611 0.04069,0.326471 -0.08364,0.596078 -0.128289,0.272145 -0.410414,0.452331 z m -0.17875,-0.288637 q 0.250336,-0.159883 0.293312,-0.4167 0.04153,-0.250306 -0.113374,-0.55417 l -1.084793,0.692826 q 0.176547,0.267667 0.406316,0.355886 0.232308,0.09219 0.498539,-0.07784 z m -3.3348,0.08108 q -0.166231,-0.328047 -0.0075,-0.619884 0.158682,-0.291838 0.570844,-0.500692 0.235521,-0.119346 0.427135,-0.168873 0.187412,-0.0474 0.351886,-0.04617 l 0.170498,0.336458 q -0.168681,8.91e-4 -0.387778,0.03793 -0.221166,0.04336 -0.41884,0.143524 -0.281783,0.142789 -0.363201,0.295045 -0.07928,0.156461 -0.0025,0.307867 0.04262,0.08412 0.122988,0.127963 0.08036,0.04385 0.236427,0.04934 0.151861,0.0076 0.417384,-0.02122 0.261325,-0.02671 0.459558,-0.02144 0.198237,0.0053 0.342025,0.0804 0.143788,0.07514 0.237555,0.260189 0.144921,0.285989 -0.0075,0.558815 -0.156667,0.274958 -0.535184,0.466764 -0.206083,0.104427 -0.404034,0.151879 -0.200024,0.05379 -0.391866,0.06114 l -0.02302,-0.358336 q 0.172834,-0.01358 0.349757,-0.05038 0.176923,-0.0368 0.340946,-0.119912 0.227111,-0.115083 0.310712,-0.25259 0.08153,-0.131171 0.01762,-0.257342 -0.04688,-0.09253 -0.13566,-0.132113 -0.08664,-0.03538 -0.244782,-0.03453 -0.160212,0.0072 -0.41733,0.03176 -0.254984,0.02878 -0.449009,0.02139 -0.194031,-0.0074 -0.335744,-0.08887 -0.139585,-0.07727 -0.231224,-0.258114 z m -0.827016,0.746801 0.123745,0.346316 -1.074462,0.383931 -0.12375,-0.346315 z m -2.971233,-0.209988 0.414701,-0.08993 0.713419,3.289958 -1.838504,0.398675 -0.07894,-0.364015 1.423808,-0.308748 -0.252796,-1.16577 -1.336258,0.289764 -0.07893,-0.364015 1.336257,-0.289763 z m -4.091803,2.253614 q -0.04688,-0.521247 0.0965,-0.927059 0.139115,-0.400694 0.462483,-0.647541 0.323374,-0.246847 0.830531,-0.292465 0.52125,-0.04689 0.888179,0.137869 0.362231,0.185177 0.566339,0.559732 0.204113,0.374554 0.251,0.895801 0.04648,0.516551 -0.08795,0.916822 -0.134417,0.400272 -0.457791,0.647119 -0.328066,0.247269 -0.854009,0.294577 -0.502464,0.04519 -0.864695,-0.139981 -0.361811,-0.180481 -0.570616,-0.554613 -0.213083,-0.369015 -0.259969,-0.890261 z m 2.648497,-0.238231 q -0.05702,-0.633949 -0.357637,-0.976153 -0.300193,-0.33751 -0.868399,-0.2864 -0.572898,0.05153 -0.803345,0.436772 -0.230027,0.389935 -0.173003,1.023884 0.05702,0.633949 0.352099,0.967184 0.295495,0.337932 0.863701,0.286822 0.568205,-0.05111 0.808042,-0.437194 0.235566,-0.380967 0.178542,-1.014915 z m -3.897605,1.843604 q -0.626472,-0.02754 -0.912661,-0.280816 -0.291105,-0.24877 -0.269983,-0.729223 0.01183,-0.268489 0.118592,-0.443132 0.106786,-0.174644 0.266988,-0.276147 0.155286,-0.097 0.327551,-0.150779 l -0.856959,-1.547894 0.494585,0.02175 0.753796,1.425372 0.668868,0.02941 0.06109,-1.389546 0.423933,0.01864 -0.147861,3.363172 z m 0.0397,-0.36637 0.480457,0.02112 0.05487,-1.248237 -0.504004,-0.02216 q -0.409795,-0.01802 -0.605251,0.133851 -0.195664,0.156578 -0.209538,0.47217 -0.0145,0.329722 0.177333,0.47502 0.19162,0.150007 0.606128,0.168231 z m -3.86263,-0.926132 q -0.456391,-0.0979 -0.66476,-0.47532 -0.212979,-0.378411 -0.07553,-1.019203 0.135474,-0.631571 0.486894,-0.898561 0.34681,-0.267979 0.807812,-0.169093 0.285821,0.06131 0.452087,0.207883 0.160667,0.150195 0.236045,0.315849 l 0.02767,0.0059 q 0.0076,-0.08035 0.02406,-0.202187 0.01648,-0.121837 0.03529,-0.209428 l 0.217553,-1.014202 0.405677,0.08702 -0.767354,3.577368 -0.331922,-0.0712 0.01688,-0.348397 -0.01846,-0.004 q -0.145249,0.137617 -0.348772,0.209692 -0.203523,0.07207 -0.503174,0.0078 z m 0.146936,-0.325319 q 0.378021,0.08109 0.580249,-0.09735 0.19762,-0.179427 0.299793,-0.610791 l 0.01683,-0.07837 q 0.0979,-0.456391 0.004,-0.736975 -0.09972,-0.276963 -0.5054,-0.363983 -0.22589,-0.04846 -0.3955,0.04536 -0.17422,0.09283 -0.288857,0.290055 -0.120237,0.200849 -0.179568,0.477449 -0.09098,0.424121 0.0206,0.713271 0.106963,0.28816 0.448103,0.361336 z m -3.456661,-0.713256 0.815928,-2.391833 0.321291,0.109603 -0.05007,0.336618 0.01785,0.0061 q 0.179956,-0.147841 0.41567,-0.167064 0.234192,-0.01476 0.466236,0.0644 0.43285,0.147659 0.581483,0.427518 0.14711,0.284323 -0.0082,0.739485 l -0.534311,1.566293 -0.397151,-0.13548 0.525178,-1.53952 q 0.194848,-0.571184 -0.336175,-0.752332 -0.39715,-0.13548 -0.624984,0.03588 -0.232296,0.16984 -0.375388,0.589303 l -0.424709,1.245002 z m -0.88046,-0.187815 q 0.06918,-0.144611 0.138726,-0.268139 0.06326,-0.12131 0.106354,-0.189545 l -0.02126,-0.01017 q -0.167004,0.09781 -0.383931,0.114251 -0.216928,0.01644 -0.484883,-0.111746 -0.425325,-0.203468 -0.538093,-0.623276 -0.119056,-0.417589 0.161729,-1.004538 0.280785,-0.586949 0.682661,-0.760561 0.401875,-0.173613 0.822947,0.02782 0.267954,0.128184 0.391287,0.307396 0.123333,0.179212 0.156048,0.362113 l 0.02977,0.01424 0.214917,-0.252597 0.267955,0.128185 -1.546352,3.232471 -0.374286,-0.179051 z m -0.43267,-0.745321 q 0.361526,0.172948 0.601583,0.03168 0.240056,-0.141265 0.449627,-0.579349 l 0.0081,-0.01701 q 0.201433,-0.421071 0.173167,-0.711603 -0.03456,-0.288313 -0.408841,-0.467365 -0.306234,-0.146496 -0.562936,0.0077 -0.260955,0.152175 -0.464422,0.5775 -0.413038,0.86341 0.203683,1.158438 z m -0.566254,-2.830891 0.358121,0.209522 -1.809506,3.092857 -0.35812,-0.209522 z m -2.531779,2.512504 q -0.07895,-0.05156 -0.102076,-0.145497 -0.02965,-0.09257 0.04511,-0.20705 0.07218,-0.110534 0.171439,-0.124553 0.09531,-0.0166 0.174259,0.03496 0.08685,0.05672 0.109972,0.150653 0.02312,0.09394 -0.04906,0.204471 -0.07476,0.114482 -0.16749,0.127131 -0.09531,0.0166 -0.182156,-0.04012 z m 0.348429,-0.904333 1.381807,-2.115942 0.347394,0.226864 -1.381808,2.115942 z m 0.249307,-2.992375 q 0.266734,0.202274 0.394497,0.470761 0.124007,0.265638 0.07044,0.58597 -0.05732,0.317482 -0.32797,0.67438 -0.282043,0.371925 -0.582651,0.510834 -0.300608,0.138909 -0.593608,0.08832 -0.296758,-0.05344 -0.567249,-0.258563 -0.15403,-0.116805 -0.271149,-0.258876 -0.119967,-0.138313 -0.175944,-0.251769 l 0.309405,-0.197327 q 0.06452,0.102186 0.16195,0.223405 0.09743,0.12122 0.202618,0.20099 0.593578,0.450129 1.171909,-0.312506 0.276345,-0.364411 0.281729,-0.668025 -0.0012,-0.302706 -0.286739,-0.519224 -0.1653,-0.125352 -0.314916,-0.185555 -0.153372,-0.06305 -0.295599,-0.09398 l 0.222216,-0.293033 q 0.141319,0.02433 0.285236,0.09204 0.14301,0.06111 0.315824,0.192161 z m -3.402259,0.455379 q 0.135676,-0.130997 0.270766,-0.228661 l -0.01965,-0.02035 q -0.224215,0.04608 -0.439541,-0.03438 -0.218602,-0.08386 -0.388899,-0.260238 -0.320944,-0.332404 -0.321997,-0.652528 -0.0045,-0.316849 0.344917,-0.654168 l 1.183765,-1.142953 0.284919,0.295093 -1.163413,1.123304 q -0.437552,0.422467 -0.04456,0.829492 0.294744,0.305269 0.579078,0.253571 0.277667,-0.05182 0.596503,-0.359659 l 0.93955,-0.907158 0.288195,0.298485 -2.577827,2.488953 -0.288194,-0.298486 z m -2.112479,-2.333898 q -0.198244,-0.257947 -0.226876,-0.527319 -0.03151,-0.273111 0.0994,-0.52833 0.124297,-0.256083 0.397197,-0.46582 l 0.198133,-0.152274 1.054431,1.371976 q 0.334444,-0.26893 0.387468,-0.571326 0.04641,-0.303262 -0.183436,-0.602331 -0.146528,-0.190656 -0.292225,-0.310594 -0.152308,-0.120803 -0.340269,-0.226098 l 0.287854,-0.221229 q 0.185088,0.101556 0.329919,0.228106 0.148569,0.123676 0.30659,0.329285 0.218356,0.284116 0.271981,0.593745 0.05075,0.305891 -0.08248,0.604516 -0.139839,0.29776 -0.472553,0.553466 -0.328975,0.252834 -0.647811,0.325428 -0.32171,0.06885 -0.601088,-0.03159 -0.282252,-0.104185 -0.486243,-0.369609 z m 0.272035,-0.203126 q 0.181005,0.235516 0.440583,0.256038 0.252966,0.01966 0.542239,-0.161038 l -0.784358,-1.020571 q -0.251335,0.199109 -0.319279,0.435669 -0.07168,0.239432 0.120815,0.489902 z m -1.584221,-1.724096 q -0.240764,-0.394373 -0.183192,-0.689153 0.05757,-0.294779 0.435849,-0.525717 l 1.468837,-0.896723 0.157234,0.257549 -0.264075,0.255127 0.0098,0.0161 q 0.263053,0.03275 0.443376,0.138101 0.177866,0.101328 0.344927,0.374975 0.179344,0.293767 0.14435,0.580287 -0.03902,0.288976 -0.369005,0.490432 -0.321936,0.196542 -0.649755,0.04866 -0.331842,-0.145428 -0.669777,-0.662772 l -0.235639,-0.358834 -0.128775,0.07862 q -0.269622,0.164604 -0.303005,0.345182 -0.03338,0.180579 0.09683,0.393862 0.103185,0.169016 0.248857,0.289998 0.141648,0.12344 0.287109,0.21693 L 64.79435,23.23324 Q 64.631904,23.139071 64.461664,22.977847 64.2874,22.819079 64.159648,22.609821 Z m 1.087049,-0.807269 q 0.261774,0.392595 0.470267,0.480749 0.206035,0.08413 0.41127,-0.04116 0.18109,-0.110555 0.199265,-0.270802 0.01572,-0.16427 -0.08992,-0.337311 -0.167061,-0.273646 -0.426512,-0.363835 -0.263475,-0.08773 -0.577363,0.103897 l -0.193162,0.117925 z m 0.296745,-2.001199 0.187939,0.369904 -3.194616,1.623113 -0.18794,-0.369903 z m -0.816727,-1.088534 q -0.03768,-0.08644 -0.09022,-0.171548 -0.05686,-0.08322 -0.09864,-0.131874 l 0.289573,-0.126246 q 0.05663,0.04732 0.122913,0.152153 0.0706,0.10295 0.115822,0.206678 0.07914,0.181524 0.08647,0.363496 0.0011,0.179533 -0.113019,0.34245 -0.114138,0.162917 -0.395067,0.285394 l -1.348462,0.587889 0.143203,0.328471 -0.181523,0.07914 -0.296357,-0.266844 -0.558657,0.06354 -0.09798,-0.224743 0.531605,-0.231764 -0.29206,-0.669909 0.293895,-0.128129 0.29206,0.669909 1.339818,-0.584121 q 0.211777,-0.09233 0.272167,-0.236956 0.05418,-0.147066 -0.01553,-0.30698 z m -2.420882,-0.03693 q 0.179147,-0.05894 0.343269,-0.08813 l -0.0088,-0.02687 q -0.221939,-0.05603 -0.38083,-0.222144 -0.160364,-0.170595 -0.236992,-0.403486 -0.144413,-0.43891 -0.0061,-0.727624 0.133812,-0.287241 0.595116,-0.439023 l 1.563058,-0.514288 0.128203,0.389645 -1.536185,0.505446 q -0.577749,0.190096 -0.400917,0.727536 0.132624,0.403081 0.411139,0.480202 0.272563,0.07412 0.693559,-0.0644 l 1.240593,-0.408188 0.129677,0.394123 -3.403793,1.11994 -0.129678,-0.394123 z m 0.584243,-3.247363 -0.361898,0.0654 -0.202921,-1.12281 0.361898,-0.0654 z m 0.693392,-2.896805 0.02085,0.423825 -3.362355,0.165401 -0.09243,-1.878963 0.372025,-0.0183 0.07158,1.455137 1.191423,-0.05861 -0.06718,-1.365663 0.372026,-0.0183 0.06718,1.365663 z m -1.55361,-4.405443 q 0.521892,0.039046 0.898769,0.2469114 0.372526,0.2028104 0.563125,0.562219 0.1906,0.3594086 0.152608,0.867196 -0.03905,0.5218926 -0.28136,0.8536386 -0.24196,0.327044 -0.644868,0.467109 -0.402908,0.140064 -0.9248,0.101016 -0.517191,-0.03869 -0.890069,-0.236804 -0.372878,-0.198109 -0.563477,-0.557517 -0.190248,-0.364111 -0.150849,-0.8907049 0.03764,-0.5030853 0.279601,-0.8301299 0.237258,-0.3273964 0.640518,-0.4721626 0.39891,-0.1498197 0.920802,-0.1107716 z m -0.198405,2.651777 q 0.634734,0.04749 1.02152,-0.193068 0.382085,-0.240912 0.424651,-0.809822 0.04292,-0.5736114 -0.299416,-0.8639957 -0.347035,-0.2907358 -0.981769,-0.3382266 -0.634734,-0.04749 -1.011765,0.1890707 -0.381734,0.23621 -0.4243,0.8051195 -0.04256,0.5689101 0.299065,0.8686981 0.33728,0.294734 0.972014,0.342224 z M 60.650545,6.6312898 q 0.129693,-0.6135203 0.426387,-0.8544031 0.293055,-0.2464709 0.763574,-0.1470066 0.262937,0.055582 0.417751,0.1895093 0.154813,0.1339267 0.228731,0.308582 0.07028,0.1690667 0.09514,0.3478092 l 1.667265,-0.5920912 -0.102389,0.484358 -1.529514,0.5103722 -0.138469,0.6550365 1.360814,0.2876652 -0.08776,0.415164 -3.293634,-0.6962477 z m 0.354933,0.099125 -0.09946,0.4705193 1.222427,0.2584112 0.10434,-0.4935838 q 0.08484,-0.4013252 -0.033,-0.6189975 -0.122447,-0.2186469 -0.431514,-0.283981 -0.322905,-0.06826 -0.497635,0.097205 -0.179344,0.164489 -0.265157,0.5704271 z m 1.295862,-2.910251 q 0.175422,0.069249 0.32026,0.1517684 l 0.01038,-0.026314 Q 62.497184,3.760615 62.481261,3.5312958 62.467071,3.297591 62.557091,3.069543 62.72675,2.6397597 63.017699,2.5062355 q 0.286564,-0.1352558 0.738275,0.04306 l 1.530553,0.6041921 -0.150615,0.381542 -1.50424,-0.593805 q -0.565734,-0.2233257 -0.77348,0.302939 -0.155809,0.3946987 0.009,0.6320987 0.162147,0.2312833 0.574388,0.394017 l 1.214795,0.4795446 -0.152347,0.3859278 -3.33301,-1.3157194 0.152346,-0.3859273 z m 1.249586,-2.88932445 q 0.152696,-0.28726484 0.38603,-0.42487533 0.235548,-0.14177345 0.522065,-0.128304 0.284566,0.007093 0.588484,0.16864105 l 0.220653,0.11728827 -0.812165,1.52791646 q 0.383282,0.1930555 0.68049,0.1160954 0.295258,-0.083337 0.472296,-0.4163975 0.112863,-0.2123263 0.1617,-0.3946105 0.04689,-0.1886604 0.06489,-0.4033508 l 0.32057,0.1703998 q -0.01579,0.2105278 -0.071,0.3947623 -0.05105,0.1864472 -0.172765,0.4154263 Q 65.743985,2.3902387 65.484358,2.5672686 65.226944,2.7401349 64.899957,2.7425307 64.571019,2.7385707 64.200489,2.5415944 63.834122,2.3468515 63.636013,2.0866988 63.440117,1.8223832 63.415854,1.5264885 63.393807,1.2264314 63.550926,0.93083935 Z m 0.297542,0.16349805 q -0.139418,0.2622856 -0.0506,0.5070586 0.08686,0.238397 0.371127,0.4268747 l 0.60414,-1.13657021 Q 64.487821,0.74538097 64.244361,0.78149666 63.996738,0.81539921 63.848468,1.0943374 Z m 0.913285,-2.1559587 q 0.259267,-0.3824632 0.551425,-0.452129 0.292158,-0.069666 0.65901,0.1790192 l 1.424479,0.96563808 -0.169317,0.24977155 -0.341579,-0.1347187 -0.01058,0.0156123 q 0.07912,0.25299945 0.0579,0.46076134 -0.01858,0.20385932 -0.198476,0.46924169 Q 66.541486,0.97647122 66.266196,1.063268 65.987003,1.147419 65.666983,0.93048077 65.354769,0.71883412 65.353625,0.35920523 q -0.005,-0.36227515 0.325915,-0.88410861 l 0.22904,-0.36308101 -0.124886,-0.0846584 q -0.26148,-0.17725451 -0.439671,-0.13286191 -0.178192,0.044392 -0.318408,0.25123473 -0.111115,0.16391281 -0.160912,0.34660741 -0.0537,0.18004883 -0.07856,0.35116686 l -0.329008,-0.0692376 q 0.01844,-0.18686002 0.0947,-0.40858141 0.07235,-0.22436717 0.209921,-0.42730629 z m 1.184952,0.65516716 q -0.248947,0.40085051 -0.24285,0.62713184 0.0087,0.22237825 0.20778,0.35730288 0.17562,0.11905146 0.329007,0.0692361 0.156033,-0.0537179 0.269793,-0.22153329 0.1799,-0.26538237 0.154552,-0.53888967 -0.02925,-0.27615258 -0.33366,-0.48250818 l -0.187329,-0.12698829 z m 1.944433,-0.55860502 -0.258869,0.32424727 -2.800315,-2.23568931 0.258869,-0.324247 z m 0.652599,-1.19417704 q 0.06307,-0.070097 0.118787,-0.1531608 0.05221,-0.086217 0.07919,-0.1443954 l 0.234826,0.2112991 q -0.01962,0.071144 -0.0876,0.1748856 -0.06447,0.1068953 -0.140161,0.1910122 -0.132456,0.1472047 -0.295058,0.2292276 -0.162953,0.075365 -0.358511,0.038937 -0.195557,-0.036427 -0.423373,-0.2414179 l -1.09352,-0.9839581 -0.239682,0.2663702 -0.147205,-0.1324561 0.120166,-0.3802551 -0.289175,-0.4821942 0.163993,-0.1822532 0.431099,0.3879071 0.488826,-0.543255 0.238331,0.2144527 -0.488826,0.543255 1.08651,0.977652 q 0.171739,0.1545321 0.328391,0.1496093 0.156301,-0.011582 0.272989,-0.1412617 z m -0.968881,-2.2188445 q 0.127838,0.1386555 0.222365,0.2759589 l 0.0208,-0.019176 q -0.04091,-0.225217 0.04449,-0.4386337 0.08887,-0.2166126 0.269125,-0.3828028 0.339706,-0.3132046 0.659769,-0.3068866 0.316867,0.00285 0.646052,0.3598895 l 1.115392,1.2097696 -0.301576,0.278049 -1.096216,-1.1889712 q -0.412279,-0.4471641 -0.828246,-0.063648 -0.311975,0.2876369 -0.266838,0.5730855 0.04541,0.2787863 0.345829,0.6046268 l 0.885282,0.9601896 -0.305042,0.281245 -2.428934,-2.6344553 0.305043,-0.2812449 z m 1.318879,-1.2130103 0.356179,-0.2637444 1.295307,0.8302159 q 0.169069,0.1094787 0.318353,0.2160075 0.146478,0.1027395 0.261804,0.2109463 l 0.01516,-0.011223 q -0.04741,-0.1115633 -0.110383,-0.2996042 -0.06578,-0.19183 -0.127768,-0.3864658 l -0.439945,-1.4577297 0.359968,-0.2665502 0.836242,2.9595131 q 0.107144,0.3665368 0.06289,0.6633087 -0.04046,0.293966 -0.336014,0.5128178 -0.09094,0.067339 -0.167562,0.1064758 -0.07382,0.042926 -0.131492,0.068034 L 70.890069,-2.974329 q 0.04729,-0.023285 0.109741,-0.057794 0.06624,-0.037315 0.130653,-0.085013 0.1743,-0.1290664 0.207445,-0.3061462 0.03694,-0.1798856 -0.02309,-0.3877113 l -0.09312,-0.347591 z m 5.080334,-0.2607229 q -0.294806,0.158591 -0.592106,0.1632631 -0.293147,0.00244 -0.562272,-0.1793678 -0.264972,-0.1840401 -0.477171,-0.5784988 -0.221134,-0.4110674 -0.222599,-0.7422149 -0.0015,-0.3311475 0.166281,-0.5766471 0.171898,-0.2477332 0.470857,-0.4085579 0.170239,-0.091581 0.348126,-0.1390906 0.175653,-0.051662 0.302109,-0.055444 l 0.05095,0.3634196 q -0.119756,0.016238 -0.270496,0.054498 -0.150739,0.03826 -0.267001,0.100803 -0.656047,0.3529208 -0.202611,1.1958167 0.216667,0.4027631 0.490601,0.5337976 0.275854,0.1246487 0.591421,-0.045111 0.182696,-0.098282 0.299615,-0.2093628 0.121072,-0.1133148 0.208296,-0.2298363 l 0.174226,0.3238714 q -0.08084,0.11844 -0.202224,0.2212166 -0.115001,0.1046953 -0.306002,0.2074452 z m -3.9e-5,-2.8690239 q 0.07152,0.1745081 0.112285,0.3361426 l 0.02617,-0.010728 q 0.04013,-0.2253583 0.194535,-0.3956461 0.158774,-0.1720758 0.385635,-0.2650507 0.427544,-0.1752219 0.725352,-0.057786 0.296019,0.1130734 0.480181,0.5624318 l 0.624004,1.5225833 -0.379555,0.1555542 -0.613276,-1.4964072 q -0.230649,-0.5627887 -0.754174,-0.3482313 -0.392643,0.1609181 -0.449788,0.4442072 -0.05457,0.2771384 0.1135,0.6872325 l 0.495269,1.2084688 -0.383918,0.1573421 -1.358863,-3.3156544 0.383918,-0.1573421 z m 2.027117,-1.7637892 q 0.08993,-0.02836 0.177233,0.01332 0.09038,0.03577 0.131506,0.166165 0.03971,0.125903 -0.01239,0.211545 -0.04759,0.08422 -0.137525,0.1125858 -0.09892,0.031199 -0.186226,-0.010481 -0.0873,-0.04168 -0.12701,-0.1675828 -0.04112,-0.1304 0.0079,-0.210127 0.0476,-0.08422 0.146519,-0.115423 z m 0.478397,0.8428256 0.760121,2.4101492 -0.395696,0.124796 -0.760121,-2.4101493 z m 1.674541,2.1568924 -0.40135,0.1052038 -0.908578,-3.4662018 0.401349,-0.105204 z m 1.224547,-0.2166033 q -0.464434,0.081253 -0.799159,-0.1904534 -0.335537,-0.2763512 -0.447667,-0.9172692 -0.11213,-0.640918 0.109653,-1.0147734 0.225615,-0.3793117 0.690049,-0.4605657 0.287947,-0.05038 0.487763,0.02475 0.204465,0.07432 0.347387,0.207268 l 0.02787,-0.0049 q -0.0152,-0.05956 -0.04945,-0.173235 -0.03039,-0.119127 -0.04262,-0.188792 l -0.173884,-0.993888 0.408702,-0.0715 0.617527,3.5296933 -0.329749,0.05769 -0.118879,-0.323829 -0.01856,0.00325 q -0.08384,0.1774082 -0.250109,0.3213736 -0.166271,0.1439654 -0.458865,0.1951551 z m 0.0057,-0.3504118 q 0.394768,-0.069065 0.515295,-0.310331 0.124364,-0.2467224 0.04797,-0.6832897 l -0.01302,-0.074309 q -0.08125,-0.4644334 -0.277581,-0.6837693 -0.197138,-0.2239809 -0.610488,-0.1516648 -0.329745,0.05769 -0.450627,0.3516682 -0.11705,0.2885214 -0.03986,0.7297331 0.078,0.4458559 0.28362,0.6635669 0.21026,0.2168984 0.544652,0.1583959 z m 2.428099,-2.5708079 q 0.07051,-0.0055 0.151158,-0.0022 0.08498,-0.0018 0.147179,0.0075 l -0.02227,0.384767 q -0.0622,-0.0094 -0.13814,-0.01296 -0.07124,-0.0039 -0.137051,0.0011 -0.192733,0.01491 -0.353603,0.136111 -0.161231,0.1165058 -0.249747,0.3172381 -0.08417,0.1956678 -0.06454,0.4495131 l 0.10397,1.3444399 -0.413672,0.031991 -0.194857,-2.5196501 0.338462,-0.02617 0.08263,0.457046 0.01881,-0.0015 q 0.106227,-0.216289 0.287328,-0.381621 0.1811,-0.165332 0.444346,-0.18569 z m 1.388916,-0.01199 q 0.325294,0.0045 0.554326,0.14921 0.233743,0.144727 0.352692,0.405734 0.12373,0.2563574 0.118919,0.6005096 l -0.0035,0.249864 -1.730189,-0.024188 q 0.0035,0.4291435 0.207702,0.6583353 0.209049,0.2245433 0.586204,0.229816 0.240437,0.00336 0.424888,-0.036498 0.189239,-0.044508 0.388432,-0.1265992 l -0.0051,0.3630099 q -0.194475,0.082157 -0.38358,0.1172363 -0.189169,0.039794 -0.44846,0.036169 -0.358296,-0.00501 -0.634402,-0.1550444 -0.271394,-0.1499695 -0.422953,-0.4397237 -0.146772,-0.2944028 -0.140907,-0.7139856 0.0058,-0.4148685 0.146669,-0.7099652 0.145584,-0.295031 0.397693,-0.451828 0.256816,-0.156731 0.59154,-0.152051 z m -0.0095,0.339372 q -0.29701,-0.0042 -0.47414,0.1867 -0.172359,0.1862037 -0.210103,0.5251802 l 1.287034,0.017993 q -2.32e-4,-0.3206461 -0.143614,-0.5206942 -0.143312,-0.204763 -0.459177,-0.209179 z m 2.577401,-0.146909 q 0.449004,0.05714 0.650212,0.306127 0.201802,0.2443129 0.139907,0.7307374 l -0.207717,1.6323282 -0.406915,-0.051781 0.204148,-1.6042653 q 0.07677,-0.6033533 -0.484481,-0.6747753 -0.41627,-0.05297 -0.605053,0.1606517 -0.188779,0.2136219 -0.244728,0.6532747 l -0.165459,1.30025 -0.411588,-0.052376 0.319013,-2.5069564 0.332081,0.04226 0.01737,0.34917 0.02336,0.003 q 0.146604,-0.180966 0.373656,-0.247131 0.22765,-0.07084 0.466186,-0.04049 z m 1.880218,1.8646118 0.09655,-0.3548604 1.100979,0.2995496 -0.09655,0.3548603 z m 2.317258,1.8715223 -0.391619,-0.1634024 1.296326,-3.1068197 1.736163,0.724417 -0.143431,0.3437518 -1.344544,-0.5610147 -0.459345,1.1008759 1.261873,0.5265186 -0.143431,0.3437518 -1.261874,-0.5265187 z m 4.645441,0.4914598 q -0.259642,0.4544023 -0.609354,0.7052934 -0.343273,0.2491365 -0.749718,0.2666905 -0.406439,0.017554 -0.848558,-0.2350726 -0.454405,-0.259644 -0.649737,-0.6210508 -0.191243,-0.3590677 -0.144471,-0.7830548 0.04678,-0.4239871 0.30642,-0.8783894 0.257306,-0.4503084 0.59649,-0.7017841 0.339179,-0.2514757 0.745623,-0.2690297 0.410533,-0.015215 0.869032,0.2467683 0.438026,0.2502875 0.629269,0.6093552 0.19358,0.3549739 0.150896,0.7813002 -0.03623,0.4245716 -0.295892,0.8789738 z m -2.308853,-1.3192721 q -0.315785,0.5526513 -0.264894,1.0052917 0.05323,0.4485467 0.548569,0.731582 0.49943,0.2853745 0.90879,0.1011501 0.411702,-0.1883181 0.727487,-0.7409695 0.31578,-0.5526513 0.26431,-0.9947651 -0.04915,-0.4462076 -0.544475,-0.7292429 -0.495342,-0.2830353 -0.912889,-0.1034892 -0.411117,0.1777915 -0.726898,0.7304429 z m 4.251644,0.7167326 q 0.498153,0.3808789 0.58807,0.7523171 0.09653,0.3705565 -0.195574,0.7526002 -0.163236,0.2134951 -0.350713,0.2956864 -0.187481,0.082191 -0.376947,0.073835 -0.182858,-0.00924 -0.35493,-0.063642 l -0.182274,1.759864 -0.393282,-0.3006939 0.196831,-1.6003595 -0.531862,-0.4066527 -0.844807,1.1049306 -0.3371,-0.2577377 2.044717,-2.6743063 z m -0.242099,0.2778324 -0.382046,-0.2921026 -0.758895,0.9925647 0.400772,0.3064214 q 0.325864,0.2491463 0.573052,0.2363484 0.250049,-0.016543 0.441921,-0.2674937 0.200465,-0.2621869 0.1262,-0.4910847 -0.0714,-0.2326434 -0.401004,-0.4846535 z m 1.960106,4.68559 q -0.325601,0.3075861 -0.73066,0.242696 -0.405053,-0.06489 -0.783872,-0.4658956 -0.194263,-0.2056438 -0.328541,-0.4095807 -0.134279,-0.203937 -0.189526,-0.3722724 l 0.294758,-0.2784461 q 0.06172,0.1751902 0.188763,0.398933 0.130284,0.2271701 0.314835,0.4225318 0.259018,0.2741918 0.494777,0.3109175 0.239001,0.040153 0.420651,-0.1314473 0.119958,-0.113321 0.153648,-0.2424378 0.03371,-0.1291169 -0.01757,-0.3206855 -0.0446,-0.1913789 -0.176206,-0.4886279 -0.181531,-0.4187387 -0.169191,-0.7352382 0.01559,-0.313072 0.300055,-0.5818048 0.195361,-0.1845515 0.426353,-0.2146667 0.234417,-0.033353 0.474948,0.070214 0.243762,0.1069943 0.460691,0.3366299 0.191026,0.2022164 0.311974,0.4057741 0.120948,0.2035577 0.188768,0.398933 l -0.354568,0.1533392 q -0.06496,-0.1786176 -0.169716,-0.3650383 -0.101525,-0.1829933 -0.253698,-0.3440809 -0.216928,-0.2296357 -0.426407,-0.2522726 -0.206049,-0.025875 -0.367137,0.1262994 -0.123389,0.1165588 -0.157078,0.2456756 -0.03371,0.1291169 0.01129,0.3071656 0.04495,0.1780486 0.15735,0.448068 0.125146,0.2903942 0.17183,0.5251914 0.05335,0.2349868 -0.0025,0.4301861 -0.05235,0.1986268 -0.244283,0.3799404 z m -0.02529,1.52817836 q -0.204964,-0.26467353 -0.258518,-0.55714725 -0.05067,-0.28874591 0.08435,-0.58412971 0.137902,-0.291656 0.492044,-0.5659016 0.369053,-0.2857925 0.695441,-0.3417565 0.326388,-0.055964 0.596153,0.069076 0.272657,0.1287674 0.480507,0.3971687 0.11836,0.1528396 0.1945,0.3204773 0.0799,0.1647503 0.10443,0.2888592 l -0.35007,0.1100855 q -0.0357,-0.1154483 -0.0983,-0.2578321 -0.0626,-0.1423838 -0.14338,-0.2467624 -0.456121,-0.5889918 -1.212867,-0.00297 -0.361592,0.280019 -0.445742,0.5717883 -0.07753,0.29261086 0.141867,0.57592312 0.127017,0.1640232 0.255831,0.26105953 0.131699,0.10076369 0.260993,0.16761393 L 98.754189,0.10512074 Q 98.624054,0.04488568 98.5027,-0.05792434 98.380499,-0.15411917 98.247705,-0.32559806 Z m 3.549277,-1.07663536 q 0.0524,0.078427 0.0367,0.1738969 -0.009,0.096774 -0.12281,0.1726902 -0.1098,0.0732991 -0.20658,0.047208 -0.0942,-0.022171 -0.14652,-0.1005978 -0.0576,-0.08627 -0.042,-0.1817398 0.0156,-0.09547 0.12543,-0.1687687 0.11372,-0.075917 0.20396,-0.051128 0.0942,0.022171 0.15176,0.1084407 z m -0.67563,0.69480028 -2.101848,1.40315125 -0.230368,-0.34507984 2.101856,-1.40315129 z m 0.84152,1.3030281 q 0.15891,0.28387359 0.14834,0.55455742 -0.008,0.2747978 -0.17467,0.5084333 -0.15997,0.2354468 -0.46031,0.4035705 l -0.21804,0.1220626 -0.84523,-1.50987922 q -0.36978,0.21780693 -0.465922,0.50937532 -0.08972,0.293379 0.09452,0.6225085 0.11745,0.2098196 0.2443,0.3495423 0.13327,0.1415338 0.30405,0.2728712 l -0.31679,0.1773362 Q 100.10464,2.4787472 99.979606,2.3326074 99.850456,2.1887703 99.72379,1.9624944 99.548753,1.6498217 99.540413,1.3356937 q -0.006,-0.3100135 0.168918,-0.58626611 0.181378,-0.27444186 0.547539,-0.47941492 0.36204,-0.20266983 0.68802,-0.22845389 0.32828,-0.0216711 0.59022,0.11807384 0.26425,0.14385789 0.42776,0.43595986 z m -0.29852,0.1617066 q -0.14509,-0.25918893 -0.39898,-0.31698563 -0.24748,-0.055985 -0.55982,0.0810369 L 101.33426,1.6445 q 0.27746,-0.160723 0.37886,-0.3849892 0.10551,-0.2265694 -0.0488,-0.50221502 z m 1.41748,2.15762782 q 0.17532,0.4172954 0.0605,0.7161229 -0.11046,0.297002 -0.56253,0.4869315 l -1.51704,0.6373595 -0.15888,-0.3781735 1.49096,-0.6264023 q 0.56073,-0.2355858 0.34158,-0.7572044 -0.16253,-0.3868673 -0.44197,-0.4433468 -0.27943,-0.05648 -0.68803,0.115187 l -1.20841,0.5076963 -0.16072,-0.3825202 2.3299,-0.9788679 0.12966,0.3086246 -0.29358,0.1898245 0.009,0.021735 q 0.23005,0.036313 0.401,0.1997439 0.17529,0.1616026 0.26843,0.3832903 z m -1.71545,3.0327709 q -0.0967,-0.3204749 -0.0421,-0.612755 0.056,-0.2877663 0.2877,-0.5153153 0.2331,-0.2230357 0.66191,-0.3524688 0.44686,-0.134883 0.77167,-0.070402 0.32481,0.064481 0.53201,0.2777385 0.20856,0.2177713 0.30665,0.5427596 0.0559,0.1850632 0.067,0.3688468 0.0156,0.1824219 -0.006,0.3071005 l -0.36629,-0.022414 q 0.008,-0.1205919 4.4e-4,-0.2759308 -0.007,-0.155339 -0.0456,-0.2817234 -0.21527,-0.7131697 -1.13156,-0.4365909 -0.43782,0.132158 -0.62077,0.3745273 -0.17706,0.2455205 -0.0735,0.588564 0.0599,0.1986044 0.14553,0.3352951 0.0869,0.1412047 0.18377,0.2498775 l -0.35207,0.1062716 q -0.1,-0.1027967 -0.17653,-0.2422124 -0.0797,-0.1335397 -0.14239,-0.3411714 z m 2.96119,1.12875 q 0.0626,0.3192418 -0.0317,0.5731778 -0.0934,0.2585623 -0.32429,0.4287735 -0.22534,0.1739306 -0.56309,0.2401839 l -0.24521,0.048104 -0.33308,-1.6979985 q -0.41922,0.091843 -0.60137,0.3389819 -0.17661,0.2508581 -0.104,0.6209938 0.0463,0.2359616 0.12332,0.4082345 0.0826,0.1759923 0.20397,0.3539769 l -0.35626,0.069884 q -0.12049,-0.1733584 -0.19381,-0.3511653 -0.0779,-0.1768997 -0.12786,-0.4313683 -0.069,-0.3516292 0.0209,-0.6527392 0.0908,-0.2964837 0.34307,-0.5045272 0.25781,-0.2043246 0.66959,-0.2850992 0.40715,-0.079867 0.72495,-0.00287 0.31871,0.081624 0.52412,0.2959808 0.20631,0.2189835 0.27075,0.5474794 z m -0.33403,0.060719 q -0.0572,-0.2914823 -0.28045,-0.425459 -0.21774,-0.1302577 -0.55722,-0.097299 l 0.24778,1.2630886 q 0.3137,-0.066342 0.47989,-0.2478886 0.17081,-0.1824535 0.11,-0.492442 z m -0.83097,2.3174301 0.36711,-0.021968 0.0682,1.1389624 -0.3671,0.02197 z"
       id="text3"
       aria-label="FOR vaccines - FOR public health - FOR healthy children - FOR Science - " />
  </g>
  <g
     inkscape:groupmode="layer"
     id="layer2"
     inkscape:label="cut"
     style="display:inline">
    <path
       id="path3"
       style="fill:none;stroke:#000000;stroke-width:0.499999;stroke-linejoin:round"
       d="m 107.59836,11.241806 a 24.75,24.75 0 0 1 -24.750001,24.75 24.75,24.75 0 0 1 -24.750001,-24.75 24.75,24.75 0 0 1 24.750001,-24.75 24.75,24.75 0 0 1 24.750001,24.75 z"
       transform="translate(-57.84836,13.758193)" />
  </g>
</svg>
