<?xml version="1.0" encoding="UTF-8" standalone="no"?>
<!-- Created with Inkscape (http://www.inkscape.org/) -->

<svg
   width="50mm"
   height="50mm"
   viewBox="0 0 50 50"
   version="1.1"
   id="svg1"
   inkscape:version="1.4.2 (ebf0e940d0, 2025-05-08)"
   sodipodi:docname="not-for-measles.svg"
   xmlns:inkscape="http://www.inkscape.org/namespaces/inkscape"
   xmlns:sodipodi="http://sodipodi.sourceforge.net/DTD/sodipodi-0.dtd"
   xmlns="http://www.w3.org/2000/svg"
   xmlns:svg="http://www.w3.org/2000/svg">
  <sodipodi:namedview
     id="namedview1"
     pagecolor="#ffffff"
     bordercolor="#000000"
     borderopacity="0.25"
     inkscape:showpageshadow="2"
     inkscape:pageopacity="0.0"
     inkscape:pagecheckerboard="0"
     inkscape:deskcolor="#d1d1d1"
     inkscape:document-units="mm"
     inkscape:zoom="4.4767501"
     inkscape:cx="94.599875"
     inkscape:cy="94.488187"
     inkscape:window-width="1896"
     inkscape:window-height="1032"
     inkscape:window-x="0"
     inkscape:window-y="0"
     inkscape:window-maximized="1"
     inkscape:current-layer="layer1" />
  <defs
     id="defs1" />
  <g
     inkscape:label="engrave"
     inkscape:groupmode="layer"
     id="layer1"
     transform="translate(-57.848358,13.758193)"
     style="display:inline">
    <g
       id="text1"
       style="font-size:21.1079px;font-family:Sans;-inkscape-font-specification:'Sans, Normal';text-align:center;letter-spacing:0px;word-spacing:0px;text-anchor:middle;stroke:#000000;stroke-width:1.0101;stroke-linejoin:round"
       transform="matrix(0.36611407,0,0,0.66925861,28.817238,-7.4220488)"
       aria-label="Measles&#10;is BAD">
      <path
         style="stroke-width:1.0101"
         d="m 115.496,26.074327 -4.96035,-13.213546 h -0.0844 q 0.0633,0.654345 0.10554,1.773064 0.0422,1.097611 0.0422,2.300761 v 9.139721 h -1.75196 V 11.003286 h 2.80735 l 4.64374,12.348122 h 0.0844 l 4.72817,-12.348122 h 2.78625 v 15.071041 h -1.87861 v -9.266368 q 0,-1.097611 0.0422,-2.174114 0.0633,-1.076503 0.10554,-1.751956 h -0.0844 l -5.02368,13.192438 z m 16.61191,-11.524914 q 1.45645,0 2.49073,0.633237 1.0554,0.633237 1.6042,1.794172 0.56992,1.139826 0.56992,2.680703 v 1.118719 h -7.7466 q 0.0422,1.920819 0.97096,2.933998 0.94986,0.992071 2.63849,0.992071 1.0765,0 1.89971,-0.189971 0.84432,-0.211079 1.73085,-0.591021 v 1.625308 q -0.86543,0.379943 -1.70974,0.548806 -0.84432,0.189971 -2.00525,0.189971 -1.6042,0 -2.84957,-0.654345 -1.22426,-0.654345 -1.92082,-1.941927 -0.67545,-1.30869 -0.67545,-3.187293 0,-1.857495 0.61213,-3.187293 0.63324,-1.329798 1.75195,-2.047466 1.13983,-0.717669 2.63849,-0.717669 z m -0.0211,1.519769 q -1.32979,0 -2.11079,0.865424 -0.75988,0.844316 -0.90764,2.364085 h 5.76246 q -0.0211,-1.435337 -0.67545,-2.321869 -0.65435,-0.90764 -2.06858,-0.90764 z m 11.84152,-1.498661 q 2.06857,0 3.06064,0.90764 0.99208,0.90764 0.99208,2.891782 v 7.704384 h -1.35091 l -0.35883,-1.6042 h -0.0844 q -0.73877,0.928747 -1.56198,1.372013 -0.8021,0.443266 -2.23744,0.443266 -1.54087,0 -2.55405,-0.8021 -1.01318,-0.823208 -1.01318,-2.554056 0,-1.688632 1.32979,-2.596272 1.3298,-0.928748 4.09494,-1.013179 l 1.92082,-0.06332 v -0.675453 q 0,-1.414229 -0.61213,-1.963034 -0.61213,-0.548806 -1.73085,-0.548806 -0.88653,0 -1.68863,0.274403 -0.8021,0.253295 -1.49866,0.591021 l -0.56992,-1.393121 q 0.73878,-0.401051 1.75196,-0.675453 1.01318,-0.295511 2.11079,-0.295511 z m 0.5488,6.03686 q -2.11079,0.08443 -2.93399,0.675453 -0.8021,0.591021 -0.8021,1.667524 0,0.949855 0.56991,1.393121 0.59102,0.443266 1.49866,0.443266 1.43534,0 2.38519,-0.780992 0.94986,-0.8021 0.94986,-2.448517 v -1.013179 z m 14.3745,2.342977 q 0,1.646416 -1.22425,2.490732 -1.22426,0.844316 -3.29284,0.844316 -1.18204,0 -2.04746,-0.189971 -0.84432,-0.189971 -1.49866,-0.527698 v -1.688632 q 0.67545,0.337727 1.6253,0.633237 0.97097,0.274403 1.96304,0.274403 1.41423,0 2.04746,-0.443266 0.63324,-0.464374 0.63324,-1.224258 0,-0.422158 -0.23219,-0.759885 -0.23218,-0.337726 -0.84431,-0.675452 -0.59102,-0.337727 -1.70974,-0.759885 -1.09761,-0.422158 -1.8786,-0.844316 -0.781,-0.422158 -1.20315,-1.013179 -0.42216,-0.591021 -0.42216,-1.519769 0,-1.435337 1.16093,-2.216329 1.18204,-0.780993 3.08176,-0.780993 1.03428,0 1.92081,0.211079 0.90764,0.189971 1.68864,0.548806 l -0.63324,1.477553 q -0.71767,-0.295511 -1.49866,-0.50659 -0.78099,-0.211079 -1.6042,-0.211079 -1.13983,0 -1.75196,0.379942 -0.59102,0.358835 -0.59102,0.992072 0,0.464373 0.2744,0.8021 0.27441,0.316618 0.90764,0.633237 0.65435,0.29551 1.73085,0.717669 1.0765,0.40105 1.83639,0.823208 0.75988,0.422158 1.16093,1.034287 0.40105,0.591021 0.40105,1.498661 z m 4.60152,3.123969 h -1.85749 V 10.032323 h 1.85749 z m 7.95767,-11.524914 q 1.45645,0 2.49073,0.633237 1.0554,0.633237 1.60421,1.794172 0.56991,1.139826 0.56991,2.680703 v 1.118719 h -7.7466 q 0.0422,1.920819 0.97096,2.933998 0.94986,0.992071 2.63849,0.992071 1.0765,0 1.89971,-0.189971 0.84432,-0.211079 1.73085,-0.591021 v 1.625308 q -0.86543,0.379943 -1.70974,0.548806 -0.84432,0.189971 -2.00525,0.189971 -1.6042,0 -2.84957,-0.654345 -1.22426,-0.654345 -1.92082,-1.941927 -0.67545,-1.30869 -0.67545,-3.187293 0,-1.857495 0.61213,-3.187293 0.63324,-1.329798 1.75195,-2.047466 1.13983,-0.717669 2.63849,-0.717669 z m -0.0211,1.519769 q -1.32979,0 -2.11079,0.865424 -0.75988,0.844316 -0.90764,2.364085 h 5.76246 q -0.0211,-1.435337 -0.67545,-2.321869 -0.65435,-0.90764 -2.06858,-0.90764 z m 14.92328,6.881176 q 0,1.646416 -1.22426,2.490732 -1.22426,0.844316 -3.29283,0.844316 -1.18205,0 -2.04747,-0.189971 -0.84432,-0.189971 -1.49866,-0.527698 v -1.688632 q 0.67545,0.337727 1.62531,0.633237 0.97096,0.274403 1.96303,0.274403 1.41423,0 2.04747,-0.443266 0.63324,-0.464374 0.63324,-1.224258 0,-0.422158 -0.23219,-0.759885 -0.23219,-0.337726 -0.84432,-0.675452 -0.59102,-0.337727 -1.70974,-0.759885 -1.09761,-0.422158 -1.8786,-0.844316 -0.78099,-0.422158 -1.20315,-1.013179 -0.42216,-0.591021 -0.42216,-1.519769 0,-1.435337 1.16094,-2.216329 1.18204,-0.780993 3.08175,-0.780993 1.03429,0 1.92082,0.211079 0.90764,0.189971 1.68863,0.548806 l -0.63324,1.477553 q -0.71767,-0.295511 -1.49866,-0.50659 -0.78099,-0.211079 -1.6042,-0.211079 -1.13983,0 -1.75195,0.379942 -0.59103,0.358835 -0.59103,0.992072 0,0.464373 0.27441,0.8021 0.2744,0.316618 0.90764,0.633237 0.65434,0.29551 1.73084,0.717669 1.07651,0.40105 1.83639,0.823208 0.75989,0.422158 1.16094,1.034287 0.40105,0.591021 0.40105,1.498661 z"
         id="path4" />
      <path
         style="stroke-width:1.0101"
         d="m 117.94451,29.974795 q 0.42216,0 0.73878,0.295511 0.33773,0.274403 0.33773,0.886532 0,0.591021 -0.33773,0.886532 -0.31662,0.29551 -0.73878,0.29551 -0.46437,0 -0.78099,-0.29551 -0.31662,-0.295511 -0.31662,-0.886532 0,-0.612129 0.31662,-0.886532 0.31662,-0.295511 0.78099,-0.295511 z m 0.90764,4.242688 v 11.313835 h -1.85749 V 34.217483 Z m 10.95499,8.189866 q 0,1.646416 -1.22426,2.490732 -1.22425,0.844316 -3.29283,0.844316 -1.18204,0 -2.04747,-0.189971 -0.84431,-0.189971 -1.49866,-0.527697 v -1.688632 q 0.67546,0.337726 1.62531,0.633237 0.97097,0.274402 1.96304,0.274402 1.41423,0 2.04746,-0.443266 0.63324,-0.464373 0.63324,-1.224258 0,-0.422158 -0.23219,-0.759884 -0.23218,-0.337727 -0.84431,-0.675453 -0.59102,-0.337727 -1.70974,-0.759885 -1.09761,-0.422158 -1.87861,-0.844316 -0.78099,-0.422158 -1.20315,-1.013179 -0.42215,-0.591021 -0.42215,-1.519769 0,-1.435337 1.16093,-2.216329 1.18204,-0.780993 3.08175,-0.780993 1.03429,0 1.92082,0.211079 0.90764,0.189972 1.68864,0.548806 l -0.63324,1.477553 q -0.71767,-0.295511 -1.49866,-0.50659 -0.781,-0.211079 -1.6042,-0.211079 -1.13983,0 -1.75196,0.379943 -0.59102,0.358834 -0.59102,0.992071 0,0.464374 0.2744,0.8021 0.27441,0.316619 0.90764,0.633237 0.65435,0.295511 1.73085,0.717669 1.0765,0.40105 1.83639,0.823208 0.75988,0.422158 1.16093,1.034287 0.40105,0.591021 0.40105,1.498661 z m 12.7914,-11.947072 q 2.82845,0 4.26379,0.844316 1.45645,0.823208 1.45645,2.891783 0,1.329797 -0.73878,2.216329 -0.73878,0.865424 -2.1319,1.118719 v 0.105539 q 0.94986,0.147756 1.70974,0.548806 0.78099,0.40105 1.22426,1.139826 0.44327,0.738777 0.44327,1.920819 0,2.047467 -1.41423,3.166185 -1.39312,1.118719 -3.82053,1.118719 h -5.29809 V 30.460277 Z m 0.37994,6.416802 q 1.94193,0 2.65959,-0.612129 0.71767,-0.633237 0.71767,-1.857495 0,-1.245367 -0.88653,-1.773064 -0.86542,-0.548806 -2.78624,-0.548806 h -2.49073 v 4.791494 z m -2.78624,1.583092 v 5.466947 h 3.03953 q 2.00525,0 2.78625,-0.780993 0.78099,-0.780992 0.78099,-2.047466 0,-1.182042 -0.82321,-1.899711 -0.8021,-0.738777 -2.89178,-0.738777 z m 21.27675,7.071147 -1.81528,-4.664846 h -5.97353 l -1.79418,4.664846 h -1.92081 l 5.8891,-15.134365 h 1.70974 l 5.868,15.134365 z m -4.07382,-10.912784 q -0.0633,-0.168864 -0.21108,-0.61213 -0.14776,-0.443265 -0.29551,-0.907639 -0.12665,-0.485482 -0.21108,-0.738777 -0.14776,0.654345 -0.33773,1.287582 -0.18997,0.612129 -0.31662,0.970964 l -1.70974,4.559306 h 4.77039 z m 20.17915,3.229508 q 0,3.82053 -2.08968,5.762457 -2.06858,1.920819 -5.78357,1.920819 H 165.5006 V 30.460277 h 4.64374 q 2.27965,0 3.94718,0.844316 1.66752,0.844316 2.57516,2.490732 0.90764,1.625309 0.90764,4.052717 z m -2.00525,0.06332 q 0,-3.01843 -1.49866,-4.411551 -1.47755,-1.41423 -4.20047,-1.41423 h -2.46963 V 43.90601 h 2.04747 q 6.12129,0 6.12129,-5.994644 z"
         id="path5" />
    </g>
    <path
       style="font-size:4.58611px;font-family:Sans;-inkscape-font-specification:'Sans, Normal';text-align:center;letter-spacing:0px;word-spacing:1.00277px;direction:rtl;text-anchor:middle;stroke:#000000;stroke-width:0.11;stroke-linejoin:round"
       d="m 44.366977,28.729488 0.08487,-0.40393 3.204511,0.673307 -0.376259,1.790756 -0.354561,-0.0745 0.291389,-1.386827 -1.135492,-0.23858 -0.273472,1.301552 -0.354561,-0.0745 0.273472,-1.301552 z m 0.372876,4.574082 q -0.481992,-0.163781 -0.786332,-0.451253 -0.301472,-0.281655 -0.393505,-0.666514 -0.09203,-0.384859 0.06732,-0.853824 0.163781,-0.481992 0.472712,-0.735447 0.307456,-0.249112 0.720982,-0.282968 0.413527,-0.03385 0.895519,0.129926 0.477649,0.162305 0.780597,0.439618 0.302949,0.277312 0.394981,0.662171 0.09056,0.389201 -0.0747,0.875535 -0.157879,0.464623 -0.465335,0.713736 -0.303114,0.250588 -0.718115,0.288785 -0.412136,0.04402 -0.894127,-0.119765 z m 0.832182,-2.44904 q -0.586206,-0.199193 -1.009007,-0.06677 -0.418458,0.133896 -0.596994,0.65931 -0.180011,0.529757 0.07172,0.886538 0.256069,0.358256 0.842275,0.557448 0.586207,0.199193 0.998847,0.06816 0.416983,-0.129554 0.595518,-0.654968 0.178536,-0.525415 -0.07024,-0.89088 -0.245909,-0.359647 -0.832115,-0.55884 z m 0.0915,4.233618 q -0.269454,0.547208 -0.606922,0.703088 -0.335379,0.16202 -0.755042,-0.04463 -0.234518,-0.115481 -0.348318,-0.278869 -0.1138,-0.163388 -0.141573,-0.345759 -0.02568,-0.17623 -0.0062,-0.350684 l -1.713681,0.158101 0.212727,-0.432006 1.564225,-0.114121 0.287687,-0.584237 -1.213732,-0.597661 0.182337,-0.370292 2.937644,1.446543 z m -0.310789,-0.178597 0.206649,-0.419664 -1.090302,-0.536882 -0.216779,0.440236 q -0.176259,0.357948 -0.11741,0.591405 0.06296,0.235482 0.338624,0.371222 0.288005,0.141818 0.492411,0.02777 0.208522,-0.112024 0.386807,-0.474086 z m -2.899544,3.849623 q -0.278689,0.358429 -0.697405,0.381421 -0.421531,0.02661 -0.92478,-0.364678 -0.496007,-0.38566 -0.581345,-0.806378 -0.08815,-0.417097 0.193351,-0.779147 0.174532,-0.22447 0.37322,-0.308165 0.199494,-0.07726 0.376475,-0.07326 l 0.01689,-0.02172 q -0.06718,-0.04062 -0.166941,-0.106565 -0.09976,-0.06595 -0.168552,-0.119436 l -0.796509,-0.619308 0.247723,-0.318604 2.809503,2.18447 -0.202683,0.260675 -0.298076,-0.162051 -0.01126,0.01448 q 0.05916,0.185419 0.03626,0.394179 -0.02289,0.20876 -0.205872,0.444092 z m -0.222876,-0.266241 q 0.230833,-0.29688 0.160002,-0.549469 -0.07365,-0.248968 -0.408343,-0.520822 l -0.06155,-0.04786 q -0.358429,-0.278689 -0.644017,-0.314845 -0.284782,-0.02972 -0.532505,0.288883 -0.137937,0.177404 -0.12745,0.365645 0.0077,0.191862 0.131989,0.375661 0.125123,0.190235 0.342352,0.359137 0.333085,0.258983 0.633554,0.283473 0.297653,0.02811 0.505966,-0.239807 z m -2.106855,2.761498 -1.755918,-1.720254 0.231079,-0.23587 0.274316,0.185282 0.01284,-0.0131 q -0.05415,-0.219971 0.02797,-0.434854 0.08539,-0.211674 0.252281,-0.382024 0.311314,-0.317769 0.619271,-0.330658 0.311233,-0.0097 0.645381,0.317683 l 1.149865,1.12651 -0.28564,0.291561 -1.130208,-1.107253 q -0.419324,-0.410807 -0.801246,-0.02097 -0.28564,0.291561 -0.230962,0.563415 0.05147,0.275131 0.359409,0.576817 l 0.913995,0.895431 z m -0.562011,0.721448 q -0.09822,-0.121107 -0.177754,-0.233744 -0.08021,-0.106186 -0.122196,-0.172517 l -0.01781,0.01444 q 0.01629,0.187547 -0.05975,0.385022 -0.07604,0.197474 -0.300442,0.379464 -0.356198,0.288873 -0.772127,0.212858 -0.416603,-0.06956 -0.815247,-0.561116 -0.398645,-0.491552 -0.383575,-0.917103 0.01507,-0.42555 0.367705,-0.711534 0.224404,-0.18199 0.433324,-0.215614 0.20892,-0.03362 0.383284,0.01392 l 0.02493,-0.02022 -0.132318,-0.294212 0.224405,-0.181989 2.195432,2.7071 -0.313453,0.254208 z m -0.835397,0.06931 q 0.302768,-0.245542 0.278765,-0.515406 -0.024,-0.269865 -0.321541,-0.636748 l -0.01156,-0.01425 q -0.285984,-0.352636 -0.55307,-0.448981 -0.267759,-0.0899 -0.581212,0.164313 -0.256462,0.207989 -0.228029,0.497879 0.02487,0.292779 0.313744,0.648976 0.586412,0.723081 1.102898,0.304215 z m -2.74944,-0.661271 0.332969,-0.228048 1.969507,2.87565 -0.33297,0.228048 z m 1.146676,3.279089 q -0.07807,0.04815 -0.170322,0.02962 -0.09375,-0.01222 -0.163574,-0.125415 -0.06741,-0.109292 -0.03867,-0.202461 0.02484,-0.09076 0.102908,-0.138913 0.08587,-0.05297 0.178129,-0.03444 0.09226,0.01853 0.15967,0.127824 0.06982,0.113195 0.04257,0.200052 -0.02484,0.09076 -0.110714,0.143729 z m -0.651779,-0.68103 -1.290502,-2.09216 0.343489,-0.211873 1.290502,2.092159 z m -2.554675,-1.442387 q 0.288166,-0.151608 0.577376,-0.153484 0.285151,2.6e-4 0.545283,0.179509 0.256073,0.181385 0.458927,0.566959 0.211396,0.401809 0.209849,0.723912 -0.0015,0.322103 -0.166908,0.559382 -0.169421,0.239415 -0.461646,0.393157 -0.166405,0.08755 -0.339853,0.132162 -0.171312,0.04867 -0.294344,0.05121 l -0.04629,-0.353936 q 0.116626,-0.01472 0.263586,-0.05058 0.14696,-0.03586 0.260603,-0.09565 0.64127,-0.337379 0.207802,-1.16129 -0.207125,-0.393692 -0.472391,-0.523601 -0.267189,-0.123715 -0.575649,0.03857 -0.178581,0.09395 -0.2933,0.200947 -0.118777,0.109128 -0.204661,0.22168 l -0.166554,-0.316577 q 0.07969,-0.114475 0.198679,-0.213351 0.112795,-0.100799 0.299494,-0.199023 z m -1.894437,3.511507 q -0.05314,-0.175581 -0.07768,-0.335855 l -0.02634,0.008 q -0.05966,0.214509 -0.224904,0.365138 -0.169631,0.151958 -0.397885,0.221035 -0.430171,0.130184 -0.707692,-0.01103 -0.276192,-0.136825 -0.413019,-0.588944 l -0.463614,-1.531936 0.381886,-0.115572 0.455645,1.505599 q 0.171364,0.566246 0.698105,0.406837 0.395055,-0.119557 0.476549,-0.388587 0.07843,-0.263313 -0.04644,-0.675926 l -0.367969,-1.215892 0.386276,-0.1169 1.009591,3.336022 -0.386276,0.1169 z m -2.993759,0.804765 q -0.31108,0.05801 -0.557211,-0.03605 -0.25064,-0.09322 -0.414094,-0.319325 -0.167122,-0.220757 -0.228489,-0.54987 l -0.04455,-0.238946 1.654585,-0.308518 q -0.08552,-0.408584 -0.324237,-0.587998 -0.242389,-0.174066 -0.603061,-0.106814 -0.229929,0.04287 -0.398191,0.116234 -0.171929,0.07871 -0.346151,0.195168 l -0.06473,-0.347147 q 0.169713,-0.115618 0.343324,-0.185311 0.172771,-0.0742 0.420733,-0.120437 0.342639,-0.06389 0.634695,0.02627 0.287547,0.091 0.487604,0.338274 0.19639,0.25262 0.271207,0.653868 0.07398,0.39674 -0.0038,0.705148 -0.08229,0.309249 -0.292655,0.507089 -0.214872,0.198681 -0.534969,0.258367 z M 28.97263,46.53042 q 0.28403,-0.05296 0.416374,-0.268909 0.128677,-0.2106 0.09971,-0.541089 l -1.230795,0.229497 q 0.06167,0.305731 0.23674,0.469024 0.175909,0.167801 0.477972,0.111477 z m -2.228992,0.620515 q -0.447998,0.03596 -0.678633,-0.143361 -0.230636,-0.179323 -0.26513,-0.609035 l -0.133943,-1.668563 0.29257,-0.02349 0.105603,0.341188 0.01829,-0.0015 q 0.143853,-0.213985 0.314431,-0.324297 0.166007,-0.109944 0.476863,-0.134897 0.333712,-0.02679 0.567084,0.12931 0.23374,0.160671 0.263831,0.535526 0.02936,0.365712 -0.242862,0.585401 -0.271852,0.224261 -0.869238,0.290619 l -0.414897,0.04711 0.01174,0.146285 q 0.02459,0.306284 0.166698,0.414499 0.142112,0.108214 0.384397,0.08877 0.191999,-0.01541 0.360941,-0.08879 0.16931,-0.0688 0.314295,-0.154054 l 0.147648,0.291804 q -0.153027,0.0997 -0.367684,0.176743 -0.21429,0.08161 -0.452003,0.100697 z m -0.223809,-1.297881 q 0.455673,-0.05498 0.623683,-0.197293 0.163438,-0.141944 0.144723,-0.375086 -0.01651,-0.205713 -0.147648,-0.291804 -0.135705,-0.08573 -0.332276,-0.06995 -0.310855,0.02495 -0.502991,0.210609 -0.191768,0.190227 -0.163145,0.546796 l 0.01761,0.219428 z m -1.638537,-1.13238 0.403575,-0.0017 0.01468,3.485413 -0.403574,0.0017 z m -1.326298,0.23508 q -0.09159,-0.0049 -0.188496,0.0038 -0.09715,0.0132 -0.157657,0.02835 l 0.01632,-0.306836 q 0.06582,-0.02865 0.185865,-0.04063 0.120289,-0.01656 0.2302,-0.01072 0.192345,0.01023 0.353801,0.08312 0.156633,0.07722 0.248615,0.247447 0.09198,0.170227 0.07615,0.467903 l -0.07601,1.428846 0.348052,0.01851 -0.01023,0.192345 -0.361158,0.141529 -0.188058,0.513553 -0.238141,-0.01267 0.02996,-0.563295 -0.709843,-0.03776 0.01656,-0.311415 0.709844,0.03776 0.07552,-1.419687 q 0.01194,-0.224403 -0.08755,-0.339917 -0.104308,-0.111178 -0.273754,-0.120192 z m -1.117914,2.087259 q 0.0263,-0.181549 0.072,-0.337118 l -0.02723,-0.0039 q -0.144964,0.168993 -0.358475,0.235378 -0.21805,0.06573 -0.454064,0.03154 -0.444797,-0.06443 -0.636293,-0.30997 -0.192154,-0.240999 -0.124434,-0.708489 l 0.22946,-1.584019 0.39487,0.0572 -0.225515,1.556787 q -0.08481,0.585497 0.459834,0.664394 0.408486,0.05917 0.596334,-0.149948 0.182653,-0.20524 0.244456,-0.631881 l 0.182121,-1.25723 0.399409,0.05786 -0.499684,3.44944 -0.399409,-0.05786 z m -3.437286,-2.150615 -0.112412,0.339595 -1.053615,-0.348765 0.112412,-0.339595 z m -2.922113,-2.303164 0.3649,0.192901 -1.53035,2.894869 -1.617721,-0.855195 0.169325,-0.3203 1.252821,0.662294 0.542267,-1.025773 -1.175787,-0.621571 0.169324,-0.3203 1.175787,0.62157 z M 11.57796,41.687123 q 0.290268,-0.418192 0.65048,-0.631523 0.35383,-0.212179 0.749149,-0.194586 0.395318,0.01759 0.802208,0.300015 0.418192,0.290268 0.576695,0.657085 0.154736,0.364202 0.07332,0.771045 -0.08142,0.406843 -0.371686,0.825036 -0.287653,0.414424 -0.637715,0.629218 -0.350062,0.214794 -0.745381,0.197201 -0.399086,-0.02021 -0.821046,-0.31309 -0.403122,-0.279808 -0.557858,-0.64401 -0.157351,-0.360434 -0.0797,-0.769893 0.07127,-0.408305 0.361536,-0.826498 z m 2.124868,1.474876 q 0.353029,-0.508612 0.342254,-0.951533 -0.01339,-0.439154 -0.469257,-0.755572 -0.459635,-0.319034 -0.871972,-0.175378 -0.414952,0.147423 -0.767981,0.656035 -0.353029,0.508612 -0.340791,0.941383 0.0096,0.436539 0.46549,0.752958 0.455867,0.316418 0.875739,0.177993 0.413489,-0.137274 0.766518,-0.645886 z M 9.6079434,42.083232 q -0.451761,-0.409822 -0.5086032,-0.77718 -0.06332,-0.367043 0.2509794,-0.713506 0.1756381,-0.193612 0.3640608,-0.257978 0.1884227,-0.06436 0.3713856,-0.0408 0.176484,0.02388 0.338823,0.09065 l 0.320285,-1.690892 0.356654,0.323544 -0.321375,1.535103 0.482331,0.437555 0.909004,-1.002027 0.305703,0.277324 -2.200098,2.425243 z m 0.2573303,-0.249536 0.3464633,0.3143 0.816563,-0.900125 -0.363447,-0.329707 q -0.295513,-0.268079 -0.536147,-0.275846 -0.2437161,-0.0044 -0.4501679,0.223209 -0.2156958,0.237769 -0.1623942,0.46569 0.05022,0.231319 0.3491298,0.502479 z M 8.1436208,36.52246 q 0.2862139,-0.214575 0.5925466,-0.111789 0.3063327,0.102787 0.575928,0.462389 0.1540544,0.205487 0.2338196,0.380692 0.077014,0.171535 0.1035837,0.329302 L 9.355946,37.803132 Q 9.3266255,37.641695 9.2542035,37.438058 9.1753611,37.233503 9.0460654,37.061041 8.8617503,36.81519 8.7021636,36.762878 q -0.1632562,-0.04956 -0.2953549,0.04947 -0.073388,0.05502 -0.101838,0.139399 -0.02845,0.08438 -0.00738,0.234807 0.018317,0.146759 0.09073,0.396257 0.069662,0.245829 0.09806,0.436617 0.028398,0.190787 -0.019326,0.341203 -0.047724,0.150415 -0.209178,0.271458 -0.2495198,0.187066 -0.5365913,0.08703 Q 7.4314605,38.615426 7.183873,38.28518 7.0490754,38.105379 6.9702287,37.923754 6.8849616,37.74121 6.8455556,37.558676 l 0.3393877,-0.08249 q 0.042161,0.163273 0.1072532,0.326551 0.065092,0.163278 0.1723798,0.306385 0.1485525,0.198148 0.29438,0.255044 0.1394072,0.05598 0.2494894,-0.02655 0.080727,-0.06052 0.1036749,-0.152239 0.019278,-0.08897 -0.00821,-0.240314 -0.033908,-0.152265 -0.1008198,-0.394424 -0.070581,-0.239409 -0.096228,-0.426527 -0.025647,-0.187118 0.028498,-0.336615 0.050475,-0.146746 0.2082595,-0.265038 z m -0.015245,-1.398446 q 0.1714279,0.276834 0.1935657,0.565202 0.019723,0.284468 -0.1408564,0.556521 Q 8.0180909,36.513891 7.6476797,36.743266 7.2616723,36.9823 6.9402525,37.003328 6.6188327,37.024356 6.3705492,36.876029 6.1198511,36.723802 5.9460088,36.443069 5.8470152,36.283207 5.7903567,36.113313 5.7297991,35.945832 5.7186405,35.823281 l 0.3498226,-0.07098 q 0.022856,0.115308 0.068927,0.259394 0.046071,0.144086 0.1136761,0.253259 0.3814873,0.616053 1.1729975,0.125914 0.3782093,-0.234204 0.4892106,-0.507921 0.1046877,-0.275202 -0.078812,-0.571531 -0.106237,-0.171559 -0.2210063,-0.278498 -0.1171838,-0.110838 -0.235477,-0.188624 l 0.3041271,-0.188329 q 0.1197777,0.07147 0.2267489,0.18324 0.1084558,0.105454 0.2195217,0.284811 z m -3.5549825,0.663117 q -0.042848,-0.0811 -0.018215,-0.171916 0.018436,-0.09273 0.1360287,-0.154861 0.1135381,-0.05999 0.2045858,-0.0251 0.088905,0.03083 0.1317533,0.111929 0.047133,0.08921 0.0225,0.180027 -0.024633,0.09082 -0.1381711,0.150805 -0.1175931,0.06213 -0.2024434,0.02916 -0.088905,-0.03083 -0.1360382,-0.120039 z m 0.7229182,-0.604986 2.1734447,-1.148331 0.188532,0.356834 -2.1734447,1.148331 z M 4.5987203,33.814589 q -0.1261074,-0.290227 -0.089476,-0.551161 0.034804,-0.265139 0.2186262,-0.475021 0.1777884,-0.21226 0.4848411,-0.345678 l 0.2229286,-0.09687 0.6707453,1.543676 Q 6.4854944,33.714812 6.6069757,33.442012 6.7224232,33.166834 6.5762117,32.830338 6.4830019,32.615822 6.373868,32.468229 6.2587002,32.318257 6.1062276,32.174494 l 0.3238775,-0.140728 q 0.150645,0.139556 0.2574003,0.293183 0.1109616,0.151799 0.211482,0.38314 0.1389009,0.319672 0.1163396,0.624494 Q 6.9909381,33.6352 6.7946721,33.885491 6.5923723,34.133403 6.2180204,34.296063 5.8478747,34.456896 5.5298824,34.450058 5.2100625,34.439013 4.9701865,34.278225 4.728483,34.11323 4.5987203,33.814589 Z m 0.3046741,-0.127384 q 0.1151415,0.264991 0.3552186,0.345687 0.2340432,0.07832 0.5496831,-0.02383 L 5.3093494,32.86077 q -0.284194,0.128486 -0.4041975,0.335639 -0.1242097,0.208981 -0.00176,0.490796 z M 3.7249098,31.426653 q -0.1302652,-0.420554 0.00914,-0.698988 0.135026,-0.277076 0.5906261,-0.418197 L 5.8535661,29.8359 5.971619,30.217027 4.4690147,30.682454 q -0.5651194,0.175043 -0.4022879,0.700736 0.1207667,0.389888 0.3859408,0.470988 0.2651742,0.0811 0.6769666,-0.04645 l 1.2178541,-0.377227 0.1194098,0.385508 -2.3480929,0.727314 -0.096342,-0.311035 0.3021562,-0.156005 -0.00678,-0.0219 Q 4.0985622,31.997469 3.9485281,31.823092 3.7941131,31.650072 3.7249098,31.426653 Z m 1.9334984,-2.814127 q 0.064253,0.319211 -0.015451,0.597228 -0.080609,0.27352 -0.3259014,0.472594 -0.2461978,0.194577 -0.6733116,0.28055 -0.4450975,0.08959 -0.7537096,-0.0027 -0.3086121,-0.09226 -0.4896727,-0.317786 -0.1819656,-0.230024 -0.2471238,-0.553731 -0.037104,-0.184334 -0.031029,-0.363324 0.00158,-0.178085 0.03381,-0.296847 l 0.3526376,0.05533 q -0.018744,0.116047 -0.025752,0.267157 -0.00701,0.151109 0.018331,0.276996 0.1429858,0.710357 1.0556606,0.526648 Q 4.9930018,29.46689 5.1924014,29.248986 5.3864001,29.027491 5.3176221,28.6858 5.2778032,28.487979 5.2074757,28.347758 5.1362432,28.203041 5.0524568,28.088919 l 0.3506829,-0.07059 q 0.087377,0.108721 0.148713,0.250752 0.064927,0.13663 0.1065555,0.343443 z M 2.8865875,27.214974 q -0.032188,-0.3148 0.081824,-0.552349 0.113545,-0.242111 0.3523439,-0.386388 0.2337701,-0.148373 0.5668197,-0.182427 l 0.2418031,-0.02473 0.1712031,1.674373 q 0.4142384,-0.05158 0.6127042,-0.27471 0.193437,-0.227229 0.1561175,-0.592215 -0.023791,-0.232679 -0.083045,-0.406411 -0.064283,-0.177828 -0.1659975,-0.361048 l 0.3512988,-0.03592 q 0.1012481,0.178658 0.1564064,0.357419 0.059721,0.178294 0.085378,0.429222 0.035454,0.346737 -0.078455,0.630375 -0.1143754,0.279076 -0.3772828,0.458089 -0.2679362,0.174917 -0.6739829,0.216435 -0.4014845,0.04105 -0.7024391,-0.06187 Q 3.2798614,27.995346 3.1000182,27.769404 2.9197086,27.538899 2.8865875,27.214974 Z m 0.3289538,-0.02903 q 0.029389,0.287426 0.2337046,0.437106 0.1992867,0.145584 0.5310394,0.143933 L 3.8529325,26.521474 q -0.3097714,0.03628 -0.4869277,0.197308 -0.1817186,0.161491 -0.1504635,0.467167 z m 1.0253252,-3.062429 -0.3568677,-0.02463 0.076416,-1.107205 0.3568677,0.02463 z m 1.5060385,-3.402227 -0.096323,0.401353 -3.1840692,-0.764159 0.4270302,-1.779333 0.352299,0.08455 -0.3307076,1.377979 1.1282486,0.270774 0.3103729,-1.293249 0.3522989,0.08455 -0.3103728,1.29325 z M 5.5042482,16.138455 q 0.4771397,0.17742 0.7731813,0.473431 0.2933414,0.290114 0.374393,0.677434 0.081052,0.38732 -0.091574,0.851564 -0.1774205,0.47714 -0.4934343,0.721707 Q 5.752399,19.10286 5.3380771,19.124942 4.9237553,19.147025 4.4466156,18.969604 3.9737745,18.793782 3.6788347,18.507967 3.3838949,18.222151 3.3028433,17.834831 3.2233901,17.443213 3.4024089,16.961774 3.5734358,16.501829 3.8878513,16.26156 4.1979682,16.019693 4.6138885,15.993312 5.0271086,15.961034 5.5042482,16.138455 Z M 4.6027605,18.56284 q 0.580305,0.215781 1.0067001,0.09544 0.4220966,-0.121943 0.6155009,-0.642068 0.1950026,-0.524424 -0.046477,-0.888218 -0.2457779,-0.365393 -0.8260829,-0.581175 -0.580305,-0.215781 -0.9965046,-0.09654 -0.4204982,0.117643 -0.6139025,0.637769 -0.1934043,0.520125 0.044878,0.892516 0.2355824,0.366495 0.8158874,0.582277 z m 0.028934,-4.234509 q 0.2849058,-0.539324 0.6266698,-0.685544 0.339851,-0.152417 0.7534684,0.06608 0.231139,0.122102 0.3402467,0.28866 0.1091076,0.166559 0.1316833,0.349645 0.020663,0.17689 -0.00374,0.35072 l 1.717484,-0.109306 -0.2249256,0.425782 -1.5668378,0.06959 -0.3041851,0.57582 1.1962462,0.631934 -0.1927933,0.364956 -2.8953213,-1.529493 z m 0.3055849,0.187363 -0.2184991,0.413618 1.074594,0.567669 0.2292099,-0.433893 Q 6.2089512,14.710297 6.1567646,14.475261 6.1005231,14.238083 5.8288333,14.094559 5.5449782,13.944609 5.3374109,14.052799 5.1257885,14.158848 4.9372795,14.515694 Z m 2.5519858,-3.147908 q 0.1415267,0.116713 0.2507734,0.236528 l 0.017507,-0.02123 q -0.069201,-0.211624 -0.015118,-0.428577 0.057001,-0.220493 0.2087287,-0.404477 0.285948,-0.346741 0.5952159,-0.382973 0.3057298,-0.03915 0.6701611,0.261388 l 1.2348203,1.018325 -0.253852,0.307821 -1.2135912,-1.000818 q -0.4564236,-0.376401 -0.8065641,0.04818 -0.2626054,0.318435 -0.1813653,0.587542 0.08062,0.262652 0.4132075,0.536928 L 9.3892614,12.934664 9.1324917,13.246023 6.4434842,11.028467 6.7002539,10.717108 Z M 9.5354098,9.0389359 q 0.2268098,-0.220664 0.4838182,-0.2787545 0.260296,-0.061288 0.521652,0.036353 0.261445,0.091157 0.494902,0.3311147 l 0.169495,0.1742162 -1.206365,1.1736765 q 0.297595,0.29273 0.595733,0.309798 0.298226,0.01058 0.561194,-0.24526 0.167642,-0.1631 0.267057,-0.317407 0.0995,-0.160792 0.179997,-0.3542771 l 0.246248,0.2531061 q -0.07721,0.190287 -0.183106,0.344505 -0.102702,0.157505 -0.283492,0.333397 -0.249819,0.24305 -0.542897,0.329834 -0.289791,0.08359 -0.593345,-0.01139 Q 9.9428362,11.016382 9.6582116,10.723831 9.3767851,10.434566 9.2706351,10.134736 9.1677722,9.8317078 9.2332555,9.5504509 9.3020258,9.265996 9.5354098,9.0389359 Z m 0.226971,0.2398691 q -0.2070872,0.2014759 -0.1975907,0.454574 0.00959,0.2466129 0.216834,0.50567 L 10.679002,9.3659873 Q 10.458249,9.1456626 10.222032,9.1067434 9.9826164,9.0645371 9.7623808,9.278805 Z M 11.274021,7.5271159 q 0.352998,-0.2781858 0.644354,-0.2567144 0.291357,0.021471 0.558188,0.3600618 l 1.0361,1.314739 -0.230529,0.1816724 -0.276971,-0.2254972 -0.01441,0.011354 q -0.0012,0.2578412 -0.08204,0.4441903 -0.07727,0.1835105 -0.322203,0.3765374 Q 12.323565,9.9406797 12.0428,9.940057 11.759196,9.9358323 11.526428,9.6404663 11.299338,9.3523043 11.404204,9.0185835 11.506232,8.6812607 11.966743,8.294992 L 12.286011,8.0258705 12.195175,7.9106057 Q 12.004987,7.6692701 11.826724,7.6579377 11.648461,7.6466054 11.457553,7.7970528 11.306268,7.9162753 11.206294,8.0709695 11.10348,8.2220618 11.030032,8.373369 L 10.745427,8.2122784 q 0.07214,-0.1677905 0.208132,-0.3508711 0.133156,-0.1866826 0.320462,-0.3342914 z m 0.905501,0.9563747 q -0.348848,0.2982711 -0.409846,0.5098344 -0.05739,0.2087247 0.08737,0.3924279 0.127739,0.1620911 0.284605,0.1610906 0.160468,-0.00384 0.315355,-0.1259002 0.244937,-0.1930269 0.301999,-0.4540402 0.05422,-0.2646153 -0.16719,-0.5455732 L 12.455566,8.2484327 Z m 1.991449,0.034663 -0.335005,0.2250484 -1.9436,-2.8932225 0.335005,-0.2250484 z M 15.144758,7.587521 q 0.07894,-0.046699 0.154831,-0.1075738 0.07355,-0.064822 0.115526,-0.1109654 l 0.15644,0.2644633 q -0.03892,0.06032 -0.132204,0.1368167 -0.09095,0.080444 -0.185686,0.1364826 -0.165783,0.098067 -0.340572,0.1268637 -0.173176,0.022514 -0.344073,-0.068217 -0.170896,-0.090731 -0.322666,-0.3473001 l -0.728499,-1.2315308 -0.299989,0.1774548 -0.09807,-0.1657829 0.222213,-0.3179423 -0.12803,-0.531705 0.205256,-0.1214165 0.287196,0.4855073 0.611818,-0.3619145 0.158776,0.2684106 -0.611818,0.3619145 0.723828,1.2236363 q 0.114412,0.1934135 0.261236,0.2344432 0.148437,0.034747 0.294484,-0.051645 z M 14.918722,5.2305556 q 0.07871,0.1657003 0.126869,0.3205268 l 0.02486,-0.011807 q 0.02703,-0.2210043 0.167975,-0.394578 0.14509,-0.1755414 0.3605,-0.2778645 0.405966,-0.1928396 0.701433,-0.094562 0.2935,0.094136 0.496178,0.5208137 L 17.483277,6.7388205 17.122879,6.9100148 16.44794,5.489135 Q 16.1941,4.9547516 15.697,5.1908817 q -0.372826,0.1770976 -0.413316,0.4552689 -0.03831,0.2720611 0.146653,0.6614568 l 0.545067,1.1474744 -0.36454,0.173162 -1.495491,-3.1483051 0.364541,-0.1731621 z M 16.527469,4.4709059 16.934038,4.327573 17.90083,5.4698794 q 0.125871,0.1501356 0.234191,0.2918701 0.106796,0.1374093 0.183066,0.2709919 l 0.0173,-0.0061 q -0.01217,-0.1172788 -0.01693,-0.3101094 -0.0063,-0.1971557 -0.0083,-0.3958363 l 0.0079,-1.4810653 0.410894,-0.1448577 -0.06898,2.9906036 q -0.0052,0.37141 -0.131236,0.6346607 -0.121692,0.2617259 -0.459058,0.3806617 -0.103804,0.036596 -0.186232,0.051067 -0.0809,0.018796 -0.141706,0.025643 L 17.635044,7.4746457 q 0.05063,-0.00812 0.118554,-0.022344 0.07225,-0.015747 0.145782,-0.041669 0.198959,-0.070142 0.280419,-0.2252917 0.08579,-0.1566748 0.08942,-0.3670554 l 0.01284,-0.349784 z m 4.772378,-0.5376226 q 0.01122,0.072515 0.02039,0.1917544 0.0137,0.1185381 0.02249,0.2053509 l 0.01813,-0.0028 q 0.02158,-0.040465 0.06545,-0.1168617 0.04387,-0.076397 0.08774,-0.1527942 0.0477,-0.081631 0.08148,-0.1332631 l 0.64809,-0.9402293 0.466815,-0.072222 -0.822913,1.1900291 1.266733,1.2287067 -0.480412,0.074326 -1.018285,-1.0026266 -0.2393,0.2829785 0.138134,0.8928413 -0.394301,0.061003 -0.532902,-3.444464 0.3943,-0.061003 z m 1.856199,-1.9595326 q 0.09143,-0.00734 0.165137,0.051155 0.07791,0.053556 0.08856,0.186127 0.01028,0.1279993 -0.05773,0.1978708 -0.06343,0.069504 -0.154862,0.076844 -0.10057,0.00807 -0.174279,-0.050421 -0.07371,-0.058495 -0.08399,-0.186494 -0.01064,-0.1325707 0.05316,-0.1975038 0.06343,-0.069504 0.164004,-0.077578 z m 0.270336,0.9030713 0.196708,2.4502719 -0.402284,0.032295 -0.196707,-2.4502719 z m 1.440009,2.4489282 Q 24.40778,5.3253904 24.132862,5.008733 23.857947,4.6874895 23.858444,4.0546065 q 4.97e-4,-0.632883 0.275915,-0.9536947 0.280008,-0.3253942 0.738619,-0.3250344 0.284339,2.231e-4 0.463114,0.1058439 0.183362,0.1056244 0.297896,0.2570559 l 0.02752,2.16e-5 q -0.0045,-0.059623 -0.01821,-0.1742865 -0.0091,-0.119246 -0.009,-0.1880377 l 7.7e-4,-0.9814272 0.403577,3.166e-4 -0.0027,3.4854426 -0.325614,-2.554e-4 -0.05936,-0.3302466 -0.01835,-1.44e-5 q -0.110188,0.1558413 -0.293719,0.265764 -0.183531,0.1099227 -0.472456,0.109696 z m 0.06447,-0.3347355 q 0.38982,3.058e-4 0.545913,-0.2105329 0.160683,-0.2154212 0.161021,-0.6465154 l 5.8e-5,-0.073378 Q 25.63821,3.6019778 25.487059,3.3587953 25.335912,3.1110267 24.927749,3.1107065 24.602135,3.110451 24.43683,3.3717297 q -0.160715,0.2566961 -0.161057,0.6923765 -3.46e-4,0.4402664 0.159977,0.6834561 0.16491,0.2431933 0.495109,0.2434524 z M 27.96757,4.7985654 q -0.03648,0.3558517 -0.319794,0.5112142 -0.283315,0.1553625 -0.730411,0.1095297 -0.255483,-0.02619 -0.438324,-0.086425 -0.178279,-0.059767 -0.312224,-0.1472604 l 0.03741,-0.3649761 q 0.138508,0.087961 0.337259,0.1728775 0.203781,0.080822 0.418205,0.102803 0.305667,0.031335 0.452355,-0.050441 0.147155,-0.086338 0.163991,-0.2505772 0.0094,-0.091244 -0.03335,-0.1693837 -0.0427,-0.07814 -0.167523,-0.1646977 Q 27.254913,4.3751383 27.02247,4.2591071 26.794589,4.1435436 26.635141,4.0349954 26.475693,3.9264471 26.397544,3.7893519 q -0.07815,-0.1370953 -0.05757,-0.3378322 0.0318,-0.3102296 0.300028,-0.4533086 0.272788,-0.1426113 0.683386,-0.1005199 0.223548,0.022916 0.410483,0.088181 0.191966,0.06117 0.352817,0.1560317 l -0.169604,0.3053237 q -0.148568,-0.079772 -0.312692,-0.1426983 -0.164125,-0.062926 -0.342051,-0.081166 -0.246359,-0.025255 -0.387081,0.043302 -0.135692,0.064462 -0.149722,0.2013284 -0.01029,0.1003684 0.04154,0.1794435 0.05229,0.074513 0.182145,0.1569764 0.13488,0.078369 0.358199,0.1934647 0.223786,0.1105336 0.378672,0.2186142 0.154885,0.1080805 0.228004,0.2492703 0.07359,0.1366276 0.05348,0.3328023 z m 1.938446,0.011315 0.09372,-0.3452219 1.071073,0.2907646 -0.09372,0.3452219 z M 32.949419,6.9501893 32.574539,6.777483 33.944676,3.8034352 35.606644,4.5691001 35.455046,4.8981614 34.167958,4.3052028 33.682461,5.3590321 34.890408,5.9155304 34.73881,6.2445917 33.530864,5.6880934 Z m 4.542237,0.6552806 Q 37.224635,8.0388752 36.876598,8.2715406 36.534871,8.502707 36.139181,8.5067081 35.743491,8.5107093 35.3218,8.2509053 34.888394,7.9838846 34.710115,7.6262613 34.53574,7.2710436 34.59484,6.8603644 q 0.0591,-0.4106792 0.326121,-0.8440845 0.264615,-0.4295008 0.602438,-0.6630728 0.337822,-0.233572 0.733512,-0.2375731 0.399594,-0.0016 0.836904,0.2678308 0.417787,0.2573983 0.592162,0.612616 0.176781,0.3513131 0.121585,0.7643979 -0.04889,0.4115858 -0.315906,0.8449912 z M 35.289488,6.2487157 q -0.324755,0.5271146 -0.289832,0.9687885 0.03733,0.4377693 0.50978,0.728846 0.476355,0.2934823 0.880241,0.1275449 Q 36.795968,7.9040532 37.120723,7.3769386 37.445478,6.849824 37.409648,6.4183648 37.376224,5.9830011 36.903773,5.6919244 36.431322,5.4008477 36.019627,5.5619739 35.614243,5.7216011 35.289488,6.2487157 Z m 4.147652,0.8537608 q 0.473447,0.3845654 0.550246,0.7482752 0.08325,0.3630414 -0.211679,0.7261358 -0.164814,0.2029057 -0.349445,0.2774553 -0.18463,0.07455 -0.368606,0.061005 -0.177524,-0.014213 -0.343264,-0.072029 L 38.486833,10.549167 38.113059,10.245563 38.350206,8.6952128 37.844721,8.2846242 36.991738,9.3347502 36.671361,9.0745179 38.735869,6.5328572 Z m -0.243333,0.2632031 -0.363095,-0.2949298 -0.766239,0.9433335 0.380893,0.3093872 q 0.309698,0.2515578 0.550398,0.2461851 0.243592,-0.00893 0.43732,-0.2474357 0.202403,-0.2491824 0.136746,-0.4738568 -0.06277,-0.2282342 -0.376023,-0.4826835 z m 0.799768,4.8231554 1.291332,-2.2894789 0.276135,0.3310459 -0.77799,1.329767 q -0.05398,0.0928 -0.122628,0.203813 -0.06865,0.111011 -0.13613,0.209104 -0.06396,0.09516 -0.115016,0.15566 l 0.01175,0.01409 q 0.07162,-0.03585 0.180228,-0.08464 0.111545,-0.04527 0.233072,-0.09289 0.124463,-0.0441 0.218984,-0.08113 l 1.447766,-0.526804 0.276135,0.331046 -2.486939,0.856119 z m 3.412342,0.364218 q 0.252343,0.371911 0.21018,0.660999 -0.04216,0.289087 -0.398895,0.531131 l -1.385179,0.939852 -0.164796,-0.242881 0.244647,-0.26021 -0.0103,-0.01518 q -0.257103,-0.01953 -0.437221,-0.11346 -0.177543,-0.09014 -0.352638,-0.348198 -0.18797,-0.277036 -0.167357,-0.557044 0.02441,-0.282583 0.3356,-0.493728 0.303601,-0.205995 0.629007,-0.07763 0.329202,0.125789 0.681698,0.612635 l 0.245704,0.337622 0.121441,-0.0824 q 0.254265,-0.172521 0.278263,-0.349525 0.024,-0.177003 -0.112475,-0.378139 -0.108147,-0.15939 -0.25533,-0.270127 -0.143387,-0.113311 -0.289081,-0.197347 l 0.180948,-0.272411 q 0.162228,0.0839 0.33516,0.232588 0.176727,0.146111 0.310624,0.343452 z m -1.018425,0.835102 q -0.272674,-0.369202 -0.479357,-0.445109 -0.204108,-0.07211 -0.397653,0.05921 -0.170776,0.115872 -0.180948,0.272411 -0.0076,0.160334 0.103125,0.32352 0.175096,0.258061 0.431384,0.333563 0.260082,0.07293 0.556093,-0.127916 l 0.182161,-0.123597 z m 0.01293,2.426372 q -0.15602,-0.285801 -0.162343,-0.574948 -0.0041,-0.285122 0.171104,-0.547979 0.177425,-0.258831 0.559835,-0.467591 0.398511,-0.217549 0.7206,-0.220954 0.322089,-0.0034 0.561882,0.158288 0.241991,0.165719 0.400209,0.455545 0.0901,0.16504 0.137371,0.337781 0.0513,0.170543 0.05574,0.293522 l -0.353183,0.05173 q -0.01651,-0.116386 -0.05463,-0.262777 -0.03812,-0.146392 -0.09964,-0.259102 -0.3472,-0.636007 -1.164348,-0.189922 -0.390461,0.213154 -0.516276,0.480386 -0.119592,0.26906 0.04742,0.574988 0.09669,0.177116 0.205433,0.290176 0.110942,0.117085 0.224801,0.201228 L 42.820405,16.3063 q -0.115687,-0.07792 -0.216381,-0.195375 -0.102522,-0.111232 -0.203605,-0.296398 z m 0.747207,1.582116 q -0.130014,-0.298531 -0.110624,-0.587097 0.02122,-0.28436 0.219107,-0.530611 0.199718,-0.242047 0.599161,-0.416008 0.416262,-0.181287 0.73738,-0.156066 0.321118,0.02522 0.545599,0.207578 0.226312,0.186562 0.358157,0.489298 0.07508,0.172391 0.106821,0.348649 0.03595,0.174426 0.02944,0.297312 l -0.356382,0.02015 q -0.0061,-0.117392 -0.03107,-0.266591 -0.02496,-0.149199 -0.07623,-0.266929 -0.289326,-0.664337 -1.142873,-0.292608 -0.407852,0.177624 -0.55691,0.432622 -0.143022,0.257372 -0.0039,0.576927 0.08057,0.185005 0.178843,0.307278 0.100102,0.126478 0.206035,0.220404 l -0.327963,0.142831 q -0.108307,-0.08789 -0.198169,-0.213825 -0.09224,-0.1199 -0.176469,-0.313314 z m 3.613308,-0.147141 q 0.03079,0.0864 -0.0066,0.172753 -0.03153,0.08913 -0.156805,0.133782 -0.120959,0.04311 -0.206072,-0.0045 -0.08357,-0.04325 -0.114365,-0.129644 -0.03387,-0.09504 0.0035,-0.181393 0.03739,-0.08635 0.158345,-0.129462 0.125279,-0.04465 0.204532,1.37e-4 0.08357,0.04324 0.117444,0.138284 z m -0.80211,0.495216 -2.315499,0.82522 -0.135484,-0.380157 2.3155,-0.82522 z m 0.551722,1.667115 q 0.113688,0.425335 -0.03652,0.698092 -0.145778,0.271574 -0.606558,0.394736 l -1.546269,0.413303 -0.10303,-0.385459 1.519686,-0.406198 q 0.571544,-0.152768 0.429434,-0.684437 -0.105398,-0.394321 -0.367192,-0.485748 -0.261793,-0.09143 -0.678266,0.01989 l -1.231699,0.329222 -0.104214,-0.389891 2.374786,-0.634758 0.08408,0.314571 -0.308037,0.144047 0.0059,0.02215 q 0.216874,0.06546 0.359961,0.245578 0.147518,0.178937 0.207914,0.404896 z m 0.465308,2.275916 q 0.04781,0.31281 -0.05425,0.555736 -0.101361,0.247459 -0.332688,0.403437 -0.2261,0.159818 -0.557043,0.210397 l -0.240274,0.03672 -0.254281,-1.663783 q -0.41116,0.07212 -0.598281,0.304848 -0.181894,0.236571 -0.126465,0.599248 0.03534,0.231207 0.10316,0.401777 0.07305,0.17441 0.183752,0.352344 l -0.349077,0.05335 q -0.11001,-0.173401 -0.173993,-0.349197 -0.06852,-0.175103 -0.106623,-0.424444 -0.05266,-0.344543 0.047,-0.633497 0.100352,-0.28442 0.354029,-0.476289 0.258903,-0.188029 0.662382,-0.249694 0.398945,-0.06097 0.704647,0.02685 0.306394,0.09235 0.497254,0.30907 0.191553,0.22125 0.240746,0.543126 z m -0.327102,0.04535 q -0.04365,-0.285608 -0.255159,-0.424939 -0.206282,-0.135491 -0.537542,-0.117339 l 0.189153,1.237638 q 0.307583,-0.05165 0.476509,-0.221287 0.173461,-0.170331 0.127039,-0.474073 z m -1.231822,3.035881 q -0.357175,0.01967 -0.554968,-0.235835 -0.197793,-0.255505 -0.222507,-0.704264 -0.01412,-0.256433 0.01675,-0.446449 0.03112,-0.185436 0.09657,-0.331425 l 0.366334,-0.02017 q -0.0652,0.150568 -0.117957,0.360161 -0.04793,0.21392 -0.03608,0.429141 0.0169,0.306805 0.120623,0.438884 0.108308,0.131828 0.273158,0.122749 0.09158,-0.005 0.162076,-0.05945 0.07049,-0.05441 0.136446,-0.191237 0.06621,-0.132251 0.144424,-0.379991 0.07847,-0.24316 0.160724,-0.417633 0.08225,-0.174473 0.205426,-0.273117 0.123173,-0.09865 0.324657,-0.10974 0.311383,-0.01715 0.494682,0.225375 0.183551,0.247104 0.206247,0.659229 0.01236,0.224379 -0.02284,0.419226 -0.03037,0.199174 -0.09889,0.372891 l -0.328107,-0.119723 q 0.05553,-0.159222 0.092,-0.331174 0.03646,-0.171951 0.02663,-0.350538 -0.01362,-0.247276 -0.103356,-0.375532 -0.08491,-0.12393 -0.222282,-0.116365 -0.100742,0.0055 -0.17073,0.06911 -0.06541,0.06331 -0.126532,0.20447 -0.05629,0.145484 -0.135013,0.384066 -0.07414,0.238329 -0.156648,0.408223 -0.0825,0.169893 -0.21051,0.264211 -0.123426,0.09407 -0.32033,0.104908 z m 0.358734,0.516829 0.357424,0.01447 -0.0449,1.10893 -0.357424,-0.01447 z"
       id="text2"
       transform="translate(57.786922,-13.758063)"
       aria-label="FOR public health - FOR science - FOR healthy kids - FOR vaccines - " />
  </g>
  <g
     inkscape:groupmode="layer"
     id="layer2"
     inkscape:label="cut"
     style="display:inline">
    <path
       id="path3"
       style="fill:none;stroke:#000000;stroke-width:0.499999;stroke-linejoin:round"
       d="M 49.750001,25 A 24.75,24.75 0 0 1 25,49.75 24.75,24.75 0 0 1 0.249999,25 24.75,24.75 0 0 1 25,0.25 24.75,24.75 0 0 1 49.750001,25 Z" />
  </g>
</svg>
