<?xml version="1.0" encoding="UTF-8" standalone="no"?>
<!-- Created with Inkscape (http://www.inkscape.org/) -->

<svg
   width="50.200001mm"
   height="50.200001mm"
   viewBox="0 0 50.200001 50.200001"
   version="1.1"
   id="svg1"
   inkscape:version="1.4.2 (ebf0e940d0, 2025-05-08)"
   sodipodi:docname="omg-gop-wtf.svg"
   xmlns:inkscape="http://www.inkscape.org/namespaces/inkscape"
   xmlns:sodipodi="http://sodipodi.sourceforge.net/DTD/sodipodi-0.dtd"
   xmlns="http://www.w3.org/2000/svg"
   xmlns:svg="http://www.w3.org/2000/svg">
  <sodipodi:namedview
     id="namedview1"
     pagecolor="#ffffff"
     bordercolor="#000000"
     borderopacity="0.25"
     inkscape:showpageshadow="2"
     inkscape:pageopacity="0.0"
     inkscape:pagecheckerboard="0"
     inkscape:deskcolor="#d1d1d1"
     inkscape:document-units="mm"
     showgrid="false"
     inkscape:zoom="2.131677"
     inkscape:cx="-41.751167"
     inkscape:cy="53.479023"
     inkscape:window-width="1896"
     inkscape:window-height="1032"
     inkscape:window-x="0"
     inkscape:window-y="0"
     inkscape:window-maximized="1"
     inkscape:current-layer="layer1" />
  <defs
     id="defs1" />
  <g
     inkscape:label="Layer 1"
     inkscape:groupmode="layer"
     id="layer1"
     transform="translate(-79.9,-123.4)">
    <g
       id="g3"
       transform="matrix(0.84128243,0,0,0.99770088,48.639018,23.987956)"
       style="stroke-width:1.09151">
      <path
         d="m 72.192855,74.181225 q 0,1.910266 -0.653965,3.338663 -0.636755,1.411187 -1.893056,2.202829 -1.256301,0.791641 -3.114937,0.791641 -1.910266,0 -3.183776,-0.791641 -1.256301,-0.791642 -1.875847,-2.220039 -0.619546,-1.428397 -0.619546,-3.338662 0,-1.893056 0.619546,-3.304244 0.619546,-1.411187 1.875847,-2.202828 1.27351,-0.791642 3.200985,-0.791642 1.841427,0 3.097728,0.791642 1.256301,0.774432 1.893056,2.202828 0.653965,1.411188 0.653965,3.321453 z m -9.706214,0 q 0,2.323296 0.980947,3.665645 0.980947,1.325139 3.063309,1.325139 2.099571,0 3.063308,-1.325139 0.963738,-1.342349 0.963738,-3.665645 0,-2.323296 -0.963738,-3.631225 -0.963737,-1.32514 -3.046099,-1.32514 -2.082361,0 -3.080518,1.32514 -0.980947,1.307929 -0.980947,3.631225 z m 17.846358,6.161037 -4.044256,-10.77321 h -0.06884 q 0.05163,0.533498 0.08605,1.445607 0.03442,0.894899 0.03442,1.875846 v 7.451757 H 74.911975 V 68.054608 h 2.288876 l 3.786113,10.067616 h 0.06884 l 3.85495,-10.067616 h 2.271668 v 12.287654 h -1.531655 v -7.555014 q 0,-0.8949 0.03442,-1.772589 0.05163,-0.87769 0.08605,-1.428397 h -0.06884 l -4.095885,10.756 z m 15.523052,-6.488019 h 4.250769 v 6.02336 q -0.998154,0.326982 -2.013521,0.481869 -1.015366,0.154886 -2.306086,0.154886 -1.910266,0 -3.218196,-0.757222 -1.307929,-0.774432 -1.996313,-2.185619 -0.671175,-1.428397 -0.671175,-3.373082 0,-1.927475 0.757223,-3.338663 0.757222,-1.411187 2.168409,-2.185619 1.428397,-0.791641 3.441921,-0.791641 1.032576,0 1.944684,0.189305 0.929319,0.189306 1.72096,0.533498 L 99.3496,69.947664 Q 98.695635,69.6551 97.869574,69.448585 97.060723,69.24207 96.183033,69.24207 q -2.202828,0 -3.44192,1.325139 -1.221881,1.325139 -1.221881,3.631226 0,1.462816 0.464659,2.59865 0.481869,1.118624 1.497235,1.755379 1.015367,0.619545 2.667488,0.619545 0.808852,0 1.376768,-0.08605 0.567917,-0.08605 1.032576,-0.206515 v -3.648435 h -2.701907 z m 17.003099,0 h 4.25077 v 6.02336 q -0.99815,0.326982 -2.01352,0.481869 -1.01537,0.154886 -2.30609,0.154886 -1.91026,0 -3.21819,-0.757222 -1.30793,-0.774432 -1.99631,-2.185619 -0.67118,-1.428397 -0.67118,-3.373082 0,-1.927475 0.75722,-3.338663 0.75723,-1.411187 2.16841,-2.185619 1.4284,-0.791641 3.44192,-0.791641 1.03258,0 1.94469,0.189305 0.92932,0.189306 1.72096,0.533498 l -0.58513,1.342349 q -0.65396,-0.292564 -1.48002,-0.499079 -0.80886,-0.206515 -1.68655,-0.206515 -2.20282,0 -3.44192,1.325139 -1.22188,1.325139 -1.22188,3.631226 0,1.462816 0.46466,2.59865 0.48187,1.118624 1.49724,1.755379 1.01536,0.619545 2.66749,0.619545 0.80885,0 1.37676,-0.08605 0.56792,-0.08605 1.03258,-0.206515 v -3.648435 h -2.70191 z m 17.91521,0.326982 q 0,1.910266 -0.65397,3.338663 -0.63675,1.411187 -1.89305,2.202829 -1.25631,0.791641 -3.11494,0.791641 -1.91027,0 -3.18378,-0.791641 -1.2563,-0.791642 -1.87584,-2.220039 -0.61955,-1.428397 -0.61955,-3.338662 0,-1.893056 0.61955,-3.304244 0.61954,-1.411187 1.87584,-2.202828 1.27351,-0.791642 3.20099,-0.791642 1.84142,0 3.09773,0.791642 1.2563,0.774432 1.89305,2.202828 0.65397,1.411188 0.65397,3.321453 z m -9.70622,0 q 0,2.323296 0.98095,3.665645 0.98095,1.325139 3.06331,1.325139 2.09957,0 3.06331,-1.325139 0.96373,-1.342349 0.96373,-3.665645 0,-2.323296 -0.96373,-3.631225 -0.96374,-1.32514 -3.0461,-1.32514 -2.08236,0 -3.08052,1.32514 -0.98095,1.307929 -0.98095,3.631225 z m 15.67795,-6.126617 q 2.40934,0 3.51076,0.946528 1.10141,0.946528 1.10141,2.667488 0,1.015366 -0.46466,1.910265 -0.44745,0.87769 -1.53165,1.428397 -1.067,0.550707 -2.90842,0.550707 h -1.41119 v 4.784269 h -1.54886 V 68.054608 Z m -0.13768,1.325139 h -1.56607 v 4.853107 h 1.23909 q 1.75538,0 2.61586,-0.567917 0.86048,-0.567917 0.86048,-1.927475 0,-1.187462 -0.75722,-1.772589 -0.75722,-0.585126 -2.39214,-0.585126 z"
         id="text1"
         style="font-size:17.2096px;font-family:Sans;-inkscape-font-specification:'Sans, Normal';text-align:center;letter-spacing:0px;word-spacing:0px;text-anchor:middle;stroke:#000000;stroke-width:0.218302;stroke-linejoin:round"
         transform="scale(0.66261937,1.509162)"
         aria-label="OMG GOP" />
      <path
         d="m 72.749334,109.01594 -5.686814,21.37044 h -2.723684 l -4.160354,-14.00752 q -0.239444,-0.86798 -0.478889,-1.73597 -0.239445,-0.86799 -0.389098,-1.52646 -0.149653,-0.68841 -0.209514,-0.95778 -0.02993,0.3891 -0.329237,1.67611 -0.269375,1.25709 -0.688404,2.63389 l -4.04063,13.91773 h -2.723685 l -5.656883,-21.37044 h 2.813476 l 3.322297,13.04974 q 0.359167,1.3768 0.598612,2.66382 0.269375,1.28702 0.419028,2.42438 0.149653,-1.1673 0.448959,-2.5441 0.299306,-1.37681 0.688404,-2.69376 l 3.771255,-12.90008 h 2.783546 l 3.920909,12.98988 q 0.419028,1.3768 0.718334,2.75361 0.299306,1.34688 0.448959,2.39445 0.149653,-1.10743 0.419028,-2.39445 0.269376,-1.31695 0.628543,-2.72368 l 3.292366,-13.01981 z m 10.056691,21.37044 h -2.693754 v -19.00593 h -6.674524 v -2.36451 h 16.012871 v 2.36451 h -6.644593 z m 12.570843,0 h -2.693754 v -21.37044 h 11.942306 v 2.36451 h -9.248552 v 7.57244 h 8.679872 v 2.36452 h -8.679872 z"
         id="text3"
         style="font-size:29.9306px;font-family:Sans;-inkscape-font-specification:'Sans, Normal';text-align:center;letter-spacing:0px;word-spacing:0px;text-anchor:middle;stroke:#000000;stroke-width:0.218302;stroke-linejoin:round"
         transform="scale(0.88565857,1.1291033)"
         aria-label="WTF" />
    </g>
    <rect
       style="opacity:1;fill:none;stroke:#000000;stroke-width:0.2;stroke-linejoin:round"
       id="rect3"
       width="50"
       height="50"
       x="80"
       y="123.5" />
  </g>
</svg>
