<?xml version="1.0" encoding="UTF-8" standalone="no"?>
<!-- Created with Inkscape (http://www.inkscape.org/) -->

<svg
   width="50.110001mm"
   height="50.110001mm"
   viewBox="0 0 50.110001 50.110001"
   version="1.1"
   id="svg1"
   inkscape:version="1.4.2 (ebf0e940d0, 2025-05-08)"
   sodipodi:docname="resist-fascism.svg"
   xmlns:inkscape="http://www.inkscape.org/namespaces/inkscape"
   xmlns:sodipodi="http://sodipodi.sourceforge.net/DTD/sodipodi-0.dtd"
   xmlns="http://www.w3.org/2000/svg"
   xmlns:svg="http://www.w3.org/2000/svg">
  <sodipodi:namedview
     id="namedview1"
     pagecolor="#ffffff"
     bordercolor="#000000"
     borderopacity="0.25"
     inkscape:showpageshadow="2"
     inkscape:pageopacity="0.0"
     inkscape:pagecheckerboard="0"
     inkscape:deskcolor="#d1d1d1"
     inkscape:document-units="mm"
     showgrid="false"
     inkscape:zoom="4.4324258"
     inkscape:cx="99.606856"
     inkscape:cy="89.341597"
     inkscape:window-width="1896"
     inkscape:window-height="1032"
     inkscape:window-x="0"
     inkscape:window-y="0"
     inkscape:window-maximized="1"
     inkscape:current-layer="layer1" />
  <defs
     id="defs1" />
  <g
     inkscape:label="engrave"
     inkscape:groupmode="layer"
     id="layer1"
     transform="translate(-80.004693,-123.445)"
     style="display:inline">
    <path
       style="font-size:4.35715px;font-family:'URW Bookman';-inkscape-font-specification:'URW Bookman';text-align:center;letter-spacing:0px;word-spacing:0px;text-anchor:middle;stroke:#000000;stroke-width:0.1;stroke-linejoin:round"
       d="m -160.36187,86.840179 0.84528,-2.352861 c 0.13943,-0.383429 0.21786,-0.461858 0.49672,-0.479286 V 83.87296 h -1.098 v 0.135072 c 0.16121,0.02179 0.17864,0.02614 0.21785,0.04357 0.0872,0.04357 0.14379,0.130715 0.14379,0.222215 0,0.04357 -0.0131,0.113286 -0.0261,0.161215 l -0.58386,1.812574 -0.63615,-1.938932 c -0.0131,-0.0305 -0.0174,-0.061 -0.0174,-0.100214 0,-0.08714 0.0479,-0.148143 0.13507,-0.169929 0.0479,-0.01307 0.0654,-0.01743 0.183,-0.0305 V 83.87296 h -1.19386 v 0.135072 c 0.28757,0.06536 0.3965,0.187357 0.50979,0.588215 l -0.51851,1.660074 -0.63614,-1.917146 c -0.0174,-0.04793 -0.0261,-0.09586 -0.0261,-0.139429 0,-0.126357 0.0741,-0.174286 0.31371,-0.191714 V 83.87296 h -1.18514 v 0.135072 c 0.30064,0.07407 0.33114,0.104571 0.46621,0.479286 l 0.81915,2.352861 h 0.25707 l 0.63614,-1.904074 0.6405,1.904074 z m 2.29186,-3.124076 h -0.17428 c -0.22222,0.08714 -0.32679,0.113286 -0.61872,0.148143 v 0.135072 l 0.0959,0.0087 c 0.23964,0.0305 0.28757,0.113286 0.28322,0.488001 v 1.843074 c 0,0.239643 -0.0784,0.344215 -0.27015,0.361644 l -0.10893,0.0087 v 0.130714 h 1.17208 v -0.130714 l -0.10893,-0.0087 c -0.19172,-0.01743 -0.27015,-0.122001 -0.27015,-0.361644 v -1.08493 c 0.25708,-0.239643 0.50108,-0.357286 0.75379,-0.357286 0.24836,0 0.37472,0.148143 0.37472,0.440072 v 1.002144 c 0,0.239643 -0.0784,0.344215 -0.27015,0.361644 l -0.10893,0.0087 v 0.130714 h 1.17208 v -0.130714 l -0.10893,-0.0087 c -0.19172,-0.01743 -0.27014,-0.122001 -0.27014,-0.361644 V 85.31082 c 0,-0.270144 -0.0479,-0.396501 -0.19608,-0.496715 -0.122,-0.08279 -0.28757,-0.126358 -0.488,-0.126358 -0.305,0 -0.57514,0.113286 -0.85836,0.361644 z m 3.61644,1.886646 c -0.0349,0.0044 -0.10457,0.01307 -0.20914,0.02179 -0.2745,0.0305 -0.37036,0.04357 -0.52722,0.08714 -0.48364,0.122 -0.732,0.3355 -0.732,0.627429 0,0.313715 0.28321,0.540287 0.671,0.540287 0.29629,0 0.50543,-0.08714 0.79736,-0.335501 0.0828,0.235286 0.23093,0.335501 0.488,0.335501 0.18736,0 0.32679,-0.05229 0.44879,-0.169929 l -0.0828,-0.113286 c -0.0741,0.06536 -0.122,0.08714 -0.19607,0.08714 -0.0915,0 -0.16993,-0.04357 -0.20479,-0.122 -0.0305,-0.061 -0.0392,-0.117643 -0.0392,-0.305001 v -0.923715 c 0,-0.261429 -0.0697,-0.396501 -0.24836,-0.496716 -0.16121,-0.0915 -0.38343,-0.148143 -0.58821,-0.148143 -0.50543,0 -0.94986,0.261429 -0.94986,0.553358 0,0.104572 0.0958,0.191715 0.20914,0.191715 0.122,0 0.22221,-0.100214 0.22221,-0.222215 l -0.004,-0.122 c 0,-0.126357 0.19607,-0.226572 0.44007,-0.226572 0.30936,0 0.50543,0.148143 0.50543,0.392144 z m 0,0.745072 c -0.24836,0.230929 -0.427,0.32243 -0.64922,0.32243 -0.20478,0 -0.37471,-0.165572 -0.37471,-0.370358 0,-0.296286 0.366,-0.488001 1.02393,-0.544644 z m 2.30058,-1.620859 h -0.62308 V 83.93396 h -0.16557 c 0.004,0.53593 -0.18735,0.775573 -0.61436,0.793002 v 0.143786 h 0.36601 v 1.459645 c 0,0.2135 0.061,0.348572 0.20042,0.435715 0.11329,0.07407 0.26579,0.113286 0.42265,0.113286 0.25707,0 0.4575,-0.100215 0.61436,-0.305001 l -0.11765,-0.09586 c -0.14814,0.169929 -0.24835,0.226572 -0.37907,0.226572 -0.22221,0 -0.32679,-0.178643 -0.32679,-0.575144 v -1.259216 h 0.62308 z m 3.99986,1.721074 -0.45315,-1.294074 c -0.0131,-0.03921 -0.0218,-0.08714 -0.0218,-0.117643 0,-0.108928 0.0697,-0.1525 0.26142,-0.178643 v -0.130714 h -1.037 v 0.130714 c 0.20915,0.04793 0.26143,0.0915 0.34422,0.296286 l 0.0741,0.183001 -0.42264,1.11543 -0.46186,-1.298431 c -0.0131,-0.03486 -0.0261,-0.113286 -0.0261,-0.148143 0,-0.0915 0.0741,-0.135071 0.24835,-0.148143 v -0.130714 h -1.02828 v 0.130714 c 0.16557,0.01743 0.26142,0.100215 0.33985,0.296286 l 0.64922,1.686217 h 0.28321 l 0.51415,-1.250502 0.43571,1.250502 h 0.305 l 0.61,-1.542431 c 0.122,-0.287572 0.2135,-0.379072 0.44879,-0.440072 v -0.130714 h -0.96293 v 0.130714 c 0.20479,0.01307 0.32243,0.104572 0.32243,0.252715 0,0.05229 -0.0131,0.130714 -0.0305,0.187357 z m 1.99557,-1.721074 h -0.14814 c -0.26579,0.04793 -0.40957,0.06971 -0.6405,0.08714 v 0.130714 l 0.0871,0.0087 c 0.23093,0.02614 0.28757,0.09586 0.28757,0.361644 v 1.02393 c 0,0.239643 -0.0784,0.344215 -0.27014,0.361644 l -0.10893,0.0087 v 0.130714 h 1.16772 v -0.130714 l -0.10458,-0.0087 c -0.19171,-0.01743 -0.27014,-0.122001 -0.27014,-0.361644 z m -0.20043,-0.736359 c -0.14814,0 -0.26578,0.117643 -0.26578,0.261429 0,0.148143 0.11764,0.265786 0.26578,0.265786 0.14379,0 0.26143,-0.117643 0.26143,-0.265786 0,-0.143786 -0.11764,-0.261429 -0.26143,-0.261429 z m 1.50321,-0.2745 h -0.17428 c -0.21786,0.08714 -0.31807,0.108929 -0.61436,0.148143 v 0.135072 l 0.0915,0.0087 c 0.23964,0.0305 0.28757,0.113286 0.28321,0.488001 v 1.843074 c 0,0.239643 -0.0784,0.344215 -0.27014,0.361644 l -0.10457,0.0087 v 0.130714 h 1.159 v -0.130714 l -0.10021,-0.0087 c -0.19172,-0.01743 -0.27015,-0.122001 -0.27015,-0.361644 z m 1.30715,0 h -0.17429 c -0.21786,0.08714 -0.31807,0.108929 -0.61436,0.148143 v 0.135072 l 0.0915,0.0087 c 0.23965,0.0305 0.28757,0.113286 0.28322,0.488001 v 1.843074 c 0,0.239643 -0.0784,0.344215 -0.27015,0.361644 l -0.10457,0.0087 v 0.130714 h 1.159 v -0.130714 l -0.10021,-0.0087 c -0.19172,-0.01743 -0.27014,-0.122001 -0.27014,-0.361644 z m 3.06743,2.714504 -0.54465,-1.324573 c -0.0131,-0.0305 -0.0174,-0.05664 -0.0174,-0.08714 0,-0.0915 0.0654,-0.139429 0.23529,-0.161215 v -0.130714 h -1.01522 v 0.135071 c 0.2135,0.0305 0.26579,0.07407 0.34858,0.274501 l 0.77993,1.821288 -0.10893,0.252715 c -0.0349,0.0915 -0.10457,0.204786 -0.17865,0.287572 -0.061,0.07407 -0.11764,0.108929 -0.18735,0.108929 -0.0436,0 -0.0871,-0.02614 -0.14379,-0.08279 -0.11329,-0.122 -0.1525,-0.143786 -0.23964,-0.143786 -0.12636,0 -0.23093,0.100215 -0.23093,0.2135 0,0.174286 0.17428,0.296287 0.40957,0.296287 0.17429,0 0.33114,-0.07407 0.47493,-0.222215 0.13507,-0.139429 0.22657,-0.296286 0.37036,-0.640501 l 0.75378,-1.769003 c 0.10458,-0.244 0.20915,-0.339858 0.44443,-0.396501 v -0.135071 h -0.95857 v 0.130714 c 0.23093,0.04357 0.29629,0.08714 0.29629,0.213501 0,0.07843 -0.0305,0.196071 -0.0828,0.331143 z m 2.20907,-1.74286 c -0.305,0 -0.57514,0.100215 -0.74943,0.283215 -0.183,0.191715 -0.305,0.514144 -0.305,0.819144 0,0.65793 0.42265,1.089288 1.07186,1.089288 0.63179,0 1.05879,-0.435715 1.05879,-1.080573 0,-0.283215 -0.10022,-0.570787 -0.26143,-0.771216 -0.183,-0.217857 -0.47493,-0.339858 -0.81479,-0.339858 z m 0.004,0.174286 c 0.39214,0 0.62743,0.357287 0.62743,0.958573 0,0.553358 -0.22657,0.884502 -0.61,0.884502 -0.40522,0 -0.63179,-0.335501 -0.63179,-0.923716 0,-0.557715 0.23965,-0.919359 0.61436,-0.919359 z m 3.27222,1.978146 h 0.793 v -0.130714 l -0.10893,-0.0087 c -0.19172,-0.01743 -0.27014,-0.122001 -0.27014,-0.361644 v -1.612145 h -0.14815 c -0.22657,0.05228 -0.31371,0.061 -0.65793,0.08714 v 0.130714 l 0.10457,0.0087 c 0.23093,0.02614 0.28758,0.09586 0.28758,0.361644 v 0.971644 c -0.29629,0.257072 -0.54465,0.38343 -0.7625,0.38343 -0.27451,0 -0.39651,-0.148144 -0.39651,-0.479287 v -1.464002 h -0.14814 c -0.22657,0.05228 -0.32243,0.06536 -0.65793,0.08714 v 0.130714 l 0.10457,0.0087 c 0.23093,0.02614 0.28758,0.09586 0.28758,0.361644 v 0.910644 c 0,0.217858 0.0392,0.339858 0.13942,0.453144 0.11765,0.135072 0.28322,0.200429 0.50979,0.200429 0.31372,0 0.549,-0.104572 0.92372,-0.405215 z m 4.148,-1.921503 c -0.23528,-0.161214 -0.4575,-0.230929 -0.72328,-0.230929 -0.54465,0 -0.95858,0.47493 -0.95858,1.102359 0,0.274501 0.0915,0.562073 0.23965,0.758144 0.1525,0.204786 0.41828,0.331144 0.68843,0.331144 0.13943,0 0.29628,-0.03486 0.43571,-0.09586 0.12636,-0.05664 0.19172,-0.100214 0.31807,-0.235286 v 0.291929 h 0.73201 v -0.130714 l -0.0523,-0.0087 c -0.19172,-0.0305 -0.26143,-0.126358 -0.26579,-0.361644 v -2.623004 h -0.17428 c -0.21786,0.08714 -0.31807,0.108929 -0.61436,0.148143 v 0.135072 l 0.0915,0.0087 c 0.23964,0.0305 0.28757,0.113286 0.28321,0.488001 z m 0,1.40736 c -0.19607,0.239643 -0.38343,0.344215 -0.62307,0.344215 -0.22657,0 -0.40521,-0.113286 -0.49671,-0.318072 -0.0741,-0.161215 -0.11765,-0.366001 -0.11765,-0.570787 0,-0.196072 0.0392,-0.400858 0.11329,-0.557715 0.10021,-0.222215 0.28321,-0.339858 0.53157,-0.339858 0.20914,0 0.35293,0.06536 0.59257,0.261429 z m 2.07401,-1.638289 c -0.305,0 -0.57514,0.100215 -0.74943,0.283215 -0.183,0.191715 -0.305,0.514144 -0.305,0.819144 0,0.65793 0.42264,1.089288 1.07186,1.089288 0.63178,0 1.05879,-0.435715 1.05879,-1.080573 0,-0.283215 -0.10022,-0.570787 -0.26143,-0.771216 -0.183,-0.217857 -0.47493,-0.339858 -0.81479,-0.339858 z m 0.004,0.174286 c 0.39214,0 0.62743,0.357287 0.62743,0.958573 0,0.553358 -0.22658,0.884502 -0.61,0.884502 -0.40522,0 -0.63179,-0.335501 -0.63179,-0.923716 0,-0.557715 0.23964,-0.919359 0.61436,-0.919359 z m 2.24828,1.472717 c -0.16121,0 -0.28757,0.122 -0.28757,0.278858 0,0.156857 0.12636,0.283214 0.28322,0.283214 0.1525,0 0.27886,-0.126357 0.27886,-0.283214 0,-0.152501 -0.12636,-0.278858 -0.27451,-0.278858 z m 0.0959,-0.252715 c -0.004,-0.387786 0.0871,-0.544643 0.38343,-0.653572 l 0.14379,-0.05229 c 0.19607,-0.06971 0.33114,-0.1525 0.42264,-0.265786 0.10457,-0.139429 0.16557,-0.313715 0.16557,-0.483644 0,-0.257072 -0.13071,-0.496715 -0.34421,-0.623072 -0.19172,-0.117643 -0.45315,-0.187358 -0.7015,-0.187358 -0.28758,0 -0.60129,0.0915 -0.77558,0.226572 -0.19171,0.148143 -0.30064,0.335501 -0.30064,0.514144 0,0.183 0.11329,0.318072 0.27014,0.318072 0.12636,0 0.23529,-0.09586 0.23529,-0.209143 0,-0.04357 -0.009,-0.07407 -0.0523,-0.161215 -0.0305,-0.05664 -0.0392,-0.0915 -0.0392,-0.139429 0,-0.209143 0.2745,-0.374715 0.61871,-0.374715 0.39651,0 0.61872,0.217858 0.61872,0.59693 0,0.239643 -0.10457,0.435715 -0.30064,0.570787 l -0.24836,0.169928 c -0.23529,0.161215 -0.30064,0.283215 -0.30064,0.562073 0,0.06536 0.004,0.108928 0.009,0.191714 z"
       id="text3"
       transform="matrix(0,-1.0292506,0.9715807,0,0,0)"
       aria-label="What will you do?" />
    <path
       style="font-size:4.65604px;font-family:'URW Bookman';-inkscape-font-specification:'URW Bookman';text-align:center;letter-spacing:0px;word-spacing:0px;text-anchor:middle;stroke:#000000;stroke-width:0.1;stroke-linejoin:round"
       d="m 119.32262,-141.25527 h -0.43301 l -0.80084,2.05332 c -0.31195,0.79618 -0.38645,0.90327 -0.6984,0.9638 l -0.0512,0.009 v 0.14434 h 1.24782 v -0.14434 c -0.16762,-0.0233 -0.24677,-0.0419 -0.29799,-0.0745 -0.0698,-0.0466 -0.1164,-0.13037 -0.1164,-0.21417 0,-0.0699 0.0326,-0.19556 0.0885,-0.34455 l 0.149,-0.40042 h 1.20126 l 0.2328,0.60063 c 0.0326,0.0838 0.0512,0.16296 0.0512,0.20021 0,0.13037 -0.0931,0.19555 -0.33058,0.22814 l -0.0373,0.005 v 0.14434 h 1.30835 v -0.14434 c -0.30265,-0.0466 -0.35852,-0.0978 -0.52614,-0.53079 z m -0.84274,1.79258 0.51682,-1.39681 0.53079,1.39681 z m 3.15214,-0.87999 h -0.15831 c -0.28867,0.0559 -0.44232,0.0745 -0.70306,0.0931 v 0.13968 l 0.11175,0.009 c 0.24677,0.0279 0.3073,0.10243 0.3073,0.38645 v 1.09417 c 0,0.25608 -0.0838,0.36783 -0.28868,0.38645 l -0.1164,0.009 v 0.13968 h 1.25248 v -0.13968 l -0.11641,-0.009 c -0.20486,-0.0186 -0.28867,-0.13037 -0.28867,-0.38645 v -1.14073 c 0.16762,-0.18624 0.29333,-0.26074 0.42836,-0.26074 0.0791,0 0.11174,0.014 0.19555,0.0745 0.0838,0.0559 0.15365,0.0791 0.24211,0.0791 0.149,0 0.26074,-0.10709 0.26074,-0.25608 0,-0.15365 -0.13968,-0.26074 -0.33989,-0.26074 -0.10709,0 -0.21883,0.0233 -0.33058,0.0745 -0.11174,0.0466 -0.13502,0.0652 -0.35851,0.25608 -0.014,0.009 -0.0512,0.0466 -0.0978,0.0838 z m 3.19405,1.64358 c -0.17228,0.3073 -0.3818,0.44698 -0.67513,0.44698 -0.33058,0 -0.56804,-0.16296 -0.69375,-0.47957 -0.0698,-0.16296 -0.0931,-0.36783 -0.0931,-0.69841 h 1.61564 c -0.005,-0.27005 -0.0652,-0.43767 -0.21883,-0.6146 -0.18624,-0.21883 -0.47026,-0.33989 -0.79618,-0.33989 -0.63788,0 -1.09883,0.47958 -1.09883,1.15004 0,0.31196 0.1164,0.62391 0.3073,0.83809 0.20952,0.23746 0.49354,0.35386 0.84274,0.35386 0.42836,0 0.72635,-0.17693 0.9638,-0.582 z m -1.44803,-0.91724 c 0.0326,-0.19555 0.0605,-0.27936 0.13502,-0.37714 0.0978,-0.13502 0.24212,-0.20487 0.42836,-0.20487 0.33989,0 0.55407,0.22349 0.55407,0.58201 z m 4.55361,1.09417 -0.58201,-1.41544 c -0.014,-0.0326 -0.0186,-0.0605 -0.0186,-0.0931 0,-0.0978 0.0698,-0.14899 0.25142,-0.17227 v -0.13968 h -1.08486 v 0.14433 c 0.22815,0.0326 0.28402,0.0792 0.37249,0.29334 l 0.83343,1.94622 -0.1164,0.27005 c -0.0373,0.0978 -0.11175,0.21883 -0.1909,0.3073 -0.0652,0.0791 -0.12571,0.1164 -0.20021,0.1164 -0.0466,0 -0.0931,-0.0279 -0.15365,-0.0885 -0.12106,-0.13037 -0.16296,-0.15365 -0.25608,-0.15365 -0.13503,0 -0.24677,0.10708 -0.24677,0.22814 0,0.18624 0.18624,0.31661 0.43767,0.31661 0.18624,0 0.35386,-0.0791 0.50751,-0.23746 0.14433,-0.14899 0.24211,-0.31661 0.39576,-0.68443 l 0.80549,-1.89036 c 0.11175,-0.26073 0.22349,-0.36317 0.47492,-0.4237 v -0.14433 h -1.02433 v 0.13968 c 0.24677,0.0466 0.31661,0.0931 0.31661,0.22814 0,0.0838 -0.0326,0.20953 -0.0885,0.35386 z m 2.36061,-1.86242 c -0.32592,0 -0.6146,0.10709 -0.80084,0.30265 -0.19555,0.20486 -0.32592,0.54941 -0.32592,0.87533 0,0.70306 0.45163,1.16401 1.14538,1.16401 0.67513,0 1.13142,-0.4656 1.13142,-1.1547 0,-0.30264 -0.10709,-0.60994 -0.27936,-0.82412 -0.19555,-0.2328 -0.50751,-0.36317 -0.87068,-0.36317 z m 0.005,0.18624 c 0.41904,0 0.67047,0.3818 0.67047,1.02433 0,0.59132 -0.24212,0.94518 -0.65185,0.94518 -0.43301,0 -0.67513,-0.35852 -0.67513,-0.98708 0,-0.59597 0.25609,-0.98243 0.65651,-0.98243 z m 3.49668,2.11385 h 0.8474 v -0.13968 l -0.1164,-0.009 c -0.20487,-0.0186 -0.28868,-0.13037 -0.28868,-0.38645 v -1.72273 h -0.1583 c -0.24212,0.0559 -0.33524,0.0652 -0.70306,0.0931 v 0.13968 l 0.11174,0.009 c 0.24677,0.0279 0.3073,0.10243 0.3073,0.38645 v 1.0383 c -0.31661,0.27471 -0.58201,0.40973 -0.81481,0.40973 -0.29333,0 -0.4237,-0.1583 -0.4237,-0.51216 v -1.56443 h -0.1583 c -0.24212,0.0559 -0.34455,0.0698 -0.70306,0.0931 v 0.13968 l 0.11174,0.009 c 0.24677,0.0279 0.3073,0.10243 0.3073,0.38645 v 0.97312 c 0,0.2328 0.0419,0.36317 0.14899,0.48422 0.12572,0.14434 0.30264,0.21418 0.54476,0.21418 0.33523,0 0.58666,-0.11174 0.98708,-0.43301 z m 4.19509,-1.32232 c -0.0373,0.005 -0.11174,0.014 -0.22349,0.0233 -0.29333,0.0326 -0.39576,0.0466 -0.56338,0.0931 -0.51682,0.13037 -0.78221,0.35852 -0.78221,0.67047 0,0.33524 0.30264,0.57735 0.71703,0.57735 0.31661,0 0.5401,-0.0931 0.85205,-0.35851 0.0885,0.25142 0.24677,0.35851 0.52148,0.35851 0.20021,0 0.3492,-0.0559 0.47957,-0.18158 l -0.0885,-0.12106 c -0.0792,0.0698 -0.13037,0.0931 -0.20953,0.0931 -0.0978,0 -0.18158,-0.0466 -0.21883,-0.13037 -0.0326,-0.0652 -0.0419,-0.12571 -0.0419,-0.32592 v -0.98708 c 0,-0.27937 -0.0745,-0.4237 -0.2654,-0.53079 -0.17227,-0.0978 -0.40973,-0.15831 -0.62856,-0.15831 -0.54011,0 -1.01502,0.27937 -1.01502,0.59132 0,0.11175 0.10243,0.20487 0.22349,0.20487 0.13037,0 0.23746,-0.10709 0.23746,-0.23746 l -0.005,-0.13037 c 0,-0.13503 0.20952,-0.24212 0.47026,-0.24212 0.33058,0 0.5401,0.15831 0.5401,0.41905 z m 0,0.79618 c -0.26539,0.24677 -0.45629,0.34455 -0.69375,0.34455 -0.21883,0 -0.40042,-0.17693 -0.40042,-0.39576 0,-0.31661 0.39111,-0.52148 1.09417,-0.58201 z m 3.43616,0.10709 -0.48423,-1.38284 c -0.014,-0.0419 -0.0233,-0.0931 -0.0233,-0.12571 0,-0.1164 0.0745,-0.16297 0.27936,-0.1909 v -0.13968 h -1.10814 v 0.13968 c 0.22349,0.0512 0.27937,0.0978 0.36783,0.31661 l 0.0791,0.19555 -0.45163,1.19195 -0.49354,-1.3875 c -0.014,-0.0373 -0.0279,-0.12106 -0.0279,-0.15831 0,-0.0978 0.0791,-0.14433 0.26539,-0.1583 v -0.13968 H 138.729 v 0.13968 c 0.17693,0.0186 0.27936,0.10709 0.36317,0.31661 l 0.69375,1.80189 h 0.30264 l 0.54942,-1.33629 0.4656,1.33629 h 0.32592 l 0.65185,-1.64824 c 0.13037,-0.3073 0.22814,-0.40508 0.47957,-0.47026 v -0.13968 h -1.02898 v 0.13968 c 0.21883,0.014 0.34454,0.11174 0.34454,0.27005 0,0.0559 -0.014,0.13968 -0.0326,0.20021 z m 2.7331,-0.90327 c -0.0373,0.005 -0.11175,0.014 -0.22349,0.0233 -0.29333,0.0326 -0.39576,0.0466 -0.56338,0.0931 -0.51682,0.13037 -0.78222,0.35852 -0.78222,0.67047 0,0.33524 0.30265,0.57735 0.71703,0.57735 0.31661,0 0.5401,-0.0931 0.85206,-0.35851 0.0885,0.25142 0.24677,0.35851 0.52148,0.35851 0.20021,0 0.3492,-0.0559 0.47957,-0.18158 l -0.0885,-0.12106 c -0.0791,0.0698 -0.13037,0.0931 -0.20952,0.0931 -0.0978,0 -0.18158,-0.0466 -0.21883,-0.13037 -0.0326,-0.0652 -0.0419,-0.12571 -0.0419,-0.32592 v -0.98708 c 0,-0.27937 -0.0745,-0.4237 -0.26539,-0.53079 -0.17227,-0.0978 -0.40973,-0.15831 -0.62857,-0.15831 -0.5401,0 -1.01501,0.27937 -1.01501,0.59132 0,0.11175 0.10243,0.20487 0.22349,0.20487 0.13037,0 0.23745,-0.10709 0.23745,-0.23746 l -0.005,-0.13037 c 0,-0.13503 0.20952,-0.24212 0.47026,-0.24212 0.33058,0 0.5401,0.15831 0.5401,0.41905 z m 0,0.79618 c -0.26539,0.24677 -0.45629,0.34455 -0.69375,0.34455 -0.21883,0 -0.40042,-0.17693 -0.40042,-0.39576 0,-0.31661 0.39111,-0.52148 1.09417,-0.58201 z m 2.63532,-1.00104 0.20952,-0.18625 c 0.27936,-0.24677 0.50285,-0.3492 0.89396,-0.40507 v -0.13968 h -1.23851 v 0.13502 c 0.18159,0.014 0.26074,0.0605 0.26074,0.15365 0,0.0559 -0.0233,0.0885 -0.12571,0.17693 l -0.72634,0.63322 v -2.17902 h -0.18625 c -0.23745,0.0931 -0.3492,0.12105 -0.66115,0.1583 v 0.14434 l 0.10243,0.009 c 0.25608,0.0326 0.3073,0.12106 0.30264,0.52148 v 1.9695 c 0,0.25608 -0.0838,0.36783 -0.28867,0.38645 l -0.1164,0.009 v 0.13968 h 1.25247 v -0.13968 l -0.12106,-0.009 c -0.19555,-0.014 -0.27936,-0.13037 -0.28401,-0.38645 v -0.38645 l 0.37713,-0.32127 0.48889,0.70772 c 0.0745,0.10709 0.12106,0.21418 0.12106,0.28402 0,0.0605 -0.0466,0.0931 -0.13503,0.10243 l -0.12571,0.009 v 0.13968 h 1.25713 v -0.149 c -0.21418,-0.0372 -0.39111,-0.1583 -0.56338,-0.38645 z m 3.21733,0.91258 c -0.17228,0.3073 -0.3818,0.44698 -0.67513,0.44698 -0.33058,0 -0.56804,-0.16296 -0.69375,-0.47957 -0.0698,-0.16296 -0.0931,-0.36783 -0.0931,-0.69841 h 1.61565 c -0.005,-0.27005 -0.0652,-0.43767 -0.21884,-0.6146 -0.18624,-0.21883 -0.47026,-0.33989 -0.79618,-0.33989 -0.63788,0 -1.09883,0.47958 -1.09883,1.15004 0,0.31196 0.11641,0.62391 0.3073,0.83809 0.20953,0.23746 0.49354,0.35386 0.84275,0.35386 0.42835,0 0.72634,-0.17693 0.9638,-0.582 z m -1.44803,-0.91724 c 0.0326,-0.19555 0.0605,-0.27936 0.13502,-0.37714 0.0978,-0.13502 0.24212,-0.20487 0.42836,-0.20487 0.33989,0 0.55407,0.22349 0.55407,0.58201 z m 2.66792,0.99174 c -0.17228,0 -0.3073,0.13037 -0.3073,0.29798 0,0.16762 0.13502,0.30265 0.30264,0.30265 0.16296,0 0.29799,-0.13503 0.29799,-0.30265 0,-0.16296 -0.13503,-0.29798 -0.29333,-0.29798 z m 0.10243,-0.27005 c -0.005,-0.41439 0.0931,-0.58201 0.40973,-0.69841 l 0.15365,-0.0559 c 0.20952,-0.0745 0.35386,-0.16296 0.45164,-0.28402 0.11174,-0.14899 0.17693,-0.33524 0.17693,-0.51682 0,-0.27471 -0.13968,-0.53079 -0.36783,-0.66582 -0.20487,-0.12571 -0.48423,-0.20021 -0.74962,-0.20021 -0.3073,0 -0.64254,0.0978 -0.82878,0.24212 -0.20486,0.1583 -0.32127,0.35851 -0.32127,0.54941 0,0.19556 0.12106,0.33989 0.28868,0.33989 0.13502,0 0.25143,-0.10243 0.25143,-0.22349 0,-0.0466 -0.009,-0.0791 -0.0559,-0.17227 -0.0326,-0.0605 -0.0419,-0.0978 -0.0419,-0.14899 0,-0.22349 0.29333,-0.40042 0.66116,-0.40042 0.4237,0 0.66115,0.2328 0.66115,0.63787 0,0.25609 -0.11174,0.46561 -0.32126,0.60995 l -0.2654,0.18158 c -0.25142,0.17227 -0.32126,0.30264 -0.32126,0.60063 0,0.0698 0.005,0.1164 0.009,0.20487 z"
       id="text6"
       transform="matrix(0,1.0998522,-0.90921305,0,0,0)"
       aria-label="Are you awake?" />
    <path
       style="font-size:19.6243px;font-family:'Source Code Pro';-inkscape-font-specification:'Source Code Pro';text-align:center;letter-spacing:0px;word-spacing:0px;text-anchor:middle;stroke:#000000;stroke-width:0.499498;stroke-linejoin:round"
       d="m 171.1435,80.474678 h 1.62882 v -5.435931 h 2.29604 l 3.10064,5.435931 h 1.86431 l -3.27726,-5.61255 c 1.74657,-0.451359 2.88478,-1.648441 2.88478,-3.65012 0,-2.668904 -1.88394,-3.610871 -4.49397,-3.610871 h -4.00336 z m 1.62882,-6.770383 v -4.78833 h 2.13905 c 2.00168,0 3.10064,0.608354 3.10064,2.296043 0,1.668066 -1.09896,2.492287 -3.10064,2.492287 z m 10.42051,6.770383 h 8.16371 v -1.393325 h -6.51527 v -4.670584 h 5.33781 v -1.393325 h -5.33781 v -4.042606 h 6.31903 v -1.373701 h -7.96747 z m 15.52283,0.235492 c 2.8259,0 4.55284,-1.628817 4.55284,-3.669744 0,-1.903558 -1.25596,-2.786651 -2.84552,-3.434253 l -1.80544,-0.784972 c -1.09896,-0.451359 -2.29604,-0.902718 -2.29604,-2.139049 0,-1.157833 1.00084,-1.883932 2.49228,-1.883932 1.33446,0 2.31567,0.470983 3.15952,1.216706 l 0.86346,-1.059712 c -0.94196,-0.941966 -2.35491,-1.589568 -3.9641,-1.589568 -2.45304,0 -4.21923,1.452198 -4.21923,3.414628 0,1.883933 1.49145,2.806275 2.78665,3.316507 l 1.84469,0.804596 c 1.31482,0.569105 2.31566,0.961591 2.31566,2.335292 0,1.197082 -1.04008,2.040927 -2.80627,2.040927 -1.47182,0 -2.80628,-0.647602 -3.76787,-1.609193 l -0.98121,1.13821 c 1.15783,1.157833 2.78665,1.903557 4.67058,1.903557 z m 7.65348,-0.235492 h 8.04597 v -1.393325 h -3.19876 V 68.974838 h 3.19876 v -1.373701 h -8.04597 v 1.373701 h 3.19876 v 10.106515 h -3.19876 z m 15.8957,0.235492 c 2.8259,0 4.55283,-1.628817 4.55283,-3.669744 0,-1.903558 -1.25595,-2.786651 -2.84552,-3.434253 l -1.80543,-0.784972 c -1.09897,-0.451359 -2.29605,-0.902718 -2.29605,-2.139049 0,-1.157833 1.00084,-1.883932 2.49229,-1.883932 1.33445,0 2.31567,0.470983 3.15951,1.216706 l 0.86347,-1.059712 c -0.94197,-0.941966 -2.35492,-1.589568 -3.96411,-1.589568 -2.45304,0 -4.21922,1.452198 -4.21922,3.414628 0,1.883933 1.49144,2.806275 2.78665,3.316507 l 1.84468,0.804596 c 1.31483,0.569105 2.31567,0.961591 2.31567,2.335292 0,1.197082 -1.04009,2.040927 -2.80628,2.040927 -1.47182,0 -2.80627,-0.647602 -3.76786,-1.609193 l -0.98122,1.13821 c 1.15784,1.157833 2.78665,1.903557 4.67059,1.903557 z m 10.85224,-0.235492 h 1.64845 v -11.49984 h 4.23884 v -1.373701 h -10.12613 v 1.373701 h 4.23884 z"
       id="text7"
       transform="scale(0.51422932,1.9446577)"
       aria-label="RESIST" />
    <path
       style="font-size:8.66439px;font-family:'Source Code Pro';-inkscape-font-specification:'Source Code Pro';text-align:center;letter-spacing:0px;word-spacing:0px;text-anchor:middle;stroke:#000000;stroke-width:0.499497;stroke-linejoin:round"
       d="m 89.430775,163.36488 h 0.727808 v -2.54733 h 2.339385 v -0.6065 h -2.339385 v -1.9235 h 2.763941 v -0.60651 h -3.491749 z m 6.056411,-3.17983 c 0.199281,-0.6325 0.381233,-1.25633 0.563185,-1.91483 h 0.03466 c 0.173288,0.6585 0.363904,1.28233 0.563185,1.91483 l 0.268596,0.86644 h -1.69822 z m -1.732878,3.17983 h 0.736473 l 0.545857,-1.73287 h 2.062125 l 0.537192,1.73287 h 0.762466 l -1.91483,-5.68384 h -0.814453 z m 7.564012,0.10398 c 1.24768,0 2.01014,-0.71915 2.01014,-1.62024 0,-0.84045 -0.55452,-1.23035 -1.25633,-1.51627 l -0.79713,-0.34658 c -0.4852,-0.19928 -1.01373,-0.39856 -1.01373,-0.94442 0,-0.5112 0.44188,-0.83178 1.10038,-0.83178 0.58917,0 1.02239,0.20795 1.39496,0.53719 l 0.38124,-0.46787 c -0.4159,-0.41589 -1.03973,-0.70182 -1.75021,-0.70182 -1.08305,0 -1.862845,0.64117 -1.862845,1.5076 0,0.83179 0.658495,1.23901 1.230345,1.46429 l 0.81445,0.35524 c 0.58051,0.25126 1.0224,0.42455 1.0224,1.03106 0,0.52853 -0.45921,0.9011 -1.23901,0.9011 -0.64983,0 -1.23901,-0.28593 -1.663562,-0.71048 l -0.433219,0.50253 c 0.511199,0.5112 1.230341,0.84045 2.062121,0.84045 z m 5.5972,0 c 0.7538,0 1.30833,-0.30326 1.75887,-0.82312 l -0.40722,-0.44188 c -0.36391,0.40722 -0.76247,0.6325 -1.28233,0.6325 -1.09172,0 -1.8022,-0.9011 -1.8022,-2.33073 0,-1.41229 0.71048,-2.29606 1.8022,-2.29606 0.47654,0 0.84911,0.20795 1.1437,0.51986 l 0.40722,-0.45921 c -0.32924,-0.3639 -0.8751,-0.69315 -1.55092,-0.69315 -1.48161,0 -2.54733,1.11771 -2.54733,2.94589 0,1.85418 1.07438,2.9459 2.47801,2.9459 z m 2.98056,-0.10398 h 3.5524 v -0.61517 h -1.4123 v -4.46216 h 1.4123 v -0.60651 h -3.5524 v 0.60651 h 1.41229 v 4.46216 h -1.41229 z m 7.01815,0.10398 c 1.24768,0 2.01014,-0.71915 2.01014,-1.62024 0,-0.84045 -0.55452,-1.23035 -1.25633,-1.51627 l -0.79713,-0.34658 c -0.4852,-0.19928 -1.01373,-0.39856 -1.01373,-0.94442 0,-0.5112 0.44188,-0.83178 1.10038,-0.83178 0.58918,0 1.02239,0.20795 1.39496,0.53719 l 0.38124,-0.46787 c -0.41589,-0.41589 -1.03973,-0.70182 -1.75021,-0.70182 -1.08305,0 -1.86284,0.64117 -1.86284,1.5076 0,0.83179 0.65849,1.23901 1.23034,1.46429 l 0.81445,0.35524 c 0.58052,0.25126 1.0224,0.42455 1.0224,1.03106 0,0.52853 -0.45921,0.9011 -1.23901,0.9011 -0.64983,0 -1.23901,-0.28593 -1.66356,-0.71048 l -0.43322,0.50253 c 0.5112,0.5112 1.23034,0.84045 2.06212,0.84045 z m 3.17984,-0.10398 h 0.67582 v -2.84192 c 0,-0.55452 -0.0693,-1.52493 -0.1213,-2.01013 h 0.0173 l 0.32925,1.10904 0.79712,2.23541 h 0.51986 l 0.81446,-2.23541 0.32058,-1.10904 h 0.026 c -0.0347,0.4852 -0.1213,1.45561 -0.1213,2.01013 v 2.84192 h 0.69315 v -5.68384 h -0.88377 l -0.80579,2.42603 -0.26859,0.91843 h -0.0347 l -0.27726,-0.91843 -0.79712,-2.42603 h -0.88377 z"
       id="text8"
       transform="scale(0.98352401,1.016752)"
       aria-label="FASCISM" />
    <path
       style="font-size:4.09868px;font-family:'URW Bookman';-inkscape-font-specification:'URW Bookman';text-align:center;letter-spacing:0px;word-spacing:0px;text-anchor:middle;stroke:#000000;stroke-width:0.0999996;stroke-linejoin:round"
       d="m 84.995613,163.8241 c -0.823834,0 -1.475524,0.63529 -1.475524,1.43863 0,0.82794 0.631196,1.45913 1.45913,1.45913 0.450854,0 0.893512,-0.20493 1.164025,-0.53693 0.200835,-0.24592 0.303302,-0.55332 0.303302,-0.9017 0,-0.84433 -0.610703,-1.45913 -1.450933,-1.45913 z m -0.0082,0.19673 c 0.598407,0 0.975486,0.49594 0.975486,1.28699 0,0.74186 -0.385276,1.21731 -0.979585,1.21731 -0.598407,0 -0.979584,-0.48775 -0.979584,-1.2583 0,-0.75416 0.389374,-1.246 0.983683,-1.246 z m 3.56175,2.64775 h 0.74596 v -0.12296 l -0.102467,-0.008 c -0.180342,-0.0164 -0.254119,-0.11476 -0.254119,-0.34019 v -1.51651 h -0.139355 c -0.213131,0.0492 -0.295105,0.0574 -0.6189,0.082 v 0.12296 l 0.09837,0.008 c 0.21723,0.0246 0.270513,0.0902 0.270513,0.34019 v 0.91401 c -0.27871,0.24182 -0.512335,0.36068 -0.717269,0.36068 -0.258217,0 -0.37298,-0.13935 -0.37298,-0.45085 v -1.37716 h -0.139355 c -0.213131,0.0492 -0.303302,0.0615 -0.618901,0.082 v 0.12296 l 0.09837,0.008 c 0.21723,0.0246 0.270512,0.0902 0.270512,0.34019 v 0.85663 c 0,0.20493 0.03689,0.31969 0.131158,0.42626 0.110665,0.12706 0.266414,0.18854 0.479546,0.18854 0.295105,0 0.516433,-0.0984 0.86892,-0.38118 z m 1.696855,-1.98786 h -0.139355 c -0.254118,0.0492 -0.389375,0.0656 -0.618901,0.082 v 0.12296 l 0.09837,0.008 c 0.21723,0.0246 0.270513,0.0902 0.270513,0.34019 v 0.96319 c 0,0.22543 -0.07378,0.3238 -0.254118,0.34019 l -0.102467,0.008 v 0.12296 h 1.102545 v -0.12296 l -0.102467,-0.008 c -0.180342,-0.0164 -0.254118,-0.11476 -0.254118,-0.34019 v -1.00418 c 0.147552,-0.16394 0.258217,-0.22952 0.377078,-0.22952 0.06968,0 0.09837,0.0123 0.172145,0.0656 0.07378,0.0492 0.135256,0.0697 0.213131,0.0697 0.131158,0 0.229526,-0.0943 0.229526,-0.22542 0,-0.13526 -0.12296,-0.22953 -0.299203,-0.22953 -0.09427,0 -0.192638,0.0205 -0.291006,0.0656 -0.09837,0.041 -0.118862,0.0574 -0.315599,0.22543 -0.0123,0.008 -0.04509,0.041 -0.08607,0.0738 z m 2.713327,0.13526 v 1.38125 c 0,0.22543 -0.07378,0.3238 -0.254118,0.34019 l -0.102467,0.008 v 0.12296 h 1.102545 v -0.12296 l -0.102467,-0.008 c -0.180342,-0.0164 -0.254118,-0.11476 -0.254118,-0.34019 v -1.38125 h 0.405769 v -0.13526 h -0.405769 v -0.43446 c 0,-0.15575 0.02869,-0.24592 0.09427,-0.3156 0.05328,-0.0574 0.135257,-0.0943 0.204934,-0.0943 0.06968,0 0.135257,0.041 0.192638,0.11886 0.05738,0.0779 0.114763,0.11477 0.18854,0.11477 0.09837,0 0.188539,-0.082 0.188539,-0.17625 0,-0.13525 -0.147553,-0.23362 -0.352487,-0.23362 -0.241822,0 -0.504137,0.0943 -0.68038,0.23772 -0.168046,0.13936 -0.225428,0.29101 -0.225428,0.59021 v 0.19264 h -0.344289 v 0.13526 z m 2.864973,1.8526 h 0.74596 v -0.12296 l -0.102467,-0.008 c -0.180342,-0.0164 -0.254118,-0.11476 -0.254118,-0.34019 v -1.51651 h -0.139355 c -0.213132,0.0492 -0.295105,0.0574 -0.618901,0.082 v 0.12296 l 0.09837,0.008 c 0.21723,0.0246 0.270513,0.0902 0.270513,0.34019 v 0.91401 c -0.27871,0.24182 -0.512335,0.36068 -0.717269,0.36068 -0.258217,0 -0.37298,-0.13935 -0.37298,-0.45085 v -1.37716 h -0.139355 c -0.213131,0.0492 -0.303302,0.0615 -0.618901,0.082 v 0.12296 l 0.09837,0.008 c 0.21723,0.0246 0.270513,0.0902 0.270513,0.34019 v 0.85663 c 0,0.20493 0.03689,0.31969 0.131157,0.42626 0.110665,0.12706 0.266415,0.18854 0.479546,0.18854 0.295105,0 0.516434,-0.0984 0.86892,-0.38118 z m 2.258374,-1.98786 h -0.586111 v -0.74596 h -0.15575 c 0.0041,0.50414 -0.176243,0.72956 -0.577914,0.74596 v 0.13526 h 0.344289 v 1.37305 c 0,0.20084 0.05738,0.3279 0.18854,0.40987 0.106565,0.0697 0.250019,0.10657 0.397572,0.10657 0.241822,0 0.430361,-0.0943 0.577913,-0.28691 l -0.110664,-0.0902 c -0.139355,0.15985 -0.233625,0.21313 -0.356585,0.21313 -0.209033,0 -0.307401,-0.16805 -0.307401,-0.54103 v -1.18451 h 0.586111 z m 2.106715,1.98786 h 0.74596 v -0.12296 l -0.10247,-0.008 c -0.18034,-0.0164 -0.25412,-0.11476 -0.25412,-0.34019 v -1.51651 h -0.13935 c -0.21313,0.0492 -0.29511,0.0574 -0.618902,0.082 v 0.12296 l 0.09837,0.008 c 0.217233,0.0246 0.270513,0.0902 0.270513,0.34019 v 0.91401 c -0.278711,0.24182 -0.512335,0.36068 -0.717269,0.36068 -0.258217,0 -0.37298,-0.13935 -0.37298,-0.45085 v -1.37716 h -0.139355 c -0.213132,0.0492 -0.303303,0.0615 -0.618901,0.082 v 0.12296 l 0.09837,0.008 c 0.21723,0.0246 0.270513,0.0902 0.270513,0.34019 v 0.85663 c 0,0.20493 0.03689,0.31969 0.131158,0.42626 0.110664,0.12706 0.266414,0.18854 0.479545,0.18854 0.295105,0 0.516434,-0.0984 0.868921,-0.38118 z m 1.69686,-1.98786 h -0.13936 c -0.25412,0.0492 -0.38937,0.0656 -0.6189,0.082 v 0.12296 l 0.0984,0.008 c 0.21723,0.0246 0.27051,0.0902 0.27051,0.34019 v 0.96319 c 0,0.22543 -0.0738,0.3238 -0.25412,0.34019 l -0.10246,0.008 v 0.12296 h 1.10254 v -0.12296 l -0.10247,-0.008 c -0.18034,-0.0164 -0.25411,-0.11476 -0.25411,-0.34019 v -1.00418 c 0.14755,-0.16394 0.25821,-0.22952 0.37707,-0.22952 0.0697,0 0.0984,0.0123 0.17215,0.0656 0.0738,0.0492 0.13525,0.0697 0.21313,0.0697 0.13116,0 0.22953,-0.0943 0.22953,-0.22542 0,-0.13526 -0.12296,-0.22953 -0.29921,-0.22953 -0.0943,0 -0.19264,0.0205 -0.291,0.0656 -0.0984,0.041 -0.11887,0.0574 -0.3156,0.22543 -0.0123,0.008 -0.0451,0.041 -0.0861,0.0738 z m 2.81169,1.44683 c -0.15165,0.27052 -0.33609,0.39348 -0.59431,0.39348 -0.291,0 -0.50004,-0.14346 -0.6107,-0.42217 -0.0615,-0.14345 -0.082,-0.32379 -0.082,-0.6148 h 1.42224 c -0.004,-0.23772 -0.0574,-0.38528 -0.19264,-0.54103 -0.16395,-0.19263 -0.41397,-0.2992 -0.70087,-0.2992 -0.56152,0 -0.96729,0.42217 -0.96729,1.01238 0,0.27461 0.10246,0.54922 0.27051,0.73776 0.18444,0.20903 0.43446,0.3115 0.74186,0.3115 0.37708,0 0.6394,-0.15575 0.84843,-0.51234 z m -1.27469,-0.80744 c 0.0287,-0.17214 0.0533,-0.24592 0.11886,-0.33199 0.0861,-0.11886 0.21314,-0.18034 0.37708,-0.18034 0.29921,0 0.48775,0.19674 0.48775,0.51233 z m 3.22156,-0.623 h -0.11476 l -0.041,0.14756 c -0.17624,-0.13936 -0.35248,-0.20084 -0.58611,-0.20084 -0.42216,0 -0.75006,0.26232 -0.75006,0.59841 0,0.25822 0.17625,0.40987 0.61071,0.52053 l 0.52463,0.13116 c 0.20493,0.0533 0.2992,0.13935 0.2992,0.27051 0,0.21723 -0.22543,0.37708 -0.52873,0.37708 -0.25412,0 -0.50414,-0.11066 -0.65579,-0.2951 -0.0738,-0.0861 -0.11476,-0.16805 -0.17214,-0.3238 h -0.13936 l 0.13936,0.72956 h 0.13526 l 0.0451,-0.17214 c 0.22133,0.16805 0.38938,0.22543 0.65989,0.22543 0.49184,0 0.85252,-0.28281 0.85252,-0.66399 0,-0.27871 -0.16394,-0.44266 -0.52053,-0.52873 l -0.56972,-0.13935 c -0.10246,-0.0246 -0.14755,-0.041 -0.19263,-0.0615 -0.0779,-0.041 -0.12706,-0.11477 -0.12706,-0.19674 0,-0.17624 0.17214,-0.3074 0.41396,-0.3074 0.3115,0 0.58202,0.19674 0.71727,0.52053 h 0.13116 z m 3.25026,0.80744 c -0.0328,0.004 -0.0984,0.0123 -0.19674,0.0205 -0.25822,0.0287 -0.34839,0.041 -0.49594,0.082 -0.45495,0.11476 -0.68858,0.3156 -0.68858,0.59021 0,0.29511 0.26642,0.50824 0.6312,0.50824 0.27871,0 0.47545,-0.082 0.75006,-0.3156 0.0779,0.22133 0.21723,0.3156 0.45905,0.3156 0.17624,0 0.3074,-0.0492 0.42216,-0.15985 l -0.0779,-0.10657 c -0.0697,0.0615 -0.11476,0.082 -0.18444,0.082 -0.0861,0 -0.15985,-0.041 -0.19264,-0.11477 -0.0287,-0.0574 -0.0369,-0.11066 -0.0369,-0.2869 v -0.86892 c 0,-0.24592 -0.0656,-0.37298 -0.23362,-0.46725 -0.15165,-0.0861 -0.36069,-0.13936 -0.55332,-0.13936 -0.47545,0 -0.89352,0.24592 -0.89352,0.52053 0,0.0984 0.0902,0.18035 0.19674,0.18035 0.11476,0 0.20903,-0.0943 0.20903,-0.20904 l -0.004,-0.11476 c 0,-0.11886 0.18444,-0.21313 0.41397,-0.21313 0.29101,0 0.47545,0.13935 0.47545,0.36888 z m 0,0.70088 c -0.23363,0.21723 -0.40167,0.3033 -0.61071,0.3033 -0.19263,0 -0.35248,-0.15575 -0.35248,-0.34839 0,-0.27871 0.34429,-0.45905 0.96319,-0.51233 z m 1.69275,-1.52471 h -0.13935 c -0.25412,0.0492 -0.38938,0.0656 -0.6189,0.082 v 0.12296 l 0.0984,0.008 c 0.21723,0.0246 0.27052,0.0902 0.27052,0.34019 v 0.96319 c 0,0.22543 -0.0738,0.3238 -0.25412,0.34019 l -0.10247,0.008 v 0.12296 h 1.10255 v -0.12296 l -0.10247,-0.008 c -0.18034,-0.0164 -0.25412,-0.11476 -0.25412,-0.34019 v -1.00418 c 0.14755,-0.16394 0.25822,-0.22952 0.37708,-0.22952 0.0697,0 0.0984,0.0123 0.17214,0.0656 0.0738,0.0492 0.13526,0.0697 0.21314,0.0697 0.13115,0 0.22952,-0.0943 0.22952,-0.22542 0,-0.13526 -0.12296,-0.22953 -0.2992,-0.22953 -0.0943,0 -0.19264,0.0205 -0.29101,0.0656 -0.0984,0.041 -0.11886,0.0574 -0.3156,0.22543 -0.0123,0.008 -0.0451,0.041 -0.0861,0.0738 z m 2.8117,1.44683 c -0.15165,0.27052 -0.33609,0.39348 -0.59431,0.39348 -0.291,0 -0.50004,-0.14346 -0.6107,-0.42217 -0.0615,-0.14345 -0.082,-0.32379 -0.082,-0.6148 h 1.42225 c -0.004,-0.23772 -0.0574,-0.38528 -0.19264,-0.54103 -0.16395,-0.19263 -0.41397,-0.2992 -0.70088,-0.2992 -0.56151,0 -0.96728,0.42217 -0.96728,1.01238 0,0.27461 0.10246,0.54922 0.27051,0.73776 0.18444,0.20903 0.43446,0.3115 0.74186,0.3115 0.37708,0 0.63939,-0.15575 0.84843,-0.51234 z m -1.27469,-0.80744 c 0.0287,-0.17214 0.0533,-0.24592 0.11886,-0.33199 0.0861,-0.11886 0.21313,-0.18034 0.37708,-0.18034 0.2992,0 0.48774,0.19674 0.48774,0.51233 z m 4.36509,0.18444 c -0.0328,0.004 -0.0984,0.0123 -0.19673,0.0205 -0.25822,0.0287 -0.34839,0.041 -0.49594,0.082 -0.45496,0.11476 -0.68858,0.3156 -0.68858,0.59021 0,0.29511 0.26641,0.50824 0.6312,0.50824 0.27871,0 0.47544,-0.082 0.75005,-0.3156 0.0779,0.22133 0.21723,0.3156 0.45906,0.3156 0.17624,0 0.3074,-0.0492 0.42216,-0.15985 l -0.0779,-0.10657 c -0.0697,0.0615 -0.11477,0.082 -0.18445,0.082 -0.0861,0 -0.15984,-0.041 -0.19263,-0.11477 -0.0287,-0.0574 -0.0369,-0.11066 -0.0369,-0.2869 v -0.86892 c 0,-0.24592 -0.0656,-0.37298 -0.23363,-0.46725 -0.15165,-0.0861 -0.36068,-0.13936 -0.55332,-0.13936 -0.47544,0 -0.89351,0.24592 -0.89351,0.52053 0,0.0984 0.0902,0.18035 0.19674,0.18035 0.11476,0 0.20903,-0.0943 0.20903,-0.20904 l -0.004,-0.11476 c 0,-0.11886 0.18444,-0.21313 0.41397,-0.21313 0.291,0 0.47544,0.13935 0.47544,0.36888 z m 0,0.70088 c -0.23362,0.21723 -0.40167,0.3033 -0.6107,0.3033 -0.19264,0 -0.35249,-0.15575 -0.35249,-0.34839 0,-0.27871 0.34429,-0.45905 0.96319,-0.51233 z m 2.16411,-1.52471 h -0.58611 v -0.74596 h -0.15575 c 0.004,0.50414 -0.17624,0.72956 -0.57791,0.74596 v 0.13526 h 0.34429 v 1.37305 c 0,0.20084 0.0574,0.3279 0.18853,0.40987 0.10657,0.0697 0.25002,0.10657 0.39758,0.10657 0.24182,0 0.43036,-0.0943 0.57791,-0.28691 l -0.11066,-0.0902 c -0.13936,0.15985 -0.23363,0.21313 -0.35659,0.21313 -0.20903,0 -0.3074,-0.16805 -0.3074,-0.54103 v -1.18451 h 0.58611 z m 3.18467,0.0164 h -0.11476 l -0.041,0.14756 c -0.17624,-0.13936 -0.35249,-0.20084 -0.58611,-0.20084 -0.42216,0 -0.75006,0.26232 -0.75006,0.59841 0,0.25822 0.17624,0.40987 0.61071,0.52053 l 0.52463,0.13116 c 0.20493,0.0533 0.2992,0.13935 0.2992,0.27051 0,0.21723 -0.22543,0.37708 -0.52873,0.37708 -0.25412,0 -0.50414,-0.11066 -0.65579,-0.2951 -0.0738,-0.0861 -0.11476,-0.16805 -0.17214,-0.3238 h -0.13936 l 0.13936,0.72956 h 0.13525 l 0.0451,-0.17214 c 0.22133,0.16805 0.38937,0.22543 0.65989,0.22543 0.49184,0 0.85252,-0.28281 0.85252,-0.66399 0,-0.27871 -0.16395,-0.44266 -0.52053,-0.52873 l -0.56972,-0.13935 c -0.10246,-0.0246 -0.14755,-0.041 -0.19264,-0.0615 -0.0779,-0.041 -0.12705,-0.11477 -0.12705,-0.19674 0,-0.17624 0.17214,-0.3074 0.41396,-0.3074 0.3115,0 0.58201,0.19674 0.71727,0.52053 h 0.13116 z m 1.73374,-0.0164 h -0.58611 v -0.74596 h -0.15575 c 0.004,0.50414 -0.17624,0.72956 -0.57791,0.74596 v 0.13526 h 0.34429 v 1.37305 c 0,0.20084 0.0574,0.3279 0.18854,0.40987 0.10656,0.0697 0.25002,0.10657 0.39757,0.10657 0.24182,0 0.43036,-0.0943 0.57791,-0.28691 l -0.11066,-0.0902 c -0.13936,0.15985 -0.23363,0.21313 -0.35659,0.21313 -0.20903,0 -0.3074,-0.16805 -0.3074,-0.54103 v -1.18451 h 0.58611 z m 1.73784,0.82383 c -0.0328,0.004 -0.0984,0.0123 -0.19674,0.0205 -0.25822,0.0287 -0.34839,0.041 -0.49594,0.082 -0.45495,0.11476 -0.68858,0.3156 -0.68858,0.59021 0,0.29511 0.26642,0.50824 0.6312,0.50824 0.27871,0 0.47545,-0.082 0.75006,-0.3156 0.0779,0.22133 0.21723,0.3156 0.45905,0.3156 0.17624,0 0.3074,-0.0492 0.42216,-0.15985 l -0.0779,-0.10657 c -0.0697,0.0615 -0.11476,0.082 -0.18444,0.082 -0.0861,0 -0.15985,-0.041 -0.19264,-0.11477 -0.0287,-0.0574 -0.0369,-0.11066 -0.0369,-0.2869 v -0.86892 c 0,-0.24592 -0.0656,-0.37298 -0.23362,-0.46725 -0.15165,-0.0861 -0.36069,-0.13936 -0.55332,-0.13936 -0.47545,0 -0.89352,0.24592 -0.89352,0.52053 0,0.0984 0.0902,0.18035 0.19674,0.18035 0.11476,0 0.20903,-0.0943 0.20903,-0.20904 l -0.004,-0.11476 c 0,-0.11886 0.18445,-0.21313 0.41397,-0.21313 0.29101,0 0.47545,0.13935 0.47545,0.36888 z m 0,0.70088 c -0.23363,0.21723 -0.40167,0.3033 -0.6107,0.3033 -0.19264,0 -0.35249,-0.15575 -0.35249,-0.34839 0,-0.27871 0.34429,-0.45905 0.96319,-0.51233 z m 2.31985,-0.88122 0.18444,-0.16395 c 0.24592,-0.21723 0.44266,-0.3074 0.78695,-0.35658 v -0.12296 h -1.09025 v 0.11886 c 0.15985,0.0123 0.22953,0.0533 0.22953,0.13526 0,0.0492 -0.0205,0.0779 -0.11067,0.15575 l -0.63939,0.55742 v -1.91818 h -0.16395 c -0.20903,0.082 -0.3074,0.10656 -0.58201,0.13935 v 0.12706 l 0.0902,0.008 c 0.22543,0.0287 0.27051,0.10656 0.26641,0.45905 v 1.73374 c 0,0.22543 -0.0738,0.3238 -0.25411,0.34019 l -0.10247,0.008 v 0.12296 h 1.10254 v -0.12296 l -0.10656,-0.008 c -0.17215,-0.0123 -0.24592,-0.11476 -0.25002,-0.34019 v -0.34019 l 0.33199,-0.28281 0.43036,0.623 c 0.0656,0.0943 0.10657,0.18854 0.10657,0.25002 0,0.0533 -0.041,0.082 -0.11886,0.0902 l -0.11067,0.008 v 0.12296 h 1.10665 v -0.13116 c -0.18854,-0.0328 -0.34429,-0.13935 -0.49594,-0.34019 z m 2.8322,0.80334 c -0.15166,0.27052 -0.3361,0.39348 -0.59431,0.39348 -0.29101,0 -0.50004,-0.14346 -0.61071,-0.42217 -0.0615,-0.14345 -0.082,-0.32379 -0.082,-0.6148 h 1.42224 c -0.004,-0.23772 -0.0574,-0.38528 -0.19264,-0.54103 -0.16394,-0.19263 -0.41396,-0.2992 -0.70087,-0.2992 -0.56152,0 -0.96729,0.42217 -0.96729,1.01238 0,0.27461 0.10247,0.54922 0.27051,0.73776 0.18444,0.20903 0.43446,0.3115 0.74187,0.3115 0.37707,0 0.63939,-0.15575 0.84842,-0.51234 z m -1.27469,-0.80744 c 0.0287,-0.17214 0.0533,-0.24592 0.11886,-0.33199 0.0861,-0.11886 0.21313,-0.18034 0.37708,-0.18034 0.2992,0 0.48774,0.19674 0.48774,0.51233 z m 2.06163,0.87302 c -0.15165,0 -0.27051,0.11477 -0.27051,0.26232 0,0.14755 0.11886,0.26641 0.26642,0.26641 0.14345,0 0.26231,-0.11886 0.26231,-0.26641 0,-0.14346 -0.11886,-0.26232 -0.25822,-0.26232 z m 0.0615,-0.23772 v -0.12706 c -0.004,-0.13116 0.0328,-0.46725 0.0697,-0.65169 l 0.11477,-0.55742 c 0.0369,-0.19674 0.0574,-0.33199 0.0574,-0.41807 0,-0.23772 -0.11067,-0.37707 -0.29511,-0.37707 -0.19674,0 -0.2951,0.13525 -0.2951,0.41396 0,0.0902 0,0.0902 0.0492,0.36888 l 0.0902,0.53693 c 0.0287,0.15985 0.0656,0.56152 0.0615,0.68038 v 0.13116 z"
       id="text4"
       transform="scale(0.96819324,1.0328517)"
       aria-label="Our futures are at stake!" />
    <path
       style="font-size:4.25279px;font-family:'URW Bookman';-inkscape-font-specification:'URW Bookman';text-align:center;letter-spacing:0px;word-spacing:0px;text-anchor:middle;display:inline;stroke:#000000;stroke-width:0.11;stroke-linejoin:round;stroke-dasharray:none"
       d="m 81.120184,127.69051 h 1.303064 c 0.662213,0 1.016818,-0.0932 1.315882,-0.35137 0.286247,-0.24554 0.461413,-0.65193 0.461413,-1.0668 0,-0.40217 -0.166621,-0.82127 -0.427235,-1.0668 -0.294791,-0.27516 -0.704936,-0.39793 -1.35006,-0.39793 h -1.303064 v 0.13123 l 0.106809,0.0127 c 0.222161,0.0254 0.273429,0.11006 0.277702,0.46567 v 1.6637 c -0.0043,0.35559 -0.05554,0.44026 -0.277702,0.46566 l -0.106809,0.0127 z m 0.811745,-2.31987 c 0,-0.16087 0.01282,-0.2413 0.05127,-0.28363 0.05126,-0.0635 0.239251,-0.10584 0.457141,-0.10584 0.465685,0 0.811745,0.1524 1.02109,0.44874 0.153804,0.21167 0.234978,0.49953 0.234978,0.81279 0,0.34291 -0.09826,0.66041 -0.273429,0.8763 -0.205073,0.25824 -0.551132,0.39793 -0.982639,0.39793 -0.213618,0 -0.388784,-0.0381 -0.448596,-0.0932 -0.04699,-0.0423 -0.05981,-0.11006 -0.05981,-0.27939 z m 4.430416,1.76106 c -0.158076,0.2794 -0.350332,0.40641 -0.61949,0.40641 -0.303336,0 -0.521225,-0.14817 -0.636578,-0.43604 -0.06408,-0.14817 -0.08545,-0.33443 -0.08545,-0.635 h 1.482503 c -0.0043,-0.24553 -0.05981,-0.39793 -0.2008,-0.5588 -0.170894,-0.19897 -0.431507,-0.30903 -0.730571,-0.30903 -0.585311,0 -1.008273,0.43604 -1.008273,1.04563 0,0.28363 0.106808,0.56726 0.281975,0.762 0.192255,0.2159 0.452868,0.32173 0.773294,0.32173 0.393055,0 0.666485,-0.16086 0.884375,-0.52917 z m -1.328699,-0.83396 c 0.02991,-0.1778 0.05554,-0.254 0.123898,-0.3429 0.08972,-0.12277 0.222162,-0.18627 0.393056,-0.18627 0.311882,0 0.508409,0.2032 0.508409,0.52917 z m 3.815205,-0.18626 c 0.260613,-0.21591 0.431507,-0.29211 0.628035,-0.29211 0.222161,0 0.337514,0.15664 0.337514,0.46144 v 0.92286 c 0,0.23283 -0.0769,0.33444 -0.264885,0.35137 l -0.0769,0.008 v 0.12701 h 1.119354 V 127.563 l -0.106809,-0.008 c -0.187982,-0.0169 -0.264885,-0.11854 -0.264885,-0.35137 v -1.03717 c 0,-0.35559 -0.209344,-0.56726 -0.568222,-0.56726 -0.286246,0 -0.504136,0.0932 -0.811745,0.35136 -0.115353,-0.254 -0.277702,-0.35136 -0.585311,-0.35136 -0.303336,0 -0.504136,0.0846 -0.777566,0.32173 v -0.28363 h -0.14526 c -0.247795,0.0466 -0.380238,0.0635 -0.632306,0.0847 v 0.12699 l 0.08972,0.009 c 0.226434,0.0254 0.281974,0.0932 0.281974,0.35137 v 0.99483 c 0,0.23283 -0.0769,0.33443 -0.264885,0.35137 l -0.106808,0.008 v 0.12701 h 1.119354 v -0.12701 l -0.0769,-0.008 c -0.187982,-0.0169 -0.264885,-0.11854 -0.264885,-0.35137 v -1.0922 c 0.247796,-0.21166 0.414417,-0.2921 0.615217,-0.2921 0.243524,0 0.350333,0.1397 0.350333,0.44873 v 0.93557 c 0,0.23283 -0.0769,0.33443 -0.264886,0.35137 l -0.08972,0.008 v 0.12701 h 1.115081 v -0.12701 l -0.08972,-0.008 c -0.187984,-0.0169 -0.264886,-0.11854 -0.264886,-0.35137 z m 2.98637,-0.51224 c -0.299064,0 -0.563949,0.0974 -0.734843,0.27517 -0.179438,0.18626 -0.299064,0.49953 -0.299064,0.79586 0,0.63924 0.414417,1.05833 1.050996,1.05833 0.61949,0 1.038179,-0.42333 1.038179,-1.04986 0,-0.27517 -0.09826,-0.55457 -0.25634,-0.7493 -0.179439,-0.21166 -0.465685,-0.3302 -0.798928,-0.3302 z m 0.0043,0.16933 c 0.38451,0 0.615216,0.34714 0.615216,0.93133 0,0.53764 -0.222161,0.85937 -0.598127,0.85937 -0.397329,0 -0.61949,-0.32596 -0.61949,-0.89747 0,-0.54186 0.234979,-0.89323 0.602401,-0.89323 z m 3.199982,1.38854 c -0.239251,0.30056 -0.414417,0.40216 -0.67503,0.40216 -0.444324,0 -0.734843,-0.34714 -0.734843,-0.8763 0,-0.23706 0.04273,-0.4445 0.123898,-0.6096 0.09826,-0.2032 0.264886,-0.3048 0.499864,-0.3048 0.222162,0 0.422962,0.13124 0.422962,0.2794 l -0.0043,0.14817 c 0,0.12276 0.08972,0.21589 0.21789,0.21589 0.123898,0 0.217889,-0.0974 0.217889,-0.2286 0,-0.14392 -0.08972,-0.28786 -0.243523,-0.40216 -0.170894,-0.12276 -0.371694,-0.18203 -0.628034,-0.18203 -0.311882,0 -0.559678,0.0932 -0.739116,0.27517 -0.192255,0.19896 -0.303336,0.48683 -0.303336,0.79163 0,0.635 0.422961,1.06256 1.050996,1.06256 0.410145,0 0.696392,-0.1524 0.918554,-0.49529 z m 1.093721,-1.51977 h -0.145259 c -0.264886,0.0508 -0.405873,0.0677 -0.645124,0.0847 v 0.12699 l 0.102536,0.009 c 0.226435,0.0254 0.281975,0.0932 0.281975,0.35137 v 0.99483 c 0,0.23283 -0.0769,0.33443 -0.264885,0.35137 l -0.106808,0.008 v 0.12701 h 1.14926 v -0.12701 l -0.106809,-0.008 c -0.187983,-0.0169 -0.264886,-0.11854 -0.264886,-0.35137 v -1.03717 c 0.153805,-0.16933 0.269158,-0.23706 0.393056,-0.23706 0.07263,0 0.102537,0.0127 0.179439,0.0677 0.0769,0.0508 0.140987,0.072 0.222161,0.072 0.136715,0 0.239251,-0.0974 0.239251,-0.23284 0,-0.1397 -0.128169,-0.23706 -0.31188,-0.23706 -0.09826,0 -0.2008,0.0212 -0.303336,0.0677 -0.102537,0.0423 -0.123898,0.0592 -0.328971,0.23284 -0.01282,0.008 -0.047,0.0423 -0.08972,0.0761 z m 2.601864,0.85089 c -0.03418,0.004 -0.102536,0.0127 -0.205072,0.0212 -0.269158,0.0297 -0.363149,0.0423 -0.516954,0.0846 -0.47423,0.11853 -0.717753,0.32597 -0.717753,0.6096 0,0.3048 0.277702,0.52493 0.65794,0.52493 0.29052,0 0.495592,-0.0846 0.781839,-0.32596 0.08117,0.2286 0.226435,0.32596 0.478502,0.32596 0.183711,0 0.320427,-0.0508 0.440052,-0.1651 l -0.08117,-0.11006 c -0.07263,0.0635 -0.119626,0.0847 -0.192256,0.0847 -0.08972,0 -0.166622,-0.0423 -0.2008,-0.11854 -0.02991,-0.0592 -0.03845,-0.1143 -0.03845,-0.29634 v -0.89746 c 0,-0.254 -0.06835,-0.38523 -0.243524,-0.4826 -0.158076,-0.0889 -0.375966,-0.14393 -0.576766,-0.14393 -0.495591,0 -0.931371,0.254 -0.931371,0.53763 0,0.1016 0.09399,0.18627 0.205073,0.18627 0.119625,0 0.217889,-0.0974 0.217889,-0.21591 l -0.0043,-0.11852 c 0,-0.12278 0.192255,-0.22014 0.431506,-0.22014 0.303336,0 0.495592,0.14394 0.495592,0.381 z m 0,0.7239 c -0.243523,0.22437 -0.418689,0.31327 -0.636579,0.31327 -0.2008,0 -0.367422,-0.16087 -0.367422,-0.35983 0,-0.28787 0.358878,-0.47413 1.004001,-0.52917 z m 2.892372,-0.055 c -0.23924,0.30056 -0.41441,0.40216 -0.67503,0.40216 -0.44432,0 -0.73484,-0.34714 -0.73484,-0.8763 0,-0.23706 0.0427,-0.4445 0.1239,-0.6096 0.0983,-0.2032 0.26489,-0.3048 0.49987,-0.3048 0.22215,0 0.42296,0.13124 0.42296,0.2794 l -0.004,0.14817 c 0,0.12276 0.0897,0.21589 0.2179,0.21589 0.1239,0 0.21789,-0.0973 0.21789,-0.2286 0,-0.14392 -0.0897,-0.28786 -0.24353,-0.40216 -0.17089,-0.12276 -0.37169,-0.18203 -0.62803,-0.18203 -0.31189,0 -0.55968,0.0932 -0.73912,0.27517 -0.192257,0.19896 -0.303337,0.48683 -0.303337,0.79163 0,0.635 0.422957,1.06256 1.050997,1.06256 0.41015,0 0.6964,-0.1524 0.91855,-0.49529 z m 1.43551,0.13546 -0.53404,-1.28693 c -0.0129,-0.0297 -0.0171,-0.055 -0.0171,-0.0847 0,-0.0889 0.0641,-0.13547 0.23071,-0.15663 v -0.127 h -0.99546 v 0.13123 c 0.20935,0.0297 0.26061,0.072 0.3418,0.26671 l 0.76475,1.76952 -0.10681,0.24553 c -0.0342,0.0889 -0.10254,0.19898 -0.17518,0.27941 -0.0598,0.072 -0.11534,0.10583 -0.18371,0.10583 -0.0427,0 -0.0854,-0.0254 -0.14098,-0.0804 -0.11108,-0.11853 -0.14954,-0.1397 -0.23498,-0.1397 -0.12389,0 -0.22643,0.0973 -0.22643,0.20744 0,0.16933 0.17089,0.28786 0.4016,0.28786 0.17089,0 0.32469,-0.072 0.46568,-0.21589 0.13244,-0.13547 0.22216,-0.28787 0.36315,-0.6223 l 0.73911,-1.71874 c 0.10254,-0.23706 0.20508,-0.33019 0.43579,-0.38523 v -0.13123 h -0.93992 v 0.127 c 0.22643,0.0423 0.29051,0.0847 0.29051,0.20743 0,0.0761 -0.0299,0.1905 -0.0812,0.32174 z m 3.91774,-1.65523 h -0.61094 v -0.77046 h -0.16235 c 0.004,0.52069 -0.18371,0.75352 -0.60239,0.77046 v 0.1397 h 0.35887 v 1.41816 c 0,0.20744 0.0598,0.33867 0.19653,0.42334 0.11108,0.072 0.26061,0.11006 0.41442,0.11006 0.25206,0 0.44859,-0.0973 0.60239,-0.29633 l -0.11534,-0.0932 c -0.14527,0.16509 -0.24353,0.22013 -0.37171,0.22013 -0.21788,0 -0.32042,-0.17356 -0.32042,-0.5588 v -1.22343 h 0.61094 z m 1.10227,-0.98213 h -0.17089 c -0.2179,0.0846 -0.32043,0.11006 -0.60668,0.14393 v 0.13124 l 0.094,0.008 c 0.23499,0.0297 0.28198,0.11007 0.2777,0.47414 v 1.7907 c 0,0.23283 -0.0769,0.33443 -0.26488,0.35136 l -0.10681,0.008 v 0.12701 h 1.14926 v -0.12701 l -0.10681,-0.008 c -0.18798,-0.0169 -0.26488,-0.11853 -0.26488,-0.35136 v -1.05411 c 0.25206,-0.23283 0.49132,-0.34713 0.73911,-0.34713 0.24353,0 0.36742,0.14394 0.36742,0.42756 v 0.97368 c 0,0.23283 -0.0769,0.33443 -0.26488,0.35136 l -0.10681,0.008 v 0.12701 h 1.14926 v -0.12701 l -0.10681,-0.008 c -0.18798,-0.0169 -0.26488,-0.11853 -0.26488,-0.35136 v -0.99907 c 0,-0.26247 -0.047,-0.38524 -0.19226,-0.4826 -0.11963,-0.0804 -0.28197,-0.12277 -0.4785,-0.12277 -0.29907,0 -0.56395,0.11007 -0.84165,0.35137 z m 2.83256,0.98213 h -0.14526 c -0.26489,0.0508 -0.40587,0.0677 -0.64513,0.0847 v 0.12699 l 0.10254,0.009 c 0.22643,0.0254 0.28197,0.0932 0.28197,0.35137 v 0.99483 c 0,0.23283 -0.0769,0.33443 -0.26488,0.35137 l -0.10681,0.008 v 0.12701 h 1.14926 v -0.12701 l -0.10681,-0.008 c -0.18798,-0.0169 -0.26488,-0.11854 -0.26488,-0.35137 v -1.03717 c 0.15381,-0.16933 0.26915,-0.23706 0.39305,-0.23706 0.0726,0 0.10254,0.0127 0.17944,0.0677 0.0768,0.0508 0.14099,0.072 0.22217,0.072 0.1367,0 0.23924,-0.0973 0.23924,-0.23284 0,-0.1397 -0.12816,-0.23706 -0.31187,-0.23706 -0.0983,0 -0.2008,0.0212 -0.30334,0.0677 -0.10254,0.0423 -0.1239,0.0592 -0.32898,0.23284 -0.0128,0.008 -0.047,0.0423 -0.0897,0.0761 z m 2.93083,1.49436 c -0.15808,0.2794 -0.35034,0.40641 -0.61949,0.40641 -0.30334,0 -0.52123,-0.14817 -0.63658,-0.43604 -0.0641,-0.14817 -0.0854,-0.33443 -0.0854,-0.635 h 1.4825 c -0.004,-0.24553 -0.0598,-0.39793 -0.20081,-0.5588 -0.17089,-0.19897 -0.4315,-0.30903 -0.73056,-0.30903 -0.58532,0 -1.00828,0.43604 -1.00828,1.04563 0,0.28363 0.10681,0.56726 0.28197,0.762 0.19226,0.2159 0.45288,0.32173 0.7733,0.32173 0.39305,0 0.66648,-0.16086 0.88438,-0.52917 z m -1.3287,-0.83396 c 0.0299,-0.1778 0.0556,-0.254 0.1239,-0.3429 0.0897,-0.12277 0.22216,-0.18627 0.39305,-0.18627 0.31189,0 0.50842,0.2032 0.50842,0.52917 z m 3.18717,0.19049 c -0.0342,0.004 -0.10254,0.0127 -0.20508,0.0212 -0.26915,0.0297 -0.36315,0.0423 -0.51695,0.0846 -0.47423,0.11853 -0.71775,0.32597 -0.71775,0.6096 0,0.3048 0.2777,0.52493 0.65793,0.52493 0.29052,0 0.4956,-0.0846 0.78185,-0.32596 0.0812,0.2286 0.22643,0.32596 0.4785,0.32596 0.18371,0 0.32043,-0.0508 0.44005,-0.1651 l -0.0812,-0.11006 c -0.0726,0.0635 -0.11962,0.0847 -0.19225,0.0847 -0.0897,0 -0.16662,-0.0423 -0.2008,-0.11854 -0.0299,-0.0592 -0.0385,-0.1143 -0.0385,-0.29634 v -0.89746 c 0,-0.254 -0.0683,-0.38523 -0.24353,-0.4826 -0.15807,-0.0889 -0.37596,-0.14393 -0.57677,-0.14393 -0.49558,0 -0.93136,0.254 -0.93136,0.53763 0,0.1016 0.094,0.18627 0.20507,0.18627 0.11963,0 0.21789,-0.0973 0.21789,-0.21591 l -0.004,-0.11852 c 0,-0.12278 0.19226,-0.22014 0.4315,-0.22014 0.30334,0 0.4956,0.14394 0.4956,0.381 z m 0,0.7239 c -0.24352,0.22437 -0.4187,0.31327 -0.63658,0.31327 -0.2008,0 -0.36742,-0.16087 -0.36742,-0.35983 0,-0.28787 0.35887,-0.47413 1.004,-0.52917 z m 2.2558,-1.57479 h -0.61095 v -0.77046 h -0.16234 c 0.004,0.52069 -0.18371,0.75352 -0.6024,0.77046 v 0.1397 h 0.35887 v 1.41816 c 0,0.20744 0.0598,0.33867 0.19653,0.42334 0.11108,0.072 0.26061,0.11006 0.41442,0.11006 0.25206,0 0.44859,-0.0973 0.60239,-0.29633 l -0.11534,-0.0932 c -0.14527,0.16509 -0.24353,0.22013 -0.3717,0.22013 -0.21789,0 -0.32043,-0.17356 -0.32043,-0.5588 v -1.22343 h 0.61095 z m 2.06354,1.49436 c -0.15808,0.2794 -0.35033,0.40641 -0.6195,0.40641 -0.30333,0 -0.52122,-0.14817 -0.63657,-0.43604 -0.0641,-0.14817 -0.0855,-0.33443 -0.0855,-0.635 h 1.4825 c -0.004,-0.24553 -0.0598,-0.39793 -0.20079,-0.5588 -0.17091,-0.19897 -0.43152,-0.30903 -0.73058,-0.30903 -0.58531,0 -1.00827,0.43604 -1.00827,1.04563 0,0.28363 0.10681,0.56726 0.28198,0.762 0.19225,0.2159 0.45286,0.32173 0.77329,0.32173 0.39306,0 0.66649,-0.16086 0.88437,-0.52917 z m -1.3287,-0.83396 c 0.0299,-0.1778 0.0556,-0.254 0.1239,-0.3429 0.0897,-0.12277 0.22215,-0.18627 0.39305,-0.18627 0.31188,0 0.50841,0.2032 0.50841,0.52917 z m 2.46941,-0.6604 h -0.14525 c -0.2649,0.0508 -0.40588,0.0677 -0.64513,0.0847 v 0.12699 l 0.10253,0.009 c 0.22644,0.0254 0.28198,0.0932 0.28198,0.35137 v 0.99483 c 0,0.23283 -0.0768,0.33443 -0.26489,0.35137 l -0.10681,0.008 v 0.12701 h 1.14926 v -0.12701 l -0.1068,-0.008 c -0.18799,-0.0169 -0.26489,-0.11854 -0.26489,-0.35137 v -1.04563 c 0.26489,-0.23707 0.51696,-0.35561 0.75621,-0.35561 0.23498,0 0.36314,0.14817 0.36314,0.42334 v 0.9779 c 0,0.23283 -0.0812,0.33443 -0.26488,0.35137 l -0.10681,0.008 v 0.12701 h 1.14926 v -0.12701 l -0.10681,-0.008 c -0.18798,-0.0169 -0.26488,-0.11854 -0.26488,-0.35137 v -1.04563 c 0,-0.35137 -0.23925,-0.5588 -0.64512,-0.5588 -0.32898,0 -0.57677,0.10583 -0.88011,0.37253 z m 3.90065,1.49436 c -0.15808,0.2794 -0.35033,0.40641 -0.61949,0.40641 -0.30334,0 -0.52123,-0.14817 -0.63658,-0.43604 -0.0641,-0.14817 -0.0855,-0.33443 -0.0855,-0.635 h 1.48251 c -0.004,-0.24553 -0.0598,-0.39793 -0.2008,-0.5588 -0.17089,-0.19897 -0.43151,-0.30903 -0.73058,-0.30903 -0.5853,0 -1.00827,0.43604 -1.00827,1.04563 0,0.28363 0.10681,0.56726 0.28198,0.762 0.19225,0.2159 0.45286,0.32173 0.77329,0.32173 0.39306,0 0.66649,-0.16086 0.88438,-0.52917 z m -1.3287,-0.83396 c 0.0299,-0.1778 0.0556,-0.254 0.1239,-0.3429 0.0897,-0.12277 0.22216,-0.18627 0.39306,-0.18627 0.31187,0 0.5084,0.2032 0.5084,0.52917 z m 3.40078,-0.47413 c -0.2307,-0.15664 -0.44859,-0.22437 -0.7092,-0.22437 -0.53404,0 -0.93992,0.46143 -0.93992,1.07103 0,0.2667 0.0897,0.5461 0.23498,0.7366 0.14954,0.19896 0.41015,0.32173 0.67503,0.32173 0.13672,0 0.29052,-0.0338 0.42724,-0.0932 0.12389,-0.055 0.18798,-0.0973 0.31187,-0.2286 v 0.28364 h 0.71776 v -0.12701 l -0.0512,-0.008 c -0.18799,-0.0297 -0.25635,-0.12277 -0.26062,-0.35137 v -2.54846 h -0.17089 c -0.21362,0.0846 -0.31189,0.10583 -0.60241,0.14393 v 0.13123 l 0.0897,0.008 c 0.23498,0.0297 0.28197,0.11007 0.27771,0.47414 z m 0,1.36736 c -0.19224,0.23283 -0.37596,0.33443 -0.61094,0.33443 -0.22216,0 -0.39733,-0.11006 -0.48705,-0.30903 -0.0726,-0.15663 -0.11535,-0.3556 -0.11535,-0.55456 0,-0.19051 0.0385,-0.38947 0.11108,-0.54187 0.0982,-0.2159 0.2777,-0.33021 0.52123,-0.33021 0.20507,0 0.34606,0.0635 0.58103,0.25401 z m 1.46115,0.008 c -0.15807,0 -0.28197,0.11853 -0.28197,0.27093 0,0.1524 0.1239,0.27516 0.2777,0.27516 0.14954,0 0.27343,-0.12276 0.27343,-0.27516 0,-0.14817 -0.12389,-0.27093 -0.26916,-0.27093 z m 0.0641,-0.24554 v -0.13123 c -0.004,-0.13546 0.0341,-0.48259 0.0726,-0.6731 l 0.11963,-0.57573 c 0.0385,-0.2032 0.0598,-0.34289 0.0598,-0.4318 0,-0.24553 -0.11536,-0.38946 -0.30761,-0.38946 -0.20508,0 -0.30762,0.13969 -0.30762,0.42756 0,0.0932 0,0.0932 0.0512,0.381 l 0.094,0.55457 c 0.0299,0.1651 0.0683,0.57996 0.0641,0.70273 v 0.13546 z"
       id="text1"
       aria-label="Democracy threatened!&#10;" />
  </g>
  <g
     inkscape:groupmode="layer"
     id="layer3"
     inkscape:label="cut"
     style="display:inline"
     transform="translate(-80.004693,-123.445)">
    <path
       id="rect6"
       style="fill:none;stroke:#000000;stroke-width:0.11;stroke-linejoin:round;stroke-dasharray:none"
       d="m 80.059693,123.5 h 49.999997 v 50 H 80.059693 Z" />
  </g>
</svg>
