<?xml version="1.0" encoding="UTF-8" standalone="no"?>
<!-- Created with Inkscape (http://www.inkscape.org/) -->

<svg
   width="50.110001mm"
   height="50.110001mm"
   viewBox="0 0 50.110001 50.110001"
   version="1.1"
   id="svg1"
   inkscape:version="1.4.2 (ebf0e940d0, 2025-05-08)"
   sodipodi:docname="resist-fascism.svg"
   xmlns:inkscape="http://www.inkscape.org/namespaces/inkscape"
   xmlns:sodipodi="http://sodipodi.sourceforge.net/DTD/sodipodi-0.dtd"
   xmlns="http://www.w3.org/2000/svg"
   xmlns:svg="http://www.w3.org/2000/svg">
  <sodipodi:namedview
     id="namedview1"
     pagecolor="#ffffff"
     bordercolor="#000000"
     borderopacity="0.25"
     inkscape:showpageshadow="2"
     inkscape:pageopacity="0.0"
     inkscape:pagecheckerboard="0"
     inkscape:deskcolor="#d1d1d1"
     inkscape:document-units="mm"
     showgrid="false"
     inkscape:zoom="4.4324258"
     inkscape:cx="94.643434"
     inkscape:cy="96.78673"
     inkscape:window-width="1896"
     inkscape:window-height="1032"
     inkscape:window-x="0"
     inkscape:window-y="0"
     inkscape:window-maximized="1"
     inkscape:current-layer="layer1" />
  <defs
     id="defs1" />
  <g
     inkscape:label="engrave"
     inkscape:groupmode="layer"
     id="layer1"
     transform="translate(-80.004693,-123.445)">
    <text
       xml:space="preserve"
       style="font-style:normal;font-variant:normal;font-weight:normal;font-stretch:normal;font-size:4.35715px;font-family:Sans;-inkscape-font-specification:'Sans, Normal';font-variant-ligatures:normal;font-variant-caps:normal;font-variant-numeric:normal;font-variant-east-asian:normal;text-align:center;letter-spacing:0px;word-spacing:0px;writing-mode:lr-tb;direction:ltr;text-anchor:middle;fill:#000000;stroke:#000000;stroke-width:0.1;stroke-linejoin:round;stroke-dasharray:none"
       x="-144.25131"
       y="86.840179"
       id="text3"
       transform="matrix(0,-1.0292506,0.9715807,0,0,0)"><tspan
         sodipodi:role="line"
         id="tspan3"
         style="font-style:normal;font-variant:normal;font-weight:normal;font-stretch:normal;font-size:4.35715px;font-family:'URW Bookman';-inkscape-font-specification:'URW Bookman';fill:#000000;stroke-width:0.1;stroke-dasharray:none"
         x="-144.25131"
         y="86.840179">What will you do?</tspan></text>
    <text
       xml:space="preserve"
       style="font-style:normal;font-variant:normal;font-weight:normal;font-stretch:normal;font-size:4.65604px;font-family:Sans;-inkscape-font-specification:Sans;font-variant-ligatures:normal;font-variant-caps:normal;font-variant-numeric:normal;font-variant-east-asian:normal;text-align:center;letter-spacing:0px;word-spacing:0px;writing-mode:lr-tb;direction:ltr;text-anchor:middle;fill:#000000;stroke:#000000;stroke-width:0.1;stroke-linejoin:round;stroke-dasharray:none"
       x="135.07867"
       y="-138.0845"
       id="text6"
       transform="matrix(0,1.0998522,-0.90921305,0,0,0)"><tspan
         sodipodi:role="line"
         id="tspan6"
         style="font-style:normal;font-variant:normal;font-weight:normal;font-stretch:normal;font-size:4.65604px;font-family:'URW Bookman';-inkscape-font-specification:'URW Bookman';letter-spacing:0px;fill:#000000;stroke-width:0.1;stroke-dasharray:none"
         x="135.07867"
         y="-138.0845">Are you awake?</tspan></text>
    <text
       xml:space="preserve"
       style="font-style:normal;font-variant:normal;font-weight:normal;font-stretch:normal;font-size:19.6243px;font-family:Sans;-inkscape-font-specification:Sans;font-variant-ligatures:normal;font-variant-caps:normal;font-variant-numeric:normal;font-variant-east-asian:normal;text-align:center;letter-spacing:0px;word-spacing:0px;writing-mode:lr-tb;direction:ltr;text-anchor:middle;fill:#000000;stroke:#000000;stroke-width:0.499498;stroke-linejoin:round;stroke-dasharray:none"
       x="204.50484"
       y="80.474678"
       id="text7"
       transform="scale(0.51422932,1.9446577)"><tspan
         sodipodi:role="line"
         id="tspan7"
         style="font-style:normal;font-variant:normal;font-weight:normal;font-stretch:normal;font-family:'Source Code Pro';-inkscape-font-specification:'Source Code Pro';stroke-width:0.499498;stroke-dasharray:none"
         x="204.50484"
         y="80.474678">RESIST</tspan></text>
    <text
       xml:space="preserve"
       style="font-style:normal;font-variant:normal;font-weight:normal;font-stretch:normal;font-size:8.66439px;font-family:Sans;-inkscape-font-specification:Sans;font-variant-ligatures:normal;font-variant-caps:normal;font-variant-numeric:normal;font-variant-east-asian:normal;text-align:center;letter-spacing:0px;word-spacing:0px;writing-mode:lr-tb;direction:ltr;text-anchor:middle;fill:#000000;stroke:#000000;stroke-width:0.499497;stroke-linejoin:round;stroke-dasharray:none"
       x="106.47364"
       y="163.36488"
       id="text8"
       transform="scale(0.98352401,1.016752)"><tspan
         sodipodi:role="line"
         id="tspan8"
         style="font-style:normal;font-variant:normal;font-weight:normal;font-stretch:normal;font-family:'Source Code Pro';-inkscape-font-specification:'Source Code Pro';stroke-width:0.499497;stroke-dasharray:none"
         x="106.47364"
         y="163.36488">FASCISM</tspan></text>
  </g>
  <g
     inkscape:groupmode="layer"
     id="layer3"
     inkscape:label="cut"
     style="display:inline"
     transform="translate(-80.004693,-123.445)">
    <g
       id="g6"
       transform="translate(0.05969267,-60.808518)"
       style="stroke-width:0.11;stroke-dasharray:none">
      <path
         style="font-size:4.25279px;font-family:'URW Bookman';-inkscape-font-specification:'URW Bookman';text-align:center;letter-spacing:0px;word-spacing:0px;text-anchor:middle;stroke:#000000;stroke-linejoin:round"
         d="m 80.689505,189.36568 h 1.297101 c 0.659182,0 1.012164,-0.0936 1.309859,-0.35298 0.284937,-0.24667 0.459301,-0.65493 0.459301,-1.07171 0,-0.40401 -0.165858,-0.82504 -0.425279,-1.0717 -0.293442,-0.27643 -0.70171,-0.39976 -1.343881,-0.39976 h -1.297101 v 0.13183 l 0.10632,0.0128 c 0.221145,0.0255 0.272178,0.11057 0.276431,0.46781 v 1.67135 c -0.0043,0.35723 -0.05529,0.44229 -0.276431,0.4678 l -0.10632,0.0128 z m 0.80803,-2.33053 c 0,-0.16161 0.01276,-0.24241 0.05103,-0.28494 0.05103,-0.0638 0.238157,-0.10632 0.455049,-0.10632 0.463554,0 0.80803,0.1531 1.016417,0.4508 0.1531,0.21264 0.233903,0.50183 0.233903,0.81653 0,0.34448 -0.09781,0.66344 -0.272178,0.88033 -0.204134,0.25942 -0.54861,0.39976 -0.978142,0.39976 -0.21264,0 -0.387004,-0.0383 -0.446543,-0.0936 -0.04678,-0.0425 -0.05954,-0.11057 -0.05954,-0.28068 z m 4.41014,1.76916 c -0.157353,0.28068 -0.348729,0.40827 -0.616655,0.40827 -0.301948,0 -0.51884,-0.14885 -0.633665,-0.43804 -0.06379,-0.14885 -0.08506,-0.33597 -0.08506,-0.63792 h 1.475718 c -0.0043,-0.24666 -0.05954,-0.39976 -0.199881,-0.56137 -0.170112,-0.19988 -0.429532,-0.31045 -0.727227,-0.31045 -0.582632,0 -1.003659,0.43804 -1.003659,1.05044 0,0.28493 0.10632,0.56987 0.280685,0.7655 0.191375,0.21689 0.450795,0.32321 0.769755,0.32321 0.391256,0 0.663435,-0.1616 0.880327,-0.5316 z m -1.322618,-0.8378 c 0.02977,-0.17862 0.05529,-0.25517 0.123331,-0.34448 0.08931,-0.12333 0.221145,-0.18712 0.391257,-0.18712 0.310454,0 0.506082,0.20413 0.506082,0.5316 z m 3.797744,-0.18712 c 0.25942,-0.2169 0.429532,-0.29345 0.62516,-0.29345 0.221145,0 0.33597,0.15736 0.33597,0.46356 v 0.92711 c 0,0.2339 -0.07655,0.33597 -0.263673,0.35298 l -0.07655,0.008 v 0.12759 h 1.114231 v -0.12759 l -0.10632,-0.008 c -0.187122,-0.017 -0.263673,-0.11908 -0.263673,-0.35298 v -1.04194 c 0,-0.35723 -0.208386,-0.56987 -0.565621,-0.56987 -0.284936,0 -0.501829,0.0936 -0.80803,0.35298 -0.114825,-0.25517 -0.276431,-0.35298 -0.582632,-0.35298 -0.301948,0 -0.501829,0.085 -0.774008,0.32321 v -0.28494 H 86.87306 c -0.246661,0.0468 -0.378498,0.0638 -0.629412,0.0851 v 0.12758 l 0.08931,0.009 c 0.225398,0.0255 0.280684,0.0936 0.280684,0.35298 v 0.99941 c 0,0.2339 -0.07655,0.33597 -0.263673,0.35298 l -0.106319,0.008 v 0.12759 h 1.114231 v -0.12759 l -0.07655,-0.008 c -0.187122,-0.017 -0.263673,-0.11908 -0.263673,-0.35298 v -1.09722 c 0.246662,-0.21264 0.412521,-0.29345 0.612402,-0.29345 0.242409,0 0.348729,0.14035 0.348729,0.4508 v 0.93987 c 0,0.2339 -0.07655,0.33597 -0.263673,0.35298 l -0.08931,0.008 v 0.12759 h 1.109978 v -0.12759 l -0.08931,-0.008 c -0.187123,-0.017 -0.263673,-0.11908 -0.263673,-0.35298 z m 2.972702,-0.51459 c -0.297695,0 -0.561368,0.0978 -0.73148,0.27643 -0.178617,0.18712 -0.297695,0.50183 -0.297695,0.79952 0,0.64218 0.41252,1.0632 1.046186,1.0632 0.616655,0 1.033428,-0.42528 1.033428,-1.05469 0,-0.27643 -0.09781,-0.55712 -0.255167,-0.75274 -0.178618,-0.21264 -0.463554,-0.33172 -0.795272,-0.33172 z m 0.0043,0.17011 c 0.382751,0 0.612401,0.34873 0.612401,0.93561 0,0.54011 -0.221145,0.86332 -0.59539,0.86332 -0.39551,0 -0.616655,-0.32746 -0.616655,-0.90159 0,-0.54436 0.233904,-0.89734 0.599644,-0.89734 z m 3.185337,1.39492 c -0.238156,0.30194 -0.41252,0.40401 -0.67194,0.40401 -0.442291,0 -0.73148,-0.34873 -0.73148,-0.88033 0,-0.23815 0.04253,-0.44654 0.123331,-0.6124 0.09781,-0.20413 0.263673,-0.3062 0.497576,-0.3062 0.221145,0 0.421026,0.13184 0.421026,0.28068 l -0.0043,0.14885 c 0,0.12333 0.08931,0.21689 0.216893,0.21689 0.123331,0 0.216892,-0.0978 0.216892,-0.22965 0,-0.14459 -0.08931,-0.28919 -0.242409,-0.40401 -0.170112,-0.12333 -0.369993,-0.18287 -0.62516,-0.18287 -0.310454,0 -0.557116,0.0936 -0.735733,0.27643 -0.191375,0.19988 -0.301948,0.48907 -0.301948,0.79527 0,0.63792 0.421026,1.06745 1.046186,1.06745 0.408268,0 0.693205,-0.1531 0.91435,-0.49757 z m 1.088716,-1.52676 h -0.144595 c -0.263673,0.051 -0.404015,0.068 -0.642171,0.0851 v 0.12758 l 0.102067,0.009 c 0.225398,0.0255 0.280684,0.0936 0.280684,0.35298 v 0.99941 c 0,0.2339 -0.07655,0.33597 -0.263673,0.35298 l -0.106319,0.008 v 0.12759 h 1.144 v -0.12759 l -0.10632,-0.008 c -0.187122,-0.017 -0.263673,-0.11908 -0.263673,-0.35298 v -1.04194 c 0.153101,-0.17011 0.267926,-0.23815 0.391257,-0.23815 0.0723,0 0.102067,0.0128 0.178617,0.068 0.07655,0.051 0.140342,0.0723 0.221145,0.0723 0.136089,0 0.238156,-0.0978 0.238156,-0.23391 0,-0.14034 -0.127583,-0.23815 -0.310453,-0.23815 -0.09781,0 -0.199881,0.0213 -0.301948,0.068 -0.102067,0.0425 -0.123331,0.0595 -0.327465,0.23391 -0.01276,0.008 -0.04678,0.0425 -0.08931,0.0765 z m 2.589956,0.85481 c -0.03402,0.004 -0.102067,0.0128 -0.204134,0.0213 -0.267926,0.0298 -0.361487,0.0425 -0.514588,0.085 -0.472059,0.11908 -0.714468,0.32747 -0.714468,0.61241 0,0.3062 0.276431,0.52734 0.654929,0.52734 0.28919,0 0.493324,-0.085 0.778261,-0.32746 0.0808,0.22965 0.225398,0.32746 0.476312,0.32746 0.18287,0 0.31896,-0.051 0.438038,-0.16586 l -0.0808,-0.11057 c -0.0723,0.0638 -0.119078,0.0851 -0.191376,0.0851 -0.08931,0 -0.165859,-0.0425 -0.199881,-0.11908 -0.02977,-0.0595 -0.03827,-0.11483 -0.03827,-0.2977 v -0.90159 c 0,-0.25517 -0.06804,-0.387 -0.242409,-0.48482 -0.157353,-0.0893 -0.374246,-0.14459 -0.574127,-0.14459 -0.493323,0 -0.927108,0.25517 -0.927108,0.5401 0,0.10207 0.09356,0.18713 0.204134,0.18713 0.119078,0 0.216892,-0.0978 0.216892,-0.2169 l -0.0043,-0.11907 c 0,-0.12334 0.191375,-0.22115 0.429531,-0.22115 0.301948,0 0.493324,0.1446 0.493324,0.38275 z m 0,0.72723 c -0.242409,0.2254 -0.416773,0.31471 -0.633666,0.31471 -0.199881,0 -0.36574,-0.16161 -0.36574,-0.36149 0,-0.28919 0.357235,-0.47631 0.999406,-0.5316 z m 2.879135,-0.0553 c -0.23815,0.30194 -0.41252,0.40401 -0.67194,0.40401 -0.442288,0 -0.731478,-0.34873 -0.731478,-0.88033 0,-0.23815 0.04253,-0.44654 0.123331,-0.6124 0.09781,-0.20413 0.263677,-0.3062 0.497577,-0.3062 0.22114,0 0.42103,0.13184 0.42103,0.28068 l -0.004,0.14885 c 0,0.12333 0.0893,0.21689 0.2169,0.21689 0.12333,0 0.21689,-0.0978 0.21689,-0.22965 0,-0.14459 -0.0893,-0.28919 -0.24241,-0.40401 -0.17011,-0.12333 -0.36999,-0.18287 -0.62516,-0.18287 -0.310455,0 -0.557117,0.0936 -0.735734,0.27643 -0.191376,0.19988 -0.301948,0.48907 -0.301948,0.79527 0,0.63792 0.421026,1.06745 1.046182,1.06745 0.40827,0 0.69321,-0.1531 0.91435,-0.49757 z m 1.42894,0.13608 -0.5316,-1.29284 c -0.0128,-0.0298 -0.017,-0.0553 -0.017,-0.0851 0,-0.0893 0.0638,-0.13609 0.22965,-0.15735 v -0.12759 h -0.9909 v 0.13184 c 0.20839,0.0298 0.25942,0.0723 0.34023,0.26793 l 0.76125,1.77766 -0.10632,0.24666 c -0.034,0.0893 -0.10207,0.19989 -0.17437,0.28069 -0.0595,0.0723 -0.11482,0.10632 -0.18287,0.10632 -0.0425,0 -0.085,-0.0255 -0.14034,-0.0808 -0.11057,-0.11907 -0.14885,-0.14034 -0.2339,-0.14034 -0.12333,0 -0.2254,0.0978 -0.2254,0.20839 0,0.17011 0.17011,0.28919 0.39976,0.28919 0.17011,0 0.32321,-0.0723 0.46355,-0.21689 0.13184,-0.13609 0.22115,-0.28919 0.36149,-0.62516 l 0.73573,-1.72664 c 0.10207,-0.23815 0.20414,-0.33171 0.43379,-0.387 v -0.13184 h -0.93561 v 0.12759 c 0.22539,0.0425 0.28918,0.0851 0.28918,0.20838 0,0.0765 -0.0298,0.19138 -0.0808,0.32322 z m 3.89981,-1.66284 h -0.60815 v -0.774 h -0.1616 c 0.004,0.52309 -0.18287,0.75699 -0.59964,0.774 v 0.14035 h 0.35723 v 1.42468 c 0,0.20839 0.0595,0.34022 0.19563,0.42528 0.11057,0.0723 0.25942,0.11057 0.41252,0.11057 0.25091,0 0.44654,-0.0978 0.59964,-0.29769 l -0.11482,-0.0936 c -0.1446,0.16585 -0.24241,0.22114 -0.37,0.22114 -0.21689,0 -0.31896,-0.17436 -0.31896,-0.56137 v -1.22905 h 0.60815 z m 1.09722,-0.98664 h -0.17011 c -0.2169,0.085 -0.31896,0.11057 -0.6039,0.14459 v 0.13184 l 0.0936,0.008 c 0.23391,0.0298 0.28069,0.11058 0.27643,0.47632 v 1.79893 c 0,0.2339 -0.0765,0.33597 -0.26367,0.35298 l -0.10632,0.008 v 0.12759 h 1.144 v -0.12759 l -0.10632,-0.008 c -0.18712,-0.017 -0.26367,-0.11908 -0.26367,-0.35298 v -1.05895 c 0.25091,-0.2339 0.48907,-0.34873 0.73573,-0.34873 0.24241,0 0.36574,0.1446 0.36574,0.42953 v 0.97815 c 0,0.2339 -0.0765,0.33597 -0.26367,0.35298 l -0.10632,0.008 v 0.12759 h 1.144 v -0.12759 l -0.10632,-0.008 c -0.18712,-0.017 -0.26367,-0.11908 -0.26367,-0.35298 v -1.00366 c 0,-0.26368 -0.0468,-0.38701 -0.19138,-0.48482 -0.11908,-0.0808 -0.28068,-0.12333 -0.47631,-0.12333 -0.2977,0 -0.56137,0.11057 -0.8378,0.35298 z m 2.8196,0.98664 h -0.1446 c -0.26367,0.051 -0.40401,0.068 -0.64217,0.0851 v 0.12758 l 0.10207,0.009 c 0.22539,0.0255 0.28068,0.0936 0.28068,0.35298 v 0.99941 c 0,0.2339 -0.0765,0.33597 -0.26367,0.35298 l -0.10632,0.008 v 0.12759 h 1.144 v -0.12759 l -0.10632,-0.008 c -0.18712,-0.017 -0.26367,-0.11908 -0.26367,-0.35298 v -1.04194 c 0.1531,-0.17011 0.26792,-0.23815 0.39125,-0.23815 0.0723,0 0.10207,0.0128 0.17862,0.068 0.0765,0.051 0.14034,0.0723 0.22115,0.0723 0.13608,0 0.23815,-0.0978 0.23815,-0.23391 0,-0.14034 -0.12758,-0.23815 -0.31045,-0.23815 -0.0978,0 -0.19988,0.0213 -0.30195,0.068 -0.10207,0.0425 -0.12333,0.0595 -0.32747,0.23391 -0.0127,0.008 -0.0468,0.0425 -0.0893,0.0765 z m 2.91741,1.50124 c -0.15735,0.28068 -0.34873,0.40827 -0.61665,0.40827 -0.30195,0 -0.51884,-0.14885 -0.63367,-0.43804 -0.0638,-0.14885 -0.085,-0.33597 -0.085,-0.63792 h 1.47572 c -0.004,-0.24666 -0.0595,-0.39976 -0.19989,-0.56137 -0.17011,-0.19988 -0.42953,-0.31045 -0.72722,-0.31045 -0.58264,0 -1.00366,0.43804 -1.00366,1.05044 0,0.28493 0.10632,0.56987 0.28068,0.7655 0.19138,0.21689 0.4508,0.32321 0.76976,0.32321 0.39125,0 0.66343,-0.1616 0.88033,-0.5316 z m -1.32261,-0.8378 c 0.0298,-0.17862 0.0553,-0.25517 0.12333,-0.34448 0.0893,-0.12333 0.22114,-0.18712 0.39125,-0.18712 0.31046,0 0.50609,0.20413 0.50609,0.5316 z m 3.17258,0.19137 c -0.034,0.004 -0.10207,0.0128 -0.20414,0.0213 -0.26792,0.0298 -0.36149,0.0425 -0.51459,0.085 -0.47206,0.11908 -0.71446,0.32747 -0.71446,0.61241 0,0.3062 0.27643,0.52734 0.65492,0.52734 0.28919,0 0.49333,-0.085 0.77827,-0.32746 0.0808,0.22965 0.22539,0.32746 0.47631,0.32746 0.18287,0 0.31896,-0.051 0.43804,-0.16586 l -0.0808,-0.11057 c -0.0723,0.0638 -0.11908,0.0851 -0.19137,0.0851 -0.0893,0 -0.16586,-0.0425 -0.19988,-0.11908 -0.0298,-0.0595 -0.0383,-0.11483 -0.0383,-0.2977 v -0.90159 c 0,-0.25517 -0.068,-0.387 -0.24241,-0.48482 -0.15735,-0.0893 -0.37424,-0.14459 -0.57413,-0.14459 -0.49332,0 -0.9271,0.25517 -0.9271,0.5401 0,0.10207 0.0936,0.18713 0.20413,0.18713 0.11908,0 0.21689,-0.0978 0.21689,-0.2169 l -0.004,-0.11907 c 0,-0.12334 0.19138,-0.22115 0.42953,-0.22115 0.30195,0 0.49333,0.1446 0.49333,0.38275 z m 0,0.72723 c -0.24241,0.2254 -0.41678,0.31471 -0.63367,0.31471 -0.19988,0 -0.36574,-0.16161 -0.36574,-0.36149 0,-0.28919 0.35723,-0.47631 0.99941,-0.5316 z m 2.24547,-1.58204 h -0.60815 v -0.774 h -0.1616 c 0.004,0.52309 -0.18287,0.75699 -0.59964,0.774 v 0.14035 h 0.35723 v 1.42468 c 0,0.20839 0.0595,0.34022 0.19563,0.42528 0.11057,0.0723 0.25942,0.11057 0.41252,0.11057 0.25091,0 0.44654,-0.0978 0.59964,-0.29769 l -0.11482,-0.0936 c -0.1446,0.16585 -0.24241,0.22114 -0.37,0.22114 -0.21689,0 -0.31896,-0.17436 -0.31896,-0.56137 v -1.22905 h 0.60815 z m 2.0541,1.50124 c -0.15736,0.28068 -0.34873,0.40827 -0.61666,0.40827 -0.30195,0 -0.51884,-0.14885 -0.63366,-0.43804 -0.0638,-0.14885 -0.0851,-0.33597 -0.0851,-0.63792 h 1.47572 c -0.004,-0.24666 -0.0595,-0.39976 -0.19988,-0.56137 -0.17012,-0.19988 -0.42954,-0.31045 -0.72723,-0.31045 -0.58263,0 -1.00366,0.43804 -1.00366,1.05044 0,0.28493 0.10632,0.56987 0.28069,0.7655 0.19137,0.21689 0.45079,0.32321 0.76975,0.32321 0.39126,0 0.66344,-0.1616 0.88033,-0.5316 z m -1.32262,-0.8378 c 0.0298,-0.17862 0.0553,-0.25517 0.12333,-0.34448 0.0893,-0.12333 0.22114,-0.18712 0.39126,-0.18712 0.31045,0 0.50608,0.20413 0.50608,0.5316 z m 2.45811,-0.66344 h -0.14459 c -0.26368,0.051 -0.40402,0.068 -0.64217,0.0851 v 0.12758 l 0.10206,0.009 c 0.2254,0.0255 0.28069,0.0936 0.28069,0.35298 v 0.99941 c 0,0.2339 -0.0765,0.33597 -0.26368,0.35298 l -0.10632,0.008 v 0.12759 h 1.144 v -0.12759 l -0.10631,-0.008 c -0.18713,-0.017 -0.26368,-0.11908 -0.26368,-0.35298 v -1.05044 c 0.26368,-0.23816 0.51459,-0.35724 0.75275,-0.35724 0.2339,0 0.36148,0.14885 0.36148,0.42528 v 0.9824 c 0,0.2339 -0.0808,0.33597 -0.26367,0.35298 l -0.10632,0.008 v 0.12759 h 1.144 v -0.12759 l -0.10632,-0.008 c -0.18712,-0.017 -0.26367,-0.11908 -0.26367,-0.35298 v -1.05044 c 0,-0.35298 -0.23816,-0.56137 -0.64217,-0.56137 -0.32747,0 -0.57413,0.10632 -0.87608,0.37424 z m 3.8828,1.50124 c -0.15736,0.28068 -0.34873,0.40827 -0.61666,0.40827 -0.30195,0 -0.51884,-0.14885 -0.63366,-0.43804 -0.0638,-0.14885 -0.0851,-0.33597 -0.0851,-0.63792 h 1.47572 c -0.004,-0.24666 -0.0595,-0.39976 -0.19988,-0.56137 -0.17011,-0.19988 -0.42953,-0.31045 -0.72723,-0.31045 -0.58263,0 -1.00366,0.43804 -1.00366,1.05044 0,0.28493 0.10632,0.56987 0.28069,0.7655 0.19137,0.21689 0.45079,0.32321 0.76975,0.32321 0.39126,0 0.66344,-0.1616 0.88033,-0.5316 z m -1.32262,-0.8378 c 0.0298,-0.17862 0.0553,-0.25517 0.12333,-0.34448 0.0893,-0.12333 0.22115,-0.18712 0.39126,-0.18712 0.31045,0 0.50608,0.20413 0.50608,0.5316 z m 3.38522,-0.47631 c -0.22965,-0.15736 -0.44654,-0.2254 -0.70596,-0.2254 -0.5316,0 -0.93562,0.46355 -0.93562,1.07595 0,0.26793 0.0893,0.54861 0.23391,0.73999 0.14885,0.19988 0.40827,0.32321 0.67194,0.32321 0.13609,0 0.28919,-0.034 0.42528,-0.0936 0.12333,-0.0553 0.18712,-0.0978 0.31045,-0.22965 v 0.28494 h 0.71447 v -0.12759 l -0.051,-0.008 c -0.18713,-0.0298 -0.25517,-0.12333 -0.25942,-0.35298 v -2.56018 h -0.17011 c -0.21264,0.085 -0.31046,0.10632 -0.59965,0.14459 v 0.13184 l 0.0893,0.008 c 0.2339,0.0298 0.28068,0.11058 0.27643,0.47632 z m 0,1.37365 c -0.19137,0.2339 -0.37424,0.33597 -0.60815,0.33597 -0.22114,0 -0.39551,-0.11057 -0.48482,-0.31046 -0.0723,-0.15735 -0.11482,-0.35723 -0.11482,-0.55711 0,-0.19138 0.0383,-0.39126 0.11057,-0.54436 0.0978,-0.21689 0.27643,-0.33172 0.51884,-0.33172 0.20414,0 0.34448,0.0638 0.57838,0.25517 z m 1.45446,0.008 c -0.15735,0 -0.28068,0.11908 -0.28068,0.27218 0,0.1531 0.12333,0.27643 0.27643,0.27643 0.14885,0 0.27218,-0.12333 0.27218,-0.27643 0,-0.14885 -0.12333,-0.27218 -0.26793,-0.27218 z m 0.0638,-0.24666 v -0.13184 c -0.004,-0.13608 0.034,-0.48481 0.0723,-0.67619 l 0.11908,-0.57838 c 0.0383,-0.20413 0.0595,-0.34447 0.0595,-0.43378 0,-0.24666 -0.11483,-0.39126 -0.3062,-0.39126 -0.20414,0 -0.30621,0.14034 -0.30621,0.42953 0,0.0936 0,0.0936 0.051,0.38275 l 0.0936,0.55712 c 0.0298,0.16586 0.068,0.58263 0.0638,0.70596 v 0.13609 z"
         id="text1"
         transform="scale(1.0045977,0.99542337)"
         aria-label="Democracy threatened!&#10;" />
      <path
         style="font-weight:300;font-size:4.46536px;font-family:'URW Bookman';-inkscape-font-specification:'URW Bookman Light';text-align:center;letter-spacing:0px;word-spacing:0px;text-anchor:middle;stroke:#000000;stroke-linejoin:round"
         d="m -136.12874,-217.19846 c -0.89753,0 -1.60753,0.69213 -1.60753,1.56734 0,0.902 0.68767,1.58967 1.58967,1.58967 0.49119,0 0.97345,-0.22327 1.26816,-0.58497 0.21881,-0.26792 0.33044,-0.60282 0.33044,-0.98237 0,-0.91987 -0.66534,-1.58967 -1.58074,-1.58967 z m -0.009,0.21433 c 0.65195,0 1.06276,0.54031 1.06276,1.40213 0,0.80823 -0.41975,1.32621 -1.06722,1.32621 -0.65195,0 -1.06722,-0.53138 -1.06722,-1.37087 0,-0.82162 0.42421,-1.35747 1.07168,-1.35747 z m 3.8804,2.88463 h 0.81269 v -0.13396 l -0.11163,-0.009 c -0.19648,-0.0179 -0.27685,-0.12503 -0.27685,-0.37063 v -1.65218 h -0.15183 c -0.23219,0.0536 -0.3215,0.0625 -0.67427,0.0893 v 0.13397 l 0.10717,0.009 c 0.23667,0.0268 0.29472,0.0982 0.29472,0.37062 v 0.99578 c -0.30365,0.26345 -0.55817,0.39295 -0.78144,0.39295 -0.28132,0 -0.40635,-0.15182 -0.40635,-0.49119 v -1.50036 h -0.15182 c -0.2322,0.0536 -0.33044,0.067 -0.67427,0.0893 v 0.13397 l 0.10717,0.009 c 0.23666,0.0268 0.29471,0.0982 0.29471,0.37062 v 0.93326 c 0,0.22327 0.0402,0.3483 0.14289,0.4644 0.12057,0.13843 0.29025,0.20541 0.52245,0.20541 0.32151,0 0.56264,-0.10717 0.94666,-0.41528 z m 1.84866,-2.1657 h -0.15182 c -0.27686,0.0536 -0.42421,0.0714 -0.67427,0.0893 v 0.13397 l 0.10717,0.009 c 0.23666,0.0268 0.29471,0.0982 0.29471,0.37062 v 1.04936 c 0,0.2456 -0.0804,0.35276 -0.27685,0.37063 l -0.11164,0.009 v 0.13396 h 1.20118 v -0.13396 l -0.11163,-0.009 c -0.19648,-0.0179 -0.27685,-0.12503 -0.27685,-0.37063 v -1.09401 c 0.16075,-0.17862 0.28132,-0.25006 0.41081,-0.25006 0.0759,0 0.10717,0.0134 0.18755,0.0714 0.0804,0.0536 0.14735,0.0759 0.2322,0.0759 0.14289,0 0.25006,-0.1027 0.25006,-0.24559 0,-0.14736 -0.13397,-0.25006 -0.32598,-0.25006 -0.1027,0 -0.20987,0.0223 -0.31704,0.0714 -0.10717,0.0446 -0.12949,0.0625 -0.34383,0.24559 -0.0134,0.009 -0.0491,0.0446 -0.0938,0.0804 z m 2.95607,0.14735 v 1.50483 c 0,0.2456 -0.0804,0.35276 -0.27685,0.37063 l -0.11164,0.009 v 0.13396 h 1.20118 v -0.13396 l -0.11163,-0.009 c -0.19648,-0.0179 -0.27685,-0.12503 -0.27685,-0.37063 v -1.50483 h 0.44207 v -0.14735 h -0.44207 v -0.47333 c 0,-0.16968 0.0312,-0.26792 0.1027,-0.34383 0.058,-0.0625 0.14736,-0.10271 0.22327,-0.10271 0.0759,0 0.14736,0.0447 0.20987,0.1295 0.0625,0.0848 0.12503,0.12503 0.20541,0.12503 0.10717,0 0.2054,-0.0893 0.2054,-0.19201 0,-0.14736 -0.16075,-0.25453 -0.38402,-0.25453 -0.26345,0 -0.54924,0.10271 -0.74125,0.25899 -0.18308,0.15183 -0.24559,0.31704 -0.24559,0.64302 v 0.20987 h -0.37509 v 0.14735 z m 3.12128,2.01835 h 0.8127 v -0.13396 l -0.11164,-0.009 c -0.19647,-0.0179 -0.27685,-0.12503 -0.27685,-0.37063 v -1.65218 h -0.15182 c -0.2322,0.0536 -0.32151,0.0625 -0.67427,0.0893 v 0.13397 l 0.10717,0.009 c 0.23666,0.0268 0.29471,0.0982 0.29471,0.37062 v 0.99578 c -0.30364,0.26345 -0.55817,0.39295 -0.78144,0.39295 -0.28132,0 -0.40635,-0.15182 -0.40635,-0.49119 v -1.50036 h -0.15182 c -0.2322,0.0536 -0.33043,0.067 -0.67427,0.0893 v 0.13397 l 0.10717,0.009 c 0.23667,0.0268 0.29472,0.0982 0.29472,0.37062 v 0.93326 c 0,0.22327 0.0402,0.3483 0.14289,0.4644 0.12056,0.13843 0.29025,0.20541 0.52244,0.20541 0.32151,0 0.56264,-0.10717 0.94666,-0.41528 z m 2.46041,-2.1657 h -0.63854 v -0.8127 h -0.16969 c 0.004,0.54924 -0.19201,0.79484 -0.62961,0.8127 v 0.14735 h 0.37509 v 1.4959 c 0,0.2188 0.0625,0.35723 0.20541,0.44654 0.11609,0.0759 0.27238,0.1161 0.43314,0.1161 0.26345,0 0.46886,-0.10271 0.62961,-0.31258 l -0.12056,-0.0982 c -0.15183,0.17415 -0.25453,0.2322 -0.38849,0.2322 -0.22773,0 -0.3349,-0.18308 -0.3349,-0.58943 v -1.29049 h 0.63854 z m 2.29519,2.1657 h 0.8127 v -0.13396 l -0.11164,-0.009 c -0.19647,-0.0179 -0.27685,-0.12503 -0.27685,-0.37063 v -1.65218 h -0.15182 c -0.2322,0.0536 -0.32151,0.0625 -0.67427,0.0893 v 0.13397 l 0.10717,0.009 c 0.23666,0.0268 0.29471,0.0982 0.29471,0.37062 v 0.99578 c -0.30364,0.26345 -0.55817,0.39295 -0.78143,0.39295 -0.28132,0 -0.40635,-0.15182 -0.40635,-0.49119 v -1.50036 h -0.15182 c -0.2322,0.0536 -0.33044,0.067 -0.67427,0.0893 v 0.13397 l 0.10716,0.009 c 0.23667,0.0268 0.29472,0.0982 0.29472,0.37062 v 0.93326 c 0,0.22327 0.0402,0.3483 0.14289,0.4644 0.12056,0.13843 0.29025,0.20541 0.52245,0.20541 0.3215,0 0.56263,-0.10717 0.94665,-0.41528 z m 1.84866,-2.1657 h -0.15182 c -0.27685,0.0536 -0.42421,0.0714 -0.67427,0.0893 v 0.13397 l 0.10717,0.009 c 0.23666,0.0268 0.29471,0.0982 0.29471,0.37062 v 1.04936 c 0,0.2456 -0.0804,0.35276 -0.27685,0.37063 l -0.11163,0.009 v 0.13396 h 1.20118 v -0.13396 l -0.11163,-0.009 c -0.19648,-0.0179 -0.27686,-0.12503 -0.27686,-0.37063 v -1.09401 c 0.16076,-0.17862 0.28132,-0.25006 0.41082,-0.25006 0.0759,0 0.10716,0.0134 0.18754,0.0714 0.0804,0.0536 0.14736,0.0759 0.2322,0.0759 0.14289,0 0.25006,-0.1027 0.25006,-0.24559 0,-0.14736 -0.13396,-0.25006 -0.32597,-0.25006 -0.1027,0 -0.20987,0.0223 -0.31704,0.0714 -0.10717,0.0446 -0.1295,0.0625 -0.34383,0.24559 -0.0134,0.009 -0.0491,0.0446 -0.0938,0.0804 z m 3.06324,1.57627 c -0.16522,0.29471 -0.36616,0.42867 -0.64747,0.42867 -0.31704,0 -0.54478,-0.15628 -0.66534,-0.45993 -0.067,-0.15629 -0.0893,-0.35276 -0.0893,-0.6698 h 1.54948 c -0.004,-0.25899 -0.0625,-0.41975 -0.20987,-0.58943 -0.17862,-0.20987 -0.451,-0.32597 -0.76358,-0.32597 -0.61175,0 -1.05382,0.45993 -1.05382,1.10294 0,0.29918 0.11163,0.59836 0.29471,0.80377 0.20094,0.22773 0.47333,0.33937 0.80823,0.33937 0.41081,0 0.6966,-0.16969 0.92433,-0.55817 z m -1.38872,-0.87968 c 0.0312,-0.18754 0.0581,-0.26792 0.12949,-0.36169 0.0938,-0.1295 0.2322,-0.19648 0.41081,-0.19648 0.32598,0 0.53138,0.21434 0.53138,0.55817 z m 3.50977,-0.67873 h -0.12503 l -0.0447,0.16075 c -0.19202,-0.15182 -0.38403,-0.2188 -0.63855,-0.2188 -0.45993,0 -0.81716,0.28578 -0.81716,0.65194 0,0.28132 0.19201,0.44654 0.66534,0.5671 l 0.57156,0.14289 c 0.22327,0.058 0.32597,0.15183 0.32597,0.29472 0,0.23666 -0.24559,0.41081 -0.57603,0.41081 -0.27685,0 -0.54924,-0.12056 -0.71446,-0.3215 -0.0804,-0.0938 -0.12503,-0.18308 -0.18754,-0.35277 h -0.15182 l 0.15182,0.79484 h 0.14736 l 0.0491,-0.18755 c 0.24112,0.18308 0.4242,0.2456 0.71892,0.2456 0.53584,0 0.92879,-0.30811 0.92879,-0.72339 0,-0.30365 -0.17861,-0.48226 -0.5671,-0.57603 l -0.62068,-0.15183 c -0.11164,-0.0268 -0.16076,-0.0446 -0.20987,-0.067 -0.0849,-0.0446 -0.13843,-0.12503 -0.13843,-0.21433 0,-0.19201 0.18754,-0.33491 0.451,-0.33491 0.33937,0 0.63408,0.21434 0.78144,0.5671 h 0.14289 z m 3.54103,0.87968 c -0.0357,0.004 -0.10717,0.0134 -0.21434,0.0223 -0.28132,0.0313 -0.37955,0.0447 -0.54031,0.0893 -0.49565,0.12503 -0.75018,0.34383 -0.75018,0.64301 0,0.32151 0.29025,0.55371 0.68767,0.55371 0.30364,0 0.51798,-0.0893 0.81716,-0.34384 0.0848,0.24113 0.23666,0.34384 0.50012,0.34384 0.19201,0 0.3349,-0.0536 0.45993,-0.17415 l -0.0848,-0.1161 c -0.0759,0.067 -0.12503,0.0893 -0.20094,0.0893 -0.0938,0 -0.17415,-0.0447 -0.20987,-0.12503 -0.0313,-0.0625 -0.0402,-0.12056 -0.0402,-0.31257 v -0.94666 c 0,-0.26792 -0.0714,-0.40634 -0.25453,-0.50905 -0.16522,-0.0938 -0.39295,-0.15182 -0.60282,-0.15182 -0.51798,0 -0.97345,0.26792 -0.97345,0.5671 0,0.10717 0.0982,0.19648 0.21434,0.19648 0.12503,0 0.22773,-0.10271 0.22773,-0.22774 l -0.004,-0.12503 c 0,-0.12949 0.20094,-0.2322 0.451,-0.2322 0.31704,0 0.51798,0.15183 0.51798,0.40189 z m 0,0.76357 c -0.25453,0.23667 -0.43761,0.33044 -0.66534,0.33044 -0.20987,0 -0.38402,-0.16969 -0.38402,-0.37956 0,-0.30364 0.37509,-0.50012 1.04936,-0.55817 z m 1.84419,-1.66111 h -0.15182 c -0.27685,0.0536 -0.42421,0.0714 -0.67427,0.0893 v 0.13397 l 0.10717,0.009 c 0.23666,0.0268 0.29471,0.0982 0.29471,0.37062 v 1.04936 c 0,0.2456 -0.0804,0.35276 -0.27685,0.37063 l -0.11163,0.009 v 0.13396 h 1.20118 v -0.13396 l -0.11164,-0.009 c -0.19647,-0.0179 -0.27685,-0.12503 -0.27685,-0.37063 v -1.09401 c 0.16076,-0.17862 0.28132,-0.25006 0.41082,-0.25006 0.0759,0 0.10716,0.0134 0.18754,0.0714 0.0804,0.0536 0.14736,0.0759 0.2322,0.0759 0.14289,0 0.25006,-0.1027 0.25006,-0.24559 0,-0.14736 -0.13396,-0.25006 -0.32597,-0.25006 -0.1027,0 -0.20987,0.0223 -0.31704,0.0714 -0.10717,0.0446 -0.1295,0.0625 -0.34383,0.24559 -0.0134,0.009 -0.0491,0.0446 -0.0938,0.0804 z m 3.06324,1.57627 c -0.16522,0.29471 -0.36616,0.42867 -0.64747,0.42867 -0.31705,0 -0.54478,-0.15628 -0.66534,-0.45993 -0.067,-0.15629 -0.0893,-0.35276 -0.0893,-0.6698 h 1.54948 c -0.004,-0.25899 -0.0625,-0.41975 -0.20987,-0.58943 -0.17862,-0.20987 -0.451,-0.32597 -0.76358,-0.32597 -0.61175,0 -1.05382,0.45993 -1.05382,1.10294 0,0.29918 0.11163,0.59836 0.29471,0.80377 0.20094,0.22773 0.47333,0.33937 0.80823,0.33937 0.41081,0 0.6966,-0.16969 0.92433,-0.55817 z m -1.38872,-0.87968 c 0.0312,-0.18754 0.058,-0.26792 0.12949,-0.36169 0.0938,-0.1295 0.2322,-0.19648 0.41081,-0.19648 0.32598,0 0.53138,0.21434 0.53138,0.55817 z m 4.7556,0.20095 c -0.0357,0.004 -0.10716,0.0134 -0.21433,0.0223 -0.28132,0.0313 -0.37956,0.0447 -0.54031,0.0893 -0.49566,0.12503 -0.75018,0.34383 -0.75018,0.64301 0,0.32151 0.29025,0.55371 0.68766,0.55371 0.30365,0 0.51798,-0.0893 0.81716,-0.34384 0.0848,0.24113 0.23667,0.34384 0.50012,0.34384 0.19201,0 0.334906,-0.0536 0.459936,-0.17415 l -0.08484,-0.1161 c -0.07591,0.067 -0.125031,0.0893 -0.200945,0.0893 -0.0938,0 -0.17415,-0.0447 -0.20987,-0.12503 -0.0313,-0.0625 -0.0402,-0.12056 -0.0402,-0.31257 v -0.94666 c 0,-0.26792 -0.0714,-0.40634 -0.25452,-0.50905 -0.16522,-0.0938 -0.39295,-0.15182 -0.60283,-0.15182 -0.51798,0 -0.97344,0.26792 -0.97344,0.5671 0,0.10717 0.0982,0.19648 0.21433,0.19648 0.12503,0 0.22774,-0.10271 0.22774,-0.22774 l -0.004,-0.12503 c 0,-0.12949 0.20094,-0.2322 0.451,-0.2322 0.31704,0 0.51798,0.15183 0.51798,0.40189 z m 0,0.76357 c -0.25452,0.23667 -0.4376,0.33044 -0.66533,0.33044 -0.20988,0 -0.38403,-0.16969 -0.38403,-0.37956 0,-0.30364 0.37509,-0.50012 1.04936,-0.55817 z m 2.357716,-1.66111 h -0.638547 v -0.8127 h -0.169684 c 0.0045,0.54924 -0.19201,0.79484 -0.629615,0.8127 v 0.14735 h 0.37509 v 1.4959 c 0,0.2188 0.06252,0.35723 0.205407,0.44654 0.116099,0.0759 0.272387,0.1161 0.433139,0.1161 0.263457,0 0.468863,-0.10271 0.629616,-0.31258 l -0.120564,-0.0982 c -0.151823,0.17415 -0.254526,0.2322 -0.388487,0.2322 -0.227733,0 -0.334902,-0.18308 -0.334902,-0.58943 v -1.29049 h 0.638547 z m 2.513993,0 h -0.151822 c -0.276853,0.0536 -0.424209,0.0714 -0.67427,0.0893 v 0.13397 l 0.107169,0.009 c 0.236664,0.0268 0.294714,0.0982 0.294714,0.37062 v 1.04936 c 0,0.2456 -0.08038,0.35276 -0.276853,0.37063 l -0.111634,0.009 v 0.13396 h 1.201182 v -0.13396 l -0.111634,-0.009 c -0.196475,-0.0179 -0.276852,-0.12503 -0.276852,-0.37063 v -1.09401 c 0.160753,-0.17862 0.281318,-0.25006 0.410813,-0.25006 0.07591,0 0.107169,0.0134 0.187545,0.0714 0.08038,0.0536 0.147357,0.0759 0.232199,0.0759 0.142892,0 0.25006,-0.1027 0.25006,-0.24559 0,-0.14736 -0.133961,-0.25006 -0.325971,-0.25006 -0.102703,0 -0.209872,0.0223 -0.317041,0.0714 -0.107168,0.0446 -0.129495,0.0625 -0.343832,0.24559 -0.0134,0.009 -0.04912,0.0446 -0.09377,0.0804 z m 2.071931,0 h -0.151822 c -0.272387,0.0491 -0.419744,0.0714 -0.656408,0.0893 v 0.13397 l 0.08931,0.009 c 0.236664,0.0268 0.294714,0.0982 0.294714,0.37062 v 1.04936 c 0,0.2456 -0.08038,0.35276 -0.276852,0.37063 l -0.111634,0.009 v 0.13396 h 1.196716 v -0.13396 l -0.107169,-0.009 c -0.196475,-0.0179 -0.276852,-0.12503 -0.276852,-0.37063 z m -0.205406,-0.75465 c -0.151823,0 -0.272387,0.12057 -0.272387,0.26792 0,0.15183 0.120564,0.27239 0.272387,0.27239 0.147356,0 0.267921,-0.12056 0.267921,-0.27239 0,-0.14735 -0.120565,-0.26792 -0.267921,-0.26792 z m 2.513996,0.77251 h -0.12503 l -0.04465,0.16075 c -0.192011,-0.15182 -0.384021,-0.2188 -0.638547,-0.2188 -0.459932,0 -0.817161,0.28578 -0.817161,0.65194 0,0.28132 0.192011,0.44654 0.665339,0.5671 l 0.571566,0.14289 c 0.223268,0.058 0.325971,0.15183 0.325971,0.29472 0,0.23666 -0.245594,0.41081 -0.576031,0.41081 -0.276852,0 -0.549239,-0.12056 -0.714458,-0.3215 -0.08038,-0.0938 -0.12503,-0.18308 -0.187545,-0.35277 h -0.151822 l 0.151822,0.79484 h 0.147357 l 0.04912,-0.18755 c 0.24113,0.18308 0.424209,0.2456 0.718923,0.2456 0.535843,0 0.928795,-0.30811 0.928795,-0.72339 0,-0.30365 -0.178614,-0.48226 -0.567101,-0.57603 l -0.620685,-0.15183 c -0.111634,-0.0268 -0.160753,-0.0446 -0.209872,-0.067 -0.08484,-0.0446 -0.138426,-0.12503 -0.138426,-0.21433 0,-0.19201 0.187545,-0.33491 0.451001,-0.33491 0.339368,0 0.634082,0.21434 0.781438,0.5671 h 0.142892 z m 1.960291,0.6832 0.200941,-0.17862 c 0.267922,-0.23666 0.482259,-0.3349 0.857349,-0.38848 v -0.13396 h -1.187785 v 0.12949 c 0.174149,0.0134 0.25006,0.058 0.25006,0.14736 0,0.0536 -0.02233,0.0848 -0.120565,0.16968 l -0.696596,0.60729 v -2.08979 h -0.178615 c -0.227733,0.0893 -0.334902,0.1161 -0.634081,0.15183 v 0.13842 l 0.09824,0.009 c 0.245595,0.0313 0.294714,0.1161 0.290249,0.50012 v 1.88885 c 0,0.2456 -0.08038,0.35276 -0.276853,0.37063 l -0.111634,0.009 v 0.13396 h 1.201182 v -0.13396 l -0.116099,-0.009 c -0.187545,-0.0134 -0.267922,-0.12503 -0.272387,-0.37063 v -0.37062 l 0.361694,-0.30811 0.468863,0.67873 c 0.07145,0.1027 0.116099,0.20541 0.116099,0.27239 0,0.0581 -0.04465,0.0893 -0.129495,0.0982 l -0.120565,0.009 v 0.13396 h 1.205647 v -0.14289 c -0.205406,-0.0357 -0.37509,-0.15183 -0.540308,-0.37063 z m 1.821869,0.94666 c -0.165218,0 -0.294713,0.12503 -0.294713,0.28578 0,0.16075 0.129495,0.29025 0.290248,0.29025 0.156288,0 0.285783,-0.1295 0.285783,-0.29025 0,-0.15629 -0.129495,-0.28578 -0.281318,-0.28578 z m 0.06698,-0.259 v -0.13842 c -0.0045,-0.14289 0.03572,-0.50905 0.07591,-0.70999 l 0.12503,-0.60729 c 0.04019,-0.21434 0.06252,-0.3617 0.06252,-0.45547 0,-0.25899 -0.120565,-0.41081 -0.321506,-0.41081 -0.214337,0 -0.321506,0.14735 -0.321506,0.451 0,0.0982 0,0.0982 0.05358,0.40188 l 0.09824,0.58496 c 0.03126,0.17415 0.07145,0.61176 0.06698,0.74125 v 0.14289 z"
         id="text5"
         transform="scale(-0.9317009,-1.0733058)"
         aria-label="Our futures are at risk!" />
      <path
         id="rect6"
         style="fill:none;stroke:#000000;stroke-linejoin:round"
         d="m 80,184.30852 h 50 v 50 H 80 Z" />
    </g>
  </g>
</svg>
