<?xml version="1.0" encoding="UTF-8" standalone="no"?>
<!-- Created with Inkscape (http://www.inkscape.org/) -->

<svg
   width="50.813938mm"
   height="50mm"
   viewBox="0 0 50.813938 50"
   version="1.1"
   id="svg1"
   xml:space="preserve"
   inkscape:version="1.4.2 (ebf0e940d0, 2025-05-08)"
   sodipodi:docname="scroll.svg"
   xmlns:inkscape="http://www.inkscape.org/namespaces/inkscape"
   xmlns:sodipodi="http://sodipodi.sourceforge.net/DTD/sodipodi-0.dtd"
   xmlns="http://www.w3.org/2000/svg"
   xmlns:svg="http://www.w3.org/2000/svg"><sodipodi:namedview
     id="namedview1"
     pagecolor="#ffffff"
     bordercolor="#000000"
     borderopacity="0.25"
     inkscape:showpageshadow="2"
     inkscape:pageopacity="0.0"
     inkscape:pagecheckerboard="0"
     inkscape:deskcolor="#d1d1d1"
     inkscape:document-units="mm"
     showgrid="false"
     inkscape:zoom="6.3310806"
     inkscape:cx="121.70118"
     inkscape:cy="37.592319"
     inkscape:window-width="1896"
     inkscape:window-height="1032"
     inkscape:window-x="0"
     inkscape:window-y="0"
     inkscape:window-maximized="1"
     inkscape:current-layer="layer1" /><defs
     id="defs1" /><g
     inkscape:label="Layer 1"
     inkscape:groupmode="layer"
     id="layer1"
     transform="translate(-36.885716,-25.364781)"><path
       style="fill:#000000;stroke-width:1"
       d="m 62.292696,25.364781 h 25.40696 v 25 25 h -25.40696 -25.40698 v -25 -25 z m 0,49.95922 H 87.621738 V 50.364781 25.405561 H 62.292696 36.963665 v 24.95922 24.95922 z m -20.246057,-9.82873 c 0.252352,0 0.252423,-3e-4 0.101852,-0.42822 m -0.334329,-1.170153 c -0.583263,-1.65779 -0.819575,-2.162347 -1.10395,-3.050887 -0.516483,-1.61379 -1.198853,-4.03164 -1.323652,-4.69005 -0.04025,-0.21309 -0.16168,-0.80036 -0.269527,-1.30506 -0.256743,-1.20142 -0.50502,-3.1129 -0.595926,-4.58809 -0.07927,-1.28643 -0.07907,-1.40246 0.0061,-2.86144 l -7.8e-4,1e-5 c 0.0314,-0.54198 0.132401,-1.60642 0.224608,-2.36542 0.152686,-1.25687 0.226326,-1.70988 0.588537,-3.62306 0.314945,-1.6635 1.16931,-5.09033 1.879567,-7.53892 0.285229,-0.98333 0.283267,-1.012 -0.07348,-1.07021 -0.308278,-0.0503 -0.881764,-0.33706 -1.274576,-0.63731 -0.864538,-0.66083 -1.248529,-1.48197 -1.167593,-2.49678 0.0252,-0.31529 0.100205,-0.69899 0.16664,-0.85267 0.290574,-0.67188 1.124299,-1.38252 2.010077,-1.71327 1.324821,-0.49471 2.576999,-0.59155 4.890242,-0.37819 2.882086,0.26582 3.434636,0.31438 4.208512,0.36992 0.4501,0.0323 1.414549,0.10407 2.143241,0.15948 1.253681,0.0953 3.102435,0.2124 5.104789,0.32325 0.587602,0.0325 2.345469,0.0497 5.104758,0.0498 4.176469,2.2e-4 4.83829,-0.0145 7.364901,-0.16395 0.535803,-0.0317 1.377515,-0.0768 1.870451,-0.10031 1.160591,-0.0554 6.912749,-0.46226 8.098797,-0.57292 0.596698,-0.0557 1.603119,-0.0463 2.131472,0.0197 1.819373,0.22751 3.214632,1.22061 3.755973,2.67336 0.104504,0.28038 0.210411,0.63825 0.235421,0.79527 0.025,0.15701 0.06362,0.391 0.08577,0.51998 0.03557,0.20629 0.02358,0.23458 -0.0999,0.23514 -0.114128,5e-4 -0.119423,0.007 -0.02886,0.0375 0.116638,0.0386 0.09472,0.15401 -0.507367,2.69428 -0.103803,0.4374 -0.237901,1.06138 -0.298278,1.38662 -0.06037,0.32525 -0.199363,1.00429 -0.308878,1.50899 -0.249455,1.14946 -0.570579,2.83188 -0.673335,3.52772 -0.04299,0.2916 -0.147716,0.98899 -0.232413,1.54976 -0.676943,4.47801 -0.676862,9.33491 2.44e-4,14.21289 0.08567,0.61684 0.189963,1.36929 0.231691,1.6721 0.100713,0.72926 0.41954,2.55164 0.702828,4.01713 0.125704,0.65049 0.249273,1.31118 0.274548,1.4682 0.0252,0.15701 0.147523,0.77181 0.271651,1.36622 0.69418,3.3235 0.655978,3.07678 0.558608,3.60852 -0.177534,0.96991 -0.559512,1.72539 -1.165255,2.30502 -1.005893,0.96254 -2.414252,1.40355 -4.254275,1.33217 -0.66235,-0.0257 -0.790655,-0.0344 -3.011397,-0.20602 -1.865929,-0.14415 -4.692911,-0.34356 -5.260645,-0.37109 -0.25719,-0.0125 -1.274261,-0.0677 -2.260133,-0.12269 -2.71504,-0.15147 -4.392113,-0.19436 -7.598717,-0.19432 -3.054527,4e-5 -4.52742,0.0388 -6.741414,0.17724 -0.728692,0.0455 -1.647175,0.0996 -2.041064,0.11994 -0.75854,0.0392 -2.90737,0.20798 -5.167971,0.40574 -0.750125,0.0657 -1.521694,0.13075 -1.714574,0.14473 -0.1929,0.014 -0.732666,0.0626 -1.199453,0.10808 -1.135905,0.11063 -2.4129,0.0911 -3.20391,-0.049 -2.251474,-0.39883 -3.514231,-1.53774 -3.503235,-3.1596 0.0071,-1.11904 0.621282,-2.03449 1.759829,-2.6252 0.379417,-0.19685 1.770052,-0.370348 2.103483,-0.370348 M 39.166327,30.850101 c 0.06474,0.0897 0.328441,0.39552 0.585896,0.67954 0.384437,0.42413 0.55069,0.55938 0.930383,0.75684 0.68736,0.35746 0.873044,0.39003 2.944536,0.51643 5.864548,0.35785 10.25104,0.57896 13.599751,0.68554 2.445502,0.0778 8.616815,0.0664 10.780288,-0.0199 2.372229,-0.0947 8.434272,-0.46336 8.927745,-0.54294 0.0687,-0.0111 -0.001,-0.0589 -0.197219,-0.13272 -0.822535,-0.3118 -1.584887,-0.92673 -1.917017,-1.54631 -0.211935,-0.39539 -0.235055,-0.49764 -0.241864,-1.06933 -0.0061,-0.52531 0.02144,-0.69221 0.163967,-0.98764 0.342272,-0.70989 1.054956,-1.191169 1.712785,-1.62185 0.175183,-0.114693 0.541636,-0.24532 0.578283,-0.24532 0.03669,0 0.07294,-0.009 0.06667,-0.033 -0.126562,-0.484494 -0.675114,0.0166 -1.500272,0.0772 -1.330715,0.0979 -3.645971,0.24563 -5.708763,0.36435 -3.100544,0.17845 -9.028133,0.24892 -11.72931,0.13946 -3.291677,-0.13341 -5.855789,-0.30562 -10.365404,-0.69616 -1.693151,-0.14663 -3.341494,-0.2764 -3.662974,-0.28837 -1.683363,-0.0627 -3.235953,0.35108 -4.067117,1.08387 -0.373796,0.32954 -0.735866,0.7915 -0.888562,1.13368 -0.256915,0.57566 -0.262434,1.39945 -0.01118,1.7467 z m 2.112529,35.0745 c -0.479979,0.1472 -1.031442,0.4559 -1.289384,0.7218 -0.4389,0.45245 -0.931064,1.05434 -0.999662,1.22255 -0.11357,0.27858 -0.02622,1.14939 0.154596,1.54156 l 7.1e-5,-4e-5 c 0.201061,0.43581 0.89335,1.17462 1.362728,1.45428 0.632746,0.37699 1.555222,0.62876 2.582792,0.70491 0.734068,0.0544 1.314007,0.0261 3.654792,-0.17802 7.311506,-0.63773 10.031373,-0.7916 14.629801,-0.8276 4.461413,-0.035 8.795283,0.13869 14.771368,0.59173 0.525091,0.0398 0.954703,0.0619 0.954703,0.0492 0,-0.0128 -0.0999,-0.0541 -0.221884,-0.0918 -0.122086,-0.0377 -0.448098,-0.19409 -0.724607,-0.34746 -1.196089,-0.66349 -1.790714,-1.70536 -1.612845,-2.82587 0.07073,-0.44528 0.370861,-1.0333 0.664972,-1.30259 0.364153,-0.33344 1.031605,-0.77019 1.384731,-0.90613 0.191224,-0.0736 0.349061,-0.14332 0.350728,-0.15492 0.01016,-0.0636 -6.542101,-0.47088 -9.310252,-0.5787 -1.778275,-0.0693 -8.627547,-0.0688 -10.677167,7.6e-4 -2.793923,0.0948 -5.968868,0.138866 -10.345656,0.394486 m -2.249176,0.01013 c 0.01535,0.0123 1.101151,-0.09269 1.956512,-0.152799 0.32148,-0.0226 1.619105,-0.0954 2.8836,-0.16191 1.264515,-0.0665 2.649825,-0.13947 3.078461,-0.16225 0.428646,-0.0228 1.761343,-0.0775 2.961548,-0.12177 8.093482,-0.29798 12.627772,-0.19332 22.010536,0.50804 2.194542,0.16405 3.100128,0.29277 3.980967,0.56586 0.963168,0.29864 1.738132,0.76626 2.093463,1.26323 0.455364,0.63686 0.374235,1.6316 -0.17293,2.12014 -0.293674,0.26223 -0.708031,0.45794 -1.311924,0.6197 -0.686608,0.1839 -0.924621,0.20758 -2.676096,0.26624 -1.151932,0.0386 -1.680275,0.0388 -2.367086,0.001 -0.48629,-0.0266 -0.900525,-0.0398 -0.920535,-0.0294 -0.06464,0.0338 0.575864,0.45547 0.964204,0.63481 0.642848,0.29685 1.930544,0.5924 3.021794,0.69354 1.098627,0.10184 2.017974,0.006 2.868528,-0.29776 0.968737,-0.3464 1.723416,-0.99791 2.156543,-1.86166 0.488576,-0.97438 0.512327,-1.5699 0.134078,-3.3646 -0.375098,-1.77998 -0.732493,-3.57014 -0.830462,-4.15987 -0.04472,-0.26916 -0.133946,-0.74633 -0.198408,-1.06036 -0.239537,-1.16796 -0.736416,-4.50228 -0.926806,-6.21941 -0.481106,-4.33899 -0.481167,-7.21499 -2.24e-4,-11.35807 0.34959,-3.01164 0.918676,-6.03511 2.103271,-11.17456 0.164159,-0.71201 0.197066,-0.99451 0.159576,-1.3685 -0.130734,-1.30656 -0.802606,-2.33606 -1.929863,-2.95712 -0.570813,-0.31448 -1.020364,-0.46211 -1.736881,-0.57034 -1.333744,-0.20146 -3.988974,0.363035 -4.909664,0.73359 -0.92069,0.370555 -0.873176,0.53901 -0.807982,0.57312 0.01921,0.0102 0.366388,-0.0014 0.771264,-0.0258 0.764292,-0.04615 2.545047,-0.0233 3.789938,0.0482 1.221374,0.07 2.357604,0.44337 2.785417,0.91514 0.344589,0.37999 0.459246,1.20895 0.241569,1.74651 -0.301621,0.74488 -1.498655,1.43369 -3.067983,1.76539 -0.726599,0.15358 -1.231964,0.20774 -3.558358,0.38132 -5.544299,0.41369 -8.974128,0.58144 -13.054193,0.63845 -3.84942,0.0538 -10.806885,-0.18768 -17.69134,-0.61401 -2.687692,-0.16644 -4.130025,-0.2399 -4.181469,-0.21298 -0.06382,0.0334 -0.97638,3.37614 -1.505008,5.51309 -0.638924,2.58288 -1.163293,5.46876 -1.326365,7.30016 -0.12236,1.37413 -0.125013,1.42693 -0.141222,2.91599 -0.0071,0.75142 0.02012,1.81585 0.06311,2.36541 l 8.2e-5,2.4e-4 c 0.270513,3.46642 0.960267,6.934605 3.021697,12.911865 0.146954,0.42618 0.62169,0.791235 0.989891,1.517029 m 31.996533,3.291326 c 0.09218,0.33826 0.273358,0.72515 0.408351,0.87257 0.08821,0.0962 0.159952,0.10975 0.804313,0.15124 0.389143,0.0251 1.017224,0.0491 1.395768,0.0535 l 0.688264,0.008 -0.414591,-0.19505 c -1.205855,-0.56734 -1.36411,-1.84632 -0.306286,-2.47519 0.304376,-0.18095 0.308268,-0.18693 0.133793,-0.20555 -0.40828,-0.0436 -1.136118,-0.0588 -1.73994,-0.0366 l -0.642817,0.0238 -0.09766,0.16761 c -0.269538,0.46263 -0.364428,1.13996 -0.229191,1.63579 z m 0.202909,-37.64274 0.14485,0.28548 0.974205,0.0124 c 0.535792,0.007 1.125976,9e-4 1.311528,-0.0132 l 0.337323,-0.0256 -0.271692,-0.13807 c -0.149433,-0.0759 -0.369773,-0.24437 -0.489653,-0.37427 -0.188601,-0.20451 -0.222027,-0.29637 -0.24849,-0.68481 -0.04868,-0.71615 0.23976,-1.15224 0.985861,-1.49019 l 0.362476,-0.16419 -0.779353,0.007 c -0.428646,0.004 -1.058892,0.0274 -1.400544,0.0524 l -0.62116,0.0455 -0.145989,0.20374 c -0.272322,0.38018 -0.358858,0.74296 -0.330829,1.38644 0.01911,0.42821 0.07023,0.6974 0.171406,0.89723 z m 1.172827,1.15044 c 0.7916,0.42676 1.741779,0.54839 2.991843,0.38297 1.705997,-0.22575 2.862025,-0.71515 3.429779,-1.45199 0.208824,-0.27102 0.257036,-0.39503 0.285361,-0.73395 0.06189,-0.74046 -0.250016,-1.21794 -0.99759,-1.52716 -0.614716,-0.25429 -1.149512,-0.34567 -2.022323,-0.34561 -0.603172,4e-5 -0.812627,0.0172 -1.130082,0.0926 -0.461451,0.10962 -0.928543,0.33386 -1.138252,0.54647 l -0.150776,0.15294 h 0.750278 c 0.886033,0 2.026135,0.1003 2.36483,0.20813 0.432325,0.13757 0.565031,0.30008 0.529492,0.64832 -0.05234,0.51219 -0.66613,1.03558 -1.403685,1.19684 -0.516879,0.113 -2.114632,0.242 -3.172954,0.25619 -0.578679,0.008 -1.06315,0.0143 -1.076626,0.0146 -0.09258,0.002 0.408311,0.38037 0.740776,0.55961 z m 0.316795,34.41663 c 0.746873,0.003 1.353378,0.0318 2.003319,0.0951 1.416774,0.13816 1.757867,0.25506 2.244816,0.76929 0.289294,0.30552 0.329742,0.38196 0.329925,0.62364 2.14e-4,0.296 -0.111059,0.41888 -0.525924,0.58098 -0.281479,0.10997 -1.504977,0.22819 -2.376995,0.22969 -0.396491,6.2e-4 -0.720755,0.015 -0.720582,0.0318 5.69e-4,0.0524 0.28405,0.26922 0.536188,0.40989 0.972315,0.54245 3.103177,0.46232 4.166714,-0.15669 0.50506,-0.29397 0.687999,-0.60996 0.695541,-1.20141 0.0061,-0.48917 -0.06606,-0.67081 -0.429987,-1.07804 -0.333463,-0.37328 -1.217746,-0.82588 -2.013238,-1.0304 -1.735175,-0.44612 -3.205903,-0.41606 -4.187323,0.0856 -0.338817,0.17319 -0.794903,0.51392 -0.794039,0.59323 2.74e-4,0.0278 0.378208,0.0445 1.071585,0.0473 z m 0.81787,-36.68808 c 0.03212,-2.9e-4 0.366408,-5.2e-4 0.742797,-5.2e-4 0.68355,0 0.684425,-1.4e-4 0.769628,-0.11827 0.07927,-0.10998 0.07094,-0.11976 -0.11929,-0.13955 -0.355048,-0.0369 -1.348796,-1.4e-4 -1.410625,0.0522 -0.07297,0.0617 -0.06057,0.20681 0.01717,0.20611 z m 0.02683,0.55005 c 0.135897,0.30936 0.652359,0.64029 1.088779,0.69762 0.419348,0.0551 1.034816,-0.005 1.340147,-0.13162 0.366837,-0.1517 0.810269,-0.60059 0.851876,-0.86244 0.05539,-0.34872 -0.334396,-0.55092 -0.880402,-0.45663 -0.278228,0.0481 -0.575397,0.23942 -0.575967,0.37092 -2.53e-4,0.0563 -0.149444,0.0709 -0.977193,0.0959 -0.855442,0.0258 -0.972182,0.0378 -0.93895,0.0967 0.02083,0.037 0.06209,0.12224 0.09167,0.18952 z m 0.206985,37.54103 c 0.558719,4.7e-4 1.609958,0.0509 1.604166,0.077 -0.03628,0.16333 0.293917,0.39175 0.612196,0.42359 0.754902,0.0755 1.040914,-0.35206 0.585712,-0.8756 -0.559299,-0.64324 -1.787522,-0.82864 -2.573268,-0.38841 -0.206773,0.11587 -0.555458,0.53523 -0.558192,0.6714 -9.96e-4,0.0809 0.0374,0.0918 0.329387,0.092 z m -0.07805,0.53886 c 0.226774,0.0176 0.621903,0.0168 1.243347,-0.002 l 0.210695,-0.006 -0.132827,-0.12209 c -0.115104,-0.10581 -0.179638,-0.12268 -0.483475,-0.12646 -0.19291,-0.002 -0.517306,-0.0119 -0.720907,-0.0211 l -0.37019,-0.0168 v 0.13788 c 0,0.12435 0.0248,0.13981 0.253287,0.15747 z"
       id="path1"
       sodipodi:nodetypes="cccccccccccccccccccccsccscccccsccccccccccccccsccccscccccccccsscccscccccccsccccccccccccssacscsccccccscccssccssccccccccccscccscsccccccccccscccccssccscsssccscccccccccccscsscccsccccccccccscccccccccssscscccsccccccccccssccssccssccccsccccccccccccccccccccccccccscccscc" /></g></svg>
