<?xml version="1.0" encoding="UTF-8" standalone="no"?>
<!-- Created with Inkscape (http://www.inkscape.org/) -->

<svg
   width="49.901886mm"
   height="49.997852mm"
   viewBox="0 0 49.901887 49.997854"
   version="1.1"
   id="svg1"
   inkscape:version="1.4.2 (ebf0e940d0, 2025-05-08)"
   sodipodi:docname="stand-with-urk.svg"
   xml:space="preserve"
   xmlns:inkscape="http://www.inkscape.org/namespaces/inkscape"
   xmlns:sodipodi="http://sodipodi.sourceforge.net/DTD/sodipodi-0.dtd"
   xmlns="http://www.w3.org/2000/svg"
   xmlns:svg="http://www.w3.org/2000/svg"><sodipodi:namedview
     id="namedview1"
     pagecolor="#ffffff"
     bordercolor="#000000"
     borderopacity="0.25"
     inkscape:showpageshadow="2"
     inkscape:pageopacity="0.0"
     inkscape:pagecheckerboard="0"
     inkscape:deskcolor="#d1d1d1"
     inkscape:document-units="mm"
     showgrid="false"
     inkscape:zoom="4.0874251"
     inkscape:cx="96.637857"
     inkscape:cy="76.82098"
     inkscape:window-width="1896"
     inkscape:window-height="1032"
     inkscape:window-x="0"
     inkscape:window-y="0"
     inkscape:window-maximized="1"
     inkscape:current-layer="layer1" /><defs
     id="defs1" /><g
     inkscape:groupmode="layer"
     id="layer4"
     inkscape:label="engrave"
     style="display:inline"><path
       d="m 9.0408392,93.079416 q 0,0.343964 -0.2498269,0.53586 -0.2498269,0.191896 -0.6734465,0.191896 -0.2172408,0 -0.4018955,-0.03259 Q 7.5310156,93.742 7.4079125,93.684069 v -0.311378 q 0.1303445,0.05793 0.3222405,0.104999 0.1955168,0.04707 0.4018955,0.04707 0.2896544,0 0.4344816,-0.112241 0.1484479,-0.112241 0.1484479,-0.304137 0,-0.126724 -0.05431,-0.21362 -0.05431,-0.0869 -0.1882753,-0.15931 Q 8.342048,92.659417 8.1067038,92.576141 7.7772219,92.456659 7.6070499,92.282866 7.4404986,92.109073 7.4404986,91.808557 q 0,-0.206379 0.1049997,-0.351206 0.1049998,-0.148448 0.2896545,-0.228103 0.1882753,-0.07966 0.4308609,-0.07966 0.2136201,0 0.3910334,0.03983 0.1774134,0.03983 0.3222406,0.104999 l -0.1013791,0.278793 q -0.1339651,-0.05793 -0.2932751,-0.09776 -0.1556892,-0.03983 -0.3258612,-0.03983 -0.2425855,0 -0.3656887,0.105 -0.1231031,0.101379 -0.1231031,0.271551 0,0.130344 0.05431,0.21724 0.05431,0.0869 0.1774133,0.15569 0.1231032,0.06879 0.3331026,0.148448 0.2281029,0.08328 0.3837921,0.181034 0.1593099,0.09414 0.2389649,0.228102 0.083276,0.133966 0.083276,0.336724 z m 2.0999938,-1.249135 v 1.940685 h -0.260689 l -0.04707,-0.257069 h -0.01448 q -0.09414,0.152069 -0.260689,0.224482 -0.166551,0.06879 -0.354826,0.06879 -0.3512062,0 -0.5286196,-0.166551 Q 9.4970441,93.470449 9.4970441,93.10114 v -1.270859 h 0.3222405 v 1.249135 q 0,0.463447 0.4308614,0.463447 0.32224,0 0.445343,-0.181034 0.126724,-0.181034 0.126724,-0.521378 v -1.01017 z m 1.538789,-0.03621 q 0.358447,0 0.575688,0.249827 0.220861,0.249827 0.220861,0.753102 0,0.496033 -0.220861,0.753101 -0.217241,0.257068 -0.579309,0.257068 -0.224482,0 -0.37293,-0.08328 -0.144827,-0.0869 -0.228103,-0.199138 h -0.02172 q 0.0072,0.06155 0.01448,0.15569 0.0072,0.09414 0.0072,0.16293 v 0.79655 h -0.31862 v -2.809648 h 0.260689 l 0.04345,0.26431 h 0.01448 q 0.0869,-0.126724 0.228103,-0.21362 0.141207,-0.0869 0.376551,-0.0869 z m -0.05793,0.267931 q -0.296896,0 -0.419999,0.166551 -0.119482,0.166551 -0.126724,0.506895 v 0.06155 q 0,0.358447 0.115862,0.553964 0.119482,0.191896 0.438102,0.191896 0.177414,0 0.289655,-0.09776 0.115861,-0.09776 0.170172,-0.264309 0.05793,-0.170172 0.05793,-0.387413 0,-0.333103 -0.130345,-0.53224 -0.126724,-0.199137 -0.394654,-0.199137 z m 2.284648,-0.267931 q 0.358448,0 0.575688,0.249827 0.220862,0.249827 0.220862,0.753102 0,0.496033 -0.220862,0.753101 -0.21724,0.257068 -0.579308,0.257068 -0.224483,0 -0.37293,-0.08328 -0.144828,-0.0869 -0.228103,-0.199138 h -0.02172 q 0.0072,0.06155 0.01448,0.15569 0.0072,0.09414 0.0072,0.16293 v 0.79655 h -0.31862 v -2.809648 h 0.260689 l 0.04345,0.26431 h 0.01448 q 0.0869,-0.126724 0.228103,-0.21362 0.141206,-0.0869 0.37655,-0.0869 z m -0.05793,0.267931 q -0.296895,0 -0.419999,0.166551 -0.119482,0.166551 -0.126723,0.506895 v 0.06155 q 0,0.358447 0.115861,0.553964 0.119483,0.191896 0.438103,0.191896 0.177413,0 0.289654,-0.09776 0.115862,-0.09776 0.170172,-0.264309 0.05793,-0.170172 0.05793,-0.387413 0,-0.333103 -0.130344,-0.53224 -0.126724,-0.199137 -0.394655,-0.199137 z m 3.048613,0.734998 q 0,0.48155 -0.246207,0.74586 -0.242585,0.264309 -0.658963,0.264309 -0.257069,0 -0.459827,-0.115861 -0.199137,-0.119483 -0.314999,-0.343965 -0.115862,-0.228103 -0.115862,-0.550343 0,-0.481551 0.242586,-0.74224 0.242586,-0.260689 0.658964,-0.260689 0.264309,0 0.463447,0.119483 0.202758,0.115861 0.314999,0.340344 0.115862,0.220861 0.115862,0.543102 z m -1.466376,0 q 0,0.343964 0.133965,0.546722 0.137586,0.199138 0.434482,0.199138 0.293275,0 0.430861,-0.199138 0.137586,-0.202758 0.137586,-0.546722 0,-0.343965 -0.137586,-0.539482 -0.137586,-0.195516 -0.434482,-0.195516 -0.296895,0 -0.430861,0.195516 -0.133965,0.195517 -0.133965,0.539482 z m 2.874819,-1.002929 q 0.05431,0 0.115861,0.0072 0.06517,0.0036 0.112241,0.01448 l -0.03983,0.293275 q -0.04707,-0.01086 -0.105,-0.0181 -0.05431,-0.0072 -0.104999,-0.0072 -0.148448,0 -0.278793,0.08328 -0.130344,0.07965 -0.209999,0.228103 -0.07604,0.144827 -0.07604,0.340344 v 1.035515 h -0.318619 v -1.940685 h 0.260689 l 0.03621,0.354827 h 0.01448 q 0.09414,-0.15931 0.242586,-0.275172 0.148448,-0.115862 0.351206,-0.115862 z m 1.238273,1.752409 q 0.07241,0 0.148448,-0.01086 0.07603,-0.01448 0.123103,-0.02896 v 0.242585 q -0.05069,0.02535 -0.144828,0.03983 -0.09414,0.0181 -0.181034,0.0181 -0.152068,0 -0.282413,-0.05069 -0.126723,-0.05431 -0.206378,-0.184655 -0.07965,-0.130344 -0.07965,-0.365689 v -1.129652 h -0.275172 v -0.152068 l 0.278792,-0.126724 0.126724,-0.412758 h 0.188275 v 0.445344 h 0.561206 v 0.246206 h -0.561206 v 1.122411 q 0,0.177413 0.08328,0.26431 0.0869,0.08328 0.220862,0.08328 z"
       id="text5"
       style="font-size:3.62068px;font-family:Sans;-inkscape-font-specification:'Sans, Normal';text-align:center;letter-spacing:0px;word-spacing:0.428825px;direction:rtl;text-anchor:middle;stroke:#000000;stroke-width:0.108019;stroke-linejoin:round"
       transform="matrix(1.3279525,0,0,0.78091213,12.288415,-42.59335)"
       aria-label="Support" /><path
       d="m -1.2941667,65.215737 q 0,0.955282 -0.5225022,1.440839 -0.5172244,0.48028 -1.4461172,0.48028 h -1.0502823 v -3.768349 h 1.1611161 q 0.5700024,0 0.9869486,0.211112 0.4169462,0.211112 0.6438916,0.62278 0.2269454,0.406391 0.2269454,1.013338 z m -0.501391,0.01583 q 0,-0.754725 -0.3747238,-1.10306 -0.369446,-0.353613 -1.0502822,-0.353613 h -0.6175027 v 2.955568 h 0.5119467 q 1.530562,0 1.530562,-1.498895 z m 3.4411231,1.905286 H -0.46027681 V 63.368507 H 1.6455654 v 0.416946 H 0.01472519 v 1.176949 H 1.550565 v 0.411669 H 0.01472519 V 66.71991 H 1.6455654 Z m 1.3036154,0 h -0.475002 v -3.768349 h 2.1058423 v 0.416946 H 2.9491808 v 1.335283 h 1.5305621 v 0.416947 H 2.9491808 Z M 6.195023,65.221015 7.1766939,63.368507 h 0.5119466 l -1.2561164,2.306398 v 1.461951 H 5.957522 V 65.696017 L 4.7014056,63.368507 H 5.21863 Z m 5.000384,-1.852508 q 0.738892,0 1.076671,0.290279 0.337779,0.290279 0.337779,0.818059 0,0.31139 -0.1425,0.585836 -0.137223,0.269167 -0.469724,0.438057 -0.327224,0.16889 -0.891949,0.16889 h -0.432779 v 1.467228 h -0.475002 v -3.768349 z m -0.04222,0.40639 h -0.48028 v 1.48834 h 0.380001 q 0.538336,0 0.802226,-0.174167 0.26389,-0.174168 0.26389,-0.591114 0,-0.364168 -0.232223,-0.543613 -0.232223,-0.179446 -0.733614,-0.179446 z m 5.103629,2.031953 q 0,0.390558 -0.158334,0.707226 -0.158334,0.31139 -0.485558,0.496113 -0.321946,0.179445 -0.823337,0.179445 -0.701947,0 -1.071393,-0.380002 -0.364168,-0.385279 -0.364168,-1.013337 v -2.427788 h 0.475002 v 2.443621 q 0,0.459169 0.242779,0.712503 0.248056,0.253335 0.744169,0.253335 0.511947,0 0.738892,-0.269168 0.232224,-0.274446 0.232224,-0.701948 v -2.438343 h 0.469724 z m 2.185015,1.330006 h -0.475002 v -3.351403 h -1.176949 v -0.416946 h 2.823623 v 0.416946 h -1.171672 z m 2.802509,0 H 19.882666 V 66.86241 l 0.443335,-0.100278 v -3.013624 l -0.443335,-0.105556 v -0.274445 h 1.361672 v 0.274445 l -0.443335,0.105556 v 3.013624 l 0.443335,0.100278 z m 3.715576,0 h -0.554169 l -2.01612,-3.129735 h -0.02111 q 0.01056,0.184723 0.02639,0.459168 0.01583,0.274446 0.01583,0.564725 v 2.105842 h -0.438058 v -3.768349 h 0.548891 l 2.010842,3.11918 h 0.02111 q -0.0053,-0.08444 -0.01583,-0.253335 -0.0053,-0.168889 -0.01583,-0.369446 -0.0053,-0.200556 -0.0053,-0.369446 v -2.126953 h 0.443335 z"
       id="text4"
       style="font-size:5.2778px;font-family:Sans;-inkscape-font-specification:'Sans, Normal';text-align:center;letter-spacing:0px;word-spacing:0.625086px;direction:rtl;text-anchor:middle;stroke:#000000;stroke-width:0.108019;stroke-linejoin:round"
       transform="matrix(1.0117221,0,0,1.0249992,12.288415,-42.59335)"
       aria-label="DEFY PUTIN" /><path
       d="m 12.56828,75.920475 q 0,0.364363 -0.147714,0.659792 -0.147715,0.290505 -0.452992,0.462839 -0.300353,0.16741 -0.768116,0.16741 -0.654868,0 -0.999535,-0.354515 Q 9.8601793,76.496562 9.8601793,75.910627 V 73.64567 h 0.4431437 v 2.279729 q 0,0.428372 0.226496,0.664716 0.231419,0.236343 0.694258,0.236343 0.477611,0 0.689335,-0.251115 0.216648,-0.256038 0.216648,-0.654868 V 73.64567 h 0.43822 z m 1.294969,-0.546544 q 0,0.07878 -0.0098,0.206801 -0.0049,0.128019 -0.0098,0.221571 h 0.0197 q 0.02954,-0.03939 0.08863,-0.113247 0.05909,-0.07386 0.118172,-0.147715 0.06401,-0.07878 0.108324,-0.128019 l 0.841973,-0.891212 h 0.507154 l -1.068469,1.127555 1.142326,1.511613 h -0.521925 l -0.915831,-1.230955 -0.300353,0.260962 v 0.969993 h -0.428372 v -3.742103 h 0.428372 z m 3.431905,-0.901059 q 0.07386,0 0.157562,0.0098 0.08863,0.0049 0.152638,0.01969 l -0.05416,0.398829 q -0.06401,-0.01477 -0.14279,-0.02462 -0.07386,-0.0098 -0.142791,-0.0098 -0.201877,0 -0.379134,0.113248 -0.177258,0.108324 -0.285582,0.3102 -0.1034,0.196953 -0.1034,0.462839 v 1.408213 H 16.064199 V 74.52211 h 0.354515 l 0.04924,0.482535 h 0.01969 q 0.12802,-0.216648 0.329896,-0.374211 0.201877,-0.157562 0.477611,-0.157562 z m 1.70364,0.0049 q 0.482534,0 0.713954,0.211724 0.231419,0.211724 0.231419,0.674563 v 1.797195 h -0.315124 l -0.0837,-0.374211 h -0.0197 q -0.172334,0.216649 -0.364363,0.320049 -0.187105,0.1034 -0.521925,0.1034 -0.359439,0 -0.595782,-0.187105 -0.236344,-0.192029 -0.236344,-0.595782 0,-0.393906 0.310201,-0.60563 0.310201,-0.216648 0.955221,-0.236344 l 0.448068,-0.01477 v -0.157562 q 0,-0.329896 -0.142791,-0.457916 -0.142791,-0.128019 -0.403753,-0.128019 -0.206801,0 -0.393906,0.06401 -0.187105,0.05909 -0.349591,0.137867 l -0.132943,-0.324972 q 0.172333,-0.09355 0.408677,-0.157563 0.236343,-0.06893 0.492382,-0.06893 z m 0.128019,1.408212 q -0.492382,0.0197 -0.684411,0.157563 -0.187105,0.137867 -0.187105,0.388981 0,0.221572 0.132943,0.324973 0.137867,0.1034 0.349591,0.1034 0.33482,0 0.556392,-0.182182 0.221572,-0.187105 0.221572,-0.571163 v -0.236343 z m 1.856284,-2.353586 q 0.09848,0 0.172334,0.06893 0.07878,0.06401 0.07878,0.2068 0,0.137867 -0.07878,0.206801 -0.07386,0.06893 -0.172334,0.06893 -0.108324,0 -0.182181,-0.06893 -0.07386,-0.06893 -0.07386,-0.206801 0,-0.14279 0.07386,-0.2068 0.07386,-0.06893 0.182181,-0.06893 z m 0.211725,0.989688 v 2.639168 H 20.761525 V 74.52211 Z m 2.107392,-0.04924 q 0.472687,0 0.713954,0.23142 0.241267,0.226495 0.241267,0.738573 v 1.718413 h -0.428372 v -1.68887 q 0,-0.635173 -0.590859,-0.635173 -0.43822,0 -0.60563,0.246191 -0.16741,0.246191 -0.16741,0.70903 v 1.368822 H 22.031868 V 74.52211 h 0.349592 l 0.06401,0.359439 h 0.02462 q 0.12802,-0.2068 0.354515,-0.305277 0.226496,-0.1034 0.477611,-0.1034 z m 2.791806,0 q 0.339744,0 0.581011,0.147715 0.246191,0.147714 0.37421,0.418524 0.132943,0.265887 0.132943,0.625325 v 0.260963 h -1.807042 q 0.0098,0.448068 0.226496,0.684411 0.221572,0.231419 0.615478,0.231419 0.251114,0 0.443143,-0.04431 0.196953,-0.04924 0.403754,-0.137867 v 0.379134 q -0.201877,0.08863 -0.39883,0.12802 -0.196953,0.04431 -0.467763,0.04431 -0.37421,0 -0.664715,-0.152638 -0.285582,-0.152639 -0.448068,-0.452992 -0.157562,-0.305277 -0.157562,-0.743497 0,-0.433296 0.142791,-0.743497 0.147714,-0.3102 0.408677,-0.47761 0.265886,-0.16741 0.615477,-0.16741 z m -0.0049,0.354515 q -0.3102,0 -0.492382,0.201877 -0.177257,0.196953 -0.211724,0.551468 h 1.344203 q -0.0049,-0.33482 -0.157562,-0.541621 -0.152639,-0.211724 -0.482535,-0.211724 z"
       id="text6"
       style="font-size:4.92382px;font-family:Sans;-inkscape-font-specification:'Sans, Normal';text-align:center;letter-spacing:0px;word-spacing:0.583161px;direction:rtl;text-anchor:middle;stroke:#000000;stroke-width:0.108019;stroke-linejoin:round"
       transform="matrix(1.0125485,0,0,1.0241625,12.288415,-42.59335)"
       aria-label="Ukraine" /></g><g
     inkscape:label="cut"
     inkscape:groupmode="layer"
     id="layer1"
     transform="translate(-10.308741,-18.586919)"
     style="display:inline"><path
       style="fill:none;stroke:#000000;stroke-width:0.0999997;stroke-dasharray:none"
       d="m 14.226118,33.023813 c 0.226122,-0.03371 0.51803,-0.14586 0.648687,-0.249221 0.233558,-0.184766 0.239643,-0.185061 0.361812,-0.0176 0.06835,0.09367 0.106303,0.2399 0.08435,0.324947 -0.02195,0.08504 7.64e-4,0.154625 0.05048,0.154625 0.05173,0 0.04144,0.0593 -0.02406,0.13868 -0.06295,0.07627 -0.186443,0.11974 -0.274446,0.0966 -0.08801,-0.02314 -0.139077,-0.008 -0.113496,0.03361 0.130577,0.212486 -0.9808,0.424737 -1.27598,0.243687 -0.163185,-0.100093 -0.206792,-0.09123 -0.3372,0.06853 -0.08238,0.100914 -0.198409,0.167188 -0.257845,0.147262 -0.06103,-0.02047 -0.108067,0.03919 -0.108067,0.137032 0,0.422439 -0.802751,0.701438 -1.299153,0.292836 -1.553734,-1.278921 -1.414879,0.0026 0.582208,0.416051 0.11381,0.02356 0.08389,0.147322 -0.06442,0.439705 -0.187135,0.368911 -0.242984,0.402299 -0.843968,0.504567 -0.193282,0.03289 -0.410726,0.105941 -0.483206,0.16234 -0.117141,0.09116 -0.117141,0.08352 0,-0.06862 0.120515,-0.156535 0.118024,-0.165979 -0.02916,-0.110448 -0.08852,0.03339 -0.266421,0.06468 -0.395351,0.06953 l -0.234417,0.0089 0.219639,0.07075 c 0.251156,0.08089 0.242822,0.08735 -0.175712,0.136104 -0.5808528,0.06767 -0.9678239,0.236393 -1.0197968,0.444654 -0.109332,0.438102 -0.778231,0.790395 -1.057749,0.557091 -0.069764,-0.05823 -0.1051692,-0.162676 -0.07868,-0.2321 0.026491,-0.06943 -0.031013,-0.227464 -0.1277853,-0.351193 -0.1074916,-0.137434 -0.1759491,-0.175629 -0.1759491,-0.09818 0,0.06973 0.047442,0.174491 0.1054267,0.232808 0.081998,0.08247 0.081998,0.10603 0,0.10603 -0.057985,0 -0.1054267,-0.03822 -0.1054267,-0.08492 0,-0.304405 -0.7807813,-0.586639 -1.0147337,-0.366804 -0.045904,0.04313 -0.1675912,0.103916 -0.2704152,0.135069 -0.2931324,0.08879 -0.3239236,-0.322253 -0.067769,-0.904771 0.2249886,-0.511644 0.2452933,-0.621513 0.1435618,-0.776816 -0.092582,-0.141341 -0.4598973,-0.243819 -0.4598973,-0.12831 0,0.05188 0.07484,0.09431 0.1663118,0.09431 0.2589112,0 0.2714709,0.188715 0.047335,0.711222 -0.1136246,0.264881 -0.2081778,0.543448 -0.2101184,0.619038 -0.00306,0.11908 -0.1003492,0.12759 -0.728338,0.06369 C 5.0041569,36.003909 4.61869,35.945988 4.546209,35.915769 4.4737282,35.885549 4.3598303,35.849698 4.2931031,35.836105 4.2263756,35.822512 4.0465859,35.689357 3.8935698,35.540199 3.5541404,35.209335 3.2565655,35.195627 2.9715238,35.497722 2.8155906,35.662987 2.7097753,35.706503 2.576173,35.660314 2.4758369,35.625625 2.2356037,35.592973 2.0423207,35.587748 1.8040067,35.581285 1.6272743,35.514261 1.4932229,35.379451 1.3845021,35.270103 1.3327494,35.180644 1.3782177,35.180644 c 0.045469,0 0.107105,0.03977 0.136969,0.08836 0.029868,0.0486 0.1013866,0.08709 0.1589327,0.08555 0.057546,-0.0016 0.029054,-0.06033 -0.063321,-0.130635 -0.1019333,-0.07757 -0.2538561,-0.106138 -0.386491,-0.07265 -0.1408376,0.03554 -0.1984405,0.02248 -0.1620111,-0.03683 0.03109,-0.05059 -0.00254,-0.114781 -0.074757,-0.142649 -0.072201,-0.02785 -0.13127842,-0.132285 -0.13127842,-0.232045 0,-0.107651 -0.0891361,-0.222227 -0.21928211,-0.281863 -0.1784606,-0.08178 0.65959783,-0.526024 0.65798073,-0.940389 -7.312e-4,-0.183372 -0.30099649,-0.654962 -0.37173916,-0.583813 -0.0480865,0.04836 0.0116804,-0.235511 0.15943686,-0.757327 0.081193,-0.286726 0.2126577,-0.452355 0.3106911,-0.391422 0.042842,0.02662 0.077293,0.01627 0.076559,-0.02308 -1.2396596,-0.489569 -0.97684002,-1.235319 -0.3500768,-0.392985 0,0.04185 0.097333,0.0574 0.2163095,0.03453 0.1292245,-0.02484 0.2732313,0.01566 0.3576982,0.100607 0.077761,0.07821 0.2077513,0.142804 0.2888607,0.143547 0.1273227,0.0013 0.1294662,0.01306 0.015693,0.087 -0.072486,0.04711 -0.087202,0.08626 -0.032719,0.087 0.2048947,0.0026 0.4378935,-0.484955 0.2788769,-0.583793 -0.059097,-0.03673 -0.072866,-0.02041 -0.034906,0.04135 0.077304,0.125792 -0.078415,0.132435 -0.3006441,0.01281 -0.1405617,-0.07566 -0.1577861,-0.156379 -0.1135408,-0.532098 0.038443,-0.326425 0.010374,-0.536092 -0.1066974,-0.797204 -0.15728,-0.350777 -0.1568157,-0.357987 0.046874,-0.726994 0.2250623,-0.407733 0.3442652,-0.521783 0.4897207,-0.468558 0.052347,0.01917 0.095176,-0.01927 0.095176,-0.08539 0,-0.06613 -0.032947,-0.09974 -0.073213,-0.07471 -0.1095909,0.06812 -0.088235,-0.02451 0.036607,-0.158764 0.060401,-0.06497 0.1840175,-0.264334 0.2747036,-0.443061 0.090686,-0.178723 0.2982453,-0.471382 0.4612426,-0.650349 0.1629973,-0.178968 0.2963588,-0.340382 0.2963588,-0.358699 0,-0.01833 0.1606995,-0.179314 0.3571103,-0.357773 0.1964108,-0.17846 0.4141654,-0.435434 0.4838992,-0.571054 0.088869,-0.172832 0.1703067,-0.229788 0.272292,-0.190429 0.091767,0.03541 0.1239502,0.02107 0.087143,-0.03882 -0.039319,-0.06398 0.063468,-0.0831 0.3150467,-0.05861 0.2053737,0.02 0.3180859,0.01095 0.2504716,-0.02018 -0.094918,-0.04364 -0.074896,-0.09585 0.087856,-0.229136 0.1159348,-0.09493 0.16778,-0.150928 0.1152116,-0.124412 -0.068815,0.03471 0.01616,-0.02745 -4.649e-4,-0.257406 -0.1204308,-1.665765 0.013166,-0.04493 -0.2056036,-1.083164 l 0.2167147,-0.05469 c 0.294455,-0.07433 0.2739637,-0.170479 -0.1209787,-0.567679 -0.1857325,-0.18679 -0.3625726,-0.46472 -0.392978,-0.617616 -0.030406,-0.152895 -0.1848393,-0.394411 -0.3431864,-0.5367 -0.2463501,-0.221372 -0.2905455,-0.323523 -0.306207,-0.707746 -0.024975,-0.612723 -0.043725,-0.713288 -0.123715,-0.663567 -0.068119,0.04235 -0.2533326,-0.2346 -0.2533326,-0.378792 0,-0.04113 0.1168559,-0.119153 0.2596795,-0.173374 0.2152794,-0.08172 0.3203667,-0.06838 0.6146154,0.07803 0.1952148,0.09714 0.3330036,0.212302 0.3061976,0.255923 -0.026806,0.04362 -0.00762,0.0793 0.042629,0.0793 0.050252,0 0.1157666,-0.09777 0.1455884,-0.217267 0.073269,-0.293591 0.2888714,-0.474847 0.3828743,-0.321878 0.052623,0.08563 0.081982,0.07798 0.1240813,-0.03237 0.036639,-0.09603 0.020988,-0.123301 -0.046631,-0.08127 -0.071638,0.04453 -0.080669,0.01319 -0.030496,-0.105854 0.039205,-0.09302 0.088394,-0.288401 0.109309,-0.43419 0.066513,-0.463663 0.1091129,-0.546145 0.2040722,-0.395132 0.068632,0.10914 0.082,0.105196 0.08313,-0.02458 0.00117,-0.134215 0.093769,-0.154625 0.7014858,-0.154625 0.5410714,0 0.7808351,-0.0423 1.0553172,-0.186187 0.3315809,-0.173818 0.3694938,-0.176752 0.5706767,-0.04417 0.1185247,0.07811 0.2860768,0.142613 0.3723378,0.143358 0.1333967,0.001 0.1371417,0.01415 0.025056,0.087 -0.1013604,0.06587 -0.070936,0.08627 0.1317835,0.08836 0.205873,0.0021 0.098315,0.211053 0.1317836,0.09152 0.1163966,-0.415728 -1.7318354,-0.800261 0.2635672,0.04182 1.2086004,0.510045 0.5047599,-0.165618 0.8866364,-0.170344 0.471193,-0.0058 0.553073,-0.02699 0.439279,-0.113486 -0.09131,-0.06941 0.01265,-0.06032 0.299415,0.02618 0.241603,0.07288 0.566667,0.109184 0.722362,0.08069 0.180561,-0.03307 0.383759,6.68e-4 0.561063,0.09275 0.223404,0.116187 0.315951,0.124133 0.471391,0.04047 0.10638,-0.05725 0.308552,-0.09089 0.449278,-0.07477 0.212235,0.02435 0.260166,0.07455 0.281076,0.294417 0.02018,0.21211 0.0057,0.238593 -0.07257,0.132534 -0.08043,-0.109008 -0.0917,-0.109924 -0.06353,-0.005 0.04386,0.163041 0.547084,0.222376 0.846639,0.09983 0.325924,-0.133333 0.750218,-0.0023 0.785876,0.242611 0.03843,0.264011 0.135731,0.244134 0.61415,-0.125454 0.385541,-0.297837 0.443626,-0.315509 0.903004,-0.274747 0.515849,0.04577 0.870805,0.206137 0.870805,0.393419 0,0.188141 0.12307,0.118 0.314577,-0.179284 0.100541,-0.156065 0.229026,-0.273819 0.285531,-0.261667 0.0565,0.01216 0.102743,-0.02253 0.102743,-0.07709 0,-0.06606 0.04662,-0.06027 0.139593,0.01733 0.120077,0.100224 0.135432,0.09247 0.10982,-0.05545 -0.02249,-0.129882 0.02727,-0.178603 0.203334,-0.199097 0.252169,-0.02934 0.513666,0.242474 0.513666,0.533958 0,0.08704 0.04731,0.234449 0.105142,0.327575 0.08011,0.129021 0.142848,0.149024 0.263567,0.08406 0.08713,-0.04689 0.158425,-0.143511 0.158425,-0.214696 0,-0.07119 0.03954,-0.134397 0.08786,-0.140472 0.04832,-0.0061 0.124097,-0.01602 0.168391,-0.02208 0.0443,-0.0061 0.113479,-0.04724 0.153747,-0.09147 0.04254,-0.04673 0.0272,-0.0538 -0.03661,-0.01687 -0.06039,0.03496 -0.10982,0.02542 -0.10982,-0.02117 0,-0.08826 0.602647,-0.119874 0.73419,-0.03851 0.0414,0.02561 0.02163,0.08074 -0.04393,0.122514 -0.0858,0.05468 -0.06014,0.07634 0.09155,0.07731 0.119944,6.68e-4 0.560992,0.160611 0.84107,0.393812 l 0.05629,-0.306862 c -0.275739,-0.241973 -0.508563,-0.167369 -0.429462,-0.246923 0.07909,-0.07955 0.0529,-0.105953 -0.111994,-0.112885 -0.170898,-0.0071 -0.153272,-0.02375 0.08554,-0.08033 0.403,-0.09552 0.67729,0.02427 0.891478,0.389386 0.09768,0.166493 0.235075,0.324902 0.30533,0.352013 0.137261,0.05297 0.175569,0.368111 0.05394,0.443714 -0.04059,0.02521 -0.19392,-0.02214 -0.340737,-0.10523 l 10e-7,-2e-6 m 4.488051,-1.296447 c 0.128444,-0.119717 0.401078,-0.263419 0.605855,-0.319338 0.204776,-0.05593 0.42174,-0.115767 0.482141,-0.132989 0.06039,-0.01723 0.10982,-0.109832 0.10982,-0.205793 0,-0.203836 0.311886,-0.449573 0.570593,-0.449573 0.22067,0 0.835098,-0.494342 0.835098,-0.671886 0,-0.07088 -0.05624,-0.150581 -0.12499,-0.177114 -0.32521,-0.125507 -0.200617,-0.614279 0.220332,-0.86436 0.298449,-0.177308 0.331614,-0.371198 0.07737,-0.452352 -0.163382,-0.05215 0.216629,-0.199919 0.250053,-0.652347 0.03342,-0.452431 -0.317932,-0.672389 -0.294081,-0.711202 0.02385,-0.03881 0.172679,-0.09895 0.330725,-0.133647 0.253818,-0.05571 0.26685,-0.07179 0.111649,-0.137738 -0.156839,-0.06664 -0.150533,-0.07533 0.05871,-0.08087 0.12893,-0.0035 0.289867,-0.0276 0.357639,-0.05377 0.06778,-0.02614 0.258796,0.07286 0.424499,0.220046 0.165705,0.147179 0.374081,0.291695 0.46306,0.321144 0.109304,0.03618 0.147006,0.110365 0.11623,0.228723 -0.03405,0.130901 -0.01139,0.161992 0.08961,0.123014 0.09813,-0.03788 0.120026,-0.01253 0.07994,0.09258 -0.03038,0.0796 -0.0057,0.204728 0.05478,0.27805 0.06051,0.07332 0.110608,0.196856 0.111335,0.274519 7.32e-4,0.07766 0.07519,0.155618 0.165477,0.173233 0.114492,0.02235 0.145744,-0.0039 0.103302,-0.08691 -0.03347,-0.06541 -0.0083,-0.05514 0.05582,0.02284 0.06417,0.07798 0.205475,0.170114 0.31401,0.204758 0.134989,0.04308 0.197338,0.132547 0.197338,0.283141 0,0.124273 0.03826,0.196373 0.08786,0.16555 0.04832,-0.03002 0.08786,-0.01219 0.08786,0.03968 0,0.05185 -0.155441,0.156836 -0.345424,0.233286 -0.361297,0.145389 -0.444711,0.393015 -0.213122,0.632698 0.177653,0.183859 0.24618,0.123584 0.07533,-0.06627 -0.08745,-0.09719 -0.114266,-0.176716 -0.05957,-0.176716 0.180089,0 0.378708,0.408547 0.317622,0.653325 -0.03446,0.138079 -0.0207,0.230249 0.03434,0.230249 0.0505,0 0.104199,0.129224 0.119343,0.287163 0.02259,0.23559 0.05909,0.279969 0.203242,0.247119 0.246809,-0.05625 0.670211,-0.04042 0.881853,0.03296 0.121895,0.04226 0.258787,-0.001 0.429067,-0.135759 0.137533,-0.108801 0.355852,-0.20947 0.485155,-0.223707 0.197766,-0.02178 0.252468,0.02244 0.344511,0.278424 0.107179,0.298103 0.117376,0.303211 0.499925,0.250478 0.409904,-0.05651 0.522406,0.06728 0.281426,0.309629 -0.08688,0.08737 -0.08431,0.125103 0.0126,0.185342 0.07511,0.04668 0.101779,0.152213 0.06966,0.275677 -0.06775,0.260568 0.07679,0.524902 0.287035,0.524902 0.196113,0 0.270146,0.244925 0.140307,0.464183 -0.111884,0.188938 0.01019,0.423759 0.285861,0.550061 0.103839,0.04757 0.207066,0.134348 0.229382,0.192841 0.02231,0.05848 -0.09553,0.02558 -0.261882,-0.07314 -0.341193,-0.202458 -0.416151,-0.152655 -0.09187,0.06103 0.339423,0.223666 0.64731,0.245923 0.749349,0.05416 0.12168,-0.228655 0.898842,-0.477881 1.16857,-0.374745 0.240099,0.0918 0.495657,0.36259 0.342204,0.36259 -0.05424,0 -0.09861,-0.03551 -0.09861,-0.07891 0,-0.0434 -0.06826,-0.10524 -0.151682,-0.137439 -0.11166,-0.0431 -0.09461,0.0069 0.06458,0.189349 0.118942,0.136338 0.248842,0.287651 0.288671,0.336246 0.03983,0.0486 0.04535,0.01687 0.01225,-0.07051 -0.07806,-0.206157 0.178508,-0.399972 0.458273,-0.346186 0.256527,0.04931 0.364445,0.195297 0.145751,0.197158 -0.130088,0.001 -0.135903,0.01599 -0.03204,0.08211 0.09071,0.05771 0.181445,0.01693 0.31815,-0.143087 0.162687,-0.190412 0.219169,-0.208806 0.378266,-0.123172 0.153627,0.08269 0.187018,0.18192 0.187018,0.555736 0,0.338926 0.04651,0.504876 0.182277,0.650204 0.158271,0.169432 0.167059,0.219635 0.06672,0.381213 -0.168337,0.271083 -0.249,0.228798 -0.249,-0.130532 0,-0.529389 -0.21335,-0.308835 -0.270251,0.279376 -0.05888,0.608754 -0.140243,0.832386 -0.360916,0.99209 -0.210906,0.152638 -0.204674,0.516711 0.01084,0.632708 0.235769,0.126897 1.325872,0.349721 1.459195,0.29827 0.153567,-0.05927 0.845204,0.139184 0.791223,0.227026 -0.02447,0.0398 -0.138672,0.05427 -0.253799,0.03213 -0.243647,-0.04684 -0.350545,0.139724 -0.268481,0.468568 0.05114,0.204891 0.08418,0.213875 0.786723,0.213875 0.628998,0 0.777513,0.03015 1.043737,0.211837 0.170711,0.116509 0.512082,0.260497 0.758598,0.319974 0.411023,0.09916 -0.572825,-0.278888 -0.778777,-0.470275 -0.176999,-0.16448 -0.288947,-0.183535 -0.94445,-0.160749 -0.742912,0.02582 -0.743651,0.02561 -0.743651,-0.196673 0,-0.17688 0.04941,-0.228259 0.24085,-0.250479 0.330526,-0.03837 0.360411,-0.287246 0.04875,-0.40596 -0.135119,-0.05147 -0.522416,-0.116584 -0.860659,-0.144703 -0.78078,-0.06491 -1.269343,-0.201911 -1.335159,-0.374396 -0.05925,-0.155295 0.331662,-0.5608 0.54062,-0.5608 0.09212,0 0.0079,-0.138888 0.135616,-0.265072 0.934759,-0.923643 0.120904,-1.282833 0.08786,-1.893926 0,-0.251009 -0.04399,-0.50063 -0.09777,-0.55471 -0.05377,-0.05409 -0.0686,-0.145802 -0.03294,-0.20382 0.04667,-0.07595 0.08171,-0.07801 0.125117,-0.0073 0.04297,0.06993 0.179997,0.0571 0.476991,-0.04468 0.229181,-0.07854 0.400267,-0.159313 0.380187,-0.179508 -0.02009,-0.0202 -0.143396,0.0042 -0.274046,0.05411 -0.130649,0.04996 -0.304156,0.08807 -0.385569,0.08467 -0.08141,-0.0034 0.03977,-0.06422 0.269285,-0.135209 0.239996,-0.07422 0.417314,-0.182019 0.417314,-0.253705 0,-0.06856 0.04625,-0.153396 0.102786,-0.188534 0.07126,-0.04429 0.08357,-0.01353 0.04015,0.100279 -0.06089,0.159587 -0.05759,0.159571 0.118366,-6.68e-4 0.177721,-0.161754 0.185764,-0.160161 0.443125,0.08781 0.144161,0.138908 0.252203,0.302128 0.240088,0.362709 -0.01212,0.06058 0.0094,0.110688 0.04771,0.111346 0.03835,6.68e-4 0.189646,0.102667 0.336201,0.226688 0.146551,0.124023 0.342496,0.225493 0.43543,0.225493 0.09294,0 0.241177,0.07262 0.32943,0.161375 0.36858,0.370687 0.740625,0.327426 0.660245,-0.07677 -0.04379,-0.2202 -0.01913,-0.260697 0.191021,-0.313746 0.177266,-0.04474 0.262717,-0.02241 0.321997,0.08411 0.09257,0.166363 0.355065,0.188017 0.61077,0.05039 0.133907,-0.07207 0.226051,-0.06154 0.386486,0.04417 0.11586,0.07636 0.330653,0.138817 0.477313,0.138817 0.178459,0 0.266659,0.04384 0.266659,0.132538 0,0.161143 0.102775,0.170541 0.249654,0.02281 0.07225,-0.07265 0.130105,-0.07912 0.171319,-0.01914 0.03422,0.04982 0.161069,0.09459 0.281873,0.0995 0.120802,0.0049 0.314773,0.03966 0.431051,0.07723 0.139663,0.04513 0.192171,0.03699 0.154718,-0.02398 -0.08457,-0.137601 0.158323,-0.300708 0.347543,-0.233398 0.09068,0.03226 0.26372,0.149119 0.384524,0.259683 0.29582,0.270752 0.781126,0.354997 1.010341,0.17539 0.14116,-0.110611 0.14548,-0.127094 0.02194,-0.08383 -0.247532,0.0867 -0.176678,-0.02899 0.104014,-0.169801 0.365464,-0.183358 0.643377,0.0099 0.608002,0.422813 -0.01358,0.15842 0.0496,0.453697 0.140389,0.656171 0.163091,0.363734 0.162922,0.371044 -0.01414,0.611921 -0.09857,0.134081 -0.206354,0.368057 -0.239523,0.519937 -0.04312,0.197443 -0.145367,0.316744 -0.358734,0.418571 -0.348424,0.166284 -0.437217,0.276959 -0.293748,0.366133 0.06425,0.03993 0.07933,0.02565 0.04017,-0.03807 -0.09264,-0.150758 0.05064,-0.120383 0.284076,0.06022 0.192872,0.149222 0.200994,0.195133 0.141666,0.800681 -0.05442,0.555439 -0.09066,0.655085 -0.267745,0.736233 -0.242474,0.11111 -0.185777,0.276839 0.0671,0.196124 0.107125,-0.0342 0.214783,-0.0043 0.278138,0.07731 0.05685,0.0732 0.182437,0.146621 0.279078,0.163154 0.09664,0.01653 0.213965,0.117483 0.260717,0.224334 0.04903,0.11206 0.17916,0.205319 0.307499,0.220377 0.165289,0.0194 0.220814,0.07608 0.21598,0.220513 -0.0036,0.106928 0.02607,0.174161 0.06589,0.149413 0.03982,-0.02474 0.0724,-0.0031 0.0724,0.04858 0,0.05147 -0.03954,0.09358 -0.08786,0.09358 -0.04832,0 -0.08787,0.07621 -0.08787,0.169353 0,0.09315 -0.04941,0.189406 -0.109819,0.213918 -0.0604,0.02451 -0.07028,0.04762 -0.02194,0.05134 0.05337,0.0041 0.07649,0.288054 0.0589,0.723474 l -0.02895,0.716706 -0.27854,-0.05369 c -0.177213,-0.03416 -0.234366,-0.02512 -0.157111,0.02487 0.09669,0.06257 0.08577,0.08995 -0.05351,0.134415 -0.09623,0.03072 -0.23374,0.03316 -0.305603,0.0054 -0.07186,-0.02772 -0.304758,0.01496 -0.517547,0.09485 -0.367453,0.137967 -0.539918,0.175626 -1.045804,0.228367 -0.204837,0.02135 -0.217628,0.05092 -0.189772,0.438789 0.02845,0.396069 0.01385,0.426835 -0.305926,0.645374 -0.184686,0.126213 -0.403353,0.229481 -0.485924,0.229481 -0.08256,0 -0.174966,0.04041 -0.205316,0.0898 -0.03034,0.04939 -0.08648,0.07034 -0.124738,0.04656 -0.07394,-0.04596 0.01568,0.508846 0.124446,0.770425 0.03691,0.08876 0.01813,0.212272 -0.04368,0.28716 -0.105361,0.127672 -0.03381,0.178783 0.198605,0.141875 0.03624,-0.0057 0.06588,0.08894 0.06588,0.210432 0,0.12149 -0.03954,0.22089 -0.08786,0.22089 -0.04832,0 -0.08785,0.05511 -0.08785,0.122439 0,0.290704 -0.222678,0.540337 -0.492219,0.551811 -0.149468,0.0064 -0.40626,0.07388 -0.570653,0.150051 -0.164391,0.07617 -0.417498,0.150485 -0.562459,0.165147 -0.213992,0.02164 -0.304885,0.105558 -0.483206,0.446107 -0.161388,0.308199 -0.271474,0.419511 -0.415077,0.419699 -0.120227,1.56e-4 -0.402758,0.204276 -0.734155,0.530398 -0.296694,0.291974 -0.617953,0.530144 -0.715084,0.530144 -0.249482,0 -0.835997,0.348813 -0.993805,0.591041 -0.07316,0.112296 -0.20401,0.204176 -0.290767,0.204176 -0.08675,0 -0.359068,0.06013 -0.605136,0.133623 -0.386855,0.11554 -0.490457,0.19886 -0.765581,0.615723 -0.175006,0.265156 -0.369981,0.513173 -0.433281,0.551147 -0.0633,0.03797 -0.188419,0.18833 -0.278041,0.334122 -0.08962,0.145789 -0.172102,0.278809 -0.183286,0.295596 -0.0112,0.0168 -0.143919,-0.102491 -0.294963,-0.265072 l -0.274625,-0.295596 0.04613,0.265072 c 0.06294,0.361688 -0.190233,0.806736 -0.566897,0.99651 -0.384557,0.193746 -0.381349,0.440148 0.0163,1.252496 0.325499,0.66496 1.732591,2.192315 2.173473,2.35924 0.239504,0.09067 0.340452,0.06829 0.908392,-0.201356 0.351421,-0.166854 0.757553,-0.436662 0.902514,-0.599569 0.144961,-0.162911 0.369894,-0.320959 0.499846,-0.351218 0.221177,-0.0515 0.238025,-0.03381 0.263567,0.276657 0.02005,0.243887 0.07962,0.354768 0.224963,0.418903 0.131018,0.05781 0.197678,0.163579 0.197678,0.313668 0,0.124547 0.04587,0.272573 0.101921,0.328951 0.215276,0.216509 -0.542787,0.613718 -1.312218,0.687572 -0.158299,0.01519 -0.395508,-0.0289 -0.527134,-0.09795 -0.131628,-0.06905 -0.360922,-0.125806 -0.509539,-0.126106 -0.295932,-6.68e-4 -0.45632,0.143716 -0.905459,0.814689 -0.314544,0.469902 -0.884589,0.848463 -1.372179,0.911245 -0.397304,0.05116 -0.507985,0.113265 -0.454001,0.254753 0.02265,0.05932 -0.03397,0.155037 -0.125794,0.212707 -0.192062,0.120632 -0.197483,0.107289 -0.08126,-0.200144 0.06688,-0.176893 0.05849,-0.226644 -0.03824,-0.226644 -0.06816,0 -0.174407,0.140409 -0.23611,0.312019 l -0.112152,0.3119 -0.159164,-0.31202 c -0.559864,-1.097514 -0.139842,0.659914 0.104112,0.659914 0.308701,0 -0.305878,0.908571 -0.840515,1.24258 -0.30787,0.192339 -0.85806,0.219948 -1.146967,0.05756 l 2.7e-5,1.64e-4 c -0.170974,-0.09609 -0.17786,-0.125241 -0.0659,-0.278831 0.181844,-0.24944 0.153236,-0.549637 -0.06719,-0.704901 -0.318391,-0.224284 -0.271211,-0.367574 0.10902,-0.331107 0.264006,0.02531 0.236661,-0.804963 0.117133,-0.835134 0.485408,-0.41721 -0.219085,-0.862795 -0.385379,-0.165919 l -0.04393,0.246554 -0.116001,-0.323647 c -0.174434,-0.48668 -0.874822,-0.792719 -1.082278,-0.472905 -0.03239,0.04994 -0.274749,-0.04914 -0.572794,-0.234142 -0.56142,-0.34851 -1.014977,-0.414682 -1.309049,-0.190986 -0.250347,0.190435 -0.536798,0.168417 -0.592431,-0.04554 -0.05993,-0.230492 0.887723,-1.211722 1.651871,-1.710399 0.289925,-0.189198 0.738143,-0.504627 0.99604,-0.700947 0.515364,-0.392312 0.537441,-0.507251 0.224723,-1.170014 -0.132024,-0.279813 -0.386133,-0.41929 -0.386133,-0.211948 0,0.1801 -0.409501,0.290907 -0.699424,0.189262 -0.228096,-0.07997 -0.32097,-0.06711 -0.555947,0.07698 -0.155157,0.09514 -0.432271,0.17314 -0.615808,0.173321 -0.183536,1.79e-4 -0.497357,0.07985 -0.697383,0.177042 -0.483127,0.234757 -0.949479,0.222999 -1.453758,-0.03665 -0.501173,-0.258053 -0.689269,-0.514105 -0.496098,-0.67534 0.114128,-0.09525 0.111524,-0.129165 -0.02124,-0.27671 -0.122488,-0.136121 -0.257474,-0.164693 -0.70867,-0.150002 -0.306549,0.01 -0.597186,-0.02191 -0.64586,-0.07086 -0.05943,-0.05976 0.27289,-0.075 1.011659,-0.04639 l 1.100156,0.04263 0.440031,-0.475718 c 0.242018,-0.261641 0.440723,-0.505536 0.441569,-0.541982 8.31e-4,-0.03644 0.05096,-0.0664 0.111359,-0.06655 0.06039,-1.57e-4 0.761704,-0.107246 1.051629,-0.301315 l 0.303747,-0.493631 c -0.176193,0 -0.45235,0.115701 -0.738124,0.309252 -0.251131,0.170086 -0.496739,0.309249 -0.545793,0.309249 -0.04905,0 -0.21864,0.143538 -0.376854,0.318972 L 30.7711,39.175945 c 0.07483,-0.08594 0.226652,-0.308988 -0.188732,-0.06587 -0.503724,0.118177 -1.282827,0.369416 -2.980446,0.318584 -0.17731,-0.0053 -0.239553,0.172847 -0.429985,0.144738 -0.145529,-0.02148 -0.431221,0.03276 -0.634868,0.120565 -0.236858,0.102108 -0.478964,0.141882 -0.671939,0.110388 -0.366152,-0.05976 -0.672872,0.195564 -0.672872,0.560116 0,0.262542 0.22201,0.559191 0.418492,0.559191 0.154598,0 0.0999,0.274441 -0.169629,0.851121 -0.146443,0.313322 -0.205985,0.369979 -0.303388,0.288679 -0.06665,-0.05563 -0.121186,-0.153035 -0.121186,-0.216452 m 17.966544,-6.401474 c 0.259173,-0.15769 -0.606594,0.1989 -0.198069,0.249183 0.145577,0.01792 0.05972,-0.165011 0.198069,-0.249183 z m 4.765272,-13.73533 c -0.134787,-0.147169 -0.174481,-0.119501 -0.1018,0.07096 0.03034,0.07958 0.0902,0.122921 0.132976,0.09634 0.04277,-0.02657 0.02876,-0.101867 -0.03118,-0.167295 z m -8.351288,-0.418442 c -0.02806,-0.07047 -0.04887,-0.04955 -0.05307,0.05338 -0.0037,0.09315 0.01693,0.145332 0.04614,0.115972 0.02918,-0.02936 0.03232,-0.105569 0.0069,-0.169354 z M 34.628791,18.79014 c -0.275612,-0.277188 -0.308995,-0.277314 -0.181422,-6.67e-4 0.05586,0.12111 0.168944,0.220513 0.251308,0.220895 0.122294,6.68e-4 0.10948,-0.03982 -0.06989,-0.220207 z m -2.38608,-0.106533 c -0.129865,-0.02514 -0.200056,-0.104386 -0.204612,-0.230949 -0.0037,-0.105963 -0.02731,-0.141649 -0.05222,-0.0793 -0.07849,0.196486 0.04594,0.373069 0.254069,0.360572 l 0.200433,-0.01203 z m 1.835017,-0.360678 c -0.06338,-0.02124 -0.157013,0.0034 -0.208066,0.05472 -0.06519,0.06557 -0.03089,0.07707 0.115242,0.03863 0.118798,-0.03126 0.158623,-0.0713 0.09282,-0.09336 z m -3.174817,-3.022907 c 0,-0.04859 -0.04187,-0.08836 -0.09304,-0.08836 -0.05117,0 -0.06861,0.03975 -0.03873,0.08836 0.02987,0.0486 0.07173,0.08836 0.09304,0.08836 0.02131,0 0.03875,-0.03976 0.03875,-0.08836 z m -0.408954,-0.578127 c -0.02861,-0.07499 -0.07087,-0.117397 -0.09389,-0.09423 -0.02304,0.02317 -0.01582,0.08452 0.01604,0.136347 0.08663,0.14097 0.137264,0.113583 0.07785,-0.0421 z m -5.489256,27.357628 c 0.162155,0.201394 0.160678,0.208484 -0.144636,0.694558 -0.388052,0.617796 -0.36668,0.596277 -0.452876,0.456007 -0.05841,-0.09505 -0.106873,-0.08585 -0.246442,0.04674 -0.09556,0.09078 -0.318004,0.276367 -0.494337,0.412414 -0.276662,0.213458 -0.307484,0.272019 -0.22487,0.427265 0.111309,0.209173 0.05831,0.296995 -0.134352,0.222637 -0.08677,-0.03348 -0.135572,-0.164622 -0.135572,-0.364345 0,-0.216663 -0.03976,-0.312023 -0.13011,-0.312023 -0.179395,0 -0.253811,0.36466 -0.193782,0.949602 0.0585,0.570012 0.236292,0.823945 0.451266,0.644513 0.114751,-0.09579 0.136381,-0.08763 0.137393,0.05177 6.63e-4,0.091 0.02504,0.254907 0.05418,0.36425 0.03178,0.119283 0.01374,0.198803 -0.04512,0.198803 -0.05395,0 -0.0981,-0.05507 -0.0981,-0.122373 0,-0.219719 -0.459448,-0.442126 -0.922485,-0.44655 -0.385295,-0.0036 -0.514856,0.04838 -1.054269,0.423591 -0.338245,0.235284 -0.69406,0.499077 -0.790701,0.586208 -0.161056,0.145205 -0.214964,0.148117 -0.6463,0.03489 v -3e-6 c -0.592355,-0.155479 -0.593796,-0.156461 -0.767068,-0.523692 -0.07928,-0.168026 -0.179175,-0.3055 -0.22199,-0.3055 -0.04281,0 -0.07784,-0.05964 -0.07784,-0.132535 0,-0.152675 0.482246,-0.188708 0.571948,-0.04274 0.126228,0.205409 0.225523,-0.05012 0.201038,-0.517351 -0.01907,-0.3639 0.0037,-0.494182 0.08361,-0.478112 0.06039,0.01216 0.09993,-0.01773 0.08786,-0.06641 -0.01208,-0.04868 0.07688,-0.139844 0.197674,-0.20259 0.184198,-0.09567 0.21502,-0.166654 0.191006,-0.439865 -0.02617,-0.297775 -0.0016,-0.338738 0.285532,-0.476455 0.232591,-0.111549 0.314164,-0.206231 0.314164,-0.364653 0,-0.153904 0.03699,-0.199702 0.131784,-0.163124 0.09044,0.03491 0.131783,-0.0053 0.131783,-0.128297 0,-0.09854 -0.03669,-0.156352 -0.08152,-0.12848 -0.104539,0.06498 -0.202153,-0.238146 -0.134112,-0.416469 0.02856,-0.07482 0.01008,-0.162015 -0.04093,-0.193754 -0.05802,-0.03606 -0.07323,0.0021 -0.04056,0.101506 0.02874,0.08756 -0.03101,0.02903 -0.132791,-0.130083 -0.10179,-0.159114 -0.185059,-0.363284 -0.185059,-0.453715 0,-0.219884 0.422657,-0.501872 0.554097,-0.369681 0.116635,0.1173 0.558272,0.12813 0.627553,0.0154 0.02823,-0.04593 0.166855,-0.02251 0.319186,0.05391 0.160416,0.08049 0.373223,0.114204 0.526353,0.0834 0.220777,-0.0444 0.258499,-0.02394 0.267252,0.144888 0.0078,0.149559 0.0198,0.1596 0.05037,0.04196 0.0221,-0.08504 0.0867,-0.155232 0.143555,-0.155977 0.06037,-6.68e-4 0.04854,-0.03699 -0.0284,-0.087 -0.112622,-0.0732 -0.109426,-0.08584 0.02196,-0.087 0.08578,-6.68e-4 0.156814,0.067 0.160684,0.153273 0.0042,0.09237 0.02478,0.110156 0.05126,0.04417 0.02437,-0.06075 0.102656,-0.110447 0.173961,-0.110447 0.0713,0 0.107771,0.03559 0.08104,0.07911 -0.02673,0.04351 0.0092,0.101407 0.07986,0.128677 0.07066,0.02725 0.151831,0.01156 0.180391,-0.03492 0.02857,-0.04648 0.01008,-0.08451 -0.04111,-0.08451 -0.05117,0 -0.08992,-0.06959 -0.0861,-0.154625 0.0042,-0.09237 0.02478,-0.11016 0.05126,-0.04418 0.02437,0.06075 0.09702,0.110447 0.161455,0.110447 0.06443,0 0.134426,0.04971 0.155554,0.110446 0.02792,0.08029 0.08752,0.06665 0.218238,-0.04994 l 0.08884,-0.29461 c -0.28045,0.07376 -0.757399,-0.163582 -0.805217,-0.400689 -0.112688,-0.558771 -0.12398,-0.760424 -0.04692,-0.837924 0.05378,-0.05408 -0.0025,-0.162633 -0.155848,-0.300046 -0.13206,-0.118419 -0.192513,-0.152351 -0.134343,-0.0754 0.09121,0.120632 0.06664,0.140268 -0.178369,0.142581 -0.306065,0.0031 -0.531849,-0.121136 -0.453279,-0.248992 0.02671,-0.04346 -0.01041,-0.138358 -0.08254,-0.210883 -0.196602,-0.197724 -0.283037,-0.158849 -0.09974,0.04485 0.08745,0.09719 0.11726,0.176716 0.06622,0.176716 -0.05104,0 -0.177202,-0.143878 -0.280366,-0.319729 -0.159739,-0.272272 -0.178659,-0.398996 -0.127491,-0.853851 0.05649,-0.50213 0.0501,-0.529761 -0.106631,-0.461241 -0.09169,0.04009 -0.246958,0.07123 -0.345023,0.06919 -0.192076,-0.0039 -0.887461,-0.441064 -0.858291,-0.539488 0.0098,-0.0328 -0.04276,-0.152411 -0.116628,-0.265791 -0.122729,-0.188377 -0.120467,-0.216412 0.02626,-0.325253 0.143674,-0.106588 0.165615,-0.0942 0.208666,0.117786 l 0.0481,0.236899 0.04952,-0.242982 c 0.02724,-0.133643 0.01513,-0.242985 -0.02691,-0.242985 -0.04204,0 -0.05826,-0.228625 -0.03604,-0.508055 0.03121,-0.392516 0.02404,-0.437727 -0.0316,-0.198803 -0.06463,0.277639 -0.07318,0.284836 -0.08356,0.07043 -0.0064,-0.131352 -0.05601,-0.336931 -0.110334,-0.456836 -0.08655,-0.191039 -0.14697,-0.214773 -0.488316,-0.191824 -0.328487,0.02208 -0.410914,-0.0066 -0.52588,-0.183072 -0.07498,-0.115092 -0.113644,-0.268731 -0.08591,-0.341419 0.02773,-0.07269 0.0222,-0.128333 -0.0123,-0.123661 -0.149516,0.02023 -0.451836,-0.12601 -0.40798,-0.197378 0.02647,-0.04307 -0.01585,-0.07831 -0.09403,-0.07831 -0.07818,0 -0.117718,0.03976 -0.08786,0.08836 0.03121,0.05078 -0.04924,0.08836 -0.18919,0.08836 -0.159612,0 -0.30903,-0.08267 -0.433757,-0.239983 -0.172384,-0.217432 -0.212309,-0.229888 -0.424748,-0.132542 -0.354842,0.1626 -0.424224,0.139881 -0.891876,-0.292042 -0.452544,-0.417971 -0.896564,-0.602826 -1.239847,-0.516176 -0.149101,0.03764 -0.203027,0.01349 -0.203027,-0.09087 0,-0.07816 -0.08508,-0.227686 -0.189079,-0.332272 -0.177058,-0.178069 -0.196149,-0.180437 -0.300262,-0.03724 -0.06115,0.0841 -0.389194,0.224839 -0.728986,0.312741 m 5.523332,12.646408 c 0,-0.04404 -0.07908,-0.05929 -0.175711,-0.03387 -0.09664,0.02541 -0.175712,0.06146 -0.175712,0.08008 0,0.01863 0.07906,0.03388 0.175712,0.03388 0.09664,0 0.175711,-0.03604 0.175711,-0.08009 z m 0.558235,-1.407745 c 0.147386,-0.163792 0.156539,-0.655353 0.01467,-0.787711 -0.03886,-0.03626 -0.04833,0.07976 -0.02106,0.25782 0.05091,0.332155 -0.04583,0.543902 -0.28831,0.631054 -0.11163,0.04012 -0.110355,0.04844 0.0083,0.05434 0.07707,0.0038 0.205925,-0.06614 0.28634,-0.155507 z m 1.638137,-2.964753 c 0,-0.0191 -0.06136,-0.0584 -0.136347,-0.08735 -0.07819,-0.03019 -0.11345,-0.01536 -0.08267,0.03472 0.05158,0.08396 0.219018,0.124184 0.219018,0.05262 z m 13.547352,4.788353 c -0.05798,-0.0583 -0.105427,-0.180276 -0.105427,-0.271026 0,-0.130261 0.04162,-0.152164 0.197674,-0.104047 0.742345,0.228873 0.20719,0.676238 -0.09225,0.375065 z M 21.238802,40.65341 c 0,-0.05147 0.03954,-0.06901 0.08786,-0.03896 0.04832,0.03002 0.08786,0.07214 0.08786,0.09358 0,0.02144 -0.03954,0.03896 -0.08786,0.03896 -0.04832,0 -0.08786,-0.0421 -0.08786,-0.09358 z m 0.989034,-20.433627 c 0.159607,-0.321948 0.419663,-0.355519 0.278338,-0.727693 -0.08149,-0.214599 -0.19931,-0.432867 -0.261822,-0.485044 -0.09269,-0.07736 -0.09057,-0.150425 0.01146,-0.396024 0.0688,-0.165637 0.125117,-0.418877 0.125117,-0.562754 0,-0.143884 0.05565,-0.317567 0.123663,-0.38597 0.06802,-0.0684 0.151641,-0.349572 0.185835,-0.624816 0.05367,-0.431977 0.08783,-0.500607 0.249724,-0.501649 0.103159,-6.67e-4 0.283174,-0.02695 0.400046,-0.05838 0.173472,-0.04668 0.202212,-0.03022 0.156505,0.08957 -0.104573,0.274066 0.0818,0.148358 0.208171,-0.140425 0.122852,-0.280707 0.137025,-0.286645 0.630846,-0.264267 0.454917,0.0206 0.505171,0.0051 0.505171,-0.154625 0,-0.09764 0.212275,-0.131783 0.145681,-0.02341 -0.02483,0.04042 0.0585,0.08211 0.185189,0.09266 0.126692,0.01052 0.257279,0.06299 0.290193,0.116559 0.03499,0.05694 0.1414,0.07135 0.256196,0.0347 0.259009,-0.08268 0.622567,-0.40468 0.564178,-0.499692 -0.02537,-0.04127 -0.01527,-0.124746 0.02242,-0.185492 0.108713,-0.175196 0.122851,-0.405972 0.02846,-0.46464 -0.04765,-0.02962 -0.08663,-0.09631 -0.08663,-0.148231 0,-0.09192 0.431859,-0.06513 1.125079,0.06979 0.231618,0.04509 0.336793,0.0141 0.519239,-0.153025 0.200415,-0.183572 0.221127,-0.18826 0.167012,-0.0378 -0.06025,0.167509 -0.05734,0.16772 0.117715,0.0083 0.09872,-0.08985 0.178887,-0.206904 0.178147,-0.260118 -7.3e-4,-0.05322 -0.0424,-0.03711 -0.09258,0.03579 -0.07584,0.110163 -0.08671,0.103652 -0.06441,-0.0386 0.01722,-0.109847 0.132478,-0.198668 0.321853,-0.24802 0.350896,-0.09145 0.47862,-0.01825 0.178697,0.102404 -0.193622,0.07789 -0.195801,0.0851 -0.02728,0.09026 0.173203,0.0053 0.181078,0.04154 0.143,0.703075 -0.03808,0.661539 -0.03046,0.700565 0.158452,0.76087 0.193696,0.06182 0.191615,0.06785 -0.08428,0.243529 -0.427585,0.272272 -0.563397,0.72803 -0.296832,0.996114 0.250066,0.251499 0.08822,0.402255 -0.938105,0.873832 -0.120802,0.05551 -0.232273,0.189052 -0.247714,0.296772 -0.0161,0.11228 -0.09108,0.19668 -0.175712,0.197791 -0.217173,0.0031 -0.909306,0.335047 -1.127725,0.541259 m 1.150628,-3.942146 c -0.221155,-0.168227 -0.341409,-0.172015 -0.195967,-0.0062 0.0623,0.07104 0.170257,0.130686 0.239895,0.132536 0.08904,0.0023 0.07599,-0.03514 -0.04393,-0.126365 z m 19.185176,6.166032 c 0.06343,-0.02551 0.139197,-0.02237 0.168392,0.007 0.02918,0.02934 -0.02271,0.05024 -0.115313,0.04641 -0.102349,-0.0043 -0.123166,-0.02518 -0.05307,-0.05338 z M 21.601114,19.694338 c -0.08676,-0.08662 -0.09686,-0.07647 -0.04917,0.04947 0.03299,0.08713 0.08211,0.136179 0.109162,0.108976 0.02705,-0.02722 5.6e-5,-0.0985 -0.05998,-0.158436 z m 13.822761,0.0177 c -0.03186,-0.05183 -0.03906,-0.113185 -0.01604,-0.136347 0.02304,-0.02318 0.06529,0.01923 0.09389,0.09423 0.05941,0.155693 0.0088,0.183081 -0.07785,0.0421 z M 8.9389891,18.922681 c 0.072481,-0.04711 0.250389,-0.08229 0.3953508,-0.0782 0.2582822,0.0073 0.2591631,0.0089 0.043928,0.0782 -0.1208015,0.03891 -0.2987096,0.07409 -0.3953507,0.0782 -0.1447549,0.0061 -0.1524941,-0.0077 -0.043928,-0.0782 z M 26.172583,15.300026 c 0,-0.121492 0.01994,-0.171193 0.04431,-0.110448 0.02437,0.06075 0.02437,0.160149 0,0.220894 -0.02437,0.06075 -0.04431,0.01105 -0.04431,-0.110446 z m -3.96738,23.287404 c 0,-0.02144 -0.03954,-0.06353 -0.08786,-0.09357 -0.04832,-0.03002 -0.08785,-0.01249 -0.08785,0.03896 0,0.05147 0.03953,0.09358 0.08785,0.09358 0.04832,0 0.08786,-0.01754 0.08786,-0.03896 z m -0.113709,-1.043415 c -0.02093,-0.109337 -0.03808,-0.01987 -0.03808,0.198804 0,0.218683 0.01714,0.308148 0.03808,0.198803 0.02093,-0.109348 0.02093,-0.288266 0,-0.397607 z m -0.678755,-0.200941 c -0.06112,-0.07408 -0.134006,-0.111666 -0.16196,-0.08355 -0.02796,0.02812 0.0073,0.08811 0.07841,0.13332 0.185987,0.118295 0.210289,0.103817 0.08354,-0.04976 z m -0.302121,-0.212879 c -0.03186,-0.05183 -0.09667,-0.09423 -0.144044,-0.09423 -0.04738,0 -0.03515,0.05563 0.02714,0.123624 0.126131,0.137647 0.207043,0.117303 0.116897,-0.02939 z m 0.655306,-0.0059 c 0,-0.04859 -0.03953,-0.08836 -0.08786,-0.08836 -0.04832,0 -0.08786,0.03976 -0.08786,0.08836 0,0.04859 0.03954,0.08836 0.08786,0.08836 0.04832,0 0.08786,-0.03976 0.08786,-0.08836 z M 6.8304518,36.108207 c 0.1208016,-0.06945 0.1801042,-0.126275 0.1317837,-0.126275 -0.048321,0 -0.1866933,0.05683 -0.307495,0.126275 -0.1208015,0.06945 -0.1801042,0.126272 -0.1317834,0.126272 0.04832,0 0.1866932,-0.05683 0.3074947,-0.126272 z m 2.8088388,-0.04074 c 0.2290188,-0.145662 0.037339,-0.187863 -0.2259875,-0.04975 -0.2035233,0.106741 -0.2193832,0.133409 -0.078963,0.132765 0.096641,-3.34e-4 0.2338689,-0.0378 0.3049505,-0.08302 z m -2.3054988,-0.05684 c -0.029194,-0.02936 -0.1049688,-0.0325 -0.1683901,-0.007 -0.070086,0.02822 -0.049268,0.04915 0.053079,0.05339 0.092614,0.0038 0.1445042,-0.01707 0.1153105,-0.04641 z m 4.8046002,-0.88702 c 0.08071,-0.211534 0.0178,-0.22778 -0.106555,-0.02752 -0.05898,0.09499 -0.0716,0.172698 -0.02803,0.172698 0.04357,0 0.104134,-0.06534 0.134596,-0.145185 z m 1.984084,-1.391609 c 0,-0.0191 -0.0593,-0.05761 -0.131783,-0.08558 -0.07249,-0.02799 -0.131784,-0.01236 -0.131784,0.03472 0,0.04708 0.0593,0.08558 0.131784,0.08558 0.07249,0 0.131783,-0.01563 0.131783,-0.03472 z M 13.463559,33.59001 c 0.115859,-0.05007 0.130822,-0.0776 0.04393,-0.08079 -0.07249,-0.0026 -0.191087,0.03368 -0.263567,0.08079 -0.160598,0.104375 -0.02189,0.104375 0.219639,0 z M 2.0091126,30.349509 c -0.076569,-0.132428 -0.093718,-0.136245 -0.095908,-0.02135 -0.00285,0.148801 0.089544,0.282779 0.1518073,0.220159 0.02054,-0.02064 -0.00458,-0.110116 -0.055897,-0.198806 z m -0.1864363,-0.72835 c 0,-0.04462 0.022995,-0.153965 0.051101,-0.242982 0.046763,-0.148106 0.039298,-0.147285 -0.087853,0.0096 -0.1591283,0.196411 -0.1783098,0.314453 -0.051101,0.314453 0.04832,0 0.087853,-0.03651 0.087853,-0.08113 z m 0.3098195,-0.697023 c -0.027049,-0.02722 -0.09794,-5.7e-5 -0.1575366,0.06032 -0.086121,0.08727 -0.07603,0.09741 0.049176,0.04947 0.086645,-0.0332 0.135405,-0.08259 0.1083559,-0.109789 z m 2.7156968,-1.066648 c -0.4406029,-46.584067 -0.4406029,-46.584067 0,0 z M 3.7115739,26.874849 c 0.029864,-0.04859 0.01243,-0.08836 -0.038743,-0.08836 -0.051172,0 -0.09304,0.03975 -0.09304,0.08836 0,0.04859 0.017434,0.08836 0.038743,0.08836 0.021309,0 0.063177,-0.03976 0.09304,-0.08836 z m 1.8264754,-1.678704 c 0.02526,-0.09714 0.0101,-0.198894 -0.033681,-0.226107 -0.043784,-0.02722 -0.079609,0.05227 -0.079609,0.176625 0,0.270733 0.050073,0.292604 0.113289,0.04948 z m 9.8144067,-5.124817 c 0,-0.04859 -0.04187,-0.08836 -0.09304,-0.08836 -0.05117,0 -0.06861,0.03976 -0.03875,0.08836 0.02987,0.04859 0.07173,0.08836 0.09304,0.08836 0.02131,0 0.03875,-0.03976 0.03875,-0.08836 z M 12.51911,19.391917 c -0.08457,-0.02221 -0.222934,-0.02221 -0.307495,0 -0.08456,0.02225 -0.01538,0.04041 0.153747,0.04041 0.169122,0 0.238309,-0.01819 0.153748,-0.04041 z M 11.355021,19.27611 c -0.02987,-0.04859 -0.140918,-0.0844 -0.246787,-0.07955 -0.179191,0.0081 -0.177315,0.01369 0.02715,0.07955 0.120801,0.0389 0.231855,0.0747 0.246788,0.07954 0.01493,0.0049 0.0027,-0.03095 -0.02715,-0.07954 z m 0.593026,-0.05852 c -0.06039,-0.02451 -0.159238,-0.02451 -0.219639,0 -0.06039,0.02451 -0.01098,0.04456 0.10982,0.04456 0.120801,0 0.170221,-0.02004 0.109819,-0.04456 z M 8.4997108,19.06043 c 0,-0.02144 -0.039535,-0.06353 -0.087856,-0.09358 -0.04832,-0.03002 -0.087855,-0.01249 -0.087855,0.03896 0,0.05147 0.039535,0.09358 0.087855,0.09358 0.048321,0 0.087856,-0.01754 0.087856,-0.03896 z M 8.1922157,18.83432 c -0.029865,-0.04859 -0.1013834,-0.08775 -0.1589326,-0.087 -0.06287,6.68e-4 -0.052034,0.03554 0.027149,0.087 0.1687817,0.109699 0.1991958,0.109699 0.1317836,0 z"
       id="path1"
       sodipodi:nodetypes="csssssscsscssssssssscsssssssssssssssssssssssssssscssscsscsscsssscscscsssscssssssssssccssscsssssssssssssssssssssscscsscssccscssssssssssssssssssscscsssccccssssssccscsssssszsssssssssssssscsscsssssssssscssssssssssssssssssscscccsssssssssscsssssssssssssssssssccsssscssssssssssssssssscsssscssssssssssssssssssssssscssscccssssssssssscsssssssssssssscssssssssssssscssssssscsssccssssscssssssssssssssssssscscsccssscssscssssscssscssccssssscsccccsscccssccsssssssssscsssssssssssssssssssssssssssssssssssssssssssscscsssscsssssscsccsssscsssssssssssscssssssssssssssssssssscssssssssssssssssssssssscssssssscsscsscsssssssssscssssszsssssccsssscssscssscsssscsssssssssssssssssssssssssssssssssssscsscsssssssssssssssssscsssccssccssscssssssssssssscssscssccscccsccsccssscsssssscsssscss"
       inkscape:label="border"
       transform="translate(10.308741,18.586919)" /></g></svg>
