<?xml version="1.0" encoding="UTF-8" standalone="no"?>
<!-- Created with Inkscape (http://www.inkscape.org/) -->

<svg
   width="57.676445mm"
   height="50.000004mm"
   viewBox="0 0 57.676445 50.000004"
   version="1.1"
   id="svg1"
   inkscape:version="1.4.2 (ebf0e940d0, 2025-05-08)"
   sodipodi:docname="stop.svg"
   xmlns:inkscape="http://www.inkscape.org/namespaces/inkscape"
   xmlns:sodipodi="http://sodipodi.sourceforge.net/DTD/sodipodi-0.dtd"
   xmlns="http://www.w3.org/2000/svg"
   xmlns:svg="http://www.w3.org/2000/svg">
  <sodipodi:namedview
     id="namedview1"
     pagecolor="#ffffff"
     bordercolor="#000000"
     borderopacity="0.25"
     inkscape:showpageshadow="2"
     inkscape:pageopacity="0.0"
     inkscape:pagecheckerboard="0"
     inkscape:deskcolor="#d1d1d1"
     inkscape:document-units="mm"
     showgrid="false"
     inkscape:zoom="4.3809407"
     inkscape:cx="108.99486"
     inkscape:cy="94.500253"
     inkscape:window-width="1896"
     inkscape:window-height="1032"
     inkscape:window-x="0"
     inkscape:window-y="0"
     inkscape:window-maximized="1"
     inkscape:current-layer="layer1" />
  <defs
     id="defs1" />
  <g
     inkscape:label="engrave"
     inkscape:groupmode="layer"
     id="layer1"
     transform="translate(-76.161777,-50.273881)">
    <path
       style="font-size:19.7556px;font-family:'Source Code Pro';-inkscape-font-specification:'Source Code Pro';text-align:center;letter-spacing:0px;word-spacing:0px;text-anchor:middle;stroke:#000000;stroke-width:0.11;stroke-linejoin:round"
       d="m 88.048116,80.630332 c 2.844806,0 4.583299,-1.639715 4.583299,-3.694297 0,-1.916293 -1.264358,-2.805295 -2.864562,-3.45723 l -1.817515,-0.790224 c -1.106314,-0.454379 -2.311405,-0.908758 -2.311405,-2.153361 0,-1.16558 1.007535,-1.896537 2.508961,-1.896537 1.343381,0 2.331161,0.474134 3.180652,1.224847 l 0.869246,-1.066802 c -0.948269,-0.948269 -2.370672,-1.600204 -3.990631,-1.600204 -2.46945,0 -4.247454,1.461914 -4.247454,3.437474 0,1.896538 1.501425,2.825051 2.805295,3.338697 l 1.857026,0.809979 c 1.323626,0.572913 2.331161,0.968025 2.331161,2.350917 0,1.205091 -1.047047,2.054582 -2.825051,2.054582 -1.48167,0 -2.82505,-0.651935 -3.793075,-1.619959 l -0.98778,1.145825 c 1.165581,1.16558 2.805295,1.916293 4.701833,1.916293 z m 10.924855,-0.237067 h 1.659469 V 68.816483 h 4.26721 V 67.433591 H 94.705761 v 1.382892 h 4.26721 z m 12.683099,0.237067 c 2.92383,0 4.97841,-2.528717 4.97841,-6.776171 0,-4.188187 -2.05458,-6.657637 -4.97841,-6.657637 -2.92383,0 -4.97841,2.46945 -4.97841,6.657637 0,4.247454 2.05458,6.776171 4.97841,6.776171 z m 0,-1.442159 c -1.97556,0 -3.27943,-2.015071 -3.27943,-5.334012 0,-3.259674 1.30387,-5.215478 3.27943,-5.215478 1.97556,0 3.27943,1.955804 3.27943,5.215478 0,3.318941 -1.30387,5.334012 -3.27943,5.334012 z m 7.94176,1.205092 h 1.63972 v -5.136456 h 2.27189 c 2.84481,0 4.80061,-1.284114 4.80061,-4.010387 0,-2.844806 -1.93605,-3.812831 -4.80061,-3.812831 h -3.91161 z m 1.63972,-6.479837 v -5.156212 h 2.07434 c 2.23238,0 3.33869,0.612424 3.33869,2.489206 0,1.837271 -1.0668,2.667006 -3.33869,2.667006 z"
       id="text8"
       transform="scale(0.99217453,1.0078872)"
       aria-label="STOP" />
    <g
       id="text9"
       style="font-size:4.23333px;font-family:'URW Bookman';-inkscape-font-specification:'URW Bookman, Normal';text-align:center;letter-spacing:0px;word-spacing:0px;text-anchor:middle;stroke:#000000;stroke-width:0.11;stroke-linejoin:round"
       aria-label="illegal&#10;deportations">
      <path
         d="m 99.896725,85.472149 h -0.143933 c -0.258233,0.04657 -0.397933,0.06773 -0.622299,0.08467 v 0.127 l 0.08467,0.0085 c 0.224367,0.0254 0.2794,0.09313 0.2794,0.351366 v 0.994832 c 0,0.232834 -0.0762,0.334433 -0.262466,0.351367 l -0.105834,0.0085 v 0.127 h 1.134531 v -0.127 l -0.1016,-0.0085 c -0.186265,-0.01693 -0.262465,-0.118533 -0.262465,-0.351367 z m -0.194733,-0.715432 c -0.143933,0 -0.258233,0.1143 -0.258233,0.253999 0,0.143934 0.1143,0.258234 0.258233,0.258234 0.1397,0 0.254,-0.1143 0.254,-0.258234 0,-0.139699 -0.1143,-0.253999 -0.254,-0.253999 z m 1.460498,-0.2667 h -0.16934 c -0.21166,0.08467 -0.30903,0.105833 -0.5969,0.143933 v 0.131233 l 0.0889,0.0085 c 0.23284,0.02963 0.2794,0.110067 0.27517,0.474133 v 1.790698 c 0,0.232834 -0.0762,0.334433 -0.26247,0.351367 l -0.1016,0.0085 v 0.127 h 1.12607 v -0.127 l -0.0974,-0.0085 c -0.18626,-0.01693 -0.26246,-0.118533 -0.26246,-0.351367 z m 1.26999,0 h -0.16933 c -0.21167,0.08467 -0.30903,0.105833 -0.5969,0.143933 v 0.131233 l 0.0889,0.0085 c 0.23283,0.02963 0.2794,0.110067 0.27517,0.474133 v 1.790698 c 0,0.232834 -0.0762,0.334433 -0.26247,0.351367 l -0.1016,0.0085 v 0.127 h 1.12607 v -0.127 l -0.0974,-0.0085 c -0.18627,-0.01693 -0.26247,-0.118533 -0.26247,-0.351367 z m 2.35796,2.476498 c -0.15663,0.2794 -0.34713,0.406399 -0.61383,0.406399 -0.30056,0 -0.51646,-0.148166 -0.63076,-0.436033 -0.0635,-0.148166 -0.0847,-0.334433 -0.0847,-0.634999 h 1.46896 c -0.004,-0.245533 -0.0593,-0.397933 -0.19896,-0.5588 -0.16933,-0.198966 -0.42757,-0.309033 -0.7239,-0.309033 -0.57997,0 -0.99907,0.436033 -0.99907,1.045633 0,0.283633 0.10584,0.567266 0.2794,0.761999 0.1905,0.2159 0.44874,0.321733 0.76624,0.321733 0.38946,0 0.66039,-0.160866 0.87629,-0.529166 z m -1.31656,-0.833966 c 0.0296,-0.1778 0.055,-0.254 0.12277,-0.3429 0.0889,-0.122766 0.22013,-0.186266 0.38946,-0.186266 0.30904,0 0.50377,0.203199 0.50377,0.529166 z m 2.38336,1.096432 c -0.1905,-0.0254 -0.27516,-0.0762 -0.27516,-0.173566 0,-0.08043 0.072,-0.160867 0.19473,-0.224367 0.17357,0.05503 0.254,0.06773 0.39793,0.06773 0.3048,0 0.53764,-0.08043 0.69004,-0.232834 0.12276,-0.122766 0.19896,-0.313266 0.19896,-0.478366 0,-0.232833 -0.13123,-0.452966 -0.35136,-0.601133 0.0889,-0.131233 0.1524,-0.182033 0.22436,-0.182033 0.0296,0 0.0466,0.0042 0.0974,0.0381 0.0466,0.02963 0.0847,0.04233 0.127,0.04233 0.0974,0 0.16087,-0.0635 0.16087,-0.160866 0,-0.105833 -0.0931,-0.182033 -0.2286,-0.182033 -0.13124,0 -0.27094,0.05503 -0.3556,0.143933 -0.0508,0.0508 -0.0804,0.09313 -0.16087,0.232833 -0.16933,-0.0635 -0.26247,-0.08467 -0.39793,-0.08467 -0.4826,0 -0.87207,0.334433 -0.87207,0.753533 0,0.245533 0.11007,0.4445 0.3429,0.601133 -0.28363,0.09313 -0.41487,0.224366 -0.41487,0.423333 0,0.169333 0.0931,0.275166 0.30904,0.3556 -0.31327,0.118533 -0.4445,0.253999 -0.4445,0.461433 0,0.304799 0.44026,0.516466 1.07526,0.516466 0.69004,0 1.1303,-0.2667 1.1303,-0.6858 0,-0.118533 -0.0339,-0.224366 -0.0974,-0.304799 -0.0931,-0.1143 -0.24554,-0.173567 -0.54187,-0.2159 z m 0.3429,-1.659465 c 0.2921,0 0.4318,0.194733 0.4318,0.596899 0,0.402167 -0.14393,0.5969 -0.4445,0.5969 -0.3048,0 -0.44873,-0.194733 -0.44873,-0.601133 0,-0.372533 0.16933,-0.592666 0.46143,-0.592666 z m 0.37254,2.142065 c 0.31326,0.0381 0.43603,0.118533 0.43603,0.283633 0,0.2413 -0.32597,0.3937 -0.83397,0.3937 -0.48683,0 -0.82126,-0.1651 -0.82126,-0.402167 0,-0.160866 0.12276,-0.296333 0.35136,-0.380999 z m 2.21826,-1.388532 c -0.0339,0.0042 -0.1016,0.0127 -0.2032,0.02117 -0.2667,0.02963 -0.35983,0.04233 -0.51223,0.08467 -0.4699,0.118533 -0.7112,0.325966 -0.7112,0.609599 0,0.3048 0.27517,0.524933 0.65193,0.524933 0.28787,0 0.49107,-0.08467 0.7747,-0.325966 0.0804,0.2286 0.22437,0.325966 0.47414,0.325966 0.18203,0 0.3175,-0.0508 0.43603,-0.1651 l -0.0804,-0.110066 c -0.072,0.0635 -0.11854,0.08467 -0.1905,0.08467 -0.0889,0 -0.1651,-0.04233 -0.19897,-0.118533 -0.0296,-0.05927 -0.0381,-0.1143 -0.0381,-0.296333 v -0.897466 c 0,-0.254 -0.0677,-0.385233 -0.2413,-0.482599 -0.15663,-0.0889 -0.37253,-0.143934 -0.5715,-0.143934 -0.49107,0 -0.92287,0.254 -0.92287,0.537633 0,0.1016 0.0931,0.186267 0.2032,0.186267 0.11854,0 0.2159,-0.09737 0.2159,-0.2159 l -0.004,-0.118533 c 0,-0.122767 0.1905,-0.220133 0.42757,-0.220133 0.30056,0 0.49106,0.143933 0.49106,0.380999 z m 0,0.723899 c -0.2413,0.224367 -0.41486,0.313266 -0.63076,0.313266 -0.19897,0 -0.36407,-0.160866 -0.36407,-0.359833 0,-0.287866 0.3556,-0.474132 0.99483,-0.529166 z m 1.73143,-2.556931 h -0.16933 c -0.21167,0.08467 -0.30903,0.105833 -0.5969,0.143933 v 0.131233 l 0.0889,0.0085 c 0.23283,0.02963 0.2794,0.110067 0.27517,0.474133 v 1.790698 c 0,0.232834 -0.0762,0.334433 -0.26247,0.351367 l -0.1016,0.0085 v 0.127 h 1.12607 v -0.127 l -0.0974,-0.0085 c -0.18627,-0.01693 -0.26247,-0.118533 -0.26247,-0.351367 z"
         id="path5" />
      <path
         d="m 93.707591,90.950078 c -0.2286,-0.156633 -0.4445,-0.224366 -0.702733,-0.224366 -0.529166,0 -0.931333,0.461433 -0.931333,1.071032 0,0.2667 0.0889,0.5461 0.232834,0.736599 0.148166,0.198967 0.406399,0.321734 0.668866,0.321734 0.135466,0 0.287866,-0.03387 0.423333,-0.09313 0.122766,-0.05503 0.186266,-0.09737 0.309033,-0.2286 v 0.283634 h 0.711199 v -0.127 l -0.0508,-0.0085 c -0.186266,-0.02963 -0.254,-0.122767 -0.258233,-0.351366 v -2.548465 h -0.169333 c -0.211667,0.08467 -0.309033,0.105833 -0.5969,0.143933 v 0.131234 l 0.0889,0.0085 c 0.232833,0.02963 0.2794,0.110067 0.275167,0.474133 z m 0,1.367366 c -0.1905,0.232833 -0.372533,0.334433 -0.605366,0.334433 -0.220134,0 -0.3937,-0.110067 -0.4826,-0.309033 -0.07197,-0.156634 -0.1143,-0.3556 -0.1143,-0.554567 0,-0.190499 0.0381,-0.389466 0.110067,-0.541866 0.09737,-0.2159 0.275166,-0.3302 0.516466,-0.3302 0.2032,0 0.3429,0.0635 0.575733,0.254 z m 2.772834,-0.05927 c -0.156633,0.2794 -0.347133,0.4064 -0.613832,0.4064 -0.300567,0 -0.516467,-0.148167 -0.630767,-0.436033 -0.0635,-0.148167 -0.08467,-0.334433 -0.08467,-0.635 h 1.468965 c -0.0042,-0.245533 -0.05927,-0.397933 -0.198966,-0.558799 -0.169333,-0.198967 -0.427566,-0.309033 -0.7239,-0.309033 -0.579966,0 -0.999065,0.436033 -0.999065,1.045632 0,0.283633 0.105833,0.567266 0.279399,0.761999 0.1905,0.2159 0.448733,0.321734 0.766233,0.321734 0.389466,0 0.660399,-0.160867 0.876299,-0.529167 z M 95.16386,91.424211 c 0.02963,-0.1778 0.05503,-0.254 0.122766,-0.3429 0.0889,-0.122766 0.220134,-0.186266 0.389467,-0.186266 0.309033,0 0.503766,0.2032 0.503766,0.529166 z m 2.434167,-0.660399 h -0.143934 c -0.245533,0.04657 -0.376766,0.0635 -0.626532,0.08467 v 0.127 l 0.0889,0.0085 c 0.224367,0.0254 0.2794,0.09313 0.2794,0.351366 v 1.960032 c 0,0.232833 -0.08043,0.334433 -0.262466,0.351366 l -0.105833,0.0085 v 0.127 h 1.138765 v -0.127 l -0.105833,-0.0085 c -0.182033,-0.01693 -0.262466,-0.118533 -0.262466,-0.351366 v -0.656166 c 0.198966,0.1524 0.397933,0.2159 0.668866,0.2159 0.537633,0 0.944032,-0.461433 0.944032,-1.075266 0,-0.262467 -0.0889,-0.537633 -0.232833,-0.728133 -0.1524,-0.2032 -0.414866,-0.325966 -0.690033,-0.325966 -0.279399,0 -0.499533,0.1016 -0.690032,0.317499 z m 0,0.491066 c 0.177799,-0.2413 0.342899,-0.338667 0.558799,-0.338667 0.376766,0 0.6223,0.359834 0.6223,0.9144 0,0.482599 -0.258234,0.833966 -0.618067,0.833966 -0.211666,0 -0.402166,-0.0762 -0.563032,-0.232833 z m 2.950633,-0.529166 c -0.29633,0 -0.558798,0.09737 -0.728132,0.275166 -0.1778,0.186267 -0.296333,0.499533 -0.296333,0.795866 0,0.639233 0.410633,1.058333 1.041395,1.058333 0.61384,0 1.0287,-0.423333 1.0287,-1.049866 0,-0.275167 -0.0974,-0.554566 -0.254,-0.7493 -0.1778,-0.211666 -0.46143,-0.330199 -0.79163,-0.330199 z m 0.004,0.169333 c 0.381,0 0.6096,0.347133 0.6096,0.931332 0,0.537633 -0.22013,0.859366 -0.59266,0.859366 -0.3937,0 -0.613835,-0.325966 -0.613835,-0.897466 0,-0.541866 0.232835,-0.893232 0.596895,-0.893232 z m 2.05317,-0.131233 h -0.14394 c -0.26246,0.0508 -0.40216,0.06773 -0.63923,0.08467 v 0.127 l 0.1016,0.0085 c 0.22437,0.0254 0.2794,0.09313 0.2794,0.351366 v 0.994833 c 0,0.232833 -0.0762,0.334433 -0.26247,0.351366 l -0.10583,0.0085 v 0.127 h 1.13877 v -0.127 l -0.10584,-0.0085 c -0.18626,-0.01693 -0.26246,-0.118533 -0.26246,-0.351366 v -1.037166 c 0.1524,-0.169333 0.2667,-0.237067 0.38946,-0.237067 0.072,0 0.1016,0.0127 0.1778,0.06773 0.0762,0.0508 0.1397,0.07197 0.22014,0.07197 0.13546,0 0.23706,-0.09737 0.23706,-0.232833 0,-0.1397 -0.127,-0.237066 -0.30903,-0.237066 -0.0974,0 -0.19897,0.02117 -0.30057,0.06773 -0.1016,0.04233 -0.12276,0.05927 -0.32596,0.232833 -0.0127,0.0085 -0.0466,0.04233 -0.0889,0.0762 z m 2.55693,0 h -0.60536 v -0.770466 h -0.16087 c 0.004,0.520699 -0.18203,0.753532 -0.5969,0.770466 v 0.139699 h 0.3556 v 1.418166 c 0,0.207433 0.0593,0.338666 0.19473,0.423333 0.11007,0.07197 0.25824,0.110067 0.41064,0.110067 0.24976,0 0.4445,-0.09737 0.5969,-0.296334 l -0.1143,-0.09313 c -0.14394,0.1651 -0.2413,0.220133 -0.3683,0.220133 -0.2159,0 -0.3175,-0.173566 -0.3175,-0.558799 v -1.223433 h 0.60536 z m 1.79493,0.850899 c -0.0339,0.0042 -0.1016,0.0127 -0.2032,0.02117 -0.2667,0.02963 -0.35983,0.04233 -0.51223,0.08467 -0.4699,0.118533 -0.7112,0.325967 -0.7112,0.6096 0,0.304799 0.27516,0.524933 0.65193,0.524933 0.28787,0 0.49107,-0.08467 0.7747,-0.325967 0.0804,0.2286 0.22437,0.325967 0.47413,0.325967 0.18204,0 0.3175,-0.0508 0.43604,-0.1651 l -0.0804,-0.110067 c -0.072,0.0635 -0.11853,0.08467 -0.1905,0.08467 -0.0889,0 -0.1651,-0.04233 -0.19896,-0.118534 -0.0296,-0.05927 -0.0381,-0.114299 -0.0381,-0.296333 v -0.897466 c 0,-0.253999 -0.0677,-0.385233 -0.2413,-0.482599 -0.15664,-0.0889 -0.37254,-0.143933 -0.5715,-0.143933 -0.49107,0 -0.92287,0.253999 -0.92287,0.537633 0,0.101599 0.0931,0.186266 0.2032,0.186266 0.11853,0 0.2159,-0.09737 0.2159,-0.2159 l -0.004,-0.118533 c 0,-0.122767 0.1905,-0.220133 0.42756,-0.220133 0.30057,0 0.49107,0.143933 0.49107,0.381 z m 0,0.723899 c -0.2413,0.224367 -0.41487,0.313267 -0.63077,0.313267 -0.19896,0 -0.36406,-0.160867 -0.36406,-0.359833 0,-0.287867 0.3556,-0.474133 0.99483,-0.529167 z m 2.2352,-1.574798 h -0.60536 v -0.770466 h -0.16087 c 0.004,0.520699 -0.18203,0.753532 -0.5969,0.770466 v 0.139699 h 0.3556 v 1.418166 c 0,0.207433 0.0593,0.338666 0.19473,0.423333 0.11007,0.07197 0.25824,0.110067 0.41063,0.110067 0.24977,0 0.4445,-0.09737 0.5969,-0.296334 l -0.1143,-0.09313 c -0.14393,0.1651 -0.2413,0.220133 -0.3683,0.220133 -0.2159,0 -0.31749,-0.173566 -0.31749,-0.558799 v -1.223433 h 0.60536 z m 1.0922,0 h -0.14394 c -0.25823,0.04657 -0.39793,0.06773 -0.6223,0.08467 v 0.127 l 0.0847,0.0085 c 0.22437,0.0254 0.2794,0.09313 0.2794,0.351366 v 0.994833 c 0,0.232833 -0.0762,0.334433 -0.26247,0.351366 l -0.10583,0.0085 v 0.127 h 1.13453 v -0.127 l -0.1016,-0.0085 c -0.18626,-0.01693 -0.26246,-0.118533 -0.26246,-0.351366 z m -0.19474,-0.715433 c -0.14393,0 -0.25823,0.1143 -0.25823,0.254 0,0.143933 0.1143,0.258233 0.25823,0.258233 0.1397,0 0.254,-0.1143 0.254,-0.258233 0,-0.1397 -0.1143,-0.254 -0.254,-0.254 z m 1.7907,0.677333 c -0.29634,0 -0.5588,0.09737 -0.72814,0.275166 -0.1778,0.186267 -0.29633,0.499533 -0.29633,0.795866 0,0.639233 0.41063,1.058333 1.0414,1.058333 0.61383,0 1.0287,-0.423333 1.0287,-1.049866 0,-0.275167 -0.0974,-0.554566 -0.254,-0.7493 -0.1778,-0.211666 -0.46143,-0.330199 -0.79163,-0.330199 z m 0.004,0.169333 c 0.381,0 0.6096,0.347133 0.6096,0.931332 0,0.537633 -0.22013,0.859366 -0.59267,0.859366 -0.3937,0 -0.61383,-0.325966 -0.61383,-0.897466 0,-0.541866 0.23283,-0.893232 0.5969,-0.893232 z m 2.05316,-0.131233 h -0.14393 c -0.26247,0.0508 -0.40217,0.06773 -0.63923,0.08467 v 0.127 l 0.1016,0.0085 c 0.22436,0.0254 0.2794,0.09313 0.2794,0.351366 v 0.994833 c 0,0.232833 -0.0762,0.334433 -0.26247,0.351366 l -0.10583,0.0085 v 0.127 h 1.13876 v -0.127 l -0.10583,-0.0085 c -0.18627,-0.01693 -0.26247,-0.118533 -0.26247,-0.351366 v -1.045633 c 0.26247,-0.237066 0.51224,-0.3556 0.7493,-0.3556 0.23284,0 0.35984,0.148167 0.35984,0.423333 v 0.9779 c 0,0.232833 -0.0804,0.334433 -0.26247,0.351366 l -0.10583,0.0085 v 0.127 h 1.13876 v -0.127 l -0.10583,-0.0085 c -0.18627,-0.01693 -0.26247,-0.118533 -0.26247,-0.351366 v -1.045633 c 0,-0.351366 -0.23707,-0.558799 -0.63923,-0.558799 -0.32597,0 -0.5715,0.105833 -0.87207,0.372533 z m 3.69993,0.01693 h -0.11853 l -0.0423,0.1524 c -0.18204,-0.143933 -0.36407,-0.207433 -0.60537,-0.207433 -0.43603,0 -0.7747,0.270933 -0.7747,0.618066 0,0.2667 0.18203,0.423333 0.63077,0.537633 l 0.54186,0.135466 c 0.21167,0.05503 0.30904,0.143933 0.30904,0.2794 0,0.224366 -0.23284,0.389466 -0.5461,0.389466 -0.26247,0 -0.5207,-0.1143 -0.67734,-0.304799 -0.0762,-0.0889 -0.11853,-0.173567 -0.1778,-0.334433 h -0.14393 l 0.14393,0.753532 h 0.1397 l 0.0466,-0.1778 c 0.2286,0.173567 0.40217,0.232834 0.68157,0.232834 0.508,0 0.88053,-0.2921 0.88053,-0.6858 0,-0.287866 -0.16933,-0.4572 -0.53763,-0.546099 l -0.58844,-0.143934 c -0.10583,-0.0254 -0.1524,-0.04233 -0.19896,-0.0635 -0.0804,-0.04233 -0.13124,-0.118533 -0.13124,-0.203199 0,-0.182034 0.1778,-0.3175 0.42757,-0.3175 0.32173,0 0.60113,0.2032 0.74083,0.537633 h 0.13547 z"
         id="path6" />
    </g>
    <g
       id="text1"
       style="font-size:4.23333px;font-family:'URW Bookman';-inkscape-font-specification:'URW Bookman, Normal';text-align:center;letter-spacing:0px;word-spacing:-0.0820208px;text-anchor:middle;stroke:#000000;stroke-width:0.11;stroke-linejoin:round"
       aria-label="support&#10;due process">
      <path
         d="m 98.622482,56.209683 h -0.118533 l -0.04233,0.1524 C 98.279583,56.218149 98.09755,56.15465 97.85625,56.15465 c -0.436033,0 -0.7747,0.270933 -0.7747,0.618066 0,0.266699 0.182034,0.423333 0.630767,0.537633 l 0.541866,0.135466 c 0.211666,0.05503 0.309033,0.143933 0.309033,0.2794 0,0.224366 -0.232833,0.389466 -0.5461,0.389466 -0.262466,0 -0.520699,-0.1143 -0.677332,-0.3048 -0.0762,-0.0889 -0.118534,-0.173566 -0.1778,-0.334433 H 97.01805 l 0.143934,0.753533 h 0.1397 l 0.04657,-0.1778 c 0.2286,0.173567 0.402166,0.232833 0.681566,0.232833 0.508,0 0.880533,-0.292099 0.880533,-0.685799 0,-0.287866 -0.169333,-0.4572 -0.537633,-0.5461 l -0.588433,-0.143933 c -0.105833,-0.0254 -0.1524,-0.04233 -0.198966,-0.0635 -0.08043,-0.04233 -0.131234,-0.118533 -0.131234,-0.2032 0,-0.182033 0.1778,-0.317499 0.427567,-0.317499 0.321733,0 0.601133,0.2032 0.740832,0.537633 h 0.135467 z m 2.421468,2.036231 h 0.77047 v -0.126999 l -0.10584,-0.0085 c -0.18626,-0.01693 -0.26246,-0.118533 -0.26246,-0.351366 V 56.19275 h -0.14394 c -0.22013,0.0508 -0.3048,0.05927 -0.63923,0.08467 v 0.127 l 0.1016,0.0085 c 0.22437,0.0254 0.2794,0.09313 0.2794,0.351366 v 0.944033 c -0.28787,0.249766 -0.52917,0.372533 -0.74083,0.372533 -0.2667,0 -0.385237,-0.143934 -0.385237,-0.465667 V 56.19275 H 99.77395 c -0.220133,0.0508 -0.313266,0.0635 -0.639233,0.08467 v 0.127 l 0.1016,0.0085 c 0.224367,0.0254 0.2794,0.09313 0.2794,0.351366 v 0.884766 c 0,0.211666 0.0381,0.3302 0.135467,0.440266 0.1143,0.131233 0.275166,0.194733 0.495296,0.194733 0.3048,0 0.5334,-0.101599 0.89747,-0.393699 z m 1.7399,-2.053164 h -0.14393 c -0.24554,0.04657 -0.37677,0.0635 -0.62654,0.08467 v 0.127 l 0.0889,0.0085 c 0.22437,0.0254 0.2794,0.09313 0.2794,0.351366 v 1.960032 c 0,0.232833 -0.0804,0.334433 -0.26246,0.351366 l -0.10584,0.0085 v 0.127 h 1.13877 v -0.127 l -0.10583,-0.0085 c -0.18204,-0.01693 -0.26247,-0.118533 -0.26247,-0.351366 v -0.656166 c 0.19897,0.152399 0.39793,0.215899 0.66886,0.215899 0.53764,0 0.94404,-0.461433 0.94404,-1.075265 0,-0.262467 -0.0889,-0.537633 -0.23284,-0.728133 -0.1524,-0.2032 -0.41486,-0.325966 -0.69003,-0.325966 -0.2794,0 -0.49953,0.101599 -0.69003,0.317499 z m 0,0.491066 c 0.1778,-0.2413 0.3429,-0.338667 0.5588,-0.338667 0.37676,0 0.6223,0.359833 0.6223,0.9144 0,0.482599 -0.25824,0.833966 -0.61807,0.833966 -0.21166,0 -0.40216,-0.0762 -0.56303,-0.232834 z m 2.62467,-0.491066 h -0.14394 c -0.24553,0.04657 -0.37676,0.0635 -0.62653,0.08467 v 0.127 l 0.0889,0.0085 c 0.22437,0.0254 0.2794,0.09313 0.2794,0.351366 v 1.960032 c 0,0.232833 -0.0804,0.334433 -0.26247,0.351366 l -0.10583,0.0085 v 0.127 h 1.13877 v -0.127 l -0.10584,-0.0085 c -0.18203,-0.01693 -0.26246,-0.118533 -0.26246,-0.351366 v -0.656166 c 0.19896,0.152399 0.39793,0.215899 0.66886,0.215899 0.53764,0 0.94404,-0.461433 0.94404,-1.075265 0,-0.262467 -0.0889,-0.537633 -0.23284,-0.728133 -0.1524,-0.2032 -0.41486,-0.325966 -0.69003,-0.325966 -0.2794,0 -0.49953,0.101599 -0.69003,0.317499 z m 0,0.491066 c 0.1778,-0.2413 0.3429,-0.338667 0.5588,-0.338667 0.37676,0 0.6223,0.359833 0.6223,0.9144 0,0.482599 -0.25824,0.833966 -0.61807,0.833966 -0.21167,0 -0.40217,-0.0762 -0.56303,-0.232834 z m 2.95063,-0.529166 c -0.29633,0 -0.5588,0.09737 -0.72813,0.275166 -0.1778,0.186266 -0.29633,0.499533 -0.29633,0.795866 0,0.639233 0.41063,1.058332 1.04139,1.058332 0.61384,0 1.0287,-0.423333 1.0287,-1.049865 0,-0.275167 -0.0974,-0.554567 -0.254,-0.7493 -0.1778,-0.211666 -0.46143,-0.330199 -0.79163,-0.330199 z m 0.004,0.169333 c 0.381,0 0.6096,0.347133 0.6096,0.931332 0,0.537633 -0.22013,0.859366 -0.59266,0.859366 -0.3937,0 -0.61383,-0.325966 -0.61383,-0.897466 0,-0.541866 0.23283,-0.893232 0.59689,-0.893232 z m 2.05317,-0.131233 h -0.14394 c -0.26246,0.0508 -0.40216,0.06773 -0.63923,0.08467 v 0.127 l 0.1016,0.0085 c 0.22437,0.0254 0.2794,0.09313 0.2794,0.351366 v 0.994833 c 0,0.232833 -0.0762,0.334433 -0.26247,0.351366 l -0.10583,0.0085 v 0.126999 h 1.13877 v -0.126999 l -0.10584,-0.0085 c -0.18626,-0.01693 -0.26246,-0.118533 -0.26246,-0.351366 v -1.037166 c 0.1524,-0.169333 0.2667,-0.237067 0.38946,-0.237067 0.072,0 0.1016,0.0127 0.1778,0.06773 0.0762,0.0508 0.1397,0.07197 0.22014,0.07197 0.13546,0 0.23706,-0.09737 0.23706,-0.232833 0,-0.1397 -0.127,-0.237066 -0.30903,-0.237066 -0.0974,0 -0.19897,0.02117 -0.30057,0.06773 -0.1016,0.04233 -0.12276,0.05927 -0.32596,0.232833 -0.0127,0.0085 -0.0466,0.04233 -0.0889,0.0762 z m 2.55693,0 h -0.60536 v -0.770466 h -0.16087 c 0.004,0.520699 -0.18203,0.753532 -0.5969,0.770466 v 0.139699 h 0.3556 v 1.418166 c 0,0.207433 0.0593,0.338666 0.19473,0.423333 0.11007,0.07197 0.25824,0.110066 0.41064,0.110066 0.24976,0 0.4445,-0.09737 0.5969,-0.296333 l -0.1143,-0.09313 c -0.14394,0.1651 -0.2413,0.220133 -0.3683,0.220133 -0.2159,0 -0.3175,-0.173566 -0.3175,-0.558799 v -1.223433 h 0.60536 z"
         id="path3" />
      <path
         d="m 94.508478,61.670678 c -0.2286,-0.156633 -0.444499,-0.224366 -0.702733,-0.224366 -0.529166,0 -0.931332,0.461433 -0.931332,1.071032 0,0.2667 0.0889,0.5461 0.232833,0.7366 0.148167,0.198966 0.4064,0.321733 0.668866,0.321733 0.135467,0 0.287867,-0.03387 0.423333,-0.09313 0.122767,-0.05503 0.186267,-0.09737 0.309033,-0.228599 v 0.283633 h 0.7112 v -0.127 l -0.0508,-0.0085 c -0.186267,-0.02963 -0.254,-0.122766 -0.258233,-0.351366 v -2.548465 h -0.169334 c -0.211666,0.08467 -0.309033,0.105833 -0.596899,0.143933 v 0.131234 l 0.0889,0.0085 c 0.232833,0.02963 0.2794,0.110067 0.275166,0.474133 z m 0,1.367366 c -0.1905,0.232833 -0.372533,0.334433 -0.605366,0.334433 -0.220133,0 -0.3937,-0.110067 -0.4826,-0.309033 -0.07197,-0.156633 -0.114299,-0.3556 -0.114299,-0.554566 0,-0.1905 0.0381,-0.389467 0.110066,-0.541867 0.09737,-0.215899 0.275167,-0.330199 0.516466,-0.330199 0.2032,0 0.3429,0.0635 0.575733,0.253999 z m 2.827868,0.499533 h 0.770466 v -0.127 l -0.105833,-0.0085 c -0.186267,-0.01693 -0.262466,-0.118533 -0.262466,-0.351366 v -1.566332 h -0.143934 c -0.220133,0.0508 -0.304799,0.05927 -0.639232,0.08467 v 0.127 l 0.101599,0.0085 c 0.224367,0.0254 0.2794,0.09313 0.2794,0.351366 v 0.944033 c -0.287866,0.249766 -0.529166,0.372533 -0.740833,0.372533 -0.266699,0 -0.385233,-0.143933 -0.385233,-0.465666 v -1.422399 h -0.143933 c -0.220133,0.0508 -0.313266,0.0635 -0.639233,0.08467 v 0.127 l 0.1016,0.0085 c 0.224367,0.0254 0.2794,0.09313 0.2794,0.351366 v 0.884766 c 0,0.211667 0.0381,0.3302 0.135467,0.440266 0.1143,0.131234 0.275166,0.194734 0.495299,0.194734 0.3048,0 0.5334,-0.1016 0.897466,-0.3937 z m 2.823634,-0.5588 c -0.15663,0.2794 -0.347135,0.4064 -0.613834,0.4064 -0.300567,0 -0.516467,-0.148167 -0.630767,-0.436033 -0.0635,-0.148167 -0.08467,-0.334433 -0.08467,-0.635 h 1.468967 c -0.004,-0.245533 -0.0593,-0.397933 -0.19897,-0.558799 -0.169331,-0.198967 -0.427565,-0.309033 -0.723898,-0.309033 -0.579966,0 -0.999065,0.436033 -0.999065,1.045632 0,0.283633 0.105833,0.567266 0.279399,0.762 0.1905,0.215899 0.448733,0.321733 0.766233,0.321733 0.389466,0 0.660401,-0.160867 0.876301,-0.529167 z m -1.316567,-0.833966 c 0.02963,-0.1778 0.05503,-0.254 0.122766,-0.3429 0.0889,-0.122766 0.220134,-0.186266 0.389467,-0.186266 0.309033,0 0.503766,0.2032 0.503766,0.529166 z m 3.706807,-0.660399 h -0.14393 c -0.24553,0.04657 -0.37677,0.0635 -0.62653,0.08467 v 0.127 l 0.0889,0.0085 c 0.22436,0.0254 0.2794,0.09313 0.2794,0.351366 v 1.960032 c 0,0.232833 -0.0804,0.334433 -0.26247,0.351366 l -0.10583,0.0085 v 0.127 h 1.13876 v -0.127 l -0.10583,-0.0085 c -0.18203,-0.01693 -0.26247,-0.118533 -0.26247,-0.351366 v -0.656166 c 0.19897,0.1524 0.39794,0.2159 0.66887,0.2159 0.53763,0 0.94403,-0.461433 0.94403,-1.075266 0,-0.262467 -0.0889,-0.537633 -0.23283,-0.728133 -0.1524,-0.2032 -0.41487,-0.325966 -0.69003,-0.325966 -0.2794,0 -0.49954,0.1016 -0.69004,0.3175 z m 0,0.491066 c 0.1778,-0.2413 0.3429,-0.338666 0.5588,-0.338666 0.37677,0 0.6223,0.359833 0.6223,0.914399 0,0.482599 -0.25823,0.833966 -0.61806,0.833966 -0.21167,0 -0.40217,-0.0762 -0.56304,-0.232833 z m 2.63737,-0.491066 h -0.14393 c -0.26247,0.0508 -0.40217,0.06773 -0.63924,0.08467 v 0.127 l 0.1016,0.0085 c 0.22437,0.0254 0.2794,0.09313 0.2794,0.351366 v 0.994833 c 0,0.232833 -0.0762,0.334433 -0.26246,0.351366 l -0.10584,0.0085 v 0.127 h 1.13877 v -0.127 l -0.10583,-0.0085 c -0.18627,-0.01693 -0.26247,-0.118533 -0.26247,-0.351366 v -1.037166 c 0.1524,-0.169333 0.2667,-0.237067 0.38947,-0.237067 0.072,0 0.1016,0.0127 0.1778,0.06773 0.0762,0.0508 0.1397,0.07197 0.22013,0.07197 0.13547,0 0.23707,-0.09737 0.23707,-0.232833 0,-0.1397 -0.127,-0.237066 -0.30904,-0.237066 -0.0974,0 -0.19896,0.02117 -0.30056,0.06773 -0.1016,0.04233 -0.12277,0.05927 -0.32597,0.232833 -0.0127,0.0085 -0.0466,0.04233 -0.0889,0.0762 z m 2.15053,-0.0381 c -0.29633,0 -0.5588,0.09737 -0.72813,0.275166 -0.1778,0.186267 -0.29633,0.499533 -0.29633,0.795866 0,0.639233 0.41063,1.058333 1.0414,1.058333 0.61383,0 1.02869,-0.423333 1.02869,-1.049866 0,-0.275167 -0.0974,-0.554566 -0.254,-0.7493 -0.1778,-0.211666 -0.46143,-0.330199 -0.79163,-0.330199 z m 0.004,0.169333 c 0.381,0 0.60959,0.347133 0.60959,0.931333 0,0.537632 -0.22013,0.859365 -0.59266,0.859365 -0.3937,0 -0.61383,-0.325966 -0.61383,-0.897465 0,-0.541867 0.23283,-0.893233 0.5969,-0.893233 z m 3.17076,1.388532 c -0.23707,0.300567 -0.41064,0.402166 -0.66887,0.402166 -0.44026,0 -0.72813,-0.347133 -0.72813,-0.876299 0,-0.237066 0.0423,-0.444499 0.12277,-0.609599 0.0974,-0.2032 0.26246,-0.3048 0.49529,-0.3048 0.22014,0 0.4191,0.131233 0.4191,0.2794 l -0.004,0.148166 c 0,0.122767 0.0889,0.2159 0.2159,0.2159 0.12277,0 0.2159,-0.09737 0.2159,-0.2286 0,-0.143933 -0.0889,-0.287866 -0.2413,-0.402166 -0.16933,-0.122767 -0.3683,-0.182033 -0.6223,-0.182033 -0.30903,0 -0.55456,0.09313 -0.73236,0.275166 -0.1905,0.198967 -0.30057,0.486833 -0.30057,0.791633 0,0.634999 0.4191,1.062566 1.0414,1.062566 0.4064,0 0.69003,-0.1524 0.91016,-0.4953 z m 2.1209,-0.0254 c -0.15663,0.2794 -0.34713,0.4064 -0.61383,0.4064 -0.30057,0 -0.51647,-0.148167 -0.63077,-0.436033 -0.0635,-0.148167 -0.0847,-0.334433 -0.0847,-0.635 h 1.46897 c -0.004,-0.245533 -0.0593,-0.397933 -0.19897,-0.558799 -0.16933,-0.198967 -0.42756,-0.309033 -0.7239,-0.309033 -0.57996,0 -0.99906,0.436033 -0.99906,1.045632 0,0.283633 0.10583,0.567266 0.2794,0.762 0.1905,0.215899 0.44873,0.321733 0.76623,0.321733 0.38947,0 0.6604,-0.160867 0.8763,-0.529167 z m -1.31657,-0.833966 c 0.0296,-0.1778 0.055,-0.254 0.12277,-0.3429 0.0889,-0.122766 0.22013,-0.186266 0.38947,-0.186266 0.30903,0 0.50376,0.2032 0.50376,0.529166 z m 3.3274,-0.643466 h -0.11853 l -0.0423,0.1524 c -0.18204,-0.143933 -0.36407,-0.207433 -0.60537,-0.207433 -0.43603,0 -0.7747,0.270933 -0.7747,0.618066 0,0.2667 0.18203,0.423333 0.63077,0.537633 l 0.54186,0.135466 c 0.21167,0.05503 0.30904,0.143934 0.30904,0.2794 0,0.224367 -0.23284,0.389466 -0.5461,0.389466 -0.26247,0 -0.5207,-0.114299 -0.67734,-0.304799 -0.0762,-0.0889 -0.11853,-0.173567 -0.1778,-0.334433 h -0.14393 l 0.14393,0.753532 h 0.1397 l 0.0466,-0.177799 c 0.2286,0.173566 0.40217,0.232833 0.68157,0.232833 0.508,0 0.88053,-0.2921 0.88053,-0.6858 0,-0.287866 -0.16933,-0.457199 -0.53763,-0.546099 l -0.58844,-0.143934 c -0.10583,-0.0254 -0.1524,-0.04233 -0.19896,-0.0635 -0.0804,-0.04233 -0.13124,-0.118534 -0.13124,-0.2032 0,-0.182033 0.1778,-0.3175 0.42757,-0.3175 0.32173,0 0.60113,0.2032 0.74083,0.537633 h 0.13547 z m 2.19287,0 h -0.11854 l -0.0423,0.1524 c -0.18203,-0.143933 -0.36407,-0.207433 -0.60537,-0.207433 -0.43603,0 -0.7747,0.270933 -0.7747,0.618066 0,0.2667 0.18204,0.423333 0.63077,0.537633 l 0.54187,0.135466 c 0.21166,0.05503 0.30903,0.143934 0.30903,0.2794 0,0.224367 -0.23283,0.389466 -0.5461,0.389466 -0.26247,0 -0.5207,-0.114299 -0.67733,-0.304799 -0.0762,-0.0889 -0.11854,-0.173567 -0.1778,-0.334433 h -0.14394 l 0.14394,0.753532 h 0.1397 l 0.0466,-0.177799 c 0.2286,0.173566 0.40217,0.232833 0.68157,0.232833 0.508,0 0.88053,-0.2921 0.88053,-0.6858 0,-0.287866 -0.16933,-0.457199 -0.53763,-0.546099 l -0.58843,-0.143934 c -0.10584,-0.0254 -0.1524,-0.04233 -0.19897,-0.0635 -0.0804,-0.04233 -0.13123,-0.118534 -0.13123,-0.2032 0,-0.182033 0.1778,-0.3175 0.42756,-0.3175 0.32174,0 0.60114,0.2032 0.74084,0.537633 h 0.13546 z"
         id="path4" />
    </g>
  </g>
  <g
     inkscape:groupmode="layer"
     id="layer5"
     inkscape:label="cut"
     transform="translate(-76.161777,-50.273881)">
    <path
       sodipodi:type="star"
       style="fill:none;stroke:#000000;stroke-width:0.0625491;stroke-linejoin:round;stroke-dasharray:none"
       id="path1"
       inkscape:flatsided="true"
       sodipodi:sides="6"
       sodipodi:cx="51.556885"
       sodipodi:cy="64.550896"
       sodipodi:r1="16.368788"
       sodipodi:r2="8.1843929"
       sodipodi:arg1="0.87605805"
       sodipodi:arg2="1.3996568"
       inkscape:rounded="0"
       inkscape:randomized="0"
       d="M 62.035927,77.125747 45.906266,79.913438 35.427223,67.338587 41.077842,51.976045 57.207504,49.188353 67.686547,61.763204 Z"
       inkscape:transform-center-x="0.20832463"
       inkscape:transform-center-y="-2.2504084"
       transform="matrix(1.7324747,0.30103254,-0.30096553,1.7328605,35.106596,-52.104115)" />
  </g>
</svg>
