<?xml version="1.0" encoding="UTF-8" standalone="no"?>
<!-- Created with Inkscape (http://www.inkscape.org/) -->

<svg
   width="50.110001mm"
   height="50.110001mm"
   viewBox="0 0 50.11 50.110001"
   version="1.1"
   id="svg1"
   inkscape:version="1.4.2 (ebf0e940d0, 2025-05-08)"
   sodipodi:docname="woke-as-hell.svg"
   xmlns:inkscape="http://www.inkscape.org/namespaces/inkscape"
   xmlns:sodipodi="http://sodipodi.sourceforge.net/DTD/sodipodi-0.dtd"
   xmlns="http://www.w3.org/2000/svg"
   xmlns:svg="http://www.w3.org/2000/svg">
  <sodipodi:namedview
     id="namedview1"
     pagecolor="#ffffff"
     bordercolor="#000000"
     borderopacity="0.25"
     inkscape:showpageshadow="2"
     inkscape:pageopacity="0.0"
     inkscape:pagecheckerboard="0"
     inkscape:deskcolor="#d1d1d1"
     inkscape:document-units="mm"
     showgrid="false"
     inkscape:zoom="3.4338156"
     inkscape:cx="130.90394"
     inkscape:cy="97.559112"
     inkscape:window-width="1896"
     inkscape:window-height="1032"
     inkscape:window-x="0"
     inkscape:window-y="0"
     inkscape:window-maximized="1"
     inkscape:current-layer="layer1" />
  <defs
     id="defs1" />
  <g
     inkscape:label="engrave"
     inkscape:groupmode="layer"
     id="layer1"
     transform="translate(-55.764149,-31.18968)">
    <path
       style="font-size:8.99549px;font-family:'URW Gothic';-inkscape-font-specification:'URW Gothic';text-align:center;letter-spacing:0px;word-spacing:0px;text-anchor:middle;fill:#cccccc;stroke:#cccccc;stroke-width:0.11;stroke-linejoin:round"
       d="m 2.5413487,64.002724 h 0.7016482 l 0.9715129,-2.239877 h 3.0944486 l 0.9625175,2.239877 H 9.0001106 L 6.1395447,57.355057 H 5.392919 Z m 1.9250349,-2.842575 1.304346,-3.049471 1.2773596,3.049471 z m 4.8035871,0.980508 c 0.062968,1.1964 0.8815583,1.979008 2.0779583,1.979008 1.151423,0 2.005994,-0.836581 2.005994,-1.970012 0,-0.584707 -0.242878,-1.106446 -0.656671,-1.421288 -0.27886,-0.1979 -0.55772,-0.323837 -1.241377,-0.530734 -0.602698,-0.179909 -0.800599,-0.260869 -0.980509,-0.413792 -0.188905,-0.170914 -0.314842,-0.467766 -0.314842,-0.773612 0,-0.674662 0.485757,-1.160419 1.151423,-1.160419 0.674662,0 1.133432,0.45877 1.187405,1.187405 h 0.692652 c -0.02699,-1.079459 -0.773612,-1.799098 -1.862066,-1.799098 -1.070463,0 -1.8440756,0.746626 -1.8440756,1.790103 0,0.45877 0.1709143,0.899549 0.4677655,1.178409 0.2608691,0.251874 0.4587701,0.341829 1.2413781,0.593702 0.521738,0.152924 0.809594,0.27886 1.034481,0.431784 0.287856,0.206896 0.449774,0.548725 0.449774,0.953522 0,0.764616 -0.548724,1.322337 -1.313341,1.322337 -0.422788,0 -0.827585,-0.188906 -1.070463,-0.494752 -0.188906,-0.233883 -0.269865,-0.45877 -0.3148426,-0.872563 z m 7.4572583,1.862067 h 0.665666 v -3.121435 h 3.445273 v 3.121435 h 0.665666 v -6.647667 h -0.665666 v 2.923534 h -3.445273 v -2.923534 h -0.665666 z m 6.143925,0 h 3.634178 V 63.400026 H 23.53682 v -2.455769 h 2.869561 V 60.341559 H 23.53682 v -2.383805 h 2.968512 v -0.602697 h -3.634178 z m 4.821575,0 h 3.418286 v -0.602698 h -2.75262 v -6.044969 h -0.665666 z m 4.155916,0 h 3.418286 v -0.602698 h -2.75262 v -6.044969 h -0.665666 z"
       id="text6"
       transform="matrix(1.343857,0,0,0.74412681,55.764149,31.18968)"
       aria-label="AS HELL"
       inkscape:label="as-hell" />
    <path
       d="m 12.493915,39.663209 2.686764,-15.71842 c 0.443178,-2.561521 0.692467,-3.085467 1.578823,-3.201901 v -0.902353 h -3.490027 v 0.902353 c 0.512424,0.14554 0.567823,0.174649 0.692467,0.291083 0.276983,0.291081 0.457026,0.873245 0.457026,1.484516 0,0.291083 -0.04158,0.756813 -0.08309,1.077004 l -1.855814,12.109005 -2.022,-12.953142 c -0.04151,-0.203759 -0.05539,-0.407515 -0.05539,-0.669489 0,-0.582164 0.152346,-0.989679 0.42933,-1.135219 0.152347,-0.08733 0.207745,-0.116436 0.581677,-0.203758 V 19.840535 H 7.6189555 v 0.902353 c 0.9140583,0.436623 1.2602882,1.251653 1.6203724,3.929605 L 7.5912598,35.762712 5.569259,22.95511 C 5.513865,22.634921 5.486157,22.314731 5.486157,22.023649 c 0,-0.844138 0.2354399,-1.164327 0.9971525,-1.280761 v -0.902353 h -3.767015 v 0.902353 c 0.9556036,0.494839 1.0525486,0.698598 1.4818785,3.201901 l 2.6036706,15.71842 h 0.817111 L 9.6409551,26.942931 11.676811,39.663209 Z m 9.015918,-20.201081 c -2.783721,0 -4.985763,4.511769 -4.985763,10.216973 0,5.879854 2.132796,10.362514 4.930365,10.362514 1.523424,0 3.019153,-1.455409 3.933204,-3.813173 0.67862,-1.74649 1.024849,-3.929604 1.024849,-6.4038 0,-5.996287 -2.063544,-10.362514 -4.902655,-10.362514 z m -0.0277,1.397194 c 2.022001,0 3.296145,3.52209 3.296145,9.139969 0,5.268582 -1.30184,8.645131 -3.309993,8.645131 -2.022001,0 -3.309992,-3.463874 -3.309992,-8.936214 0,-5.355904 1.315687,-8.848886 3.32384,-8.848886 z M 37.38115,39.663209 V 38.789963 C 36.439395,38.353341 36.079318,37.771177 35.4007,35.558955 l -2.631374,-9.023538 1.661917,-3.056358 c 0.844813,-1.513627 1.592678,-2.415981 2.202042,-2.677955 l 0.09695,-0.05821 V 19.84054 h -3.960908 v 0.902354 c 0.415482,0.08733 0.512424,0.116436 0.609372,0.203756 0.221586,0.17465 0.332382,0.553056 0.332382,1.018786 0,0.669489 -0.1108,0.989679 -0.81711,2.299547 -0.166196,0.291082 -0.263136,0.494839 -0.318534,0.582164 l -0.08309,0.145543 -2.437483,4.628201 V 24.03212 c 0.01388,-2.41598 0.180042,-3.027251 0.900204,-3.2019 l 0.567822,-0.08733 v -0.902353 h -4.0994 v 0.902353 l 0.346237,0.08733 c 0.720161,0.174649 0.886356,0.756813 0.900204,3.2019 v 11.439517 c -0.01381,2.445088 -0.180043,3.027251 -0.900204,3.2019 l -0.346237,0.08733 v 0.902353 h 4.0994 v -0.902353 l -0.567827,-0.08733 c -0.720161,-0.174649 -0.886357,-0.785921 -0.900204,-3.2019 v -4.046039 l 1.606518,-2.998142 2.229746,7.480803 c 0.23544,0.815031 0.318534,1.222543 0.318534,1.630058 0,0.727704 -0.235441,1.047894 -0.844813,1.164328 -0.04151,0 -0.138492,0.02911 -0.249288,0.05821 v 0.902353 z m 8.503479,-19.822674 h -7.907968 v 0.902353 l 0.34623,0.08733 c 0.720168,0.174649 0.886363,0.756813 0.900211,3.2019 v 11.439517 c -0.01388,2.445088 -0.180043,3.027251 -0.900211,3.2019 l -0.34623,0.08733 v 0.902353 h 8.074155 l 1.260289,-6.200044 -0.42933,-0.407515 c -1.509577,4.075146 -2.645222,5.355907 -4.708766,5.355907 -0.692467,0 -1.163347,-0.261974 -1.384932,-0.815029 -0.124645,-0.349299 -0.180043,-0.815029 -0.180043,-1.746491 v -6.141828 h 1.024848 c 1.066398,-0.02911 1.578823,1.106112 1.703467,3.754956 h 0.470881 v -8.703347 h -0.470881 c -0.152339,2.910818 -0.498576,3.69674 -1.675771,3.69674 h -1.052544 v -4.948392 c 0,-1.862924 0.360077,-2.415979 1.578822,-2.415979 1.88351,0 2.936054,1.077003 4.210197,4.366227 l 0.443179,-0.378405 z"
       id="text4"
       style="font-size:18.9522px;font-family:'URW Bookman';-inkscape-font-specification:'URW Bookman';text-align:center;letter-spacing:0px;word-spacing:0px;text-anchor:middle;stroke:#000000;stroke-width:0.11;stroke-linejoin:round"
       aria-label="WOKE"
       transform="translate(55.764149,31.18968)"
       inkscape:label="WOKE" />
    <path
       d="m 24.410633,15.602653 h -0.167641 c -0.300768,0.05424 -0.463478,0.07889 -0.724802,0.09862 v 0.147918 l 0.09862,0.0099 c 0.261322,0.02958 0.325421,0.108469 0.325421,0.409239 v 1.158689 c 0,0.271182 -0.08875,0.389517 -0.305699,0.40924 l -0.123265,0.0099 v 0.147918 h 1.321405 v -0.147918 l -0.118335,-0.0099 c -0.216946,-0.01972 -0.305698,-0.138058 -0.305698,-0.40924 z m -0.226808,-0.833268 c -0.167642,0 -0.300768,0.133126 -0.300768,0.295834 0,0.167641 0.133126,0.300767 0.300768,0.300767 0.16271,0 0.295836,-0.133126 0.295836,-0.300767 0,-0.162708 -0.133126,-0.295834 -0.295836,-0.295834 z m 2.775934,0.852992 h -0.138057 l -0.0493,0.177501 c -0.212021,-0.167641 -0.424037,-0.2416 -0.705083,-0.2416 -0.507853,0 -0.902302,0.315558 -0.902302,0.719866 0,0.310627 0.212016,0.49306 0.734662,0.626185 l 0.631119,0.157779 c 0.246531,0.06409 0.359935,0.16764 0.359935,0.325419 0,0.261321 -0.271184,0.453615 -0.63605,0.453615 -0.305699,0 -0.606466,-0.133126 -0.788899,-0.355003 -0.08875,-0.103542 -0.138057,-0.202154 -0.207086,-0.389518 h -0.167641 l 0.167641,0.877646 h 0.162711 l 0.05424,-0.207085 c 0.266254,0.202156 0.468409,0.271182 0.79383,0.271182 0.591673,0 1.025569,-0.340211 1.025569,-0.798755 0,-0.33528 -0.197226,-0.532504 -0.626189,-0.636047 L 25.9835,16.435923 c -0.123266,-0.02958 -0.177503,-0.0493 -0.23174,-0.07396 -0.09368,-0.0493 -0.152849,-0.138057 -0.152849,-0.236669 0,-0.212015 0.207086,-0.369793 0.497992,-0.369793 0.374727,0 0.700148,0.236667 0.862859,0.626184 h 0.15778 z"
       id="text3"
       style="font-size:4.23333px;font-family:'URW Bookman';-inkscape-font-specification:'URW Bookman';text-align:center;letter-spacing:0px;word-spacing:0px;text-anchor:middle;stroke:#000000;stroke-width:0.11;stroke-linejoin:round"
       aria-label="is"
       transform="translate(55.764149,31.18968)"
       inkscape:label="is" />
    <path
       d="m 68.943879,30.731649 0.354653,0.04256 c 0.737677,0.08512 0.90791,0.368839 0.922096,1.560471 v 3.206059 c 0,1.787448 -0.0993,2.468381 -0.453955,3.035825 -0.354652,0.567444 -1.049771,0.879538 -1.92931,0.879538 -0.695118,0 -1.220004,-0.184419 -1.631401,-0.58163 -0.269536,-0.25535 -0.411397,-0.539072 -0.411397,-0.808607 0,-0.226978 0.07093,-0.368839 0.283722,-0.567444 0.25535,-0.226978 0.354653,-0.425583 0.354653,-0.680933 0,-0.468142 -0.312095,-0.76605 -0.780236,-0.76605 -0.652561,0 -1.106516,0.524886 -1.106516,1.262563 0,0.808608 0.496514,1.688146 1.262563,2.198846 0.595816,0.397211 1.432796,0.624188 2.298148,0.624188 1.276749,0 2.468382,-0.496513 3.035826,-1.262563 0.411397,-0.539072 0.496513,-1.021399 0.496513,-2.610242 v -3.92955 c 0.01419,-1.191632 0.18442,-1.475354 0.922097,-1.560471 l 0.354652,-0.04256 V 30.29188 H 68.943879 Z M 81.924166,30.29188 h -8.100263 v 0.439769 l 0.354653,0.04256 c 0.737677,0.08512 0.90791,0.368839 0.922096,1.560471 v 5.575137 c -0.01419,1.191633 -0.184419,1.475355 -0.922096,1.560471 l -0.354653,0.04256 v 0.439769 h 8.270496 l 1.290935,-3.021639 -0.439769,-0.198606 c -1.546285,1.986054 -2.709545,2.610243 -4.823274,2.610243 -0.709305,0 -1.191632,-0.127675 -1.41861,-0.397211 -0.127675,-0.170233 -0.184419,-0.397211 -0.184419,-0.851166 v -2.993267 h 1.049771 c 1.09233,-0.01419 1.617216,0.539071 1.744891,1.830007 h 0.482327 v -4.241644 h -0.482327 c -0.156047,1.41861 -0.5107,1.801634 -1.716518,1.801634 h -1.078144 v -2.411637 c 0,-0.90791 0.368839,-1.177446 1.617215,-1.177446 1.92931,0 3.007454,0.524886 4.312575,2.127915 l 0.453955,-0.184419 z m 9.376996,0 H 90.790463 L 90.62023,30.802579 C 89.825808,30.320252 89.0172,30.10746 87.939057,30.10746 c -0.936283,0 -1.688146,0.226978 -2.269776,0.680933 -0.610003,0.482328 -0.978841,1.177447 -0.978841,1.858379 0,0.553258 0.241164,1.149074 0.624188,1.532099 0.439769,0.439769 1.191633,0.780236 2.298148,1.063958 l 1.900938,0.482327 c 1.404424,0.340466 1.886751,0.766049 1.886751,1.617215 0,1.205819 -1.106516,2.113729 -2.553498,2.113729 -0.709305,0 -1.446982,-0.226977 -2.099543,-0.624188 -0.822793,-0.524886 -1.390237,-1.177446 -1.971868,-2.298148 l -0.524885,0.170233 0.922096,3.248617 h 0.524886 l 0.269536,-0.709305 c 0.865352,0.610002 1.787448,0.893724 2.936523,0.893724 2.213031,0 3.943735,-1.333493 3.943735,-3.050011 0,-0.524886 -0.127675,-1.035586 -0.340466,-1.376052 -0.425583,-0.680933 -1.134888,-1.063958 -2.666987,-1.432796 l -1.773262,-0.425583 c -1.376052,-0.340467 -1.92931,-0.780236 -1.92931,-1.546285 0,-0.851166 0.90791,-1.517913 2.071171,-1.517913 1.376051,0 2.510939,0.723491 3.503966,2.241404 l 0.453956,-0.170233 z m 9.135848,0.439769 0.46814,0.04256 c 0.73768,0.08512 0.90791,0.368839 0.9221,1.560471 v 3.759317 c 0,1.532098 -0.11349,2.085356 -0.52489,2.567684 -0.43977,0.510699 -1.26256,0.794421 -2.312334,0.794421 -1.16326,0 -2.014426,-0.368838 -2.383265,-1.035585 -0.255349,-0.468141 -0.340466,-1.007213 -0.340466,-2.298148 v -3.787689 c 0.01419,-1.191632 0.184419,-1.475354 0.922096,-1.560471 l 0.524886,-0.04256 V 30.29188 h -4.142341 v 0.439769 l 0.354652,0.04256 c 0.737678,0.08512 0.907911,0.368839 0.922097,1.560471 v 4.752344 c 0,1.191632 0.32628,1.830007 1.248377,2.411637 0.709305,0.453955 1.503726,0.638374 2.681173,0.638374 1.631405,0 2.596055,-0.312094 3.262805,-1.078143 0.42558,-0.482328 0.59581,-1.049772 0.59581,-2.000241 v -4.723971 c 0.0142,-1.191632 0.18442,-1.475354 0.9221,-1.560471 l 0.35465,-0.04256 V 30.29188 h -3.47559 z m 11.1361,-0.439769 h -0.5107 l -0.17023,0.510699 c -0.79442,-0.482327 -1.60303,-0.695119 -2.68117,-0.695119 -0.93629,0 -1.68815,0.226978 -2.26978,0.680933 -0.61,0.482328 -0.97884,1.177447 -0.97884,1.858379 0,0.553258 0.24116,1.149074 0.62419,1.532099 0.43977,0.439769 1.19163,0.780236 2.29815,1.063958 l 1.90093,0.482327 c 1.40443,0.340466 1.88675,0.766049 1.88675,1.617215 0,1.205819 -1.10651,2.113729 -2.55349,2.113729 -0.70931,0 -1.44699,-0.226977 -2.09955,-0.624188 -0.82279,-0.524886 -1.39023,-1.177446 -1.97186,-2.298148 l -0.52489,0.170233 0.9221,3.248617 h 0.52488 l 0.26954,-0.709305 c 0.86535,0.610002 1.78745,0.893724 2.93652,0.893724 2.21303,0 3.94374,-1.333493 3.94374,-3.050011 0,-0.524886 -0.12768,-1.035586 -0.34047,-1.376052 -0.42558,-0.680933 -1.13489,-1.063958 -2.66699,-1.432796 l -1.77326,-0.425583 c -1.37605,-0.340467 -1.92931,-0.780236 -1.92931,-1.546285 0,-0.851166 0.90791,-1.517913 2.07117,-1.517913 1.37605,0 2.51094,0.723491 3.50397,2.241404 l 0.45395,-0.170233 z"
       id="text1"
       style="font-size:14.1861px;font-family:'URW Bookman';-inkscape-font-specification:'URW Bookman';text-align:center;letter-spacing:0px;word-spacing:0px;text-anchor:middle;stroke:#cccccc;stroke-width:0.11;stroke-linejoin:round"
       transform="matrix(0.90177556,0,0,1.1089234,-5.4166664e-7,-1.2916667e-6)"
       aria-label="JESUS"
       inkscape:label="JESUS" />
  </g>
  <g
     inkscape:groupmode="layer"
     id="layer4"
     inkscape:label="cut"
     style="display:inline">
    <path
       id="rect4"
       style="fill:none;stroke:#000000;stroke-width:0.11;stroke-linejoin:round"
       d="M 0.05499981,0.05500031 H 50.055001 V 50.055 H 0.05499981 Z" />
  </g>
</svg>
