<?xml version="1.0" encoding="UTF-8" standalone="no"?>
<!-- Created with Inkscape (http://www.inkscape.org/) -->

<svg
   width="50.110001mm"
   height="50.110001mm"
   viewBox="0 0 50.11 50.110001"
   version="1.1"
   id="svg1"
   inkscape:version="1.4.2 (ebf0e940d0, 2025-05-08)"
   sodipodi:docname="wwjd.svg"
   xmlns:inkscape="http://www.inkscape.org/namespaces/inkscape"
   xmlns:sodipodi="http://sodipodi.sourceforge.net/DTD/sodipodi-0.dtd"
   xmlns="http://www.w3.org/2000/svg"
   xmlns:svg="http://www.w3.org/2000/svg">
  <sodipodi:namedview
     id="namedview1"
     pagecolor="#ffffff"
     bordercolor="#000000"
     borderopacity="0.25"
     inkscape:showpageshadow="2"
     inkscape:pageopacity="0.0"
     inkscape:pagecheckerboard="0"
     inkscape:deskcolor="#d1d1d1"
     inkscape:document-units="mm"
     showgrid="false"
     inkscape:zoom="3.4338156"
     inkscape:cx="95.083731"
     inkscape:cy="97.559112"
     inkscape:window-width="1896"
     inkscape:window-height="1032"
     inkscape:window-x="0"
     inkscape:window-y="0"
     inkscape:window-maximized="1"
     inkscape:current-layer="layer3" />
  <defs
     id="defs1" />
  <g
     inkscape:label="engrave"
     inkscape:groupmode="layer"
     id="layer1"
     transform="translate(-55.764149,-31.18968)">
    <path
       d="m 67.211185,37.434622 0.33545,0.04025 c 0.697736,0.08051 0.858752,0.348868 0.87217,1.47598 v 3.032468 c 0,1.690668 -0.09393,2.334732 -0.429376,2.871452 -0.33545,0.53672 -0.992932,0.831916 -1.824848,0.831916 -0.657482,0 -1.153948,-0.174434 -1.54307,-0.550138 -0.254942,-0.241524 -0.389122,-0.509884 -0.389122,-0.764826 0,-0.214688 0.06709,-0.348868 0.26836,-0.53672 0.241524,-0.214688 0.33545,-0.40254 0.33545,-0.644064 0,-0.442794 -0.295196,-0.724572 -0.73799,-0.724572 -0.617228,0 -1.046605,0.496466 -1.046605,1.194202 0,0.764826 0.469631,1.596742 1.194203,2.07979 0.563556,0.375704 1.355218,0.590392 2.173716,0.590392 1.20762,0 2.334732,-0.46963 2.871452,-1.194202 0.389122,-0.509884 0.46963,-0.966096 0.46963,-2.468912 v -3.716786 c 0.01342,-1.127112 0.174434,-1.395472 0.87217,-1.47598 l 0.33545,-0.04025 v -0.415958 h -3.75704 z m 10.345283,6.950524 c -0.496466,0.885588 -1.100276,1.288128 -1.94561,1.288128 -0.952678,0 -1.636996,-0.46963 -1.999282,-1.382054 -0.20127,-0.46963 -0.26836,-1.060022 -0.26836,-2.0127 h 4.656046 c -0.01342,-0.778244 -0.187852,-1.261292 -0.630646,-1.771176 -0.53672,-0.630646 -1.355218,-0.979514 -2.294478,-0.979514 -1.838266,0 -3.166648,1.382054 -3.166648,3.314246 0,0.899006 0.33545,1.798012 0.885588,2.41524 0.60381,0.684318 1.422308,1.019768 2.428658,1.019768 1.234456,0 2.093208,-0.509884 2.777526,-1.67725 z M 73.38347,41.7418 c 0.09393,-0.563556 0.174434,-0.80508 0.389122,-1.086858 0.281778,-0.389122 0.697736,-0.590392 1.234456,-0.590392 0.979514,0 1.596742,0.644064 1.596742,1.67725 z m 10.546547,-2.039536 h -0.375704 l -0.13418,0.483048 C 82.843159,39.7291 82.266185,39.52783 81.501359,39.52783 c -1.382054,0 -2.455494,0.858752 -2.455494,1.959028 0,0.845334 0.576974,1.3418 1.999282,1.704086 l 1.717504,0.429376 c 0.6709,0.174434 0.979514,0.456212 0.979514,0.885588 0,0.711154 -0.73799,1.234456 -1.730922,1.234456 -0.831916,0 -1.650414,-0.362286 -2.14688,-0.966096 -0.241524,-0.281778 -0.375704,-0.550138 -0.563556,-1.060022 h -0.456212 l 0.456212,2.388404 h 0.442794 l 0.147598,-0.563556 c 0.724572,0.550138 1.27471,0.73799 2.160298,0.73799 1.61016,0 2.790944,-0.925842 2.790944,-2.173716 0,-0.912424 -0.53672,-1.449144 -1.704086,-1.730922 l -1.865102,-0.456212 c -0.33545,-0.08051 -0.483048,-0.13418 -0.630646,-0.20127 -0.254942,-0.13418 -0.415958,-0.375704 -0.415958,-0.644064 0,-0.576974 0.563556,-1.00635 1.355218,-1.00635 1.019768,0 1.905356,0.644064 2.34815,1.704086 h 0.429376 z m 7.675102,6.454058 h 2.442076 v -0.40254 l -0.33545,-0.02684 c -0.590392,-0.05367 -0.831916,-0.375704 -0.831916,-1.113694 v -4.96466 h -0.456212 c -0.697736,0.161016 -0.966096,0.187852 -2.026118,0.26836 v 0.40254 l 0.322032,0.02684 c 0.711154,0.08051 0.885588,0.295196 0.885588,1.113694 v 2.992214 c -0.912424,0.791662 -1.67725,1.180784 -2.34815,1.180784 -0.845334,0 -1.221038,-0.456212 -1.221038,-1.47598 v -4.508448 h -0.456212 c -0.697736,0.161016 -0.992932,0.20127 -2.026118,0.26836 v 0.40254 l 0.322032,0.02684 c 0.711154,0.08051 0.885588,0.295196 0.885588,1.113694 v 2.804362 c 0,0.6709 0.120762,1.046604 0.429376,1.395472 0.362286,0.415958 0.87217,0.617228 1.569906,0.617228 0.966096,0 1.690668,-0.322032 2.844616,-1.247874 z m 8.426511,-6.454058 h -0.375707 l -0.13418,0.483048 C 98.944769,39.7291 98.367795,39.52783 97.602969,39.52783 c -1.382054,0 -2.455494,0.858752 -2.455494,1.959028 0,0.845334 0.576974,1.3418 1.999282,1.704086 l 1.717504,0.429376 c 0.6709,0.174434 0.979514,0.456212 0.979514,0.885588 0,0.711154 -0.73799,1.234456 -1.730922,1.234456 -0.831916,0 -1.650414,-0.362286 -2.14688,-0.966096 -0.241524,-0.281778 -0.375704,-0.550138 -0.563556,-1.060022 h -0.456212 l 0.456212,2.388404 h 0.442794 l 0.147598,-0.563556 c 0.724572,0.550138 1.27471,0.73799 2.160298,0.73799 1.61016,0 2.790943,-0.925842 2.790943,-2.173716 0,-0.912424 -0.53672,-1.449144 -1.704085,-1.730922 l -1.865102,-0.456212 c -0.33545,-0.08051 -0.483048,-0.13418 -0.630646,-0.20127 -0.254942,-0.13418 -0.415958,-0.375704 -0.415958,-0.644064 0,-0.576974 0.563556,-1.00635 1.355218,-1.00635 1.019768,0 1.905356,0.644064 2.348153,1.704086 h 0.42937 z"
       id="text2"
       style="font-size:13.418px;font-family:'URW Bookman';-inkscape-font-specification:'URW Bookman';text-align:center;letter-spacing:0px;word-spacing:0px;text-anchor:middle;stroke:#000000;stroke-width:0.11;stroke-linejoin:round"
       transform="scale(0.99059902,1.0094902)"
       aria-label="Jesus" />
    <path
       d="m 80.370605,49.991707 h -0.143933 c -0.258233,0.04657 -0.397933,0.06773 -0.6223,0.08467 v 0.127 l 0.08467,0.0085 c 0.224366,0.0254 0.2794,0.09313 0.2794,0.351367 v 0.994832 c 0,0.232833 -0.0762,0.334433 -0.262467,0.351367 l -0.105833,0.0085 v 0.127 h 1.134532 v -0.127 l -0.1016,-0.0085 c -0.186266,-0.01693 -0.262466,-0.118534 -0.262466,-0.351367 z m -0.194733,-0.715432 c -0.143934,0 -0.258233,0.1143 -0.258233,0.253999 0,0.143934 0.114299,0.258234 0.258233,0.258234 0.1397,0 0.253999,-0.1143 0.253999,-0.258234 0,-0.139699 -0.114299,-0.253999 -0.253999,-0.253999 z m 2.383361,0.732366 H 82.4407 l -0.04233,0.1524 C 82.216333,50.017107 82.0343,49.953607 81.793,49.953607 c -0.436033,0 -0.774699,0.270933 -0.774699,0.618067 0,0.266699 0.182033,0.423333 0.630766,0.537632 l 0.541866,0.135467 c 0.211667,0.05503 0.309033,0.143933 0.309033,0.2794 0,0.224366 -0.232833,0.389466 -0.546099,0.389466 -0.262467,0 -0.5207,-0.1143 -0.677333,-0.3048 -0.0762,-0.0889 -0.118533,-0.173566 -0.1778,-0.334433 h -0.143933 l 0.143933,0.753533 h 0.1397 l 0.04657,-0.1778 c 0.2286,0.173567 0.402166,0.232833 0.681566,0.232833 0.507999,0 0.880533,-0.2921 0.880533,-0.685799 0,-0.287867 -0.169334,-0.4572 -0.537633,-0.5461 L 81.721034,50.70714 c -0.105833,-0.0254 -0.1524,-0.04233 -0.198967,-0.0635 -0.08043,-0.04233 -0.131233,-0.118533 -0.131233,-0.2032 0,-0.182033 0.1778,-0.317499 0.427566,-0.317499 0.321733,0 0.601133,0.203199 0.740833,0.537632 H 82.6947 Z"
       id="text3"
       style="font-size:4.23333px;font-family:'URW Bookman';-inkscape-font-specification:'URW Bookman';text-align:center;letter-spacing:0px;word-spacing:0px;text-anchor:middle;stroke:#000000;stroke-width:0.11;stroke-linejoin:round"
       aria-label="is" />
    <path
       d="m 111.79202,47.123356 3.67672,-10.234188 c 0.60647,-1.667794 0.94761,-2.008933 2.16055,-2.084742 v -0.587518 h -4.77595 v 0.587518 c 0.70123,0.09476 0.77704,0.113713 0.94761,0.189522 0.37904,0.189522 0.62542,0.568566 0.62542,0.966562 0,0.189522 -0.0569,0.492757 -0.11371,0.701232 l -2.5396,7.884115 -2.76702,-8.433729 c -0.0568,-0.132666 -0.0758,-0.265331 -0.0758,-0.435901 0,-0.379044 0.20848,-0.644375 0.58752,-0.739136 0.20848,-0.05686 0.28429,-0.07581 0.796,-0.132665 v -0.587518 h -5.19291 v 0.587518 c 1.25085,0.284283 1.72465,0.814945 2.21741,2.558547 l -2.25531,7.220788 -2.76702,-8.338968 c -0.0758,-0.208474 -0.11372,-0.416948 -0.11372,-0.60647 0,-0.549614 0.32219,-0.758088 1.36456,-0.833897 v -0.587518 h -5.154996 v 0.587518 c 1.307702,0.322187 1.440367,0.454853 2.027886,2.084742 l 3.56301,10.234188 h 1.11818 l 2.76702,-8.282112 2.78598,8.282112 z m 12.33789,-13.152827 c -3.8094,0 -6.8228,2.937591 -6.8228,6.652222 0,3.828345 2.91864,6.746983 6.74699,6.746983 2.08474,0 4.13158,-0.94761 5.38242,-2.482738 0.92866,-1.137132 1.40246,-2.558547 1.40246,-4.169484 0,-3.904153 -2.82387,-6.746983 -6.70907,-6.746983 z m -0.0379,0.909706 c 2.76702,0 4.51063,2.293216 4.51063,5.95099 0,3.430349 -1.78151,5.628804 -4.52958,5.628804 -2.76702,0 -4.52958,-2.255312 -4.52958,-5.818326 0,-3.487204 1.80046,-5.761468 4.54853,-5.761468 z m 21.75711,12.243121 V 46.55479 c -1.28875,-0.284283 -1.7815,-0.663327 -2.71016,-2.103694 l -3.60092,-5.875182 2.27426,-1.989981 c 1.15609,-0.985515 2.17951,-1.573033 3.0134,-1.743603 l 0.13267,-0.0379 v -0.587518 h -5.42033 v 0.587518 c 0.56857,0.05686 0.70123,0.07581 0.8339,0.132665 0.30323,0.113714 0.45485,0.360092 0.45485,0.663327 0,0.435901 -0.15162,0.644375 -1.11818,1.497224 -0.22743,0.189522 -0.36009,0.322187 -0.4359,0.379044 l -0.11371,0.09476 -3.33559,3.0134 v -3.638823 c 0.019,-1.573032 0.24638,-1.971028 1.23189,-2.084741 l 0.77704,-0.05686 v -0.587518 h -5.60985 v 0.587518 l 0.47381,0.05686 c 0.98551,0.113713 1.21294,0.492757 1.23189,2.084741 v 7.448215 c -0.0189,1.591985 -0.24638,1.971029 -1.23189,2.084742 l -0.47381,0.05686 v 0.587518 h 5.60985 v -0.587518 l -0.77704,-0.05686 c -0.98551,-0.113713 -1.21294,-0.511709 -1.23189,-2.084742 v -2.634356 l 2.19845,-1.952076 3.05131,4.870715 c 0.32219,0.530662 0.4359,0.795992 0.4359,1.061323 0,0.473805 -0.32219,0.682279 -1.15609,0.758088 -0.0568,0 -0.18952,0.01895 -0.34114,0.0379 v 0.587518 z m 11.63664,-12.906448 h -10.82171 v 0.587518 l 0.4738,0.05686 c 0.98552,0.113713 1.21295,0.492757 1.2319,2.084741 v 7.448215 c -0.019,1.591985 -0.24638,1.971029 -1.2319,2.084742 l -0.4738,0.05686 v 0.587518 h 11.04913 l 1.72465,-4.036819 -0.58752,-0.265331 c -2.06579,2.653308 -3.61987,3.487205 -6.44374,3.487205 -0.94761,0 -1.59199,-0.17057 -1.89522,-0.530661 -0.17057,-0.227427 -0.24638,-0.530662 -0.24638,-1.137132 v -3.998915 h 1.40246 c 1.45932,-0.01895 2.16055,0.720184 2.33112,2.444834 h 0.64438 v -5.666708 h -0.64438 c -0.20847,1.89522 -0.68228,2.40693 -2.29322,2.40693 h -1.44036 v -3.221874 c 0,-1.212941 0.49275,-1.573033 2.16055,-1.573033 2.5775,0 4.01786,0.701232 5.76147,2.84283 l 0.60647,-0.246378 z"
       id="text4"
       style="font-size:18.9522px;font-family:'URW Bookman';-inkscape-font-specification:'URW Bookman';text-align:center;letter-spacing:0px;word-spacing:0px;text-anchor:middle;stroke:#000000;stroke-width:0.11;stroke-linejoin:round"
       transform="scale(0.6274075,1.5938605)"
       aria-label="WOKE" />
  </g>
  <g
     inkscape:groupmode="layer"
     id="layer3"
     inkscape:label="engrave-light"
     style="display:inline">
    <path
       d="m 37.3848,62.255917 1.453954,-4.04709 c 0.239828,-0.659525 0.37473,-0.794428 0.854386,-0.824407 v -0.232333 h -1.888642 v 0.232333 c 0.2773,0.03747 0.307279,0.04497 0.37473,0.07495 0.149893,0.07495 0.247322,0.224839 0.247322,0.382225 0,0.07495 -0.02248,0.19486 -0.04497,0.277301 l -1.004278,3.117758 -1.094213,-3.335102 c -0.02248,-0.05246 -0.02998,-0.104924 -0.02998,-0.172376 0,-0.149892 0.08244,-0.254816 0.232333,-0.29229 0.08244,-0.02248 0.112419,-0.02998 0.314773,-0.05246 v -0.232333 h -2.053523 v 0.232333 c 0.494644,0.112419 0.68201,0.322268 0.876869,1.011773 l -0.891858,2.855446 -1.094213,-3.297628 c -0.02998,-0.08244 -0.04497,-0.164882 -0.04497,-0.239828 0,-0.217344 0.127408,-0.299784 0.539612,-0.329763 v -0.232333 h -2.038534 v 0.232333 c 0.517128,0.127409 0.56959,0.179871 0.801923,0.824407 l 1.408987,4.04709 h 0.442182 l 1.094213,-3.275145 1.101708,3.275145 z m 7.711962,0 1.453955,-4.04709 c 0.239827,-0.659525 0.37473,-0.794428 0.854385,-0.824407 v -0.232333 h -1.888641 v 0.232333 c 0.2773,0.03747 0.307279,0.04497 0.37473,0.07495 0.149892,0.07495 0.247322,0.224839 0.247322,0.382225 0,0.07495 -0.02248,0.19486 -0.04497,0.277301 l -1.004277,3.117758 -1.094213,-3.335102 c -0.02248,-0.05246 -0.02998,-0.104924 -0.02998,-0.172376 0,-0.149892 0.08244,-0.254816 0.232333,-0.29229 0.08244,-0.02248 0.112419,-0.02998 0.314774,-0.05246 v -0.232339 h -2.05352 v 0.232333 c 0.494644,0.112419 0.682009,0.322268 0.876869,1.011773 l -0.891858,2.855446 -1.094214,-3.297628 c -0.02998,-0.08244 -0.04497,-0.164882 -0.04497,-0.239828 0,-0.217344 0.127408,-0.299784 0.539612,-0.329763 v -0.232333 h -2.038534 v 0.232333 c 0.517128,0.127409 0.56959,0.179871 0.801923,0.824407 l 1.408987,4.04709 h 0.442182 l 1.094213,-3.275145 1.101707,3.275145 z M 49.038935,57.38442 49.2263,57.4069 c 0.38972,0.04497 0.479655,0.19486 0.487149,0.824407 v 1.693782 c 0,0.944321 -0.05246,1.304062 -0.239827,1.603846 -0.187365,0.299785 -0.554601,0.464666 -1.019267,0.464666 -0.367236,0 -0.644536,-0.09743 -0.86188,-0.307279 -0.142398,-0.134903 -0.217344,-0.284795 -0.217344,-0.427193 0,-0.119913 0.03747,-0.194859 0.149892,-0.299784 0.134903,-0.119914 0.187366,-0.224838 0.187366,-0.359741 0,-0.247322 -0.164882,-0.404709 -0.412204,-0.404709 -0.344752,0 -0.584579,0.2773 -0.584579,0.66702 0,0.427193 0.262311,0.891859 0.66702,1.161665 0.314773,0.209849 0.756955,0.329763 1.214127,0.329763 0.674514,0 1.304062,-0.262312 1.603846,-0.667021 0.217344,-0.284795 0.262311,-0.539612 0.262311,-1.379008 v -2.076007 c 0.0075,-0.629547 0.09743,-0.779439 0.48715,-0.824407 l 0.187365,-0.02248 v -0.232333 h -2.09849 z m 2.578148,4.871497 h 2.285856 c 1.161665,0 1.783718,-0.164882 2.30834,-0.622053 0.502139,-0.434687 0.809418,-1.15417 0.809418,-1.888642 0,-0.711988 -0.29229,-1.453954 -0.749461,-1.888641 -0.517128,-0.48715 -1.236611,-0.704494 -2.368297,-0.704494 h -2.285856 v 0.232333 l 0.187366,0.02248 c 0.389719,0.04497 0.479655,0.19486 0.487149,0.824407 v 2.945382 c -0.0075,0.629547 -0.09743,0.779439 -0.487149,0.824407 l -0.187366,0.02248 z m 1.423976,-4.107047 c 0,-0.284795 0.02248,-0.427192 0.08994,-0.502138 0.08994,-0.11242 0.419698,-0.187366 0.801923,-0.187366 0.816912,0 1.423976,0.269806 1.791212,0.794429 0.269806,0.37473 0.412203,0.884364 0.412203,1.438965 0,0.607063 -0.172376,1.169159 -0.479655,1.551384 -0.359741,0.457171 -0.966805,0.704494 -1.72376,0.704494 -0.374731,0 -0.68201,-0.06745 -0.786934,-0.164882 -0.08244,-0.07495 -0.104925,-0.19486 -0.104925,-0.494644 z"
       id="text1"
       style="font-size:7.49461px;font-family:'URW Bookman';-inkscape-font-specification:'URW Bookman';text-align:center;letter-spacing:0px;word-spacing:0px;text-anchor:middle;stroke:#000000;stroke-width:0.11;stroke-linejoin:round"
       transform="matrix(1.7703813,0,0,0.56485007,-55.76415,-31.189681)"
       aria-label="WWJD" />
    <path
       d="m 24.001859,-179.84613 1.453955,-4.04709 c 0.239827,-0.65953 0.37473,-0.79443 0.854385,-0.82441 v -0.23233 h -1.888641 v 0.23233 c 0.2773,0.0375 0.307279,0.045 0.37473,0.075 0.149892,0.075 0.247322,0.22484 0.247322,0.38222 0,0.075 -0.02248,0.19486 -0.04497,0.27731 l -1.004278,3.11775 -1.094213,-3.3351 c -0.02248,-0.0525 -0.02998,-0.10492 -0.02998,-0.17237 0,-0.1499 0.08244,-0.25482 0.232333,-0.29229 0.08244,-0.0225 0.112419,-0.03 0.314774,-0.0525 v -0.23233 h -2.053523 v 0.23233 c 0.494644,0.11242 0.682009,0.32227 0.876869,1.01178 l -0.891858,2.85544 -1.094214,-3.29763 c -0.02998,-0.0824 -0.04497,-0.16488 -0.04497,-0.23982 0,-0.21735 0.127408,-0.29979 0.539612,-0.32977 v -0.23233 h -2.038534 v 0.23233 c 0.517128,0.12741 0.56959,0.17987 0.801923,0.82441 l 1.408987,4.04709 h 0.442182 l 1.094213,-3.27514 1.101707,3.27514 z m 7.711963,0 1.453954,-4.04709 c 0.239828,-0.65953 0.374731,-0.79443 0.854386,-0.82441 v -0.23233 H 32.13352 v 0.23233 c 0.277301,0.0375 0.307279,0.045 0.374731,0.075 0.149892,0.075 0.247322,0.22484 0.247322,0.38222 0,0.075 -0.02248,0.19486 -0.04497,0.27731 l -1.004278,3.11775 -1.094213,-3.3351 c -0.02248,-0.0525 -0.02998,-0.10492 -0.02998,-0.17237 0,-0.1499 0.08244,-0.25482 0.232333,-0.29229 0.08244,-0.0225 0.112419,-0.03 0.314774,-0.0525 v -0.23233 h -2.053524 v 0.23233 c 0.494645,0.11242 0.68201,0.32227 0.87687,1.01178 l -0.891859,2.85544 -1.094213,-3.29763 c -0.02998,-0.0824 -0.04497,-0.16488 -0.04497,-0.23982 0,-0.21735 0.127408,-0.29979 0.539611,-0.32977 v -0.23233 h -2.038533 v 0.23233 c 0.517128,0.12741 0.56959,0.17987 0.801923,0.82441 l 1.408986,4.04709 h 0.442182 l 1.094213,-3.27514 1.101708,3.27514 z m 3.942172,-4.8715 0.187366,0.0225 c 0.389719,0.045 0.479655,0.19486 0.487149,0.8244 v 1.69379 c 0,0.94432 -0.05246,1.30406 -0.239827,1.60384 -0.187366,0.29979 -0.554601,0.46467 -1.019267,0.46467 -0.367236,0 -0.644537,-0.0974 -0.86188,-0.30728 -0.142398,-0.1349 -0.217344,-0.2848 -0.217344,-0.42719 0,-0.11992 0.03747,-0.19486 0.149892,-0.29979 0.134903,-0.11991 0.187365,-0.22484 0.187365,-0.35974 0,-0.24732 -0.164881,-0.40471 -0.412203,-0.40471 -0.344752,0 -0.58458,0.2773 -0.58458,0.66702 0,0.42719 0.262312,0.89186 0.667021,1.16167 0.314773,0.20985 0.756955,0.32976 1.214126,0.32976 0.674515,0 1.304062,-0.26231 1.603847,-0.66702 0.217343,-0.2848 0.262311,-0.53961 0.262311,-1.37901 v -2.07601 c 0.0075,-0.62954 0.09743,-0.77944 0.48715,-0.8244 l 0.187365,-0.0225 v -0.23233 h -2.098491 z m 2.578149,4.8715 h 2.285856 c 1.161665,0 1.783717,-0.16488 2.30834,-0.62205 0.502139,-0.43469 0.809418,-1.15417 0.809418,-1.88864 0,-0.71199 -0.29229,-1.45396 -0.749461,-1.88865 -0.517128,-0.48715 -1.236611,-0.70449 -2.368297,-0.70449 h -2.285856 v 0.23233 l 0.187365,0.0225 c 0.38972,0.045 0.479655,0.19486 0.48715,0.8244 v 2.94539 c -0.0075,0.62954 -0.09743,0.77944 -0.48715,0.8244 l -0.187365,0.0225 z m 1.423976,-4.10705 c 0,-0.28479 0.02248,-0.42719 0.08994,-0.50214 0.08994,-0.11241 0.419698,-0.18736 0.801924,-0.18736 0.816912,0 1.423975,0.26981 1.791211,0.79443 0.269806,0.37473 0.412204,0.88436 0.412204,1.43896 0,0.60707 -0.172376,1.16916 -0.479655,1.55139 -0.359741,0.45717 -0.966805,0.70449 -1.72376,0.70449 -0.374731,0 -0.68201,-0.0674 -0.786934,-0.16488 -0.08244,-0.075 -0.104925,-0.19486 -0.104925,-0.49465 z"
       id="text1-5"
       style="font-size:7.49461px;font-family:'URW Bookman';-inkscape-font-specification:'URW Bookman';text-align:center;letter-spacing:0px;word-spacing:0px;text-anchor:middle;stroke:#000000;stroke-width:0.11;stroke-linejoin:round"
       transform="matrix(0,1.7703813,-0.56485007,0,-55.76415,-31.189681)"
       aria-label="WWJD" />
    <path
       d="m -54.253563,-137.21944 1.453954,-4.04709 c 0.239828,-0.65952 0.374731,-0.79442 0.854386,-0.8244 v -0.23234 h -1.888642 v 0.23234 c 0.277301,0.0375 0.307279,0.045 0.37473,0.0749 0.149893,0.075 0.247323,0.22484 0.247323,0.38223 0,0.0749 -0.02248,0.19486 -0.04497,0.2773 l -1.004278,3.11776 -1.094213,-3.3351 c -0.02248,-0.0525 -0.02998,-0.10493 -0.02998,-0.17238 0,-0.14989 0.08244,-0.25482 0.232333,-0.29229 0.08244,-0.0225 0.112419,-0.03 0.314773,-0.0525 v -0.23234 h -2.053523 v 0.23234 c 0.494644,0.11242 0.68201,0.32227 0.876869,1.01177 l -0.891858,2.85545 -1.094213,-3.29763 c -0.02998,-0.0824 -0.04497,-0.16488 -0.04497,-0.23983 0,-0.21734 0.127409,-0.29978 0.539612,-0.32976 v -0.23234 h -2.038534 v 0.23234 c 0.517128,0.12741 0.569591,0.17987 0.801924,0.8244 l 1.408986,4.04709 h 0.442182 l 1.094213,-3.27514 1.101708,3.27514 z m 7.711963,0 1.453954,-4.04709 c 0.239827,-0.65952 0.37473,-0.79442 0.854385,-0.8244 v -0.23234 h -1.888641 v 0.23234 c 0.2773,0.0375 0.307279,0.045 0.37473,0.0749 0.149892,0.075 0.247322,0.22484 0.247322,0.38223 0,0.0749 -0.02248,0.19486 -0.04497,0.2773 l -1.004278,3.11776 -1.094213,-3.3351 c -0.02248,-0.0525 -0.02998,-0.10493 -0.02998,-0.17238 0,-0.14989 0.08244,-0.25482 0.232333,-0.29229 0.08244,-0.0225 0.112419,-0.03 0.314774,-0.0525 v -0.23234 h -2.053523 v 0.23234 c 0.494644,0.11242 0.682009,0.32227 0.876869,1.01177 l -0.891858,2.85545 -1.094213,-3.29763 c -0.02998,-0.0824 -0.04497,-0.16488 -0.04497,-0.23983 0,-0.21734 0.127408,-0.29978 0.539612,-0.32976 v -0.23234 h -2.038534 v 0.23234 c 0.517128,0.12741 0.56959,0.17987 0.801923,0.8244 l 1.408987,4.04709 h 0.442182 l 1.094213,-3.27514 1.101708,3.27514 z m 3.942172,-4.87149 0.187365,0.0225 c 0.38972,0.045 0.479655,0.19486 0.48715,0.82441 v 1.69378 c 0,0.94432 -0.05246,1.30406 -0.239828,1.60385 -0.187365,0.29978 -0.554601,0.46466 -1.019267,0.46466 -0.367236,0 -0.644536,-0.0974 -0.86188,-0.30728 -0.142398,-0.1349 -0.217344,-0.28479 -0.217344,-0.42719 0,-0.11991 0.03747,-0.19486 0.149893,-0.29978 0.134902,-0.11992 0.187365,-0.22484 0.187365,-0.35975 0,-0.24732 -0.164882,-0.4047 -0.412204,-0.4047 -0.344752,0 -0.584579,0.2773 -0.584579,0.66702 0,0.42719 0.262311,0.89185 0.66702,1.16166 0.314774,0.20985 0.756956,0.32976 1.214127,0.32976 0.674515,0 1.304062,-0.26231 1.603846,-0.66702 0.217344,-0.28479 0.262312,-0.53961 0.262312,-1.37901 v -2.076 c 0.0075,-0.62955 0.09743,-0.77944 0.487149,-0.82441 l 0.187365,-0.0225 v -0.23234 h -2.09849 z m 2.578149,4.87149 h 2.285856 c 1.161664,0 1.783717,-0.16488 2.308339,-0.62205 0.502139,-0.43469 0.809418,-1.15417 0.809418,-1.88864 0,-0.71199 -0.29229,-1.45396 -0.749461,-1.88864 -0.517128,-0.48715 -1.23661,-0.7045 -2.368296,-0.7045 h -2.285856 v 0.23234 l 0.187365,0.0225 c 0.389719,0.045 0.479655,0.19486 0.487149,0.82441 v 2.94538 c -0.0075,0.62955 -0.09743,0.77944 -0.487149,0.82441 l -0.187365,0.0225 z m 1.423975,-4.10704 c 0,-0.2848 0.02248,-0.4272 0.08994,-0.50214 0.08993,-0.11242 0.419698,-0.18737 0.801923,-0.18737 0.816912,0 1.423976,0.26981 1.791212,0.79443 0.269806,0.37473 0.412203,0.88437 0.412203,1.43897 0,0.60706 -0.172376,1.16916 -0.479655,1.55138 -0.359741,0.45717 -0.966804,0.70449 -1.72376,0.70449 -0.374731,0 -0.68201,-0.0674 -0.786934,-0.16488 -0.08244,-0.0749 -0.104925,-0.19486 -0.104925,-0.49464 z"
       id="text5"
       style="font-size:7.49461px;font-family:'URW Bookman';-inkscape-font-specification:'URW Bookman';text-align:center;letter-spacing:0px;word-spacing:0px;text-anchor:middle;stroke:#000000;stroke-width:0.11;stroke-linejoin:round"
       transform="matrix(-1.7703813,0,0,-0.56485007,-55.76415,-31.189681)"
       aria-label="WWJD" />
    <path
       d="m -40.176708,107.31652 1.453954,-4.04709 c 0.239827,-0.65952 0.37473,-0.79443 0.854385,-0.82441 v -0.23233 h -1.888641 v 0.23233 c 0.2773,0.0375 0.307279,0.045 0.37473,0.075 0.149892,0.075 0.247322,0.22484 0.247322,0.38223 0,0.0749 -0.02248,0.19486 -0.04497,0.2773 l -1.004278,3.11775 -1.094213,-3.3351 c -0.02248,-0.0525 -0.02998,-0.10492 -0.02998,-0.17237 0,-0.1499 0.08244,-0.25482 0.232333,-0.29229 0.08244,-0.0225 0.112419,-0.03 0.314774,-0.0525 v -0.23233 h -2.053523 v 0.23233 c 0.494644,0.11242 0.682009,0.32227 0.876869,1.01178 l -0.891858,2.85544 -1.094213,-3.29763 c -0.02998,-0.0824 -0.04497,-0.16488 -0.04497,-0.23982 0,-0.21735 0.127408,-0.29979 0.539612,-0.32977 v -0.23233 h -2.038534 v 0.23233 c 0.517128,0.12741 0.56959,0.17987 0.801923,0.82441 l 1.408987,4.04709 h 0.442182 l 1.094213,-3.27514 1.101708,3.27514 z m 7.711962,0 1.453955,-4.04709 c 0.239827,-0.65952 0.37473,-0.79443 0.854385,-0.82441 v -0.23233 h -1.888642 v 0.23233 c 0.277301,0.0375 0.307279,0.045 0.374731,0.075 0.149892,0.075 0.247322,0.22484 0.247322,0.38223 0,0.0749 -0.02248,0.19486 -0.04497,0.2773 l -1.004277,3.11775 -1.094213,-3.3351 c -0.02248,-0.0525 -0.02998,-0.10492 -0.02998,-0.17237 0,-0.1499 0.08244,-0.25482 0.232333,-0.29229 0.08244,-0.0225 0.112419,-0.03 0.314774,-0.0525 v -0.23233 h -2.053523 v 0.23233 c 0.494644,0.11242 0.682009,0.32227 0.876869,1.01178 l -0.891859,2.85544 -1.094213,-3.29763 c -0.02998,-0.0824 -0.04497,-0.16488 -0.04497,-0.23982 0,-0.21735 0.127408,-0.29979 0.539612,-0.32977 v -0.23233 h -2.038534 v 0.23233 c 0.517128,0.12741 0.56959,0.17987 0.801923,0.82441 l 1.408987,4.04709 h 0.442182 l 1.094213,-3.27514 1.101707,3.27514 z m 3.942172,-4.8715 0.187366,0.0225 c 0.389719,0.045 0.479655,0.19486 0.487149,0.82441 v 1.69378 c 0,0.94432 -0.05246,1.30406 -0.239827,1.60384 -0.187365,0.29979 -0.554601,0.46467 -1.019267,0.46467 -0.367236,0 -0.644537,-0.0974 -0.86188,-0.30728 -0.142398,-0.1349 -0.217344,-0.28479 -0.217344,-0.42719 0,-0.11992 0.03747,-0.19486 0.149892,-0.29979 0.134903,-0.11991 0.187365,-0.22484 0.187365,-0.35974 0,-0.24732 -0.164881,-0.40471 -0.412203,-0.40471 -0.344752,0 -0.58458,0.2773 -0.58458,0.66702 0,0.4272 0.262312,0.89186 0.667021,1.16167 0.314773,0.20985 0.756955,0.32976 1.214126,0.32976 0.674515,0 1.304063,-0.26231 1.603847,-0.66702 0.217344,-0.28479 0.262311,-0.53961 0.262311,-1.37901 v -2.076 c 0.0075,-0.62955 0.09743,-0.77944 0.48715,-0.82441 l 0.187365,-0.0225 v -0.23233 h -2.098491 z m 2.578149,4.8715 h 2.285856 c 1.161665,0 1.783717,-0.16488 2.30834,-0.62205 0.502139,-0.43469 0.809418,-1.15417 0.809418,-1.88864 0,-0.71199 -0.29229,-1.45396 -0.749461,-1.88865 -0.517128,-0.48714 -1.236611,-0.70449 -2.368297,-0.70449 h -2.285856 v 0.23233 l 0.187365,0.0225 c 0.38972,0.045 0.479656,0.19486 0.48715,0.82441 v 2.94538 c -0.0075,0.62954 -0.09743,0.77944 -0.48715,0.8244 l -0.187365,0.0225 z m 1.423976,-4.10705 c 0,-0.28479 0.02248,-0.42719 0.08994,-0.50213 0.08994,-0.11242 0.419699,-0.18737 0.801924,-0.18737 0.816912,0 1.423976,0.26981 1.791211,0.79443 0.269806,0.37473 0.412204,0.88436 0.412204,1.43896 0,0.60707 -0.172376,1.16916 -0.479655,1.55139 -0.359741,0.45717 -0.966805,0.70449 -1.72376,0.70449 -0.374731,0 -0.68201,-0.0675 -0.786934,-0.16488 -0.08244,-0.075 -0.104925,-0.19486 -0.104925,-0.49464 z"
       id="text5-6"
       style="font-size:7.49461px;font-family:'URW Bookman';-inkscape-font-specification:'URW Bookman';text-align:center;letter-spacing:0px;word-spacing:0px;text-anchor:middle;stroke:#000000;stroke-width:0.11;stroke-linejoin:round"
       transform="matrix(0,-1.7703813,0.56485007,0,-55.76415,-31.189681)"
       aria-label="WWJD" />
  </g>
  <g
     inkscape:groupmode="layer"
     id="layer4"
     inkscape:label="cut">
    <path
       id="rect4"
       style="fill:none;stroke:#000000;stroke-width:0.11;stroke-linejoin:round"
       transform="translate(-55.76415,-31.189681)"
       d="m 55.819149,31.24468 h 50.000001 v 50 H 55.819149 Z" />
  </g>
</svg>
